%TF.GenerationSoftware,KiCad,Pcbnew,9.0.0*%
%TF.CreationDate,2025-03-21T15:34:49-04:00*%
%TF.ProjectId,ephys-test-board,65706879-732d-4746-9573-742d626f6172,C*%
%TF.SameCoordinates,Original*%
%TF.FileFunction,OtherDrawing,Comment*%
%FSLAX46Y46*%
G04 Gerber Fmt 4.6, Leading zero omitted, Abs format (unit mm)*
G04 Created by KiCad (PCBNEW 9.0.0) date 2025-03-21 15:34:49*
%MOMM*%
%LPD*%
G01*
G04 APERTURE LIST*
%ADD10C,0.150000*%
%ADD11C,0.300000*%
%ADD12C,0.100000*%
%ADD13C,0.000000*%
G04 APERTURE END LIST*
D10*
X105638152Y-155142856D02*
X106304819Y-155142856D01*
X105257200Y-155380951D02*
X105971485Y-155619046D01*
X105971485Y-155619046D02*
X105971485Y-154999999D01*
X105304819Y-154428570D02*
X105304819Y-154333332D01*
X105304819Y-154333332D02*
X105352438Y-154238094D01*
X105352438Y-154238094D02*
X105400057Y-154190475D01*
X105400057Y-154190475D02*
X105495295Y-154142856D01*
X105495295Y-154142856D02*
X105685771Y-154095237D01*
X105685771Y-154095237D02*
X105923866Y-154095237D01*
X105923866Y-154095237D02*
X106114342Y-154142856D01*
X106114342Y-154142856D02*
X106209580Y-154190475D01*
X106209580Y-154190475D02*
X106257200Y-154238094D01*
X106257200Y-154238094D02*
X106304819Y-154333332D01*
X106304819Y-154333332D02*
X106304819Y-154428570D01*
X106304819Y-154428570D02*
X106257200Y-154523808D01*
X106257200Y-154523808D02*
X106209580Y-154571427D01*
X106209580Y-154571427D02*
X106114342Y-154619046D01*
X106114342Y-154619046D02*
X105923866Y-154666665D01*
X105923866Y-154666665D02*
X105685771Y-154666665D01*
X105685771Y-154666665D02*
X105495295Y-154619046D01*
X105495295Y-154619046D02*
X105400057Y-154571427D01*
X105400057Y-154571427D02*
X105352438Y-154523808D01*
X105352438Y-154523808D02*
X105304819Y-154428570D01*
X106209580Y-153666665D02*
X106257200Y-153619046D01*
X106257200Y-153619046D02*
X106304819Y-153666665D01*
X106304819Y-153666665D02*
X106257200Y-153714284D01*
X106257200Y-153714284D02*
X106209580Y-153666665D01*
X106209580Y-153666665D02*
X106304819Y-153666665D01*
X105304819Y-152999999D02*
X105304819Y-152904761D01*
X105304819Y-152904761D02*
X105352438Y-152809523D01*
X105352438Y-152809523D02*
X105400057Y-152761904D01*
X105400057Y-152761904D02*
X105495295Y-152714285D01*
X105495295Y-152714285D02*
X105685771Y-152666666D01*
X105685771Y-152666666D02*
X105923866Y-152666666D01*
X105923866Y-152666666D02*
X106114342Y-152714285D01*
X106114342Y-152714285D02*
X106209580Y-152761904D01*
X106209580Y-152761904D02*
X106257200Y-152809523D01*
X106257200Y-152809523D02*
X106304819Y-152904761D01*
X106304819Y-152904761D02*
X106304819Y-152999999D01*
X106304819Y-152999999D02*
X106257200Y-153095237D01*
X106257200Y-153095237D02*
X106209580Y-153142856D01*
X106209580Y-153142856D02*
X106114342Y-153190475D01*
X106114342Y-153190475D02*
X105923866Y-153238094D01*
X105923866Y-153238094D02*
X105685771Y-153238094D01*
X105685771Y-153238094D02*
X105495295Y-153190475D01*
X105495295Y-153190475D02*
X105400057Y-153142856D01*
X105400057Y-153142856D02*
X105352438Y-153095237D01*
X105352438Y-153095237D02*
X105304819Y-152999999D01*
X105304819Y-152047618D02*
X105304819Y-151952380D01*
X105304819Y-151952380D02*
X105352438Y-151857142D01*
X105352438Y-151857142D02*
X105400057Y-151809523D01*
X105400057Y-151809523D02*
X105495295Y-151761904D01*
X105495295Y-151761904D02*
X105685771Y-151714285D01*
X105685771Y-151714285D02*
X105923866Y-151714285D01*
X105923866Y-151714285D02*
X106114342Y-151761904D01*
X106114342Y-151761904D02*
X106209580Y-151809523D01*
X106209580Y-151809523D02*
X106257200Y-151857142D01*
X106257200Y-151857142D02*
X106304819Y-151952380D01*
X106304819Y-151952380D02*
X106304819Y-152047618D01*
X106304819Y-152047618D02*
X106257200Y-152142856D01*
X106257200Y-152142856D02*
X106209580Y-152190475D01*
X106209580Y-152190475D02*
X106114342Y-152238094D01*
X106114342Y-152238094D02*
X105923866Y-152285713D01*
X105923866Y-152285713D02*
X105685771Y-152285713D01*
X105685771Y-152285713D02*
X105495295Y-152238094D01*
X105495295Y-152238094D02*
X105400057Y-152190475D01*
X105400057Y-152190475D02*
X105352438Y-152142856D01*
X105352438Y-152142856D02*
X105304819Y-152047618D01*
X105304819Y-151095237D02*
X105304819Y-150999999D01*
X105304819Y-150999999D02*
X105352438Y-150904761D01*
X105352438Y-150904761D02*
X105400057Y-150857142D01*
X105400057Y-150857142D02*
X105495295Y-150809523D01*
X105495295Y-150809523D02*
X105685771Y-150761904D01*
X105685771Y-150761904D02*
X105923866Y-150761904D01*
X105923866Y-150761904D02*
X106114342Y-150809523D01*
X106114342Y-150809523D02*
X106209580Y-150857142D01*
X106209580Y-150857142D02*
X106257200Y-150904761D01*
X106257200Y-150904761D02*
X106304819Y-150999999D01*
X106304819Y-150999999D02*
X106304819Y-151095237D01*
X106304819Y-151095237D02*
X106257200Y-151190475D01*
X106257200Y-151190475D02*
X106209580Y-151238094D01*
X106209580Y-151238094D02*
X106114342Y-151285713D01*
X106114342Y-151285713D02*
X105923866Y-151333332D01*
X105923866Y-151333332D02*
X105685771Y-151333332D01*
X105685771Y-151333332D02*
X105495295Y-151285713D01*
X105495295Y-151285713D02*
X105400057Y-151238094D01*
X105400057Y-151238094D02*
X105352438Y-151190475D01*
X105352438Y-151190475D02*
X105304819Y-151095237D01*
X105304819Y-150142856D02*
X105304819Y-150047618D01*
X105304819Y-150047618D02*
X105352438Y-149952380D01*
X105352438Y-149952380D02*
X105400057Y-149904761D01*
X105400057Y-149904761D02*
X105495295Y-149857142D01*
X105495295Y-149857142D02*
X105685771Y-149809523D01*
X105685771Y-149809523D02*
X105923866Y-149809523D01*
X105923866Y-149809523D02*
X106114342Y-149857142D01*
X106114342Y-149857142D02*
X106209580Y-149904761D01*
X106209580Y-149904761D02*
X106257200Y-149952380D01*
X106257200Y-149952380D02*
X106304819Y-150047618D01*
X106304819Y-150047618D02*
X106304819Y-150142856D01*
X106304819Y-150142856D02*
X106257200Y-150238094D01*
X106257200Y-150238094D02*
X106209580Y-150285713D01*
X106209580Y-150285713D02*
X106114342Y-150333332D01*
X106114342Y-150333332D02*
X105923866Y-150380951D01*
X105923866Y-150380951D02*
X105685771Y-150380951D01*
X105685771Y-150380951D02*
X105495295Y-150333332D01*
X105495295Y-150333332D02*
X105400057Y-150285713D01*
X105400057Y-150285713D02*
X105352438Y-150238094D01*
X105352438Y-150238094D02*
X105304819Y-150142856D01*
X106304819Y-148619046D02*
X105638152Y-148619046D01*
X105733390Y-148619046D02*
X105685771Y-148571427D01*
X105685771Y-148571427D02*
X105638152Y-148476189D01*
X105638152Y-148476189D02*
X105638152Y-148333332D01*
X105638152Y-148333332D02*
X105685771Y-148238094D01*
X105685771Y-148238094D02*
X105781009Y-148190475D01*
X105781009Y-148190475D02*
X106304819Y-148190475D01*
X105781009Y-148190475D02*
X105685771Y-148142856D01*
X105685771Y-148142856D02*
X105638152Y-148047618D01*
X105638152Y-148047618D02*
X105638152Y-147904761D01*
X105638152Y-147904761D02*
X105685771Y-147809522D01*
X105685771Y-147809522D02*
X105781009Y-147761903D01*
X105781009Y-147761903D02*
X106304819Y-147761903D01*
X106304819Y-147285713D02*
X105638152Y-147285713D01*
X105733390Y-147285713D02*
X105685771Y-147238094D01*
X105685771Y-147238094D02*
X105638152Y-147142856D01*
X105638152Y-147142856D02*
X105638152Y-146999999D01*
X105638152Y-146999999D02*
X105685771Y-146904761D01*
X105685771Y-146904761D02*
X105781009Y-146857142D01*
X105781009Y-146857142D02*
X106304819Y-146857142D01*
X105781009Y-146857142D02*
X105685771Y-146809523D01*
X105685771Y-146809523D02*
X105638152Y-146714285D01*
X105638152Y-146714285D02*
X105638152Y-146571428D01*
X105638152Y-146571428D02*
X105685771Y-146476189D01*
X105685771Y-146476189D02*
X105781009Y-146428570D01*
X105781009Y-146428570D02*
X106304819Y-146428570D01*
X164500000Y-131000000D02*
X106413580Y-131000000D01*
X106413580Y-171000000D02*
X164500000Y-171000000D01*
X107000000Y-131000000D02*
X107000000Y-171000000D01*
X107000000Y-131000000D02*
X107000000Y-171000000D01*
X107000000Y-131000000D02*
X107586421Y-132126504D01*
X107000000Y-131000000D02*
X106413579Y-132126504D01*
X107000000Y-171000000D02*
X106413579Y-169873496D01*
X107000000Y-171000000D02*
X107586421Y-169873496D01*
X107000000Y-131000000D02*
X107000000Y-171000000D01*
X107000000Y-131000000D02*
X107000000Y-171000000D01*
X107000000Y-131000000D02*
X107586421Y-132126504D01*
X107000000Y-131000000D02*
X106413579Y-132126504D01*
X107000000Y-171000000D02*
X106413579Y-169873496D01*
X107000000Y-171000000D02*
X107586421Y-169873496D01*
X147880953Y-178400057D02*
X147928572Y-178352438D01*
X147928572Y-178352438D02*
X148023810Y-178304819D01*
X148023810Y-178304819D02*
X148261905Y-178304819D01*
X148261905Y-178304819D02*
X148357143Y-178352438D01*
X148357143Y-178352438D02*
X148404762Y-178400057D01*
X148404762Y-178400057D02*
X148452381Y-178495295D01*
X148452381Y-178495295D02*
X148452381Y-178590533D01*
X148452381Y-178590533D02*
X148404762Y-178733390D01*
X148404762Y-178733390D02*
X147833334Y-179304819D01*
X147833334Y-179304819D02*
X148452381Y-179304819D01*
X149357143Y-178304819D02*
X148880953Y-178304819D01*
X148880953Y-178304819D02*
X148833334Y-178781009D01*
X148833334Y-178781009D02*
X148880953Y-178733390D01*
X148880953Y-178733390D02*
X148976191Y-178685771D01*
X148976191Y-178685771D02*
X149214286Y-178685771D01*
X149214286Y-178685771D02*
X149309524Y-178733390D01*
X149309524Y-178733390D02*
X149357143Y-178781009D01*
X149357143Y-178781009D02*
X149404762Y-178876247D01*
X149404762Y-178876247D02*
X149404762Y-179114342D01*
X149404762Y-179114342D02*
X149357143Y-179209580D01*
X149357143Y-179209580D02*
X149309524Y-179257200D01*
X149309524Y-179257200D02*
X149214286Y-179304819D01*
X149214286Y-179304819D02*
X148976191Y-179304819D01*
X148976191Y-179304819D02*
X148880953Y-179257200D01*
X148880953Y-179257200D02*
X148833334Y-179209580D01*
X149833334Y-179209580D02*
X149880953Y-179257200D01*
X149880953Y-179257200D02*
X149833334Y-179304819D01*
X149833334Y-179304819D02*
X149785715Y-179257200D01*
X149785715Y-179257200D02*
X149833334Y-179209580D01*
X149833334Y-179209580D02*
X149833334Y-179304819D01*
X150500000Y-178304819D02*
X150595238Y-178304819D01*
X150595238Y-178304819D02*
X150690476Y-178352438D01*
X150690476Y-178352438D02*
X150738095Y-178400057D01*
X150738095Y-178400057D02*
X150785714Y-178495295D01*
X150785714Y-178495295D02*
X150833333Y-178685771D01*
X150833333Y-178685771D02*
X150833333Y-178923866D01*
X150833333Y-178923866D02*
X150785714Y-179114342D01*
X150785714Y-179114342D02*
X150738095Y-179209580D01*
X150738095Y-179209580D02*
X150690476Y-179257200D01*
X150690476Y-179257200D02*
X150595238Y-179304819D01*
X150595238Y-179304819D02*
X150500000Y-179304819D01*
X150500000Y-179304819D02*
X150404762Y-179257200D01*
X150404762Y-179257200D02*
X150357143Y-179209580D01*
X150357143Y-179209580D02*
X150309524Y-179114342D01*
X150309524Y-179114342D02*
X150261905Y-178923866D01*
X150261905Y-178923866D02*
X150261905Y-178685771D01*
X150261905Y-178685771D02*
X150309524Y-178495295D01*
X150309524Y-178495295D02*
X150357143Y-178400057D01*
X150357143Y-178400057D02*
X150404762Y-178352438D01*
X150404762Y-178352438D02*
X150500000Y-178304819D01*
X151452381Y-178304819D02*
X151547619Y-178304819D01*
X151547619Y-178304819D02*
X151642857Y-178352438D01*
X151642857Y-178352438D02*
X151690476Y-178400057D01*
X151690476Y-178400057D02*
X151738095Y-178495295D01*
X151738095Y-178495295D02*
X151785714Y-178685771D01*
X151785714Y-178685771D02*
X151785714Y-178923866D01*
X151785714Y-178923866D02*
X151738095Y-179114342D01*
X151738095Y-179114342D02*
X151690476Y-179209580D01*
X151690476Y-179209580D02*
X151642857Y-179257200D01*
X151642857Y-179257200D02*
X151547619Y-179304819D01*
X151547619Y-179304819D02*
X151452381Y-179304819D01*
X151452381Y-179304819D02*
X151357143Y-179257200D01*
X151357143Y-179257200D02*
X151309524Y-179209580D01*
X151309524Y-179209580D02*
X151261905Y-179114342D01*
X151261905Y-179114342D02*
X151214286Y-178923866D01*
X151214286Y-178923866D02*
X151214286Y-178685771D01*
X151214286Y-178685771D02*
X151261905Y-178495295D01*
X151261905Y-178495295D02*
X151309524Y-178400057D01*
X151309524Y-178400057D02*
X151357143Y-178352438D01*
X151357143Y-178352438D02*
X151452381Y-178304819D01*
X152404762Y-178304819D02*
X152500000Y-178304819D01*
X152500000Y-178304819D02*
X152595238Y-178352438D01*
X152595238Y-178352438D02*
X152642857Y-178400057D01*
X152642857Y-178400057D02*
X152690476Y-178495295D01*
X152690476Y-178495295D02*
X152738095Y-178685771D01*
X152738095Y-178685771D02*
X152738095Y-178923866D01*
X152738095Y-178923866D02*
X152690476Y-179114342D01*
X152690476Y-179114342D02*
X152642857Y-179209580D01*
X152642857Y-179209580D02*
X152595238Y-179257200D01*
X152595238Y-179257200D02*
X152500000Y-179304819D01*
X152500000Y-179304819D02*
X152404762Y-179304819D01*
X152404762Y-179304819D02*
X152309524Y-179257200D01*
X152309524Y-179257200D02*
X152261905Y-179209580D01*
X152261905Y-179209580D02*
X152214286Y-179114342D01*
X152214286Y-179114342D02*
X152166667Y-178923866D01*
X152166667Y-178923866D02*
X152166667Y-178685771D01*
X152166667Y-178685771D02*
X152214286Y-178495295D01*
X152214286Y-178495295D02*
X152261905Y-178400057D01*
X152261905Y-178400057D02*
X152309524Y-178352438D01*
X152309524Y-178352438D02*
X152404762Y-178304819D01*
X153357143Y-178304819D02*
X153452381Y-178304819D01*
X153452381Y-178304819D02*
X153547619Y-178352438D01*
X153547619Y-178352438D02*
X153595238Y-178400057D01*
X153595238Y-178400057D02*
X153642857Y-178495295D01*
X153642857Y-178495295D02*
X153690476Y-178685771D01*
X153690476Y-178685771D02*
X153690476Y-178923866D01*
X153690476Y-178923866D02*
X153642857Y-179114342D01*
X153642857Y-179114342D02*
X153595238Y-179209580D01*
X153595238Y-179209580D02*
X153547619Y-179257200D01*
X153547619Y-179257200D02*
X153452381Y-179304819D01*
X153452381Y-179304819D02*
X153357143Y-179304819D01*
X153357143Y-179304819D02*
X153261905Y-179257200D01*
X153261905Y-179257200D02*
X153214286Y-179209580D01*
X153214286Y-179209580D02*
X153166667Y-179114342D01*
X153166667Y-179114342D02*
X153119048Y-178923866D01*
X153119048Y-178923866D02*
X153119048Y-178685771D01*
X153119048Y-178685771D02*
X153166667Y-178495295D01*
X153166667Y-178495295D02*
X153214286Y-178400057D01*
X153214286Y-178400057D02*
X153261905Y-178352438D01*
X153261905Y-178352438D02*
X153357143Y-178304819D01*
X154880953Y-179304819D02*
X154880953Y-178638152D01*
X154880953Y-178733390D02*
X154928572Y-178685771D01*
X154928572Y-178685771D02*
X155023810Y-178638152D01*
X155023810Y-178638152D02*
X155166667Y-178638152D01*
X155166667Y-178638152D02*
X155261905Y-178685771D01*
X155261905Y-178685771D02*
X155309524Y-178781009D01*
X155309524Y-178781009D02*
X155309524Y-179304819D01*
X155309524Y-178781009D02*
X155357143Y-178685771D01*
X155357143Y-178685771D02*
X155452381Y-178638152D01*
X155452381Y-178638152D02*
X155595238Y-178638152D01*
X155595238Y-178638152D02*
X155690477Y-178685771D01*
X155690477Y-178685771D02*
X155738096Y-178781009D01*
X155738096Y-178781009D02*
X155738096Y-179304819D01*
X156214286Y-179304819D02*
X156214286Y-178638152D01*
X156214286Y-178733390D02*
X156261905Y-178685771D01*
X156261905Y-178685771D02*
X156357143Y-178638152D01*
X156357143Y-178638152D02*
X156500000Y-178638152D01*
X156500000Y-178638152D02*
X156595238Y-178685771D01*
X156595238Y-178685771D02*
X156642857Y-178781009D01*
X156642857Y-178781009D02*
X156642857Y-179304819D01*
X156642857Y-178781009D02*
X156690476Y-178685771D01*
X156690476Y-178685771D02*
X156785714Y-178638152D01*
X156785714Y-178638152D02*
X156928571Y-178638152D01*
X156928571Y-178638152D02*
X157023810Y-178685771D01*
X157023810Y-178685771D02*
X157071429Y-178781009D01*
X157071429Y-178781009D02*
X157071429Y-179304819D01*
X165000000Y-131500000D02*
X165000000Y-180586420D01*
X140000000Y-180586420D02*
X140000000Y-134000000D01*
X165000000Y-180000000D02*
X140000000Y-180000000D01*
X165000000Y-180000000D02*
X140000000Y-180000000D01*
X165000000Y-180000000D02*
X163873496Y-180586421D01*
X165000000Y-180000000D02*
X163873496Y-179413579D01*
X140000000Y-180000000D02*
X141126504Y-179413579D01*
X140000000Y-180000000D02*
X141126504Y-180586421D01*
X165000000Y-180000000D02*
X140000000Y-180000000D01*
X165000000Y-180000000D02*
X140000000Y-180000000D01*
X165000000Y-180000000D02*
X163873496Y-180586421D01*
X165000000Y-180000000D02*
X163873496Y-179413579D01*
X140000000Y-180000000D02*
X141126504Y-179413579D01*
X140000000Y-180000000D02*
X141126504Y-180586421D01*
X195476190Y-187304819D02*
X194904762Y-187304819D01*
X195190476Y-187304819D02*
X195190476Y-186304819D01*
X195190476Y-186304819D02*
X195095238Y-186447676D01*
X195095238Y-186447676D02*
X195000000Y-186542914D01*
X195000000Y-186542914D02*
X194904762Y-186590533D01*
X195857143Y-186400057D02*
X195904762Y-186352438D01*
X195904762Y-186352438D02*
X196000000Y-186304819D01*
X196000000Y-186304819D02*
X196238095Y-186304819D01*
X196238095Y-186304819D02*
X196333333Y-186352438D01*
X196333333Y-186352438D02*
X196380952Y-186400057D01*
X196380952Y-186400057D02*
X196428571Y-186495295D01*
X196428571Y-186495295D02*
X196428571Y-186590533D01*
X196428571Y-186590533D02*
X196380952Y-186733390D01*
X196380952Y-186733390D02*
X195809524Y-187304819D01*
X195809524Y-187304819D02*
X196428571Y-187304819D01*
X197047619Y-186304819D02*
X197142857Y-186304819D01*
X197142857Y-186304819D02*
X197238095Y-186352438D01*
X197238095Y-186352438D02*
X197285714Y-186400057D01*
X197285714Y-186400057D02*
X197333333Y-186495295D01*
X197333333Y-186495295D02*
X197380952Y-186685771D01*
X197380952Y-186685771D02*
X197380952Y-186923866D01*
X197380952Y-186923866D02*
X197333333Y-187114342D01*
X197333333Y-187114342D02*
X197285714Y-187209580D01*
X197285714Y-187209580D02*
X197238095Y-187257200D01*
X197238095Y-187257200D02*
X197142857Y-187304819D01*
X197142857Y-187304819D02*
X197047619Y-187304819D01*
X197047619Y-187304819D02*
X196952381Y-187257200D01*
X196952381Y-187257200D02*
X196904762Y-187209580D01*
X196904762Y-187209580D02*
X196857143Y-187114342D01*
X196857143Y-187114342D02*
X196809524Y-186923866D01*
X196809524Y-186923866D02*
X196809524Y-186685771D01*
X196809524Y-186685771D02*
X196857143Y-186495295D01*
X196857143Y-186495295D02*
X196904762Y-186400057D01*
X196904762Y-186400057D02*
X196952381Y-186352438D01*
X196952381Y-186352438D02*
X197047619Y-186304819D01*
X197809524Y-187209580D02*
X197857143Y-187257200D01*
X197857143Y-187257200D02*
X197809524Y-187304819D01*
X197809524Y-187304819D02*
X197761905Y-187257200D01*
X197761905Y-187257200D02*
X197809524Y-187209580D01*
X197809524Y-187209580D02*
X197809524Y-187304819D01*
X198476190Y-186304819D02*
X198571428Y-186304819D01*
X198571428Y-186304819D02*
X198666666Y-186352438D01*
X198666666Y-186352438D02*
X198714285Y-186400057D01*
X198714285Y-186400057D02*
X198761904Y-186495295D01*
X198761904Y-186495295D02*
X198809523Y-186685771D01*
X198809523Y-186685771D02*
X198809523Y-186923866D01*
X198809523Y-186923866D02*
X198761904Y-187114342D01*
X198761904Y-187114342D02*
X198714285Y-187209580D01*
X198714285Y-187209580D02*
X198666666Y-187257200D01*
X198666666Y-187257200D02*
X198571428Y-187304819D01*
X198571428Y-187304819D02*
X198476190Y-187304819D01*
X198476190Y-187304819D02*
X198380952Y-187257200D01*
X198380952Y-187257200D02*
X198333333Y-187209580D01*
X198333333Y-187209580D02*
X198285714Y-187114342D01*
X198285714Y-187114342D02*
X198238095Y-186923866D01*
X198238095Y-186923866D02*
X198238095Y-186685771D01*
X198238095Y-186685771D02*
X198285714Y-186495295D01*
X198285714Y-186495295D02*
X198333333Y-186400057D01*
X198333333Y-186400057D02*
X198380952Y-186352438D01*
X198380952Y-186352438D02*
X198476190Y-186304819D01*
X199428571Y-186304819D02*
X199523809Y-186304819D01*
X199523809Y-186304819D02*
X199619047Y-186352438D01*
X199619047Y-186352438D02*
X199666666Y-186400057D01*
X199666666Y-186400057D02*
X199714285Y-186495295D01*
X199714285Y-186495295D02*
X199761904Y-186685771D01*
X199761904Y-186685771D02*
X199761904Y-186923866D01*
X199761904Y-186923866D02*
X199714285Y-187114342D01*
X199714285Y-187114342D02*
X199666666Y-187209580D01*
X199666666Y-187209580D02*
X199619047Y-187257200D01*
X199619047Y-187257200D02*
X199523809Y-187304819D01*
X199523809Y-187304819D02*
X199428571Y-187304819D01*
X199428571Y-187304819D02*
X199333333Y-187257200D01*
X199333333Y-187257200D02*
X199285714Y-187209580D01*
X199285714Y-187209580D02*
X199238095Y-187114342D01*
X199238095Y-187114342D02*
X199190476Y-186923866D01*
X199190476Y-186923866D02*
X199190476Y-186685771D01*
X199190476Y-186685771D02*
X199238095Y-186495295D01*
X199238095Y-186495295D02*
X199285714Y-186400057D01*
X199285714Y-186400057D02*
X199333333Y-186352438D01*
X199333333Y-186352438D02*
X199428571Y-186304819D01*
X200380952Y-186304819D02*
X200476190Y-186304819D01*
X200476190Y-186304819D02*
X200571428Y-186352438D01*
X200571428Y-186352438D02*
X200619047Y-186400057D01*
X200619047Y-186400057D02*
X200666666Y-186495295D01*
X200666666Y-186495295D02*
X200714285Y-186685771D01*
X200714285Y-186685771D02*
X200714285Y-186923866D01*
X200714285Y-186923866D02*
X200666666Y-187114342D01*
X200666666Y-187114342D02*
X200619047Y-187209580D01*
X200619047Y-187209580D02*
X200571428Y-187257200D01*
X200571428Y-187257200D02*
X200476190Y-187304819D01*
X200476190Y-187304819D02*
X200380952Y-187304819D01*
X200380952Y-187304819D02*
X200285714Y-187257200D01*
X200285714Y-187257200D02*
X200238095Y-187209580D01*
X200238095Y-187209580D02*
X200190476Y-187114342D01*
X200190476Y-187114342D02*
X200142857Y-186923866D01*
X200142857Y-186923866D02*
X200142857Y-186685771D01*
X200142857Y-186685771D02*
X200190476Y-186495295D01*
X200190476Y-186495295D02*
X200238095Y-186400057D01*
X200238095Y-186400057D02*
X200285714Y-186352438D01*
X200285714Y-186352438D02*
X200380952Y-186304819D01*
X201333333Y-186304819D02*
X201428571Y-186304819D01*
X201428571Y-186304819D02*
X201523809Y-186352438D01*
X201523809Y-186352438D02*
X201571428Y-186400057D01*
X201571428Y-186400057D02*
X201619047Y-186495295D01*
X201619047Y-186495295D02*
X201666666Y-186685771D01*
X201666666Y-186685771D02*
X201666666Y-186923866D01*
X201666666Y-186923866D02*
X201619047Y-187114342D01*
X201619047Y-187114342D02*
X201571428Y-187209580D01*
X201571428Y-187209580D02*
X201523809Y-187257200D01*
X201523809Y-187257200D02*
X201428571Y-187304819D01*
X201428571Y-187304819D02*
X201333333Y-187304819D01*
X201333333Y-187304819D02*
X201238095Y-187257200D01*
X201238095Y-187257200D02*
X201190476Y-187209580D01*
X201190476Y-187209580D02*
X201142857Y-187114342D01*
X201142857Y-187114342D02*
X201095238Y-186923866D01*
X201095238Y-186923866D02*
X201095238Y-186685771D01*
X201095238Y-186685771D02*
X201142857Y-186495295D01*
X201142857Y-186495295D02*
X201190476Y-186400057D01*
X201190476Y-186400057D02*
X201238095Y-186352438D01*
X201238095Y-186352438D02*
X201333333Y-186304819D01*
X202857143Y-187304819D02*
X202857143Y-186638152D01*
X202857143Y-186733390D02*
X202904762Y-186685771D01*
X202904762Y-186685771D02*
X203000000Y-186638152D01*
X203000000Y-186638152D02*
X203142857Y-186638152D01*
X203142857Y-186638152D02*
X203238095Y-186685771D01*
X203238095Y-186685771D02*
X203285714Y-186781009D01*
X203285714Y-186781009D02*
X203285714Y-187304819D01*
X203285714Y-186781009D02*
X203333333Y-186685771D01*
X203333333Y-186685771D02*
X203428571Y-186638152D01*
X203428571Y-186638152D02*
X203571428Y-186638152D01*
X203571428Y-186638152D02*
X203666667Y-186685771D01*
X203666667Y-186685771D02*
X203714286Y-186781009D01*
X203714286Y-186781009D02*
X203714286Y-187304819D01*
X204190476Y-187304819D02*
X204190476Y-186638152D01*
X204190476Y-186733390D02*
X204238095Y-186685771D01*
X204238095Y-186685771D02*
X204333333Y-186638152D01*
X204333333Y-186638152D02*
X204476190Y-186638152D01*
X204476190Y-186638152D02*
X204571428Y-186685771D01*
X204571428Y-186685771D02*
X204619047Y-186781009D01*
X204619047Y-186781009D02*
X204619047Y-187304819D01*
X204619047Y-186781009D02*
X204666666Y-186685771D01*
X204666666Y-186685771D02*
X204761904Y-186638152D01*
X204761904Y-186638152D02*
X204904761Y-186638152D01*
X204904761Y-186638152D02*
X205000000Y-186685771D01*
X205000000Y-186685771D02*
X205047619Y-186781009D01*
X205047619Y-186781009D02*
X205047619Y-187304819D01*
X140000000Y-171500000D02*
X140000000Y-188586420D01*
X260000000Y-188586420D02*
X260000000Y-171500000D01*
X140000000Y-188000000D02*
X260000000Y-188000000D01*
X140000000Y-188000000D02*
X260000000Y-188000000D01*
X140000000Y-188000000D02*
X141126504Y-187413579D01*
X140000000Y-188000000D02*
X141126504Y-188586421D01*
X260000000Y-188000000D02*
X258873496Y-188586421D01*
X260000000Y-188000000D02*
X258873496Y-187413579D01*
X140000000Y-188000000D02*
X260000000Y-188000000D01*
X140000000Y-188000000D02*
X260000000Y-188000000D01*
X140000000Y-188000000D02*
X141126504Y-187413579D01*
X140000000Y-188000000D02*
X141126504Y-188586421D01*
X260000000Y-188000000D02*
X258873496Y-188586421D01*
X260000000Y-188000000D02*
X258873496Y-187413579D01*
X81304819Y-138166665D02*
X81304819Y-137499999D01*
X81304819Y-137499999D02*
X82304819Y-137928570D01*
X81304819Y-136642856D02*
X81304819Y-137119046D01*
X81304819Y-137119046D02*
X81781009Y-137166665D01*
X81781009Y-137166665D02*
X81733390Y-137119046D01*
X81733390Y-137119046D02*
X81685771Y-137023808D01*
X81685771Y-137023808D02*
X81685771Y-136785713D01*
X81685771Y-136785713D02*
X81733390Y-136690475D01*
X81733390Y-136690475D02*
X81781009Y-136642856D01*
X81781009Y-136642856D02*
X81876247Y-136595237D01*
X81876247Y-136595237D02*
X82114342Y-136595237D01*
X82114342Y-136595237D02*
X82209580Y-136642856D01*
X82209580Y-136642856D02*
X82257200Y-136690475D01*
X82257200Y-136690475D02*
X82304819Y-136785713D01*
X82304819Y-136785713D02*
X82304819Y-137023808D01*
X82304819Y-137023808D02*
X82257200Y-137119046D01*
X82257200Y-137119046D02*
X82209580Y-137166665D01*
X82209580Y-136166665D02*
X82257200Y-136119046D01*
X82257200Y-136119046D02*
X82304819Y-136166665D01*
X82304819Y-136166665D02*
X82257200Y-136214284D01*
X82257200Y-136214284D02*
X82209580Y-136166665D01*
X82209580Y-136166665D02*
X82304819Y-136166665D01*
X81304819Y-135499999D02*
X81304819Y-135404761D01*
X81304819Y-135404761D02*
X81352438Y-135309523D01*
X81352438Y-135309523D02*
X81400057Y-135261904D01*
X81400057Y-135261904D02*
X81495295Y-135214285D01*
X81495295Y-135214285D02*
X81685771Y-135166666D01*
X81685771Y-135166666D02*
X81923866Y-135166666D01*
X81923866Y-135166666D02*
X82114342Y-135214285D01*
X82114342Y-135214285D02*
X82209580Y-135261904D01*
X82209580Y-135261904D02*
X82257200Y-135309523D01*
X82257200Y-135309523D02*
X82304819Y-135404761D01*
X82304819Y-135404761D02*
X82304819Y-135499999D01*
X82304819Y-135499999D02*
X82257200Y-135595237D01*
X82257200Y-135595237D02*
X82209580Y-135642856D01*
X82209580Y-135642856D02*
X82114342Y-135690475D01*
X82114342Y-135690475D02*
X81923866Y-135738094D01*
X81923866Y-135738094D02*
X81685771Y-135738094D01*
X81685771Y-135738094D02*
X81495295Y-135690475D01*
X81495295Y-135690475D02*
X81400057Y-135642856D01*
X81400057Y-135642856D02*
X81352438Y-135595237D01*
X81352438Y-135595237D02*
X81304819Y-135499999D01*
X81304819Y-134547618D02*
X81304819Y-134452380D01*
X81304819Y-134452380D02*
X81352438Y-134357142D01*
X81352438Y-134357142D02*
X81400057Y-134309523D01*
X81400057Y-134309523D02*
X81495295Y-134261904D01*
X81495295Y-134261904D02*
X81685771Y-134214285D01*
X81685771Y-134214285D02*
X81923866Y-134214285D01*
X81923866Y-134214285D02*
X82114342Y-134261904D01*
X82114342Y-134261904D02*
X82209580Y-134309523D01*
X82209580Y-134309523D02*
X82257200Y-134357142D01*
X82257200Y-134357142D02*
X82304819Y-134452380D01*
X82304819Y-134452380D02*
X82304819Y-134547618D01*
X82304819Y-134547618D02*
X82257200Y-134642856D01*
X82257200Y-134642856D02*
X82209580Y-134690475D01*
X82209580Y-134690475D02*
X82114342Y-134738094D01*
X82114342Y-134738094D02*
X81923866Y-134785713D01*
X81923866Y-134785713D02*
X81685771Y-134785713D01*
X81685771Y-134785713D02*
X81495295Y-134738094D01*
X81495295Y-134738094D02*
X81400057Y-134690475D01*
X81400057Y-134690475D02*
X81352438Y-134642856D01*
X81352438Y-134642856D02*
X81304819Y-134547618D01*
X81304819Y-133595237D02*
X81304819Y-133499999D01*
X81304819Y-133499999D02*
X81352438Y-133404761D01*
X81352438Y-133404761D02*
X81400057Y-133357142D01*
X81400057Y-133357142D02*
X81495295Y-133309523D01*
X81495295Y-133309523D02*
X81685771Y-133261904D01*
X81685771Y-133261904D02*
X81923866Y-133261904D01*
X81923866Y-133261904D02*
X82114342Y-133309523D01*
X82114342Y-133309523D02*
X82209580Y-133357142D01*
X82209580Y-133357142D02*
X82257200Y-133404761D01*
X82257200Y-133404761D02*
X82304819Y-133499999D01*
X82304819Y-133499999D02*
X82304819Y-133595237D01*
X82304819Y-133595237D02*
X82257200Y-133690475D01*
X82257200Y-133690475D02*
X82209580Y-133738094D01*
X82209580Y-133738094D02*
X82114342Y-133785713D01*
X82114342Y-133785713D02*
X81923866Y-133833332D01*
X81923866Y-133833332D02*
X81685771Y-133833332D01*
X81685771Y-133833332D02*
X81495295Y-133785713D01*
X81495295Y-133785713D02*
X81400057Y-133738094D01*
X81400057Y-133738094D02*
X81352438Y-133690475D01*
X81352438Y-133690475D02*
X81304819Y-133595237D01*
X81304819Y-132642856D02*
X81304819Y-132547618D01*
X81304819Y-132547618D02*
X81352438Y-132452380D01*
X81352438Y-132452380D02*
X81400057Y-132404761D01*
X81400057Y-132404761D02*
X81495295Y-132357142D01*
X81495295Y-132357142D02*
X81685771Y-132309523D01*
X81685771Y-132309523D02*
X81923866Y-132309523D01*
X81923866Y-132309523D02*
X82114342Y-132357142D01*
X82114342Y-132357142D02*
X82209580Y-132404761D01*
X82209580Y-132404761D02*
X82257200Y-132452380D01*
X82257200Y-132452380D02*
X82304819Y-132547618D01*
X82304819Y-132547618D02*
X82304819Y-132642856D01*
X82304819Y-132642856D02*
X82257200Y-132738094D01*
X82257200Y-132738094D02*
X82209580Y-132785713D01*
X82209580Y-132785713D02*
X82114342Y-132833332D01*
X82114342Y-132833332D02*
X81923866Y-132880951D01*
X81923866Y-132880951D02*
X81685771Y-132880951D01*
X81685771Y-132880951D02*
X81495295Y-132833332D01*
X81495295Y-132833332D02*
X81400057Y-132785713D01*
X81400057Y-132785713D02*
X81352438Y-132738094D01*
X81352438Y-132738094D02*
X81304819Y-132642856D01*
X82304819Y-131119046D02*
X81638152Y-131119046D01*
X81733390Y-131119046D02*
X81685771Y-131071427D01*
X81685771Y-131071427D02*
X81638152Y-130976189D01*
X81638152Y-130976189D02*
X81638152Y-130833332D01*
X81638152Y-130833332D02*
X81685771Y-130738094D01*
X81685771Y-130738094D02*
X81781009Y-130690475D01*
X81781009Y-130690475D02*
X82304819Y-130690475D01*
X81781009Y-130690475D02*
X81685771Y-130642856D01*
X81685771Y-130642856D02*
X81638152Y-130547618D01*
X81638152Y-130547618D02*
X81638152Y-130404761D01*
X81638152Y-130404761D02*
X81685771Y-130309522D01*
X81685771Y-130309522D02*
X81781009Y-130261903D01*
X81781009Y-130261903D02*
X82304819Y-130261903D01*
X82304819Y-129785713D02*
X81638152Y-129785713D01*
X81733390Y-129785713D02*
X81685771Y-129738094D01*
X81685771Y-129738094D02*
X81638152Y-129642856D01*
X81638152Y-129642856D02*
X81638152Y-129499999D01*
X81638152Y-129499999D02*
X81685771Y-129404761D01*
X81685771Y-129404761D02*
X81781009Y-129357142D01*
X81781009Y-129357142D02*
X82304819Y-129357142D01*
X81781009Y-129357142D02*
X81685771Y-129309523D01*
X81685771Y-129309523D02*
X81638152Y-129214285D01*
X81638152Y-129214285D02*
X81638152Y-129071428D01*
X81638152Y-129071428D02*
X81685771Y-128976189D01*
X81685771Y-128976189D02*
X81781009Y-128928570D01*
X81781009Y-128928570D02*
X82304819Y-128928570D01*
X259500000Y-96000000D02*
X82413580Y-96000000D01*
X82413580Y-171000000D02*
X259500000Y-171000000D01*
X83000000Y-96000000D02*
X83000000Y-171000000D01*
X83000000Y-96000000D02*
X83000000Y-171000000D01*
X83000000Y-96000000D02*
X83586421Y-97126504D01*
X83000000Y-96000000D02*
X82413579Y-97126504D01*
X83000000Y-171000000D02*
X82413579Y-169873496D01*
X83000000Y-171000000D02*
X83586421Y-169873496D01*
X83000000Y-96000000D02*
X83000000Y-171000000D01*
X83000000Y-96000000D02*
X83000000Y-171000000D01*
X83000000Y-96000000D02*
X83586421Y-97126504D01*
X83000000Y-96000000D02*
X82413579Y-97126504D01*
X83000000Y-171000000D02*
X82413579Y-169873496D01*
X83000000Y-171000000D02*
X83586421Y-169873496D01*
X214170000Y-70857500D02*
X249170000Y-70857500D01*
X249170000Y-93857500D01*
X214170000Y-93857500D01*
X214170000Y-70857500D01*
D11*
X140000000Y-96000000D02*
X260000000Y-96000000D01*
X260000000Y-171000000D01*
X140000000Y-171000000D01*
X140000000Y-96000000D01*
D10*
X266500000Y-84000000D02*
G75*
G02*
X253500000Y-84000000I-6500000J0D01*
G01*
X253500000Y-84000000D02*
G75*
G02*
X266500000Y-84000000I6500000J0D01*
G01*
X231670000Y-70857500D02*
X231670000Y-73142500D01*
X165500000Y-131000000D02*
G75*
G02*
X164500000Y-131000000I-500000J0D01*
G01*
X164500000Y-131000000D02*
G75*
G02*
X165500000Y-131000000I500000J0D01*
G01*
X214920000Y-75500000D02*
X248420000Y-75500000D01*
X248420000Y-93000000D01*
X214920000Y-93000000D01*
X214920000Y-75500000D01*
X235500000Y-131000000D02*
G75*
G02*
X234500000Y-131000000I-500000J0D01*
G01*
X234500000Y-131000000D02*
G75*
G02*
X235500000Y-131000000I500000J0D01*
G01*
D11*
X256573558Y-85039638D02*
X256573558Y-83039638D01*
X257716415Y-85039638D02*
X256859272Y-83896780D01*
X257716415Y-83039638D02*
X256573558Y-84182495D01*
X258573558Y-85039638D02*
X258573558Y-83039638D01*
X258573558Y-83039638D02*
X259716415Y-85039638D01*
X259716415Y-85039638D02*
X259716415Y-83039638D01*
X261049748Y-83039638D02*
X261430701Y-83039638D01*
X261430701Y-83039638D02*
X261621177Y-83134876D01*
X261621177Y-83134876D02*
X261811653Y-83325352D01*
X261811653Y-83325352D02*
X261906891Y-83706304D01*
X261906891Y-83706304D02*
X261906891Y-84372971D01*
X261906891Y-84372971D02*
X261811653Y-84753923D01*
X261811653Y-84753923D02*
X261621177Y-84944400D01*
X261621177Y-84944400D02*
X261430701Y-85039638D01*
X261430701Y-85039638D02*
X261049748Y-85039638D01*
X261049748Y-85039638D02*
X260859272Y-84944400D01*
X260859272Y-84944400D02*
X260668796Y-84753923D01*
X260668796Y-84753923D02*
X260573558Y-84372971D01*
X260573558Y-84372971D02*
X260573558Y-83706304D01*
X260573558Y-83706304D02*
X260668796Y-83325352D01*
X260668796Y-83325352D02*
X260859272Y-83134876D01*
X260859272Y-83134876D02*
X261049748Y-83039638D01*
X263430701Y-83992019D02*
X263716415Y-84087257D01*
X263716415Y-84087257D02*
X263811653Y-84182495D01*
X263811653Y-84182495D02*
X263906891Y-84372971D01*
X263906891Y-84372971D02*
X263906891Y-84658685D01*
X263906891Y-84658685D02*
X263811653Y-84849161D01*
X263811653Y-84849161D02*
X263716415Y-84944400D01*
X263716415Y-84944400D02*
X263525939Y-85039638D01*
X263525939Y-85039638D02*
X262764034Y-85039638D01*
X262764034Y-85039638D02*
X262764034Y-83039638D01*
X262764034Y-83039638D02*
X263430701Y-83039638D01*
X263430701Y-83039638D02*
X263621177Y-83134876D01*
X263621177Y-83134876D02*
X263716415Y-83230114D01*
X263716415Y-83230114D02*
X263811653Y-83420590D01*
X263811653Y-83420590D02*
X263811653Y-83611066D01*
X263811653Y-83611066D02*
X263716415Y-83801542D01*
X263716415Y-83801542D02*
X263621177Y-83896780D01*
X263621177Y-83896780D02*
X263430701Y-83992019D01*
X263430701Y-83992019D02*
X262764034Y-83992019D01*
X177049748Y-129155100D02*
X177049748Y-125155100D01*
X177049748Y-125155100D02*
X178002129Y-125155100D01*
X178002129Y-125155100D02*
X178573558Y-125345576D01*
X178573558Y-125345576D02*
X178954510Y-125726528D01*
X178954510Y-125726528D02*
X179144987Y-126107481D01*
X179144987Y-126107481D02*
X179335463Y-126869385D01*
X179335463Y-126869385D02*
X179335463Y-127440814D01*
X179335463Y-127440814D02*
X179144987Y-128202719D01*
X179144987Y-128202719D02*
X178954510Y-128583671D01*
X178954510Y-128583671D02*
X178573558Y-128964624D01*
X178573558Y-128964624D02*
X178002129Y-129155100D01*
X178002129Y-129155100D02*
X177049748Y-129155100D01*
X182764034Y-129155100D02*
X182764034Y-127059862D01*
X182764034Y-127059862D02*
X182573558Y-126678909D01*
X182573558Y-126678909D02*
X182192606Y-126488433D01*
X182192606Y-126488433D02*
X181430701Y-126488433D01*
X181430701Y-126488433D02*
X181049748Y-126678909D01*
X182764034Y-128964624D02*
X182383082Y-129155100D01*
X182383082Y-129155100D02*
X181430701Y-129155100D01*
X181430701Y-129155100D02*
X181049748Y-128964624D01*
X181049748Y-128964624D02*
X180859272Y-128583671D01*
X180859272Y-128583671D02*
X180859272Y-128202719D01*
X180859272Y-128202719D02*
X181049748Y-127821766D01*
X181049748Y-127821766D02*
X181430701Y-127631290D01*
X181430701Y-127631290D02*
X182383082Y-127631290D01*
X182383082Y-127631290D02*
X182764034Y-127440814D01*
X186383082Y-126488433D02*
X186383082Y-129155100D01*
X184668796Y-126488433D02*
X184668796Y-128583671D01*
X184668796Y-128583671D02*
X184859273Y-128964624D01*
X184859273Y-128964624D02*
X185240225Y-129155100D01*
X185240225Y-129155100D02*
X185811654Y-129155100D01*
X185811654Y-129155100D02*
X186192606Y-128964624D01*
X186192606Y-128964624D02*
X186383082Y-128774147D01*
X190002130Y-126488433D02*
X190002130Y-129726528D01*
X190002130Y-129726528D02*
X189811654Y-130107481D01*
X189811654Y-130107481D02*
X189621178Y-130297957D01*
X189621178Y-130297957D02*
X189240225Y-130488433D01*
X189240225Y-130488433D02*
X188668797Y-130488433D01*
X188668797Y-130488433D02*
X188287844Y-130297957D01*
X190002130Y-128964624D02*
X189621178Y-129155100D01*
X189621178Y-129155100D02*
X188859273Y-129155100D01*
X188859273Y-129155100D02*
X188478321Y-128964624D01*
X188478321Y-128964624D02*
X188287844Y-128774147D01*
X188287844Y-128774147D02*
X188097368Y-128393195D01*
X188097368Y-128393195D02*
X188097368Y-127250338D01*
X188097368Y-127250338D02*
X188287844Y-126869385D01*
X188287844Y-126869385D02*
X188478321Y-126678909D01*
X188478321Y-126678909D02*
X188859273Y-126488433D01*
X188859273Y-126488433D02*
X189621178Y-126488433D01*
X189621178Y-126488433D02*
X190002130Y-126678909D01*
X191906892Y-129155100D02*
X191906892Y-125155100D01*
X193621178Y-129155100D02*
X193621178Y-127059862D01*
X193621178Y-127059862D02*
X193430702Y-126678909D01*
X193430702Y-126678909D02*
X193049750Y-126488433D01*
X193049750Y-126488433D02*
X192478321Y-126488433D01*
X192478321Y-126488433D02*
X192097369Y-126678909D01*
X192097369Y-126678909D02*
X191906892Y-126869385D01*
X194954512Y-126488433D02*
X196478321Y-126488433D01*
X195525940Y-125155100D02*
X195525940Y-128583671D01*
X195525940Y-128583671D02*
X195716417Y-128964624D01*
X195716417Y-128964624D02*
X196097369Y-129155100D01*
X196097369Y-129155100D02*
X196478321Y-129155100D01*
X199335464Y-128964624D02*
X198954512Y-129155100D01*
X198954512Y-129155100D02*
X198192607Y-129155100D01*
X198192607Y-129155100D02*
X197811654Y-128964624D01*
X197811654Y-128964624D02*
X197621178Y-128583671D01*
X197621178Y-128583671D02*
X197621178Y-127059862D01*
X197621178Y-127059862D02*
X197811654Y-126678909D01*
X197811654Y-126678909D02*
X198192607Y-126488433D01*
X198192607Y-126488433D02*
X198954512Y-126488433D01*
X198954512Y-126488433D02*
X199335464Y-126678909D01*
X199335464Y-126678909D02*
X199525940Y-127059862D01*
X199525940Y-127059862D02*
X199525940Y-127440814D01*
X199525940Y-127440814D02*
X197621178Y-127821766D01*
X201240225Y-129155100D02*
X201240225Y-126488433D01*
X201240225Y-127250338D02*
X201430702Y-126869385D01*
X201430702Y-126869385D02*
X201621178Y-126678909D01*
X201621178Y-126678909D02*
X202002130Y-126488433D01*
X202002130Y-126488433D02*
X202383083Y-126488433D01*
X208097368Y-127059862D02*
X208668796Y-127250338D01*
X208668796Y-127250338D02*
X208859273Y-127440814D01*
X208859273Y-127440814D02*
X209049749Y-127821766D01*
X209049749Y-127821766D02*
X209049749Y-128393195D01*
X209049749Y-128393195D02*
X208859273Y-128774147D01*
X208859273Y-128774147D02*
X208668796Y-128964624D01*
X208668796Y-128964624D02*
X208287844Y-129155100D01*
X208287844Y-129155100D02*
X206764034Y-129155100D01*
X206764034Y-129155100D02*
X206764034Y-125155100D01*
X206764034Y-125155100D02*
X208097368Y-125155100D01*
X208097368Y-125155100D02*
X208478320Y-125345576D01*
X208478320Y-125345576D02*
X208668796Y-125536052D01*
X208668796Y-125536052D02*
X208859273Y-125917004D01*
X208859273Y-125917004D02*
X208859273Y-126297957D01*
X208859273Y-126297957D02*
X208668796Y-126678909D01*
X208668796Y-126678909D02*
X208478320Y-126869385D01*
X208478320Y-126869385D02*
X208097368Y-127059862D01*
X208097368Y-127059862D02*
X206764034Y-127059862D01*
X211335463Y-129155100D02*
X210954511Y-128964624D01*
X210954511Y-128964624D02*
X210764034Y-128774147D01*
X210764034Y-128774147D02*
X210573558Y-128393195D01*
X210573558Y-128393195D02*
X210573558Y-127250338D01*
X210573558Y-127250338D02*
X210764034Y-126869385D01*
X210764034Y-126869385D02*
X210954511Y-126678909D01*
X210954511Y-126678909D02*
X211335463Y-126488433D01*
X211335463Y-126488433D02*
X211906892Y-126488433D01*
X211906892Y-126488433D02*
X212287844Y-126678909D01*
X212287844Y-126678909D02*
X212478320Y-126869385D01*
X212478320Y-126869385D02*
X212668796Y-127250338D01*
X212668796Y-127250338D02*
X212668796Y-128393195D01*
X212668796Y-128393195D02*
X212478320Y-128774147D01*
X212478320Y-128774147D02*
X212287844Y-128964624D01*
X212287844Y-128964624D02*
X211906892Y-129155100D01*
X211906892Y-129155100D02*
X211335463Y-129155100D01*
X216097368Y-129155100D02*
X216097368Y-127059862D01*
X216097368Y-127059862D02*
X215906892Y-126678909D01*
X215906892Y-126678909D02*
X215525940Y-126488433D01*
X215525940Y-126488433D02*
X214764035Y-126488433D01*
X214764035Y-126488433D02*
X214383082Y-126678909D01*
X216097368Y-128964624D02*
X215716416Y-129155100D01*
X215716416Y-129155100D02*
X214764035Y-129155100D01*
X214764035Y-129155100D02*
X214383082Y-128964624D01*
X214383082Y-128964624D02*
X214192606Y-128583671D01*
X214192606Y-128583671D02*
X214192606Y-128202719D01*
X214192606Y-128202719D02*
X214383082Y-127821766D01*
X214383082Y-127821766D02*
X214764035Y-127631290D01*
X214764035Y-127631290D02*
X215716416Y-127631290D01*
X215716416Y-127631290D02*
X216097368Y-127440814D01*
X218002130Y-129155100D02*
X218002130Y-126488433D01*
X218002130Y-127250338D02*
X218192607Y-126869385D01*
X218192607Y-126869385D02*
X218383083Y-126678909D01*
X218383083Y-126678909D02*
X218764035Y-126488433D01*
X218764035Y-126488433D02*
X219144988Y-126488433D01*
X222192606Y-129155100D02*
X222192606Y-125155100D01*
X222192606Y-128964624D02*
X221811654Y-129155100D01*
X221811654Y-129155100D02*
X221049749Y-129155100D01*
X221049749Y-129155100D02*
X220668797Y-128964624D01*
X220668797Y-128964624D02*
X220478320Y-128774147D01*
X220478320Y-128774147D02*
X220287844Y-128393195D01*
X220287844Y-128393195D02*
X220287844Y-127250338D01*
X220287844Y-127250338D02*
X220478320Y-126869385D01*
X220478320Y-126869385D02*
X220668797Y-126678909D01*
X220668797Y-126678909D02*
X221049749Y-126488433D01*
X221049749Y-126488433D02*
X221811654Y-126488433D01*
X221811654Y-126488433D02*
X222192606Y-126678909D01*
X176859272Y-134452019D02*
X178764034Y-134452019D01*
X176478320Y-135594876D02*
X177811653Y-131594876D01*
X177811653Y-131594876D02*
X179144987Y-135594876D01*
X181049748Y-135594876D02*
X180668796Y-135404400D01*
X180668796Y-135404400D02*
X180478319Y-135023447D01*
X180478319Y-135023447D02*
X180478319Y-131594876D01*
X183144986Y-135594876D02*
X182764034Y-135404400D01*
X182764034Y-135404400D02*
X182573557Y-135023447D01*
X182573557Y-135023447D02*
X182573557Y-131594876D01*
X185240224Y-135594876D02*
X184859272Y-135404400D01*
X184859272Y-135404400D02*
X184668795Y-135213923D01*
X184668795Y-135213923D02*
X184478319Y-134832971D01*
X184478319Y-134832971D02*
X184478319Y-133690114D01*
X184478319Y-133690114D02*
X184668795Y-133309161D01*
X184668795Y-133309161D02*
X184859272Y-133118685D01*
X184859272Y-133118685D02*
X185240224Y-132928209D01*
X185240224Y-132928209D02*
X185811653Y-132928209D01*
X185811653Y-132928209D02*
X186192605Y-133118685D01*
X186192605Y-133118685D02*
X186383081Y-133309161D01*
X186383081Y-133309161D02*
X186573557Y-133690114D01*
X186573557Y-133690114D02*
X186573557Y-134832971D01*
X186573557Y-134832971D02*
X186383081Y-135213923D01*
X186383081Y-135213923D02*
X186192605Y-135404400D01*
X186192605Y-135404400D02*
X185811653Y-135594876D01*
X185811653Y-135594876D02*
X185240224Y-135594876D01*
X187906891Y-132928209D02*
X188668796Y-135594876D01*
X188668796Y-135594876D02*
X189430701Y-133690114D01*
X189430701Y-133690114D02*
X190192605Y-135594876D01*
X190192605Y-135594876D02*
X190954510Y-132928209D01*
X194192605Y-135594876D02*
X194192605Y-133499638D01*
X194192605Y-133499638D02*
X194002129Y-133118685D01*
X194002129Y-133118685D02*
X193621177Y-132928209D01*
X193621177Y-132928209D02*
X192859272Y-132928209D01*
X192859272Y-132928209D02*
X192478319Y-133118685D01*
X194192605Y-135404400D02*
X193811653Y-135594876D01*
X193811653Y-135594876D02*
X192859272Y-135594876D01*
X192859272Y-135594876D02*
X192478319Y-135404400D01*
X192478319Y-135404400D02*
X192287843Y-135023447D01*
X192287843Y-135023447D02*
X192287843Y-134642495D01*
X192287843Y-134642495D02*
X192478319Y-134261542D01*
X192478319Y-134261542D02*
X192859272Y-134071066D01*
X192859272Y-134071066D02*
X193811653Y-134071066D01*
X193811653Y-134071066D02*
X194192605Y-133880590D01*
X196097367Y-135594876D02*
X196097367Y-131594876D01*
X196097367Y-133118685D02*
X196478320Y-132928209D01*
X196478320Y-132928209D02*
X197240225Y-132928209D01*
X197240225Y-132928209D02*
X197621177Y-133118685D01*
X197621177Y-133118685D02*
X197811653Y-133309161D01*
X197811653Y-133309161D02*
X198002129Y-133690114D01*
X198002129Y-133690114D02*
X198002129Y-134832971D01*
X198002129Y-134832971D02*
X197811653Y-135213923D01*
X197811653Y-135213923D02*
X197621177Y-135404400D01*
X197621177Y-135404400D02*
X197240225Y-135594876D01*
X197240225Y-135594876D02*
X196478320Y-135594876D01*
X196478320Y-135594876D02*
X196097367Y-135404400D01*
X200287844Y-135594876D02*
X199906892Y-135404400D01*
X199906892Y-135404400D02*
X199716415Y-135023447D01*
X199716415Y-135023447D02*
X199716415Y-131594876D01*
X203335463Y-135404400D02*
X202954511Y-135594876D01*
X202954511Y-135594876D02*
X202192606Y-135594876D01*
X202192606Y-135594876D02*
X201811653Y-135404400D01*
X201811653Y-135404400D02*
X201621177Y-135023447D01*
X201621177Y-135023447D02*
X201621177Y-133499638D01*
X201621177Y-133499638D02*
X201811653Y-133118685D01*
X201811653Y-133118685D02*
X202192606Y-132928209D01*
X202192606Y-132928209D02*
X202954511Y-132928209D01*
X202954511Y-132928209D02*
X203335463Y-133118685D01*
X203335463Y-133118685D02*
X203525939Y-133499638D01*
X203525939Y-133499638D02*
X203525939Y-133880590D01*
X203525939Y-133880590D02*
X201621177Y-134261542D01*
X208097367Y-134452019D02*
X210002129Y-134452019D01*
X207716415Y-135594876D02*
X209049748Y-131594876D01*
X209049748Y-131594876D02*
X210383082Y-135594876D01*
X211716414Y-135594876D02*
X211716414Y-132928209D01*
X211716414Y-133690114D02*
X211906891Y-133309161D01*
X211906891Y-133309161D02*
X212097367Y-133118685D01*
X212097367Y-133118685D02*
X212478319Y-132928209D01*
X212478319Y-132928209D02*
X212859272Y-132928209D01*
X215716414Y-135404400D02*
X215335462Y-135594876D01*
X215335462Y-135594876D02*
X214573557Y-135594876D01*
X214573557Y-135594876D02*
X214192604Y-135404400D01*
X214192604Y-135404400D02*
X214002128Y-135023447D01*
X214002128Y-135023447D02*
X214002128Y-133499638D01*
X214002128Y-133499638D02*
X214192604Y-133118685D01*
X214192604Y-133118685D02*
X214573557Y-132928209D01*
X214573557Y-132928209D02*
X215335462Y-132928209D01*
X215335462Y-132928209D02*
X215716414Y-133118685D01*
X215716414Y-133118685D02*
X215906890Y-133499638D01*
X215906890Y-133499638D02*
X215906890Y-133880590D01*
X215906890Y-133880590D02*
X214002128Y-134261542D01*
X219335461Y-135594876D02*
X219335461Y-133499638D01*
X219335461Y-133499638D02*
X219144985Y-133118685D01*
X219144985Y-133118685D02*
X218764033Y-132928209D01*
X218764033Y-132928209D02*
X218002128Y-132928209D01*
X218002128Y-132928209D02*
X217621175Y-133118685D01*
X219335461Y-135404400D02*
X218954509Y-135594876D01*
X218954509Y-135594876D02*
X218002128Y-135594876D01*
X218002128Y-135594876D02*
X217621175Y-135404400D01*
X217621175Y-135404400D02*
X217430699Y-135023447D01*
X217430699Y-135023447D02*
X217430699Y-134642495D01*
X217430699Y-134642495D02*
X217621175Y-134261542D01*
X217621175Y-134261542D02*
X218002128Y-134071066D01*
X218002128Y-134071066D02*
X218954509Y-134071066D01*
X218954509Y-134071066D02*
X219335461Y-133880590D01*
X225911653Y-81494876D02*
X226673558Y-81494876D01*
X226673558Y-81494876D02*
X227054510Y-81685352D01*
X227054510Y-81685352D02*
X227435463Y-82066304D01*
X227435463Y-82066304D02*
X227625939Y-82828209D01*
X227625939Y-82828209D02*
X227625939Y-84161542D01*
X227625939Y-84161542D02*
X227435463Y-84923447D01*
X227435463Y-84923447D02*
X227054510Y-85304400D01*
X227054510Y-85304400D02*
X226673558Y-85494876D01*
X226673558Y-85494876D02*
X225911653Y-85494876D01*
X225911653Y-85494876D02*
X225530701Y-85304400D01*
X225530701Y-85304400D02*
X225149748Y-84923447D01*
X225149748Y-84923447D02*
X224959272Y-84161542D01*
X224959272Y-84161542D02*
X224959272Y-82828209D01*
X224959272Y-82828209D02*
X225149748Y-82066304D01*
X225149748Y-82066304D02*
X225530701Y-81685352D01*
X225530701Y-81685352D02*
X225911653Y-81494876D01*
X231244986Y-85494876D02*
X229340224Y-85494876D01*
X229340224Y-85494876D02*
X229340224Y-81494876D01*
X232578319Y-83399638D02*
X233911653Y-83399638D01*
X234483081Y-85494876D02*
X232578319Y-85494876D01*
X232578319Y-85494876D02*
X232578319Y-81494876D01*
X232578319Y-81494876D02*
X234483081Y-81494876D01*
X236197367Y-85494876D02*
X236197367Y-81494876D01*
X236197367Y-81494876D02*
X237149748Y-81494876D01*
X237149748Y-81494876D02*
X237721177Y-81685352D01*
X237721177Y-81685352D02*
X238102129Y-82066304D01*
X238102129Y-82066304D02*
X238292606Y-82447257D01*
X238292606Y-82447257D02*
X238483082Y-83209161D01*
X238483082Y-83209161D02*
X238483082Y-83780590D01*
X238483082Y-83780590D02*
X238292606Y-84542495D01*
X238292606Y-84542495D02*
X238102129Y-84923447D01*
X238102129Y-84923447D02*
X237721177Y-85304400D01*
X237721177Y-85304400D02*
X237149748Y-85494876D01*
X237149748Y-85494876D02*
X236197367Y-85494876D01*
D10*
X153529887Y-56053990D02*
X153387030Y-56006371D01*
X153387030Y-56006371D02*
X153339411Y-55958752D01*
X153339411Y-55958752D02*
X153291792Y-55863514D01*
X153291792Y-55863514D02*
X153291792Y-55720657D01*
X153291792Y-55720657D02*
X153339411Y-55625419D01*
X153339411Y-55625419D02*
X153387030Y-55577800D01*
X153387030Y-55577800D02*
X153482268Y-55530180D01*
X153482268Y-55530180D02*
X153863220Y-55530180D01*
X153863220Y-55530180D02*
X153863220Y-56530180D01*
X153863220Y-56530180D02*
X153529887Y-56530180D01*
X153529887Y-56530180D02*
X153434649Y-56482561D01*
X153434649Y-56482561D02*
X153387030Y-56434942D01*
X153387030Y-56434942D02*
X153339411Y-56339704D01*
X153339411Y-56339704D02*
X153339411Y-56244466D01*
X153339411Y-56244466D02*
X153387030Y-56149228D01*
X153387030Y-56149228D02*
X153434649Y-56101609D01*
X153434649Y-56101609D02*
X153529887Y-56053990D01*
X153529887Y-56053990D02*
X153863220Y-56053990D01*
X152720363Y-55530180D02*
X152815601Y-55577800D01*
X152815601Y-55577800D02*
X152863220Y-55625419D01*
X152863220Y-55625419D02*
X152910839Y-55720657D01*
X152910839Y-55720657D02*
X152910839Y-56006371D01*
X152910839Y-56006371D02*
X152863220Y-56101609D01*
X152863220Y-56101609D02*
X152815601Y-56149228D01*
X152815601Y-56149228D02*
X152720363Y-56196847D01*
X152720363Y-56196847D02*
X152577506Y-56196847D01*
X152577506Y-56196847D02*
X152482268Y-56149228D01*
X152482268Y-56149228D02*
X152434649Y-56101609D01*
X152434649Y-56101609D02*
X152387030Y-56006371D01*
X152387030Y-56006371D02*
X152387030Y-55720657D01*
X152387030Y-55720657D02*
X152434649Y-55625419D01*
X152434649Y-55625419D02*
X152482268Y-55577800D01*
X152482268Y-55577800D02*
X152577506Y-55530180D01*
X152577506Y-55530180D02*
X152720363Y-55530180D01*
X151529887Y-55530180D02*
X151529887Y-56053990D01*
X151529887Y-56053990D02*
X151577506Y-56149228D01*
X151577506Y-56149228D02*
X151672744Y-56196847D01*
X151672744Y-56196847D02*
X151863220Y-56196847D01*
X151863220Y-56196847D02*
X151958458Y-56149228D01*
X151529887Y-55577800D02*
X151625125Y-55530180D01*
X151625125Y-55530180D02*
X151863220Y-55530180D01*
X151863220Y-55530180D02*
X151958458Y-55577800D01*
X151958458Y-55577800D02*
X152006077Y-55673038D01*
X152006077Y-55673038D02*
X152006077Y-55768276D01*
X152006077Y-55768276D02*
X151958458Y-55863514D01*
X151958458Y-55863514D02*
X151863220Y-55911133D01*
X151863220Y-55911133D02*
X151625125Y-55911133D01*
X151625125Y-55911133D02*
X151529887Y-55958752D01*
X151053696Y-55530180D02*
X151053696Y-56196847D01*
X151053696Y-56006371D02*
X151006077Y-56101609D01*
X151006077Y-56101609D02*
X150958458Y-56149228D01*
X150958458Y-56149228D02*
X150863220Y-56196847D01*
X150863220Y-56196847D02*
X150767982Y-56196847D01*
X150006077Y-55530180D02*
X150006077Y-56530180D01*
X150006077Y-55577800D02*
X150101315Y-55530180D01*
X150101315Y-55530180D02*
X150291791Y-55530180D01*
X150291791Y-55530180D02*
X150387029Y-55577800D01*
X150387029Y-55577800D02*
X150434648Y-55625419D01*
X150434648Y-55625419D02*
X150482267Y-55720657D01*
X150482267Y-55720657D02*
X150482267Y-56006371D01*
X150482267Y-56006371D02*
X150434648Y-56101609D01*
X150434648Y-56101609D02*
X150387029Y-56149228D01*
X150387029Y-56149228D02*
X150291791Y-56196847D01*
X150291791Y-56196847D02*
X150101315Y-56196847D01*
X150101315Y-56196847D02*
X150006077Y-56149228D01*
X148767981Y-56053990D02*
X148434648Y-56053990D01*
X148291791Y-55530180D02*
X148767981Y-55530180D01*
X148767981Y-55530180D02*
X148767981Y-56530180D01*
X148767981Y-56530180D02*
X148291791Y-56530180D01*
X147434648Y-55530180D02*
X147434648Y-56530180D01*
X147434648Y-55577800D02*
X147529886Y-55530180D01*
X147529886Y-55530180D02*
X147720362Y-55530180D01*
X147720362Y-55530180D02*
X147815600Y-55577800D01*
X147815600Y-55577800D02*
X147863219Y-55625419D01*
X147863219Y-55625419D02*
X147910838Y-55720657D01*
X147910838Y-55720657D02*
X147910838Y-56006371D01*
X147910838Y-56006371D02*
X147863219Y-56101609D01*
X147863219Y-56101609D02*
X147815600Y-56149228D01*
X147815600Y-56149228D02*
X147720362Y-56196847D01*
X147720362Y-56196847D02*
X147529886Y-56196847D01*
X147529886Y-56196847D02*
X147434648Y-56149228D01*
X146529886Y-56196847D02*
X146529886Y-55387323D01*
X146529886Y-55387323D02*
X146577505Y-55292085D01*
X146577505Y-55292085D02*
X146625124Y-55244466D01*
X146625124Y-55244466D02*
X146720362Y-55196847D01*
X146720362Y-55196847D02*
X146863219Y-55196847D01*
X146863219Y-55196847D02*
X146958457Y-55244466D01*
X146529886Y-55577800D02*
X146625124Y-55530180D01*
X146625124Y-55530180D02*
X146815600Y-55530180D01*
X146815600Y-55530180D02*
X146910838Y-55577800D01*
X146910838Y-55577800D02*
X146958457Y-55625419D01*
X146958457Y-55625419D02*
X147006076Y-55720657D01*
X147006076Y-55720657D02*
X147006076Y-56006371D01*
X147006076Y-56006371D02*
X146958457Y-56101609D01*
X146958457Y-56101609D02*
X146910838Y-56149228D01*
X146910838Y-56149228D02*
X146815600Y-56196847D01*
X146815600Y-56196847D02*
X146625124Y-56196847D01*
X146625124Y-56196847D02*
X146529886Y-56149228D01*
X145672743Y-55577800D02*
X145767981Y-55530180D01*
X145767981Y-55530180D02*
X145958457Y-55530180D01*
X145958457Y-55530180D02*
X146053695Y-55577800D01*
X146053695Y-55577800D02*
X146101314Y-55673038D01*
X146101314Y-55673038D02*
X146101314Y-56053990D01*
X146101314Y-56053990D02*
X146053695Y-56149228D01*
X146053695Y-56149228D02*
X145958457Y-56196847D01*
X145958457Y-56196847D02*
X145767981Y-56196847D01*
X145767981Y-56196847D02*
X145672743Y-56149228D01*
X145672743Y-56149228D02*
X145625124Y-56053990D01*
X145625124Y-56053990D02*
X145625124Y-55958752D01*
X145625124Y-55958752D02*
X146101314Y-55863514D01*
D12*
X201714285Y-54383890D02*
X201714285Y-54883890D01*
X201714285Y-54883890D02*
X201523809Y-54883890D01*
X201523809Y-54883890D02*
X201476190Y-54860080D01*
X201476190Y-54860080D02*
X201452380Y-54836271D01*
X201452380Y-54836271D02*
X201428571Y-54788652D01*
X201428571Y-54788652D02*
X201428571Y-54717223D01*
X201428571Y-54717223D02*
X201452380Y-54669604D01*
X201452380Y-54669604D02*
X201476190Y-54645795D01*
X201476190Y-54645795D02*
X201523809Y-54621985D01*
X201523809Y-54621985D02*
X201714285Y-54621985D01*
X200928571Y-54431509D02*
X200952380Y-54407700D01*
X200952380Y-54407700D02*
X201023809Y-54383890D01*
X201023809Y-54383890D02*
X201071428Y-54383890D01*
X201071428Y-54383890D02*
X201142856Y-54407700D01*
X201142856Y-54407700D02*
X201190475Y-54455319D01*
X201190475Y-54455319D02*
X201214285Y-54502938D01*
X201214285Y-54502938D02*
X201238094Y-54598176D01*
X201238094Y-54598176D02*
X201238094Y-54669604D01*
X201238094Y-54669604D02*
X201214285Y-54764842D01*
X201214285Y-54764842D02*
X201190475Y-54812461D01*
X201190475Y-54812461D02*
X201142856Y-54860080D01*
X201142856Y-54860080D02*
X201071428Y-54883890D01*
X201071428Y-54883890D02*
X201023809Y-54883890D01*
X201023809Y-54883890D02*
X200952380Y-54860080D01*
X200952380Y-54860080D02*
X200928571Y-54836271D01*
X200547618Y-54645795D02*
X200476190Y-54621985D01*
X200476190Y-54621985D02*
X200452380Y-54598176D01*
X200452380Y-54598176D02*
X200428571Y-54550557D01*
X200428571Y-54550557D02*
X200428571Y-54479128D01*
X200428571Y-54479128D02*
X200452380Y-54431509D01*
X200452380Y-54431509D02*
X200476190Y-54407700D01*
X200476190Y-54407700D02*
X200523809Y-54383890D01*
X200523809Y-54383890D02*
X200714285Y-54383890D01*
X200714285Y-54383890D02*
X200714285Y-54883890D01*
X200714285Y-54883890D02*
X200547618Y-54883890D01*
X200547618Y-54883890D02*
X200499999Y-54860080D01*
X200499999Y-54860080D02*
X200476190Y-54836271D01*
X200476190Y-54836271D02*
X200452380Y-54788652D01*
X200452380Y-54788652D02*
X200452380Y-54741033D01*
X200452380Y-54741033D02*
X200476190Y-54693414D01*
X200476190Y-54693414D02*
X200499999Y-54669604D01*
X200499999Y-54669604D02*
X200547618Y-54645795D01*
X200547618Y-54645795D02*
X200714285Y-54645795D01*
X199833333Y-54645795D02*
X199666666Y-54645795D01*
X199595238Y-54383890D02*
X199833333Y-54383890D01*
X199833333Y-54383890D02*
X199833333Y-54883890D01*
X199833333Y-54883890D02*
X199595238Y-54883890D01*
X199166666Y-54383890D02*
X199166666Y-54883890D01*
X199166666Y-54407700D02*
X199214285Y-54383890D01*
X199214285Y-54383890D02*
X199309523Y-54383890D01*
X199309523Y-54383890D02*
X199357142Y-54407700D01*
X199357142Y-54407700D02*
X199380952Y-54431509D01*
X199380952Y-54431509D02*
X199404761Y-54479128D01*
X199404761Y-54479128D02*
X199404761Y-54621985D01*
X199404761Y-54621985D02*
X199380952Y-54669604D01*
X199380952Y-54669604D02*
X199357142Y-54693414D01*
X199357142Y-54693414D02*
X199309523Y-54717223D01*
X199309523Y-54717223D02*
X199214285Y-54717223D01*
X199214285Y-54717223D02*
X199166666Y-54693414D01*
X198714285Y-54717223D02*
X198714285Y-54312461D01*
X198714285Y-54312461D02*
X198738095Y-54264842D01*
X198738095Y-54264842D02*
X198761904Y-54241033D01*
X198761904Y-54241033D02*
X198809523Y-54217223D01*
X198809523Y-54217223D02*
X198880952Y-54217223D01*
X198880952Y-54217223D02*
X198928571Y-54241033D01*
X198714285Y-54407700D02*
X198761904Y-54383890D01*
X198761904Y-54383890D02*
X198857142Y-54383890D01*
X198857142Y-54383890D02*
X198904761Y-54407700D01*
X198904761Y-54407700D02*
X198928571Y-54431509D01*
X198928571Y-54431509D02*
X198952380Y-54479128D01*
X198952380Y-54479128D02*
X198952380Y-54621985D01*
X198952380Y-54621985D02*
X198928571Y-54669604D01*
X198928571Y-54669604D02*
X198904761Y-54693414D01*
X198904761Y-54693414D02*
X198857142Y-54717223D01*
X198857142Y-54717223D02*
X198761904Y-54717223D01*
X198761904Y-54717223D02*
X198714285Y-54693414D01*
X198285714Y-54407700D02*
X198333333Y-54383890D01*
X198333333Y-54383890D02*
X198428571Y-54383890D01*
X198428571Y-54383890D02*
X198476190Y-54407700D01*
X198476190Y-54407700D02*
X198499999Y-54455319D01*
X198499999Y-54455319D02*
X198499999Y-54645795D01*
X198499999Y-54645795D02*
X198476190Y-54693414D01*
X198476190Y-54693414D02*
X198428571Y-54717223D01*
X198428571Y-54717223D02*
X198333333Y-54717223D01*
X198333333Y-54717223D02*
X198285714Y-54693414D01*
X198285714Y-54693414D02*
X198261904Y-54645795D01*
X198261904Y-54645795D02*
X198261904Y-54598176D01*
X198261904Y-54598176D02*
X198499999Y-54550557D01*
D13*
%TO.C,H5*%
G36*
X195171428Y-160005507D02*
G01*
X195171428Y-163441256D01*
X195128571Y-163441256D01*
X195085714Y-163441256D01*
X195085714Y-160005507D01*
X195085714Y-156569758D01*
X195128571Y-156569758D01*
X195171428Y-156569758D01*
X195171428Y-160005507D01*
G37*
G36*
X195514285Y-159557633D02*
G01*
X195514285Y-162545507D01*
X195471428Y-162545507D01*
X195428571Y-162545507D01*
X195428571Y-159557633D01*
X195428571Y-156569758D01*
X195471428Y-156569758D01*
X195514285Y-156569758D01*
X195514285Y-159557633D01*
G37*
G36*
X196014285Y-159557633D02*
G01*
X196014285Y-162545507D01*
X195885714Y-162545507D01*
X195757142Y-162545507D01*
X195757142Y-159557633D01*
X195757142Y-156569758D01*
X195885714Y-156569758D01*
X196014285Y-156569758D01*
X196014285Y-159557633D01*
G37*
G36*
X196225000Y-156572348D02*
G01*
X196350000Y-156575893D01*
X196350000Y-159557633D01*
X196350000Y-162539372D01*
X196225000Y-162542917D01*
X196100000Y-162546462D01*
X196100000Y-159557633D01*
X196100000Y-156568803D01*
X196225000Y-156572348D01*
G37*
G36*
X196514285Y-159557633D02*
G01*
X196514285Y-162545507D01*
X196471428Y-162545507D01*
X196428571Y-162545507D01*
X196428571Y-159557633D01*
X196428571Y-156569758D01*
X196471428Y-156569758D01*
X196514285Y-156569758D01*
X196514285Y-159557633D01*
G37*
G36*
X196871428Y-159557633D02*
G01*
X196871428Y-162545507D01*
X196742857Y-162545507D01*
X196614285Y-162545507D01*
X196614285Y-159557633D01*
X196614285Y-156569758D01*
X196742857Y-156569758D01*
X196871428Y-156569758D01*
X196871428Y-159557633D01*
G37*
G36*
X197028571Y-159557633D02*
G01*
X197028571Y-162545507D01*
X196985714Y-162545507D01*
X196942857Y-162545507D01*
X196942857Y-159557633D01*
X196942857Y-156569758D01*
X196985714Y-156569758D01*
X197028571Y-156569758D01*
X197028571Y-159557633D01*
G37*
G36*
X197542857Y-159557633D02*
G01*
X197542857Y-162545507D01*
X197492857Y-162545507D01*
X197442857Y-162545507D01*
X197442857Y-159557633D01*
X197442857Y-156569758D01*
X197492857Y-156569758D01*
X197542857Y-156569758D01*
X197542857Y-159557633D01*
G37*
G36*
X197871428Y-159557633D02*
G01*
X197871428Y-162545507D01*
X197742857Y-162545507D01*
X197614285Y-162545507D01*
X197614285Y-159557633D01*
X197614285Y-156569758D01*
X197742857Y-156569758D01*
X197871428Y-156569758D01*
X197871428Y-159557633D01*
G37*
G36*
X198057142Y-159557633D02*
G01*
X198057142Y-162545507D01*
X198014285Y-162545507D01*
X197971428Y-162545507D01*
X197971428Y-159557633D01*
X197971428Y-156569758D01*
X198014285Y-156569758D01*
X198057142Y-156569758D01*
X198057142Y-159557633D01*
G37*
G36*
X198385714Y-159557633D02*
G01*
X198385714Y-162545507D01*
X198257142Y-162545507D01*
X198128571Y-162545507D01*
X198128571Y-159557633D01*
X198128571Y-156569758D01*
X198257142Y-156569758D01*
X198385714Y-156569758D01*
X198385714Y-159557633D01*
G37*
G36*
X198728571Y-159557633D02*
G01*
X198728571Y-162545507D01*
X198678571Y-162545507D01*
X198628571Y-162545507D01*
X198628571Y-159557633D01*
X198628571Y-156569758D01*
X198678571Y-156569758D01*
X198728571Y-156569758D01*
X198728571Y-159557633D01*
G37*
G36*
X198885714Y-159557633D02*
G01*
X198885714Y-162545507D01*
X198842857Y-162545507D01*
X198800000Y-162545507D01*
X198800000Y-159557633D01*
X198800000Y-156569758D01*
X198842857Y-156569758D01*
X198885714Y-156569758D01*
X198885714Y-159557633D01*
G37*
G36*
X199228571Y-159557633D02*
G01*
X199228571Y-162545507D01*
X199100000Y-162545507D01*
X198971428Y-162545507D01*
X198971428Y-159557633D01*
X198971428Y-156569758D01*
X199100000Y-156569758D01*
X199228571Y-156569758D01*
X199228571Y-159557633D01*
G37*
G36*
X199914285Y-159557633D02*
G01*
X199914285Y-162545507D01*
X199785714Y-162545507D01*
X199657142Y-162545507D01*
X199657142Y-159557633D01*
X199657142Y-156569758D01*
X199785714Y-156569758D01*
X199914285Y-156569758D01*
X199914285Y-159557633D01*
G37*
G36*
X200242857Y-159557633D02*
G01*
X200242857Y-162545507D01*
X200200000Y-162545507D01*
X200157142Y-162545507D01*
X200157142Y-159557633D01*
X200157142Y-156569758D01*
X200200000Y-156569758D01*
X200242857Y-156569758D01*
X200242857Y-159557633D01*
G37*
G36*
X200410743Y-159560700D02*
G01*
X200414343Y-162545507D01*
X200364285Y-162545507D01*
X200314227Y-162545507D01*
X200317828Y-159560700D01*
X200321428Y-156575893D01*
X200364285Y-156575893D01*
X200407142Y-156575893D01*
X200410743Y-159560700D01*
G37*
G36*
X200571428Y-159557633D02*
G01*
X200571428Y-162545507D01*
X200528571Y-162545507D01*
X200485714Y-162545507D01*
X200485714Y-159557633D01*
X200485714Y-156569758D01*
X200528571Y-156569758D01*
X200571428Y-156569758D01*
X200571428Y-159557633D01*
G37*
G36*
X200757142Y-159557633D02*
G01*
X200757142Y-162545507D01*
X200714285Y-162545507D01*
X200671428Y-162545507D01*
X200671428Y-159557633D01*
X200671428Y-156569758D01*
X200714285Y-156569758D01*
X200757142Y-156569758D01*
X200757142Y-159557633D01*
G37*
G36*
X200928571Y-159557633D02*
G01*
X200928571Y-162545507D01*
X200885714Y-162545507D01*
X200842857Y-162545507D01*
X200842857Y-159557633D01*
X200842857Y-156569758D01*
X200885714Y-156569758D01*
X200928571Y-156569758D01*
X200928571Y-159557633D01*
G37*
G36*
X201428571Y-159557633D02*
G01*
X201428571Y-162545507D01*
X201300000Y-162545507D01*
X201171428Y-162545507D01*
X201171428Y-159557633D01*
X201171428Y-156569758D01*
X201300000Y-156569758D01*
X201428571Y-156569758D01*
X201428571Y-159557633D01*
G37*
G36*
X201928571Y-159557633D02*
G01*
X201928571Y-162545507D01*
X201800000Y-162545507D01*
X201671428Y-162545507D01*
X201671428Y-159557633D01*
X201671428Y-156569758D01*
X201800000Y-156569758D01*
X201928571Y-156569758D01*
X201928571Y-159557633D01*
G37*
G36*
X202285714Y-159557633D02*
G01*
X202285714Y-162545507D01*
X202157142Y-162545507D01*
X202028571Y-162545507D01*
X202028571Y-159557633D01*
X202028571Y-156569758D01*
X202157142Y-156569758D01*
X202285714Y-156569758D01*
X202285714Y-159557633D01*
G37*
G36*
X202403571Y-156572048D02*
G01*
X202450000Y-156575893D01*
X202453600Y-159560700D01*
X202457200Y-162545507D01*
X202407171Y-162545507D01*
X202357142Y-162545507D01*
X202357142Y-159556855D01*
X202357142Y-156568203D01*
X202403571Y-156572048D01*
G37*
G36*
X202821521Y-156572348D02*
G01*
X202943042Y-156575893D01*
X202943042Y-159557633D01*
X202943042Y-162539372D01*
X202821521Y-162542917D01*
X202700000Y-162546462D01*
X202700000Y-159557633D01*
X202700000Y-156568803D01*
X202821521Y-156572348D01*
G37*
G36*
X203114285Y-159557633D02*
G01*
X203114285Y-162545507D01*
X203071428Y-162545507D01*
X203028571Y-162545507D01*
X203028571Y-159557633D01*
X203028571Y-156569758D01*
X203071428Y-156569758D01*
X203114285Y-156569758D01*
X203114285Y-159557633D01*
G37*
G36*
X203285714Y-159557633D02*
G01*
X203285714Y-162545507D01*
X203242857Y-162545507D01*
X203200000Y-162545507D01*
X203200000Y-159557633D01*
X203200000Y-156569758D01*
X203242857Y-156569758D01*
X203285714Y-156569758D01*
X203285714Y-159557633D01*
G37*
G36*
X203971428Y-160005507D02*
G01*
X203971428Y-163441256D01*
X203928571Y-163441256D01*
X203885714Y-163441256D01*
X203885714Y-160005507D01*
X203885714Y-156569758D01*
X203928571Y-156569758D01*
X203971428Y-156569758D01*
X203971428Y-160005507D01*
G37*
G36*
X204614285Y-159557633D02*
G01*
X204614285Y-162545507D01*
X204485714Y-162545507D01*
X204357142Y-162545507D01*
X204357142Y-159557633D01*
X204357142Y-156569758D01*
X204485714Y-156569758D01*
X204614285Y-156569758D01*
X204614285Y-159557633D01*
G37*
G36*
X205114285Y-159557633D02*
G01*
X205114285Y-162545507D01*
X204985714Y-162545507D01*
X204857142Y-162545507D01*
X204857142Y-159557633D01*
X204857142Y-156569758D01*
X204985714Y-156569758D01*
X205114285Y-156569758D01*
X205114285Y-159557633D01*
G37*
G36*
X205800000Y-159557633D02*
G01*
X205800000Y-162545507D01*
X205757142Y-162545507D01*
X205714285Y-162545507D01*
X205714285Y-159557633D01*
X205714285Y-156569758D01*
X205757142Y-156569758D01*
X205800000Y-156569758D01*
X205800000Y-159557633D01*
G37*
G36*
X206085812Y-156572048D02*
G01*
X206128768Y-156575893D01*
X206128932Y-159557633D01*
X206129097Y-162539372D01*
X206085977Y-162543217D01*
X206042857Y-162547062D01*
X206042857Y-159557633D01*
X206042857Y-156568203D01*
X206085812Y-156572048D01*
G37*
G36*
X206471428Y-159557633D02*
G01*
X206471428Y-162545507D01*
X206342857Y-162545507D01*
X206214285Y-162545507D01*
X206214285Y-159557633D01*
X206214285Y-156569758D01*
X206342857Y-156569758D01*
X206471428Y-156569758D01*
X206471428Y-159557633D01*
G37*
G36*
X207157142Y-159557633D02*
G01*
X207157142Y-162545507D01*
X207028571Y-162545507D01*
X206900000Y-162545507D01*
X206900000Y-159557633D01*
X206900000Y-156569758D01*
X207028571Y-156569758D01*
X207157142Y-156569758D01*
X207157142Y-159557633D01*
G37*
G36*
X207328571Y-159557633D02*
G01*
X207328571Y-162545507D01*
X207278571Y-162545507D01*
X207228571Y-162545507D01*
X207228571Y-159557633D01*
X207228571Y-156569758D01*
X207278571Y-156569758D01*
X207328571Y-156569758D01*
X207328571Y-159557633D01*
G37*
G36*
X207657142Y-159557633D02*
G01*
X207657142Y-162545507D01*
X207614285Y-162545507D01*
X207571428Y-162545507D01*
X207571428Y-159557633D01*
X207571428Y-156569758D01*
X207614285Y-156569758D01*
X207657142Y-156569758D01*
X207657142Y-159557633D01*
G37*
G36*
X208157142Y-159557633D02*
G01*
X208157142Y-162545507D01*
X208114285Y-162545507D01*
X208071428Y-162545507D01*
X208071428Y-159557633D01*
X208071428Y-156569758D01*
X208114285Y-156569758D01*
X208157142Y-156569758D01*
X208157142Y-159557633D01*
G37*
G36*
X208342857Y-159557633D02*
G01*
X208342857Y-162545507D01*
X208300000Y-162545507D01*
X208257142Y-162545507D01*
X208257142Y-159557633D01*
X208257142Y-156569758D01*
X208300000Y-156569758D01*
X208342857Y-156569758D01*
X208342857Y-159557633D01*
G37*
G36*
X209014285Y-159556855D02*
G01*
X209014285Y-162545507D01*
X208964256Y-162545507D01*
X208914227Y-162545507D01*
X208917828Y-159560700D01*
X208921428Y-156575893D01*
X208967857Y-156572048D01*
X209014285Y-156568203D01*
X209014285Y-159556855D01*
G37*
G36*
X209342857Y-159557633D02*
G01*
X209342857Y-162545507D01*
X209214285Y-162545507D01*
X209085714Y-162545507D01*
X209085714Y-159557633D01*
X209085714Y-156569758D01*
X209214285Y-156569758D01*
X209342857Y-156569758D01*
X209342857Y-159557633D01*
G37*
G36*
X209514285Y-159557633D02*
G01*
X209514285Y-162545507D01*
X209471428Y-162545507D01*
X209428571Y-162545507D01*
X209428571Y-159557633D01*
X209428571Y-156569758D01*
X209471428Y-156569758D01*
X209514285Y-156569758D01*
X209514285Y-159557633D01*
G37*
G36*
X209700000Y-159557633D02*
G01*
X209700000Y-162545507D01*
X209650000Y-162545507D01*
X209600000Y-162545507D01*
X209600000Y-159557633D01*
X209600000Y-156569758D01*
X209650000Y-156569758D01*
X209700000Y-156569758D01*
X209700000Y-159557633D01*
G37*
G36*
X209857142Y-159557633D02*
G01*
X209857142Y-162545507D01*
X209814285Y-162545507D01*
X209771428Y-162545507D01*
X209771428Y-159557633D01*
X209771428Y-156569758D01*
X209814285Y-156569758D01*
X209857142Y-156569758D01*
X209857142Y-159557633D01*
G37*
G36*
X210357142Y-159557633D02*
G01*
X210357142Y-162545507D01*
X210228571Y-162545507D01*
X210100000Y-162545507D01*
X210100000Y-159557633D01*
X210100000Y-156569758D01*
X210228571Y-156569758D01*
X210357142Y-156569758D01*
X210357142Y-159557633D01*
G37*
G36*
X210700000Y-159557633D02*
G01*
X210700000Y-162545507D01*
X210571428Y-162545507D01*
X210442857Y-162545507D01*
X210442857Y-159557633D01*
X210442857Y-156569758D01*
X210571428Y-156569758D01*
X210700000Y-156569758D01*
X210700000Y-159557633D01*
G37*
G36*
X211214285Y-159557633D02*
G01*
X211214285Y-162545507D01*
X211085714Y-162545507D01*
X210957142Y-162545507D01*
X210957142Y-159557633D01*
X210957142Y-156569758D01*
X211085714Y-156569758D01*
X211214285Y-156569758D01*
X211214285Y-159557633D01*
G37*
G36*
X211385714Y-159557633D02*
G01*
X211385714Y-162545507D01*
X211342857Y-162545507D01*
X211300000Y-162545507D01*
X211300000Y-159557633D01*
X211300000Y-156569758D01*
X211342857Y-156569758D01*
X211385714Y-156569758D01*
X211385714Y-159557633D01*
G37*
G36*
X211714285Y-159557633D02*
G01*
X211714285Y-162545507D01*
X211671428Y-162545507D01*
X211628571Y-162545507D01*
X211628571Y-159557633D01*
X211628571Y-156569758D01*
X211671428Y-156569758D01*
X211714285Y-156569758D01*
X211714285Y-159557633D01*
G37*
G36*
X212385714Y-160005507D02*
G01*
X212385714Y-163441256D01*
X212342857Y-163441256D01*
X212300000Y-163441256D01*
X212300000Y-160005507D01*
X212300000Y-156569758D01*
X212342857Y-156569758D01*
X212385714Y-156569758D01*
X212385714Y-160005507D01*
G37*
G36*
X197371428Y-159556855D02*
G01*
X197371428Y-162545507D01*
X197328123Y-162545507D01*
X197295435Y-162540967D01*
X197278033Y-162530169D01*
X197277435Y-162516675D01*
X197276881Y-162479703D01*
X197276372Y-162420316D01*
X197275909Y-162339579D01*
X197275493Y-162238553D01*
X197275125Y-162118303D01*
X197274807Y-161979892D01*
X197274540Y-161824384D01*
X197274324Y-161652840D01*
X197274161Y-161466325D01*
X197274051Y-161265903D01*
X197273997Y-161052635D01*
X197273999Y-160827587D01*
X197274058Y-160591820D01*
X197274176Y-160346399D01*
X197274352Y-160092386D01*
X197274590Y-159830845D01*
X197274889Y-159562839D01*
X197274910Y-159545362D01*
X197278571Y-156575893D01*
X197325000Y-156572048D01*
X197371428Y-156568203D01*
X197371428Y-159556855D01*
G37*
G36*
X204285714Y-159557633D02*
G01*
X204285714Y-162545507D01*
X204245238Y-162545507D01*
X204212520Y-162542879D01*
X204195238Y-162537327D01*
X204194379Y-162524487D01*
X204193541Y-162488164D01*
X204192727Y-162429416D01*
X204191940Y-162349301D01*
X204191185Y-162248878D01*
X204190464Y-162129204D01*
X204189781Y-161991337D01*
X204189138Y-161836336D01*
X204188540Y-161665258D01*
X204187990Y-161479162D01*
X204187491Y-161279106D01*
X204187047Y-161066147D01*
X204186660Y-160841344D01*
X204186335Y-160605755D01*
X204186074Y-160360439D01*
X204185882Y-160106452D01*
X204185761Y-159844853D01*
X204185714Y-159576700D01*
X204185714Y-159549452D01*
X204185714Y-156569758D01*
X204235714Y-156569758D01*
X204285714Y-156569758D01*
X204285714Y-159557633D01*
G37*
G36*
X205285714Y-159556855D02*
G01*
X205285714Y-162545507D01*
X205243700Y-162545507D01*
X205211187Y-162542291D01*
X205194136Y-162535014D01*
X205193467Y-162521963D01*
X205192840Y-162485431D01*
X205192255Y-162426478D01*
X205191715Y-162346164D01*
X205191221Y-162245550D01*
X205190774Y-162125696D01*
X205190377Y-161987661D01*
X205190030Y-161832506D01*
X205189736Y-161661291D01*
X205189495Y-161475077D01*
X205189310Y-161274922D01*
X205189182Y-161061888D01*
X205189112Y-160837035D01*
X205189103Y-160601422D01*
X205189155Y-160356110D01*
X205189271Y-160102159D01*
X205189451Y-159840629D01*
X205189698Y-159572580D01*
X205189721Y-159550208D01*
X205192857Y-156575893D01*
X205239285Y-156572048D01*
X205285714Y-156568203D01*
X205285714Y-159556855D01*
G37*
G36*
X205450000Y-159557633D02*
G01*
X205450000Y-162539372D01*
X205410633Y-162543261D01*
X205378112Y-162540884D01*
X205364115Y-162530991D01*
X205363484Y-162517421D01*
X205362897Y-162480375D01*
X205362356Y-162420914D01*
X205361863Y-162340104D01*
X205361418Y-162239008D01*
X205361022Y-162118689D01*
X205360678Y-161980211D01*
X205360386Y-161824638D01*
X205360147Y-161653033D01*
X205359962Y-161466461D01*
X205359834Y-161265985D01*
X205359762Y-161052669D01*
X205359749Y-160827575D01*
X205359796Y-160591769D01*
X205359904Y-160346314D01*
X205360073Y-160092273D01*
X205360306Y-159830710D01*
X205360603Y-159562689D01*
X205360625Y-159545362D01*
X205364285Y-156575893D01*
X205407142Y-156575893D01*
X205450000Y-156575893D01*
X205450000Y-159557633D01*
G37*
G36*
X210857644Y-159557633D02*
G01*
X210857746Y-162539372D01*
X210821649Y-162543261D01*
X210791446Y-162540590D01*
X210778401Y-162530991D01*
X210777769Y-162517421D01*
X210777183Y-162480375D01*
X210776642Y-162420914D01*
X210776149Y-162340104D01*
X210775704Y-162239008D01*
X210775308Y-162118689D01*
X210774964Y-161980211D01*
X210774671Y-161824638D01*
X210774432Y-161653033D01*
X210774248Y-161466461D01*
X210774120Y-161265985D01*
X210774048Y-161052669D01*
X210774035Y-160827575D01*
X210774082Y-160591769D01*
X210774189Y-160346314D01*
X210774359Y-160092273D01*
X210774592Y-159830710D01*
X210774889Y-159562689D01*
X210774910Y-159545362D01*
X210778571Y-156575893D01*
X210818056Y-156575893D01*
X210857542Y-156575893D01*
X210857644Y-159557633D01*
G37*
G36*
X194829341Y-160005507D02*
G01*
X194828596Y-163435121D01*
X194792788Y-163439010D01*
X194762792Y-163436311D01*
X194749831Y-163426739D01*
X194749242Y-163413258D01*
X194748691Y-163376226D01*
X194748180Y-163316635D01*
X194747709Y-163235474D01*
X194747280Y-163133735D01*
X194746895Y-163012407D01*
X194746552Y-162872483D01*
X194746255Y-162714951D01*
X194746003Y-162540804D01*
X194745799Y-162351030D01*
X194745642Y-162146622D01*
X194745533Y-161928570D01*
X194745475Y-161697864D01*
X194745467Y-161455494D01*
X194745512Y-161202452D01*
X194745609Y-160939729D01*
X194745759Y-160668314D01*
X194745965Y-160389198D01*
X194746227Y-160103372D01*
X194746341Y-159993236D01*
X194750000Y-156575893D01*
X194790043Y-156575893D01*
X194830086Y-156575893D01*
X194829341Y-160005507D01*
G37*
G36*
X201600000Y-159556855D02*
G01*
X201600000Y-162545507D01*
X201557142Y-162545507D01*
X201527041Y-162541952D01*
X201514260Y-162533388D01*
X201514256Y-162533236D01*
X201514253Y-162520023D01*
X201514249Y-162483329D01*
X201514244Y-162424217D01*
X201514238Y-162343748D01*
X201514232Y-162242983D01*
X201514225Y-162122984D01*
X201514217Y-161984811D01*
X201514208Y-161829526D01*
X201514199Y-161658190D01*
X201514190Y-161471865D01*
X201514180Y-161271612D01*
X201514170Y-161058493D01*
X201514160Y-160833567D01*
X201514149Y-160597898D01*
X201514138Y-160352545D01*
X201514127Y-160098571D01*
X201514116Y-159837037D01*
X201514104Y-159569004D01*
X201514103Y-159548430D01*
X201513980Y-156575893D01*
X201556990Y-156572048D01*
X201600000Y-156568203D01*
X201600000Y-159556855D01*
G37*
G36*
X203589285Y-156572048D02*
G01*
X203635714Y-156575893D01*
X203635714Y-160010570D01*
X203635714Y-163445247D01*
X203595739Y-163446750D01*
X203564460Y-163446079D01*
X203549311Y-163442709D01*
X203548768Y-163430132D01*
X203548238Y-163393998D01*
X203547721Y-163335291D01*
X203547221Y-163254995D01*
X203546738Y-163154094D01*
X203546274Y-163033572D01*
X203545832Y-162894414D01*
X203545413Y-162737602D01*
X203545019Y-162564123D01*
X203544652Y-162374958D01*
X203544313Y-162171093D01*
X203544005Y-161953512D01*
X203543730Y-161723198D01*
X203543489Y-161481135D01*
X203543284Y-161228308D01*
X203543116Y-160965701D01*
X203542989Y-160694298D01*
X203542903Y-160415082D01*
X203542861Y-160129039D01*
X203542857Y-160002684D01*
X203542857Y-156568203D01*
X203589285Y-156572048D01*
G37*
G36*
X205628571Y-159545362D02*
G01*
X205628585Y-159813942D01*
X205628628Y-160076082D01*
X205628698Y-160330721D01*
X205628793Y-160576801D01*
X205628913Y-160813263D01*
X205629056Y-161039047D01*
X205629221Y-161253094D01*
X205629406Y-161454344D01*
X205629611Y-161641739D01*
X205629833Y-161814219D01*
X205630073Y-161970724D01*
X205630328Y-162110196D01*
X205630597Y-162231575D01*
X205630880Y-162333802D01*
X205631174Y-162415817D01*
X205631479Y-162476562D01*
X205631792Y-162514977D01*
X205632114Y-162530002D01*
X205632142Y-162530169D01*
X205622248Y-162537414D01*
X205593343Y-162542844D01*
X205589285Y-162543217D01*
X205542857Y-162547062D01*
X205542857Y-159558410D01*
X205542857Y-156569758D01*
X205585714Y-156569758D01*
X205628571Y-156569758D01*
X205628571Y-159545362D01*
G37*
G36*
X212050000Y-160005507D02*
G01*
X212050000Y-163435121D01*
X212010714Y-163439003D01*
X211982250Y-163440603D01*
X211971364Y-163439003D01*
X211971358Y-163426567D01*
X211971351Y-163390574D01*
X211971344Y-163332007D01*
X211971336Y-163251853D01*
X211971327Y-163151093D01*
X211971318Y-163030713D01*
X211971308Y-162891697D01*
X211971298Y-162735028D01*
X211971287Y-162561692D01*
X211971276Y-162372671D01*
X211971265Y-162168950D01*
X211971254Y-161951514D01*
X211971242Y-161721346D01*
X211971230Y-161479430D01*
X211971218Y-161226751D01*
X211971207Y-160964293D01*
X211971195Y-160693039D01*
X211971183Y-160413975D01*
X211971172Y-160128083D01*
X211971167Y-160005507D01*
X211971035Y-156575893D01*
X212010517Y-156575893D01*
X212050000Y-156575893D01*
X212050000Y-160005507D01*
G37*
G36*
X199571428Y-159557155D02*
G01*
X199571428Y-162545507D01*
X199449551Y-162545507D01*
X199381107Y-162543967D01*
X199339007Y-162539188D01*
X199321237Y-162530929D01*
X199320832Y-162530169D01*
X199320229Y-162516675D01*
X199319670Y-162479703D01*
X199319157Y-162420316D01*
X199318691Y-162339579D01*
X199318272Y-162238553D01*
X199317903Y-162118303D01*
X199317583Y-161979892D01*
X199317314Y-161824384D01*
X199317098Y-161652840D01*
X199316935Y-161466325D01*
X199316827Y-161265903D01*
X199316774Y-161052635D01*
X199316778Y-160827587D01*
X199316840Y-160591820D01*
X199316960Y-160346399D01*
X199317141Y-160092386D01*
X199317383Y-159830845D01*
X199317687Y-159562839D01*
X199317709Y-159545362D01*
X199321428Y-156575893D01*
X199446428Y-156572348D01*
X199571428Y-156568803D01*
X199571428Y-159557155D01*
G37*
G36*
X206800000Y-159557155D02*
G01*
X206800000Y-162545507D01*
X206678123Y-162545507D01*
X206609720Y-162543971D01*
X206567649Y-162539201D01*
X206549881Y-162530957D01*
X206549462Y-162530169D01*
X206548864Y-162516675D01*
X206548310Y-162479703D01*
X206547801Y-162420316D01*
X206547337Y-162339579D01*
X206546922Y-162238553D01*
X206546554Y-162118303D01*
X206546236Y-161979892D01*
X206545968Y-161824384D01*
X206545752Y-161652840D01*
X206545589Y-161466325D01*
X206545480Y-161265903D01*
X206545426Y-161052635D01*
X206545428Y-160827587D01*
X206545487Y-160591820D01*
X206545604Y-160346399D01*
X206545781Y-160092386D01*
X206546018Y-159830845D01*
X206546318Y-159562839D01*
X206546339Y-159545362D01*
X206550000Y-156575893D01*
X206675000Y-156572348D01*
X206800000Y-156568803D01*
X206800000Y-159557155D01*
G37*
G36*
X207985714Y-159557155D02*
G01*
X207985714Y-162545507D01*
X207864285Y-162545507D01*
X207742857Y-162545507D01*
X207742857Y-159569903D01*
X207742842Y-159301323D01*
X207742799Y-159039184D01*
X207742730Y-158784544D01*
X207742634Y-158538464D01*
X207742515Y-158302002D01*
X207742372Y-158076218D01*
X207742207Y-157862171D01*
X207742022Y-157660921D01*
X207741817Y-157473526D01*
X207741594Y-157301047D01*
X207741355Y-157144541D01*
X207741099Y-157005069D01*
X207740830Y-156883690D01*
X207740548Y-156781463D01*
X207740254Y-156699448D01*
X207739949Y-156638703D01*
X207739635Y-156600288D01*
X207739314Y-156585263D01*
X207739285Y-156585096D01*
X207750824Y-156580631D01*
X207784710Y-156576478D01*
X207834724Y-156573290D01*
X207860714Y-156572348D01*
X207985714Y-156568803D01*
X207985714Y-159557155D01*
G37*
G36*
X208671428Y-159557155D02*
G01*
X208671428Y-162545507D01*
X208550843Y-162545507D01*
X208494981Y-162544328D01*
X208450869Y-162541188D01*
X208425653Y-162536678D01*
X208422607Y-162534874D01*
X208421929Y-162521810D01*
X208421294Y-162485265D01*
X208420703Y-162426300D01*
X208420157Y-162345974D01*
X208419658Y-162245348D01*
X208419208Y-162125482D01*
X208418808Y-161987437D01*
X208418460Y-161832272D01*
X208418165Y-161661047D01*
X208417925Y-161474824D01*
X208417741Y-161274662D01*
X208417616Y-161061621D01*
X208417550Y-160836762D01*
X208417545Y-160601145D01*
X208417603Y-160355830D01*
X208417725Y-160101877D01*
X208417913Y-159840347D01*
X208418168Y-159572299D01*
X208418192Y-159550068D01*
X208421428Y-156575893D01*
X208546428Y-156572348D01*
X208671428Y-156568803D01*
X208671428Y-159557155D01*
G37*
G36*
X211543958Y-162777776D02*
G01*
X211556640Y-162790111D01*
X211560358Y-162808108D01*
X211563566Y-162847420D01*
X211566269Y-162905174D01*
X211568472Y-162978493D01*
X211570180Y-163064505D01*
X211571400Y-163160333D01*
X211572136Y-163263103D01*
X211572394Y-163369941D01*
X211572178Y-163477971D01*
X211571496Y-163584320D01*
X211570352Y-163686112D01*
X211568751Y-163780473D01*
X211566699Y-163864529D01*
X211564202Y-163935403D01*
X211561264Y-163990222D01*
X211557891Y-164026112D01*
X211554285Y-164040058D01*
X211525185Y-164052861D01*
X211492232Y-164052541D01*
X211468503Y-164039790D01*
X211465814Y-164035373D01*
X211463912Y-164019177D01*
X211462155Y-163981180D01*
X211460589Y-163924120D01*
X211459260Y-163850737D01*
X211458215Y-163763770D01*
X211457500Y-163665958D01*
X211457163Y-163560041D01*
X211457142Y-163526146D01*
X211457130Y-163396923D01*
X211456827Y-163290553D01*
X211455833Y-163205347D01*
X211453749Y-163139616D01*
X211450175Y-163091672D01*
X211444710Y-163059827D01*
X211436956Y-163042392D01*
X211426512Y-163037679D01*
X211412979Y-163043999D01*
X211395956Y-163059664D01*
X211375044Y-163082984D01*
X211357142Y-163103816D01*
X211315004Y-163146813D01*
X211280319Y-163167889D01*
X211250543Y-163168111D01*
X211231428Y-163156579D01*
X211215316Y-163133044D01*
X211214806Y-163101298D01*
X211230825Y-163058811D01*
X211264299Y-163003051D01*
X211311560Y-162937517D01*
X211351187Y-162886212D01*
X211387433Y-162840944D01*
X211416319Y-162806576D01*
X211433869Y-162787970D01*
X211434009Y-162787850D01*
X211469149Y-162770457D01*
X211509561Y-162767168D01*
X211543958Y-162777776D01*
G37*
G36*
X197175652Y-162767105D02*
G01*
X197188960Y-162770677D01*
X197199784Y-162779678D01*
X197208384Y-162796024D01*
X197215018Y-162821630D01*
X197219944Y-162858413D01*
X197223420Y-162908288D01*
X197225707Y-162973172D01*
X197227061Y-163054979D01*
X197227743Y-163155626D01*
X197228009Y-163277029D01*
X197228117Y-163417328D01*
X197228047Y-163564770D01*
X197227573Y-163689171D01*
X197226654Y-163792030D01*
X197225251Y-163874844D01*
X197223323Y-163939111D01*
X197220830Y-163986331D01*
X197217732Y-164018001D01*
X197213988Y-164035619D01*
X197211428Y-164040058D01*
X197184049Y-164051749D01*
X197149512Y-164054372D01*
X197123948Y-164046720D01*
X197123809Y-164046602D01*
X197121735Y-164032939D01*
X197119817Y-163997380D01*
X197118104Y-163942573D01*
X197116648Y-163871164D01*
X197115497Y-163785797D01*
X197114703Y-163689119D01*
X197114316Y-163583777D01*
X197114285Y-163544234D01*
X197114039Y-163410725D01*
X197113268Y-163300307D01*
X197111925Y-163211535D01*
X197109963Y-163142962D01*
X197107333Y-163093144D01*
X197103987Y-163060633D01*
X197099878Y-163043984D01*
X197097674Y-163041229D01*
X197088507Y-163038987D01*
X197076450Y-163043655D01*
X197057924Y-163058120D01*
X197029349Y-163085273D01*
X196987146Y-163128003D01*
X196976080Y-163139366D01*
X196939028Y-163166289D01*
X196905905Y-163169328D01*
X196879747Y-163149122D01*
X196865728Y-163116080D01*
X196863948Y-163099150D01*
X196868570Y-163079644D01*
X196881745Y-163053804D01*
X196905623Y-163017874D01*
X196942357Y-162968097D01*
X196974647Y-162925887D01*
X197021004Y-162866326D01*
X197055335Y-162824314D01*
X197080965Y-162796699D01*
X197101217Y-162780331D01*
X197119413Y-162772058D01*
X197138878Y-162768730D01*
X197140551Y-162768586D01*
X197159602Y-162767047D01*
X197175652Y-162767105D01*
G37*
G36*
X206135960Y-162766759D02*
G01*
X206201919Y-162768986D01*
X206247162Y-162774675D01*
X206275614Y-162785447D01*
X206291200Y-162802918D01*
X206297849Y-162828708D01*
X206299486Y-162864436D01*
X206299545Y-162871166D01*
X206297003Y-162917837D01*
X206287744Y-162966829D01*
X206270349Y-163022027D01*
X206243397Y-163087316D01*
X206205471Y-163166582D01*
X206158465Y-163257462D01*
X206102052Y-163369782D01*
X206059728Y-163469442D01*
X206029362Y-163563984D01*
X206008823Y-163660952D01*
X205995981Y-163767890D01*
X205990450Y-163852319D01*
X205986405Y-163915678D01*
X205981167Y-163970784D01*
X205975331Y-164012712D01*
X205969495Y-164036535D01*
X205967807Y-164039444D01*
X205939087Y-164053490D01*
X205904621Y-164049601D01*
X205888571Y-164040058D01*
X205880582Y-164020685D01*
X205875105Y-163981560D01*
X205872178Y-163927380D01*
X205871835Y-163862840D01*
X205874115Y-163792637D01*
X205879053Y-163721467D01*
X205885640Y-163661661D01*
X205900658Y-163571864D01*
X205922120Y-163485497D01*
X205952066Y-163396544D01*
X205992539Y-163298990D01*
X206045579Y-163186821D01*
X206049516Y-163178869D01*
X206080826Y-163114247D01*
X206107668Y-163055925D01*
X206128128Y-163008295D01*
X206140295Y-162975750D01*
X206142857Y-162964475D01*
X206141391Y-162952819D01*
X206133633Y-162945236D01*
X206114539Y-162940853D01*
X206079066Y-162938796D01*
X206022173Y-162938193D01*
X205990860Y-162938164D01*
X205913752Y-162937038D01*
X205860715Y-162932360D01*
X205827309Y-162922180D01*
X205809096Y-162904548D01*
X205801634Y-162877514D01*
X205800454Y-162854531D01*
X205801089Y-162822604D01*
X205806454Y-162799496D01*
X205820506Y-162783781D01*
X205847199Y-162774035D01*
X205890492Y-162768835D01*
X205954339Y-162766757D01*
X206042698Y-162766377D01*
X206045356Y-162766377D01*
X206135960Y-162766759D01*
G37*
G36*
X204777514Y-162816513D02*
G01*
X204795364Y-162841731D01*
X204805144Y-162865909D01*
X204807720Y-162879777D01*
X204806473Y-162894818D01*
X204799685Y-162914458D01*
X204785632Y-162942122D01*
X204762595Y-162981235D01*
X204728853Y-163035223D01*
X204687647Y-163099770D01*
X204627318Y-163193888D01*
X204660087Y-163214104D01*
X204690544Y-163232137D01*
X204733581Y-163256743D01*
X204763275Y-163273368D01*
X204835930Y-163327944D01*
X204891248Y-163400219D01*
X204927450Y-163487310D01*
X204941090Y-163561689D01*
X204944601Y-163675974D01*
X204933203Y-163778746D01*
X204907959Y-163868101D01*
X204869926Y-163942137D01*
X204820164Y-163998951D01*
X204759734Y-164036642D01*
X204689694Y-164053306D01*
X204666927Y-164053920D01*
X204627804Y-164050764D01*
X204600000Y-164044717D01*
X204528054Y-164003537D01*
X204469204Y-163942277D01*
X204424620Y-163863160D01*
X204395474Y-163768405D01*
X204382936Y-163660236D01*
X204382619Y-163638227D01*
X204502719Y-163638227D01*
X204504508Y-163667977D01*
X204519842Y-163740934D01*
X204546995Y-163801192D01*
X204583316Y-163846556D01*
X204626159Y-163874832D01*
X204672875Y-163883825D01*
X204720815Y-163871340D01*
X204737743Y-163861249D01*
X204779412Y-163820021D01*
X204807399Y-163766749D01*
X204822416Y-163705731D01*
X204825172Y-163641266D01*
X204816378Y-163577655D01*
X204796744Y-163519195D01*
X204766982Y-163470185D01*
X204727800Y-163434926D01*
X204679910Y-163417716D01*
X204664285Y-163416715D01*
X204611994Y-163428147D01*
X204567239Y-163459871D01*
X204532473Y-163508031D01*
X204510149Y-163568768D01*
X204502719Y-163638227D01*
X204382619Y-163638227D01*
X204382530Y-163632067D01*
X204396879Y-163464703D01*
X204438631Y-163299890D01*
X204508130Y-163136701D01*
X204605719Y-162974209D01*
X204649358Y-162913623D01*
X204691243Y-162860187D01*
X204722570Y-162826291D01*
X204746164Y-162809796D01*
X204764850Y-162808560D01*
X204777514Y-162816513D01*
G37*
G36*
X208814376Y-162774710D02*
G01*
X208845538Y-162781725D01*
X208872284Y-162799012D01*
X208898800Y-162823498D01*
X208936096Y-162864151D01*
X208974400Y-162912859D01*
X208992828Y-162939630D01*
X209011927Y-162971645D01*
X209024622Y-163000872D01*
X209032522Y-163034114D01*
X209037235Y-163078177D01*
X209040368Y-163139867D01*
X209040415Y-163141040D01*
X209040153Y-163244228D01*
X209030072Y-163343150D01*
X209008861Y-163442868D01*
X208975211Y-163548440D01*
X208927812Y-163664927D01*
X208876236Y-163775275D01*
X208825104Y-163873324D01*
X208777792Y-163950761D01*
X208734868Y-164006993D01*
X208696903Y-164041431D01*
X208664469Y-164053484D01*
X208638136Y-164042562D01*
X208629074Y-164031048D01*
X208619303Y-164010992D01*
X208616581Y-163989396D01*
X208622211Y-163962201D01*
X208637497Y-163925349D01*
X208663744Y-163874782D01*
X208700000Y-163810377D01*
X208739768Y-163739500D01*
X208766412Y-163686995D01*
X208780401Y-163649651D01*
X208782206Y-163624253D01*
X208772297Y-163607590D01*
X208751143Y-163596450D01*
X208732142Y-163590791D01*
X208661570Y-163561460D01*
X208596209Y-163514164D01*
X208544529Y-163455316D01*
X208536550Y-163442673D01*
X208497418Y-163352766D01*
X208477004Y-163252002D01*
X208475905Y-163195845D01*
X208600393Y-163195845D01*
X208608288Y-163267819D01*
X208629707Y-163328140D01*
X208661926Y-163374594D01*
X208702224Y-163404969D01*
X208747878Y-163417052D01*
X208796167Y-163408628D01*
X208834352Y-163386048D01*
X208877307Y-163339791D01*
X208903268Y-163281062D01*
X208913852Y-163205769D01*
X208914285Y-163183575D01*
X208906632Y-163101647D01*
X208884553Y-163035458D01*
X208849372Y-162986955D01*
X208802413Y-162958088D01*
X208755922Y-162950435D01*
X208701104Y-162961686D01*
X208657174Y-162994410D01*
X208625112Y-163047062D01*
X208605896Y-163118097D01*
X208600393Y-163195845D01*
X208475905Y-163195845D01*
X208474942Y-163146619D01*
X208490869Y-163042857D01*
X208524419Y-162946953D01*
X208569936Y-162871796D01*
X208616565Y-162820785D01*
X208664696Y-162789997D01*
X208721860Y-162775664D01*
X208766735Y-162773388D01*
X208814376Y-162774710D01*
G37*
G36*
X202633705Y-162767399D02*
G01*
X202700379Y-162770515D01*
X202740755Y-162775800D01*
X202754285Y-162781101D01*
X202764753Y-162802426D01*
X202770482Y-162838031D01*
X202770855Y-162877912D01*
X202765258Y-162912065D01*
X202762757Y-162918755D01*
X202754008Y-162927708D01*
X202734028Y-162933497D01*
X202697817Y-162936737D01*
X202640375Y-162938043D01*
X202605166Y-162938164D01*
X202534232Y-162938313D01*
X202486898Y-162941507D01*
X202458341Y-162951866D01*
X202443734Y-162973510D01*
X202438254Y-163010557D01*
X202437074Y-163067129D01*
X202436922Y-163081820D01*
X202435714Y-163184927D01*
X202511676Y-163207186D01*
X202600808Y-163245435D01*
X202671770Y-163302242D01*
X202724091Y-163376899D01*
X202757299Y-163468698D01*
X202770923Y-163576932D01*
X202771259Y-163597101D01*
X202761713Y-163713786D01*
X202733214Y-163815127D01*
X202686683Y-163900014D01*
X202623044Y-163967343D01*
X202543217Y-164016005D01*
X202448125Y-164044894D01*
X202392667Y-164051753D01*
X202342818Y-164054624D01*
X202313903Y-164053350D01*
X202298408Y-164046093D01*
X202288821Y-164031014D01*
X202286448Y-164025765D01*
X202278445Y-163987432D01*
X202283699Y-163948232D01*
X202300058Y-163917823D01*
X202312601Y-163908525D01*
X202341070Y-163899936D01*
X202383151Y-163891505D01*
X202395180Y-163889658D01*
X202472748Y-163867651D01*
X202543185Y-163827592D01*
X202596839Y-163775173D01*
X202602255Y-163767484D01*
X202618587Y-163739468D01*
X202628643Y-163710464D01*
X202633850Y-163673364D01*
X202635633Y-163621057D01*
X202635714Y-163600773D01*
X202631724Y-163521541D01*
X202617785Y-163462873D01*
X202590945Y-163421540D01*
X202548250Y-163394310D01*
X202486747Y-163377955D01*
X202425455Y-163370797D01*
X202384069Y-163367070D01*
X202352644Y-163361301D01*
X202329913Y-163350440D01*
X202314607Y-163331434D01*
X202305459Y-163301232D01*
X202301200Y-163256780D01*
X202300562Y-163195029D01*
X202302277Y-163112925D01*
X202303256Y-163076715D01*
X202306234Y-162995612D01*
X202310364Y-162923338D01*
X202315316Y-162863885D01*
X202320761Y-162821246D01*
X202326011Y-162800121D01*
X202342149Y-162766377D01*
X202539646Y-162766377D01*
X202633705Y-162767399D01*
G37*
G36*
X201231470Y-162781258D02*
G01*
X201250655Y-162807666D01*
X201251926Y-162811547D01*
X201255790Y-162832028D01*
X201255800Y-162857289D01*
X201251266Y-162890149D01*
X201241496Y-162933425D01*
X201225799Y-162989935D01*
X201203486Y-163062498D01*
X201173865Y-163153932D01*
X201151362Y-163221832D01*
X201124686Y-163303301D01*
X201100636Y-163379502D01*
X201080411Y-163446402D01*
X201065214Y-163499973D01*
X201056246Y-163536182D01*
X201054425Y-163547001D01*
X201050000Y-163594637D01*
X201132142Y-163598317D01*
X201214285Y-163601997D01*
X201214285Y-163485247D01*
X201214844Y-163430318D01*
X201217306Y-163394781D01*
X201222850Y-163373494D01*
X201232653Y-163361315D01*
X201244187Y-163354750D01*
X201281781Y-163346739D01*
X201308473Y-163348417D01*
X201324421Y-163353034D01*
X201334476Y-163361807D01*
X201339995Y-163379630D01*
X201342335Y-163411399D01*
X201342852Y-163462009D01*
X201342857Y-163472470D01*
X201343140Y-163526600D01*
X201345022Y-163561294D01*
X201350052Y-163581659D01*
X201359777Y-163592799D01*
X201375745Y-163599821D01*
X201382116Y-163601930D01*
X201437833Y-163628446D01*
X201466645Y-163663066D01*
X201468795Y-163706245D01*
X201455753Y-163739603D01*
X201432416Y-163764748D01*
X201396157Y-163787038D01*
X201391467Y-163789064D01*
X201342857Y-163808975D01*
X201342857Y-163925312D01*
X201342212Y-163980495D01*
X201339555Y-164016208D01*
X201333804Y-164037510D01*
X201323875Y-164049458D01*
X201315224Y-164054351D01*
X201289958Y-164064862D01*
X201273154Y-164063600D01*
X201249158Y-164049677D01*
X201235790Y-164037627D01*
X201226629Y-164018043D01*
X201220403Y-163985892D01*
X201215843Y-163936142D01*
X201214285Y-163911634D01*
X201207142Y-163790966D01*
X201071428Y-163787585D01*
X200999101Y-163784686D01*
X200950601Y-163777958D01*
X200921187Y-163763944D01*
X200906117Y-163739183D01*
X200900651Y-163700218D01*
X200900000Y-163662520D01*
X200901499Y-163634588D01*
X200906491Y-163600783D01*
X200915716Y-163558395D01*
X200929914Y-163504711D01*
X200949828Y-163437021D01*
X200976196Y-163352612D01*
X201009761Y-163248775D01*
X201029256Y-163189382D01*
X201060774Y-163094869D01*
X201090605Y-163007598D01*
X201117702Y-162930467D01*
X201141017Y-162866374D01*
X201159504Y-162818218D01*
X201172114Y-162788898D01*
X201176719Y-162781264D01*
X201203973Y-162771309D01*
X201231470Y-162781258D01*
G37*
G36*
X195806996Y-162774258D02*
G01*
X195826312Y-162778125D01*
X195883279Y-162796885D01*
X195930825Y-162825768D01*
X195969628Y-162866626D01*
X196000368Y-162921312D01*
X196023723Y-162991681D01*
X196040372Y-163079584D01*
X196050992Y-163186877D01*
X196056263Y-163315411D01*
X196057142Y-163408643D01*
X196054512Y-163539541D01*
X196046900Y-163661055D01*
X196034730Y-163770104D01*
X196018423Y-163863608D01*
X195998399Y-163938485D01*
X195978092Y-163986429D01*
X195942038Y-164026588D01*
X195885177Y-164052775D01*
X195806023Y-164065536D01*
X195758770Y-164067053D01*
X195698291Y-164065061D01*
X195655570Y-164057734D01*
X195620055Y-164043044D01*
X195612826Y-164039008D01*
X195575296Y-164010015D01*
X195544290Y-163969099D01*
X195519386Y-163914405D01*
X195500161Y-163844079D01*
X195486193Y-163756265D01*
X195477059Y-163649109D01*
X195472336Y-163520756D01*
X195471605Y-163438484D01*
X195600931Y-163438484D01*
X195601243Y-163523771D01*
X195602667Y-163602851D01*
X195605259Y-163671880D01*
X195609071Y-163727015D01*
X195614157Y-163764414D01*
X195614598Y-163766425D01*
X195627734Y-163820055D01*
X195641303Y-163854045D01*
X195661014Y-163872872D01*
X195692579Y-163881016D01*
X195741706Y-163882954D01*
X195763237Y-163882995D01*
X195868326Y-163882995D01*
X195894570Y-163830845D01*
X195902544Y-163812459D01*
X195908871Y-163790517D01*
X195913800Y-163761904D01*
X195917581Y-163723500D01*
X195920463Y-163672188D01*
X195922696Y-163604849D01*
X195924530Y-163518366D01*
X195925761Y-163441256D01*
X195926735Y-163349636D01*
X195926959Y-163263426D01*
X195926477Y-163186463D01*
X195925332Y-163122585D01*
X195923569Y-163075629D01*
X195921273Y-163049672D01*
X195900520Y-162994211D01*
X195862553Y-162952923D01*
X195811777Y-162929640D01*
X195778960Y-162925893D01*
X195716311Y-162934479D01*
X195661785Y-162957487D01*
X195625423Y-162990441D01*
X195619442Y-163011587D01*
X195614199Y-163053424D01*
X195609747Y-163112110D01*
X195606141Y-163183802D01*
X195603434Y-163264657D01*
X195601680Y-163350832D01*
X195600931Y-163438484D01*
X195471605Y-163438484D01*
X195471428Y-163418573D01*
X195472709Y-163285644D01*
X195476739Y-163174790D01*
X195483798Y-163083634D01*
X195494168Y-163009800D01*
X195508130Y-162950913D01*
X195525963Y-162904597D01*
X195533938Y-162889583D01*
X195582618Y-162830821D01*
X195647315Y-162790884D01*
X195723587Y-162771466D01*
X195806996Y-162774258D01*
G37*
G36*
X198537187Y-162795506D02*
G01*
X198577834Y-162811547D01*
X198613828Y-162842454D01*
X198649668Y-162891642D01*
X198673348Y-162932029D01*
X198695489Y-162976165D01*
X198707924Y-163015517D01*
X198713176Y-163060777D01*
X198713925Y-163103816D01*
X198709638Y-163192155D01*
X198695556Y-163267175D01*
X198668844Y-163334980D01*
X198626665Y-163401673D01*
X198566185Y-163473358D01*
X198520041Y-163521196D01*
X198464321Y-163578114D01*
X198424304Y-163622647D01*
X198396262Y-163660402D01*
X198376469Y-163696986D01*
X198361196Y-163738006D01*
X198349899Y-163777149D01*
X198338080Y-163822880D01*
X198333877Y-163854962D01*
X198340946Y-163875812D01*
X198362944Y-163887849D01*
X198403528Y-163893494D01*
X198466353Y-163895165D01*
X198528433Y-163895265D01*
X198607336Y-163895526D01*
X198662093Y-163897605D01*
X198697130Y-163903451D01*
X198716874Y-163915009D01*
X198725750Y-163934227D01*
X198728183Y-163963052D01*
X198728376Y-163983223D01*
X198728065Y-164008591D01*
X198724206Y-164027121D01*
X198712926Y-164039886D01*
X198690355Y-164047960D01*
X198652621Y-164052417D01*
X198595852Y-164054331D01*
X198516178Y-164054776D01*
X198470402Y-164054782D01*
X198381816Y-164054597D01*
X198317546Y-164053779D01*
X198273337Y-164051933D01*
X198244937Y-164048663D01*
X198228091Y-164043576D01*
X198218546Y-164036275D01*
X198214788Y-164031048D01*
X198204490Y-163997298D01*
X198201626Y-163945677D01*
X198205355Y-163881800D01*
X198214838Y-163811288D01*
X198229234Y-163739756D01*
X198247704Y-163672822D01*
X198269409Y-163616105D01*
X198279878Y-163595639D01*
X198305216Y-163559067D01*
X198344177Y-163511941D01*
X198390612Y-163461425D01*
X198421673Y-163430375D01*
X198486000Y-163365748D01*
X198531623Y-163312120D01*
X198561428Y-163264418D01*
X198578305Y-163217570D01*
X198585142Y-163166504D01*
X198585714Y-163142280D01*
X198578143Y-163066744D01*
X198555581Y-163011466D01*
X198518255Y-162976764D01*
X198466393Y-162962955D01*
X198457166Y-162962705D01*
X198428102Y-162967679D01*
X198384295Y-162980549D01*
X198347067Y-162994008D01*
X198299460Y-163010258D01*
X198258215Y-163020110D01*
X198237268Y-163021616D01*
X198219785Y-163016503D01*
X198210723Y-163002552D01*
X198207441Y-162973543D01*
X198207142Y-162950602D01*
X198207142Y-162883282D01*
X198311706Y-162837100D01*
X198377802Y-162810461D01*
X198430640Y-162795938D01*
X198479879Y-162790991D01*
X198487388Y-162790918D01*
X198537187Y-162795506D01*
G37*
G36*
X194203900Y-162775619D02*
G01*
X194218097Y-162791127D01*
X194223666Y-162798264D01*
X194233085Y-162814066D01*
X194238072Y-162833436D01*
X194238037Y-162859304D01*
X194232392Y-162894600D01*
X194220546Y-162942255D01*
X194201910Y-163005198D01*
X194175894Y-163086361D01*
X194149935Y-163164689D01*
X194108250Y-163291102D01*
X194075386Y-163394452D01*
X194051269Y-163475001D01*
X194035820Y-163533006D01*
X194028964Y-163568726D01*
X194028571Y-163575208D01*
X194031403Y-163589455D01*
X194044292Y-163597151D01*
X194073824Y-163600264D01*
X194114285Y-163600773D01*
X194200000Y-163600773D01*
X194200000Y-163486657D01*
X194201613Y-163424273D01*
X194207589Y-163382526D01*
X194219626Y-163357620D01*
X194239425Y-163345757D01*
X194264285Y-163343092D01*
X194292817Y-163346954D01*
X194311709Y-163361087D01*
X194322751Y-163389312D01*
X194327732Y-163435451D01*
X194328571Y-163480357D01*
X194328571Y-163588173D01*
X194378662Y-163606150D01*
X194425444Y-163633404D01*
X194448706Y-163669975D01*
X194448284Y-163711047D01*
X194424017Y-163751804D01*
X194384612Y-163782549D01*
X194361997Y-163796418D01*
X194347401Y-163810039D01*
X194338646Y-163829087D01*
X194333552Y-163859236D01*
X194329940Y-163906160D01*
X194328571Y-163928434D01*
X194324643Y-163983479D01*
X194319971Y-164018913D01*
X194313099Y-164039657D01*
X194302570Y-164050636D01*
X194290935Y-164055569D01*
X194250583Y-164055976D01*
X194230221Y-164047032D01*
X194215180Y-164035227D01*
X194206111Y-164018212D01*
X194201558Y-163990175D01*
X194200067Y-163945305D01*
X194200000Y-163926250D01*
X194199002Y-163876396D01*
X194196353Y-163834593D01*
X194192562Y-163808044D01*
X194191328Y-163804240D01*
X194181960Y-163794829D01*
X194160558Y-163788937D01*
X194121883Y-163785847D01*
X194060696Y-163784845D01*
X194049281Y-163784831D01*
X193985869Y-163784327D01*
X193944654Y-163782073D01*
X193919273Y-163776952D01*
X193903362Y-163767851D01*
X193893667Y-163757559D01*
X193881578Y-163738772D01*
X193874123Y-163715829D01*
X193871769Y-163686437D01*
X193874981Y-163648299D01*
X193884226Y-163599120D01*
X193899970Y-163536605D01*
X193922680Y-163458458D01*
X193952820Y-163362384D01*
X193990858Y-163246088D01*
X194008020Y-163194496D01*
X194047429Y-163077018D01*
X194080173Y-162981415D01*
X194107218Y-162905912D01*
X194129531Y-162848734D01*
X194148076Y-162808108D01*
X194163819Y-162782258D01*
X194177727Y-162769409D01*
X194190766Y-162767788D01*
X194203900Y-162775619D01*
G37*
G36*
X199917895Y-162766472D02*
G01*
X199988506Y-162767815D01*
X200038022Y-162771990D01*
X200070182Y-162780581D01*
X200088724Y-162795174D01*
X200097384Y-162817353D01*
X200099900Y-162848703D01*
X200100000Y-162884056D01*
X200098575Y-162916178D01*
X200092767Y-162945587D01*
X200080275Y-162977879D01*
X200058797Y-163018652D01*
X200026031Y-163073503D01*
X200014285Y-163092527D01*
X199981748Y-163146519D01*
X199954886Y-163193970D01*
X199936311Y-163230053D01*
X199928638Y-163249940D01*
X199928571Y-163250844D01*
X199938551Y-163269376D01*
X199964421Y-163296877D01*
X199992480Y-163320860D01*
X200047091Y-163370335D01*
X200084784Y-163422750D01*
X200108614Y-163484387D01*
X200121639Y-163561526D01*
X200124077Y-163591308D01*
X200122396Y-163707176D01*
X200101842Y-163810512D01*
X200063284Y-163899228D01*
X200007594Y-163971237D01*
X199945788Y-164018726D01*
X199894576Y-164038278D01*
X199827011Y-164050135D01*
X199754131Y-164053590D01*
X199686972Y-164047936D01*
X199648261Y-164037790D01*
X199594701Y-164005551D01*
X199563756Y-163960893D01*
X199557142Y-163924215D01*
X199561196Y-163881275D01*
X199575865Y-163855928D01*
X199604917Y-163846699D01*
X199652114Y-163852113D01*
X199705644Y-163866049D01*
X199788448Y-163880648D01*
X199859515Y-163873378D01*
X199917703Y-163845162D01*
X199961872Y-163796921D01*
X199990881Y-163729578D01*
X200003591Y-163644053D01*
X200004077Y-163624810D01*
X200000948Y-163555592D01*
X199988022Y-163505465D01*
X199961623Y-163469553D01*
X199918074Y-163442975D01*
X199853699Y-163420854D01*
X199849498Y-163419674D01*
X199783572Y-163398428D01*
X199741853Y-163376953D01*
X199720158Y-163352270D01*
X199714285Y-163323378D01*
X199720813Y-163303209D01*
X199738768Y-163266184D01*
X199765703Y-163216900D01*
X199799173Y-163159956D01*
X199814285Y-163135352D01*
X199849572Y-163077456D01*
X199879397Y-163026275D01*
X199901352Y-162986119D01*
X199913026Y-162961300D01*
X199914285Y-162956392D01*
X199909751Y-162948365D01*
X199893202Y-162943023D01*
X199860215Y-162939875D01*
X199806367Y-162938429D01*
X199750502Y-162938164D01*
X199672887Y-162937424D01*
X199619371Y-162933818D01*
X199585497Y-162925266D01*
X199566806Y-162909689D01*
X199558840Y-162885005D01*
X199557143Y-162849135D01*
X199557142Y-162847945D01*
X199557345Y-162819342D01*
X199560503Y-162798348D01*
X199570436Y-162783788D01*
X199590968Y-162774485D01*
X199625920Y-162769266D01*
X199679114Y-162766956D01*
X199754372Y-162766379D01*
X199822454Y-162766377D01*
X199917895Y-162766472D01*
G37*
G36*
X207470759Y-162777033D02*
G01*
X207472506Y-162777475D01*
X207535844Y-162805970D01*
X207587114Y-162853547D01*
X207625107Y-162916586D01*
X207648613Y-162991468D01*
X207656423Y-163074575D01*
X207647325Y-163162288D01*
X207625928Y-163236366D01*
X207609640Y-163282329D01*
X207602770Y-163313183D01*
X207604510Y-163336730D01*
X207613221Y-163359071D01*
X207663616Y-163484217D01*
X207692500Y-163604463D01*
X207699841Y-163717362D01*
X207685604Y-163820469D01*
X207649755Y-163911337D01*
X207621532Y-163954283D01*
X207568681Y-164004259D01*
X207503190Y-164037917D01*
X207431471Y-164053714D01*
X207359935Y-164050107D01*
X207304143Y-164030674D01*
X207243705Y-163985442D01*
X207195490Y-163922088D01*
X207160290Y-163844983D01*
X207138898Y-163758496D01*
X207132157Y-163667682D01*
X207255357Y-163667682D01*
X207263561Y-163739311D01*
X207286256Y-163798755D01*
X207320569Y-163843832D01*
X207363625Y-163872358D01*
X207412550Y-163882151D01*
X207464469Y-163871027D01*
X207497950Y-163851917D01*
X207538113Y-163810280D01*
X207563717Y-163757314D01*
X207575668Y-163697415D01*
X207574869Y-163634981D01*
X207562225Y-163574407D01*
X207538642Y-163520090D01*
X207505024Y-163476428D01*
X207462276Y-163447816D01*
X207412892Y-163438602D01*
X207360409Y-163451420D01*
X207316209Y-163484992D01*
X207282509Y-163536091D01*
X207261532Y-163601488D01*
X207255357Y-163667682D01*
X207132157Y-163667682D01*
X207132106Y-163666998D01*
X207140707Y-163574858D01*
X207165494Y-163486447D01*
X207194527Y-163426326D01*
X207217188Y-163382465D01*
X207226364Y-163345221D01*
X207222320Y-163305689D01*
X207205320Y-163254964D01*
X207200000Y-163241741D01*
X207176611Y-163160937D01*
X207170700Y-163080423D01*
X207172740Y-163064357D01*
X207294460Y-163064357D01*
X207297809Y-163108520D01*
X207306781Y-163155434D01*
X207326993Y-163197043D01*
X207362516Y-163226593D01*
X207406225Y-163241458D01*
X207450994Y-163239018D01*
X207484960Y-163221033D01*
X207518113Y-163176978D01*
X207535535Y-163120483D01*
X207536459Y-163060012D01*
X207520120Y-163004030D01*
X207506585Y-162982102D01*
X207487245Y-162961911D01*
X207462714Y-162951561D01*
X207423395Y-162947956D01*
X207400000Y-162947708D01*
X207364846Y-162949351D01*
X207343559Y-162958375D01*
X207325569Y-162980923D01*
X207316130Y-162996449D01*
X207300413Y-163029606D01*
X207294460Y-163064357D01*
X207172740Y-163064357D01*
X207180506Y-163003201D01*
X207204268Y-162932272D01*
X207240223Y-162870635D01*
X207286611Y-162821292D01*
X207341671Y-162787243D01*
X207403640Y-162771490D01*
X207470759Y-162777033D01*
G37*
G36*
X210196717Y-162782383D02*
G01*
X210263143Y-162818481D01*
X210280561Y-162832440D01*
X210309924Y-162859418D01*
X210333585Y-162886733D01*
X210352219Y-162917386D01*
X210366504Y-162954381D01*
X210377117Y-163000721D01*
X210384732Y-163059410D01*
X210390028Y-163133449D01*
X210393680Y-163225843D01*
X210396366Y-163339593D01*
X210396511Y-163347152D01*
X210397565Y-163505179D01*
X210394084Y-163640279D01*
X210385790Y-163753789D01*
X210372406Y-163847049D01*
X210353654Y-163921398D01*
X210329257Y-163978175D01*
X210298938Y-164018719D01*
X210262418Y-164044368D01*
X210251048Y-164049062D01*
X210197616Y-164060790D01*
X210129557Y-164065771D01*
X210058980Y-164064003D01*
X209997994Y-164055488D01*
X209975817Y-164049054D01*
X209931375Y-164020032D01*
X209893335Y-163968276D01*
X209861333Y-163893229D01*
X209849922Y-163855773D01*
X209838602Y-163799417D01*
X209829833Y-163724185D01*
X209823579Y-163634500D01*
X209819807Y-163534786D01*
X209818480Y-163429467D01*
X209819053Y-163373204D01*
X209943137Y-163373204D01*
X209943140Y-163390781D01*
X209944559Y-163520519D01*
X209948627Y-163627353D01*
X209955513Y-163712826D01*
X209965386Y-163778483D01*
X209978414Y-163825868D01*
X209993965Y-163855494D01*
X210007856Y-163870336D01*
X210026063Y-163878507D01*
X210056137Y-163881519D01*
X210105632Y-163880885D01*
X210118586Y-163880452D01*
X210221428Y-163876860D01*
X210249530Y-163809372D01*
X210257907Y-163787280D01*
X210264458Y-163763819D01*
X210269410Y-163735734D01*
X210272987Y-163699773D01*
X210275417Y-163652681D01*
X210276925Y-163591206D01*
X210277738Y-163512095D01*
X210278081Y-163412093D01*
X210278102Y-163398309D01*
X210277932Y-163284868D01*
X210276767Y-163193331D01*
X210274134Y-163121068D01*
X210269563Y-163065447D01*
X210262581Y-163023835D01*
X210252718Y-162993601D01*
X210239501Y-162972113D01*
X210222459Y-162956739D01*
X210201122Y-162944847D01*
X210196485Y-162942738D01*
X210139362Y-162929153D01*
X210077721Y-162932811D01*
X210023143Y-162952372D01*
X210005266Y-162964874D01*
X209986503Y-162985878D01*
X209971691Y-163014834D01*
X209960437Y-163054436D01*
X209952348Y-163107380D01*
X209947030Y-163176360D01*
X209944090Y-163264070D01*
X209943137Y-163373204D01*
X209819053Y-163373204D01*
X209819565Y-163322967D01*
X209823025Y-163219708D01*
X209828826Y-163124116D01*
X209836934Y-163040613D01*
X209847313Y-162973624D01*
X209857202Y-162934970D01*
X209887793Y-162881269D01*
X209937524Y-162831928D01*
X209997685Y-162794338D01*
X210040894Y-162779077D01*
X210123774Y-162769503D01*
X210196717Y-162782383D01*
G37*
D12*
%TO.C,J5*%
X156000000Y-55000000D02*
X154900000Y-55000000D01*
X154500000Y-55000000D02*
X153400000Y-55000000D01*
X153000000Y-55000000D02*
X151900000Y-55000000D01*
X151500000Y-55000000D02*
X150400000Y-55000000D01*
X150000000Y-55000000D02*
X148900000Y-55000000D01*
X148500000Y-55000000D02*
X147400000Y-55000000D01*
X147000000Y-55000000D02*
X145900000Y-55000000D01*
X145500000Y-55000000D02*
X144400000Y-55000000D01*
X144000000Y-55000000D02*
X144000000Y-55000000D01*
%TO.C,J6*%
X195000000Y-54035000D02*
X205000000Y-54035000D01*
%TD*%
M02*
