M48
; DRILL file {KiCad 9.0.0} date 2025-04-08T22:51:07-0400
; FORMAT={-:-/ absolute / inch / decimal}
; #@! TF.CreationDate,2025-04-08T22:51:07-04:00
; #@! TF.GenerationSoftware,Kicad,Pcbnew,9.0.0
; #@! TF.FileFunction,Plated,1,4,PTH
FMAT,2
INCH
; #@! TA.AperFunction,Plated,PTH,ViaDrill
T1C0.0098
; #@! TA.AperFunction,Plated,PTH,ViaDrill
T2C0.0197
; #@! TA.AperFunction,Plated,PTH,ComponentDrill
T3C0.0236
; #@! TA.AperFunction,Plated,PTH,ComponentDrill
T4C0.0362
; #@! TA.AperFunction,Plated,PTH,ComponentDrill
T5C0.0390
; #@! TA.AperFunction,Plated,PTH,ComponentDrill
T6C0.0394
; #@! TA.AperFunction,Plated,PTH,ComponentDrill
T7C0.0429
; #@! TA.AperFunction,Plated,PTH,ComponentDrill
T8C0.0512
; #@! TA.AperFunction,Plated,PTH,ComponentDrill
T9C0.0591
; #@! TA.AperFunction,Plated,PTH,ComponentDrill
T10C0.0709
; #@! TA.AperFunction,Plated,PTH,ComponentDrill
T11C0.0787
; #@! TA.AperFunction,Plated,PTH,ComponentDrill
T12C0.1260
%
G90
G05
T1
X5.1181Y-5.5039
X5.126Y-4.1949
X5.1575Y-4.627
X5.1575Y-4.6781
X5.1575Y-4.9104
X5.1575Y-4.9616
X5.1575Y-5.1939
X5.1575Y-5.2451
X5.1575Y-5.4774
X5.1575Y-5.5285
X5.187Y-4.2677
X5.1969Y-4.627
X5.1969Y-4.7037
X5.1969Y-4.9104
X5.1969Y-4.9872
X5.1969Y-5.1939
X5.1969Y-5.2707
X5.1969Y-5.4774
X5.1969Y-5.5541
X5.2087Y-4.0472
X5.2185Y-5.439
X5.2205Y-4.8701
X5.2205Y-5.1516
X5.2362Y-4.627
X5.2362Y-4.7244
X5.2362Y-4.9104
X5.2362Y-5.0079
X5.2362Y-5.1939
X5.2362Y-5.2913
X5.2382Y-4.5177
X5.2441Y-5.4774
X5.25Y-4.3701
X5.252Y-4.1358
X5.2677Y-4.5866
X5.2736Y-4.7441
X5.3051Y-4.2264
X5.311Y-4.8504
X5.311Y-5.1339
X5.311Y-5.4173
X5.311Y-5.7008
X5.3295Y-4.3893
X5.3524Y-3.9705
X5.3642Y-4.0886
X5.3898Y-4.9409
X5.3898Y-5.2362
X5.3898Y-5.5276
X5.3917Y-4.5295
X5.4016Y-4.6299
X5.4016Y-4.7283
X5.4035Y-3.7362
X5.4154Y-4.2028
X5.437Y-3.685
X5.4449Y-4.8307
X5.4469Y-5.1142
X5.4508Y-5.3957
X5.4587Y-3.8268
X5.4665Y-5.7362
X5.4843Y-3.6417
X5.4862Y-4.2795
X5.4961Y-3.7579
X5.5079Y-3.6752
X5.5079Y-4.7037
X5.5079Y-4.9872
X5.5079Y-5.2707
X5.5079Y-5.5541
X5.5118Y-3.9567
X5.5118Y-4.6457
X5.5118Y-4.9291
X5.5118Y-5.2126
X5.5118Y-5.4961
X5.5433Y-4.4843
X5.5689Y-4.0768
X5.5709Y-3.5433
X5.5786Y-3.4911
X5.6102Y-4.8061
X5.6102Y-5.0896
X5.6102Y-5.373
X5.6102Y-5.6565
X5.6112Y-4.6526
X5.6112Y-4.936
X5.6112Y-5.2195
X5.6112Y-5.503
X5.6201Y-4.8425
X5.6299Y-4.626
X5.6299Y-4.7362
X5.6299Y-4.9094
X5.6299Y-5.0197
X5.6299Y-5.1929
X5.6299Y-5.3031
X5.6299Y-5.4764
X5.6299Y-5.5866
X5.6339Y-5.1201
X5.6378Y-5.4055
X5.6476Y-4.1339
X5.6693Y-4.6713
X5.6693Y-4.7461
X5.6693Y-4.9547
X5.6693Y-5.0295
X5.6693Y-5.2382
X5.6693Y-5.313
X5.6693Y-5.5217
X5.6693Y-5.5965
X5.6713Y-4.0217
X5.6713Y-5.7736
X5.6969Y-4.7126
X5.6969Y-4.9961
X5.6969Y-5.2795
X5.6969Y-5.563
X5.7087Y-3.5433
X5.7126Y-3.5866
X5.7382Y-4.6457
X5.7382Y-4.9291
X5.7382Y-5.2126
X5.7382Y-5.4961
X5.7387Y-4.7717
X5.7387Y-5.0551
X5.7387Y-5.3386
X5.7387Y-5.622
X5.7402Y-3.5039
X5.7461Y-5.0197
X5.748Y-4.7343
X5.748Y-5.3012
X5.7481Y-5.586
X5.752Y-3.5669
X5.752Y-3.8327
X5.752Y-3.9016
X5.7717Y-3.4764
X5.7972Y-4.4252
X5.8071Y-4.6079
X5.8071Y-4.6457
X5.8071Y-4.7339
X5.8071Y-4.7717
X5.8071Y-4.8913
X5.8071Y-4.9291
X5.8071Y-5.0173
X5.8071Y-5.0551
X5.8071Y-5.1748
X5.8071Y-5.2126
X5.8071Y-5.3008
X5.8071Y-5.3386
X5.8071Y-5.4583
X5.8071Y-5.4961
X5.8071Y-5.5843
X5.8071Y-5.622
X5.8465Y-4.8012
X5.8465Y-5.0846
X5.8465Y-5.3681
X5.8465Y-5.6516
X5.8701Y-3.4961
X5.8701Y-4.5984
X5.8701Y-4.8819
X5.8701Y-5.1654
X5.8701Y-5.4488
X5.8819Y-3.6575
X5.8878Y-4.7205
X5.8878Y-5.0039
X5.8878Y-5.2874
X5.8878Y-5.5709
X5.8898Y-3.5236
X5.8898Y-4.0157
X5.8898Y-5.7638
X5.9055Y-3.9291
X5.9252Y-4.6063
X5.9252Y-4.6457
X5.9252Y-4.6811
X5.9252Y-4.7835
X5.9252Y-4.8898
X5.9252Y-4.9291
X5.9252Y-4.9646
X5.9252Y-5.0669
X5.9252Y-5.1732
X5.9252Y-5.2126
X5.9252Y-5.248
X5.9252Y-5.3504
X5.9252Y-5.4567
X5.9252Y-5.4961
X5.9252Y-5.5315
X5.9252Y-5.626
X5.9311Y-3.5807
X5.9331Y-4.7461
X5.9331Y-5.0295
X5.9331Y-5.5965
X5.9341Y-5.3131
X5.9488Y-4.5157
X5.9665Y-5.4134
X5.9862Y-4.0098
X5.9941Y-3.3661
X5.9946Y-4.7331
X5.9946Y-4.7717
X5.9946Y-5.0165
X5.9946Y-5.0551
X5.9946Y-5.3
X5.9946Y-5.3386
X5.9946Y-5.5835
X5.9946Y-5.622
X5.9961Y-4.6079
X5.9961Y-4.6457
X5.9961Y-4.8913
X5.9961Y-4.9291
X5.9961Y-5.1748
X5.9961Y-5.2126
X5.9961Y-5.4583
X5.9961Y-5.4961
X6.0059Y-4.0866
X6.0261Y-4.8268
X6.0261Y-5.1102
X6.0261Y-5.3937
X6.0261Y-5.6772
X6.0335Y-3.1654
X6.0374Y-3.3661
X6.0551Y-4.7008
X6.0551Y-4.8071
X6.0551Y-4.9843
X6.0551Y-5.0906
X6.0551Y-5.2677
X6.0551Y-5.374
X6.0551Y-5.5512
X6.0551Y-5.6575
X6.0807Y-3.5787
X6.1043Y-3.1063
X6.1063Y-5.7717
X6.1122Y-3.1496
X6.128Y-3.6949
X6.1417Y-4.8543
X6.1417Y-5.1378
X6.1417Y-5.4252
X6.149Y-3.7189
X6.1575Y-3.3346
X6.1811Y-4.0492
X6.2283Y-4.622
X6.2283Y-4.685
X6.2283Y-4.748
X6.2283Y-4.811
X6.2283Y-4.9055
X6.2283Y-4.9685
X6.2283Y-5.0315
X6.2283Y-5.0945
X6.2283Y-5.189
X6.2283Y-5.252
X6.2283Y-5.315
X6.2283Y-5.378
X6.2283Y-5.4724
X6.2283Y-5.5354
X6.2283Y-5.5984
X6.2283Y-5.6614
X6.2297Y-4.521
X6.2461Y-3.8169
X6.2539Y-4.1791
X6.2815Y-3.8445
X6.2933Y-3.7835
X6.2972Y-4.8583
X6.3051Y-3.4449
X6.3051Y-5.1417
X6.311Y-5.4272
X6.313Y-3.7441
X6.315Y-3.8642
X6.3189Y-4.6378
X6.3189Y-4.7008
X6.3189Y-4.7638
X6.3189Y-4.8268
X6.3189Y-4.9213
X6.3189Y-4.9843
X6.3189Y-5.0472
X6.3189Y-5.1102
X6.3189Y-5.2047
X6.3189Y-5.2677
X6.3189Y-5.3307
X6.3189Y-5.3937
X6.3189Y-5.4882
X6.3189Y-5.5512
X6.3189Y-5.6142
X6.3189Y-5.6772
X6.3268Y-5.7736
X6.3327Y-3.5276
X6.3425Y-3.8858
X6.3917Y-3.7992
X6.3996Y-3.6693
X6.4016Y-5.8091
X6.4114Y-3.9941
X6.4173Y-3.7126
X6.4173Y-3.7756
X6.4547Y-3.8661
X6.4547Y-4.0965
X6.4681Y-3.5535
X6.4764Y-4.6358
X6.4803Y-5.1457
X6.4843Y-3.8462
X6.4843Y-5.6004
X6.4902Y-3.4449
X6.4941Y-3.6575
X6.502Y-4.0286
X6.5177Y-3.8583
X6.5256Y-3.4449
X6.5295Y-3.6575
X6.5374Y-4.0276
X6.561Y-3.8346
X6.5768Y-3.7323
X6.5768Y-3.7677
X6.577Y-3.8659
X6.5799Y-3.6972
X6.5846Y-3.5748
X6.5886Y-3.6575
X6.5925Y-3.7992
X6.624Y-3.6205
X6.6476Y-3.4567
X6.6594Y-3.9055
X6.6703Y-4.6073
X6.6703Y-4.6703
X6.6703Y-4.7333
X6.6703Y-4.7963
X6.6703Y-4.8907
X6.6703Y-4.9537
X6.6703Y-5.0167
X6.6703Y-5.0797
X6.6703Y-5.1742
X6.6703Y-5.2372
X6.6703Y-5.3002
X6.6703Y-5.3632
X6.6703Y-5.4577
X6.6703Y-5.5207
X6.6703Y-5.5837
X6.6703Y-5.6467
X6.6713Y-4.0551
X6.6752Y-3.9882
X6.6791Y-5.4232
X6.6811Y-4.8563
X6.6811Y-3.816
X6.6831Y-5.1457
X6.6949Y-3.4606
X6.7421Y-3.622
X6.7421Y-3.6575
X6.7441Y-3.4587
X6.7461Y-4.5236
X6.7648Y-4.627
X6.7648Y-4.69
X6.7648Y-4.753
X6.7648Y-4.8159
X6.7648Y-4.9104
X6.7648Y-4.9734
X6.7648Y-5.0364
X6.7648Y-5.0994
X6.7648Y-5.1939
X6.7648Y-5.2569
X6.7648Y-5.3199
X6.7648Y-5.3829
X6.7648Y-5.4774
X6.7648Y-5.5404
X6.7648Y-5.6033
X6.7648Y-5.6663
X6.7705Y-3.6461
X6.7854Y-5.8169
X6.7894Y-3.7972
X6.7913Y-3.878
X6.7984Y-3.697
X6.8051Y-3.7717
X6.8268Y-3.7244
X6.8327Y-3.7559
X6.8504Y-5.1417
X6.8543Y-5.4252
X6.8661Y-3.7165
X6.872Y-3.75
X6.8996Y-3.6969
X6.9016Y-3.4705
X6.9173Y-3.7441
X6.9291Y-4.8622
X6.9331Y-5.4291
X6.9384Y-4.7291
X6.9384Y-5.0125
X6.9384Y-5.296
X6.9384Y-5.5795
X6.9409Y-5.1457
X6.9443Y-4.6293
X6.9443Y-4.9128
X6.9443Y-5.1962
X6.9443Y-5.4797
X6.9656Y-4.6073
X6.9656Y-4.8907
X6.9656Y-5.1742
X6.9656Y-5.4577
X6.997Y-4.6624
X6.997Y-4.7018
X6.997Y-4.7805
X6.997Y-4.9459
X6.997Y-4.9852
X6.997Y-5.064
X6.997Y-5.2293
X6.997Y-5.2687
X6.997Y-5.3474
X6.997Y-5.5128
X6.997Y-5.5522
X6.997Y-5.6309
X7.001Y-4.8199
X7.001Y-5.1033
X7.001Y-5.3868
X7.001Y-5.6703
X7.0039Y-4.0276
X7.0522Y-4.7333
X7.0522Y-5.0167
X7.0522Y-5.3002
X7.0522Y-5.5837
X7.0679Y-4.6545
X7.0679Y-4.686
X7.0679Y-4.938
X7.0679Y-4.9695
X7.0679Y-5.2215
X7.0679Y-5.253
X7.0679Y-5.5049
X7.0679Y-5.5364
X7.0699Y-4.8219
X7.0699Y-5.1053
X7.0699Y-5.3888
X7.0699Y-5.6722
X7.0719Y-4.7923
X7.0719Y-5.0758
X7.0719Y-5.3593
X7.0719Y-5.6427
X7.0976Y-5.8258
X7.1004Y-3.378
X7.1073Y-4.7116
X7.1073Y-4.9951
X7.1073Y-5.2785
X7.1073Y-5.562
X7.1181Y-4.5098
X7.127Y-4.8287
X7.127Y-5.1122
X7.127Y-5.3957
X7.127Y-5.6791
X7.1318Y-4.7902
X7.1319Y-3.4787
X7.1324Y-5.0733
X7.1334Y-5.3577
X7.1334Y-5.6412
X7.1604Y-4.7411
X7.1604Y-5.0246
X7.1604Y-5.3081
X7.1604Y-5.5915
X7.1821Y-4.6191
X7.1821Y-4.6506
X7.1821Y-4.69
X7.1821Y-4.7687
X7.1821Y-4.8159
X7.1821Y-4.9026
X7.1821Y-4.9341
X7.1821Y-4.9734
X7.1821Y-5.0522
X7.1821Y-5.0994
X7.1821Y-5.186
X7.1821Y-5.2175
X7.1821Y-5.2569
X7.1821Y-5.3356
X7.1821Y-5.3829
X7.1821Y-5.4695
X7.1821Y-5.501
X7.1821Y-5.5404
X7.1821Y-5.6191
X7.1821Y-5.6663
X7.2087Y-3.9882
X7.2205Y-3.9331
X7.2461Y-3.189
X7.249Y-4.6781
X7.249Y-4.7687
X7.249Y-4.9616
X7.249Y-5.0522
X7.249Y-5.2451
X7.249Y-5.3356
X7.249Y-5.5285
X7.249Y-5.6191
X7.253Y-4.623
X7.253Y-4.9065
X7.253Y-5.19
X7.253Y-5.4734
X7.2697Y-3.5335
X7.2953Y-3.3583
X7.3189Y-4.0669
X7.3278Y-4.6506
X7.3278Y-4.7411
X7.3278Y-4.9341
X7.3278Y-5.0246
X7.3278Y-5.2175
X7.3278Y-5.3081
X7.3278Y-5.501
X7.3278Y-5.5915
X7.3396Y-4.6191
X7.3396Y-4.9026
X7.3396Y-5.186
X7.3396Y-5.4695
X7.3504Y-4.7638
X7.3504Y-5.0472
X7.3504Y-5.3307
X7.3504Y-5.6142
X7.3632Y-4.6821
X7.3632Y-4.9656
X7.3632Y-5.249
X7.3632Y-5.5325
X7.3657Y-4.7161
X7.3657Y-4.9996
X7.3657Y-5.283
X7.3657Y-5.5665
X7.3711Y-4.6427
X7.3711Y-4.9262
X7.3711Y-5.2096
X7.3711Y-5.4931
X7.3839Y-4.4272
X7.3898Y-5.3957
X7.4035Y-3.3957
X7.4803Y-3.1909
X7.4803Y-4.7835
X7.4803Y-5.0669
X7.4803Y-5.3504
X7.4803Y-5.6339
X7.4813Y-4.7411
X7.4813Y-5.0246
X7.4813Y-5.3081
X7.4813Y-5.5915
X7.5157Y-3.2874
X7.5404Y-5.7507
X7.5492Y-5.443
X7.5512Y-4.5118
X7.565Y-5.0551
X7.5669Y-3.0591
X7.5709Y-3.2362
X7.5768Y-5.1535
X7.5984Y-4.685
X7.5984Y-4.7244
X7.5984Y-4.9685
X7.5984Y-5.0079
X7.5984Y-5.252
X7.5984Y-5.2913
X7.5984Y-5.5354
X7.5984Y-5.5748
X7.6102Y-3.2362
X7.6811Y-4.5669
X7.6811Y-4.8504
X7.6811Y-5.1339
X7.6811Y-5.4173
X7.7165Y-4.6693
X7.7539Y-5.565
X7.7559Y-4.7175
X7.7559Y-4.7953
X7.7559Y-5.001
X7.7559Y-5.0787
X7.7559Y-5.2844
X7.7559Y-5.3622
X7.7795Y-3.4823
X7.7795Y-3.8957
X7.7795Y-3.9724
X7.7933Y-3.5728
X7.7953Y-4.7431
X7.7953Y-4.7953
X7.7953Y-5.0266
X7.7953Y-5.0787
X7.7953Y-5.31
X7.7953Y-5.3622
X7.7953Y-5.5866
X7.7992Y-5.939
X7.8189Y-5.2087
X7.8189Y-5.4882
X7.8228Y-4.9134
X7.8346Y-5.6447
X7.8465Y-4.5433
X7.8622Y-2.7362
X7.8661Y-3.626
X7.8681Y-2.4705
X7.8681Y-2.5591
X7.878Y-5.6575
X7.9134Y-4.6781
X7.9134Y-4.9104
X7.9134Y-4.9616
X7.9134Y-5.1939
X7.9134Y-5.2451
X7.9134Y-5.4774
X7.9134Y-5.5285
X7.9528Y-4.7037
X7.9528Y-4.9104
X7.9528Y-4.9872
X7.9528Y-5.1939
X7.9528Y-5.2707
X7.9528Y-5.4774
X7.9528Y-5.5541
X7.9606Y-5.9587
X7.9764Y-4.876
X7.9783Y-5.1555
X7.9803Y-5.437
X7.9882Y-2.9213
X7.9921Y-4.627
X7.9921Y-4.7244
X7.9921Y-4.9104
X7.9921Y-5.0079
X7.9921Y-5.1939
X7.9921Y-5.2913
X7.9921Y-5.4774
X8.0276Y-5.3583
X8.0295Y-4.815
X8.0295Y-5.628
X8.0315Y-4.7598
X8.0315Y-5.0669
X8.0472Y-2.9606
X8.0669Y-4.8504
X8.0669Y-5.1339
X8.0669Y-5.4173
X8.0669Y-5.7008
X8.0945Y-3.2382
X8.0984Y-2.9606
X8.0998Y-2.9089
X8.1122Y-3.5453
X8.1457Y-3.1654
X8.1457Y-4.9528
X8.1457Y-5.2362
X8.1457Y-5.5217
X8.1496Y-3.0433
X8.1516Y-4.5197
X8.1594Y-4.6949
X8.1614Y-3.6102
X8.1969Y-5.124
X8.2008Y-2.9685
X8.2008Y-3.0079
X8.2052Y-5.3961
X8.2067Y-4.8228
X8.2165Y-5.7106
X8.2638Y-4.7037
X8.2638Y-4.9872
X8.2638Y-5.2707
X8.2638Y-5.5541
X8.2677Y-4.6457
X8.2677Y-4.9291
X8.2677Y-5.2126
X8.2677Y-5.4961
X8.2717Y-2.7244
X8.3406Y-3.2323
X8.3425Y-5.815
X8.3661Y-4.8061
X8.3661Y-5.0896
X8.3661Y-5.373
X8.3661Y-5.6565
X8.3671Y-4.6526
X8.3671Y-4.936
X8.3671Y-5.2195
X8.3671Y-5.503
X8.3858Y-4.626
X8.3858Y-4.7362
X8.3858Y-4.9094
X8.3858Y-5.0197
X8.3858Y-5.1929
X8.3858Y-5.3031
X8.3858Y-5.4764
X8.3858Y-5.5866
X8.388Y-5.1217
X8.3917Y-5.4035
X8.4252Y-4.6713
X8.4252Y-4.7461
X8.4252Y-4.9547
X8.4252Y-5.0295
X8.4252Y-5.2382
X8.4252Y-5.313
X8.4252Y-5.5217
X8.4252Y-5.5965
X8.4508Y-4.5
X8.4528Y-4.7126
X8.4528Y-4.9961
X8.4528Y-5.2795
X8.4528Y-5.563
X8.4941Y-4.6457
X8.4941Y-4.9291
X8.4941Y-5.2126
X8.4941Y-5.4961
X8.4946Y-4.7717
X8.4946Y-5.0551
X8.4946Y-5.3386
X8.4946Y-5.622
X8.5038Y-4.7362
X8.5039Y-5.2992
X8.5047Y-5.0172
X8.5062Y-5.5817
X8.5433Y-3.6142
X8.563Y-4.6079
X8.563Y-4.6457
X8.563Y-4.7339
X8.563Y-4.7717
X8.563Y-4.8913
X8.563Y-4.9291
X8.563Y-5.0173
X8.563Y-5.0551
X8.563Y-5.1748
X8.563Y-5.2126
X8.563Y-5.3008
X8.563Y-5.3386
X8.563Y-5.4583
X8.563Y-5.4961
X8.563Y-5.5843
X8.563Y-5.622
X8.565Y-4.4252
X8.6004Y-3.5551
X8.6024Y-4.8012
X8.6024Y-5.0846
X8.6024Y-5.3681
X8.6024Y-5.6516
X8.626Y-4.5984
X8.626Y-4.8819
X8.626Y-5.1654
X8.626Y-5.4488
X8.6437Y-4.7205
X8.6437Y-5.0039
X8.6437Y-5.2874
X8.6437Y-5.5709
X8.6555Y-3.2382
X8.6594Y-3.1693
X8.6693Y-5.7933
X8.6811Y-4.6063
X8.6811Y-4.6457
X8.6811Y-4.6811
X8.6811Y-4.7795
X8.6811Y-4.8898
X8.6811Y-4.9291
X8.6811Y-4.9646
X8.6811Y-5.063
X8.6811Y-5.1732
X8.6811Y-5.2126
X8.6811Y-5.248
X8.6811Y-5.4567
X8.6811Y-5.4961
X8.6811Y-5.5315
X8.685Y-5.3465
X8.685Y-5.6299
X8.689Y-4.7461
X8.689Y-5.0295
X8.689Y-5.313
X8.69Y-5.5965
X8.7205Y-5.4173
X8.7224Y-5.1319
X8.7505Y-4.7331
X8.7505Y-4.7717
X8.7505Y-5.0165
X8.7505Y-5.0551
X8.7505Y-5.3
X8.7505Y-5.3386
X8.7505Y-5.5835
X8.7505Y-5.622
X8.752Y-4.6079
X8.752Y-4.6457
X8.752Y-4.8913
X8.752Y-4.9291
X8.752Y-5.1748
X8.752Y-5.2126
X8.752Y-5.4583
X8.752Y-5.4961
X8.7579Y-4.5079
X8.782Y-4.8268
X8.782Y-5.1102
X8.782Y-5.3937
X8.782Y-5.6772
X8.811Y-4.7008
X8.811Y-4.8071
X8.811Y-4.9843
X8.811Y-5.0906
X8.811Y-5.2677
X8.811Y-5.374
X8.811Y-5.5512
X8.811Y-5.6575
X8.8189Y-2.6181
X8.8228Y-2.7618
X8.8622Y-2.998
X8.8681Y-2.622
X8.8799Y-2.8228
X8.8976Y-4.8583
X8.8976Y-5.4252
X8.9016Y-5.1417
X8.9213Y-2.8917
X8.9705Y-5.7874
X8.9764Y-2.624
X8.9783Y-4.5079
X8.9823Y-2.7992
X8.9843Y-4.622
X8.9843Y-4.685
X8.9843Y-4.748
X8.9843Y-4.811
X8.9843Y-4.9055
X8.9843Y-4.9685
X8.9843Y-5.0315
X8.9843Y-5.0945
X8.9843Y-5.189
X8.9843Y-5.252
X8.9843Y-5.315
X8.9843Y-5.378
X8.9843Y-5.4724
X8.9843Y-5.5354
X8.9843Y-5.5984
X8.9843Y-5.6614
X9.0177Y-2.8051
X9.0276Y-2.8878
X9.0433Y-2.6949
X9.0492Y-2.9094
X9.063Y-5.1417
X9.065Y-5.4272
X9.0728Y-2.8839
X9.0728Y-3.1673
X9.0748Y-4.6378
X9.0748Y-4.7008
X9.0748Y-4.7638
X9.0748Y-4.8268
X9.0748Y-4.9213
X9.0748Y-4.9843
X9.0748Y-5.0472
X9.0748Y-5.1102
X9.0748Y-5.2047
X9.0748Y-5.2677
X9.0748Y-5.3307
X9.0748Y-5.3937
X9.0748Y-5.4882
X9.0748Y-5.5512
X9.0748Y-5.6142
X9.0748Y-5.6772
X9.0925Y-2.9094
X9.1122Y-2.8839
X9.1378Y-2.8012
X9.1437Y-2.9409
X9.1516Y-3.2224
X9.1831Y-2.7224
X9.185Y-2.6319
X9.189Y-2.6831
X9.1909Y-2.9134
X9.2215Y-2.9016
X9.2461Y-5.6181
X9.2539Y-4.6713
X9.2598Y-3.1575
X9.2638Y-5.0472
X9.2677Y-2.7461
X9.2736Y-2.9961
X9.2815Y-2.7913
X9.2933Y-2.6535
X9.3031Y-2.8228
X9.3071Y-2.8622
X9.3346Y-3.313
X9.4262Y-4.6073
X9.4262Y-4.6703
X9.4262Y-4.7333
X9.4262Y-4.7963
X9.4262Y-4.8907
X9.4262Y-4.9537
X9.4262Y-5.0167
X9.4262Y-5.0797
X9.4262Y-5.1742
X9.4262Y-5.2372
X9.4262Y-5.3002
X9.4262Y-5.3632
X9.4262Y-5.4577
X9.4262Y-5.5207
X9.4262Y-5.5837
X9.4262Y-5.6467
X9.4331Y-5.1398
X9.435Y-4.8583
X9.435Y-5.4252
X9.5079Y-3.4902
X9.5207Y-4.627
X9.5207Y-4.69
X9.5207Y-4.753
X9.5207Y-4.8159
X9.5207Y-4.9104
X9.5207Y-4.9734
X9.5207Y-5.0364
X9.5207Y-5.0994
X9.5207Y-5.1939
X9.5207Y-5.2569
X9.5207Y-5.3199
X9.5207Y-5.3829
X9.5207Y-5.4774
X9.5207Y-5.5404
X9.5207Y-5.6033
X9.5207Y-5.6663
X9.5256Y-4.5197
X9.5638Y-3.4096
X9.5953Y-3.4982
X9.6024Y-3.3327
X9.6563Y-3.5336
X9.6614Y-3.4862
X9.6701Y-3.2659
X9.6772Y-2.9587
X9.6909Y-5.1457
X9.6929Y-5.4291
X9.6944Y-4.7291
X9.6944Y-5.0125
X9.6944Y-5.296
X9.6944Y-5.5795
X9.6949Y-4.8622
X9.7002Y-4.6293
X9.7002Y-4.9128
X9.7002Y-5.1962
X9.7002Y-5.4797
X9.7016Y-3.4155
X9.7215Y-4.6073
X9.7215Y-4.8907
X9.7215Y-5.1742
X9.7215Y-5.4577
X9.753Y-4.6624
X9.753Y-4.7018
X9.753Y-4.7805
X9.753Y-4.9459
X9.753Y-4.9852
X9.753Y-5.064
X9.753Y-5.2293
X9.753Y-5.2687
X9.753Y-5.3474
X9.753Y-5.5128
X9.753Y-5.5522
X9.753Y-5.6309
X9.7569Y-4.8199
X9.7569Y-5.1033
X9.7569Y-5.3868
X9.7569Y-5.6703
X9.7717Y-2.622
X9.7823Y-3.2206
X9.7953Y-4.5217
X9.8081Y-4.7333
X9.8081Y-5.0167
X9.8081Y-5.3002
X9.8081Y-5.5837
X9.8238Y-4.6545
X9.8238Y-4.686
X9.8238Y-4.938
X9.8238Y-4.9695
X9.8238Y-5.2215
X9.8238Y-5.253
X9.8238Y-5.5049
X9.8238Y-5.5364
X9.8258Y-4.8219
X9.8258Y-5.1053
X9.8258Y-5.3888
X9.8258Y-5.6722
X9.8278Y-4.7923
X9.8278Y-5.0758
X9.8278Y-5.3593
X9.8278Y-5.6427
X9.8632Y-4.7116
X9.8632Y-4.9951
X9.8632Y-5.2785
X9.8632Y-5.562
X9.8829Y-4.8287
X9.8829Y-5.1122
X9.8829Y-5.3957
X9.8829Y-5.6791
X9.8875Y-5.6392
X9.8877Y-5.356
X9.8877Y-4.7902
X9.8898Y-5.0748
X9.9134Y-2.9291
X9.9163Y-4.7411
X9.9163Y-5.0246
X9.9163Y-5.3081
X9.9163Y-5.5915
X9.9193Y-4.4252
X9.938Y-4.6191
X9.938Y-4.6506
X9.938Y-4.69
X9.938Y-4.7687
X9.938Y-4.8159
X9.938Y-4.9026
X9.938Y-4.9341
X9.938Y-4.9734
X9.938Y-5.0522
X9.938Y-5.0994
X9.938Y-5.186
X9.938Y-5.2175
X9.938Y-5.2569
X9.938Y-5.3356
X9.938Y-5.3829
X9.938Y-5.4695
X9.938Y-5.501
X9.938Y-5.5404
X9.938Y-5.6191
X9.938Y-5.6663
X10.0049Y-4.6781
X10.0049Y-4.7687
X10.0049Y-4.9616
X10.0049Y-5.0522
X10.0049Y-5.2451
X10.0049Y-5.3356
X10.0049Y-5.5285
X10.0049Y-5.6191
X10.0089Y-4.623
X10.0089Y-4.9065
X10.0089Y-5.19
X10.0089Y-5.4734
X10.0837Y-4.6506
X10.0837Y-4.7411
X10.0837Y-4.9341
X10.0837Y-5.0246
X10.0837Y-5.2175
X10.0837Y-5.3081
X10.0837Y-5.501
X10.0837Y-5.5915
X10.0955Y-4.6191
X10.0955Y-4.9026
X10.0955Y-5.186
X10.0955Y-5.4695
X10.1063Y-4.7638
X10.1063Y-5.0472
X10.1063Y-5.3307
X10.1063Y-5.6142
X10.1191Y-4.6821
X10.1191Y-4.9656
X10.1191Y-5.249
X10.1191Y-5.5325
X10.1216Y-4.7161
X10.1216Y-4.9996
X10.1216Y-5.283
X10.1216Y-5.5665
X10.127Y-4.6427
X10.127Y-4.9262
X10.127Y-5.2096
X10.127Y-5.4931
X10.1457Y-4.8248
X10.2067Y-4.4429
X10.2362Y-4.7835
X10.2362Y-5.0669
X10.2362Y-5.3504
X10.2362Y-5.6339
X10.2372Y-4.7411
X10.2372Y-5.0246
X10.2372Y-5.3081
X10.2372Y-5.5915
X10.311Y-4.5965
X10.3307Y-5.1575
X10.3327Y-4.8091
X10.3346Y-5.4508
X10.3386Y-5.061
X10.3504Y-4.5197
X10.3543Y-4.685
X10.3543Y-4.7244
X10.3543Y-4.9685
X10.3543Y-5.0079
X10.3543Y-5.252
X10.3543Y-5.2913
X10.3543Y-5.5354
X10.3543Y-5.5748
X10.437Y-4.5669
X10.437Y-4.8504
X10.437Y-5.1339
X10.437Y-5.4173
X10.4724Y-4.6654
X10.5118Y-4.7175
X10.5118Y-4.7953
X10.5118Y-5.001
X10.5118Y-5.0787
X10.5118Y-5.2844
X10.5118Y-5.3622
X10.5118Y-5.563
X10.551Y-5.5868
X10.5512Y-4.7431
X10.5512Y-4.7953
X10.5512Y-5.0266
X10.5512Y-5.0787
X10.5512Y-5.31
X10.5512Y-5.3622
X10.5906Y-5.6181
T2
X4.9843Y-4.7303
X4.9862Y-5.4409
X4.9941Y-4.1457
X5.0709Y-3.2795
X5.1299Y-6.0197
X5.2539Y-3.8504
X5.3701Y-2.9508
X5.4528Y-3.5157
X5.4626Y-2.4173
X5.4705Y-3.2736
X5.6299Y-2.874
X5.6299Y-6.6929
X5.6417Y-3.6752
X5.6496Y-3.0768
X5.6732Y-3.4232
X5.6988Y-4.248
X5.7461Y-3.25
X5.8031Y-3.7362
X5.8248Y-3.0846
X5.9469Y-4.2461
X5.9488Y-3.7244
X6.0197Y-2.9882
X6.0807Y-4.3504
X6.1063Y-2.752
X6.2205Y-2.874
X6.3622Y-6.3366
X6.435Y-2.4016
X6.4823Y-3.1654
X6.4843Y-4.2539
X6.622Y-2.9134
X6.8012Y-3.3445
X6.8287Y-4.2402
X6.874Y-2.6673
X6.9685Y-3.2087
X6.9724Y-2.4252
X7.1654Y-6.6811
X7.248Y-2.9331
X7.313Y-4.2303
X7.3622Y-3.878
X7.4094Y-2.3563
X7.502Y-3.5512
X7.5433Y-2.8071
X7.6102Y-3.4646
X7.7008Y-3.3898
X7.7323Y-3.0
X7.7559Y-2.878
X7.7638Y-3.0945
X7.815Y-4.2244
X7.9114Y-2.6516
X7.9252Y-3.9272
X8.0689Y-6.3819
X8.0846Y-3.7146
X8.1161Y-3.4429
X8.1417Y-2.7323
X8.2244Y-2.7283
X8.2264Y-4.2185
X8.3366Y-3.4311
X8.3425Y-2.7047
X8.3504Y-2.3268
X8.378Y-3.0157
X8.4587Y-3.7146
X8.4803Y-3.9921
X8.5315Y-2.878
X8.5315Y-3.0
X8.5866Y-2.5866
X8.6083Y-2.8169
X8.6339Y-2.9685
X8.6772Y-3.4035
X8.8327Y-4.2028
X8.8366Y-3.6988
X8.8622Y-6.6929
X8.9114Y-3.2441
X9.061Y-3.5295
X9.2224Y-3.4193
X9.315Y-4.1988
X9.3321Y-3.198
X9.3878Y-3.0
X9.4311Y-2.8563
X9.4705Y-2.6417
X9.5531Y-3.7992
X9.5965Y-3.2283
X9.6024Y-2.252
X9.7579Y-3.1535
X9.8091Y-6.3287
X9.8209Y-3.3839
X9.8287Y-3.6024
X9.9134Y-2.5197
X9.9508Y-3.7933
X10.0492Y-4.187
X10.1732Y-2.8976
X10.3228Y-6.748
X10.4646Y-2.7795
X10.5531Y-4.2264
X10.5551Y-3.5079
X10.5551Y-3.7362
X10.6378Y-3.0039
X10.6496Y-6.2205
X10.6772Y-2.6063
X10.6929Y-4.6319
X10.7205Y-5.2874
T4
X5.9055Y-2.6535
T5
X6.8701Y-2.2835
X7.0472Y-2.2835
T6
X9.9409Y-3.2067
X9.9409Y-3.3051
X9.9409Y-3.4035
X10.5118Y-3.2067
X10.5118Y-3.4035
T7
X10.0575Y-2.4772
X10.0575Y-2.6772
X10.1575Y-2.6772
X10.2575Y-2.4772
X10.2575Y-2.6772
T8
X6.8209Y-2.3815
X7.0969Y-2.3815
T9
X8.4803Y-2.5315
X8.685Y-2.5315
T10
X5.7559Y-2.3465
X6.0551Y-2.3465
T12
X5.0787Y-2.3228
X5.0787Y-6.7323
X10.6693Y-2.3228
X10.6693Y-6.7323
T3
G00X7.7039Y-2.2455
M15
G01X7.7039Y-2.214
M16
G05
G00X7.7039Y-2.4159
M15
G01X7.7039Y-2.3726
M16
G05
G00X8.0441Y-2.2455
M15
G01X8.0441Y-2.214
M16
G05
G00X8.0441Y-2.4159
M15
G01X8.0441Y-2.3726
M16
G05
T11
G00X10.2146Y-3.0846
M15
G01X10.2579Y-3.0846
M16
G05
G00X10.2146Y-3.5256
M15
G01X10.2579Y-3.5256
M16
G05
M30
