%TF.GenerationSoftware,KiCad,Pcbnew,9.0.0*%
%TF.CreationDate,2025-04-08T22:51:13-04:00*%
%TF.ProjectId,ephys-test-board,65706879-732d-4746-9573-742d626f6172,C*%
%TF.SameCoordinates,Original*%
%TF.FileFunction,OtherDrawing,Comment*%
%FSLAX46Y46*%
G04 Gerber Fmt 4.6, Leading zero omitted, Abs format (unit mm)*
G04 Created by KiCad (PCBNEW 9.0.0) date 2025-04-08 22:51:13*
%MOMM*%
%LPD*%
G01*
G04 APERTURE LIST*
%ADD10C,0.150000*%
%ADD11C,0.300000*%
%ADD12C,0.100000*%
%ADD13C,0.000000*%
G04 APERTURE END LIST*
D10*
X214170000Y-70857500D02*
X249170000Y-70857500D01*
X249170000Y-93857500D01*
X214170000Y-93857500D01*
X214170000Y-70857500D01*
D11*
X140000000Y-96000000D02*
X260000000Y-96000000D01*
X260000000Y-171000000D01*
X140000000Y-171000000D01*
X140000000Y-96000000D01*
D10*
X266500000Y-84000000D02*
G75*
G02*
X253500000Y-84000000I-6500000J0D01*
G01*
X253500000Y-84000000D02*
G75*
G02*
X266500000Y-84000000I6500000J0D01*
G01*
X231670000Y-70857500D02*
X231670000Y-73142500D01*
X165500000Y-131000000D02*
G75*
G02*
X164500000Y-131000000I-500000J0D01*
G01*
X164500000Y-131000000D02*
G75*
G02*
X165500000Y-131000000I500000J0D01*
G01*
X214920000Y-75500000D02*
X248420000Y-75500000D01*
X248420000Y-93000000D01*
X214920000Y-93000000D01*
X214920000Y-75500000D01*
X235500000Y-131000000D02*
G75*
G02*
X234500000Y-131000000I-500000J0D01*
G01*
X234500000Y-131000000D02*
G75*
G02*
X235500000Y-131000000I500000J0D01*
G01*
D11*
X256573558Y-85039638D02*
X256573558Y-83039638D01*
X257716415Y-85039638D02*
X256859272Y-83896780D01*
X257716415Y-83039638D02*
X256573558Y-84182495D01*
X258573558Y-85039638D02*
X258573558Y-83039638D01*
X258573558Y-83039638D02*
X259716415Y-85039638D01*
X259716415Y-85039638D02*
X259716415Y-83039638D01*
X261049748Y-83039638D02*
X261430701Y-83039638D01*
X261430701Y-83039638D02*
X261621177Y-83134876D01*
X261621177Y-83134876D02*
X261811653Y-83325352D01*
X261811653Y-83325352D02*
X261906891Y-83706304D01*
X261906891Y-83706304D02*
X261906891Y-84372971D01*
X261906891Y-84372971D02*
X261811653Y-84753923D01*
X261811653Y-84753923D02*
X261621177Y-84944400D01*
X261621177Y-84944400D02*
X261430701Y-85039638D01*
X261430701Y-85039638D02*
X261049748Y-85039638D01*
X261049748Y-85039638D02*
X260859272Y-84944400D01*
X260859272Y-84944400D02*
X260668796Y-84753923D01*
X260668796Y-84753923D02*
X260573558Y-84372971D01*
X260573558Y-84372971D02*
X260573558Y-83706304D01*
X260573558Y-83706304D02*
X260668796Y-83325352D01*
X260668796Y-83325352D02*
X260859272Y-83134876D01*
X260859272Y-83134876D02*
X261049748Y-83039638D01*
X263430701Y-83992019D02*
X263716415Y-84087257D01*
X263716415Y-84087257D02*
X263811653Y-84182495D01*
X263811653Y-84182495D02*
X263906891Y-84372971D01*
X263906891Y-84372971D02*
X263906891Y-84658685D01*
X263906891Y-84658685D02*
X263811653Y-84849161D01*
X263811653Y-84849161D02*
X263716415Y-84944400D01*
X263716415Y-84944400D02*
X263525939Y-85039638D01*
X263525939Y-85039638D02*
X262764034Y-85039638D01*
X262764034Y-85039638D02*
X262764034Y-83039638D01*
X262764034Y-83039638D02*
X263430701Y-83039638D01*
X263430701Y-83039638D02*
X263621177Y-83134876D01*
X263621177Y-83134876D02*
X263716415Y-83230114D01*
X263716415Y-83230114D02*
X263811653Y-83420590D01*
X263811653Y-83420590D02*
X263811653Y-83611066D01*
X263811653Y-83611066D02*
X263716415Y-83801542D01*
X263716415Y-83801542D02*
X263621177Y-83896780D01*
X263621177Y-83896780D02*
X263430701Y-83992019D01*
X263430701Y-83992019D02*
X262764034Y-83992019D01*
X177049748Y-129155100D02*
X177049748Y-125155100D01*
X177049748Y-125155100D02*
X178002129Y-125155100D01*
X178002129Y-125155100D02*
X178573558Y-125345576D01*
X178573558Y-125345576D02*
X178954510Y-125726528D01*
X178954510Y-125726528D02*
X179144987Y-126107481D01*
X179144987Y-126107481D02*
X179335463Y-126869385D01*
X179335463Y-126869385D02*
X179335463Y-127440814D01*
X179335463Y-127440814D02*
X179144987Y-128202719D01*
X179144987Y-128202719D02*
X178954510Y-128583671D01*
X178954510Y-128583671D02*
X178573558Y-128964624D01*
X178573558Y-128964624D02*
X178002129Y-129155100D01*
X178002129Y-129155100D02*
X177049748Y-129155100D01*
X182764034Y-129155100D02*
X182764034Y-127059862D01*
X182764034Y-127059862D02*
X182573558Y-126678909D01*
X182573558Y-126678909D02*
X182192606Y-126488433D01*
X182192606Y-126488433D02*
X181430701Y-126488433D01*
X181430701Y-126488433D02*
X181049748Y-126678909D01*
X182764034Y-128964624D02*
X182383082Y-129155100D01*
X182383082Y-129155100D02*
X181430701Y-129155100D01*
X181430701Y-129155100D02*
X181049748Y-128964624D01*
X181049748Y-128964624D02*
X180859272Y-128583671D01*
X180859272Y-128583671D02*
X180859272Y-128202719D01*
X180859272Y-128202719D02*
X181049748Y-127821766D01*
X181049748Y-127821766D02*
X181430701Y-127631290D01*
X181430701Y-127631290D02*
X182383082Y-127631290D01*
X182383082Y-127631290D02*
X182764034Y-127440814D01*
X186383082Y-126488433D02*
X186383082Y-129155100D01*
X184668796Y-126488433D02*
X184668796Y-128583671D01*
X184668796Y-128583671D02*
X184859273Y-128964624D01*
X184859273Y-128964624D02*
X185240225Y-129155100D01*
X185240225Y-129155100D02*
X185811654Y-129155100D01*
X185811654Y-129155100D02*
X186192606Y-128964624D01*
X186192606Y-128964624D02*
X186383082Y-128774147D01*
X190002130Y-126488433D02*
X190002130Y-129726528D01*
X190002130Y-129726528D02*
X189811654Y-130107481D01*
X189811654Y-130107481D02*
X189621178Y-130297957D01*
X189621178Y-130297957D02*
X189240225Y-130488433D01*
X189240225Y-130488433D02*
X188668797Y-130488433D01*
X188668797Y-130488433D02*
X188287844Y-130297957D01*
X190002130Y-128964624D02*
X189621178Y-129155100D01*
X189621178Y-129155100D02*
X188859273Y-129155100D01*
X188859273Y-129155100D02*
X188478321Y-128964624D01*
X188478321Y-128964624D02*
X188287844Y-128774147D01*
X188287844Y-128774147D02*
X188097368Y-128393195D01*
X188097368Y-128393195D02*
X188097368Y-127250338D01*
X188097368Y-127250338D02*
X188287844Y-126869385D01*
X188287844Y-126869385D02*
X188478321Y-126678909D01*
X188478321Y-126678909D02*
X188859273Y-126488433D01*
X188859273Y-126488433D02*
X189621178Y-126488433D01*
X189621178Y-126488433D02*
X190002130Y-126678909D01*
X191906892Y-129155100D02*
X191906892Y-125155100D01*
X193621178Y-129155100D02*
X193621178Y-127059862D01*
X193621178Y-127059862D02*
X193430702Y-126678909D01*
X193430702Y-126678909D02*
X193049750Y-126488433D01*
X193049750Y-126488433D02*
X192478321Y-126488433D01*
X192478321Y-126488433D02*
X192097369Y-126678909D01*
X192097369Y-126678909D02*
X191906892Y-126869385D01*
X194954512Y-126488433D02*
X196478321Y-126488433D01*
X195525940Y-125155100D02*
X195525940Y-128583671D01*
X195525940Y-128583671D02*
X195716417Y-128964624D01*
X195716417Y-128964624D02*
X196097369Y-129155100D01*
X196097369Y-129155100D02*
X196478321Y-129155100D01*
X199335464Y-128964624D02*
X198954512Y-129155100D01*
X198954512Y-129155100D02*
X198192607Y-129155100D01*
X198192607Y-129155100D02*
X197811654Y-128964624D01*
X197811654Y-128964624D02*
X197621178Y-128583671D01*
X197621178Y-128583671D02*
X197621178Y-127059862D01*
X197621178Y-127059862D02*
X197811654Y-126678909D01*
X197811654Y-126678909D02*
X198192607Y-126488433D01*
X198192607Y-126488433D02*
X198954512Y-126488433D01*
X198954512Y-126488433D02*
X199335464Y-126678909D01*
X199335464Y-126678909D02*
X199525940Y-127059862D01*
X199525940Y-127059862D02*
X199525940Y-127440814D01*
X199525940Y-127440814D02*
X197621178Y-127821766D01*
X201240225Y-129155100D02*
X201240225Y-126488433D01*
X201240225Y-127250338D02*
X201430702Y-126869385D01*
X201430702Y-126869385D02*
X201621178Y-126678909D01*
X201621178Y-126678909D02*
X202002130Y-126488433D01*
X202002130Y-126488433D02*
X202383083Y-126488433D01*
X208097368Y-127059862D02*
X208668796Y-127250338D01*
X208668796Y-127250338D02*
X208859273Y-127440814D01*
X208859273Y-127440814D02*
X209049749Y-127821766D01*
X209049749Y-127821766D02*
X209049749Y-128393195D01*
X209049749Y-128393195D02*
X208859273Y-128774147D01*
X208859273Y-128774147D02*
X208668796Y-128964624D01*
X208668796Y-128964624D02*
X208287844Y-129155100D01*
X208287844Y-129155100D02*
X206764034Y-129155100D01*
X206764034Y-129155100D02*
X206764034Y-125155100D01*
X206764034Y-125155100D02*
X208097368Y-125155100D01*
X208097368Y-125155100D02*
X208478320Y-125345576D01*
X208478320Y-125345576D02*
X208668796Y-125536052D01*
X208668796Y-125536052D02*
X208859273Y-125917004D01*
X208859273Y-125917004D02*
X208859273Y-126297957D01*
X208859273Y-126297957D02*
X208668796Y-126678909D01*
X208668796Y-126678909D02*
X208478320Y-126869385D01*
X208478320Y-126869385D02*
X208097368Y-127059862D01*
X208097368Y-127059862D02*
X206764034Y-127059862D01*
X211335463Y-129155100D02*
X210954511Y-128964624D01*
X210954511Y-128964624D02*
X210764034Y-128774147D01*
X210764034Y-128774147D02*
X210573558Y-128393195D01*
X210573558Y-128393195D02*
X210573558Y-127250338D01*
X210573558Y-127250338D02*
X210764034Y-126869385D01*
X210764034Y-126869385D02*
X210954511Y-126678909D01*
X210954511Y-126678909D02*
X211335463Y-126488433D01*
X211335463Y-126488433D02*
X211906892Y-126488433D01*
X211906892Y-126488433D02*
X212287844Y-126678909D01*
X212287844Y-126678909D02*
X212478320Y-126869385D01*
X212478320Y-126869385D02*
X212668796Y-127250338D01*
X212668796Y-127250338D02*
X212668796Y-128393195D01*
X212668796Y-128393195D02*
X212478320Y-128774147D01*
X212478320Y-128774147D02*
X212287844Y-128964624D01*
X212287844Y-128964624D02*
X211906892Y-129155100D01*
X211906892Y-129155100D02*
X211335463Y-129155100D01*
X216097368Y-129155100D02*
X216097368Y-127059862D01*
X216097368Y-127059862D02*
X215906892Y-126678909D01*
X215906892Y-126678909D02*
X215525940Y-126488433D01*
X215525940Y-126488433D02*
X214764035Y-126488433D01*
X214764035Y-126488433D02*
X214383082Y-126678909D01*
X216097368Y-128964624D02*
X215716416Y-129155100D01*
X215716416Y-129155100D02*
X214764035Y-129155100D01*
X214764035Y-129155100D02*
X214383082Y-128964624D01*
X214383082Y-128964624D02*
X214192606Y-128583671D01*
X214192606Y-128583671D02*
X214192606Y-128202719D01*
X214192606Y-128202719D02*
X214383082Y-127821766D01*
X214383082Y-127821766D02*
X214764035Y-127631290D01*
X214764035Y-127631290D02*
X215716416Y-127631290D01*
X215716416Y-127631290D02*
X216097368Y-127440814D01*
X218002130Y-129155100D02*
X218002130Y-126488433D01*
X218002130Y-127250338D02*
X218192607Y-126869385D01*
X218192607Y-126869385D02*
X218383083Y-126678909D01*
X218383083Y-126678909D02*
X218764035Y-126488433D01*
X218764035Y-126488433D02*
X219144988Y-126488433D01*
X222192606Y-129155100D02*
X222192606Y-125155100D01*
X222192606Y-128964624D02*
X221811654Y-129155100D01*
X221811654Y-129155100D02*
X221049749Y-129155100D01*
X221049749Y-129155100D02*
X220668797Y-128964624D01*
X220668797Y-128964624D02*
X220478320Y-128774147D01*
X220478320Y-128774147D02*
X220287844Y-128393195D01*
X220287844Y-128393195D02*
X220287844Y-127250338D01*
X220287844Y-127250338D02*
X220478320Y-126869385D01*
X220478320Y-126869385D02*
X220668797Y-126678909D01*
X220668797Y-126678909D02*
X221049749Y-126488433D01*
X221049749Y-126488433D02*
X221811654Y-126488433D01*
X221811654Y-126488433D02*
X222192606Y-126678909D01*
X176859272Y-134452019D02*
X178764034Y-134452019D01*
X176478320Y-135594876D02*
X177811653Y-131594876D01*
X177811653Y-131594876D02*
X179144987Y-135594876D01*
X181049748Y-135594876D02*
X180668796Y-135404400D01*
X180668796Y-135404400D02*
X180478319Y-135023447D01*
X180478319Y-135023447D02*
X180478319Y-131594876D01*
X183144986Y-135594876D02*
X182764034Y-135404400D01*
X182764034Y-135404400D02*
X182573557Y-135023447D01*
X182573557Y-135023447D02*
X182573557Y-131594876D01*
X185240224Y-135594876D02*
X184859272Y-135404400D01*
X184859272Y-135404400D02*
X184668795Y-135213923D01*
X184668795Y-135213923D02*
X184478319Y-134832971D01*
X184478319Y-134832971D02*
X184478319Y-133690114D01*
X184478319Y-133690114D02*
X184668795Y-133309161D01*
X184668795Y-133309161D02*
X184859272Y-133118685D01*
X184859272Y-133118685D02*
X185240224Y-132928209D01*
X185240224Y-132928209D02*
X185811653Y-132928209D01*
X185811653Y-132928209D02*
X186192605Y-133118685D01*
X186192605Y-133118685D02*
X186383081Y-133309161D01*
X186383081Y-133309161D02*
X186573557Y-133690114D01*
X186573557Y-133690114D02*
X186573557Y-134832971D01*
X186573557Y-134832971D02*
X186383081Y-135213923D01*
X186383081Y-135213923D02*
X186192605Y-135404400D01*
X186192605Y-135404400D02*
X185811653Y-135594876D01*
X185811653Y-135594876D02*
X185240224Y-135594876D01*
X187906891Y-132928209D02*
X188668796Y-135594876D01*
X188668796Y-135594876D02*
X189430701Y-133690114D01*
X189430701Y-133690114D02*
X190192605Y-135594876D01*
X190192605Y-135594876D02*
X190954510Y-132928209D01*
X194192605Y-135594876D02*
X194192605Y-133499638D01*
X194192605Y-133499638D02*
X194002129Y-133118685D01*
X194002129Y-133118685D02*
X193621177Y-132928209D01*
X193621177Y-132928209D02*
X192859272Y-132928209D01*
X192859272Y-132928209D02*
X192478319Y-133118685D01*
X194192605Y-135404400D02*
X193811653Y-135594876D01*
X193811653Y-135594876D02*
X192859272Y-135594876D01*
X192859272Y-135594876D02*
X192478319Y-135404400D01*
X192478319Y-135404400D02*
X192287843Y-135023447D01*
X192287843Y-135023447D02*
X192287843Y-134642495D01*
X192287843Y-134642495D02*
X192478319Y-134261542D01*
X192478319Y-134261542D02*
X192859272Y-134071066D01*
X192859272Y-134071066D02*
X193811653Y-134071066D01*
X193811653Y-134071066D02*
X194192605Y-133880590D01*
X196097367Y-135594876D02*
X196097367Y-131594876D01*
X196097367Y-133118685D02*
X196478320Y-132928209D01*
X196478320Y-132928209D02*
X197240225Y-132928209D01*
X197240225Y-132928209D02*
X197621177Y-133118685D01*
X197621177Y-133118685D02*
X197811653Y-133309161D01*
X197811653Y-133309161D02*
X198002129Y-133690114D01*
X198002129Y-133690114D02*
X198002129Y-134832971D01*
X198002129Y-134832971D02*
X197811653Y-135213923D01*
X197811653Y-135213923D02*
X197621177Y-135404400D01*
X197621177Y-135404400D02*
X197240225Y-135594876D01*
X197240225Y-135594876D02*
X196478320Y-135594876D01*
X196478320Y-135594876D02*
X196097367Y-135404400D01*
X200287844Y-135594876D02*
X199906892Y-135404400D01*
X199906892Y-135404400D02*
X199716415Y-135023447D01*
X199716415Y-135023447D02*
X199716415Y-131594876D01*
X203335463Y-135404400D02*
X202954511Y-135594876D01*
X202954511Y-135594876D02*
X202192606Y-135594876D01*
X202192606Y-135594876D02*
X201811653Y-135404400D01*
X201811653Y-135404400D02*
X201621177Y-135023447D01*
X201621177Y-135023447D02*
X201621177Y-133499638D01*
X201621177Y-133499638D02*
X201811653Y-133118685D01*
X201811653Y-133118685D02*
X202192606Y-132928209D01*
X202192606Y-132928209D02*
X202954511Y-132928209D01*
X202954511Y-132928209D02*
X203335463Y-133118685D01*
X203335463Y-133118685D02*
X203525939Y-133499638D01*
X203525939Y-133499638D02*
X203525939Y-133880590D01*
X203525939Y-133880590D02*
X201621177Y-134261542D01*
X208097367Y-134452019D02*
X210002129Y-134452019D01*
X207716415Y-135594876D02*
X209049748Y-131594876D01*
X209049748Y-131594876D02*
X210383082Y-135594876D01*
X211716414Y-135594876D02*
X211716414Y-132928209D01*
X211716414Y-133690114D02*
X211906891Y-133309161D01*
X211906891Y-133309161D02*
X212097367Y-133118685D01*
X212097367Y-133118685D02*
X212478319Y-132928209D01*
X212478319Y-132928209D02*
X212859272Y-132928209D01*
X215716414Y-135404400D02*
X215335462Y-135594876D01*
X215335462Y-135594876D02*
X214573557Y-135594876D01*
X214573557Y-135594876D02*
X214192604Y-135404400D01*
X214192604Y-135404400D02*
X214002128Y-135023447D01*
X214002128Y-135023447D02*
X214002128Y-133499638D01*
X214002128Y-133499638D02*
X214192604Y-133118685D01*
X214192604Y-133118685D02*
X214573557Y-132928209D01*
X214573557Y-132928209D02*
X215335462Y-132928209D01*
X215335462Y-132928209D02*
X215716414Y-133118685D01*
X215716414Y-133118685D02*
X215906890Y-133499638D01*
X215906890Y-133499638D02*
X215906890Y-133880590D01*
X215906890Y-133880590D02*
X214002128Y-134261542D01*
X219335461Y-135594876D02*
X219335461Y-133499638D01*
X219335461Y-133499638D02*
X219144985Y-133118685D01*
X219144985Y-133118685D02*
X218764033Y-132928209D01*
X218764033Y-132928209D02*
X218002128Y-132928209D01*
X218002128Y-132928209D02*
X217621175Y-133118685D01*
X219335461Y-135404400D02*
X218954509Y-135594876D01*
X218954509Y-135594876D02*
X218002128Y-135594876D01*
X218002128Y-135594876D02*
X217621175Y-135404400D01*
X217621175Y-135404400D02*
X217430699Y-135023447D01*
X217430699Y-135023447D02*
X217430699Y-134642495D01*
X217430699Y-134642495D02*
X217621175Y-134261542D01*
X217621175Y-134261542D02*
X218002128Y-134071066D01*
X218002128Y-134071066D02*
X218954509Y-134071066D01*
X218954509Y-134071066D02*
X219335461Y-133880590D01*
X225911653Y-81494876D02*
X226673558Y-81494876D01*
X226673558Y-81494876D02*
X227054510Y-81685352D01*
X227054510Y-81685352D02*
X227435463Y-82066304D01*
X227435463Y-82066304D02*
X227625939Y-82828209D01*
X227625939Y-82828209D02*
X227625939Y-84161542D01*
X227625939Y-84161542D02*
X227435463Y-84923447D01*
X227435463Y-84923447D02*
X227054510Y-85304400D01*
X227054510Y-85304400D02*
X226673558Y-85494876D01*
X226673558Y-85494876D02*
X225911653Y-85494876D01*
X225911653Y-85494876D02*
X225530701Y-85304400D01*
X225530701Y-85304400D02*
X225149748Y-84923447D01*
X225149748Y-84923447D02*
X224959272Y-84161542D01*
X224959272Y-84161542D02*
X224959272Y-82828209D01*
X224959272Y-82828209D02*
X225149748Y-82066304D01*
X225149748Y-82066304D02*
X225530701Y-81685352D01*
X225530701Y-81685352D02*
X225911653Y-81494876D01*
X231244986Y-85494876D02*
X229340224Y-85494876D01*
X229340224Y-85494876D02*
X229340224Y-81494876D01*
X232578319Y-83399638D02*
X233911653Y-83399638D01*
X234483081Y-85494876D02*
X232578319Y-85494876D01*
X232578319Y-85494876D02*
X232578319Y-81494876D01*
X232578319Y-81494876D02*
X234483081Y-81494876D01*
X236197367Y-85494876D02*
X236197367Y-81494876D01*
X236197367Y-81494876D02*
X237149748Y-81494876D01*
X237149748Y-81494876D02*
X237721177Y-81685352D01*
X237721177Y-81685352D02*
X238102129Y-82066304D01*
X238102129Y-82066304D02*
X238292606Y-82447257D01*
X238292606Y-82447257D02*
X238483082Y-83209161D01*
X238483082Y-83209161D02*
X238483082Y-83780590D01*
X238483082Y-83780590D02*
X238292606Y-84542495D01*
X238292606Y-84542495D02*
X238102129Y-84923447D01*
X238102129Y-84923447D02*
X237721177Y-85304400D01*
X237721177Y-85304400D02*
X237149748Y-85494876D01*
X237149748Y-85494876D02*
X236197367Y-85494876D01*
D10*
X195476190Y-187304819D02*
X194904762Y-187304819D01*
X195190476Y-187304819D02*
X195190476Y-186304819D01*
X195190476Y-186304819D02*
X195095238Y-186447676D01*
X195095238Y-186447676D02*
X195000000Y-186542914D01*
X195000000Y-186542914D02*
X194904762Y-186590533D01*
X195857143Y-186400057D02*
X195904762Y-186352438D01*
X195904762Y-186352438D02*
X196000000Y-186304819D01*
X196000000Y-186304819D02*
X196238095Y-186304819D01*
X196238095Y-186304819D02*
X196333333Y-186352438D01*
X196333333Y-186352438D02*
X196380952Y-186400057D01*
X196380952Y-186400057D02*
X196428571Y-186495295D01*
X196428571Y-186495295D02*
X196428571Y-186590533D01*
X196428571Y-186590533D02*
X196380952Y-186733390D01*
X196380952Y-186733390D02*
X195809524Y-187304819D01*
X195809524Y-187304819D02*
X196428571Y-187304819D01*
X197047619Y-186304819D02*
X197142857Y-186304819D01*
X197142857Y-186304819D02*
X197238095Y-186352438D01*
X197238095Y-186352438D02*
X197285714Y-186400057D01*
X197285714Y-186400057D02*
X197333333Y-186495295D01*
X197333333Y-186495295D02*
X197380952Y-186685771D01*
X197380952Y-186685771D02*
X197380952Y-186923866D01*
X197380952Y-186923866D02*
X197333333Y-187114342D01*
X197333333Y-187114342D02*
X197285714Y-187209580D01*
X197285714Y-187209580D02*
X197238095Y-187257200D01*
X197238095Y-187257200D02*
X197142857Y-187304819D01*
X197142857Y-187304819D02*
X197047619Y-187304819D01*
X197047619Y-187304819D02*
X196952381Y-187257200D01*
X196952381Y-187257200D02*
X196904762Y-187209580D01*
X196904762Y-187209580D02*
X196857143Y-187114342D01*
X196857143Y-187114342D02*
X196809524Y-186923866D01*
X196809524Y-186923866D02*
X196809524Y-186685771D01*
X196809524Y-186685771D02*
X196857143Y-186495295D01*
X196857143Y-186495295D02*
X196904762Y-186400057D01*
X196904762Y-186400057D02*
X196952381Y-186352438D01*
X196952381Y-186352438D02*
X197047619Y-186304819D01*
X197809524Y-187209580D02*
X197857143Y-187257200D01*
X197857143Y-187257200D02*
X197809524Y-187304819D01*
X197809524Y-187304819D02*
X197761905Y-187257200D01*
X197761905Y-187257200D02*
X197809524Y-187209580D01*
X197809524Y-187209580D02*
X197809524Y-187304819D01*
X198476190Y-186304819D02*
X198571428Y-186304819D01*
X198571428Y-186304819D02*
X198666666Y-186352438D01*
X198666666Y-186352438D02*
X198714285Y-186400057D01*
X198714285Y-186400057D02*
X198761904Y-186495295D01*
X198761904Y-186495295D02*
X198809523Y-186685771D01*
X198809523Y-186685771D02*
X198809523Y-186923866D01*
X198809523Y-186923866D02*
X198761904Y-187114342D01*
X198761904Y-187114342D02*
X198714285Y-187209580D01*
X198714285Y-187209580D02*
X198666666Y-187257200D01*
X198666666Y-187257200D02*
X198571428Y-187304819D01*
X198571428Y-187304819D02*
X198476190Y-187304819D01*
X198476190Y-187304819D02*
X198380952Y-187257200D01*
X198380952Y-187257200D02*
X198333333Y-187209580D01*
X198333333Y-187209580D02*
X198285714Y-187114342D01*
X198285714Y-187114342D02*
X198238095Y-186923866D01*
X198238095Y-186923866D02*
X198238095Y-186685771D01*
X198238095Y-186685771D02*
X198285714Y-186495295D01*
X198285714Y-186495295D02*
X198333333Y-186400057D01*
X198333333Y-186400057D02*
X198380952Y-186352438D01*
X198380952Y-186352438D02*
X198476190Y-186304819D01*
X199428571Y-186304819D02*
X199523809Y-186304819D01*
X199523809Y-186304819D02*
X199619047Y-186352438D01*
X199619047Y-186352438D02*
X199666666Y-186400057D01*
X199666666Y-186400057D02*
X199714285Y-186495295D01*
X199714285Y-186495295D02*
X199761904Y-186685771D01*
X199761904Y-186685771D02*
X199761904Y-186923866D01*
X199761904Y-186923866D02*
X199714285Y-187114342D01*
X199714285Y-187114342D02*
X199666666Y-187209580D01*
X199666666Y-187209580D02*
X199619047Y-187257200D01*
X199619047Y-187257200D02*
X199523809Y-187304819D01*
X199523809Y-187304819D02*
X199428571Y-187304819D01*
X199428571Y-187304819D02*
X199333333Y-187257200D01*
X199333333Y-187257200D02*
X199285714Y-187209580D01*
X199285714Y-187209580D02*
X199238095Y-187114342D01*
X199238095Y-187114342D02*
X199190476Y-186923866D01*
X199190476Y-186923866D02*
X199190476Y-186685771D01*
X199190476Y-186685771D02*
X199238095Y-186495295D01*
X199238095Y-186495295D02*
X199285714Y-186400057D01*
X199285714Y-186400057D02*
X199333333Y-186352438D01*
X199333333Y-186352438D02*
X199428571Y-186304819D01*
X200380952Y-186304819D02*
X200476190Y-186304819D01*
X200476190Y-186304819D02*
X200571428Y-186352438D01*
X200571428Y-186352438D02*
X200619047Y-186400057D01*
X200619047Y-186400057D02*
X200666666Y-186495295D01*
X200666666Y-186495295D02*
X200714285Y-186685771D01*
X200714285Y-186685771D02*
X200714285Y-186923866D01*
X200714285Y-186923866D02*
X200666666Y-187114342D01*
X200666666Y-187114342D02*
X200619047Y-187209580D01*
X200619047Y-187209580D02*
X200571428Y-187257200D01*
X200571428Y-187257200D02*
X200476190Y-187304819D01*
X200476190Y-187304819D02*
X200380952Y-187304819D01*
X200380952Y-187304819D02*
X200285714Y-187257200D01*
X200285714Y-187257200D02*
X200238095Y-187209580D01*
X200238095Y-187209580D02*
X200190476Y-187114342D01*
X200190476Y-187114342D02*
X200142857Y-186923866D01*
X200142857Y-186923866D02*
X200142857Y-186685771D01*
X200142857Y-186685771D02*
X200190476Y-186495295D01*
X200190476Y-186495295D02*
X200238095Y-186400057D01*
X200238095Y-186400057D02*
X200285714Y-186352438D01*
X200285714Y-186352438D02*
X200380952Y-186304819D01*
X201333333Y-186304819D02*
X201428571Y-186304819D01*
X201428571Y-186304819D02*
X201523809Y-186352438D01*
X201523809Y-186352438D02*
X201571428Y-186400057D01*
X201571428Y-186400057D02*
X201619047Y-186495295D01*
X201619047Y-186495295D02*
X201666666Y-186685771D01*
X201666666Y-186685771D02*
X201666666Y-186923866D01*
X201666666Y-186923866D02*
X201619047Y-187114342D01*
X201619047Y-187114342D02*
X201571428Y-187209580D01*
X201571428Y-187209580D02*
X201523809Y-187257200D01*
X201523809Y-187257200D02*
X201428571Y-187304819D01*
X201428571Y-187304819D02*
X201333333Y-187304819D01*
X201333333Y-187304819D02*
X201238095Y-187257200D01*
X201238095Y-187257200D02*
X201190476Y-187209580D01*
X201190476Y-187209580D02*
X201142857Y-187114342D01*
X201142857Y-187114342D02*
X201095238Y-186923866D01*
X201095238Y-186923866D02*
X201095238Y-186685771D01*
X201095238Y-186685771D02*
X201142857Y-186495295D01*
X201142857Y-186495295D02*
X201190476Y-186400057D01*
X201190476Y-186400057D02*
X201238095Y-186352438D01*
X201238095Y-186352438D02*
X201333333Y-186304819D01*
X202857143Y-187304819D02*
X202857143Y-186638152D01*
X202857143Y-186733390D02*
X202904762Y-186685771D01*
X202904762Y-186685771D02*
X203000000Y-186638152D01*
X203000000Y-186638152D02*
X203142857Y-186638152D01*
X203142857Y-186638152D02*
X203238095Y-186685771D01*
X203238095Y-186685771D02*
X203285714Y-186781009D01*
X203285714Y-186781009D02*
X203285714Y-187304819D01*
X203285714Y-186781009D02*
X203333333Y-186685771D01*
X203333333Y-186685771D02*
X203428571Y-186638152D01*
X203428571Y-186638152D02*
X203571428Y-186638152D01*
X203571428Y-186638152D02*
X203666667Y-186685771D01*
X203666667Y-186685771D02*
X203714286Y-186781009D01*
X203714286Y-186781009D02*
X203714286Y-187304819D01*
X204190476Y-187304819D02*
X204190476Y-186638152D01*
X204190476Y-186733390D02*
X204238095Y-186685771D01*
X204238095Y-186685771D02*
X204333333Y-186638152D01*
X204333333Y-186638152D02*
X204476190Y-186638152D01*
X204476190Y-186638152D02*
X204571428Y-186685771D01*
X204571428Y-186685771D02*
X204619047Y-186781009D01*
X204619047Y-186781009D02*
X204619047Y-187304819D01*
X204619047Y-186781009D02*
X204666666Y-186685771D01*
X204666666Y-186685771D02*
X204761904Y-186638152D01*
X204761904Y-186638152D02*
X204904761Y-186638152D01*
X204904761Y-186638152D02*
X205000000Y-186685771D01*
X205000000Y-186685771D02*
X205047619Y-186781009D01*
X205047619Y-186781009D02*
X205047619Y-187304819D01*
X140000000Y-171500000D02*
X140000000Y-188586420D01*
X260000000Y-188586420D02*
X260000000Y-171500000D01*
X140000000Y-188000000D02*
X260000000Y-188000000D01*
X140000000Y-188000000D02*
X260000000Y-188000000D01*
X140000000Y-188000000D02*
X141126504Y-187413579D01*
X140000000Y-188000000D02*
X141126504Y-188586421D01*
X260000000Y-188000000D02*
X258873496Y-188586421D01*
X260000000Y-188000000D02*
X258873496Y-187413579D01*
X140000000Y-188000000D02*
X260000000Y-188000000D01*
X140000000Y-188000000D02*
X260000000Y-188000000D01*
X140000000Y-188000000D02*
X141126504Y-187413579D01*
X140000000Y-188000000D02*
X141126504Y-188586421D01*
X260000000Y-188000000D02*
X258873496Y-188586421D01*
X260000000Y-188000000D02*
X258873496Y-187413579D01*
X105638152Y-155142856D02*
X106304819Y-155142856D01*
X105257200Y-155380951D02*
X105971485Y-155619046D01*
X105971485Y-155619046D02*
X105971485Y-154999999D01*
X105304819Y-154428570D02*
X105304819Y-154333332D01*
X105304819Y-154333332D02*
X105352438Y-154238094D01*
X105352438Y-154238094D02*
X105400057Y-154190475D01*
X105400057Y-154190475D02*
X105495295Y-154142856D01*
X105495295Y-154142856D02*
X105685771Y-154095237D01*
X105685771Y-154095237D02*
X105923866Y-154095237D01*
X105923866Y-154095237D02*
X106114342Y-154142856D01*
X106114342Y-154142856D02*
X106209580Y-154190475D01*
X106209580Y-154190475D02*
X106257200Y-154238094D01*
X106257200Y-154238094D02*
X106304819Y-154333332D01*
X106304819Y-154333332D02*
X106304819Y-154428570D01*
X106304819Y-154428570D02*
X106257200Y-154523808D01*
X106257200Y-154523808D02*
X106209580Y-154571427D01*
X106209580Y-154571427D02*
X106114342Y-154619046D01*
X106114342Y-154619046D02*
X105923866Y-154666665D01*
X105923866Y-154666665D02*
X105685771Y-154666665D01*
X105685771Y-154666665D02*
X105495295Y-154619046D01*
X105495295Y-154619046D02*
X105400057Y-154571427D01*
X105400057Y-154571427D02*
X105352438Y-154523808D01*
X105352438Y-154523808D02*
X105304819Y-154428570D01*
X106209580Y-153666665D02*
X106257200Y-153619046D01*
X106257200Y-153619046D02*
X106304819Y-153666665D01*
X106304819Y-153666665D02*
X106257200Y-153714284D01*
X106257200Y-153714284D02*
X106209580Y-153666665D01*
X106209580Y-153666665D02*
X106304819Y-153666665D01*
X105304819Y-152999999D02*
X105304819Y-152904761D01*
X105304819Y-152904761D02*
X105352438Y-152809523D01*
X105352438Y-152809523D02*
X105400057Y-152761904D01*
X105400057Y-152761904D02*
X105495295Y-152714285D01*
X105495295Y-152714285D02*
X105685771Y-152666666D01*
X105685771Y-152666666D02*
X105923866Y-152666666D01*
X105923866Y-152666666D02*
X106114342Y-152714285D01*
X106114342Y-152714285D02*
X106209580Y-152761904D01*
X106209580Y-152761904D02*
X106257200Y-152809523D01*
X106257200Y-152809523D02*
X106304819Y-152904761D01*
X106304819Y-152904761D02*
X106304819Y-152999999D01*
X106304819Y-152999999D02*
X106257200Y-153095237D01*
X106257200Y-153095237D02*
X106209580Y-153142856D01*
X106209580Y-153142856D02*
X106114342Y-153190475D01*
X106114342Y-153190475D02*
X105923866Y-153238094D01*
X105923866Y-153238094D02*
X105685771Y-153238094D01*
X105685771Y-153238094D02*
X105495295Y-153190475D01*
X105495295Y-153190475D02*
X105400057Y-153142856D01*
X105400057Y-153142856D02*
X105352438Y-153095237D01*
X105352438Y-153095237D02*
X105304819Y-152999999D01*
X105304819Y-152047618D02*
X105304819Y-151952380D01*
X105304819Y-151952380D02*
X105352438Y-151857142D01*
X105352438Y-151857142D02*
X105400057Y-151809523D01*
X105400057Y-151809523D02*
X105495295Y-151761904D01*
X105495295Y-151761904D02*
X105685771Y-151714285D01*
X105685771Y-151714285D02*
X105923866Y-151714285D01*
X105923866Y-151714285D02*
X106114342Y-151761904D01*
X106114342Y-151761904D02*
X106209580Y-151809523D01*
X106209580Y-151809523D02*
X106257200Y-151857142D01*
X106257200Y-151857142D02*
X106304819Y-151952380D01*
X106304819Y-151952380D02*
X106304819Y-152047618D01*
X106304819Y-152047618D02*
X106257200Y-152142856D01*
X106257200Y-152142856D02*
X106209580Y-152190475D01*
X106209580Y-152190475D02*
X106114342Y-152238094D01*
X106114342Y-152238094D02*
X105923866Y-152285713D01*
X105923866Y-152285713D02*
X105685771Y-152285713D01*
X105685771Y-152285713D02*
X105495295Y-152238094D01*
X105495295Y-152238094D02*
X105400057Y-152190475D01*
X105400057Y-152190475D02*
X105352438Y-152142856D01*
X105352438Y-152142856D02*
X105304819Y-152047618D01*
X105304819Y-151095237D02*
X105304819Y-150999999D01*
X105304819Y-150999999D02*
X105352438Y-150904761D01*
X105352438Y-150904761D02*
X105400057Y-150857142D01*
X105400057Y-150857142D02*
X105495295Y-150809523D01*
X105495295Y-150809523D02*
X105685771Y-150761904D01*
X105685771Y-150761904D02*
X105923866Y-150761904D01*
X105923866Y-150761904D02*
X106114342Y-150809523D01*
X106114342Y-150809523D02*
X106209580Y-150857142D01*
X106209580Y-150857142D02*
X106257200Y-150904761D01*
X106257200Y-150904761D02*
X106304819Y-150999999D01*
X106304819Y-150999999D02*
X106304819Y-151095237D01*
X106304819Y-151095237D02*
X106257200Y-151190475D01*
X106257200Y-151190475D02*
X106209580Y-151238094D01*
X106209580Y-151238094D02*
X106114342Y-151285713D01*
X106114342Y-151285713D02*
X105923866Y-151333332D01*
X105923866Y-151333332D02*
X105685771Y-151333332D01*
X105685771Y-151333332D02*
X105495295Y-151285713D01*
X105495295Y-151285713D02*
X105400057Y-151238094D01*
X105400057Y-151238094D02*
X105352438Y-151190475D01*
X105352438Y-151190475D02*
X105304819Y-151095237D01*
X105304819Y-150142856D02*
X105304819Y-150047618D01*
X105304819Y-150047618D02*
X105352438Y-149952380D01*
X105352438Y-149952380D02*
X105400057Y-149904761D01*
X105400057Y-149904761D02*
X105495295Y-149857142D01*
X105495295Y-149857142D02*
X105685771Y-149809523D01*
X105685771Y-149809523D02*
X105923866Y-149809523D01*
X105923866Y-149809523D02*
X106114342Y-149857142D01*
X106114342Y-149857142D02*
X106209580Y-149904761D01*
X106209580Y-149904761D02*
X106257200Y-149952380D01*
X106257200Y-149952380D02*
X106304819Y-150047618D01*
X106304819Y-150047618D02*
X106304819Y-150142856D01*
X106304819Y-150142856D02*
X106257200Y-150238094D01*
X106257200Y-150238094D02*
X106209580Y-150285713D01*
X106209580Y-150285713D02*
X106114342Y-150333332D01*
X106114342Y-150333332D02*
X105923866Y-150380951D01*
X105923866Y-150380951D02*
X105685771Y-150380951D01*
X105685771Y-150380951D02*
X105495295Y-150333332D01*
X105495295Y-150333332D02*
X105400057Y-150285713D01*
X105400057Y-150285713D02*
X105352438Y-150238094D01*
X105352438Y-150238094D02*
X105304819Y-150142856D01*
X106304819Y-148619046D02*
X105638152Y-148619046D01*
X105733390Y-148619046D02*
X105685771Y-148571427D01*
X105685771Y-148571427D02*
X105638152Y-148476189D01*
X105638152Y-148476189D02*
X105638152Y-148333332D01*
X105638152Y-148333332D02*
X105685771Y-148238094D01*
X105685771Y-148238094D02*
X105781009Y-148190475D01*
X105781009Y-148190475D02*
X106304819Y-148190475D01*
X105781009Y-148190475D02*
X105685771Y-148142856D01*
X105685771Y-148142856D02*
X105638152Y-148047618D01*
X105638152Y-148047618D02*
X105638152Y-147904761D01*
X105638152Y-147904761D02*
X105685771Y-147809522D01*
X105685771Y-147809522D02*
X105781009Y-147761903D01*
X105781009Y-147761903D02*
X106304819Y-147761903D01*
X106304819Y-147285713D02*
X105638152Y-147285713D01*
X105733390Y-147285713D02*
X105685771Y-147238094D01*
X105685771Y-147238094D02*
X105638152Y-147142856D01*
X105638152Y-147142856D02*
X105638152Y-146999999D01*
X105638152Y-146999999D02*
X105685771Y-146904761D01*
X105685771Y-146904761D02*
X105781009Y-146857142D01*
X105781009Y-146857142D02*
X106304819Y-146857142D01*
X105781009Y-146857142D02*
X105685771Y-146809523D01*
X105685771Y-146809523D02*
X105638152Y-146714285D01*
X105638152Y-146714285D02*
X105638152Y-146571428D01*
X105638152Y-146571428D02*
X105685771Y-146476189D01*
X105685771Y-146476189D02*
X105781009Y-146428570D01*
X105781009Y-146428570D02*
X106304819Y-146428570D01*
X164500000Y-131000000D02*
X106413580Y-131000000D01*
X106413580Y-171000000D02*
X164500000Y-171000000D01*
X107000000Y-131000000D02*
X107000000Y-171000000D01*
X107000000Y-131000000D02*
X107000000Y-171000000D01*
X107000000Y-131000000D02*
X107586421Y-132126504D01*
X107000000Y-131000000D02*
X106413579Y-132126504D01*
X107000000Y-171000000D02*
X106413579Y-169873496D01*
X107000000Y-171000000D02*
X107586421Y-169873496D01*
X107000000Y-131000000D02*
X107000000Y-171000000D01*
X107000000Y-131000000D02*
X107000000Y-171000000D01*
X107000000Y-131000000D02*
X107586421Y-132126504D01*
X107000000Y-131000000D02*
X106413579Y-132126504D01*
X107000000Y-171000000D02*
X106413579Y-169873496D01*
X107000000Y-171000000D02*
X107586421Y-169873496D01*
X81304819Y-138166665D02*
X81304819Y-137499999D01*
X81304819Y-137499999D02*
X82304819Y-137928570D01*
X81304819Y-136642856D02*
X81304819Y-137119046D01*
X81304819Y-137119046D02*
X81781009Y-137166665D01*
X81781009Y-137166665D02*
X81733390Y-137119046D01*
X81733390Y-137119046D02*
X81685771Y-137023808D01*
X81685771Y-137023808D02*
X81685771Y-136785713D01*
X81685771Y-136785713D02*
X81733390Y-136690475D01*
X81733390Y-136690475D02*
X81781009Y-136642856D01*
X81781009Y-136642856D02*
X81876247Y-136595237D01*
X81876247Y-136595237D02*
X82114342Y-136595237D01*
X82114342Y-136595237D02*
X82209580Y-136642856D01*
X82209580Y-136642856D02*
X82257200Y-136690475D01*
X82257200Y-136690475D02*
X82304819Y-136785713D01*
X82304819Y-136785713D02*
X82304819Y-137023808D01*
X82304819Y-137023808D02*
X82257200Y-137119046D01*
X82257200Y-137119046D02*
X82209580Y-137166665D01*
X82209580Y-136166665D02*
X82257200Y-136119046D01*
X82257200Y-136119046D02*
X82304819Y-136166665D01*
X82304819Y-136166665D02*
X82257200Y-136214284D01*
X82257200Y-136214284D02*
X82209580Y-136166665D01*
X82209580Y-136166665D02*
X82304819Y-136166665D01*
X81304819Y-135499999D02*
X81304819Y-135404761D01*
X81304819Y-135404761D02*
X81352438Y-135309523D01*
X81352438Y-135309523D02*
X81400057Y-135261904D01*
X81400057Y-135261904D02*
X81495295Y-135214285D01*
X81495295Y-135214285D02*
X81685771Y-135166666D01*
X81685771Y-135166666D02*
X81923866Y-135166666D01*
X81923866Y-135166666D02*
X82114342Y-135214285D01*
X82114342Y-135214285D02*
X82209580Y-135261904D01*
X82209580Y-135261904D02*
X82257200Y-135309523D01*
X82257200Y-135309523D02*
X82304819Y-135404761D01*
X82304819Y-135404761D02*
X82304819Y-135499999D01*
X82304819Y-135499999D02*
X82257200Y-135595237D01*
X82257200Y-135595237D02*
X82209580Y-135642856D01*
X82209580Y-135642856D02*
X82114342Y-135690475D01*
X82114342Y-135690475D02*
X81923866Y-135738094D01*
X81923866Y-135738094D02*
X81685771Y-135738094D01*
X81685771Y-135738094D02*
X81495295Y-135690475D01*
X81495295Y-135690475D02*
X81400057Y-135642856D01*
X81400057Y-135642856D02*
X81352438Y-135595237D01*
X81352438Y-135595237D02*
X81304819Y-135499999D01*
X81304819Y-134547618D02*
X81304819Y-134452380D01*
X81304819Y-134452380D02*
X81352438Y-134357142D01*
X81352438Y-134357142D02*
X81400057Y-134309523D01*
X81400057Y-134309523D02*
X81495295Y-134261904D01*
X81495295Y-134261904D02*
X81685771Y-134214285D01*
X81685771Y-134214285D02*
X81923866Y-134214285D01*
X81923866Y-134214285D02*
X82114342Y-134261904D01*
X82114342Y-134261904D02*
X82209580Y-134309523D01*
X82209580Y-134309523D02*
X82257200Y-134357142D01*
X82257200Y-134357142D02*
X82304819Y-134452380D01*
X82304819Y-134452380D02*
X82304819Y-134547618D01*
X82304819Y-134547618D02*
X82257200Y-134642856D01*
X82257200Y-134642856D02*
X82209580Y-134690475D01*
X82209580Y-134690475D02*
X82114342Y-134738094D01*
X82114342Y-134738094D02*
X81923866Y-134785713D01*
X81923866Y-134785713D02*
X81685771Y-134785713D01*
X81685771Y-134785713D02*
X81495295Y-134738094D01*
X81495295Y-134738094D02*
X81400057Y-134690475D01*
X81400057Y-134690475D02*
X81352438Y-134642856D01*
X81352438Y-134642856D02*
X81304819Y-134547618D01*
X81304819Y-133595237D02*
X81304819Y-133499999D01*
X81304819Y-133499999D02*
X81352438Y-133404761D01*
X81352438Y-133404761D02*
X81400057Y-133357142D01*
X81400057Y-133357142D02*
X81495295Y-133309523D01*
X81495295Y-133309523D02*
X81685771Y-133261904D01*
X81685771Y-133261904D02*
X81923866Y-133261904D01*
X81923866Y-133261904D02*
X82114342Y-133309523D01*
X82114342Y-133309523D02*
X82209580Y-133357142D01*
X82209580Y-133357142D02*
X82257200Y-133404761D01*
X82257200Y-133404761D02*
X82304819Y-133499999D01*
X82304819Y-133499999D02*
X82304819Y-133595237D01*
X82304819Y-133595237D02*
X82257200Y-133690475D01*
X82257200Y-133690475D02*
X82209580Y-133738094D01*
X82209580Y-133738094D02*
X82114342Y-133785713D01*
X82114342Y-133785713D02*
X81923866Y-133833332D01*
X81923866Y-133833332D02*
X81685771Y-133833332D01*
X81685771Y-133833332D02*
X81495295Y-133785713D01*
X81495295Y-133785713D02*
X81400057Y-133738094D01*
X81400057Y-133738094D02*
X81352438Y-133690475D01*
X81352438Y-133690475D02*
X81304819Y-133595237D01*
X81304819Y-132642856D02*
X81304819Y-132547618D01*
X81304819Y-132547618D02*
X81352438Y-132452380D01*
X81352438Y-132452380D02*
X81400057Y-132404761D01*
X81400057Y-132404761D02*
X81495295Y-132357142D01*
X81495295Y-132357142D02*
X81685771Y-132309523D01*
X81685771Y-132309523D02*
X81923866Y-132309523D01*
X81923866Y-132309523D02*
X82114342Y-132357142D01*
X82114342Y-132357142D02*
X82209580Y-132404761D01*
X82209580Y-132404761D02*
X82257200Y-132452380D01*
X82257200Y-132452380D02*
X82304819Y-132547618D01*
X82304819Y-132547618D02*
X82304819Y-132642856D01*
X82304819Y-132642856D02*
X82257200Y-132738094D01*
X82257200Y-132738094D02*
X82209580Y-132785713D01*
X82209580Y-132785713D02*
X82114342Y-132833332D01*
X82114342Y-132833332D02*
X81923866Y-132880951D01*
X81923866Y-132880951D02*
X81685771Y-132880951D01*
X81685771Y-132880951D02*
X81495295Y-132833332D01*
X81495295Y-132833332D02*
X81400057Y-132785713D01*
X81400057Y-132785713D02*
X81352438Y-132738094D01*
X81352438Y-132738094D02*
X81304819Y-132642856D01*
X82304819Y-131119046D02*
X81638152Y-131119046D01*
X81733390Y-131119046D02*
X81685771Y-131071427D01*
X81685771Y-131071427D02*
X81638152Y-130976189D01*
X81638152Y-130976189D02*
X81638152Y-130833332D01*
X81638152Y-130833332D02*
X81685771Y-130738094D01*
X81685771Y-130738094D02*
X81781009Y-130690475D01*
X81781009Y-130690475D02*
X82304819Y-130690475D01*
X81781009Y-130690475D02*
X81685771Y-130642856D01*
X81685771Y-130642856D02*
X81638152Y-130547618D01*
X81638152Y-130547618D02*
X81638152Y-130404761D01*
X81638152Y-130404761D02*
X81685771Y-130309522D01*
X81685771Y-130309522D02*
X81781009Y-130261903D01*
X81781009Y-130261903D02*
X82304819Y-130261903D01*
X82304819Y-129785713D02*
X81638152Y-129785713D01*
X81733390Y-129785713D02*
X81685771Y-129738094D01*
X81685771Y-129738094D02*
X81638152Y-129642856D01*
X81638152Y-129642856D02*
X81638152Y-129499999D01*
X81638152Y-129499999D02*
X81685771Y-129404761D01*
X81685771Y-129404761D02*
X81781009Y-129357142D01*
X81781009Y-129357142D02*
X82304819Y-129357142D01*
X81781009Y-129357142D02*
X81685771Y-129309523D01*
X81685771Y-129309523D02*
X81638152Y-129214285D01*
X81638152Y-129214285D02*
X81638152Y-129071428D01*
X81638152Y-129071428D02*
X81685771Y-128976189D01*
X81685771Y-128976189D02*
X81781009Y-128928570D01*
X81781009Y-128928570D02*
X82304819Y-128928570D01*
X259500000Y-96000000D02*
X82413580Y-96000000D01*
X82413580Y-171000000D02*
X259500000Y-171000000D01*
X83000000Y-96000000D02*
X83000000Y-171000000D01*
X83000000Y-96000000D02*
X83000000Y-171000000D01*
X83000000Y-96000000D02*
X83586421Y-97126504D01*
X83000000Y-96000000D02*
X82413579Y-97126504D01*
X83000000Y-171000000D02*
X82413579Y-169873496D01*
X83000000Y-171000000D02*
X83586421Y-169873496D01*
X83000000Y-96000000D02*
X83000000Y-171000000D01*
X83000000Y-96000000D02*
X83000000Y-171000000D01*
X83000000Y-96000000D02*
X83586421Y-97126504D01*
X83000000Y-96000000D02*
X82413579Y-97126504D01*
X83000000Y-171000000D02*
X82413579Y-169873496D01*
X83000000Y-171000000D02*
X83586421Y-169873496D01*
X147880953Y-178400057D02*
X147928572Y-178352438D01*
X147928572Y-178352438D02*
X148023810Y-178304819D01*
X148023810Y-178304819D02*
X148261905Y-178304819D01*
X148261905Y-178304819D02*
X148357143Y-178352438D01*
X148357143Y-178352438D02*
X148404762Y-178400057D01*
X148404762Y-178400057D02*
X148452381Y-178495295D01*
X148452381Y-178495295D02*
X148452381Y-178590533D01*
X148452381Y-178590533D02*
X148404762Y-178733390D01*
X148404762Y-178733390D02*
X147833334Y-179304819D01*
X147833334Y-179304819D02*
X148452381Y-179304819D01*
X149357143Y-178304819D02*
X148880953Y-178304819D01*
X148880953Y-178304819D02*
X148833334Y-178781009D01*
X148833334Y-178781009D02*
X148880953Y-178733390D01*
X148880953Y-178733390D02*
X148976191Y-178685771D01*
X148976191Y-178685771D02*
X149214286Y-178685771D01*
X149214286Y-178685771D02*
X149309524Y-178733390D01*
X149309524Y-178733390D02*
X149357143Y-178781009D01*
X149357143Y-178781009D02*
X149404762Y-178876247D01*
X149404762Y-178876247D02*
X149404762Y-179114342D01*
X149404762Y-179114342D02*
X149357143Y-179209580D01*
X149357143Y-179209580D02*
X149309524Y-179257200D01*
X149309524Y-179257200D02*
X149214286Y-179304819D01*
X149214286Y-179304819D02*
X148976191Y-179304819D01*
X148976191Y-179304819D02*
X148880953Y-179257200D01*
X148880953Y-179257200D02*
X148833334Y-179209580D01*
X149833334Y-179209580D02*
X149880953Y-179257200D01*
X149880953Y-179257200D02*
X149833334Y-179304819D01*
X149833334Y-179304819D02*
X149785715Y-179257200D01*
X149785715Y-179257200D02*
X149833334Y-179209580D01*
X149833334Y-179209580D02*
X149833334Y-179304819D01*
X150500000Y-178304819D02*
X150595238Y-178304819D01*
X150595238Y-178304819D02*
X150690476Y-178352438D01*
X150690476Y-178352438D02*
X150738095Y-178400057D01*
X150738095Y-178400057D02*
X150785714Y-178495295D01*
X150785714Y-178495295D02*
X150833333Y-178685771D01*
X150833333Y-178685771D02*
X150833333Y-178923866D01*
X150833333Y-178923866D02*
X150785714Y-179114342D01*
X150785714Y-179114342D02*
X150738095Y-179209580D01*
X150738095Y-179209580D02*
X150690476Y-179257200D01*
X150690476Y-179257200D02*
X150595238Y-179304819D01*
X150595238Y-179304819D02*
X150500000Y-179304819D01*
X150500000Y-179304819D02*
X150404762Y-179257200D01*
X150404762Y-179257200D02*
X150357143Y-179209580D01*
X150357143Y-179209580D02*
X150309524Y-179114342D01*
X150309524Y-179114342D02*
X150261905Y-178923866D01*
X150261905Y-178923866D02*
X150261905Y-178685771D01*
X150261905Y-178685771D02*
X150309524Y-178495295D01*
X150309524Y-178495295D02*
X150357143Y-178400057D01*
X150357143Y-178400057D02*
X150404762Y-178352438D01*
X150404762Y-178352438D02*
X150500000Y-178304819D01*
X151452381Y-178304819D02*
X151547619Y-178304819D01*
X151547619Y-178304819D02*
X151642857Y-178352438D01*
X151642857Y-178352438D02*
X151690476Y-178400057D01*
X151690476Y-178400057D02*
X151738095Y-178495295D01*
X151738095Y-178495295D02*
X151785714Y-178685771D01*
X151785714Y-178685771D02*
X151785714Y-178923866D01*
X151785714Y-178923866D02*
X151738095Y-179114342D01*
X151738095Y-179114342D02*
X151690476Y-179209580D01*
X151690476Y-179209580D02*
X151642857Y-179257200D01*
X151642857Y-179257200D02*
X151547619Y-179304819D01*
X151547619Y-179304819D02*
X151452381Y-179304819D01*
X151452381Y-179304819D02*
X151357143Y-179257200D01*
X151357143Y-179257200D02*
X151309524Y-179209580D01*
X151309524Y-179209580D02*
X151261905Y-179114342D01*
X151261905Y-179114342D02*
X151214286Y-178923866D01*
X151214286Y-178923866D02*
X151214286Y-178685771D01*
X151214286Y-178685771D02*
X151261905Y-178495295D01*
X151261905Y-178495295D02*
X151309524Y-178400057D01*
X151309524Y-178400057D02*
X151357143Y-178352438D01*
X151357143Y-178352438D02*
X151452381Y-178304819D01*
X152404762Y-178304819D02*
X152500000Y-178304819D01*
X152500000Y-178304819D02*
X152595238Y-178352438D01*
X152595238Y-178352438D02*
X152642857Y-178400057D01*
X152642857Y-178400057D02*
X152690476Y-178495295D01*
X152690476Y-178495295D02*
X152738095Y-178685771D01*
X152738095Y-178685771D02*
X152738095Y-178923866D01*
X152738095Y-178923866D02*
X152690476Y-179114342D01*
X152690476Y-179114342D02*
X152642857Y-179209580D01*
X152642857Y-179209580D02*
X152595238Y-179257200D01*
X152595238Y-179257200D02*
X152500000Y-179304819D01*
X152500000Y-179304819D02*
X152404762Y-179304819D01*
X152404762Y-179304819D02*
X152309524Y-179257200D01*
X152309524Y-179257200D02*
X152261905Y-179209580D01*
X152261905Y-179209580D02*
X152214286Y-179114342D01*
X152214286Y-179114342D02*
X152166667Y-178923866D01*
X152166667Y-178923866D02*
X152166667Y-178685771D01*
X152166667Y-178685771D02*
X152214286Y-178495295D01*
X152214286Y-178495295D02*
X152261905Y-178400057D01*
X152261905Y-178400057D02*
X152309524Y-178352438D01*
X152309524Y-178352438D02*
X152404762Y-178304819D01*
X153357143Y-178304819D02*
X153452381Y-178304819D01*
X153452381Y-178304819D02*
X153547619Y-178352438D01*
X153547619Y-178352438D02*
X153595238Y-178400057D01*
X153595238Y-178400057D02*
X153642857Y-178495295D01*
X153642857Y-178495295D02*
X153690476Y-178685771D01*
X153690476Y-178685771D02*
X153690476Y-178923866D01*
X153690476Y-178923866D02*
X153642857Y-179114342D01*
X153642857Y-179114342D02*
X153595238Y-179209580D01*
X153595238Y-179209580D02*
X153547619Y-179257200D01*
X153547619Y-179257200D02*
X153452381Y-179304819D01*
X153452381Y-179304819D02*
X153357143Y-179304819D01*
X153357143Y-179304819D02*
X153261905Y-179257200D01*
X153261905Y-179257200D02*
X153214286Y-179209580D01*
X153214286Y-179209580D02*
X153166667Y-179114342D01*
X153166667Y-179114342D02*
X153119048Y-178923866D01*
X153119048Y-178923866D02*
X153119048Y-178685771D01*
X153119048Y-178685771D02*
X153166667Y-178495295D01*
X153166667Y-178495295D02*
X153214286Y-178400057D01*
X153214286Y-178400057D02*
X153261905Y-178352438D01*
X153261905Y-178352438D02*
X153357143Y-178304819D01*
X154880953Y-179304819D02*
X154880953Y-178638152D01*
X154880953Y-178733390D02*
X154928572Y-178685771D01*
X154928572Y-178685771D02*
X155023810Y-178638152D01*
X155023810Y-178638152D02*
X155166667Y-178638152D01*
X155166667Y-178638152D02*
X155261905Y-178685771D01*
X155261905Y-178685771D02*
X155309524Y-178781009D01*
X155309524Y-178781009D02*
X155309524Y-179304819D01*
X155309524Y-178781009D02*
X155357143Y-178685771D01*
X155357143Y-178685771D02*
X155452381Y-178638152D01*
X155452381Y-178638152D02*
X155595238Y-178638152D01*
X155595238Y-178638152D02*
X155690477Y-178685771D01*
X155690477Y-178685771D02*
X155738096Y-178781009D01*
X155738096Y-178781009D02*
X155738096Y-179304819D01*
X156214286Y-179304819D02*
X156214286Y-178638152D01*
X156214286Y-178733390D02*
X156261905Y-178685771D01*
X156261905Y-178685771D02*
X156357143Y-178638152D01*
X156357143Y-178638152D02*
X156500000Y-178638152D01*
X156500000Y-178638152D02*
X156595238Y-178685771D01*
X156595238Y-178685771D02*
X156642857Y-178781009D01*
X156642857Y-178781009D02*
X156642857Y-179304819D01*
X156642857Y-178781009D02*
X156690476Y-178685771D01*
X156690476Y-178685771D02*
X156785714Y-178638152D01*
X156785714Y-178638152D02*
X156928571Y-178638152D01*
X156928571Y-178638152D02*
X157023810Y-178685771D01*
X157023810Y-178685771D02*
X157071429Y-178781009D01*
X157071429Y-178781009D02*
X157071429Y-179304819D01*
X165000000Y-131500000D02*
X165000000Y-180586420D01*
X140000000Y-180586420D02*
X140000000Y-134000000D01*
X165000000Y-180000000D02*
X140000000Y-180000000D01*
X165000000Y-180000000D02*
X140000000Y-180000000D01*
X165000000Y-180000000D02*
X163873496Y-180586421D01*
X165000000Y-180000000D02*
X163873496Y-179413579D01*
X140000000Y-180000000D02*
X141126504Y-179413579D01*
X140000000Y-180000000D02*
X141126504Y-180586421D01*
X165000000Y-180000000D02*
X140000000Y-180000000D01*
X165000000Y-180000000D02*
X140000000Y-180000000D01*
X165000000Y-180000000D02*
X163873496Y-180586421D01*
X165000000Y-180000000D02*
X163873496Y-179413579D01*
X140000000Y-180000000D02*
X141126504Y-179413579D01*
X140000000Y-180000000D02*
X141126504Y-180586421D01*
X153529887Y-56053990D02*
X153387030Y-56006371D01*
X153387030Y-56006371D02*
X153339411Y-55958752D01*
X153339411Y-55958752D02*
X153291792Y-55863514D01*
X153291792Y-55863514D02*
X153291792Y-55720657D01*
X153291792Y-55720657D02*
X153339411Y-55625419D01*
X153339411Y-55625419D02*
X153387030Y-55577800D01*
X153387030Y-55577800D02*
X153482268Y-55530180D01*
X153482268Y-55530180D02*
X153863220Y-55530180D01*
X153863220Y-55530180D02*
X153863220Y-56530180D01*
X153863220Y-56530180D02*
X153529887Y-56530180D01*
X153529887Y-56530180D02*
X153434649Y-56482561D01*
X153434649Y-56482561D02*
X153387030Y-56434942D01*
X153387030Y-56434942D02*
X153339411Y-56339704D01*
X153339411Y-56339704D02*
X153339411Y-56244466D01*
X153339411Y-56244466D02*
X153387030Y-56149228D01*
X153387030Y-56149228D02*
X153434649Y-56101609D01*
X153434649Y-56101609D02*
X153529887Y-56053990D01*
X153529887Y-56053990D02*
X153863220Y-56053990D01*
X152720363Y-55530180D02*
X152815601Y-55577800D01*
X152815601Y-55577800D02*
X152863220Y-55625419D01*
X152863220Y-55625419D02*
X152910839Y-55720657D01*
X152910839Y-55720657D02*
X152910839Y-56006371D01*
X152910839Y-56006371D02*
X152863220Y-56101609D01*
X152863220Y-56101609D02*
X152815601Y-56149228D01*
X152815601Y-56149228D02*
X152720363Y-56196847D01*
X152720363Y-56196847D02*
X152577506Y-56196847D01*
X152577506Y-56196847D02*
X152482268Y-56149228D01*
X152482268Y-56149228D02*
X152434649Y-56101609D01*
X152434649Y-56101609D02*
X152387030Y-56006371D01*
X152387030Y-56006371D02*
X152387030Y-55720657D01*
X152387030Y-55720657D02*
X152434649Y-55625419D01*
X152434649Y-55625419D02*
X152482268Y-55577800D01*
X152482268Y-55577800D02*
X152577506Y-55530180D01*
X152577506Y-55530180D02*
X152720363Y-55530180D01*
X151529887Y-55530180D02*
X151529887Y-56053990D01*
X151529887Y-56053990D02*
X151577506Y-56149228D01*
X151577506Y-56149228D02*
X151672744Y-56196847D01*
X151672744Y-56196847D02*
X151863220Y-56196847D01*
X151863220Y-56196847D02*
X151958458Y-56149228D01*
X151529887Y-55577800D02*
X151625125Y-55530180D01*
X151625125Y-55530180D02*
X151863220Y-55530180D01*
X151863220Y-55530180D02*
X151958458Y-55577800D01*
X151958458Y-55577800D02*
X152006077Y-55673038D01*
X152006077Y-55673038D02*
X152006077Y-55768276D01*
X152006077Y-55768276D02*
X151958458Y-55863514D01*
X151958458Y-55863514D02*
X151863220Y-55911133D01*
X151863220Y-55911133D02*
X151625125Y-55911133D01*
X151625125Y-55911133D02*
X151529887Y-55958752D01*
X151053696Y-55530180D02*
X151053696Y-56196847D01*
X151053696Y-56006371D02*
X151006077Y-56101609D01*
X151006077Y-56101609D02*
X150958458Y-56149228D01*
X150958458Y-56149228D02*
X150863220Y-56196847D01*
X150863220Y-56196847D02*
X150767982Y-56196847D01*
X150006077Y-55530180D02*
X150006077Y-56530180D01*
X150006077Y-55577800D02*
X150101315Y-55530180D01*
X150101315Y-55530180D02*
X150291791Y-55530180D01*
X150291791Y-55530180D02*
X150387029Y-55577800D01*
X150387029Y-55577800D02*
X150434648Y-55625419D01*
X150434648Y-55625419D02*
X150482267Y-55720657D01*
X150482267Y-55720657D02*
X150482267Y-56006371D01*
X150482267Y-56006371D02*
X150434648Y-56101609D01*
X150434648Y-56101609D02*
X150387029Y-56149228D01*
X150387029Y-56149228D02*
X150291791Y-56196847D01*
X150291791Y-56196847D02*
X150101315Y-56196847D01*
X150101315Y-56196847D02*
X150006077Y-56149228D01*
X148767981Y-56053990D02*
X148434648Y-56053990D01*
X148291791Y-55530180D02*
X148767981Y-55530180D01*
X148767981Y-55530180D02*
X148767981Y-56530180D01*
X148767981Y-56530180D02*
X148291791Y-56530180D01*
X147434648Y-55530180D02*
X147434648Y-56530180D01*
X147434648Y-55577800D02*
X147529886Y-55530180D01*
X147529886Y-55530180D02*
X147720362Y-55530180D01*
X147720362Y-55530180D02*
X147815600Y-55577800D01*
X147815600Y-55577800D02*
X147863219Y-55625419D01*
X147863219Y-55625419D02*
X147910838Y-55720657D01*
X147910838Y-55720657D02*
X147910838Y-56006371D01*
X147910838Y-56006371D02*
X147863219Y-56101609D01*
X147863219Y-56101609D02*
X147815600Y-56149228D01*
X147815600Y-56149228D02*
X147720362Y-56196847D01*
X147720362Y-56196847D02*
X147529886Y-56196847D01*
X147529886Y-56196847D02*
X147434648Y-56149228D01*
X146529886Y-56196847D02*
X146529886Y-55387323D01*
X146529886Y-55387323D02*
X146577505Y-55292085D01*
X146577505Y-55292085D02*
X146625124Y-55244466D01*
X146625124Y-55244466D02*
X146720362Y-55196847D01*
X146720362Y-55196847D02*
X146863219Y-55196847D01*
X146863219Y-55196847D02*
X146958457Y-55244466D01*
X146529886Y-55577800D02*
X146625124Y-55530180D01*
X146625124Y-55530180D02*
X146815600Y-55530180D01*
X146815600Y-55530180D02*
X146910838Y-55577800D01*
X146910838Y-55577800D02*
X146958457Y-55625419D01*
X146958457Y-55625419D02*
X147006076Y-55720657D01*
X147006076Y-55720657D02*
X147006076Y-56006371D01*
X147006076Y-56006371D02*
X146958457Y-56101609D01*
X146958457Y-56101609D02*
X146910838Y-56149228D01*
X146910838Y-56149228D02*
X146815600Y-56196847D01*
X146815600Y-56196847D02*
X146625124Y-56196847D01*
X146625124Y-56196847D02*
X146529886Y-56149228D01*
X145672743Y-55577800D02*
X145767981Y-55530180D01*
X145767981Y-55530180D02*
X145958457Y-55530180D01*
X145958457Y-55530180D02*
X146053695Y-55577800D01*
X146053695Y-55577800D02*
X146101314Y-55673038D01*
X146101314Y-55673038D02*
X146101314Y-56053990D01*
X146101314Y-56053990D02*
X146053695Y-56149228D01*
X146053695Y-56149228D02*
X145958457Y-56196847D01*
X145958457Y-56196847D02*
X145767981Y-56196847D01*
X145767981Y-56196847D02*
X145672743Y-56149228D01*
X145672743Y-56149228D02*
X145625124Y-56053990D01*
X145625124Y-56053990D02*
X145625124Y-55958752D01*
X145625124Y-55958752D02*
X146101314Y-55863514D01*
D12*
X201714285Y-54383890D02*
X201714285Y-54883890D01*
X201714285Y-54883890D02*
X201523809Y-54883890D01*
X201523809Y-54883890D02*
X201476190Y-54860080D01*
X201476190Y-54860080D02*
X201452380Y-54836271D01*
X201452380Y-54836271D02*
X201428571Y-54788652D01*
X201428571Y-54788652D02*
X201428571Y-54717223D01*
X201428571Y-54717223D02*
X201452380Y-54669604D01*
X201452380Y-54669604D02*
X201476190Y-54645795D01*
X201476190Y-54645795D02*
X201523809Y-54621985D01*
X201523809Y-54621985D02*
X201714285Y-54621985D01*
X200928571Y-54431509D02*
X200952380Y-54407700D01*
X200952380Y-54407700D02*
X201023809Y-54383890D01*
X201023809Y-54383890D02*
X201071428Y-54383890D01*
X201071428Y-54383890D02*
X201142856Y-54407700D01*
X201142856Y-54407700D02*
X201190475Y-54455319D01*
X201190475Y-54455319D02*
X201214285Y-54502938D01*
X201214285Y-54502938D02*
X201238094Y-54598176D01*
X201238094Y-54598176D02*
X201238094Y-54669604D01*
X201238094Y-54669604D02*
X201214285Y-54764842D01*
X201214285Y-54764842D02*
X201190475Y-54812461D01*
X201190475Y-54812461D02*
X201142856Y-54860080D01*
X201142856Y-54860080D02*
X201071428Y-54883890D01*
X201071428Y-54883890D02*
X201023809Y-54883890D01*
X201023809Y-54883890D02*
X200952380Y-54860080D01*
X200952380Y-54860080D02*
X200928571Y-54836271D01*
X200547618Y-54645795D02*
X200476190Y-54621985D01*
X200476190Y-54621985D02*
X200452380Y-54598176D01*
X200452380Y-54598176D02*
X200428571Y-54550557D01*
X200428571Y-54550557D02*
X200428571Y-54479128D01*
X200428571Y-54479128D02*
X200452380Y-54431509D01*
X200452380Y-54431509D02*
X200476190Y-54407700D01*
X200476190Y-54407700D02*
X200523809Y-54383890D01*
X200523809Y-54383890D02*
X200714285Y-54383890D01*
X200714285Y-54383890D02*
X200714285Y-54883890D01*
X200714285Y-54883890D02*
X200547618Y-54883890D01*
X200547618Y-54883890D02*
X200499999Y-54860080D01*
X200499999Y-54860080D02*
X200476190Y-54836271D01*
X200476190Y-54836271D02*
X200452380Y-54788652D01*
X200452380Y-54788652D02*
X200452380Y-54741033D01*
X200452380Y-54741033D02*
X200476190Y-54693414D01*
X200476190Y-54693414D02*
X200499999Y-54669604D01*
X200499999Y-54669604D02*
X200547618Y-54645795D01*
X200547618Y-54645795D02*
X200714285Y-54645795D01*
X199833333Y-54645795D02*
X199666666Y-54645795D01*
X199595238Y-54383890D02*
X199833333Y-54383890D01*
X199833333Y-54383890D02*
X199833333Y-54883890D01*
X199833333Y-54883890D02*
X199595238Y-54883890D01*
X199166666Y-54383890D02*
X199166666Y-54883890D01*
X199166666Y-54407700D02*
X199214285Y-54383890D01*
X199214285Y-54383890D02*
X199309523Y-54383890D01*
X199309523Y-54383890D02*
X199357142Y-54407700D01*
X199357142Y-54407700D02*
X199380952Y-54431509D01*
X199380952Y-54431509D02*
X199404761Y-54479128D01*
X199404761Y-54479128D02*
X199404761Y-54621985D01*
X199404761Y-54621985D02*
X199380952Y-54669604D01*
X199380952Y-54669604D02*
X199357142Y-54693414D01*
X199357142Y-54693414D02*
X199309523Y-54717223D01*
X199309523Y-54717223D02*
X199214285Y-54717223D01*
X199214285Y-54717223D02*
X199166666Y-54693414D01*
X198714285Y-54717223D02*
X198714285Y-54312461D01*
X198714285Y-54312461D02*
X198738095Y-54264842D01*
X198738095Y-54264842D02*
X198761904Y-54241033D01*
X198761904Y-54241033D02*
X198809523Y-54217223D01*
X198809523Y-54217223D02*
X198880952Y-54217223D01*
X198880952Y-54217223D02*
X198928571Y-54241033D01*
X198714285Y-54407700D02*
X198761904Y-54383890D01*
X198761904Y-54383890D02*
X198857142Y-54383890D01*
X198857142Y-54383890D02*
X198904761Y-54407700D01*
X198904761Y-54407700D02*
X198928571Y-54431509D01*
X198928571Y-54431509D02*
X198952380Y-54479128D01*
X198952380Y-54479128D02*
X198952380Y-54621985D01*
X198952380Y-54621985D02*
X198928571Y-54669604D01*
X198928571Y-54669604D02*
X198904761Y-54693414D01*
X198904761Y-54693414D02*
X198857142Y-54717223D01*
X198857142Y-54717223D02*
X198761904Y-54717223D01*
X198761904Y-54717223D02*
X198714285Y-54693414D01*
X198285714Y-54407700D02*
X198333333Y-54383890D01*
X198333333Y-54383890D02*
X198428571Y-54383890D01*
X198428571Y-54383890D02*
X198476190Y-54407700D01*
X198476190Y-54407700D02*
X198499999Y-54455319D01*
X198499999Y-54455319D02*
X198499999Y-54645795D01*
X198499999Y-54645795D02*
X198476190Y-54693414D01*
X198476190Y-54693414D02*
X198428571Y-54717223D01*
X198428571Y-54717223D02*
X198333333Y-54717223D01*
X198333333Y-54717223D02*
X198285714Y-54693414D01*
X198285714Y-54693414D02*
X198261904Y-54645795D01*
X198261904Y-54645795D02*
X198261904Y-54598176D01*
X198261904Y-54598176D02*
X198499999Y-54550557D01*
D13*
%TO.C,H5*%
G36*
X219171428Y-162505507D02*
G01*
X219171428Y-165941256D01*
X219128571Y-165941256D01*
X219085714Y-165941256D01*
X219085714Y-162505507D01*
X219085714Y-159069758D01*
X219128571Y-159069758D01*
X219171428Y-159069758D01*
X219171428Y-162505507D01*
G37*
G36*
X219514285Y-162057633D02*
G01*
X219514285Y-165045507D01*
X219471428Y-165045507D01*
X219428571Y-165045507D01*
X219428571Y-162057633D01*
X219428571Y-159069758D01*
X219471428Y-159069758D01*
X219514285Y-159069758D01*
X219514285Y-162057633D01*
G37*
G36*
X220014285Y-162057633D02*
G01*
X220014285Y-165045507D01*
X219885714Y-165045507D01*
X219757142Y-165045507D01*
X219757142Y-162057633D01*
X219757142Y-159069758D01*
X219885714Y-159069758D01*
X220014285Y-159069758D01*
X220014285Y-162057633D01*
G37*
G36*
X220225000Y-159072348D02*
G01*
X220350000Y-159075893D01*
X220350000Y-162057633D01*
X220350000Y-165039372D01*
X220225000Y-165042917D01*
X220100000Y-165046462D01*
X220100000Y-162057633D01*
X220100000Y-159068803D01*
X220225000Y-159072348D01*
G37*
G36*
X220514285Y-162057633D02*
G01*
X220514285Y-165045507D01*
X220471428Y-165045507D01*
X220428571Y-165045507D01*
X220428571Y-162057633D01*
X220428571Y-159069758D01*
X220471428Y-159069758D01*
X220514285Y-159069758D01*
X220514285Y-162057633D01*
G37*
G36*
X220871428Y-162057633D02*
G01*
X220871428Y-165045507D01*
X220742857Y-165045507D01*
X220614285Y-165045507D01*
X220614285Y-162057633D01*
X220614285Y-159069758D01*
X220742857Y-159069758D01*
X220871428Y-159069758D01*
X220871428Y-162057633D01*
G37*
G36*
X221028571Y-162057633D02*
G01*
X221028571Y-165045507D01*
X220985714Y-165045507D01*
X220942857Y-165045507D01*
X220942857Y-162057633D01*
X220942857Y-159069758D01*
X220985714Y-159069758D01*
X221028571Y-159069758D01*
X221028571Y-162057633D01*
G37*
G36*
X221542857Y-162057633D02*
G01*
X221542857Y-165045507D01*
X221492857Y-165045507D01*
X221442857Y-165045507D01*
X221442857Y-162057633D01*
X221442857Y-159069758D01*
X221492857Y-159069758D01*
X221542857Y-159069758D01*
X221542857Y-162057633D01*
G37*
G36*
X221871428Y-162057633D02*
G01*
X221871428Y-165045507D01*
X221742857Y-165045507D01*
X221614285Y-165045507D01*
X221614285Y-162057633D01*
X221614285Y-159069758D01*
X221742857Y-159069758D01*
X221871428Y-159069758D01*
X221871428Y-162057633D01*
G37*
G36*
X222057142Y-162057633D02*
G01*
X222057142Y-165045507D01*
X222014285Y-165045507D01*
X221971428Y-165045507D01*
X221971428Y-162057633D01*
X221971428Y-159069758D01*
X222014285Y-159069758D01*
X222057142Y-159069758D01*
X222057142Y-162057633D01*
G37*
G36*
X222385714Y-162057633D02*
G01*
X222385714Y-165045507D01*
X222257142Y-165045507D01*
X222128571Y-165045507D01*
X222128571Y-162057633D01*
X222128571Y-159069758D01*
X222257142Y-159069758D01*
X222385714Y-159069758D01*
X222385714Y-162057633D01*
G37*
G36*
X222728571Y-162057633D02*
G01*
X222728571Y-165045507D01*
X222678571Y-165045507D01*
X222628571Y-165045507D01*
X222628571Y-162057633D01*
X222628571Y-159069758D01*
X222678571Y-159069758D01*
X222728571Y-159069758D01*
X222728571Y-162057633D01*
G37*
G36*
X222885714Y-162057633D02*
G01*
X222885714Y-165045507D01*
X222842857Y-165045507D01*
X222800000Y-165045507D01*
X222800000Y-162057633D01*
X222800000Y-159069758D01*
X222842857Y-159069758D01*
X222885714Y-159069758D01*
X222885714Y-162057633D01*
G37*
G36*
X223228571Y-162057633D02*
G01*
X223228571Y-165045507D01*
X223100000Y-165045507D01*
X222971428Y-165045507D01*
X222971428Y-162057633D01*
X222971428Y-159069758D01*
X223100000Y-159069758D01*
X223228571Y-159069758D01*
X223228571Y-162057633D01*
G37*
G36*
X223914285Y-162057633D02*
G01*
X223914285Y-165045507D01*
X223785714Y-165045507D01*
X223657142Y-165045507D01*
X223657142Y-162057633D01*
X223657142Y-159069758D01*
X223785714Y-159069758D01*
X223914285Y-159069758D01*
X223914285Y-162057633D01*
G37*
G36*
X224242857Y-162057633D02*
G01*
X224242857Y-165045507D01*
X224200000Y-165045507D01*
X224157142Y-165045507D01*
X224157142Y-162057633D01*
X224157142Y-159069758D01*
X224200000Y-159069758D01*
X224242857Y-159069758D01*
X224242857Y-162057633D01*
G37*
G36*
X224410743Y-162060700D02*
G01*
X224414343Y-165045507D01*
X224364285Y-165045507D01*
X224314227Y-165045507D01*
X224317828Y-162060700D01*
X224321428Y-159075893D01*
X224364285Y-159075893D01*
X224407142Y-159075893D01*
X224410743Y-162060700D01*
G37*
G36*
X224571428Y-162057633D02*
G01*
X224571428Y-165045507D01*
X224528571Y-165045507D01*
X224485714Y-165045507D01*
X224485714Y-162057633D01*
X224485714Y-159069758D01*
X224528571Y-159069758D01*
X224571428Y-159069758D01*
X224571428Y-162057633D01*
G37*
G36*
X224757142Y-162057633D02*
G01*
X224757142Y-165045507D01*
X224714285Y-165045507D01*
X224671428Y-165045507D01*
X224671428Y-162057633D01*
X224671428Y-159069758D01*
X224714285Y-159069758D01*
X224757142Y-159069758D01*
X224757142Y-162057633D01*
G37*
G36*
X224928571Y-162057633D02*
G01*
X224928571Y-165045507D01*
X224885714Y-165045507D01*
X224842857Y-165045507D01*
X224842857Y-162057633D01*
X224842857Y-159069758D01*
X224885714Y-159069758D01*
X224928571Y-159069758D01*
X224928571Y-162057633D01*
G37*
G36*
X225428571Y-162057633D02*
G01*
X225428571Y-165045507D01*
X225300000Y-165045507D01*
X225171428Y-165045507D01*
X225171428Y-162057633D01*
X225171428Y-159069758D01*
X225300000Y-159069758D01*
X225428571Y-159069758D01*
X225428571Y-162057633D01*
G37*
G36*
X225928571Y-162057633D02*
G01*
X225928571Y-165045507D01*
X225800000Y-165045507D01*
X225671428Y-165045507D01*
X225671428Y-162057633D01*
X225671428Y-159069758D01*
X225800000Y-159069758D01*
X225928571Y-159069758D01*
X225928571Y-162057633D01*
G37*
G36*
X226285714Y-162057633D02*
G01*
X226285714Y-165045507D01*
X226157142Y-165045507D01*
X226028571Y-165045507D01*
X226028571Y-162057633D01*
X226028571Y-159069758D01*
X226157142Y-159069758D01*
X226285714Y-159069758D01*
X226285714Y-162057633D01*
G37*
G36*
X226403571Y-159072048D02*
G01*
X226450000Y-159075893D01*
X226453600Y-162060700D01*
X226457200Y-165045507D01*
X226407171Y-165045507D01*
X226357142Y-165045507D01*
X226357142Y-162056855D01*
X226357142Y-159068203D01*
X226403571Y-159072048D01*
G37*
G36*
X226821521Y-159072348D02*
G01*
X226943042Y-159075893D01*
X226943042Y-162057633D01*
X226943042Y-165039372D01*
X226821521Y-165042917D01*
X226700000Y-165046462D01*
X226700000Y-162057633D01*
X226700000Y-159068803D01*
X226821521Y-159072348D01*
G37*
G36*
X227114285Y-162057633D02*
G01*
X227114285Y-165045507D01*
X227071428Y-165045507D01*
X227028571Y-165045507D01*
X227028571Y-162057633D01*
X227028571Y-159069758D01*
X227071428Y-159069758D01*
X227114285Y-159069758D01*
X227114285Y-162057633D01*
G37*
G36*
X227285714Y-162057633D02*
G01*
X227285714Y-165045507D01*
X227242857Y-165045507D01*
X227200000Y-165045507D01*
X227200000Y-162057633D01*
X227200000Y-159069758D01*
X227242857Y-159069758D01*
X227285714Y-159069758D01*
X227285714Y-162057633D01*
G37*
G36*
X227971428Y-162505507D02*
G01*
X227971428Y-165941256D01*
X227928571Y-165941256D01*
X227885714Y-165941256D01*
X227885714Y-162505507D01*
X227885714Y-159069758D01*
X227928571Y-159069758D01*
X227971428Y-159069758D01*
X227971428Y-162505507D01*
G37*
G36*
X228614285Y-162057633D02*
G01*
X228614285Y-165045507D01*
X228485714Y-165045507D01*
X228357142Y-165045507D01*
X228357142Y-162057633D01*
X228357142Y-159069758D01*
X228485714Y-159069758D01*
X228614285Y-159069758D01*
X228614285Y-162057633D01*
G37*
G36*
X229114285Y-162057633D02*
G01*
X229114285Y-165045507D01*
X228985714Y-165045507D01*
X228857142Y-165045507D01*
X228857142Y-162057633D01*
X228857142Y-159069758D01*
X228985714Y-159069758D01*
X229114285Y-159069758D01*
X229114285Y-162057633D01*
G37*
G36*
X229800000Y-162057633D02*
G01*
X229800000Y-165045507D01*
X229757142Y-165045507D01*
X229714285Y-165045507D01*
X229714285Y-162057633D01*
X229714285Y-159069758D01*
X229757142Y-159069758D01*
X229800000Y-159069758D01*
X229800000Y-162057633D01*
G37*
G36*
X230085812Y-159072048D02*
G01*
X230128768Y-159075893D01*
X230128932Y-162057633D01*
X230129097Y-165039372D01*
X230085977Y-165043217D01*
X230042857Y-165047062D01*
X230042857Y-162057633D01*
X230042857Y-159068203D01*
X230085812Y-159072048D01*
G37*
G36*
X230471428Y-162057633D02*
G01*
X230471428Y-165045507D01*
X230342857Y-165045507D01*
X230214285Y-165045507D01*
X230214285Y-162057633D01*
X230214285Y-159069758D01*
X230342857Y-159069758D01*
X230471428Y-159069758D01*
X230471428Y-162057633D01*
G37*
G36*
X231157142Y-162057633D02*
G01*
X231157142Y-165045507D01*
X231028571Y-165045507D01*
X230900000Y-165045507D01*
X230900000Y-162057633D01*
X230900000Y-159069758D01*
X231028571Y-159069758D01*
X231157142Y-159069758D01*
X231157142Y-162057633D01*
G37*
G36*
X231328571Y-162057633D02*
G01*
X231328571Y-165045507D01*
X231278571Y-165045507D01*
X231228571Y-165045507D01*
X231228571Y-162057633D01*
X231228571Y-159069758D01*
X231278571Y-159069758D01*
X231328571Y-159069758D01*
X231328571Y-162057633D01*
G37*
G36*
X231657142Y-162057633D02*
G01*
X231657142Y-165045507D01*
X231614285Y-165045507D01*
X231571428Y-165045507D01*
X231571428Y-162057633D01*
X231571428Y-159069758D01*
X231614285Y-159069758D01*
X231657142Y-159069758D01*
X231657142Y-162057633D01*
G37*
G36*
X232157142Y-162057633D02*
G01*
X232157142Y-165045507D01*
X232114285Y-165045507D01*
X232071428Y-165045507D01*
X232071428Y-162057633D01*
X232071428Y-159069758D01*
X232114285Y-159069758D01*
X232157142Y-159069758D01*
X232157142Y-162057633D01*
G37*
G36*
X232342857Y-162057633D02*
G01*
X232342857Y-165045507D01*
X232300000Y-165045507D01*
X232257142Y-165045507D01*
X232257142Y-162057633D01*
X232257142Y-159069758D01*
X232300000Y-159069758D01*
X232342857Y-159069758D01*
X232342857Y-162057633D01*
G37*
G36*
X233014285Y-162056855D02*
G01*
X233014285Y-165045507D01*
X232964256Y-165045507D01*
X232914227Y-165045507D01*
X232917828Y-162060700D01*
X232921428Y-159075893D01*
X232967857Y-159072048D01*
X233014285Y-159068203D01*
X233014285Y-162056855D01*
G37*
G36*
X233342857Y-162057633D02*
G01*
X233342857Y-165045507D01*
X233214285Y-165045507D01*
X233085714Y-165045507D01*
X233085714Y-162057633D01*
X233085714Y-159069758D01*
X233214285Y-159069758D01*
X233342857Y-159069758D01*
X233342857Y-162057633D01*
G37*
G36*
X233514285Y-162057633D02*
G01*
X233514285Y-165045507D01*
X233471428Y-165045507D01*
X233428571Y-165045507D01*
X233428571Y-162057633D01*
X233428571Y-159069758D01*
X233471428Y-159069758D01*
X233514285Y-159069758D01*
X233514285Y-162057633D01*
G37*
G36*
X233700000Y-162057633D02*
G01*
X233700000Y-165045507D01*
X233650000Y-165045507D01*
X233600000Y-165045507D01*
X233600000Y-162057633D01*
X233600000Y-159069758D01*
X233650000Y-159069758D01*
X233700000Y-159069758D01*
X233700000Y-162057633D01*
G37*
G36*
X233857142Y-162057633D02*
G01*
X233857142Y-165045507D01*
X233814285Y-165045507D01*
X233771428Y-165045507D01*
X233771428Y-162057633D01*
X233771428Y-159069758D01*
X233814285Y-159069758D01*
X233857142Y-159069758D01*
X233857142Y-162057633D01*
G37*
G36*
X234357142Y-162057633D02*
G01*
X234357142Y-165045507D01*
X234228571Y-165045507D01*
X234100000Y-165045507D01*
X234100000Y-162057633D01*
X234100000Y-159069758D01*
X234228571Y-159069758D01*
X234357142Y-159069758D01*
X234357142Y-162057633D01*
G37*
G36*
X234700000Y-162057633D02*
G01*
X234700000Y-165045507D01*
X234571428Y-165045507D01*
X234442857Y-165045507D01*
X234442857Y-162057633D01*
X234442857Y-159069758D01*
X234571428Y-159069758D01*
X234700000Y-159069758D01*
X234700000Y-162057633D01*
G37*
G36*
X235214285Y-162057633D02*
G01*
X235214285Y-165045507D01*
X235085714Y-165045507D01*
X234957142Y-165045507D01*
X234957142Y-162057633D01*
X234957142Y-159069758D01*
X235085714Y-159069758D01*
X235214285Y-159069758D01*
X235214285Y-162057633D01*
G37*
G36*
X235385714Y-162057633D02*
G01*
X235385714Y-165045507D01*
X235342857Y-165045507D01*
X235300000Y-165045507D01*
X235300000Y-162057633D01*
X235300000Y-159069758D01*
X235342857Y-159069758D01*
X235385714Y-159069758D01*
X235385714Y-162057633D01*
G37*
G36*
X235714285Y-162057633D02*
G01*
X235714285Y-165045507D01*
X235671428Y-165045507D01*
X235628571Y-165045507D01*
X235628571Y-162057633D01*
X235628571Y-159069758D01*
X235671428Y-159069758D01*
X235714285Y-159069758D01*
X235714285Y-162057633D01*
G37*
G36*
X236385714Y-162505507D02*
G01*
X236385714Y-165941256D01*
X236342857Y-165941256D01*
X236300000Y-165941256D01*
X236300000Y-162505507D01*
X236300000Y-159069758D01*
X236342857Y-159069758D01*
X236385714Y-159069758D01*
X236385714Y-162505507D01*
G37*
G36*
X221371428Y-162056855D02*
G01*
X221371428Y-165045507D01*
X221328123Y-165045507D01*
X221295435Y-165040967D01*
X221278033Y-165030169D01*
X221277435Y-165016675D01*
X221276881Y-164979703D01*
X221276372Y-164920316D01*
X221275909Y-164839579D01*
X221275493Y-164738553D01*
X221275125Y-164618303D01*
X221274807Y-164479892D01*
X221274540Y-164324384D01*
X221274324Y-164152840D01*
X221274161Y-163966325D01*
X221274051Y-163765903D01*
X221273997Y-163552635D01*
X221273999Y-163327587D01*
X221274058Y-163091820D01*
X221274176Y-162846399D01*
X221274352Y-162592386D01*
X221274590Y-162330845D01*
X221274889Y-162062839D01*
X221274910Y-162045362D01*
X221278571Y-159075893D01*
X221325000Y-159072048D01*
X221371428Y-159068203D01*
X221371428Y-162056855D01*
G37*
G36*
X228285714Y-162057633D02*
G01*
X228285714Y-165045507D01*
X228245238Y-165045507D01*
X228212520Y-165042879D01*
X228195238Y-165037327D01*
X228194379Y-165024487D01*
X228193541Y-164988164D01*
X228192727Y-164929416D01*
X228191940Y-164849301D01*
X228191185Y-164748878D01*
X228190464Y-164629204D01*
X228189781Y-164491337D01*
X228189138Y-164336336D01*
X228188540Y-164165258D01*
X228187990Y-163979162D01*
X228187491Y-163779106D01*
X228187047Y-163566147D01*
X228186660Y-163341344D01*
X228186335Y-163105755D01*
X228186074Y-162860439D01*
X228185882Y-162606452D01*
X228185761Y-162344853D01*
X228185714Y-162076700D01*
X228185714Y-162049452D01*
X228185714Y-159069758D01*
X228235714Y-159069758D01*
X228285714Y-159069758D01*
X228285714Y-162057633D01*
G37*
G36*
X229285714Y-162056855D02*
G01*
X229285714Y-165045507D01*
X229243700Y-165045507D01*
X229211187Y-165042291D01*
X229194136Y-165035014D01*
X229193467Y-165021963D01*
X229192840Y-164985431D01*
X229192255Y-164926478D01*
X229191715Y-164846164D01*
X229191221Y-164745550D01*
X229190774Y-164625696D01*
X229190377Y-164487661D01*
X229190030Y-164332506D01*
X229189736Y-164161291D01*
X229189495Y-163975077D01*
X229189310Y-163774922D01*
X229189182Y-163561888D01*
X229189112Y-163337035D01*
X229189103Y-163101422D01*
X229189155Y-162856110D01*
X229189271Y-162602159D01*
X229189451Y-162340629D01*
X229189698Y-162072580D01*
X229189721Y-162050208D01*
X229192857Y-159075893D01*
X229239285Y-159072048D01*
X229285714Y-159068203D01*
X229285714Y-162056855D01*
G37*
G36*
X229450000Y-162057633D02*
G01*
X229450000Y-165039372D01*
X229410633Y-165043261D01*
X229378112Y-165040884D01*
X229364115Y-165030991D01*
X229363484Y-165017421D01*
X229362897Y-164980375D01*
X229362356Y-164920914D01*
X229361863Y-164840104D01*
X229361418Y-164739008D01*
X229361022Y-164618689D01*
X229360678Y-164480211D01*
X229360386Y-164324638D01*
X229360147Y-164153033D01*
X229359962Y-163966461D01*
X229359834Y-163765985D01*
X229359762Y-163552669D01*
X229359749Y-163327575D01*
X229359796Y-163091769D01*
X229359904Y-162846314D01*
X229360073Y-162592273D01*
X229360306Y-162330710D01*
X229360603Y-162062689D01*
X229360625Y-162045362D01*
X229364285Y-159075893D01*
X229407142Y-159075893D01*
X229450000Y-159075893D01*
X229450000Y-162057633D01*
G37*
G36*
X234857644Y-162057633D02*
G01*
X234857746Y-165039372D01*
X234821649Y-165043261D01*
X234791446Y-165040590D01*
X234778401Y-165030991D01*
X234777769Y-165017421D01*
X234777183Y-164980375D01*
X234776642Y-164920914D01*
X234776149Y-164840104D01*
X234775704Y-164739008D01*
X234775308Y-164618689D01*
X234774964Y-164480211D01*
X234774671Y-164324638D01*
X234774432Y-164153033D01*
X234774248Y-163966461D01*
X234774120Y-163765985D01*
X234774048Y-163552669D01*
X234774035Y-163327575D01*
X234774082Y-163091769D01*
X234774189Y-162846314D01*
X234774359Y-162592273D01*
X234774592Y-162330710D01*
X234774889Y-162062689D01*
X234774910Y-162045362D01*
X234778571Y-159075893D01*
X234818056Y-159075893D01*
X234857542Y-159075893D01*
X234857644Y-162057633D01*
G37*
G36*
X218829341Y-162505507D02*
G01*
X218828596Y-165935121D01*
X218792788Y-165939010D01*
X218762792Y-165936311D01*
X218749831Y-165926739D01*
X218749242Y-165913258D01*
X218748691Y-165876226D01*
X218748180Y-165816635D01*
X218747709Y-165735474D01*
X218747280Y-165633735D01*
X218746895Y-165512407D01*
X218746552Y-165372483D01*
X218746255Y-165214951D01*
X218746003Y-165040804D01*
X218745799Y-164851030D01*
X218745642Y-164646622D01*
X218745533Y-164428570D01*
X218745475Y-164197864D01*
X218745467Y-163955494D01*
X218745512Y-163702452D01*
X218745609Y-163439729D01*
X218745759Y-163168314D01*
X218745965Y-162889198D01*
X218746227Y-162603372D01*
X218746341Y-162493236D01*
X218750000Y-159075893D01*
X218790043Y-159075893D01*
X218830086Y-159075893D01*
X218829341Y-162505507D01*
G37*
G36*
X225600000Y-162056855D02*
G01*
X225600000Y-165045507D01*
X225557142Y-165045507D01*
X225527041Y-165041952D01*
X225514260Y-165033388D01*
X225514256Y-165033236D01*
X225514253Y-165020023D01*
X225514249Y-164983329D01*
X225514244Y-164924217D01*
X225514238Y-164843748D01*
X225514232Y-164742983D01*
X225514225Y-164622984D01*
X225514217Y-164484811D01*
X225514208Y-164329526D01*
X225514199Y-164158190D01*
X225514190Y-163971865D01*
X225514180Y-163771612D01*
X225514170Y-163558493D01*
X225514160Y-163333567D01*
X225514149Y-163097898D01*
X225514138Y-162852545D01*
X225514127Y-162598571D01*
X225514116Y-162337037D01*
X225514104Y-162069004D01*
X225514103Y-162048430D01*
X225513980Y-159075893D01*
X225556990Y-159072048D01*
X225600000Y-159068203D01*
X225600000Y-162056855D01*
G37*
G36*
X227589285Y-159072048D02*
G01*
X227635714Y-159075893D01*
X227635714Y-162510570D01*
X227635714Y-165945247D01*
X227595739Y-165946750D01*
X227564460Y-165946079D01*
X227549311Y-165942709D01*
X227548768Y-165930132D01*
X227548238Y-165893998D01*
X227547721Y-165835291D01*
X227547221Y-165754995D01*
X227546738Y-165654094D01*
X227546274Y-165533572D01*
X227545832Y-165394414D01*
X227545413Y-165237602D01*
X227545019Y-165064123D01*
X227544652Y-164874958D01*
X227544313Y-164671093D01*
X227544005Y-164453512D01*
X227543730Y-164223198D01*
X227543489Y-163981135D01*
X227543284Y-163728308D01*
X227543116Y-163465701D01*
X227542989Y-163194298D01*
X227542903Y-162915082D01*
X227542861Y-162629039D01*
X227542857Y-162502684D01*
X227542857Y-159068203D01*
X227589285Y-159072048D01*
G37*
G36*
X229628571Y-162045362D02*
G01*
X229628585Y-162313942D01*
X229628628Y-162576082D01*
X229628698Y-162830721D01*
X229628793Y-163076801D01*
X229628913Y-163313263D01*
X229629056Y-163539047D01*
X229629221Y-163753094D01*
X229629406Y-163954344D01*
X229629611Y-164141739D01*
X229629833Y-164314219D01*
X229630073Y-164470724D01*
X229630328Y-164610196D01*
X229630597Y-164731575D01*
X229630880Y-164833802D01*
X229631174Y-164915817D01*
X229631479Y-164976562D01*
X229631792Y-165014977D01*
X229632114Y-165030002D01*
X229632142Y-165030169D01*
X229622248Y-165037414D01*
X229593343Y-165042844D01*
X229589285Y-165043217D01*
X229542857Y-165047062D01*
X229542857Y-162058410D01*
X229542857Y-159069758D01*
X229585714Y-159069758D01*
X229628571Y-159069758D01*
X229628571Y-162045362D01*
G37*
G36*
X236050000Y-162505507D02*
G01*
X236050000Y-165935121D01*
X236010714Y-165939003D01*
X235982250Y-165940603D01*
X235971364Y-165939003D01*
X235971358Y-165926567D01*
X235971351Y-165890574D01*
X235971344Y-165832007D01*
X235971336Y-165751853D01*
X235971327Y-165651093D01*
X235971318Y-165530713D01*
X235971308Y-165391697D01*
X235971298Y-165235028D01*
X235971287Y-165061692D01*
X235971276Y-164872671D01*
X235971265Y-164668950D01*
X235971254Y-164451514D01*
X235971242Y-164221346D01*
X235971230Y-163979430D01*
X235971218Y-163726751D01*
X235971207Y-163464293D01*
X235971195Y-163193039D01*
X235971183Y-162913975D01*
X235971172Y-162628083D01*
X235971167Y-162505507D01*
X235971035Y-159075893D01*
X236010517Y-159075893D01*
X236050000Y-159075893D01*
X236050000Y-162505507D01*
G37*
G36*
X223571428Y-162057155D02*
G01*
X223571428Y-165045507D01*
X223449551Y-165045507D01*
X223381107Y-165043967D01*
X223339007Y-165039188D01*
X223321237Y-165030929D01*
X223320832Y-165030169D01*
X223320229Y-165016675D01*
X223319670Y-164979703D01*
X223319157Y-164920316D01*
X223318691Y-164839579D01*
X223318272Y-164738553D01*
X223317903Y-164618303D01*
X223317583Y-164479892D01*
X223317314Y-164324384D01*
X223317098Y-164152840D01*
X223316935Y-163966325D01*
X223316827Y-163765903D01*
X223316774Y-163552635D01*
X223316778Y-163327587D01*
X223316840Y-163091820D01*
X223316960Y-162846399D01*
X223317141Y-162592386D01*
X223317383Y-162330845D01*
X223317687Y-162062839D01*
X223317709Y-162045362D01*
X223321428Y-159075893D01*
X223446428Y-159072348D01*
X223571428Y-159068803D01*
X223571428Y-162057155D01*
G37*
G36*
X230800000Y-162057155D02*
G01*
X230800000Y-165045507D01*
X230678123Y-165045507D01*
X230609720Y-165043971D01*
X230567649Y-165039201D01*
X230549881Y-165030957D01*
X230549462Y-165030169D01*
X230548864Y-165016675D01*
X230548310Y-164979703D01*
X230547801Y-164920316D01*
X230547337Y-164839579D01*
X230546922Y-164738553D01*
X230546554Y-164618303D01*
X230546236Y-164479892D01*
X230545968Y-164324384D01*
X230545752Y-164152840D01*
X230545589Y-163966325D01*
X230545480Y-163765903D01*
X230545426Y-163552635D01*
X230545428Y-163327587D01*
X230545487Y-163091820D01*
X230545604Y-162846399D01*
X230545781Y-162592386D01*
X230546018Y-162330845D01*
X230546318Y-162062839D01*
X230546339Y-162045362D01*
X230550000Y-159075893D01*
X230675000Y-159072348D01*
X230800000Y-159068803D01*
X230800000Y-162057155D01*
G37*
G36*
X231985714Y-162057155D02*
G01*
X231985714Y-165045507D01*
X231864285Y-165045507D01*
X231742857Y-165045507D01*
X231742857Y-162069903D01*
X231742842Y-161801323D01*
X231742799Y-161539184D01*
X231742730Y-161284544D01*
X231742634Y-161038464D01*
X231742515Y-160802002D01*
X231742372Y-160576218D01*
X231742207Y-160362171D01*
X231742022Y-160160921D01*
X231741817Y-159973526D01*
X231741594Y-159801047D01*
X231741355Y-159644541D01*
X231741099Y-159505069D01*
X231740830Y-159383690D01*
X231740548Y-159281463D01*
X231740254Y-159199448D01*
X231739949Y-159138703D01*
X231739635Y-159100288D01*
X231739314Y-159085263D01*
X231739285Y-159085096D01*
X231750824Y-159080631D01*
X231784710Y-159076478D01*
X231834724Y-159073290D01*
X231860714Y-159072348D01*
X231985714Y-159068803D01*
X231985714Y-162057155D01*
G37*
G36*
X232671428Y-162057155D02*
G01*
X232671428Y-165045507D01*
X232550843Y-165045507D01*
X232494981Y-165044328D01*
X232450869Y-165041188D01*
X232425653Y-165036678D01*
X232422607Y-165034874D01*
X232421929Y-165021810D01*
X232421294Y-164985265D01*
X232420703Y-164926300D01*
X232420157Y-164845974D01*
X232419658Y-164745348D01*
X232419208Y-164625482D01*
X232418808Y-164487437D01*
X232418460Y-164332272D01*
X232418165Y-164161047D01*
X232417925Y-163974824D01*
X232417741Y-163774662D01*
X232417616Y-163561621D01*
X232417550Y-163336762D01*
X232417545Y-163101145D01*
X232417603Y-162855830D01*
X232417725Y-162601877D01*
X232417913Y-162340347D01*
X232418168Y-162072299D01*
X232418192Y-162050068D01*
X232421428Y-159075893D01*
X232546428Y-159072348D01*
X232671428Y-159068803D01*
X232671428Y-162057155D01*
G37*
G36*
X235543958Y-165277776D02*
G01*
X235556640Y-165290111D01*
X235560358Y-165308108D01*
X235563566Y-165347420D01*
X235566269Y-165405174D01*
X235568472Y-165478493D01*
X235570180Y-165564505D01*
X235571400Y-165660333D01*
X235572136Y-165763103D01*
X235572394Y-165869941D01*
X235572178Y-165977971D01*
X235571496Y-166084320D01*
X235570352Y-166186112D01*
X235568751Y-166280473D01*
X235566699Y-166364529D01*
X235564202Y-166435403D01*
X235561264Y-166490222D01*
X235557891Y-166526112D01*
X235554285Y-166540058D01*
X235525185Y-166552861D01*
X235492232Y-166552541D01*
X235468503Y-166539790D01*
X235465814Y-166535373D01*
X235463912Y-166519177D01*
X235462155Y-166481180D01*
X235460589Y-166424120D01*
X235459260Y-166350737D01*
X235458215Y-166263770D01*
X235457500Y-166165958D01*
X235457163Y-166060041D01*
X235457142Y-166026146D01*
X235457130Y-165896923D01*
X235456827Y-165790553D01*
X235455833Y-165705347D01*
X235453749Y-165639616D01*
X235450175Y-165591672D01*
X235444710Y-165559827D01*
X235436956Y-165542392D01*
X235426512Y-165537679D01*
X235412979Y-165543999D01*
X235395956Y-165559664D01*
X235375044Y-165582984D01*
X235357142Y-165603816D01*
X235315004Y-165646813D01*
X235280319Y-165667889D01*
X235250543Y-165668111D01*
X235231428Y-165656579D01*
X235215316Y-165633044D01*
X235214806Y-165601298D01*
X235230825Y-165558811D01*
X235264299Y-165503051D01*
X235311560Y-165437517D01*
X235351187Y-165386212D01*
X235387433Y-165340944D01*
X235416319Y-165306576D01*
X235433869Y-165287970D01*
X235434009Y-165287850D01*
X235469149Y-165270457D01*
X235509561Y-165267168D01*
X235543958Y-165277776D01*
G37*
G36*
X221175652Y-165267105D02*
G01*
X221188960Y-165270677D01*
X221199784Y-165279678D01*
X221208384Y-165296024D01*
X221215018Y-165321630D01*
X221219944Y-165358413D01*
X221223420Y-165408288D01*
X221225707Y-165473172D01*
X221227061Y-165554979D01*
X221227743Y-165655626D01*
X221228009Y-165777029D01*
X221228117Y-165917328D01*
X221228047Y-166064770D01*
X221227573Y-166189171D01*
X221226654Y-166292030D01*
X221225251Y-166374844D01*
X221223323Y-166439111D01*
X221220830Y-166486331D01*
X221217732Y-166518001D01*
X221213988Y-166535619D01*
X221211428Y-166540058D01*
X221184049Y-166551749D01*
X221149512Y-166554372D01*
X221123948Y-166546720D01*
X221123809Y-166546602D01*
X221121735Y-166532939D01*
X221119817Y-166497380D01*
X221118104Y-166442573D01*
X221116648Y-166371164D01*
X221115497Y-166285797D01*
X221114703Y-166189119D01*
X221114316Y-166083777D01*
X221114285Y-166044234D01*
X221114039Y-165910725D01*
X221113268Y-165800307D01*
X221111925Y-165711535D01*
X221109963Y-165642962D01*
X221107333Y-165593144D01*
X221103987Y-165560633D01*
X221099878Y-165543984D01*
X221097674Y-165541229D01*
X221088507Y-165538987D01*
X221076450Y-165543655D01*
X221057924Y-165558120D01*
X221029349Y-165585273D01*
X220987146Y-165628003D01*
X220976080Y-165639366D01*
X220939028Y-165666289D01*
X220905905Y-165669328D01*
X220879747Y-165649122D01*
X220865728Y-165616080D01*
X220863948Y-165599150D01*
X220868570Y-165579644D01*
X220881745Y-165553804D01*
X220905623Y-165517874D01*
X220942357Y-165468097D01*
X220974647Y-165425887D01*
X221021004Y-165366326D01*
X221055335Y-165324314D01*
X221080965Y-165296699D01*
X221101217Y-165280331D01*
X221119413Y-165272058D01*
X221138878Y-165268730D01*
X221140551Y-165268586D01*
X221159602Y-165267047D01*
X221175652Y-165267105D01*
G37*
G36*
X230135960Y-165266759D02*
G01*
X230201919Y-165268986D01*
X230247162Y-165274675D01*
X230275614Y-165285447D01*
X230291200Y-165302918D01*
X230297849Y-165328708D01*
X230299486Y-165364436D01*
X230299545Y-165371166D01*
X230297003Y-165417837D01*
X230287744Y-165466829D01*
X230270349Y-165522027D01*
X230243397Y-165587316D01*
X230205471Y-165666582D01*
X230158465Y-165757462D01*
X230102052Y-165869782D01*
X230059728Y-165969442D01*
X230029362Y-166063984D01*
X230008823Y-166160952D01*
X229995981Y-166267890D01*
X229990450Y-166352319D01*
X229986405Y-166415678D01*
X229981167Y-166470784D01*
X229975331Y-166512712D01*
X229969495Y-166536535D01*
X229967807Y-166539444D01*
X229939087Y-166553490D01*
X229904621Y-166549601D01*
X229888571Y-166540058D01*
X229880582Y-166520685D01*
X229875105Y-166481560D01*
X229872178Y-166427380D01*
X229871835Y-166362840D01*
X229874115Y-166292637D01*
X229879053Y-166221467D01*
X229885640Y-166161661D01*
X229900658Y-166071864D01*
X229922120Y-165985497D01*
X229952066Y-165896544D01*
X229992539Y-165798990D01*
X230045579Y-165686821D01*
X230049516Y-165678869D01*
X230080826Y-165614247D01*
X230107668Y-165555925D01*
X230128128Y-165508295D01*
X230140295Y-165475750D01*
X230142857Y-165464475D01*
X230141391Y-165452819D01*
X230133633Y-165445236D01*
X230114539Y-165440853D01*
X230079066Y-165438796D01*
X230022173Y-165438193D01*
X229990860Y-165438164D01*
X229913752Y-165437038D01*
X229860715Y-165432360D01*
X229827309Y-165422180D01*
X229809096Y-165404548D01*
X229801634Y-165377514D01*
X229800454Y-165354531D01*
X229801089Y-165322604D01*
X229806454Y-165299496D01*
X229820506Y-165283781D01*
X229847199Y-165274035D01*
X229890492Y-165268835D01*
X229954339Y-165266757D01*
X230042698Y-165266377D01*
X230045356Y-165266377D01*
X230135960Y-165266759D01*
G37*
G36*
X228777514Y-165316513D02*
G01*
X228795364Y-165341731D01*
X228805144Y-165365909D01*
X228807720Y-165379777D01*
X228806473Y-165394818D01*
X228799685Y-165414458D01*
X228785632Y-165442122D01*
X228762595Y-165481235D01*
X228728853Y-165535223D01*
X228687647Y-165599770D01*
X228627318Y-165693888D01*
X228660087Y-165714104D01*
X228690544Y-165732137D01*
X228733581Y-165756743D01*
X228763275Y-165773368D01*
X228835930Y-165827944D01*
X228891248Y-165900219D01*
X228927450Y-165987310D01*
X228941090Y-166061689D01*
X228944601Y-166175974D01*
X228933203Y-166278746D01*
X228907959Y-166368101D01*
X228869926Y-166442137D01*
X228820164Y-166498951D01*
X228759734Y-166536642D01*
X228689694Y-166553306D01*
X228666927Y-166553920D01*
X228627804Y-166550764D01*
X228600000Y-166544717D01*
X228528054Y-166503537D01*
X228469204Y-166442277D01*
X228424620Y-166363160D01*
X228395474Y-166268405D01*
X228382936Y-166160236D01*
X228382619Y-166138227D01*
X228502719Y-166138227D01*
X228504508Y-166167977D01*
X228519842Y-166240934D01*
X228546995Y-166301192D01*
X228583316Y-166346556D01*
X228626159Y-166374832D01*
X228672875Y-166383825D01*
X228720815Y-166371340D01*
X228737743Y-166361249D01*
X228779412Y-166320021D01*
X228807399Y-166266749D01*
X228822416Y-166205731D01*
X228825172Y-166141266D01*
X228816378Y-166077655D01*
X228796744Y-166019195D01*
X228766982Y-165970185D01*
X228727800Y-165934926D01*
X228679910Y-165917716D01*
X228664285Y-165916715D01*
X228611994Y-165928147D01*
X228567239Y-165959871D01*
X228532473Y-166008031D01*
X228510149Y-166068768D01*
X228502719Y-166138227D01*
X228382619Y-166138227D01*
X228382530Y-166132067D01*
X228396879Y-165964703D01*
X228438631Y-165799890D01*
X228508130Y-165636701D01*
X228605719Y-165474209D01*
X228649358Y-165413623D01*
X228691243Y-165360187D01*
X228722570Y-165326291D01*
X228746164Y-165309796D01*
X228764850Y-165308560D01*
X228777514Y-165316513D01*
G37*
G36*
X232814376Y-165274710D02*
G01*
X232845538Y-165281725D01*
X232872284Y-165299012D01*
X232898800Y-165323498D01*
X232936096Y-165364151D01*
X232974400Y-165412859D01*
X232992828Y-165439630D01*
X233011927Y-165471645D01*
X233024622Y-165500872D01*
X233032522Y-165534114D01*
X233037235Y-165578177D01*
X233040368Y-165639867D01*
X233040415Y-165641040D01*
X233040153Y-165744228D01*
X233030072Y-165843150D01*
X233008861Y-165942868D01*
X232975211Y-166048440D01*
X232927812Y-166164927D01*
X232876236Y-166275275D01*
X232825104Y-166373324D01*
X232777792Y-166450761D01*
X232734868Y-166506993D01*
X232696903Y-166541431D01*
X232664469Y-166553484D01*
X232638136Y-166542562D01*
X232629074Y-166531048D01*
X232619303Y-166510992D01*
X232616581Y-166489396D01*
X232622211Y-166462201D01*
X232637497Y-166425349D01*
X232663744Y-166374782D01*
X232700000Y-166310377D01*
X232739768Y-166239500D01*
X232766412Y-166186995D01*
X232780401Y-166149651D01*
X232782206Y-166124253D01*
X232772297Y-166107590D01*
X232751143Y-166096450D01*
X232732142Y-166090791D01*
X232661570Y-166061460D01*
X232596209Y-166014164D01*
X232544529Y-165955316D01*
X232536550Y-165942673D01*
X232497418Y-165852766D01*
X232477004Y-165752002D01*
X232475905Y-165695845D01*
X232600393Y-165695845D01*
X232608288Y-165767819D01*
X232629707Y-165828140D01*
X232661926Y-165874594D01*
X232702224Y-165904969D01*
X232747878Y-165917052D01*
X232796167Y-165908628D01*
X232834352Y-165886048D01*
X232877307Y-165839791D01*
X232903268Y-165781062D01*
X232913852Y-165705769D01*
X232914285Y-165683575D01*
X232906632Y-165601647D01*
X232884553Y-165535458D01*
X232849372Y-165486955D01*
X232802413Y-165458088D01*
X232755922Y-165450435D01*
X232701104Y-165461686D01*
X232657174Y-165494410D01*
X232625112Y-165547062D01*
X232605896Y-165618097D01*
X232600393Y-165695845D01*
X232475905Y-165695845D01*
X232474942Y-165646619D01*
X232490869Y-165542857D01*
X232524419Y-165446953D01*
X232569936Y-165371796D01*
X232616565Y-165320785D01*
X232664696Y-165289997D01*
X232721860Y-165275664D01*
X232766735Y-165273388D01*
X232814376Y-165274710D01*
G37*
G36*
X226633705Y-165267399D02*
G01*
X226700379Y-165270515D01*
X226740755Y-165275800D01*
X226754285Y-165281101D01*
X226764753Y-165302426D01*
X226770482Y-165338031D01*
X226770855Y-165377912D01*
X226765258Y-165412065D01*
X226762757Y-165418755D01*
X226754008Y-165427708D01*
X226734028Y-165433497D01*
X226697817Y-165436737D01*
X226640375Y-165438043D01*
X226605166Y-165438164D01*
X226534232Y-165438313D01*
X226486898Y-165441507D01*
X226458341Y-165451866D01*
X226443734Y-165473510D01*
X226438254Y-165510557D01*
X226437074Y-165567129D01*
X226436922Y-165581820D01*
X226435714Y-165684927D01*
X226511676Y-165707186D01*
X226600808Y-165745435D01*
X226671770Y-165802242D01*
X226724091Y-165876899D01*
X226757299Y-165968698D01*
X226770923Y-166076932D01*
X226771259Y-166097101D01*
X226761713Y-166213786D01*
X226733214Y-166315127D01*
X226686683Y-166400014D01*
X226623044Y-166467343D01*
X226543217Y-166516005D01*
X226448125Y-166544894D01*
X226392667Y-166551753D01*
X226342818Y-166554624D01*
X226313903Y-166553350D01*
X226298408Y-166546093D01*
X226288821Y-166531014D01*
X226286448Y-166525765D01*
X226278445Y-166487432D01*
X226283699Y-166448232D01*
X226300058Y-166417823D01*
X226312601Y-166408525D01*
X226341070Y-166399936D01*
X226383151Y-166391505D01*
X226395180Y-166389658D01*
X226472748Y-166367651D01*
X226543185Y-166327592D01*
X226596839Y-166275173D01*
X226602255Y-166267484D01*
X226618587Y-166239468D01*
X226628643Y-166210464D01*
X226633850Y-166173364D01*
X226635633Y-166121057D01*
X226635714Y-166100773D01*
X226631724Y-166021541D01*
X226617785Y-165962873D01*
X226590945Y-165921540D01*
X226548250Y-165894310D01*
X226486747Y-165877955D01*
X226425455Y-165870797D01*
X226384069Y-165867070D01*
X226352644Y-165861301D01*
X226329913Y-165850440D01*
X226314607Y-165831434D01*
X226305459Y-165801232D01*
X226301200Y-165756780D01*
X226300562Y-165695029D01*
X226302277Y-165612925D01*
X226303256Y-165576715D01*
X226306234Y-165495612D01*
X226310364Y-165423338D01*
X226315316Y-165363885D01*
X226320761Y-165321246D01*
X226326011Y-165300121D01*
X226342149Y-165266377D01*
X226539646Y-165266377D01*
X226633705Y-165267399D01*
G37*
G36*
X225231470Y-165281258D02*
G01*
X225250655Y-165307666D01*
X225251926Y-165311547D01*
X225255790Y-165332028D01*
X225255800Y-165357289D01*
X225251266Y-165390149D01*
X225241496Y-165433425D01*
X225225799Y-165489935D01*
X225203486Y-165562498D01*
X225173865Y-165653932D01*
X225151362Y-165721832D01*
X225124686Y-165803301D01*
X225100636Y-165879502D01*
X225080411Y-165946402D01*
X225065214Y-165999973D01*
X225056246Y-166036182D01*
X225054425Y-166047001D01*
X225050000Y-166094637D01*
X225132142Y-166098317D01*
X225214285Y-166101997D01*
X225214285Y-165985247D01*
X225214844Y-165930318D01*
X225217306Y-165894781D01*
X225222850Y-165873494D01*
X225232653Y-165861315D01*
X225244187Y-165854750D01*
X225281781Y-165846739D01*
X225308473Y-165848417D01*
X225324421Y-165853034D01*
X225334476Y-165861807D01*
X225339995Y-165879630D01*
X225342335Y-165911399D01*
X225342852Y-165962009D01*
X225342857Y-165972470D01*
X225343140Y-166026600D01*
X225345022Y-166061294D01*
X225350052Y-166081659D01*
X225359777Y-166092799D01*
X225375745Y-166099821D01*
X225382116Y-166101930D01*
X225437833Y-166128446D01*
X225466645Y-166163066D01*
X225468795Y-166206245D01*
X225455753Y-166239603D01*
X225432416Y-166264748D01*
X225396157Y-166287038D01*
X225391467Y-166289064D01*
X225342857Y-166308975D01*
X225342857Y-166425312D01*
X225342212Y-166480495D01*
X225339555Y-166516208D01*
X225333804Y-166537510D01*
X225323875Y-166549458D01*
X225315224Y-166554351D01*
X225289958Y-166564862D01*
X225273154Y-166563600D01*
X225249158Y-166549677D01*
X225235790Y-166537627D01*
X225226629Y-166518043D01*
X225220403Y-166485892D01*
X225215843Y-166436142D01*
X225214285Y-166411634D01*
X225207142Y-166290966D01*
X225071428Y-166287585D01*
X224999101Y-166284686D01*
X224950601Y-166277958D01*
X224921187Y-166263944D01*
X224906117Y-166239183D01*
X224900651Y-166200218D01*
X224900000Y-166162520D01*
X224901499Y-166134588D01*
X224906491Y-166100783D01*
X224915716Y-166058395D01*
X224929914Y-166004711D01*
X224949828Y-165937021D01*
X224976196Y-165852612D01*
X225009761Y-165748775D01*
X225029256Y-165689382D01*
X225060774Y-165594869D01*
X225090605Y-165507598D01*
X225117702Y-165430467D01*
X225141017Y-165366374D01*
X225159504Y-165318218D01*
X225172114Y-165288898D01*
X225176719Y-165281264D01*
X225203973Y-165271309D01*
X225231470Y-165281258D01*
G37*
G36*
X219806996Y-165274258D02*
G01*
X219826312Y-165278125D01*
X219883279Y-165296885D01*
X219930825Y-165325768D01*
X219969628Y-165366626D01*
X220000368Y-165421312D01*
X220023723Y-165491681D01*
X220040372Y-165579584D01*
X220050992Y-165686877D01*
X220056263Y-165815411D01*
X220057142Y-165908643D01*
X220054512Y-166039541D01*
X220046900Y-166161055D01*
X220034730Y-166270104D01*
X220018423Y-166363608D01*
X219998399Y-166438485D01*
X219978092Y-166486429D01*
X219942038Y-166526588D01*
X219885177Y-166552775D01*
X219806023Y-166565536D01*
X219758770Y-166567053D01*
X219698291Y-166565061D01*
X219655570Y-166557734D01*
X219620055Y-166543044D01*
X219612826Y-166539008D01*
X219575296Y-166510015D01*
X219544290Y-166469099D01*
X219519386Y-166414405D01*
X219500161Y-166344079D01*
X219486193Y-166256265D01*
X219477059Y-166149109D01*
X219472336Y-166020756D01*
X219471605Y-165938484D01*
X219600931Y-165938484D01*
X219601243Y-166023771D01*
X219602667Y-166102851D01*
X219605259Y-166171880D01*
X219609071Y-166227015D01*
X219614157Y-166264414D01*
X219614598Y-166266425D01*
X219627734Y-166320055D01*
X219641303Y-166354045D01*
X219661014Y-166372872D01*
X219692579Y-166381016D01*
X219741706Y-166382954D01*
X219763237Y-166382995D01*
X219868326Y-166382995D01*
X219894570Y-166330845D01*
X219902544Y-166312459D01*
X219908871Y-166290517D01*
X219913800Y-166261904D01*
X219917581Y-166223500D01*
X219920463Y-166172188D01*
X219922696Y-166104849D01*
X219924530Y-166018366D01*
X219925761Y-165941256D01*
X219926735Y-165849636D01*
X219926959Y-165763426D01*
X219926477Y-165686463D01*
X219925332Y-165622585D01*
X219923569Y-165575629D01*
X219921273Y-165549672D01*
X219900520Y-165494211D01*
X219862553Y-165452923D01*
X219811777Y-165429640D01*
X219778960Y-165425893D01*
X219716311Y-165434479D01*
X219661785Y-165457487D01*
X219625423Y-165490441D01*
X219619442Y-165511587D01*
X219614199Y-165553424D01*
X219609747Y-165612110D01*
X219606141Y-165683802D01*
X219603434Y-165764657D01*
X219601680Y-165850832D01*
X219600931Y-165938484D01*
X219471605Y-165938484D01*
X219471428Y-165918573D01*
X219472709Y-165785644D01*
X219476739Y-165674790D01*
X219483798Y-165583634D01*
X219494168Y-165509800D01*
X219508130Y-165450913D01*
X219525963Y-165404597D01*
X219533938Y-165389583D01*
X219582618Y-165330821D01*
X219647315Y-165290884D01*
X219723587Y-165271466D01*
X219806996Y-165274258D01*
G37*
G36*
X222537187Y-165295506D02*
G01*
X222577834Y-165311547D01*
X222613828Y-165342454D01*
X222649668Y-165391642D01*
X222673348Y-165432029D01*
X222695489Y-165476165D01*
X222707924Y-165515517D01*
X222713176Y-165560777D01*
X222713925Y-165603816D01*
X222709638Y-165692155D01*
X222695556Y-165767175D01*
X222668844Y-165834980D01*
X222626665Y-165901673D01*
X222566185Y-165973358D01*
X222520041Y-166021196D01*
X222464321Y-166078114D01*
X222424304Y-166122647D01*
X222396262Y-166160402D01*
X222376469Y-166196986D01*
X222361196Y-166238006D01*
X222349899Y-166277149D01*
X222338080Y-166322880D01*
X222333877Y-166354962D01*
X222340946Y-166375812D01*
X222362944Y-166387849D01*
X222403528Y-166393494D01*
X222466353Y-166395165D01*
X222528433Y-166395265D01*
X222607336Y-166395526D01*
X222662093Y-166397605D01*
X222697130Y-166403451D01*
X222716874Y-166415009D01*
X222725750Y-166434227D01*
X222728183Y-166463052D01*
X222728376Y-166483223D01*
X222728065Y-166508591D01*
X222724206Y-166527121D01*
X222712926Y-166539886D01*
X222690355Y-166547960D01*
X222652621Y-166552417D01*
X222595852Y-166554331D01*
X222516178Y-166554776D01*
X222470402Y-166554782D01*
X222381816Y-166554597D01*
X222317546Y-166553779D01*
X222273337Y-166551933D01*
X222244937Y-166548663D01*
X222228091Y-166543576D01*
X222218546Y-166536275D01*
X222214788Y-166531048D01*
X222204490Y-166497298D01*
X222201626Y-166445677D01*
X222205355Y-166381800D01*
X222214838Y-166311288D01*
X222229234Y-166239756D01*
X222247704Y-166172822D01*
X222269409Y-166116105D01*
X222279878Y-166095639D01*
X222305216Y-166059067D01*
X222344177Y-166011941D01*
X222390612Y-165961425D01*
X222421673Y-165930375D01*
X222486000Y-165865748D01*
X222531623Y-165812120D01*
X222561428Y-165764418D01*
X222578305Y-165717570D01*
X222585142Y-165666504D01*
X222585714Y-165642280D01*
X222578143Y-165566744D01*
X222555581Y-165511466D01*
X222518255Y-165476764D01*
X222466393Y-165462955D01*
X222457166Y-165462705D01*
X222428102Y-165467679D01*
X222384295Y-165480549D01*
X222347067Y-165494008D01*
X222299460Y-165510258D01*
X222258215Y-165520110D01*
X222237268Y-165521616D01*
X222219785Y-165516503D01*
X222210723Y-165502552D01*
X222207441Y-165473543D01*
X222207142Y-165450602D01*
X222207142Y-165383282D01*
X222311706Y-165337100D01*
X222377802Y-165310461D01*
X222430640Y-165295938D01*
X222479879Y-165290991D01*
X222487388Y-165290918D01*
X222537187Y-165295506D01*
G37*
G36*
X218203900Y-165275619D02*
G01*
X218218097Y-165291127D01*
X218223666Y-165298264D01*
X218233085Y-165314066D01*
X218238072Y-165333436D01*
X218238037Y-165359304D01*
X218232392Y-165394600D01*
X218220546Y-165442255D01*
X218201910Y-165505198D01*
X218175894Y-165586361D01*
X218149935Y-165664689D01*
X218108250Y-165791102D01*
X218075386Y-165894452D01*
X218051269Y-165975001D01*
X218035820Y-166033006D01*
X218028964Y-166068726D01*
X218028571Y-166075208D01*
X218031403Y-166089455D01*
X218044292Y-166097151D01*
X218073824Y-166100264D01*
X218114285Y-166100773D01*
X218200000Y-166100773D01*
X218200000Y-165986657D01*
X218201613Y-165924273D01*
X218207589Y-165882526D01*
X218219626Y-165857620D01*
X218239425Y-165845757D01*
X218264285Y-165843092D01*
X218292817Y-165846954D01*
X218311709Y-165861087D01*
X218322751Y-165889312D01*
X218327732Y-165935451D01*
X218328571Y-165980357D01*
X218328571Y-166088173D01*
X218378662Y-166106150D01*
X218425444Y-166133404D01*
X218448706Y-166169975D01*
X218448284Y-166211047D01*
X218424017Y-166251804D01*
X218384612Y-166282549D01*
X218361997Y-166296418D01*
X218347401Y-166310039D01*
X218338646Y-166329087D01*
X218333552Y-166359236D01*
X218329940Y-166406160D01*
X218328571Y-166428434D01*
X218324643Y-166483479D01*
X218319971Y-166518913D01*
X218313099Y-166539657D01*
X218302570Y-166550636D01*
X218290935Y-166555569D01*
X218250583Y-166555976D01*
X218230221Y-166547032D01*
X218215180Y-166535227D01*
X218206111Y-166518212D01*
X218201558Y-166490175D01*
X218200067Y-166445305D01*
X218200000Y-166426250D01*
X218199002Y-166376396D01*
X218196353Y-166334593D01*
X218192562Y-166308044D01*
X218191328Y-166304240D01*
X218181960Y-166294829D01*
X218160558Y-166288937D01*
X218121883Y-166285847D01*
X218060696Y-166284845D01*
X218049281Y-166284831D01*
X217985869Y-166284327D01*
X217944654Y-166282073D01*
X217919273Y-166276952D01*
X217903362Y-166267851D01*
X217893667Y-166257559D01*
X217881578Y-166238772D01*
X217874123Y-166215829D01*
X217871769Y-166186437D01*
X217874981Y-166148299D01*
X217884226Y-166099120D01*
X217899970Y-166036605D01*
X217922680Y-165958458D01*
X217952820Y-165862384D01*
X217990858Y-165746088D01*
X218008020Y-165694496D01*
X218047429Y-165577018D01*
X218080173Y-165481415D01*
X218107218Y-165405912D01*
X218129531Y-165348734D01*
X218148076Y-165308108D01*
X218163819Y-165282258D01*
X218177727Y-165269409D01*
X218190766Y-165267788D01*
X218203900Y-165275619D01*
G37*
G36*
X223917895Y-165266472D02*
G01*
X223988506Y-165267815D01*
X224038022Y-165271990D01*
X224070182Y-165280581D01*
X224088724Y-165295174D01*
X224097384Y-165317353D01*
X224099900Y-165348703D01*
X224100000Y-165384056D01*
X224098575Y-165416178D01*
X224092767Y-165445587D01*
X224080275Y-165477879D01*
X224058797Y-165518652D01*
X224026031Y-165573503D01*
X224014285Y-165592527D01*
X223981748Y-165646519D01*
X223954886Y-165693970D01*
X223936311Y-165730053D01*
X223928638Y-165749940D01*
X223928571Y-165750844D01*
X223938551Y-165769376D01*
X223964421Y-165796877D01*
X223992480Y-165820860D01*
X224047091Y-165870335D01*
X224084784Y-165922750D01*
X224108614Y-165984387D01*
X224121639Y-166061526D01*
X224124077Y-166091308D01*
X224122396Y-166207176D01*
X224101842Y-166310512D01*
X224063284Y-166399228D01*
X224007594Y-166471237D01*
X223945788Y-166518726D01*
X223894576Y-166538278D01*
X223827011Y-166550135D01*
X223754131Y-166553590D01*
X223686972Y-166547936D01*
X223648261Y-166537790D01*
X223594701Y-166505551D01*
X223563756Y-166460893D01*
X223557142Y-166424215D01*
X223561196Y-166381275D01*
X223575865Y-166355928D01*
X223604917Y-166346699D01*
X223652114Y-166352113D01*
X223705644Y-166366049D01*
X223788448Y-166380648D01*
X223859515Y-166373378D01*
X223917703Y-166345162D01*
X223961872Y-166296921D01*
X223990881Y-166229578D01*
X224003591Y-166144053D01*
X224004077Y-166124810D01*
X224000948Y-166055592D01*
X223988022Y-166005465D01*
X223961623Y-165969553D01*
X223918074Y-165942975D01*
X223853699Y-165920854D01*
X223849498Y-165919674D01*
X223783572Y-165898428D01*
X223741853Y-165876953D01*
X223720158Y-165852270D01*
X223714285Y-165823378D01*
X223720813Y-165803209D01*
X223738768Y-165766184D01*
X223765703Y-165716900D01*
X223799173Y-165659956D01*
X223814285Y-165635352D01*
X223849572Y-165577456D01*
X223879397Y-165526275D01*
X223901352Y-165486119D01*
X223913026Y-165461300D01*
X223914285Y-165456392D01*
X223909751Y-165448365D01*
X223893202Y-165443023D01*
X223860215Y-165439875D01*
X223806367Y-165438429D01*
X223750502Y-165438164D01*
X223672887Y-165437424D01*
X223619371Y-165433818D01*
X223585497Y-165425266D01*
X223566806Y-165409689D01*
X223558840Y-165385005D01*
X223557143Y-165349135D01*
X223557142Y-165347945D01*
X223557345Y-165319342D01*
X223560503Y-165298348D01*
X223570436Y-165283788D01*
X223590968Y-165274485D01*
X223625920Y-165269266D01*
X223679114Y-165266956D01*
X223754372Y-165266379D01*
X223822454Y-165266377D01*
X223917895Y-165266472D01*
G37*
G36*
X231470759Y-165277033D02*
G01*
X231472506Y-165277475D01*
X231535844Y-165305970D01*
X231587114Y-165353547D01*
X231625107Y-165416586D01*
X231648613Y-165491468D01*
X231656423Y-165574575D01*
X231647325Y-165662288D01*
X231625928Y-165736366D01*
X231609640Y-165782329D01*
X231602770Y-165813183D01*
X231604510Y-165836730D01*
X231613221Y-165859071D01*
X231663616Y-165984217D01*
X231692500Y-166104463D01*
X231699841Y-166217362D01*
X231685604Y-166320469D01*
X231649755Y-166411337D01*
X231621532Y-166454283D01*
X231568681Y-166504259D01*
X231503190Y-166537917D01*
X231431471Y-166553714D01*
X231359935Y-166550107D01*
X231304143Y-166530674D01*
X231243705Y-166485442D01*
X231195490Y-166422088D01*
X231160290Y-166344983D01*
X231138898Y-166258496D01*
X231132157Y-166167682D01*
X231255357Y-166167682D01*
X231263561Y-166239311D01*
X231286256Y-166298755D01*
X231320569Y-166343832D01*
X231363625Y-166372358D01*
X231412550Y-166382151D01*
X231464469Y-166371027D01*
X231497950Y-166351917D01*
X231538113Y-166310280D01*
X231563717Y-166257314D01*
X231575668Y-166197415D01*
X231574869Y-166134981D01*
X231562225Y-166074407D01*
X231538642Y-166020090D01*
X231505024Y-165976428D01*
X231462276Y-165947816D01*
X231412892Y-165938602D01*
X231360409Y-165951420D01*
X231316209Y-165984992D01*
X231282509Y-166036091D01*
X231261532Y-166101488D01*
X231255357Y-166167682D01*
X231132157Y-166167682D01*
X231132106Y-166166998D01*
X231140707Y-166074858D01*
X231165494Y-165986447D01*
X231194527Y-165926326D01*
X231217188Y-165882465D01*
X231226364Y-165845221D01*
X231222320Y-165805689D01*
X231205320Y-165754964D01*
X231200000Y-165741741D01*
X231176611Y-165660937D01*
X231170700Y-165580423D01*
X231172740Y-165564357D01*
X231294460Y-165564357D01*
X231297809Y-165608520D01*
X231306781Y-165655434D01*
X231326993Y-165697043D01*
X231362516Y-165726593D01*
X231406225Y-165741458D01*
X231450994Y-165739018D01*
X231484960Y-165721033D01*
X231518113Y-165676978D01*
X231535535Y-165620483D01*
X231536459Y-165560012D01*
X231520120Y-165504030D01*
X231506585Y-165482102D01*
X231487245Y-165461911D01*
X231462714Y-165451561D01*
X231423395Y-165447956D01*
X231400000Y-165447708D01*
X231364846Y-165449351D01*
X231343559Y-165458375D01*
X231325569Y-165480923D01*
X231316130Y-165496449D01*
X231300413Y-165529606D01*
X231294460Y-165564357D01*
X231172740Y-165564357D01*
X231180506Y-165503201D01*
X231204268Y-165432272D01*
X231240223Y-165370635D01*
X231286611Y-165321292D01*
X231341671Y-165287243D01*
X231403640Y-165271490D01*
X231470759Y-165277033D01*
G37*
G36*
X234196717Y-165282383D02*
G01*
X234263143Y-165318481D01*
X234280561Y-165332440D01*
X234309924Y-165359418D01*
X234333585Y-165386733D01*
X234352219Y-165417386D01*
X234366504Y-165454381D01*
X234377117Y-165500721D01*
X234384732Y-165559410D01*
X234390028Y-165633449D01*
X234393680Y-165725843D01*
X234396366Y-165839593D01*
X234396511Y-165847152D01*
X234397565Y-166005179D01*
X234394084Y-166140279D01*
X234385790Y-166253789D01*
X234372406Y-166347049D01*
X234353654Y-166421398D01*
X234329257Y-166478175D01*
X234298938Y-166518719D01*
X234262418Y-166544368D01*
X234251048Y-166549062D01*
X234197616Y-166560790D01*
X234129557Y-166565771D01*
X234058980Y-166564003D01*
X233997994Y-166555488D01*
X233975817Y-166549054D01*
X233931375Y-166520032D01*
X233893335Y-166468276D01*
X233861333Y-166393229D01*
X233849922Y-166355773D01*
X233838602Y-166299417D01*
X233829833Y-166224185D01*
X233823579Y-166134500D01*
X233819807Y-166034786D01*
X233818480Y-165929467D01*
X233819053Y-165873204D01*
X233943137Y-165873204D01*
X233943140Y-165890781D01*
X233944559Y-166020519D01*
X233948627Y-166127353D01*
X233955513Y-166212826D01*
X233965386Y-166278483D01*
X233978414Y-166325868D01*
X233993965Y-166355494D01*
X234007856Y-166370336D01*
X234026063Y-166378507D01*
X234056137Y-166381519D01*
X234105632Y-166380885D01*
X234118586Y-166380452D01*
X234221428Y-166376860D01*
X234249530Y-166309372D01*
X234257907Y-166287280D01*
X234264458Y-166263819D01*
X234269410Y-166235734D01*
X234272987Y-166199773D01*
X234275417Y-166152681D01*
X234276925Y-166091206D01*
X234277738Y-166012095D01*
X234278081Y-165912093D01*
X234278102Y-165898309D01*
X234277932Y-165784868D01*
X234276767Y-165693331D01*
X234274134Y-165621068D01*
X234269563Y-165565447D01*
X234262581Y-165523835D01*
X234252718Y-165493601D01*
X234239501Y-165472113D01*
X234222459Y-165456739D01*
X234201122Y-165444847D01*
X234196485Y-165442738D01*
X234139362Y-165429153D01*
X234077721Y-165432811D01*
X234023143Y-165452372D01*
X234005266Y-165464874D01*
X233986503Y-165485878D01*
X233971691Y-165514834D01*
X233960437Y-165554436D01*
X233952348Y-165607380D01*
X233947030Y-165676360D01*
X233944090Y-165764070D01*
X233943137Y-165873204D01*
X233819053Y-165873204D01*
X233819565Y-165822967D01*
X233823025Y-165719708D01*
X233828826Y-165624116D01*
X233836934Y-165540613D01*
X233847313Y-165473624D01*
X233857202Y-165434970D01*
X233887793Y-165381269D01*
X233937524Y-165331928D01*
X233997685Y-165294338D01*
X234040894Y-165279077D01*
X234123774Y-165269503D01*
X234196717Y-165282383D01*
G37*
D12*
%TO.C,J5*%
X156000000Y-55000000D02*
X154900000Y-55000000D01*
X154500000Y-55000000D02*
X153400000Y-55000000D01*
X153000000Y-55000000D02*
X151900000Y-55000000D01*
X151500000Y-55000000D02*
X150400000Y-55000000D01*
X150000000Y-55000000D02*
X148900000Y-55000000D01*
X148500000Y-55000000D02*
X147400000Y-55000000D01*
X147000000Y-55000000D02*
X145900000Y-55000000D01*
X145500000Y-55000000D02*
X144400000Y-55000000D01*
X144000000Y-55000000D02*
X144000000Y-55000000D01*
%TO.C,J6*%
X195000000Y-54035000D02*
X205000000Y-54035000D01*
%TD*%
M02*
