%TF.GenerationSoftware,KiCad,Pcbnew,8.0.1*%
%TF.CreationDate,2024-11-14T18:54:37-05:00*%
%TF.ProjectId,ephys-test-board,65706879-732d-4746-9573-742d626f6172,rev?*%
%TF.SameCoordinates,Original*%
%TF.FileFunction,Soldermask,Top*%
%TF.FilePolarity,Negative*%
%FSLAX46Y46*%
G04 Gerber Fmt 4.6, Leading zero omitted, Abs format (unit mm)*
G04 Created by KiCad (PCBNEW 8.0.1) date 2024-11-14 18:54:37*
%MOMM*%
%LPD*%
G01*
G04 APERTURE LIST*
G04 Aperture macros list*
%AMRoundRect*
0 Rectangle with rounded corners*
0 $1 Rounding radius*
0 $2 $3 $4 $5 $6 $7 $8 $9 X,Y pos of 4 corners*
0 Add a 4 corners polygon primitive as box body*
4,1,4,$2,$3,$4,$5,$6,$7,$8,$9,$2,$3,0*
0 Add four circle primitives for the rounded corners*
1,1,$1+$1,$2,$3*
1,1,$1+$1,$4,$5*
1,1,$1+$1,$6,$7*
1,1,$1+$1,$8,$9*
0 Add four rect primitives between the rounded corners*
20,1,$1+$1,$2,$3,$4,$5,0*
20,1,$1+$1,$4,$5,$6,$7,0*
20,1,$1+$1,$6,$7,$8,$9,0*
20,1,$1+$1,$8,$9,$2,$3,0*%
G04 Aperture macros list end*
%ADD10C,0.000000*%
%ADD11RoundRect,0.218750X-0.256250X0.218750X-0.256250X-0.218750X0.256250X-0.218750X0.256250X0.218750X0*%
%ADD12RoundRect,0.135000X-0.185000X0.135000X-0.185000X-0.135000X0.185000X-0.135000X0.185000X0.135000X0*%
%ADD13RoundRect,0.140000X0.140000X0.170000X-0.140000X0.170000X-0.140000X-0.170000X0.140000X-0.170000X0*%
%ADD14RoundRect,0.140000X0.170000X-0.140000X0.170000X0.140000X-0.170000X0.140000X-0.170000X-0.140000X0*%
%ADD15RoundRect,0.225000X0.225000X0.250000X-0.225000X0.250000X-0.225000X-0.250000X0.225000X-0.250000X0*%
%ADD16RoundRect,0.140000X-0.140000X-0.170000X0.140000X-0.170000X0.140000X0.170000X-0.140000X0.170000X0*%
%ADD17RoundRect,0.225000X0.250000X-0.225000X0.250000X0.225000X-0.250000X0.225000X-0.250000X-0.225000X0*%
%ADD18RoundRect,0.140000X-0.170000X0.140000X-0.170000X-0.140000X0.170000X-0.140000X0.170000X0.140000X0*%
%ADD19RoundRect,0.250000X-0.325000X-0.650000X0.325000X-0.650000X0.325000X0.650000X-0.325000X0.650000X0*%
%ADD20RoundRect,0.225000X-0.250000X0.225000X-0.250000X-0.225000X0.250000X-0.225000X0.250000X0.225000X0*%
%ADD21C,1.016000*%
%ADD22R,1.450000X0.457000*%
%ADD23RoundRect,0.150000X0.150000X0.625000X-0.150000X0.625000X-0.150000X-0.625000X0.150000X-0.625000X0*%
%ADD24RoundRect,0.250000X0.350000X0.650000X-0.350000X0.650000X-0.350000X-0.650000X0.350000X-0.650000X0*%
%ADD25RoundRect,0.250000X-0.625000X0.312500X-0.625000X-0.312500X0.625000X-0.312500X0.625000X0.312500X0*%
%ADD26RoundRect,0.200000X-0.200000X-0.275000X0.200000X-0.275000X0.200000X0.275000X-0.200000X0.275000X0*%
%ADD27RoundRect,0.135000X-0.135000X-0.185000X0.135000X-0.185000X0.135000X0.185000X-0.135000X0.185000X0*%
%ADD28RoundRect,0.150000X-0.150000X0.512500X-0.150000X-0.512500X0.150000X-0.512500X0.150000X0.512500X0*%
%ADD29RoundRect,0.070000X-0.355000X0.070000X-0.355000X-0.070000X0.355000X-0.070000X0.355000X0.070000X0*%
%ADD30RoundRect,0.070000X-0.305000X0.070000X-0.305000X-0.070000X0.305000X-0.070000X0.305000X0.070000X0*%
%ADD31RoundRect,0.135000X0.135000X0.185000X-0.135000X0.185000X-0.135000X-0.185000X0.135000X-0.185000X0*%
%ADD32RoundRect,0.100000X0.225000X0.100000X-0.225000X0.100000X-0.225000X-0.100000X0.225000X-0.100000X0*%
%ADD33RoundRect,0.100000X-0.637500X-0.100000X0.637500X-0.100000X0.637500X0.100000X-0.637500X0.100000X0*%
%ADD34RoundRect,0.100000X-0.225000X-0.100000X0.225000X-0.100000X0.225000X0.100000X-0.225000X0.100000X0*%
%ADD35RoundRect,0.225000X-0.375000X0.225000X-0.375000X-0.225000X0.375000X-0.225000X0.375000X0.225000X0*%
%ADD36C,2.000000*%
%ADD37RoundRect,0.250000X-0.650000X0.325000X-0.650000X-0.325000X0.650000X-0.325000X0.650000X0.325000X0*%
%ADD38RoundRect,0.150000X-0.150000X0.587500X-0.150000X-0.587500X0.150000X-0.587500X0.150000X0.587500X0*%
%ADD39RoundRect,0.100000X0.637500X0.100000X-0.637500X0.100000X-0.637500X-0.100000X0.637500X-0.100000X0*%
%ADD40RoundRect,0.135000X0.185000X-0.135000X0.185000X0.135000X-0.185000X0.135000X-0.185000X-0.135000X0*%
%ADD41RoundRect,0.150000X0.512500X0.150000X-0.512500X0.150000X-0.512500X-0.150000X0.512500X-0.150000X0*%
%ADD42O,4.100000X3.000000*%
%ADD43C,1.600000*%
%ADD44RoundRect,0.250000X-0.550000X-0.550000X0.550000X-0.550000X0.550000X0.550000X-0.550000X0.550000X0*%
%ADD45RoundRect,0.150000X0.150000X-0.587500X0.150000X0.587500X-0.150000X0.587500X-0.150000X-0.587500X0*%
%ADD46R,1.700000X1.700000*%
%ADD47O,1.700000X1.700000*%
%ADD48RoundRect,0.150000X0.150000X-0.650000X0.150000X0.650000X-0.150000X0.650000X-0.150000X-0.650000X0*%
%ADD49C,5.700000*%
%ADD50R,1.400000X1.200000*%
%ADD51RoundRect,0.087500X0.725000X0.087500X-0.725000X0.087500X-0.725000X-0.087500X0.725000X-0.087500X0*%
%ADD52RoundRect,0.225000X-0.225000X-0.375000X0.225000X-0.375000X0.225000X0.375000X-0.225000X0.375000X0*%
%ADD53R,3.200000X3.200000*%
%ADD54RoundRect,0.050000X-0.050000X-0.387500X0.050000X-0.387500X0.050000X0.387500X-0.050000X0.387500X0*%
%ADD55RoundRect,0.050000X-0.387500X-0.050000X0.387500X-0.050000X0.387500X0.050000X-0.387500X0.050000X0*%
%ADD56C,3.500000*%
%ADD57C,2.154000*%
%ADD58C,1.612000*%
%ADD59RoundRect,0.102000X0.704000X-0.704000X0.704000X0.704000X-0.704000X0.704000X-0.704000X-0.704000X0*%
%ADD60RoundRect,0.150000X-0.512500X-0.150000X0.512500X-0.150000X0.512500X0.150000X-0.512500X0.150000X0*%
%ADD61R,0.300000X0.800000*%
%ADD62O,1.000000X1.800000*%
%ADD63O,1.000000X2.100000*%
%ADD64RoundRect,0.150000X0.150000X0.425000X-0.150000X0.425000X-0.150000X-0.425000X0.150000X-0.425000X0*%
%ADD65RoundRect,0.075000X0.075000X0.500000X-0.075000X0.500000X-0.075000X-0.500000X0.075000X-0.500000X0*%
%ADD66C,0.650000*%
%ADD67RoundRect,0.250001X-0.499999X-1.449999X0.499999X-1.449999X0.499999X1.449999X-0.499999X1.449999X0*%
%ADD68RoundRect,0.250000X-0.250000X-1.500000X0.250000X-1.500000X0.250000X1.500000X-0.250000X1.500000X0*%
%ADD69RoundRect,0.150000X0.587500X0.150000X-0.587500X0.150000X-0.587500X-0.150000X0.587500X-0.150000X0*%
G04 APERTURE END LIST*
D10*
%TO.C,G\u002A\u002A\u002A*%
G36*
X256178670Y-180411175D02*
G01*
X256260789Y-180440560D01*
X256271954Y-180446413D01*
X256326138Y-180483436D01*
X256368853Y-180531320D01*
X256404327Y-180595423D01*
X256420437Y-180634614D01*
X256427567Y-180652667D01*
X256443295Y-180691927D01*
X256467113Y-180751141D01*
X256498513Y-180829055D01*
X256536988Y-180924415D01*
X256582030Y-181035967D01*
X256633132Y-181162458D01*
X256689784Y-181302633D01*
X256751481Y-181455239D01*
X256817714Y-181619022D01*
X256887975Y-181792729D01*
X256961757Y-181975104D01*
X257038552Y-182164896D01*
X257117853Y-182360849D01*
X257199151Y-182561711D01*
X257281939Y-182766226D01*
X257365710Y-182973142D01*
X257449955Y-183181205D01*
X257534168Y-183389161D01*
X257617839Y-183595756D01*
X257700463Y-183799736D01*
X257781530Y-183999848D01*
X257860533Y-184194837D01*
X257936965Y-184383450D01*
X258010318Y-184564433D01*
X258080084Y-184736533D01*
X258145755Y-184898495D01*
X258206824Y-185049066D01*
X258262783Y-185186991D01*
X258313125Y-185311018D01*
X258357341Y-185419892D01*
X258394925Y-185512360D01*
X258425367Y-185587167D01*
X258448162Y-185643060D01*
X258462800Y-185678786D01*
X258467944Y-185691174D01*
X258493334Y-185773947D01*
X258496526Y-185854033D01*
X258477752Y-185937932D01*
X258476799Y-185940732D01*
X258470889Y-185959668D01*
X258458808Y-185999845D01*
X258441151Y-186059230D01*
X258418510Y-186135791D01*
X258391481Y-186227495D01*
X258360656Y-186332310D01*
X258326630Y-186448203D01*
X258289997Y-186573141D01*
X258251349Y-186705092D01*
X258211282Y-186842023D01*
X258170388Y-186981902D01*
X258129263Y-187122696D01*
X258088498Y-187262373D01*
X258048689Y-187398899D01*
X258010430Y-187530243D01*
X257974313Y-187654371D01*
X257940933Y-187769252D01*
X257910883Y-187872852D01*
X257884758Y-187963139D01*
X257863152Y-188038080D01*
X257846657Y-188095643D01*
X257835869Y-188133796D01*
X257832465Y-188146208D01*
X257802836Y-188213004D01*
X257754641Y-188270241D01*
X257692533Y-188315309D01*
X257621167Y-188345596D01*
X257545195Y-188358493D01*
X257469271Y-188351390D01*
X257467470Y-188350948D01*
X257426614Y-188337666D01*
X257383247Y-188319247D01*
X257376582Y-188315928D01*
X257361782Y-188309428D01*
X257325448Y-188294019D01*
X257268442Y-188270058D01*
X257191624Y-188237902D01*
X257095857Y-188197911D01*
X256982001Y-188150441D01*
X256850918Y-188095850D01*
X256703469Y-188034497D01*
X256540515Y-187966738D01*
X256362917Y-187892932D01*
X256171537Y-187813436D01*
X255967236Y-187728609D01*
X255750875Y-187638807D01*
X255523315Y-187544390D01*
X255285418Y-187445714D01*
X255038045Y-187343137D01*
X254782057Y-187237017D01*
X254518316Y-187127713D01*
X254247682Y-187015581D01*
X253971017Y-186900979D01*
X253815601Y-186836615D01*
X253536004Y-186720828D01*
X253261973Y-186607341D01*
X252994368Y-186496510D01*
X252734048Y-186388693D01*
X252481876Y-186284246D01*
X252238711Y-186183524D01*
X252005414Y-186086886D01*
X251782845Y-185994687D01*
X251571865Y-185907283D01*
X251373334Y-185825032D01*
X251188113Y-185748290D01*
X251017063Y-185677413D01*
X250861043Y-185612758D01*
X250784893Y-185581198D01*
X252370419Y-185581198D01*
X252381044Y-185586088D01*
X252412748Y-185599691D01*
X252464213Y-185621459D01*
X252534121Y-185650847D01*
X252621152Y-185687306D01*
X252723989Y-185730291D01*
X252841313Y-185779253D01*
X252971805Y-185833648D01*
X253114147Y-185892927D01*
X253267020Y-185956544D01*
X253429106Y-186023952D01*
X253599085Y-186094604D01*
X253775640Y-186167954D01*
X253957452Y-186243454D01*
X254143202Y-186320559D01*
X254331571Y-186398720D01*
X254521242Y-186477391D01*
X254710896Y-186556026D01*
X254899213Y-186634077D01*
X255084876Y-186710998D01*
X255266566Y-186786242D01*
X255442964Y-186859262D01*
X255612751Y-186929512D01*
X255774610Y-186996443D01*
X255927222Y-187059511D01*
X256069267Y-187118167D01*
X256199428Y-187171865D01*
X256316386Y-187220058D01*
X256418822Y-187262200D01*
X256505418Y-187297743D01*
X256574855Y-187326141D01*
X256625815Y-187346847D01*
X256656978Y-187359314D01*
X256667043Y-187363033D01*
X256660729Y-187353008D01*
X256641318Y-187324859D01*
X256609900Y-187280113D01*
X256567561Y-187220300D01*
X256515392Y-187146947D01*
X256454480Y-187061581D01*
X256385915Y-186965730D01*
X256310785Y-186860923D01*
X256230178Y-186748686D01*
X256145184Y-186630549D01*
X256140840Y-186624516D01*
X256055323Y-186505946D01*
X255973741Y-186393178D01*
X255897220Y-186287750D01*
X255826888Y-186191200D01*
X255763873Y-186105065D01*
X255709303Y-186030882D01*
X255664306Y-185970189D01*
X255661607Y-185966596D01*
X256420300Y-185966596D01*
X256425764Y-185977458D01*
X256443999Y-186005803D01*
X256473531Y-186049503D01*
X256512885Y-186106433D01*
X256560588Y-186174465D01*
X256615165Y-186251473D01*
X256675144Y-186335331D01*
X256694794Y-186362649D01*
X256756374Y-186447926D01*
X256813473Y-186526573D01*
X256864566Y-186596522D01*
X256908128Y-186655702D01*
X256942633Y-186702046D01*
X256966555Y-186733482D01*
X256978369Y-186747943D01*
X256979341Y-186748649D01*
X256978056Y-186736273D01*
X256972614Y-186703020D01*
X256963542Y-186651790D01*
X256951371Y-186585486D01*
X256936627Y-186507010D01*
X256919840Y-186419263D01*
X256911679Y-186377113D01*
X256893848Y-186285997D01*
X256877318Y-186202778D01*
X256862690Y-186130375D01*
X256850562Y-186071707D01*
X256849269Y-186065689D01*
X257472447Y-186065689D01*
X257472893Y-186078731D01*
X257477481Y-186111722D01*
X257485517Y-186161025D01*
X257496309Y-186223005D01*
X257509164Y-186294028D01*
X257523388Y-186370458D01*
X257538288Y-186448659D01*
X257553172Y-186524997D01*
X257567347Y-186595835D01*
X257580118Y-186657540D01*
X257590793Y-186706474D01*
X257598680Y-186739004D01*
X257603084Y-186751494D01*
X257603207Y-186751527D01*
X257608400Y-186740369D01*
X257619303Y-186708880D01*
X257634981Y-186660036D01*
X257654502Y-186596816D01*
X257676932Y-186522196D01*
X257701337Y-186439154D01*
X257703579Y-186431438D01*
X257727923Y-186347155D01*
X257749883Y-186270361D01*
X257768588Y-186204166D01*
X257783165Y-186151682D01*
X257792744Y-186116018D01*
X257796452Y-186100283D01*
X257796469Y-186100005D01*
X257785278Y-186095258D01*
X257755297Y-186089433D01*
X257711917Y-186083100D01*
X257660531Y-186076830D01*
X257606528Y-186071194D01*
X257555301Y-186066763D01*
X257512239Y-186064107D01*
X257482735Y-186063799D01*
X257472447Y-186065689D01*
X256849269Y-186065689D01*
X256841534Y-186029694D01*
X256836203Y-186007253D01*
X256835172Y-186004320D01*
X256821490Y-186001042D01*
X256788662Y-185996481D01*
X256741549Y-185991078D01*
X256685015Y-185985275D01*
X256623921Y-185979516D01*
X256563129Y-185974241D01*
X256507500Y-185969893D01*
X256461898Y-185966915D01*
X256431182Y-185965747D01*
X256420300Y-185966596D01*
X255661607Y-185966596D01*
X255630008Y-185924523D01*
X255607539Y-185895422D01*
X255598025Y-185884424D01*
X255597937Y-185884384D01*
X255584332Y-185882669D01*
X255548410Y-185878890D01*
X255491877Y-185873206D01*
X255416438Y-185865779D01*
X255323802Y-185856768D01*
X255215673Y-185846335D01*
X255093759Y-185834638D01*
X254959765Y-185821838D01*
X254815398Y-185808097D01*
X254662366Y-185793573D01*
X254502373Y-185778428D01*
X254337126Y-185762821D01*
X254168332Y-185746913D01*
X253997697Y-185730864D01*
X253826927Y-185714835D01*
X253657729Y-185698986D01*
X253491810Y-185683476D01*
X253330875Y-185668467D01*
X253176631Y-185654119D01*
X253030784Y-185640592D01*
X252895042Y-185628045D01*
X252771109Y-185616641D01*
X252660693Y-185606538D01*
X252565499Y-185597897D01*
X252487235Y-185590879D01*
X252427607Y-185585644D01*
X252388320Y-185582351D01*
X252371082Y-185581162D01*
X252370419Y-185581198D01*
X250784893Y-185581198D01*
X250720914Y-185554682D01*
X250597537Y-185503540D01*
X250491773Y-185459690D01*
X250404481Y-185423488D01*
X250336522Y-185395290D01*
X250288757Y-185375453D01*
X250262046Y-185364334D01*
X250256620Y-185362055D01*
X250188230Y-185320198D01*
X250135366Y-185262323D01*
X250099773Y-185192350D01*
X250083197Y-185114199D01*
X250087384Y-185031788D01*
X250095050Y-184999241D01*
X250105885Y-184966316D01*
X250119281Y-184938713D01*
X250139020Y-184911307D01*
X250168883Y-184878974D01*
X250201531Y-184847360D01*
X251101665Y-184847360D01*
X251101668Y-184847502D01*
X251114249Y-184849344D01*
X251149701Y-184853338D01*
X251206763Y-184859358D01*
X251284177Y-184867283D01*
X251380683Y-184876988D01*
X251495022Y-184888351D01*
X251625934Y-184901248D01*
X251772159Y-184915556D01*
X251932439Y-184931152D01*
X252105514Y-184947912D01*
X252290124Y-184965714D01*
X252485010Y-184984434D01*
X252688913Y-185003949D01*
X252900573Y-185024135D01*
X253110258Y-185044065D01*
X253328246Y-185064753D01*
X253539726Y-185084828D01*
X253743436Y-185104170D01*
X253938112Y-185122658D01*
X254122494Y-185140174D01*
X254295318Y-185156596D01*
X254455323Y-185171804D01*
X254601246Y-185185680D01*
X254731825Y-185198102D01*
X254845797Y-185208951D01*
X254941901Y-185218106D01*
X255018874Y-185225448D01*
X255075454Y-185230857D01*
X255110379Y-185234212D01*
X255122360Y-185235390D01*
X255129167Y-185228357D01*
X255128419Y-185224792D01*
X255120953Y-185213614D01*
X255100185Y-185183994D01*
X255066989Y-185137152D01*
X255022237Y-185074305D01*
X254966803Y-184996673D01*
X254901557Y-184905473D01*
X254827375Y-184801924D01*
X254745127Y-184687245D01*
X254655688Y-184562653D01*
X254559929Y-184429369D01*
X254458725Y-184288609D01*
X254352946Y-184141593D01*
X254276097Y-184034849D01*
X254166905Y-183883211D01*
X254061173Y-183736372D01*
X254029631Y-183692564D01*
X254781037Y-183692564D01*
X254783041Y-183699014D01*
X254797572Y-183722409D01*
X254822856Y-183760127D01*
X254857116Y-183809547D01*
X254898578Y-183868046D01*
X254921078Y-183899359D01*
X254957784Y-183950269D01*
X255006722Y-184018213D01*
X255065982Y-184100538D01*
X255133657Y-184194593D01*
X255207839Y-184297725D01*
X255286621Y-184407282D01*
X255368095Y-184520612D01*
X255450353Y-184635064D01*
X255499550Y-184703531D01*
X255575630Y-184809392D01*
X255647558Y-184909421D01*
X255714080Y-185001878D01*
X255773943Y-185085022D01*
X255825892Y-185157115D01*
X255868674Y-185216416D01*
X255901035Y-185261184D01*
X255921721Y-185289681D01*
X255929437Y-185300119D01*
X255942444Y-185302999D01*
X255976042Y-185307817D01*
X256026696Y-185314196D01*
X256090870Y-185321760D01*
X256165029Y-185330132D01*
X256245639Y-185338935D01*
X256329164Y-185347792D01*
X256412069Y-185356326D01*
X256490819Y-185364160D01*
X256561879Y-185370917D01*
X256621713Y-185376221D01*
X256666787Y-185379694D01*
X256685927Y-185380769D01*
X256710040Y-185379141D01*
X256716268Y-185367788D01*
X256714114Y-185354891D01*
X256709113Y-185330978D01*
X256701268Y-185290397D01*
X256691956Y-185240343D01*
X256687999Y-185218560D01*
X256678584Y-185167743D01*
X256670102Y-185124462D01*
X256663886Y-185095417D01*
X256662219Y-185088898D01*
X256652139Y-185079932D01*
X256624162Y-185057816D01*
X256579919Y-185023757D01*
X256521038Y-184978966D01*
X256449149Y-184924650D01*
X256365880Y-184862021D01*
X256272860Y-184792285D01*
X256171718Y-184716653D01*
X256064083Y-184636333D01*
X255951583Y-184552535D01*
X255835849Y-184466468D01*
X255718508Y-184379341D01*
X255601189Y-184292362D01*
X255485522Y-184206742D01*
X255373136Y-184123688D01*
X255265658Y-184044411D01*
X255164719Y-183970118D01*
X255071947Y-183902021D01*
X254988971Y-183841326D01*
X254917420Y-183789244D01*
X254858923Y-183746984D01*
X254815109Y-183715754D01*
X254787606Y-183696764D01*
X254781037Y-183692564D01*
X254029631Y-183692564D01*
X253959820Y-183595607D01*
X253863765Y-183462193D01*
X253773926Y-183337405D01*
X253691222Y-183222519D01*
X253616570Y-183118811D01*
X253550890Y-183027558D01*
X253495099Y-182950034D01*
X253450117Y-182887517D01*
X253416862Y-182841281D01*
X253396252Y-182812604D01*
X253390055Y-182803960D01*
X253352295Y-182751069D01*
X252223689Y-183795993D01*
X252083631Y-183925763D01*
X251948680Y-184050994D01*
X251819886Y-184170700D01*
X251698299Y-184283899D01*
X251584969Y-184389604D01*
X251480948Y-184486831D01*
X251387285Y-184574597D01*
X251305031Y-184651916D01*
X251235237Y-184717805D01*
X251178953Y-184771278D01*
X251137229Y-184811351D01*
X251111116Y-184837040D01*
X251101665Y-184847360D01*
X250201531Y-184847360D01*
X250212652Y-184836591D01*
X250220658Y-184829043D01*
X250241651Y-184809432D01*
X250279361Y-184774366D01*
X250332712Y-184724842D01*
X250400624Y-184661860D01*
X250482020Y-184586417D01*
X250575822Y-184499511D01*
X250680952Y-184402141D01*
X250796331Y-184295305D01*
X250920883Y-184180001D01*
X251053529Y-184057228D01*
X251193190Y-183927983D01*
X251338790Y-183793266D01*
X251489250Y-183654073D01*
X251643492Y-183511405D01*
X251658540Y-183497487D01*
X251813198Y-183354415D01*
X251964232Y-183214635D01*
X252110559Y-183079152D01*
X252251095Y-182948971D01*
X252384758Y-182825097D01*
X252510465Y-182708535D01*
X252627132Y-182600292D01*
X252733677Y-182501370D01*
X252829017Y-182412777D01*
X252912068Y-182335517D01*
X252981748Y-182270596D01*
X253036973Y-182219018D01*
X253076661Y-182181788D01*
X253099728Y-182159913D01*
X253100943Y-182158740D01*
X253165782Y-182098425D01*
X253219828Y-182054662D01*
X253267437Y-182025086D01*
X253312965Y-182007331D01*
X253360768Y-181999032D01*
X253397685Y-181997581D01*
X253429955Y-181998168D01*
X253458220Y-182001024D01*
X253485579Y-182007794D01*
X253515134Y-182020121D01*
X253549982Y-182039650D01*
X253593223Y-182068024D01*
X253647959Y-182106887D01*
X253717287Y-182157884D01*
X253760474Y-182189997D01*
X253822746Y-182236267D01*
X253899057Y-182292790D01*
X253988077Y-182358589D01*
X254088477Y-182432690D01*
X254198927Y-182514116D01*
X254318096Y-182601893D01*
X254444655Y-182695044D01*
X254577274Y-182792594D01*
X254714623Y-182893567D01*
X254855371Y-182996988D01*
X254998190Y-183101881D01*
X255141749Y-183207270D01*
X255284719Y-183312180D01*
X255425768Y-183415635D01*
X255563569Y-183516660D01*
X255696789Y-183614278D01*
X255824100Y-183707515D01*
X255944172Y-183795395D01*
X256055674Y-183876941D01*
X256157278Y-183951179D01*
X256247652Y-184017133D01*
X256325467Y-184073827D01*
X256389393Y-184120285D01*
X256438100Y-184155532D01*
X256470259Y-184178593D01*
X256484538Y-184188491D01*
X256485155Y-184188802D01*
X256483299Y-184176737D01*
X256477064Y-184142218D01*
X256466706Y-184086580D01*
X256452481Y-184011157D01*
X256434645Y-183917286D01*
X256413455Y-183806300D01*
X256402952Y-183751480D01*
X257023680Y-183751480D01*
X257024815Y-183764058D01*
X257030131Y-183797892D01*
X257039169Y-183850445D01*
X257051475Y-183919186D01*
X257066592Y-184001578D01*
X257084063Y-184095087D01*
X257103433Y-184197181D01*
X257111460Y-184239073D01*
X257134593Y-184359171D01*
X257153781Y-184457723D01*
X257169585Y-184536998D01*
X257182564Y-184599262D01*
X257193281Y-184646785D01*
X257202294Y-184681835D01*
X257210166Y-184706679D01*
X257217455Y-184723586D01*
X257224724Y-184734824D01*
X257232531Y-184742661D01*
X257236721Y-184745945D01*
X257259385Y-184762859D01*
X257296128Y-184790307D01*
X257341619Y-184824305D01*
X257384407Y-184856294D01*
X257429519Y-184889424D01*
X257467175Y-184915943D01*
X257493434Y-184933153D01*
X257504350Y-184938362D01*
X257500853Y-184926695D01*
X257489042Y-184894663D01*
X257469738Y-184844352D01*
X257443761Y-184777846D01*
X257411933Y-184697230D01*
X257375074Y-184604588D01*
X257334006Y-184502005D01*
X257289550Y-184391567D01*
X257268883Y-184340420D01*
X257223040Y-184227410D01*
X257179880Y-184121623D01*
X257140256Y-184025108D01*
X257105022Y-183939914D01*
X257075028Y-183868088D01*
X257051130Y-183811680D01*
X257034179Y-183772737D01*
X257025028Y-183753308D01*
X257023680Y-183751480D01*
X256402952Y-183751480D01*
X256398454Y-183728006D01*
X257008779Y-183728006D01*
X257014838Y-183734065D01*
X257020897Y-183728006D01*
X257014838Y-183721947D01*
X257008779Y-183728006D01*
X256398454Y-183728006D01*
X256389167Y-183679536D01*
X256362037Y-183538328D01*
X256332320Y-183384011D01*
X256300274Y-183217920D01*
X256266154Y-183041391D01*
X256230216Y-182855758D01*
X256192717Y-182662357D01*
X256158159Y-182484374D01*
X256104315Y-182206702D01*
X256055290Y-181952719D01*
X256011072Y-181722364D01*
X255971648Y-181515576D01*
X255937009Y-181332293D01*
X255907142Y-181172455D01*
X255882036Y-181035999D01*
X255861679Y-180922865D01*
X255846061Y-180832991D01*
X255835169Y-180766316D01*
X255828994Y-180722779D01*
X255827440Y-180704485D01*
X255837139Y-180618940D01*
X255866970Y-180546627D01*
X255917342Y-180486696D01*
X255940915Y-180467745D01*
X256017875Y-180424823D01*
X256097413Y-180405948D01*
X256178670Y-180411175D01*
G37*
G36*
X258769101Y-189001108D02*
G01*
X258870122Y-189042085D01*
X258955089Y-189088428D01*
X259032184Y-189145233D01*
X259098273Y-189206188D01*
X259186290Y-189307270D01*
X259254712Y-189416956D01*
X259307395Y-189541455D01*
X259308540Y-189544800D01*
X259341555Y-189641747D01*
X259341555Y-190417319D01*
X259341555Y-191192892D01*
X259308540Y-191289838D01*
X259256200Y-191414785D01*
X259188217Y-191524765D01*
X259100736Y-191625986D01*
X259098273Y-191628450D01*
X259020628Y-191698936D01*
X258942183Y-191754216D01*
X258854662Y-191799432D01*
X258769101Y-191833039D01*
X258736046Y-191844551D01*
X258707624Y-191853474D01*
X258680079Y-191860193D01*
X258649653Y-191865093D01*
X258612592Y-191868560D01*
X258565139Y-191870979D01*
X258503538Y-191872734D01*
X258424034Y-191874211D01*
X258357270Y-191875262D01*
X258051610Y-191879987D01*
X258048253Y-192477761D01*
X258047462Y-192613578D01*
X258046685Y-192727266D01*
X258045828Y-192820929D01*
X258044795Y-192896675D01*
X258043492Y-192956610D01*
X258041824Y-193002840D01*
X258039698Y-193037472D01*
X258037018Y-193062611D01*
X258033689Y-193080365D01*
X258029618Y-193092840D01*
X258024709Y-193102141D01*
X258019910Y-193108989D01*
X257991835Y-193140692D01*
X257963250Y-193166092D01*
X257922595Y-193184840D01*
X257870096Y-193193966D01*
X257816535Y-193192541D01*
X257777691Y-193182099D01*
X257733904Y-193152487D01*
X257696506Y-193109983D01*
X257672724Y-193063412D01*
X257669270Y-193049667D01*
X257668522Y-193033405D01*
X257667838Y-192994215D01*
X257667220Y-192933404D01*
X257666672Y-192852279D01*
X257666195Y-192752151D01*
X257665791Y-192634325D01*
X257665464Y-192500110D01*
X257665215Y-192350814D01*
X257665046Y-192187745D01*
X257664960Y-192012211D01*
X257664959Y-191825520D01*
X257665046Y-191628979D01*
X257665222Y-191423897D01*
X257665490Y-191211582D01*
X257665759Y-191045329D01*
X257666212Y-190789960D01*
X257666638Y-190557710D01*
X257667054Y-190347462D01*
X257667476Y-190158097D01*
X257667918Y-189988499D01*
X257668397Y-189837550D01*
X257668930Y-189704132D01*
X257669531Y-189587128D01*
X257670217Y-189485421D01*
X257671004Y-189397892D01*
X257671647Y-189344848D01*
X258050954Y-189344848D01*
X258050954Y-190417319D01*
X258050954Y-191489790D01*
X258310418Y-191489790D01*
X258401193Y-191489486D01*
X258471701Y-191488395D01*
X258525907Y-191486249D01*
X258567776Y-191482780D01*
X258601272Y-191477720D01*
X258630360Y-191470802D01*
X258641845Y-191467393D01*
X258737323Y-191426301D01*
X258817862Y-191366722D01*
X258884447Y-191287776D01*
X258927860Y-191211069D01*
X258933194Y-191199388D01*
X258937741Y-191187262D01*
X258941563Y-191172765D01*
X258944724Y-191153971D01*
X258947286Y-191128953D01*
X258949312Y-191095786D01*
X258950865Y-191052543D01*
X258952007Y-190997299D01*
X258952803Y-190928127D01*
X258953313Y-190843102D01*
X258953603Y-190740297D01*
X258953733Y-190617787D01*
X258953768Y-190473645D01*
X258953769Y-190417319D01*
X258953753Y-190265093D01*
X258953664Y-190135177D01*
X258953437Y-190025646D01*
X258953012Y-189934573D01*
X258952324Y-189860033D01*
X258951311Y-189800100D01*
X258949910Y-189752846D01*
X258948058Y-189716347D01*
X258945692Y-189688677D01*
X258942750Y-189667908D01*
X258939168Y-189652116D01*
X258934884Y-189639374D01*
X258929834Y-189627756D01*
X258927860Y-189623569D01*
X258871613Y-189528686D01*
X258802187Y-189453868D01*
X258718601Y-189398233D01*
X258641845Y-189367245D01*
X258613416Y-189359493D01*
X258582192Y-189353710D01*
X258544208Y-189349626D01*
X258495500Y-189346974D01*
X258432104Y-189345486D01*
X258350054Y-189344894D01*
X258310418Y-189344848D01*
X258050954Y-189344848D01*
X257671647Y-189344848D01*
X257671907Y-189323425D01*
X257672943Y-189260902D01*
X257674128Y-189209204D01*
X257675477Y-189167216D01*
X257677006Y-189133818D01*
X257678731Y-189107894D01*
X257680668Y-189088327D01*
X257682833Y-189073998D01*
X257685242Y-189063790D01*
X257687911Y-189056585D01*
X257690856Y-189051267D01*
X257694092Y-189046717D01*
X257694212Y-189046555D01*
X257723073Y-189014214D01*
X257752693Y-188988106D01*
X257762279Y-188981567D01*
X257773381Y-188976281D01*
X257788508Y-188972113D01*
X257810171Y-188968932D01*
X257840879Y-188966605D01*
X257883143Y-188964999D01*
X257939471Y-188963980D01*
X258012375Y-188963416D01*
X258104363Y-188963174D01*
X258217946Y-188963121D01*
X258224559Y-188963121D01*
X258662929Y-188963121D01*
X258769101Y-189001108D01*
G37*
G36*
X249122917Y-189001108D02*
G01*
X249223939Y-189042085D01*
X249308906Y-189088428D01*
X249386001Y-189145233D01*
X249452090Y-189206188D01*
X249540107Y-189307270D01*
X249608528Y-189416956D01*
X249661212Y-189541455D01*
X249662357Y-189544800D01*
X249695372Y-189641747D01*
X249695372Y-190417319D01*
X249695372Y-191192892D01*
X249662357Y-191289838D01*
X249610016Y-191414785D01*
X249542034Y-191524765D01*
X249454553Y-191625986D01*
X249452090Y-191628450D01*
X249374445Y-191698936D01*
X249296000Y-191754216D01*
X249208479Y-191799432D01*
X249122917Y-191833039D01*
X249089863Y-191844551D01*
X249061441Y-191853474D01*
X249033895Y-191860193D01*
X249003470Y-191865093D01*
X248966409Y-191868560D01*
X248918956Y-191870979D01*
X248857355Y-191872734D01*
X248777851Y-191874211D01*
X248711086Y-191875262D01*
X248405427Y-191879987D01*
X248402069Y-192477761D01*
X248401279Y-192613578D01*
X248400502Y-192727266D01*
X248399644Y-192820929D01*
X248398612Y-192896675D01*
X248397309Y-192956610D01*
X248395641Y-193002840D01*
X248393515Y-193037472D01*
X248390835Y-193062611D01*
X248387506Y-193080365D01*
X248383435Y-193092840D01*
X248378526Y-193102141D01*
X248373726Y-193108989D01*
X248345652Y-193140692D01*
X248317067Y-193166092D01*
X248276412Y-193184840D01*
X248223913Y-193193966D01*
X248170352Y-193192541D01*
X248131508Y-193182099D01*
X248087721Y-193152487D01*
X248050323Y-193109983D01*
X248026541Y-193063412D01*
X248023087Y-193049667D01*
X248022339Y-193033405D01*
X248021654Y-192994215D01*
X248021037Y-192933404D01*
X248020489Y-192852279D01*
X248020012Y-192752151D01*
X248019608Y-192634325D01*
X248019281Y-192500110D01*
X248019032Y-192350814D01*
X248018863Y-192187745D01*
X248018777Y-192012211D01*
X248018776Y-191825520D01*
X248018863Y-191628979D01*
X248019039Y-191423897D01*
X248019307Y-191211582D01*
X248019575Y-191045329D01*
X248020029Y-190789960D01*
X248020455Y-190557710D01*
X248020871Y-190347462D01*
X248021292Y-190158097D01*
X248021735Y-189988499D01*
X248022214Y-189837550D01*
X248022747Y-189704132D01*
X248023348Y-189587128D01*
X248024034Y-189485421D01*
X248024821Y-189397892D01*
X248025464Y-189344848D01*
X248404771Y-189344848D01*
X248404771Y-190417319D01*
X248404771Y-191489790D01*
X248664235Y-191489790D01*
X248755010Y-191489486D01*
X248825518Y-191488395D01*
X248879724Y-191486249D01*
X248921593Y-191482780D01*
X248955089Y-191477720D01*
X248984177Y-191470802D01*
X248995662Y-191467393D01*
X249091140Y-191426301D01*
X249171679Y-191366722D01*
X249238264Y-191287776D01*
X249281677Y-191211069D01*
X249287011Y-191199388D01*
X249291558Y-191187262D01*
X249295380Y-191172765D01*
X249298541Y-191153971D01*
X249301103Y-191128953D01*
X249303129Y-191095786D01*
X249304681Y-191052543D01*
X249305824Y-190997299D01*
X249306619Y-190928127D01*
X249307130Y-190843102D01*
X249307419Y-190740297D01*
X249307550Y-190617787D01*
X249307585Y-190473645D01*
X249307586Y-190417319D01*
X249307570Y-190265093D01*
X249307480Y-190135177D01*
X249307254Y-190025646D01*
X249306829Y-189934573D01*
X249306141Y-189860033D01*
X249305128Y-189800100D01*
X249303727Y-189752846D01*
X249301875Y-189716347D01*
X249299509Y-189688677D01*
X249296567Y-189667908D01*
X249292985Y-189652116D01*
X249288700Y-189639374D01*
X249283651Y-189627756D01*
X249281677Y-189623569D01*
X249225429Y-189528686D01*
X249156004Y-189453868D01*
X249072418Y-189398233D01*
X248995662Y-189367245D01*
X248967232Y-189359493D01*
X248936008Y-189353710D01*
X248898025Y-189349626D01*
X248849317Y-189346974D01*
X248785921Y-189345486D01*
X248703871Y-189344894D01*
X248664235Y-189344848D01*
X248404771Y-189344848D01*
X248025464Y-189344848D01*
X248025724Y-189323425D01*
X248026760Y-189260902D01*
X248027945Y-189209204D01*
X248029293Y-189167216D01*
X248030822Y-189133818D01*
X248032548Y-189107894D01*
X248034485Y-189088327D01*
X248036650Y-189073998D01*
X248039059Y-189063790D01*
X248041728Y-189056585D01*
X248044673Y-189051267D01*
X248047909Y-189046717D01*
X248048029Y-189046555D01*
X248076890Y-189014214D01*
X248106510Y-188988106D01*
X248116096Y-188981567D01*
X248127198Y-188976281D01*
X248142325Y-188972113D01*
X248163988Y-188968932D01*
X248194696Y-188966605D01*
X248236959Y-188964999D01*
X248293288Y-188963980D01*
X248366191Y-188963416D01*
X248458180Y-188963174D01*
X248571763Y-188963121D01*
X248578376Y-188963121D01*
X249016746Y-188963121D01*
X249122917Y-189001108D01*
G37*
G36*
X263730300Y-188956672D02*
G01*
X263781428Y-188989272D01*
X263819637Y-189035975D01*
X263840714Y-189093608D01*
X263843511Y-189125273D01*
X263840110Y-189139859D01*
X263830211Y-189176113D01*
X263814274Y-189232485D01*
X263792759Y-189307427D01*
X263766124Y-189399389D01*
X263734830Y-189506822D01*
X263699336Y-189628176D01*
X263660100Y-189761903D01*
X263617583Y-189906454D01*
X263572243Y-190060279D01*
X263524541Y-190221829D01*
X263474935Y-190389555D01*
X263423884Y-190561908D01*
X263371849Y-190737339D01*
X263319288Y-190914298D01*
X263266662Y-191091237D01*
X263214428Y-191266605D01*
X263163047Y-191438855D01*
X263112978Y-191606436D01*
X263064680Y-191767800D01*
X263018613Y-191921397D01*
X262975236Y-192065679D01*
X262935009Y-192199096D01*
X262898390Y-192320099D01*
X262865839Y-192427139D01*
X262837816Y-192518666D01*
X262824367Y-192562262D01*
X262787143Y-192669892D01*
X262746728Y-192759274D01*
X262699723Y-192836391D01*
X262642729Y-192907232D01*
X262607602Y-192943989D01*
X262496614Y-193038708D01*
X262376017Y-193111712D01*
X262247033Y-193162436D01*
X262110887Y-193190311D01*
X262068177Y-193194176D01*
X262016292Y-193196545D01*
X261980044Y-193194767D01*
X261951012Y-193187611D01*
X261920771Y-193173848D01*
X261917595Y-193172186D01*
X261864873Y-193132102D01*
X261832043Y-193078406D01*
X261819818Y-193012307D01*
X261819752Y-193006601D01*
X261827824Y-192940555D01*
X261852907Y-192888898D01*
X261896297Y-192850471D01*
X261959293Y-192824116D01*
X262041366Y-192808879D01*
X262150763Y-192786736D01*
X262243984Y-192746568D01*
X262321111Y-192688322D01*
X262382228Y-192611945D01*
X262398037Y-192584390D01*
X262412275Y-192552317D01*
X262431144Y-192502170D01*
X262453664Y-192437237D01*
X262478856Y-192360810D01*
X262505740Y-192276178D01*
X262533336Y-192186631D01*
X262560665Y-192095459D01*
X262586748Y-192005952D01*
X262610604Y-191921401D01*
X262631254Y-191845095D01*
X262647719Y-191780325D01*
X262659018Y-191730379D01*
X262664174Y-191698550D01*
X262664162Y-191690577D01*
X262659866Y-191674024D01*
X262649067Y-191635852D01*
X262632235Y-191577652D01*
X262609842Y-191501017D01*
X262582357Y-191407538D01*
X262550252Y-191298807D01*
X262513998Y-191176418D01*
X262474064Y-191041961D01*
X262430922Y-190897028D01*
X262385043Y-190743213D01*
X262336897Y-190582106D01*
X262298452Y-190453674D01*
X262248664Y-190287389D01*
X262200608Y-190126738D01*
X262154771Y-189973357D01*
X262111640Y-189828883D01*
X262071702Y-189694951D01*
X262035444Y-189573198D01*
X262003353Y-189465261D01*
X261975916Y-189372775D01*
X261953621Y-189297378D01*
X261936953Y-189240704D01*
X261926401Y-189204392D01*
X261922806Y-189191555D01*
X261913826Y-189119357D01*
X261927148Y-189056349D01*
X261962936Y-189001851D01*
X261970905Y-188993732D01*
X262022729Y-188958446D01*
X262081385Y-188942398D01*
X262141455Y-188944801D01*
X262197522Y-188964868D01*
X262244168Y-189001810D01*
X262268130Y-189036928D01*
X262274300Y-189053806D01*
X262286798Y-189092147D01*
X262305082Y-189150171D01*
X262328610Y-189226100D01*
X262356839Y-189318153D01*
X262389227Y-189424551D01*
X262425231Y-189543515D01*
X262464310Y-189673265D01*
X262505920Y-189812023D01*
X262549520Y-189958007D01*
X262577147Y-190050809D01*
X262621382Y-190199345D01*
X262663711Y-190341022D01*
X262703619Y-190474144D01*
X262740591Y-190597016D01*
X262774113Y-190707942D01*
X262803670Y-190805226D01*
X262828747Y-190887172D01*
X262848829Y-190952084D01*
X262863403Y-190998267D01*
X262871953Y-191024026D01*
X262874046Y-191029014D01*
X262878398Y-191017704D01*
X262889170Y-190984919D01*
X262905824Y-190932400D01*
X262927825Y-190861890D01*
X262954638Y-190775131D01*
X262985726Y-190673864D01*
X263020554Y-190559832D01*
X263058586Y-190434776D01*
X263099287Y-190300438D01*
X263142119Y-190158561D01*
X263158203Y-190105159D01*
X263202276Y-189958751D01*
X263244771Y-189817602D01*
X263285106Y-189683648D01*
X263322698Y-189558824D01*
X263356963Y-189445067D01*
X263387318Y-189344312D01*
X263413181Y-189258495D01*
X263433968Y-189189550D01*
X263449096Y-189139415D01*
X263457982Y-189110023D01*
X263459247Y-189105858D01*
X263489911Y-189034290D01*
X263532481Y-188983326D01*
X263587881Y-188951962D01*
X263606140Y-188946475D01*
X263670466Y-188941348D01*
X263730300Y-188956672D01*
G37*
G36*
X264909924Y-188939524D02*
G01*
X264973879Y-188940442D01*
X265021639Y-188943382D01*
X265061231Y-188949653D01*
X265100686Y-188960564D01*
X265148033Y-188977422D01*
X265152290Y-188979025D01*
X265271959Y-189034692D01*
X265380146Y-189106020D01*
X265473143Y-189190039D01*
X265547242Y-189283781D01*
X265561323Y-189306578D01*
X265588183Y-189372277D01*
X265593333Y-189436957D01*
X265577747Y-189496721D01*
X265542401Y-189547676D01*
X265491788Y-189584185D01*
X265424946Y-189606343D01*
X265360536Y-189605630D01*
X265301992Y-189583011D01*
X265252749Y-189539452D01*
X265233554Y-189511609D01*
X265177319Y-189435964D01*
X265108749Y-189380659D01*
X265026860Y-189345154D01*
X264930669Y-189328911D01*
X264897805Y-189327703D01*
X264815141Y-189332140D01*
X264747490Y-189349087D01*
X264687639Y-189381387D01*
X264628375Y-189431889D01*
X264624824Y-189435416D01*
X264567794Y-189507812D01*
X264530141Y-189589013D01*
X264512099Y-189674968D01*
X264513901Y-189761625D01*
X264535779Y-189844932D01*
X264577964Y-189920836D01*
X264595708Y-189942807D01*
X264619191Y-189964991D01*
X264660389Y-189998916D01*
X264716920Y-190042781D01*
X264786404Y-190094780D01*
X264866455Y-190153111D01*
X264954694Y-190215970D01*
X264980700Y-190234246D01*
X265063818Y-190293056D01*
X265143327Y-190350384D01*
X265216299Y-190404038D01*
X265279805Y-190451828D01*
X265330917Y-190491560D01*
X265366707Y-190521042D01*
X265379422Y-190532714D01*
X265463237Y-190630018D01*
X265527908Y-190736571D01*
X265569351Y-190834866D01*
X265584543Y-190879474D01*
X265594889Y-190916869D01*
X265601321Y-190953767D01*
X265604772Y-190996885D01*
X265606174Y-191052939D01*
X265606432Y-191102004D01*
X265603355Y-191207229D01*
X265592540Y-191295498D01*
X265572241Y-191373343D01*
X265540712Y-191447292D01*
X265496208Y-191523875D01*
X265491781Y-191530698D01*
X265407717Y-191638615D01*
X265308931Y-191729566D01*
X265198151Y-191802467D01*
X265078100Y-191856231D01*
X264951505Y-191889772D01*
X264821091Y-191902003D01*
X264689582Y-191891839D01*
X264621865Y-191877394D01*
X264499443Y-191834139D01*
X264384130Y-191771695D01*
X264280391Y-191693189D01*
X264192689Y-191601748D01*
X264155073Y-191550382D01*
X264118033Y-191478633D01*
X264102328Y-191410394D01*
X264107257Y-191348214D01*
X264132120Y-191294640D01*
X264176218Y-191252221D01*
X264238850Y-191223504D01*
X264245396Y-191221672D01*
X264312512Y-191213784D01*
X264371327Y-191228585D01*
X264423002Y-191266457D01*
X264439970Y-191285674D01*
X264492247Y-191348882D01*
X264535455Y-191395801D01*
X264573842Y-191430389D01*
X264611656Y-191456608D01*
X264639800Y-191471972D01*
X264678040Y-191489536D01*
X264712049Y-191500140D01*
X264750543Y-191505512D01*
X264802240Y-191507379D01*
X264819036Y-191507504D01*
X264875008Y-191506824D01*
X264915296Y-191503120D01*
X264948414Y-191494751D01*
X264982875Y-191480074D01*
X264996633Y-191473242D01*
X265075680Y-191421531D01*
X265143569Y-191354258D01*
X265190657Y-191283779D01*
X265203875Y-191254998D01*
X265212268Y-191225823D01*
X265216871Y-191189596D01*
X265218721Y-191139658D01*
X265218941Y-191102004D01*
X265218438Y-191043331D01*
X265216073Y-191002009D01*
X265210557Y-190971159D01*
X265200603Y-190943901D01*
X265184923Y-190913356D01*
X265182972Y-190909822D01*
X265170672Y-190888304D01*
X265158006Y-190868797D01*
X265143007Y-190849687D01*
X265123708Y-190829359D01*
X265098140Y-190806199D01*
X265064338Y-190778592D01*
X265020332Y-190744924D01*
X264964155Y-190703580D01*
X264893841Y-190652946D01*
X264807421Y-190591408D01*
X264715685Y-190526384D01*
X264618091Y-190456563D01*
X264530611Y-190392566D01*
X264455216Y-190335902D01*
X264393877Y-190288079D01*
X264348565Y-190250605D01*
X264321251Y-190224989D01*
X264319840Y-190223426D01*
X264245757Y-190123023D01*
X264186121Y-190007151D01*
X264156719Y-189926527D01*
X264136402Y-189834230D01*
X264127360Y-189731315D01*
X264129626Y-189626838D01*
X264143230Y-189529856D01*
X264155169Y-189484208D01*
X264206363Y-189361805D01*
X264277896Y-189249792D01*
X264367166Y-189150734D01*
X264471575Y-189067194D01*
X264588523Y-189001735D01*
X264679676Y-188967039D01*
X264729104Y-188953440D01*
X264776420Y-188944981D01*
X264829966Y-188940663D01*
X264898086Y-188939491D01*
X264909924Y-188939524D01*
G37*
G36*
X260134864Y-187648263D02*
G01*
X260182051Y-187668988D01*
X260223903Y-187708305D01*
X260237562Y-187725649D01*
X260243241Y-187733914D01*
X260248003Y-187743596D01*
X260251944Y-187756802D01*
X260255158Y-187775637D01*
X260257739Y-187802207D01*
X260259783Y-187838619D01*
X260261383Y-187886978D01*
X260262635Y-187949391D01*
X260263632Y-188027964D01*
X260264469Y-188124802D01*
X260265242Y-188242012D01*
X260265905Y-188357016D01*
X260269263Y-188954929D01*
X260574923Y-188959753D01*
X260669783Y-188961358D01*
X260744152Y-188963047D01*
X260801772Y-188965165D01*
X260846388Y-188968056D01*
X260881743Y-188972067D01*
X260911581Y-188977541D01*
X260939645Y-188984825D01*
X260969679Y-188994263D01*
X260977529Y-188996864D01*
X261103757Y-189049087D01*
X261215205Y-189117820D01*
X261316656Y-189205673D01*
X261404225Y-189306757D01*
X261472650Y-189417213D01*
X261525535Y-189542876D01*
X261526193Y-189544800D01*
X261559208Y-189641747D01*
X261559208Y-190710295D01*
X261559200Y-190895560D01*
X261559153Y-191058125D01*
X261559031Y-191199528D01*
X261558801Y-191321306D01*
X261558426Y-191424997D01*
X261557873Y-191512137D01*
X261557107Y-191584265D01*
X261556092Y-191642916D01*
X261554794Y-191689629D01*
X261553177Y-191725941D01*
X261551208Y-191753389D01*
X261548851Y-191773511D01*
X261546071Y-191787842D01*
X261542834Y-191797922D01*
X261539104Y-191805287D01*
X261534847Y-191811475D01*
X261534223Y-191812314D01*
X261492470Y-191858489D01*
X261447839Y-191884805D01*
X261392705Y-191895169D01*
X261371374Y-191895754D01*
X261311223Y-191889714D01*
X261264035Y-191868989D01*
X261222183Y-191829670D01*
X261208525Y-191812328D01*
X261204156Y-191806074D01*
X261200317Y-191798728D01*
X261196964Y-191788741D01*
X261194053Y-191774560D01*
X261191539Y-191754633D01*
X261189377Y-191727410D01*
X261187524Y-191691339D01*
X261185935Y-191644869D01*
X261184565Y-191586448D01*
X261183371Y-191514524D01*
X261182306Y-191427547D01*
X261181328Y-191323965D01*
X261180392Y-191202227D01*
X261179453Y-191060781D01*
X261178467Y-190898075D01*
X261177481Y-190728487D01*
X261171422Y-189678101D01*
X261135908Y-189605656D01*
X261080931Y-189519665D01*
X261008094Y-189445823D01*
X260922785Y-189389515D01*
X260916673Y-189386461D01*
X260844227Y-189350989D01*
X260556589Y-189346959D01*
X260268950Y-189342929D01*
X260265749Y-190560894D01*
X260265220Y-190759469D01*
X260264719Y-190935241D01*
X260264214Y-191089646D01*
X260263671Y-191224118D01*
X260263059Y-191340091D01*
X260262345Y-191439000D01*
X260261497Y-191522279D01*
X260260483Y-191591362D01*
X260259271Y-191647684D01*
X260257827Y-191692680D01*
X260256120Y-191727783D01*
X260254118Y-191754429D01*
X260251788Y-191774052D01*
X260249098Y-191788086D01*
X260246016Y-191797965D01*
X260242508Y-191805125D01*
X260238544Y-191810999D01*
X260237562Y-191812321D01*
X260209491Y-191844026D01*
X260180903Y-191869431D01*
X260140248Y-191888180D01*
X260087749Y-191897306D01*
X260034187Y-191895881D01*
X259995344Y-191885439D01*
X259951557Y-191855827D01*
X259914159Y-191813323D01*
X259890377Y-191766752D01*
X259886923Y-191753007D01*
X259886177Y-191736758D01*
X259885495Y-191697576D01*
X259884879Y-191636765D01*
X259884331Y-191555628D01*
X259883855Y-191455469D01*
X259883451Y-191337593D01*
X259883123Y-191203302D01*
X259882873Y-191053901D01*
X259882703Y-190890693D01*
X259882615Y-190714982D01*
X259882611Y-190528071D01*
X259882694Y-190331264D01*
X259882866Y-190125866D01*
X259883130Y-189913179D01*
X259883412Y-189736551D01*
X259883863Y-189480360D01*
X259884289Y-189247291D01*
X259884703Y-189036231D01*
X259885123Y-188846066D01*
X259885563Y-188675681D01*
X259886041Y-188523963D01*
X259886570Y-188389798D01*
X259887167Y-188272071D01*
X259887849Y-188169669D01*
X259888630Y-188081478D01*
X259889526Y-188006384D01*
X259890554Y-187943272D01*
X259891729Y-187891029D01*
X259893066Y-187848541D01*
X259894581Y-187814694D01*
X259896291Y-187788374D01*
X259898211Y-187768466D01*
X259900357Y-187753858D01*
X259902744Y-187743434D01*
X259905388Y-187736081D01*
X259908306Y-187730685D01*
X259911512Y-187726132D01*
X259911865Y-187725658D01*
X259953620Y-187679486D01*
X259998249Y-187653172D01*
X260053379Y-187642809D01*
X260074714Y-187642224D01*
X260134864Y-187648263D01*
G37*
G36*
X253449158Y-189001108D02*
G01*
X253550179Y-189042085D01*
X253635146Y-189088428D01*
X253712241Y-189145233D01*
X253778331Y-189206188D01*
X253866347Y-189307270D01*
X253934769Y-189416956D01*
X253987452Y-189541455D01*
X253988597Y-189544800D01*
X254021613Y-189641747D01*
X254021613Y-190710295D01*
X254021605Y-190895560D01*
X254021557Y-191058125D01*
X254021436Y-191199528D01*
X254021205Y-191321306D01*
X254020831Y-191424997D01*
X254020278Y-191512137D01*
X254019511Y-191584265D01*
X254018497Y-191642916D01*
X254017198Y-191689629D01*
X254015582Y-191725941D01*
X254013613Y-191753389D01*
X254011256Y-191773511D01*
X254008476Y-191787842D01*
X254005238Y-191797922D01*
X254001509Y-191805287D01*
X253997252Y-191811475D01*
X253996627Y-191812314D01*
X253954874Y-191858489D01*
X253910244Y-191884805D01*
X253855110Y-191895169D01*
X253833779Y-191895754D01*
X253773627Y-191889714D01*
X253726440Y-191868989D01*
X253684588Y-191829670D01*
X253670930Y-191812328D01*
X253666561Y-191806074D01*
X253662721Y-191798728D01*
X253659369Y-191788741D01*
X253656457Y-191774560D01*
X253653943Y-191754633D01*
X253651782Y-191727410D01*
X253649929Y-191691339D01*
X253648340Y-191644869D01*
X253646970Y-191586448D01*
X253645775Y-191514524D01*
X253644711Y-191427547D01*
X253643733Y-191323965D01*
X253642797Y-191202227D01*
X253641858Y-191060781D01*
X253640871Y-190898075D01*
X253639885Y-190728487D01*
X253633826Y-189678101D01*
X253598313Y-189605656D01*
X253543336Y-189519665D01*
X253470499Y-189445823D01*
X253385189Y-189389515D01*
X253379077Y-189386461D01*
X253306632Y-189350989D01*
X253018993Y-189346959D01*
X252731355Y-189342929D01*
X252728154Y-190560894D01*
X252727625Y-190759469D01*
X252727124Y-190935241D01*
X252726618Y-191089646D01*
X252726075Y-191224118D01*
X252725463Y-191340091D01*
X252724750Y-191439000D01*
X252723902Y-191522279D01*
X252722888Y-191591362D01*
X252721675Y-191647684D01*
X252720232Y-191692680D01*
X252718525Y-191727783D01*
X252716523Y-191754429D01*
X252714193Y-191774052D01*
X252711503Y-191788086D01*
X252708420Y-191797965D01*
X252704913Y-191805125D01*
X252700948Y-191810999D01*
X252699967Y-191812321D01*
X252671895Y-191844026D01*
X252643308Y-191869431D01*
X252602652Y-191888180D01*
X252550154Y-191897306D01*
X252496592Y-191895881D01*
X252457748Y-191885439D01*
X252413953Y-191855818D01*
X252376542Y-191813296D01*
X252352748Y-191766704D01*
X252349301Y-191753007D01*
X252348391Y-191735825D01*
X252347579Y-191696024D01*
X252346869Y-191635224D01*
X252346264Y-191555042D01*
X252345771Y-191457097D01*
X252345391Y-191343008D01*
X252345131Y-191214392D01*
X252344993Y-191072868D01*
X252344982Y-190920055D01*
X252345103Y-190757570D01*
X252345359Y-190587033D01*
X252345755Y-190410061D01*
X252345790Y-190396998D01*
X252346345Y-190190052D01*
X252346867Y-190005966D01*
X252347386Y-189843364D01*
X252347931Y-189700868D01*
X252348531Y-189577102D01*
X252349215Y-189470690D01*
X252350012Y-189380254D01*
X252350950Y-189304418D01*
X252352059Y-189241806D01*
X252353369Y-189191041D01*
X252354907Y-189150746D01*
X252356703Y-189119545D01*
X252358787Y-189096060D01*
X252361186Y-189078916D01*
X252363931Y-189066736D01*
X252367050Y-189058143D01*
X252370572Y-189051760D01*
X252374270Y-189046554D01*
X252403130Y-189014214D01*
X252432751Y-188988106D01*
X252442337Y-188981567D01*
X252453438Y-188976281D01*
X252468566Y-188972113D01*
X252490228Y-188968932D01*
X252520936Y-188966605D01*
X252563200Y-188964999D01*
X252619528Y-188963980D01*
X252692432Y-188963416D01*
X252784420Y-188963174D01*
X252898004Y-188963121D01*
X252904616Y-188963121D01*
X253342987Y-188963121D01*
X253449158Y-189001108D01*
G37*
G36*
X256397387Y-188940201D02*
G01*
X256499396Y-188954642D01*
X256548282Y-188967297D01*
X256665631Y-189011166D01*
X256766242Y-189065580D01*
X256856684Y-189134421D01*
X256899714Y-189175032D01*
X256987216Y-189274769D01*
X257054904Y-189380197D01*
X257107160Y-189498355D01*
X257114942Y-189520563D01*
X257147776Y-189617510D01*
X257147958Y-190055888D01*
X257147959Y-190170673D01*
X257147769Y-190263731D01*
X257147257Y-190337573D01*
X257146290Y-190394707D01*
X257144738Y-190437643D01*
X257142466Y-190468892D01*
X257139345Y-190490964D01*
X257135241Y-190506367D01*
X257130023Y-190517613D01*
X257123559Y-190527210D01*
X257123154Y-190527754D01*
X257094304Y-190560115D01*
X257064715Y-190586227D01*
X257056334Y-190591978D01*
X257046513Y-190596789D01*
X257033113Y-190600759D01*
X257013997Y-190603985D01*
X256987024Y-190606567D01*
X256950057Y-190608603D01*
X256900956Y-190610191D01*
X256837584Y-190611432D01*
X256757800Y-190612422D01*
X256659467Y-190613260D01*
X256540446Y-190614046D01*
X256449656Y-190614582D01*
X255868051Y-190617953D01*
X255871883Y-190899363D01*
X255875716Y-191180773D01*
X255913903Y-191261375D01*
X255967763Y-191350504D01*
X256037109Y-191421570D01*
X256124166Y-191476795D01*
X256134427Y-191481766D01*
X256179179Y-191501393D01*
X256216812Y-191512869D01*
X256257392Y-191518275D01*
X256310987Y-191519690D01*
X256318034Y-191519691D01*
X256408009Y-191512602D01*
X256486250Y-191489770D01*
X256559871Y-191448481D01*
X256612171Y-191407396D01*
X256679306Y-191360310D01*
X256744185Y-191337122D01*
X256806451Y-191337854D01*
X256865744Y-191362526D01*
X256901671Y-191390612D01*
X256944800Y-191443916D01*
X256964539Y-191500422D01*
X256961370Y-191559158D01*
X256935776Y-191619148D01*
X256888242Y-191679420D01*
X256819249Y-191739000D01*
X256729281Y-191796914D01*
X256689382Y-191818442D01*
X256583278Y-191861374D01*
X256464408Y-191889338D01*
X256339592Y-191901641D01*
X256215650Y-191897592D01*
X256104421Y-191877834D01*
X255970200Y-191830663D01*
X255849088Y-191763572D01*
X255742398Y-191677812D01*
X255651443Y-191574634D01*
X255577536Y-191455291D01*
X255522728Y-191323294D01*
X255487929Y-191217128D01*
X255487929Y-190417319D01*
X255487929Y-190229485D01*
X255867734Y-190229485D01*
X256318034Y-190229485D01*
X256768335Y-190229485D01*
X256764303Y-189941675D01*
X256760271Y-189653865D01*
X256724798Y-189581419D01*
X256674770Y-189502002D01*
X256608911Y-189431260D01*
X256533710Y-189375684D01*
X256502666Y-189359246D01*
X256465094Y-189343215D01*
X256430674Y-189333427D01*
X256391134Y-189328423D01*
X256338205Y-189326744D01*
X256318034Y-189326670D01*
X256259347Y-189327623D01*
X256216584Y-189331453D01*
X256181474Y-189339620D01*
X256145746Y-189353583D01*
X256133402Y-189359246D01*
X256056291Y-189406992D01*
X255985942Y-189472483D01*
X255928845Y-189549230D01*
X255911270Y-189581419D01*
X255875798Y-189653865D01*
X255871766Y-189941675D01*
X255867734Y-190229485D01*
X255487929Y-190229485D01*
X255487929Y-189617510D01*
X255520945Y-189520563D01*
X255571296Y-189399171D01*
X255636198Y-189291920D01*
X255720102Y-189191671D01*
X255736355Y-189175032D01*
X255824192Y-189097614D01*
X255918949Y-189036543D01*
X256027191Y-188987939D01*
X256087786Y-188967297D01*
X256182239Y-188946529D01*
X256288553Y-188937497D01*
X256397387Y-188940201D01*
G37*
G36*
X251089562Y-188940201D02*
G01*
X251191571Y-188954642D01*
X251240458Y-188967297D01*
X251357806Y-189011166D01*
X251458418Y-189065580D01*
X251548860Y-189134421D01*
X251591889Y-189175032D01*
X251679392Y-189274769D01*
X251747079Y-189380197D01*
X251799336Y-189498355D01*
X251807118Y-189520563D01*
X251839952Y-189617510D01*
X251840133Y-190055888D01*
X251840134Y-190170673D01*
X251839945Y-190263731D01*
X251839433Y-190337573D01*
X251838466Y-190394707D01*
X251836913Y-190437643D01*
X251834642Y-190468892D01*
X251831520Y-190490964D01*
X251827416Y-190506367D01*
X251822198Y-190517613D01*
X251815735Y-190527210D01*
X251815329Y-190527754D01*
X251786479Y-190560115D01*
X251756890Y-190586227D01*
X251748509Y-190591978D01*
X251738688Y-190596789D01*
X251725289Y-190600759D01*
X251706172Y-190603985D01*
X251679200Y-190606567D01*
X251642232Y-190608603D01*
X251593132Y-190610191D01*
X251529759Y-190611432D01*
X251449976Y-190612422D01*
X251351643Y-190613260D01*
X251232622Y-190614046D01*
X251141832Y-190614582D01*
X250560227Y-190617953D01*
X250564059Y-190899363D01*
X250567891Y-191180773D01*
X250606079Y-191261375D01*
X250659939Y-191350504D01*
X250729285Y-191421570D01*
X250816341Y-191476795D01*
X250826602Y-191481766D01*
X250871355Y-191501393D01*
X250908988Y-191512869D01*
X250949568Y-191518275D01*
X251003162Y-191519690D01*
X251010210Y-191519691D01*
X251100185Y-191512602D01*
X251178426Y-191489770D01*
X251252046Y-191448481D01*
X251304347Y-191407396D01*
X251371482Y-191360310D01*
X251436361Y-191337122D01*
X251498626Y-191337854D01*
X251557920Y-191362526D01*
X251593846Y-191390612D01*
X251636976Y-191443916D01*
X251656714Y-191500422D01*
X251653545Y-191559158D01*
X251627952Y-191619148D01*
X251580417Y-191679420D01*
X251511424Y-191739000D01*
X251421456Y-191796914D01*
X251381558Y-191818442D01*
X251275454Y-191861374D01*
X251156584Y-191889338D01*
X251031768Y-191901641D01*
X250907826Y-191897592D01*
X250796596Y-191877834D01*
X250662375Y-191830663D01*
X250541263Y-191763572D01*
X250434573Y-191677812D01*
X250343619Y-191574634D01*
X250269712Y-191455291D01*
X250214904Y-191323294D01*
X250180105Y-191217128D01*
X250180105Y-190417319D01*
X250180105Y-190229485D01*
X250559910Y-190229485D01*
X251010210Y-190229485D01*
X251460510Y-190229485D01*
X251456478Y-189941675D01*
X251452447Y-189653865D01*
X251416974Y-189581419D01*
X251366945Y-189502002D01*
X251301086Y-189431260D01*
X251225886Y-189375684D01*
X251194842Y-189359246D01*
X251157270Y-189343215D01*
X251122849Y-189333427D01*
X251083310Y-189328423D01*
X251030381Y-189326744D01*
X251010210Y-189326670D01*
X250951522Y-189327623D01*
X250908759Y-189331453D01*
X250873649Y-189339620D01*
X250837922Y-189353583D01*
X250825578Y-189359246D01*
X250748467Y-189406992D01*
X250678118Y-189472483D01*
X250621020Y-189549230D01*
X250603446Y-189581419D01*
X250567973Y-189653865D01*
X250563941Y-189941675D01*
X250559910Y-190229485D01*
X250180105Y-190229485D01*
X250180105Y-189617510D01*
X250213120Y-189520563D01*
X250263471Y-189399171D01*
X250328373Y-189291920D01*
X250412277Y-189191671D01*
X250428531Y-189175032D01*
X250516368Y-189097614D01*
X250611125Y-189036543D01*
X250719367Y-188987939D01*
X250779962Y-188967297D01*
X250874414Y-188946529D01*
X250980729Y-188937497D01*
X251089562Y-188940201D01*
G37*
G36*
X246719905Y-188941203D02*
G01*
X246824976Y-188956873D01*
X246883922Y-188972831D01*
X247010199Y-189024904D01*
X247121844Y-189093761D01*
X247223049Y-189181436D01*
X247310618Y-189282520D01*
X247379043Y-189392976D01*
X247431929Y-189518639D01*
X247432586Y-189520563D01*
X247465601Y-189617510D01*
X247465601Y-190417319D01*
X247465601Y-191217128D01*
X247432586Y-191314075D01*
X247379724Y-191439948D01*
X247310678Y-191551223D01*
X247223158Y-191652577D01*
X247115234Y-191745634D01*
X246997986Y-191816344D01*
X246871013Y-191864883D01*
X246733911Y-191891425D01*
X246665792Y-191896354D01*
X246607021Y-191897131D01*
X246550958Y-191895526D01*
X246506223Y-191891880D01*
X246490987Y-191889439D01*
X246355802Y-191851705D01*
X246236406Y-191798028D01*
X246128602Y-191726177D01*
X246047459Y-191653686D01*
X245969875Y-191566819D01*
X245909378Y-191476447D01*
X245861466Y-191375031D01*
X245833771Y-191295897D01*
X245805391Y-191205010D01*
X245805391Y-191180773D01*
X246193177Y-191180773D01*
X246226069Y-191247424D01*
X246282661Y-191340159D01*
X246351738Y-191412855D01*
X246435265Y-191467309D01*
X246493710Y-191492177D01*
X246570174Y-191509183D01*
X246656261Y-191511618D01*
X246742615Y-191499984D01*
X246819880Y-191474782D01*
X246820128Y-191474668D01*
X246896299Y-191428202D01*
X246966108Y-191363800D01*
X247023234Y-191287761D01*
X247042192Y-191253329D01*
X247077815Y-191180773D01*
X247077815Y-190417319D01*
X247077815Y-189653865D01*
X247042192Y-189581310D01*
X246991930Y-189501646D01*
X246925905Y-189430836D01*
X246850555Y-189375317D01*
X246820128Y-189359246D01*
X246782556Y-189343215D01*
X246748136Y-189333427D01*
X246708596Y-189328423D01*
X246655667Y-189326744D01*
X246635496Y-189326670D01*
X246576809Y-189327623D01*
X246534045Y-189331453D01*
X246498935Y-189339620D01*
X246463208Y-189353583D01*
X246450864Y-189359246D01*
X246377471Y-189404411D01*
X246308772Y-189466305D01*
X246252125Y-189537568D01*
X246225754Y-189584357D01*
X246193177Y-189653865D01*
X246193177Y-190417319D01*
X246193177Y-191180773D01*
X245805391Y-191180773D01*
X245805391Y-190417319D01*
X245805391Y-189629628D01*
X245833771Y-189538741D01*
X245875697Y-189425506D01*
X245927146Y-189328443D01*
X245992618Y-189240012D01*
X246047459Y-189180952D01*
X246134327Y-189103368D01*
X246224699Y-189042871D01*
X246326114Y-188994959D01*
X246405248Y-188967263D01*
X246501161Y-188946295D01*
X246609006Y-188937642D01*
X246719905Y-188941203D01*
G37*
%TD*%
D11*
%TO.C,D4*%
X208300000Y-57612500D03*
X208300000Y-59187500D03*
%TD*%
D12*
%TO.C,R283*%
X210200000Y-63590000D03*
X210200000Y-64610000D03*
%TD*%
D13*
%TO.C,C292*%
X250080000Y-65500000D03*
X249120000Y-65500000D03*
%TD*%
D14*
%TO.C,C294*%
X235150000Y-66880000D03*
X235150000Y-65920000D03*
%TD*%
D15*
%TO.C,C295*%
X193775000Y-78937500D03*
X192225000Y-78937500D03*
%TD*%
D16*
%TO.C,C296*%
X241570000Y-63200000D03*
X242530000Y-63200000D03*
%TD*%
D17*
%TO.C,C297*%
X195600000Y-82912500D03*
X195600000Y-81362500D03*
%TD*%
D18*
%TO.C,C298*%
X204000000Y-82820000D03*
X204000000Y-83780000D03*
%TD*%
D19*
%TO.C,C299*%
X204325000Y-72300000D03*
X207275000Y-72300000D03*
%TD*%
D20*
%TO.C,C300*%
X240873566Y-83375000D03*
X240873566Y-84925000D03*
%TD*%
D16*
%TO.C,C303*%
X241570000Y-72600000D03*
X242530000Y-72600000D03*
%TD*%
D15*
%TO.C,C304*%
X238048566Y-80250000D03*
X236498566Y-80250000D03*
%TD*%
%TO.C,C305*%
X238273566Y-82450000D03*
X236723566Y-82450000D03*
%TD*%
D21*
%TO.C,J2*%
X167032000Y-132762000D03*
X167032000Y-167238000D03*
D22*
X168086000Y-134400000D03*
X161914000Y-134400000D03*
X168086000Y-135200000D03*
X161914000Y-135200000D03*
X168086000Y-136000000D03*
X161914000Y-136000000D03*
X168086000Y-136800000D03*
X161914000Y-136800000D03*
X168086000Y-137600000D03*
X161914000Y-137600000D03*
X168086000Y-138400000D03*
X161914000Y-138400000D03*
X168086000Y-139200000D03*
X161914000Y-139200000D03*
X168086000Y-140000000D03*
X161914000Y-140000000D03*
X168086000Y-140800000D03*
X161914000Y-140800000D03*
X168086000Y-141600000D03*
X161914000Y-141600000D03*
X168086000Y-142400000D03*
X161914000Y-142400000D03*
X168086000Y-143200000D03*
X161914000Y-143200000D03*
X168086000Y-144000000D03*
X161914000Y-144000000D03*
X168086000Y-144800000D03*
X161914000Y-144800000D03*
X168086000Y-145600000D03*
X161914000Y-145600000D03*
X168086000Y-146400000D03*
X161914000Y-146400000D03*
X168086000Y-147200000D03*
X161914000Y-147200000D03*
X168086000Y-148000000D03*
X161914000Y-148000000D03*
X168086000Y-148800000D03*
X161914000Y-148800000D03*
X168086000Y-149600000D03*
X161914000Y-149600000D03*
X168086000Y-150400000D03*
X161914000Y-150400000D03*
X168086000Y-151200000D03*
X161914000Y-151200000D03*
X168086000Y-152000000D03*
X161914000Y-152000000D03*
X168086000Y-152800000D03*
X161914000Y-152800000D03*
X168086000Y-153600000D03*
X161914000Y-153600000D03*
X168086000Y-154400000D03*
X161914000Y-154400000D03*
X168086000Y-155200000D03*
X161914000Y-155200000D03*
X168086000Y-156000000D03*
X161914000Y-156000000D03*
X168086000Y-156800000D03*
X161914000Y-156800000D03*
X168086000Y-157600000D03*
X161914000Y-157600000D03*
X168086000Y-158400000D03*
X161914000Y-158400000D03*
X168086000Y-159200000D03*
X161914000Y-159200000D03*
X168086000Y-160000000D03*
X161914000Y-160000000D03*
X168086000Y-160800000D03*
X161914000Y-160800000D03*
X168086000Y-161600000D03*
X161914000Y-161600000D03*
X168086000Y-162400000D03*
X161914000Y-162400000D03*
X168086000Y-163200000D03*
X161914000Y-163200000D03*
X168086000Y-164000000D03*
X161914000Y-164000000D03*
X168086000Y-164800000D03*
X161914000Y-164800000D03*
X168086000Y-165600000D03*
X161914000Y-165600000D03*
%TD*%
D23*
%TO.C,J8*%
X174100000Y-122475000D03*
X173100000Y-122475000D03*
X172100000Y-122475000D03*
D24*
X175400000Y-125000000D03*
X170800000Y-125000000D03*
%TD*%
D25*
%TO.C,R262*%
X150000000Y-70037500D03*
X150000000Y-72962500D03*
%TD*%
D12*
%TO.C,R268*%
X251500000Y-64390000D03*
X251500000Y-65410000D03*
%TD*%
D26*
%TO.C,R270*%
X202162500Y-80175000D03*
X203812500Y-80175000D03*
%TD*%
D27*
%TO.C,R275*%
X153690000Y-108600000D03*
X154710000Y-108600000D03*
%TD*%
D28*
%TO.C,U151*%
X193750000Y-81000000D03*
X192800000Y-81000000D03*
X191850000Y-81000000D03*
X191850000Y-83275000D03*
X193750000Y-83275000D03*
%TD*%
D29*
%TO.C,U152*%
X201675000Y-82800000D03*
D30*
X201625000Y-83300000D03*
X201625000Y-83800000D03*
X202775000Y-83800000D03*
X202775000Y-83300000D03*
X202775000Y-82800000D03*
%TD*%
D17*
%TO.C,C307*%
X240773566Y-81625000D03*
X240773566Y-80075000D03*
%TD*%
D31*
%TO.C,R101*%
X172615000Y-148825000D03*
X173635000Y-148825000D03*
%TD*%
D27*
%TO.C,R127*%
X171135000Y-161625000D03*
X170115000Y-161625000D03*
%TD*%
D16*
%TO.C,C272*%
X244645000Y-158425000D03*
X245605000Y-158425000D03*
%TD*%
D31*
%TO.C,R38*%
X158890000Y-150400000D03*
X159910000Y-150400000D03*
%TD*%
D13*
%TO.C,C253*%
X264367500Y-142200000D03*
X263407500Y-142200000D03*
%TD*%
D32*
%TO.C,U130*%
X255175000Y-152175000D03*
X255175000Y-151525000D03*
X255175000Y-150875000D03*
X253275000Y-150875000D03*
X253275000Y-151525000D03*
X253275000Y-152175000D03*
%TD*%
D12*
%TO.C,R266*%
X201400000Y-64010000D03*
X201400000Y-62990000D03*
%TD*%
D27*
%TO.C,R215*%
X241135000Y-144025000D03*
X240115000Y-144025000D03*
%TD*%
D16*
%TO.C,C185*%
X205620000Y-149400000D03*
X206580000Y-149400000D03*
%TD*%
%TO.C,C3*%
X160650000Y-120040000D03*
X161610000Y-120040000D03*
%TD*%
D18*
%TO.C,C106*%
X177025000Y-144645000D03*
X177025000Y-145605000D03*
%TD*%
D31*
%TO.C,R93*%
X172625000Y-145625000D03*
X173645000Y-145625000D03*
%TD*%
D33*
%TO.C,U128*%
X258625000Y-143425000D03*
X258625000Y-144075000D03*
X258625000Y-144725000D03*
X258625000Y-145375000D03*
X258625000Y-146025000D03*
X258625000Y-146675000D03*
X258625000Y-147325000D03*
X258625000Y-147975000D03*
X264350000Y-147975000D03*
X264350000Y-147325000D03*
X264350000Y-146675000D03*
X264350000Y-146025000D03*
X264350000Y-145375000D03*
X264350000Y-144725000D03*
X264350000Y-144075000D03*
X264350000Y-143425000D03*
%TD*%
D31*
%TO.C,R22*%
X158890000Y-143200000D03*
X159910000Y-143200000D03*
%TD*%
D27*
%TO.C,R119*%
X171135000Y-158425000D03*
X170115000Y-158425000D03*
%TD*%
D13*
%TO.C,C196*%
X225480000Y-155200000D03*
X224520000Y-155200000D03*
%TD*%
D18*
%TO.C,C131*%
X177025000Y-154845000D03*
X177025000Y-155805000D03*
%TD*%
D31*
%TO.C,R251*%
X242615000Y-158425000D03*
X243635000Y-158425000D03*
%TD*%
D27*
%TO.C,R42*%
X157510000Y-150400000D03*
X156490000Y-150400000D03*
%TD*%
D12*
%TO.C,R267*%
X198500000Y-64010000D03*
X198500000Y-62990000D03*
%TD*%
D34*
%TO.C,U7*%
X149550000Y-139550000D03*
X149550000Y-140200000D03*
X149550000Y-140850000D03*
X151450000Y-140850000D03*
X151450000Y-140200000D03*
X151450000Y-139550000D03*
%TD*%
D31*
%TO.C,R219*%
X242615000Y-144025000D03*
X243635000Y-144025000D03*
%TD*%
D34*
%TO.C,U77*%
X214800000Y-136350000D03*
X214800000Y-137000000D03*
X214800000Y-137650000D03*
X216700000Y-137650000D03*
X216700000Y-137000000D03*
X216700000Y-136350000D03*
%TD*%
D27*
%TO.C,R170*%
X227510000Y-150400000D03*
X226490000Y-150400000D03*
%TD*%
%TO.C,R278*%
X235210000Y-68150000D03*
X234190000Y-68150000D03*
%TD*%
D31*
%TO.C,R107*%
X172615000Y-151225000D03*
X173635000Y-151225000D03*
%TD*%
%TO.C,R205*%
X242625000Y-138425000D03*
X243645000Y-138425000D03*
%TD*%
D32*
%TO.C,U112*%
X255175000Y-137775000D03*
X255175000Y-137125000D03*
X255175000Y-136475000D03*
X253275000Y-136475000D03*
X253275000Y-137125000D03*
X253275000Y-137775000D03*
%TD*%
D35*
%TO.C,D1*%
X144700000Y-70250000D03*
X144700000Y-73550000D03*
%TD*%
D33*
%TO.C,U56*%
X188625000Y-143425000D03*
X188625000Y-144075000D03*
X188625000Y-144725000D03*
X188625000Y-145375000D03*
X188625000Y-146025000D03*
X188625000Y-146675000D03*
X188625000Y-147325000D03*
X188625000Y-147975000D03*
X194350000Y-147975000D03*
X194350000Y-147325000D03*
X194350000Y-146675000D03*
X194350000Y-146025000D03*
X194350000Y-145375000D03*
X194350000Y-144725000D03*
X194350000Y-144075000D03*
X194350000Y-143425000D03*
%TD*%
D14*
%TO.C,C156*%
X223000000Y-137000000D03*
X223000000Y-136040000D03*
%TD*%
D31*
%TO.C,R160*%
X228890000Y-148000000D03*
X229910000Y-148000000D03*
%TD*%
D34*
%TO.C,U16*%
X149550000Y-146750000D03*
X149550000Y-147400000D03*
X149550000Y-148050000D03*
X151450000Y-148050000D03*
X151450000Y-147400000D03*
X151450000Y-146750000D03*
%TD*%
D13*
%TO.C,C18*%
X155480000Y-137600000D03*
X154520000Y-137600000D03*
%TD*%
D12*
%TO.C,R285*%
X151200000Y-114410000D03*
X151200000Y-113390000D03*
%TD*%
D18*
%TO.C,C235*%
X251725000Y-140145000D03*
X251725000Y-141105000D03*
%TD*%
D13*
%TO.C,C134*%
X194367500Y-149400000D03*
X193407500Y-149400000D03*
%TD*%
D36*
%TO.C,TP11*%
X138600000Y-119400000D03*
%TD*%
%TO.C,TP3*%
X188500000Y-63900000D03*
%TD*%
D27*
%TO.C,R217*%
X241135000Y-145625000D03*
X240115000Y-145625000D03*
%TD*%
D16*
%TO.C,C136*%
X174645000Y-158425000D03*
X175605000Y-158425000D03*
%TD*%
%TO.C,C129*%
X174645000Y-156025000D03*
X175605000Y-156025000D03*
%TD*%
D31*
%TO.C,R131*%
X172615000Y-161625000D03*
X173635000Y-161625000D03*
%TD*%
D16*
%TO.C,C95*%
X174645000Y-141625000D03*
X175605000Y-141625000D03*
%TD*%
%TO.C,C138*%
X174655000Y-160025000D03*
X175615000Y-160025000D03*
%TD*%
D31*
%TO.C,R253*%
X242625000Y-160025000D03*
X243645000Y-160025000D03*
%TD*%
D16*
%TO.C,C246*%
X244645000Y-147225000D03*
X245605000Y-147225000D03*
%TD*%
D13*
%TO.C,C194*%
X225480000Y-153600000D03*
X224520000Y-153600000D03*
%TD*%
D34*
%TO.C,U93*%
X219550000Y-150750000D03*
X219550000Y-151400000D03*
X219550000Y-152050000D03*
X221450000Y-152050000D03*
X221450000Y-151400000D03*
X221450000Y-150750000D03*
%TD*%
D37*
%TO.C,C290*%
X149700000Y-97225000D03*
X149700000Y-100175000D03*
%TD*%
D14*
%TO.C,C14*%
X161299999Y-105380000D03*
X161299999Y-104420000D03*
%TD*%
%TO.C,C175*%
X218250000Y-144200000D03*
X218250000Y-143240000D03*
%TD*%
D16*
%TO.C,C104*%
X174655000Y-145625000D03*
X175615000Y-145625000D03*
%TD*%
D13*
%TO.C,C203*%
X225480000Y-157600000D03*
X224520000Y-157600000D03*
%TD*%
D18*
%TO.C,C5*%
X162500000Y-116420000D03*
X162500000Y-117380000D03*
%TD*%
D27*
%TO.C,R71*%
X171135000Y-136825000D03*
X170115000Y-136825000D03*
%TD*%
D32*
%TO.C,U42*%
X180525000Y-138075000D03*
X180525000Y-137425000D03*
X180525000Y-136775000D03*
X178625000Y-136775000D03*
X178625000Y-137425000D03*
X178625000Y-138075000D03*
%TD*%
D27*
%TO.C,R58*%
X157510000Y-157600000D03*
X156490000Y-157600000D03*
%TD*%
D22*
%TO.C,J3*%
X231914000Y-165600000D03*
X238086000Y-165600000D03*
X231914000Y-164800000D03*
X238086000Y-164800000D03*
X231914000Y-164000000D03*
X238086000Y-164000000D03*
X231914000Y-163200000D03*
X238086000Y-163200000D03*
X231914000Y-162400000D03*
X238086000Y-162400000D03*
X231914000Y-161600000D03*
X238086000Y-161600000D03*
X231914000Y-160800000D03*
X238086000Y-160800000D03*
X231914000Y-160000000D03*
X238086000Y-160000000D03*
X231914000Y-159200000D03*
X238086000Y-159200000D03*
X231914000Y-158400000D03*
X238086000Y-158400000D03*
X231914000Y-157600000D03*
X238086000Y-157600000D03*
X231914000Y-156800000D03*
X238086000Y-156800000D03*
X231914000Y-156000000D03*
X238086000Y-156000000D03*
X231914000Y-155200000D03*
X238086000Y-155200000D03*
X231914000Y-154400000D03*
X238086000Y-154400000D03*
X231914000Y-153600000D03*
X238086000Y-153600000D03*
X231914000Y-152800000D03*
X238086000Y-152800000D03*
X231914000Y-152000000D03*
X238086000Y-152000000D03*
X231914000Y-151200000D03*
X238086000Y-151200000D03*
X231914000Y-150400000D03*
X238086000Y-150400000D03*
X231914000Y-149600000D03*
X238086000Y-149600000D03*
X231914000Y-148800000D03*
X238086000Y-148800000D03*
X231914000Y-148000000D03*
X238086000Y-148000000D03*
X231914000Y-147200000D03*
X238086000Y-147200000D03*
X231914000Y-146400000D03*
X238086000Y-146400000D03*
X231914000Y-145600000D03*
X238086000Y-145600000D03*
X231914000Y-144800000D03*
X238086000Y-144800000D03*
X231914000Y-144000000D03*
X238086000Y-144000000D03*
X231914000Y-143200000D03*
X238086000Y-143200000D03*
X231914000Y-142400000D03*
X238086000Y-142400000D03*
X231914000Y-141600000D03*
X238086000Y-141600000D03*
X231914000Y-140800000D03*
X238086000Y-140800000D03*
X231914000Y-140000000D03*
X238086000Y-140000000D03*
X231914000Y-139200000D03*
X238086000Y-139200000D03*
X231914000Y-138400000D03*
X238086000Y-138400000D03*
X231914000Y-137600000D03*
X238086000Y-137600000D03*
X231914000Y-136800000D03*
X238086000Y-136800000D03*
X231914000Y-136000000D03*
X238086000Y-136000000D03*
X231914000Y-135200000D03*
X238086000Y-135200000D03*
X231914000Y-134400000D03*
X238086000Y-134400000D03*
D21*
X237032000Y-167238000D03*
X237032000Y-132762000D03*
%TD*%
D14*
%TO.C,C215*%
X223000000Y-161780000D03*
X223000000Y-160820000D03*
%TD*%
D18*
%TO.C,C116*%
X181725000Y-147345000D03*
X181725000Y-148305000D03*
%TD*%
D32*
%TO.C,U139*%
X255175000Y-159375000D03*
X255175000Y-158725000D03*
X255175000Y-158075000D03*
X253275000Y-158075000D03*
X253275000Y-158725000D03*
X253275000Y-159375000D03*
%TD*%
D31*
%TO.C,R46*%
X158890000Y-153600000D03*
X159910000Y-153600000D03*
%TD*%
%TO.C,R237*%
X242625000Y-152825000D03*
X243645000Y-152825000D03*
%TD*%
D18*
%TO.C,C291*%
X147800000Y-97020000D03*
X147800000Y-97980000D03*
%TD*%
D27*
%TO.C,R209*%
X241135000Y-141625000D03*
X240115000Y-141625000D03*
%TD*%
D38*
%TO.C,Q1*%
X201350000Y-74662500D03*
X199450000Y-74662500D03*
X200400000Y-76537500D03*
%TD*%
D32*
%TO.C,U73*%
X180525000Y-162675000D03*
X180525000Y-162025000D03*
X180525000Y-161375000D03*
X178625000Y-161375000D03*
X178625000Y-162025000D03*
X178625000Y-162675000D03*
%TD*%
D17*
%TO.C,C15*%
X166749999Y-106575000D03*
X166749999Y-105025000D03*
%TD*%
D14*
%TO.C,C173*%
X223000000Y-144200000D03*
X223000000Y-143240000D03*
%TD*%
D31*
%TO.C,R32*%
X158890000Y-148000000D03*
X159910000Y-148000000D03*
%TD*%
D32*
%TO.C,U71*%
X185175000Y-162375000D03*
X185175000Y-161725000D03*
X185175000Y-161075000D03*
X183275000Y-161075000D03*
X183275000Y-161725000D03*
X183275000Y-162375000D03*
%TD*%
D18*
%TO.C,C286*%
X251725000Y-161745000D03*
X251725000Y-162705000D03*
%TD*%
D16*
%TO.C,C11*%
X165940000Y-108800000D03*
X166900000Y-108800000D03*
%TD*%
D27*
%TO.C,R129*%
X171135000Y-163225000D03*
X170115000Y-163225000D03*
%TD*%
D31*
%TO.C,R227*%
X242615000Y-147225000D03*
X243635000Y-147225000D03*
%TD*%
D27*
%TO.C,R199*%
X241135000Y-136825000D03*
X240115000Y-136825000D03*
%TD*%
D18*
%TO.C,C227*%
X251725000Y-137145000D03*
X251725000Y-138105000D03*
%TD*%
D34*
%TO.C,U108*%
X214800000Y-161150000D03*
X214800000Y-161800000D03*
X214800000Y-162450000D03*
X216700000Y-162450000D03*
X216700000Y-161800000D03*
X216700000Y-161150000D03*
%TD*%
%TO.C,U18*%
X144800000Y-146750000D03*
X144800000Y-147400000D03*
X144800000Y-148050000D03*
X146700000Y-148050000D03*
X146700000Y-147400000D03*
X146700000Y-146750000D03*
%TD*%
D31*
%TO.C,R62*%
X158890000Y-160800000D03*
X159910000Y-160800000D03*
%TD*%
D18*
%TO.C,C288*%
X132400000Y-96720000D03*
X132400000Y-97680000D03*
%TD*%
D32*
%TO.C,U121*%
X255175000Y-144975000D03*
X255175000Y-144325000D03*
X255175000Y-143675000D03*
X253275000Y-143675000D03*
X253275000Y-144325000D03*
X253275000Y-144975000D03*
%TD*%
D16*
%TO.C,C202*%
X205620000Y-156600000D03*
X206580000Y-156600000D03*
%TD*%
D31*
%TO.C,R75*%
X172615000Y-136825000D03*
X173635000Y-136825000D03*
%TD*%
D36*
%TO.C,TP9*%
X196500000Y-89800000D03*
%TD*%
D32*
%TO.C,U114*%
X250525000Y-138075000D03*
X250525000Y-137425000D03*
X250525000Y-136775000D03*
X248625000Y-136775000D03*
X248625000Y-137425000D03*
X248625000Y-138075000D03*
%TD*%
%TO.C,U51*%
X180525000Y-145275000D03*
X180525000Y-144625000D03*
X180525000Y-143975000D03*
X178625000Y-143975000D03*
X178625000Y-144625000D03*
X178625000Y-145275000D03*
%TD*%
%TO.C,U134*%
X255175000Y-155175000D03*
X255175000Y-154525000D03*
X255175000Y-153875000D03*
X253275000Y-153875000D03*
X253275000Y-154525000D03*
X253275000Y-155175000D03*
%TD*%
D31*
%TO.C,R30*%
X158890000Y-146400000D03*
X159910000Y-146400000D03*
%TD*%
D13*
%TO.C,C67*%
X155480000Y-157600000D03*
X154520000Y-157600000D03*
%TD*%
D27*
%TO.C,R156*%
X227510000Y-144800000D03*
X226490000Y-144800000D03*
%TD*%
D16*
%TO.C,C10*%
X166820000Y-112200000D03*
X167780000Y-112200000D03*
%TD*%
D27*
%TO.C,R280*%
X242500000Y-69950000D03*
X241480000Y-69950000D03*
%TD*%
D39*
%TO.C,U29*%
X141362500Y-155475000D03*
X141362500Y-154825000D03*
X141362500Y-154175000D03*
X141362500Y-153525000D03*
X141362500Y-152875000D03*
X141362500Y-152225000D03*
X141362500Y-151575000D03*
X141362500Y-150925000D03*
X135637500Y-150925000D03*
X135637500Y-151575000D03*
X135637500Y-152225000D03*
X135637500Y-152875000D03*
X135637500Y-153525000D03*
X135637500Y-154175000D03*
X135637500Y-154825000D03*
X135637500Y-155475000D03*
%TD*%
D18*
%TO.C,C89*%
X177025000Y-137445000D03*
X177025000Y-138405000D03*
%TD*%
%TO.C,C125*%
X181725000Y-151545000D03*
X181725000Y-152505000D03*
%TD*%
D32*
%TO.C,U49*%
X185175000Y-144975000D03*
X185175000Y-144325000D03*
X185175000Y-143675000D03*
X183275000Y-143675000D03*
X183275000Y-144325000D03*
X183275000Y-144975000D03*
%TD*%
D40*
%TO.C,R1*%
X150600000Y-104990000D03*
X150600000Y-106010000D03*
%TD*%
D27*
%TO.C,R111*%
X171135000Y-154425000D03*
X170115000Y-154425000D03*
%TD*%
D14*
%TO.C,C73*%
X148250000Y-158600000D03*
X148250000Y-157640000D03*
%TD*%
%TO.C,C6*%
X160380000Y-105380000D03*
X160380000Y-104420000D03*
%TD*%
D33*
%TO.C,U65*%
X188625000Y-150625000D03*
X188625000Y-151275000D03*
X188625000Y-151925000D03*
X188625000Y-152575000D03*
X188625000Y-153225000D03*
X188625000Y-153875000D03*
X188625000Y-154525000D03*
X188625000Y-155175000D03*
X194350000Y-155175000D03*
X194350000Y-154525000D03*
X194350000Y-153875000D03*
X194350000Y-153225000D03*
X194350000Y-152575000D03*
X194350000Y-151925000D03*
X194350000Y-151275000D03*
X194350000Y-150625000D03*
%TD*%
D13*
%TO.C,C169*%
X225480000Y-143200000D03*
X224520000Y-143200000D03*
%TD*%
D27*
%TO.C,R223*%
X241135000Y-147225000D03*
X240115000Y-147225000D03*
%TD*%
%TO.C,R18*%
X157510000Y-139200000D03*
X156490000Y-139200000D03*
%TD*%
D13*
%TO.C,C270*%
X264367500Y-149400000D03*
X263407500Y-149400000D03*
%TD*%
D14*
%TO.C,C20*%
X153000000Y-137000000D03*
X153000000Y-136040000D03*
%TD*%
D27*
%TO.C,R154*%
X227510000Y-143200000D03*
X226490000Y-143200000D03*
%TD*%
D39*
%TO.C,U11*%
X141362500Y-141075000D03*
X141362500Y-140425000D03*
X141362500Y-139775000D03*
X141362500Y-139125000D03*
X141362500Y-138475000D03*
X141362500Y-137825000D03*
X141362500Y-137175000D03*
X141362500Y-136525000D03*
X135637500Y-136525000D03*
X135637500Y-137175000D03*
X135637500Y-137825000D03*
X135637500Y-138475000D03*
X135637500Y-139125000D03*
X135637500Y-139775000D03*
X135637500Y-140425000D03*
X135637500Y-141075000D03*
%TD*%
D31*
%TO.C,R144*%
X228890000Y-140800000D03*
X229910000Y-140800000D03*
%TD*%
D36*
%TO.C,TP14*%
X132700000Y-73400000D03*
%TD*%
D13*
%TO.C,C188*%
X225480000Y-152000000D03*
X224520000Y-152000000D03*
%TD*%
D31*
%TO.C,R264*%
X200490000Y-69500000D03*
X201510000Y-69500000D03*
%TD*%
%TO.C,R6*%
X158890000Y-136000000D03*
X159910000Y-136000000D03*
%TD*%
D18*
%TO.C,C269*%
X251725000Y-154545000D03*
X251725000Y-155505000D03*
%TD*%
D27*
%TO.C,R257*%
X241135000Y-163225000D03*
X240115000Y-163225000D03*
%TD*%
D33*
%TO.C,U74*%
X188625000Y-157825000D03*
X188625000Y-158475000D03*
X188625000Y-159125000D03*
X188625000Y-159775000D03*
X188625000Y-160425000D03*
X188625000Y-161075000D03*
X188625000Y-161725000D03*
X188625000Y-162375000D03*
X194350000Y-162375000D03*
X194350000Y-161725000D03*
X194350000Y-161075000D03*
X194350000Y-160425000D03*
X194350000Y-159775000D03*
X194350000Y-159125000D03*
X194350000Y-158475000D03*
X194350000Y-157825000D03*
%TD*%
D14*
%TO.C,C1*%
X152360000Y-95880000D03*
X152360000Y-94920000D03*
%TD*%
%TO.C,C22*%
X148250000Y-137000000D03*
X148250000Y-136040000D03*
%TD*%
%TO.C,C39*%
X148250000Y-144200000D03*
X148250000Y-143240000D03*
%TD*%
D31*
%TO.C,R64*%
X158890000Y-162400000D03*
X159910000Y-162400000D03*
%TD*%
D32*
%TO.C,U55*%
X180525000Y-148275000D03*
X180525000Y-147625000D03*
X180525000Y-146975000D03*
X178625000Y-146975000D03*
X178625000Y-147625000D03*
X178625000Y-148275000D03*
%TD*%
D31*
%TO.C,R16*%
X158890000Y-140800000D03*
X159910000Y-140800000D03*
%TD*%
%TO.C,R273*%
X163890000Y-118500000D03*
X164910000Y-118500000D03*
%TD*%
D18*
%TO.C,C123*%
X177025000Y-151845000D03*
X177025000Y-152805000D03*
%TD*%
D34*
%TO.C,U25*%
X149550000Y-153950000D03*
X149550000Y-154600000D03*
X149550000Y-155250000D03*
X151450000Y-155250000D03*
X151450000Y-154600000D03*
X151450000Y-153950000D03*
%TD*%
D27*
%TO.C,R172*%
X227510000Y-152000000D03*
X226490000Y-152000000D03*
%TD*%
D36*
%TO.C,TP6*%
X195400000Y-65100000D03*
%TD*%
D39*
%TO.C,U101*%
X211362500Y-155475000D03*
X211362500Y-154825000D03*
X211362500Y-154175000D03*
X211362500Y-153525000D03*
X211362500Y-152875000D03*
X211362500Y-152225000D03*
X211362500Y-151575000D03*
X211362500Y-150925000D03*
X205637500Y-150925000D03*
X205637500Y-151575000D03*
X205637500Y-152225000D03*
X205637500Y-152875000D03*
X205637500Y-153525000D03*
X205637500Y-154175000D03*
X205637500Y-154825000D03*
X205637500Y-155475000D03*
%TD*%
D34*
%TO.C,U97*%
X219550000Y-153950000D03*
X219550000Y-154600000D03*
X219550000Y-155250000D03*
X221450000Y-155250000D03*
X221450000Y-154600000D03*
X221450000Y-153950000D03*
%TD*%
D41*
%TO.C,U153*%
X204722500Y-76175000D03*
X204722500Y-74275000D03*
X206997500Y-74275000D03*
X206997500Y-75225000D03*
X206997500Y-76175000D03*
%TD*%
D39*
%TO.C,U92*%
X211362500Y-148275000D03*
X211362500Y-147625000D03*
X211362500Y-146975000D03*
X211362500Y-146325000D03*
X211362500Y-145675000D03*
X211362500Y-145025000D03*
X211362500Y-144375000D03*
X211362500Y-143725000D03*
X205637500Y-143725000D03*
X205637500Y-144375000D03*
X205637500Y-145025000D03*
X205637500Y-145675000D03*
X205637500Y-146325000D03*
X205637500Y-146975000D03*
X205637500Y-147625000D03*
X205637500Y-148275000D03*
%TD*%
D12*
%TO.C,R271*%
X203000000Y-76210000D03*
X203000000Y-75190000D03*
%TD*%
D34*
%TO.C,U81*%
X214800000Y-139550000D03*
X214800000Y-140200000D03*
X214800000Y-140850000D03*
X216700000Y-140850000D03*
X216700000Y-140200000D03*
X216700000Y-139550000D03*
%TD*%
D16*
%TO.C,C32*%
X135620000Y-142200000D03*
X136580000Y-142200000D03*
%TD*%
D39*
%TO.C,U20*%
X141362500Y-148275000D03*
X141362500Y-147625000D03*
X141362500Y-146975000D03*
X141362500Y-146325000D03*
X141362500Y-145675000D03*
X141362500Y-145025000D03*
X141362500Y-144375000D03*
X141362500Y-143725000D03*
X135637500Y-143725000D03*
X135637500Y-144375000D03*
X135637500Y-145025000D03*
X135637500Y-145675000D03*
X135637500Y-146325000D03*
X135637500Y-146975000D03*
X135637500Y-147625000D03*
X135637500Y-148275000D03*
%TD*%
D27*
%TO.C,R164*%
X227510000Y-148000000D03*
X226490000Y-148000000D03*
%TD*%
D16*
%TO.C,C255*%
X244645000Y-151225000D03*
X245605000Y-151225000D03*
%TD*%
%TO.C,C248*%
X244645000Y-148825000D03*
X245605000Y-148825000D03*
%TD*%
D31*
%TO.C,R174*%
X228890000Y-153600000D03*
X229910000Y-153600000D03*
%TD*%
D14*
%TO.C,C164*%
X223000000Y-140180000D03*
X223000000Y-139220000D03*
%TD*%
D31*
%TO.C,R166*%
X228890000Y-150400000D03*
X229910000Y-150400000D03*
%TD*%
%TO.C,R40*%
X158890000Y-152000000D03*
X159910000Y-152000000D03*
%TD*%
D13*
%TO.C,C60*%
X155480000Y-155200000D03*
X154520000Y-155200000D03*
%TD*%
D34*
%TO.C,U5*%
X144800000Y-136350000D03*
X144800000Y-137000000D03*
X144800000Y-137650000D03*
X146700000Y-137650000D03*
X146700000Y-137000000D03*
X146700000Y-136350000D03*
%TD*%
D31*
%TO.C,R91*%
X172615000Y-144025000D03*
X173635000Y-144025000D03*
%TD*%
%TO.C,R123*%
X172615000Y-158425000D03*
X173635000Y-158425000D03*
%TD*%
D27*
%TO.C,R148*%
X227510000Y-140800000D03*
X226490000Y-140800000D03*
%TD*%
D31*
%TO.C,R211*%
X242615000Y-140025000D03*
X243635000Y-140025000D03*
%TD*%
D13*
%TO.C,C33*%
X155480000Y-143200000D03*
X154520000Y-143200000D03*
%TD*%
D34*
%TO.C,U34*%
X149550000Y-161150000D03*
X149550000Y-161800000D03*
X149550000Y-162450000D03*
X151450000Y-162450000D03*
X151450000Y-161800000D03*
X151450000Y-161150000D03*
%TD*%
D27*
%TO.C,R121*%
X171135000Y-160025000D03*
X170115000Y-160025000D03*
%TD*%
%TO.C,R233*%
X241135000Y-152825000D03*
X240115000Y-152825000D03*
%TD*%
D31*
%TO.C,R259*%
X242615000Y-161625000D03*
X243635000Y-161625000D03*
%TD*%
D14*
%TO.C,C54*%
X153000000Y-151400000D03*
X153000000Y-150440000D03*
%TD*%
D34*
%TO.C,U23*%
X144800000Y-150750000D03*
X144800000Y-151400000D03*
X144800000Y-152050000D03*
X146700000Y-152050000D03*
X146700000Y-151400000D03*
X146700000Y-150750000D03*
%TD*%
D27*
%TO.C,R231*%
X241135000Y-151225000D03*
X240115000Y-151225000D03*
%TD*%
D32*
%TO.C,U69*%
X180525000Y-159675000D03*
X180525000Y-159025000D03*
X180525000Y-158375000D03*
X178625000Y-158375000D03*
X178625000Y-159025000D03*
X178625000Y-159675000D03*
%TD*%
D31*
%TO.C,R24*%
X158890000Y-144800000D03*
X159910000Y-144800000D03*
%TD*%
D13*
%TO.C,C293*%
X237920000Y-65850000D03*
X238880000Y-65850000D03*
%TD*%
D42*
%TO.C,SW2*%
X260000000Y-89550000D03*
X260000000Y-78350000D03*
D43*
X267000000Y-86450000D03*
X267000000Y-81450000D03*
X252500000Y-83950000D03*
X252500000Y-86450000D03*
D44*
X252500000Y-81450000D03*
%TD*%
D27*
%TO.C,R36*%
X157510000Y-148000000D03*
X156490000Y-148000000D03*
%TD*%
D13*
%TO.C,C152*%
X225480000Y-136000000D03*
X224520000Y-136000000D03*
%TD*%
D34*
%TO.C,U106*%
X219550000Y-161150000D03*
X219550000Y-161800000D03*
X219550000Y-162450000D03*
X221450000Y-162450000D03*
X221450000Y-161800000D03*
X221450000Y-161150000D03*
%TD*%
D33*
%TO.C,U137*%
X258625000Y-150625000D03*
X258625000Y-151275000D03*
X258625000Y-151925000D03*
X258625000Y-152575000D03*
X258625000Y-153225000D03*
X258625000Y-153875000D03*
X258625000Y-154525000D03*
X258625000Y-155175000D03*
X264350000Y-155175000D03*
X264350000Y-154525000D03*
X264350000Y-153875000D03*
X264350000Y-153225000D03*
X264350000Y-152575000D03*
X264350000Y-151925000D03*
X264350000Y-151275000D03*
X264350000Y-150625000D03*
%TD*%
D32*
%TO.C,U40*%
X185175000Y-137775000D03*
X185175000Y-137125000D03*
X185175000Y-136475000D03*
X183275000Y-136475000D03*
X183275000Y-137125000D03*
X183275000Y-137775000D03*
%TD*%
D34*
%TO.C,U88*%
X219550000Y-146750000D03*
X219550000Y-147400000D03*
X219550000Y-148050000D03*
X221450000Y-148050000D03*
X221450000Y-147400000D03*
X221450000Y-146750000D03*
%TD*%
D32*
%TO.C,U44*%
X185175000Y-140775000D03*
X185175000Y-140125000D03*
X185175000Y-139475000D03*
X183275000Y-139475000D03*
X183275000Y-140125000D03*
X183275000Y-140775000D03*
%TD*%
D16*
%TO.C,C93*%
X174645000Y-140025000D03*
X175605000Y-140025000D03*
%TD*%
D31*
%TO.C,R261*%
X242615000Y-163225000D03*
X243635000Y-163225000D03*
%TD*%
D34*
%TO.C,U30*%
X149550000Y-157950000D03*
X149550000Y-158600000D03*
X149550000Y-159250000D03*
X151450000Y-159250000D03*
X151450000Y-158600000D03*
X151450000Y-157950000D03*
%TD*%
D14*
%TO.C,C30*%
X148263500Y-140200000D03*
X148263500Y-139240000D03*
%TD*%
%TO.C,C56*%
X148250000Y-151400000D03*
X148250000Y-150440000D03*
%TD*%
D31*
%TO.C,R168*%
X228890000Y-152000000D03*
X229910000Y-152000000D03*
%TD*%
D12*
%TO.C,R284*%
X149900000Y-112910000D03*
X149900000Y-111890000D03*
%TD*%
D39*
%TO.C,U38*%
X141362500Y-162675000D03*
X141362500Y-162025000D03*
X141362500Y-161375000D03*
X141362500Y-160725000D03*
X141362500Y-160075000D03*
X141362500Y-159425000D03*
X141362500Y-158775000D03*
X141362500Y-158125000D03*
X135637500Y-158125000D03*
X135637500Y-158775000D03*
X135637500Y-159425000D03*
X135637500Y-160075000D03*
X135637500Y-160725000D03*
X135637500Y-161375000D03*
X135637500Y-162025000D03*
X135637500Y-162675000D03*
%TD*%
D27*
%TO.C,R95*%
X171135000Y-147225000D03*
X170115000Y-147225000D03*
%TD*%
D32*
%TO.C,U123*%
X250525000Y-145275000D03*
X250525000Y-144625000D03*
X250525000Y-143975000D03*
X248625000Y-143975000D03*
X248625000Y-144625000D03*
X248625000Y-145275000D03*
%TD*%
D45*
%TO.C,Q2*%
X198250000Y-86437500D03*
X200150000Y-86437500D03*
X199200000Y-84562500D03*
%TD*%
D16*
%TO.C,C231*%
X244645000Y-141625000D03*
X245605000Y-141625000D03*
%TD*%
D31*
%TO.C,R152*%
X228890000Y-144800000D03*
X229910000Y-144800000D03*
%TD*%
D14*
%TO.C,C28*%
X153000000Y-140180000D03*
X153000000Y-139220000D03*
%TD*%
D40*
%TO.C,R3*%
X163149999Y-104390000D03*
X163149999Y-105410000D03*
%TD*%
D27*
%TO.C,R60*%
X157510000Y-159200000D03*
X156490000Y-159200000D03*
%TD*%
D16*
%TO.C,C274*%
X244655000Y-160025000D03*
X245615000Y-160025000D03*
%TD*%
%TO.C,C229*%
X244645000Y-140025000D03*
X245605000Y-140025000D03*
%TD*%
D18*
%TO.C,C9*%
X161580000Y-116420000D03*
X161580000Y-117380000D03*
%TD*%
D14*
%TO.C,C45*%
X153000000Y-147380000D03*
X153000000Y-146420000D03*
%TD*%
D16*
%TO.C,C144*%
X174645000Y-161625000D03*
X175605000Y-161625000D03*
%TD*%
D18*
%TO.C,C140*%
X177025000Y-159045000D03*
X177025000Y-160005000D03*
%TD*%
D16*
%TO.C,C87*%
X174655000Y-138425000D03*
X175615000Y-138425000D03*
%TD*%
D36*
%TO.C,TP13*%
X133100000Y-93200000D03*
%TD*%
%TO.C,TP15*%
X174700000Y-99500000D03*
%TD*%
D16*
%TO.C,C221*%
X244645000Y-136825000D03*
X245605000Y-136825000D03*
%TD*%
D33*
%TO.C,U47*%
X188625000Y-136225000D03*
X188625000Y-136875000D03*
X188625000Y-137525000D03*
X188625000Y-138175000D03*
X188625000Y-138825000D03*
X188625000Y-139475000D03*
X188625000Y-140125000D03*
X188625000Y-140775000D03*
X194350000Y-140775000D03*
X194350000Y-140125000D03*
X194350000Y-139475000D03*
X194350000Y-138825000D03*
X194350000Y-138175000D03*
X194350000Y-137525000D03*
X194350000Y-136875000D03*
X194350000Y-136225000D03*
%TD*%
D16*
%TO.C,C280*%
X244645000Y-161625000D03*
X245605000Y-161625000D03*
%TD*%
D14*
%TO.C,C207*%
X223000000Y-158600000D03*
X223000000Y-157640000D03*
%TD*%
D34*
%TO.C,U95*%
X214800000Y-150750000D03*
X214800000Y-151400000D03*
X214800000Y-152050000D03*
X216700000Y-152050000D03*
X216700000Y-151400000D03*
X216700000Y-150750000D03*
%TD*%
D32*
%TO.C,U141*%
X250525000Y-159675000D03*
X250525000Y-159025000D03*
X250525000Y-158375000D03*
X248625000Y-158375000D03*
X248625000Y-159025000D03*
X248625000Y-159675000D03*
%TD*%
D31*
%TO.C,R235*%
X242615000Y-151225000D03*
X243635000Y-151225000D03*
%TD*%
D27*
%TO.C,R73*%
X171135000Y-138425000D03*
X170115000Y-138425000D03*
%TD*%
%TO.C,R194*%
X227510000Y-160800000D03*
X226490000Y-160800000D03*
%TD*%
D16*
%TO.C,C263*%
X244645000Y-154425000D03*
X245605000Y-154425000D03*
%TD*%
D13*
%TO.C,C16*%
X155480000Y-136000000D03*
X154520000Y-136000000D03*
%TD*%
D34*
%TO.C,U21*%
X149550000Y-150750000D03*
X149550000Y-151400000D03*
X149550000Y-152050000D03*
X151450000Y-152050000D03*
X151450000Y-151400000D03*
X151450000Y-150750000D03*
%TD*%
D13*
%TO.C,C100*%
X194367500Y-135000000D03*
X193407500Y-135000000D03*
%TD*%
D14*
%TO.C,C71*%
X153000000Y-158600000D03*
X153000000Y-157640000D03*
%TD*%
D13*
%TO.C,C24*%
X155480000Y-139200000D03*
X154520000Y-139200000D03*
%TD*%
D32*
%TO.C,U143*%
X255175000Y-162375000D03*
X255175000Y-161725000D03*
X255175000Y-161075000D03*
X253275000Y-161075000D03*
X253275000Y-161725000D03*
X253275000Y-162375000D03*
%TD*%
D13*
%TO.C,C26*%
X155480000Y-140800000D03*
X154520000Y-140800000D03*
%TD*%
%TO.C,C117*%
X194367500Y-142200000D03*
X193407500Y-142200000D03*
%TD*%
D16*
%TO.C,C112*%
X174645000Y-148825000D03*
X175605000Y-148825000D03*
%TD*%
D31*
%TO.C,R203*%
X242615000Y-136825000D03*
X243635000Y-136825000D03*
%TD*%
D27*
%TO.C,R66*%
X157510000Y-160800000D03*
X156490000Y-160800000D03*
%TD*%
D16*
%TO.C,C127*%
X174645000Y-154425000D03*
X175605000Y-154425000D03*
%TD*%
D13*
%TO.C,C8*%
X156680000Y-112400000D03*
X155720000Y-112400000D03*
%TD*%
D27*
%TO.C,R81*%
X171135000Y-141625000D03*
X170115000Y-141625000D03*
%TD*%
D34*
%TO.C,U9*%
X144800000Y-139550000D03*
X144800000Y-140200000D03*
X144800000Y-140850000D03*
X146700000Y-140850000D03*
X146700000Y-140200000D03*
X146700000Y-139550000D03*
%TD*%
D16*
%TO.C,C257*%
X244655000Y-152825000D03*
X245615000Y-152825000D03*
%TD*%
D32*
%TO.C,U136*%
X250525000Y-155475000D03*
X250525000Y-154825000D03*
X250525000Y-154175000D03*
X248625000Y-154175000D03*
X248625000Y-154825000D03*
X248625000Y-155475000D03*
%TD*%
D27*
%TO.C,R279*%
X241480000Y-65550000D03*
X242500000Y-65550000D03*
%TD*%
D31*
%TO.C,R192*%
X228890000Y-162400000D03*
X229910000Y-162400000D03*
%TD*%
D36*
%TO.C,TP2*%
X215600000Y-68300000D03*
%TD*%
D13*
%TO.C,C205*%
X225480000Y-159200000D03*
X224520000Y-159200000D03*
%TD*%
D34*
%TO.C,U75*%
X219550000Y-136350000D03*
X219550000Y-137000000D03*
X219550000Y-137650000D03*
X221450000Y-137650000D03*
X221450000Y-137000000D03*
X221450000Y-136350000D03*
%TD*%
D31*
%TO.C,R48*%
X158890000Y-155200000D03*
X159910000Y-155200000D03*
%TD*%
D13*
%TO.C,C154*%
X225480000Y-137600000D03*
X224520000Y-137600000D03*
%TD*%
D27*
%TO.C,R28*%
X157510000Y-144800000D03*
X156490000Y-144800000D03*
%TD*%
D13*
%TO.C,C287*%
X264367500Y-156600000D03*
X263407500Y-156600000D03*
%TD*%
D46*
%TO.C,J1*%
X191120000Y-115700000D03*
D47*
X191120000Y-118240000D03*
X188580000Y-115700000D03*
X188580000Y-118240000D03*
X186040000Y-115700000D03*
X186040000Y-118240000D03*
X183500000Y-115700000D03*
X183500000Y-118240000D03*
X180960000Y-115700000D03*
X180960000Y-118240000D03*
X178420000Y-115700000D03*
X178420000Y-118240000D03*
X175880000Y-115700000D03*
X175880000Y-118240000D03*
X173340000Y-115700000D03*
X173340000Y-118240000D03*
X170800000Y-115700000D03*
X170800000Y-118240000D03*
X168260000Y-115700000D03*
X168260000Y-118240000D03*
%TD*%
D39*
%TO.C,U110*%
X211362500Y-162675000D03*
X211362500Y-162025000D03*
X211362500Y-161375000D03*
X211362500Y-160725000D03*
X211362500Y-160075000D03*
X211362500Y-159425000D03*
X211362500Y-158775000D03*
X211362500Y-158125000D03*
X205637500Y-158125000D03*
X205637500Y-158775000D03*
X205637500Y-159425000D03*
X205637500Y-160075000D03*
X205637500Y-160725000D03*
X205637500Y-161375000D03*
X205637500Y-162025000D03*
X205637500Y-162675000D03*
%TD*%
D34*
%TO.C,U3*%
X149550000Y-136350000D03*
X149550000Y-137000000D03*
X149550000Y-137650000D03*
X151450000Y-137650000D03*
X151450000Y-137000000D03*
X151450000Y-136350000D03*
%TD*%
D31*
%TO.C,R282*%
X241490000Y-71250000D03*
X242510000Y-71250000D03*
%TD*%
D32*
%TO.C,U125*%
X255175000Y-147975000D03*
X255175000Y-147325000D03*
X255175000Y-146675000D03*
X253275000Y-146675000D03*
X253275000Y-147325000D03*
X253275000Y-147975000D03*
%TD*%
D27*
%TO.C,R207*%
X241135000Y-140025000D03*
X240115000Y-140025000D03*
%TD*%
D16*
%TO.C,C238*%
X244645000Y-144025000D03*
X245605000Y-144025000D03*
%TD*%
D18*
%TO.C,C150*%
X181725000Y-161745000D03*
X181725000Y-162705000D03*
%TD*%
D27*
%TO.C,R201*%
X241135000Y-138425000D03*
X240115000Y-138425000D03*
%TD*%
D14*
%TO.C,C166*%
X218263500Y-140200000D03*
X218263500Y-139240000D03*
%TD*%
D36*
%TO.C,TP1*%
X152100000Y-122500000D03*
%TD*%
D32*
%TO.C,U58*%
X185175000Y-152175000D03*
X185175000Y-151525000D03*
X185175000Y-150875000D03*
X183275000Y-150875000D03*
X183275000Y-151525000D03*
X183275000Y-152175000D03*
%TD*%
D14*
%TO.C,C81*%
X148263500Y-161800000D03*
X148263500Y-160840000D03*
%TD*%
D33*
%TO.C,U119*%
X258625000Y-136225000D03*
X258625000Y-136875000D03*
X258625000Y-137525000D03*
X258625000Y-138175000D03*
X258625000Y-138825000D03*
X258625000Y-139475000D03*
X258625000Y-140125000D03*
X258625000Y-140775000D03*
X264350000Y-140775000D03*
X264350000Y-140125000D03*
X264350000Y-139475000D03*
X264350000Y-138825000D03*
X264350000Y-138175000D03*
X264350000Y-137525000D03*
X264350000Y-136875000D03*
X264350000Y-136225000D03*
%TD*%
D12*
%TO.C,R263*%
X249100000Y-68110000D03*
X249100000Y-67090000D03*
%TD*%
D27*
%TO.C,R239*%
X241135000Y-154425000D03*
X240115000Y-154425000D03*
%TD*%
%TO.C,R97*%
X171135000Y-148825000D03*
X170115000Y-148825000D03*
%TD*%
D17*
%TO.C,C4*%
X165289999Y-106565000D03*
X165289999Y-105015000D03*
%TD*%
D16*
%TO.C,C85*%
X174645000Y-136825000D03*
X175605000Y-136825000D03*
%TD*%
D14*
%TO.C,C181*%
X223000000Y-147380000D03*
X223000000Y-146420000D03*
%TD*%
D13*
%TO.C,C41*%
X155480000Y-146400000D03*
X154520000Y-146400000D03*
%TD*%
D34*
%TO.C,U12*%
X149550000Y-143550000D03*
X149550000Y-144200000D03*
X149550000Y-144850000D03*
X151450000Y-144850000D03*
X151450000Y-144200000D03*
X151450000Y-143550000D03*
%TD*%
D16*
%TO.C,C219*%
X205620000Y-163800000D03*
X206580000Y-163800000D03*
%TD*%
D32*
%TO.C,U116*%
X255175000Y-140775000D03*
X255175000Y-140125000D03*
X255175000Y-139475000D03*
X253275000Y-139475000D03*
X253275000Y-140125000D03*
X253275000Y-140775000D03*
%TD*%
D48*
%TO.C,U1*%
X152475000Y-105000000D03*
X153745000Y-105000000D03*
X155015000Y-105000000D03*
X156285000Y-105000000D03*
X156285000Y-97800000D03*
X155015000Y-97800000D03*
X153745000Y-97800000D03*
X152475000Y-97800000D03*
%TD*%
D13*
%TO.C,C177*%
X225480000Y-146400000D03*
X224520000Y-146400000D03*
%TD*%
%TO.C,C151*%
X194367500Y-156600000D03*
X193407500Y-156600000D03*
%TD*%
D27*
%TO.C,R12*%
X157510000Y-137600000D03*
X156490000Y-137600000D03*
%TD*%
D14*
%TO.C,C192*%
X218250000Y-151400000D03*
X218250000Y-150440000D03*
%TD*%
D27*
%TO.C,R225*%
X241135000Y-148825000D03*
X240115000Y-148825000D03*
%TD*%
D32*
%TO.C,U118*%
X250525000Y-141075000D03*
X250525000Y-140425000D03*
X250525000Y-139775000D03*
X248625000Y-139775000D03*
X248625000Y-140425000D03*
X248625000Y-141075000D03*
%TD*%
D18*
%TO.C,C108*%
X181725000Y-144345000D03*
X181725000Y-145305000D03*
%TD*%
D16*
%TO.C,C110*%
X174645000Y-147225000D03*
X175605000Y-147225000D03*
%TD*%
D14*
%TO.C,C198*%
X223000000Y-154580000D03*
X223000000Y-153620000D03*
%TD*%
D36*
%TO.C,TP10*%
X189200000Y-74800000D03*
%TD*%
D27*
%TO.C,R162*%
X227510000Y-146400000D03*
X226490000Y-146400000D03*
%TD*%
D49*
%TO.C,H1*%
X129000000Y-201000000D03*
%TD*%
D14*
%TO.C,C158*%
X218250000Y-137000000D03*
X218250000Y-136040000D03*
%TD*%
D27*
%TO.C,R87*%
X171135000Y-144025000D03*
X170115000Y-144025000D03*
%TD*%
D39*
%TO.C,U83*%
X211362500Y-141075000D03*
X211362500Y-140425000D03*
X211362500Y-139775000D03*
X211362500Y-139125000D03*
X211362500Y-138475000D03*
X211362500Y-137825000D03*
X211362500Y-137175000D03*
X211362500Y-136525000D03*
X205637500Y-136525000D03*
X205637500Y-137175000D03*
X205637500Y-137825000D03*
X205637500Y-138475000D03*
X205637500Y-139125000D03*
X205637500Y-139775000D03*
X205637500Y-140425000D03*
X205637500Y-141075000D03*
%TD*%
D27*
%TO.C,R274*%
X165110000Y-117200000D03*
X164090000Y-117200000D03*
%TD*%
D18*
%TO.C,C91*%
X181725000Y-137145000D03*
X181725000Y-138105000D03*
%TD*%
D50*
%TO.C,Y1*%
X160650000Y-121400000D03*
X158450000Y-121400000D03*
X158450000Y-123000000D03*
X160650000Y-123000000D03*
%TD*%
D27*
%TO.C,R186*%
X227510000Y-157600000D03*
X226490000Y-157600000D03*
%TD*%
D18*
%TO.C,C133*%
X181725000Y-154545000D03*
X181725000Y-155505000D03*
%TD*%
%TO.C,C259*%
X247025000Y-151845000D03*
X247025000Y-152805000D03*
%TD*%
%TO.C,C250*%
X247025000Y-147645000D03*
X247025000Y-148605000D03*
%TD*%
D36*
%TO.C,TP12*%
X139500000Y-114800000D03*
%TD*%
D27*
%TO.C,R20*%
X157510000Y-140800000D03*
X156490000Y-140800000D03*
%TD*%
D31*
%TO.C,R54*%
X158890000Y-157600000D03*
X159910000Y-157600000D03*
%TD*%
%TO.C,R176*%
X228890000Y-155200000D03*
X229910000Y-155200000D03*
%TD*%
D51*
%TO.C,U148*%
X146000000Y-97000000D03*
X146000000Y-96500000D03*
X146000000Y-96000000D03*
X146000000Y-95500000D03*
X146000000Y-95000000D03*
X141775000Y-95000000D03*
X141775000Y-95500000D03*
X141775000Y-96000000D03*
X141775000Y-96500000D03*
X141775000Y-97000000D03*
%TD*%
D31*
%TO.C,R265*%
X200490000Y-68400000D03*
X201510000Y-68400000D03*
%TD*%
D32*
%TO.C,U62*%
X185175000Y-155175000D03*
X185175000Y-154525000D03*
X185175000Y-153875000D03*
X183275000Y-153875000D03*
X183275000Y-154525000D03*
X183275000Y-155175000D03*
%TD*%
D14*
%TO.C,C64*%
X148263500Y-154600000D03*
X148263500Y-153640000D03*
%TD*%
%TO.C,C13*%
X162219999Y-105380000D03*
X162219999Y-104420000D03*
%TD*%
D16*
%TO.C,C12*%
X165940000Y-107880000D03*
X166900000Y-107880000D03*
%TD*%
D31*
%TO.C,R229*%
X242615000Y-148825000D03*
X243635000Y-148825000D03*
%TD*%
D27*
%TO.C,R138*%
X227510000Y-136000000D03*
X226490000Y-136000000D03*
%TD*%
D31*
%TO.C,R115*%
X172615000Y-154425000D03*
X173635000Y-154425000D03*
%TD*%
D36*
%TO.C,S1*%
X142450000Y-110350000D03*
X142450000Y-103850000D03*
X146950000Y-110350000D03*
X146950000Y-103850000D03*
%TD*%
D18*
%TO.C,C99*%
X181725000Y-140145000D03*
X181725000Y-141105000D03*
%TD*%
D27*
%TO.C,R269*%
X235260000Y-69200000D03*
X234240000Y-69200000D03*
%TD*%
D18*
%TO.C,C284*%
X247025000Y-162045000D03*
X247025000Y-163005000D03*
%TD*%
D14*
%TO.C,C217*%
X218263500Y-161800000D03*
X218263500Y-160840000D03*
%TD*%
D18*
%TO.C,C225*%
X247025000Y-137445000D03*
X247025000Y-138405000D03*
%TD*%
D34*
%TO.C,U99*%
X214800000Y-153950000D03*
X214800000Y-154600000D03*
X214800000Y-155250000D03*
X216700000Y-155250000D03*
X216700000Y-154600000D03*
X216700000Y-153950000D03*
%TD*%
%TO.C,U27*%
X144800000Y-153950000D03*
X144800000Y-154600000D03*
X144800000Y-155250000D03*
X146700000Y-155250000D03*
X146700000Y-154600000D03*
X146700000Y-153950000D03*
%TD*%
D31*
%TO.C,R136*%
X228890000Y-137600000D03*
X229910000Y-137600000D03*
%TD*%
%TO.C,R133*%
X172615000Y-163225000D03*
X173635000Y-163225000D03*
%TD*%
D12*
%TO.C,R5*%
X160650000Y-117410000D03*
X160650000Y-116390000D03*
%TD*%
D16*
%TO.C,C223*%
X244655000Y-138425000D03*
X245615000Y-138425000D03*
%TD*%
D18*
%TO.C,C267*%
X247025000Y-154845000D03*
X247025000Y-155805000D03*
%TD*%
D32*
%TO.C,U60*%
X180525000Y-152475000D03*
X180525000Y-151825000D03*
X180525000Y-151175000D03*
X178625000Y-151175000D03*
X178625000Y-151825000D03*
X178625000Y-152475000D03*
%TD*%
D18*
%TO.C,C244*%
X251725000Y-144345000D03*
X251725000Y-145305000D03*
%TD*%
D32*
%TO.C,U64*%
X180525000Y-155475000D03*
X180525000Y-154825000D03*
X180525000Y-154175000D03*
X178625000Y-154175000D03*
X178625000Y-154825000D03*
X178625000Y-155475000D03*
%TD*%
D34*
%TO.C,U102*%
X219550000Y-157950000D03*
X219550000Y-158600000D03*
X219550000Y-159250000D03*
X221450000Y-159250000D03*
X221450000Y-158600000D03*
X221450000Y-157950000D03*
%TD*%
D16*
%TO.C,C119*%
X174645000Y-151225000D03*
X175605000Y-151225000D03*
%TD*%
D31*
%TO.C,R8*%
X158890000Y-137600000D03*
X159910000Y-137600000D03*
%TD*%
D18*
%TO.C,C252*%
X251725000Y-147345000D03*
X251725000Y-148305000D03*
%TD*%
D49*
%TO.C,H2*%
X129000000Y-59000000D03*
%TD*%
D13*
%TO.C,C179*%
X225480000Y-148000000D03*
X224520000Y-148000000D03*
%TD*%
D18*
%TO.C,C261*%
X251725000Y-151545000D03*
X251725000Y-152505000D03*
%TD*%
D27*
%TO.C,R140*%
X227510000Y-137600000D03*
X226490000Y-137600000D03*
%TD*%
D13*
%TO.C,C35*%
X155480000Y-144800000D03*
X154520000Y-144800000D03*
%TD*%
D16*
%TO.C,C282*%
X244645000Y-163225000D03*
X245605000Y-163225000D03*
%TD*%
D18*
%TO.C,C242*%
X247025000Y-144645000D03*
X247025000Y-145605000D03*
%TD*%
D52*
%TO.C,D3*%
X199050000Y-72400000D03*
X202350000Y-72400000D03*
%TD*%
D13*
%TO.C,C186*%
X225480000Y-150400000D03*
X224520000Y-150400000D03*
%TD*%
D32*
%TO.C,U127*%
X250525000Y-148275000D03*
X250525000Y-147625000D03*
X250525000Y-146975000D03*
X248625000Y-146975000D03*
X248625000Y-147625000D03*
X248625000Y-148275000D03*
%TD*%
D31*
%TO.C,R221*%
X242625000Y-145625000D03*
X243645000Y-145625000D03*
%TD*%
D27*
%TO.C,R52*%
X157510000Y-155200000D03*
X156490000Y-155200000D03*
%TD*%
D36*
%TO.C,TP4*%
X196500000Y-96000000D03*
%TD*%
D13*
%TO.C,C236*%
X264367500Y-135000000D03*
X263407500Y-135000000D03*
%TD*%
D53*
%TO.C,U2*%
X161380000Y-111400000D03*
D54*
X158780000Y-107962500D03*
X159180000Y-107962500D03*
X159580000Y-107962500D03*
X159980000Y-107962500D03*
X160380000Y-107962500D03*
X160780000Y-107962500D03*
X161180000Y-107962500D03*
X161580000Y-107962500D03*
X161980000Y-107962500D03*
X162380000Y-107962500D03*
X162780000Y-107962500D03*
X163180000Y-107962500D03*
X163580000Y-107962500D03*
X163980000Y-107962500D03*
D55*
X164817500Y-108800000D03*
X164817500Y-109200000D03*
X164817500Y-109600000D03*
X164817500Y-110000000D03*
X164817500Y-110400000D03*
X164817500Y-110800000D03*
X164817500Y-111200000D03*
X164817500Y-111600000D03*
X164817500Y-112000000D03*
X164817500Y-112400000D03*
X164817500Y-112800000D03*
X164817500Y-113200000D03*
X164817500Y-113600000D03*
X164817500Y-114000000D03*
D54*
X163980000Y-114837500D03*
X163580000Y-114837500D03*
X163180000Y-114837500D03*
X162780000Y-114837500D03*
X162380000Y-114837500D03*
X161980000Y-114837500D03*
X161580000Y-114837500D03*
X161180000Y-114837500D03*
X160780000Y-114837500D03*
X160380000Y-114837500D03*
X159980000Y-114837500D03*
X159580000Y-114837500D03*
X159180000Y-114837500D03*
X158780000Y-114837500D03*
D55*
X157942500Y-114000000D03*
X157942500Y-113600000D03*
X157942500Y-113200000D03*
X157942500Y-112800000D03*
X157942500Y-112400000D03*
X157942500Y-112000000D03*
X157942500Y-111600000D03*
X157942500Y-111200000D03*
X157942500Y-110800000D03*
X157942500Y-110400000D03*
X157942500Y-110000000D03*
X157942500Y-109600000D03*
X157942500Y-109200000D03*
X157942500Y-108800000D03*
%TD*%
D13*
%TO.C,C2*%
X159550000Y-120040000D03*
X158590000Y-120040000D03*
%TD*%
D14*
%TO.C,C183*%
X218263500Y-147400000D03*
X218263500Y-146440000D03*
%TD*%
D13*
%TO.C,C43*%
X155480000Y-148000000D03*
X154520000Y-148000000D03*
%TD*%
D16*
%TO.C,C66*%
X135620000Y-156600000D03*
X136580000Y-156600000D03*
%TD*%
%TO.C,C49*%
X135620000Y-149400000D03*
X136580000Y-149400000D03*
%TD*%
D13*
%TO.C,C211*%
X225480000Y-160800000D03*
X224520000Y-160800000D03*
%TD*%
D14*
%TO.C,C62*%
X153000000Y-154580000D03*
X153000000Y-153620000D03*
%TD*%
D18*
%TO.C,C114*%
X177025000Y-147645000D03*
X177025000Y-148605000D03*
%TD*%
D32*
%TO.C,U53*%
X185175000Y-147975000D03*
X185175000Y-147325000D03*
X185175000Y-146675000D03*
X183275000Y-146675000D03*
X183275000Y-147325000D03*
X183275000Y-147975000D03*
%TD*%
D16*
%TO.C,C168*%
X205620000Y-142200000D03*
X206580000Y-142200000D03*
%TD*%
D18*
%TO.C,C142*%
X181725000Y-158745000D03*
X181725000Y-159705000D03*
%TD*%
D31*
%TO.C,R190*%
X228890000Y-160800000D03*
X229910000Y-160800000D03*
%TD*%
D16*
%TO.C,C83*%
X135620000Y-163800000D03*
X136580000Y-163800000D03*
%TD*%
D27*
%TO.C,R196*%
X227510000Y-162400000D03*
X226490000Y-162400000D03*
%TD*%
D31*
%TO.C,R184*%
X228890000Y-159200000D03*
X229910000Y-159200000D03*
%TD*%
%TO.C,R213*%
X242615000Y-141625000D03*
X243635000Y-141625000D03*
%TD*%
D18*
%TO.C,C276*%
X247025000Y-159045000D03*
X247025000Y-160005000D03*
%TD*%
D32*
%TO.C,U46*%
X180525000Y-141075000D03*
X180525000Y-140425000D03*
X180525000Y-139775000D03*
X178625000Y-139775000D03*
X178625000Y-140425000D03*
X178625000Y-141075000D03*
%TD*%
D56*
%TO.C,J5*%
X146200000Y-59600000D03*
X153800000Y-59600000D03*
D36*
X150000000Y-67400000D03*
%TD*%
D14*
%TO.C,C37*%
X153000000Y-144200000D03*
X153000000Y-143240000D03*
%TD*%
D32*
%TO.C,U145*%
X250525000Y-162675000D03*
X250525000Y-162025000D03*
X250525000Y-161375000D03*
X248625000Y-161375000D03*
X248625000Y-162025000D03*
X248625000Y-162675000D03*
%TD*%
D27*
%TO.C,R89*%
X171135000Y-145625000D03*
X170115000Y-145625000D03*
%TD*%
D13*
%TO.C,C162*%
X225480000Y-140800000D03*
X224520000Y-140800000D03*
%TD*%
D18*
%TO.C,C278*%
X251725000Y-158745000D03*
X251725000Y-159705000D03*
%TD*%
D13*
%TO.C,C160*%
X225480000Y-139200000D03*
X224520000Y-139200000D03*
%TD*%
%TO.C,C213*%
X225480000Y-162400000D03*
X224520000Y-162400000D03*
%TD*%
D57*
%TO.C,SW1*%
X254800000Y-62200000D03*
X265200000Y-72200000D03*
D58*
X256500000Y-64700000D03*
X256500000Y-67200000D03*
X256500000Y-69700000D03*
X263500000Y-64700000D03*
X263500000Y-67200000D03*
D59*
X263500000Y-69700000D03*
%TD*%
D27*
%TO.C,R26*%
X157510000Y-143200000D03*
X156490000Y-143200000D03*
%TD*%
D13*
%TO.C,C50*%
X155480000Y-150400000D03*
X154520000Y-150400000D03*
%TD*%
D18*
%TO.C,C97*%
X177025000Y-140445000D03*
X177025000Y-141405000D03*
%TD*%
D34*
%TO.C,U86*%
X214800000Y-143550000D03*
X214800000Y-144200000D03*
X214800000Y-144850000D03*
X216700000Y-144850000D03*
X216700000Y-144200000D03*
X216700000Y-143550000D03*
%TD*%
D16*
%TO.C,C102*%
X174645000Y-144025000D03*
X175605000Y-144025000D03*
%TD*%
D32*
%TO.C,U147*%
X136150000Y-96950000D03*
X136150000Y-96300000D03*
X136150000Y-95650000D03*
X134250000Y-95650000D03*
X134250000Y-96300000D03*
X134250000Y-96950000D03*
%TD*%
D60*
%TO.C,U150*%
X239037500Y-67300000D03*
X239037500Y-69200000D03*
X236762500Y-69200000D03*
X236762500Y-68250000D03*
X236762500Y-67300000D03*
%TD*%
D36*
%TO.C,TP7*%
X171200000Y-106700000D03*
%TD*%
%TO.C,TP5*%
X207500000Y-68000000D03*
%TD*%
D34*
%TO.C,U32*%
X144800000Y-157950000D03*
X144800000Y-158600000D03*
X144800000Y-159250000D03*
X146700000Y-159250000D03*
X146700000Y-158600000D03*
X146700000Y-157950000D03*
%TD*%
D40*
%TO.C,R4*%
X164089999Y-104390000D03*
X164089999Y-105410000D03*
%TD*%
D13*
%TO.C,C69*%
X155480000Y-159200000D03*
X154520000Y-159200000D03*
%TD*%
D31*
%TO.C,R56*%
X158890000Y-159200000D03*
X159910000Y-159200000D03*
%TD*%
D34*
%TO.C,U84*%
X219550000Y-143550000D03*
X219550000Y-144200000D03*
X219550000Y-144850000D03*
X221450000Y-144850000D03*
X221450000Y-144200000D03*
X221450000Y-143550000D03*
%TD*%
D35*
%TO.C,D2*%
X144700000Y-76450000D03*
X144700000Y-79750000D03*
%TD*%
D31*
%TO.C,R281*%
X241490000Y-64350000D03*
X242510000Y-64350000D03*
%TD*%
D14*
%TO.C,C209*%
X218250000Y-158600000D03*
X218250000Y-157640000D03*
%TD*%
D31*
%TO.C,R77*%
X172625000Y-138425000D03*
X173645000Y-138425000D03*
%TD*%
D13*
%TO.C,C75*%
X155480000Y-160800000D03*
X154520000Y-160800000D03*
%TD*%
D31*
%TO.C,R182*%
X228890000Y-157600000D03*
X229910000Y-157600000D03*
%TD*%
%TO.C,R245*%
X242615000Y-156025000D03*
X243635000Y-156025000D03*
%TD*%
%TO.C,R150*%
X228890000Y-143200000D03*
X229910000Y-143200000D03*
%TD*%
D61*
%TO.C,U149*%
X250350000Y-70050000D03*
X250850000Y-70050000D03*
X251350000Y-70050000D03*
X251850000Y-70050000D03*
X251850000Y-66950000D03*
X251350000Y-66950000D03*
X250850000Y-66950000D03*
X250350000Y-66950000D03*
%TD*%
D34*
%TO.C,U36*%
X144800000Y-161150000D03*
X144800000Y-161800000D03*
X144800000Y-162450000D03*
X146700000Y-162450000D03*
X146700000Y-161800000D03*
X146700000Y-161150000D03*
%TD*%
D27*
%TO.C,R180*%
X227510000Y-155200000D03*
X226490000Y-155200000D03*
%TD*%
D31*
%TO.C,R158*%
X228890000Y-146400000D03*
X229910000Y-146400000D03*
%TD*%
%TO.C,R117*%
X172615000Y-156025000D03*
X173635000Y-156025000D03*
%TD*%
D16*
%TO.C,C240*%
X244655000Y-145625000D03*
X245615000Y-145625000D03*
%TD*%
%TO.C,C265*%
X244645000Y-156025000D03*
X245605000Y-156025000D03*
%TD*%
D31*
%TO.C,R134*%
X228890000Y-136000000D03*
X229910000Y-136000000D03*
%TD*%
%TO.C,R109*%
X172625000Y-152825000D03*
X173645000Y-152825000D03*
%TD*%
D27*
%TO.C,R272*%
X202710000Y-81700000D03*
X201690000Y-81700000D03*
%TD*%
%TO.C,R79*%
X171135000Y-140025000D03*
X170115000Y-140025000D03*
%TD*%
D18*
%TO.C,C233*%
X247025000Y-140445000D03*
X247025000Y-141405000D03*
%TD*%
D14*
%TO.C,C79*%
X153000000Y-161780000D03*
X153000000Y-160820000D03*
%TD*%
%TO.C,C190*%
X223000000Y-151400000D03*
X223000000Y-150440000D03*
%TD*%
D27*
%TO.C,R146*%
X227510000Y-139200000D03*
X226490000Y-139200000D03*
%TD*%
%TO.C,R10*%
X157510000Y-136000000D03*
X156490000Y-136000000D03*
%TD*%
%TO.C,R105*%
X171135000Y-152825000D03*
X170115000Y-152825000D03*
%TD*%
D31*
%TO.C,R14*%
X158890000Y-139200000D03*
X159910000Y-139200000D03*
%TD*%
D49*
%TO.C,H3*%
X271000000Y-59000000D03*
%TD*%
D27*
%TO.C,R249*%
X241135000Y-160025000D03*
X240115000Y-160025000D03*
%TD*%
D31*
%TO.C,R85*%
X172615000Y-141625000D03*
X173635000Y-141625000D03*
%TD*%
%TO.C,R142*%
X228890000Y-139200000D03*
X229910000Y-139200000D03*
%TD*%
D13*
%TO.C,C77*%
X155480000Y-162400000D03*
X154520000Y-162400000D03*
%TD*%
D14*
%TO.C,C47*%
X148263500Y-147400000D03*
X148263500Y-146440000D03*
%TD*%
D36*
%TO.C,TP8*%
X196800000Y-77400000D03*
%TD*%
D32*
%TO.C,U132*%
X250525000Y-152475000D03*
X250525000Y-151825000D03*
X250525000Y-151175000D03*
X248625000Y-151175000D03*
X248625000Y-151825000D03*
X248625000Y-152475000D03*
%TD*%
D27*
%TO.C,R103*%
X171135000Y-151225000D03*
X170115000Y-151225000D03*
%TD*%
%TO.C,R178*%
X227510000Y-153600000D03*
X226490000Y-153600000D03*
%TD*%
D34*
%TO.C,U104*%
X214800000Y-157950000D03*
X214800000Y-158600000D03*
X214800000Y-159250000D03*
X216700000Y-159250000D03*
X216700000Y-158600000D03*
X216700000Y-157950000D03*
%TD*%
D32*
%TO.C,U67*%
X185175000Y-159375000D03*
X185175000Y-158725000D03*
X185175000Y-158075000D03*
X183275000Y-158075000D03*
X183275000Y-158725000D03*
X183275000Y-159375000D03*
%TD*%
D27*
%TO.C,R34*%
X157510000Y-146400000D03*
X156490000Y-146400000D03*
%TD*%
D62*
%TO.C,J6*%
X195680000Y-56635000D03*
D63*
X195680000Y-60815000D03*
D62*
X204320000Y-56635000D03*
D63*
X204320000Y-60815000D03*
D64*
X203200000Y-61390000D03*
X202400000Y-61390000D03*
D65*
X201750000Y-61390000D03*
X200750000Y-61390000D03*
X199250000Y-61390000D03*
X198250000Y-61390000D03*
D64*
X197600000Y-61390000D03*
X196800000Y-61390000D03*
X196800000Y-61390000D03*
X197600000Y-61390000D03*
D65*
X198750000Y-61390000D03*
X199750000Y-61390000D03*
X200250000Y-61390000D03*
X201250000Y-61390000D03*
D64*
X202400000Y-61390000D03*
X203200000Y-61390000D03*
D66*
X197110000Y-60315000D03*
X202890000Y-60315000D03*
%TD*%
D27*
%TO.C,R68*%
X157510000Y-162400000D03*
X156490000Y-162400000D03*
%TD*%
D16*
%TO.C,C121*%
X174655000Y-152825000D03*
X175615000Y-152825000D03*
%TD*%
D27*
%TO.C,R255*%
X241135000Y-161625000D03*
X240115000Y-161625000D03*
%TD*%
D31*
%TO.C,R125*%
X172625000Y-160025000D03*
X173645000Y-160025000D03*
%TD*%
%TO.C,R99*%
X172615000Y-147225000D03*
X173635000Y-147225000D03*
%TD*%
D27*
%TO.C,R44*%
X157510000Y-152000000D03*
X156490000Y-152000000D03*
%TD*%
D13*
%TO.C,C52*%
X155480000Y-152000000D03*
X154520000Y-152000000D03*
%TD*%
D67*
%TO.C,J7*%
X214550000Y-88100000D03*
X207850000Y-88100000D03*
D68*
X212200000Y-82350000D03*
X210200000Y-82350000D03*
%TD*%
D31*
%TO.C,R83*%
X172615000Y-140025000D03*
X173635000Y-140025000D03*
%TD*%
D18*
%TO.C,C148*%
X177025000Y-162045000D03*
X177025000Y-163005000D03*
%TD*%
D34*
%TO.C,U79*%
X219550000Y-139550000D03*
X219550000Y-140200000D03*
X219550000Y-140850000D03*
X221450000Y-140850000D03*
X221450000Y-140200000D03*
X221450000Y-139550000D03*
%TD*%
%TO.C,U90*%
X214800000Y-146750000D03*
X214800000Y-147400000D03*
X214800000Y-148050000D03*
X216700000Y-148050000D03*
X216700000Y-147400000D03*
X216700000Y-146750000D03*
%TD*%
D27*
%TO.C,R241*%
X241135000Y-156025000D03*
X240115000Y-156025000D03*
%TD*%
D16*
%TO.C,C146*%
X174645000Y-163225000D03*
X175605000Y-163225000D03*
%TD*%
D31*
%TO.C,R243*%
X242615000Y-154425000D03*
X243635000Y-154425000D03*
%TD*%
D13*
%TO.C,C7*%
X156780000Y-108400000D03*
X155820000Y-108400000D03*
%TD*%
D27*
%TO.C,R276*%
X154710000Y-109700000D03*
X153690000Y-109700000D03*
%TD*%
%TO.C,R113*%
X171135000Y-156025000D03*
X170115000Y-156025000D03*
%TD*%
D34*
%TO.C,U14*%
X144800000Y-143550000D03*
X144800000Y-144200000D03*
X144800000Y-144850000D03*
X146700000Y-144850000D03*
X146700000Y-144200000D03*
X146700000Y-143550000D03*
%TD*%
D49*
%TO.C,H4*%
X271000000Y-201000000D03*
%TD*%
D27*
%TO.C,R50*%
X157510000Y-153600000D03*
X156490000Y-153600000D03*
%TD*%
%TO.C,R188*%
X227510000Y-159200000D03*
X226490000Y-159200000D03*
%TD*%
D14*
%TO.C,C200*%
X218263500Y-154600000D03*
X218263500Y-153640000D03*
%TD*%
D33*
%TO.C,U146*%
X258625000Y-157825000D03*
X258625000Y-158475000D03*
X258625000Y-159125000D03*
X258625000Y-159775000D03*
X258625000Y-160425000D03*
X258625000Y-161075000D03*
X258625000Y-161725000D03*
X258625000Y-162375000D03*
X264350000Y-162375000D03*
X264350000Y-161725000D03*
X264350000Y-161075000D03*
X264350000Y-160425000D03*
X264350000Y-159775000D03*
X264350000Y-159125000D03*
X264350000Y-158475000D03*
X264350000Y-157825000D03*
%TD*%
D69*
%TO.C,Q3*%
X199925000Y-82025000D03*
X199925000Y-80125000D03*
X198050000Y-81075000D03*
%TD*%
D13*
%TO.C,C171*%
X225480000Y-144800000D03*
X224520000Y-144800000D03*
%TD*%
D27*
%TO.C,R247*%
X241135000Y-158425000D03*
X240115000Y-158425000D03*
%TD*%
D13*
%TO.C,C58*%
X155480000Y-153600000D03*
X154520000Y-153600000D03*
%TD*%
M02*
