%TF.GenerationSoftware,KiCad,Pcbnew,9.0.6*%
%TF.CreationDate,2026-01-13T15:41:30-05:00*%
%TF.ProjectId,ephys-test-board,65706879-732d-4746-9573-742d626f6172,F*%
%TF.SameCoordinates,PX7735940PYa6e49c0*%
%TF.FileFunction,Profile,NP*%
%FSLAX46Y46*%
G04 Gerber Fmt 4.6, Leading zero omitted, Abs format (unit mm)*
G04 Created by KiCad (PCBNEW 9.0.6) date 2026-01-13 15:41:30*
%MOMM*%
%LPD*%
G01*
G04 APERTURE LIST*
%TA.AperFunction,Profile*%
%ADD10C,0.100000*%
%TD*%
G04 APERTURE END LIST*
D10*
X114300000Y120000000D02*
X124000000Y120000000D01*
X99100000Y111100000D02*
X99100000Y120000000D01*
X126000000Y115000000D02*
G75*
G02*
X124000000Y117000000I0J2000000D01*
G01*
X114300000Y111100000D02*
G75*
G02*
X112300000Y109100000I-2000000J0D01*
G01*
X142000000Y117000000D02*
G75*
G02*
X140000000Y115000000I-2000000J0D01*
G01*
X0Y4000000D02*
X0Y116000000D01*
X99100000Y120000000D02*
X4000000Y120000000D01*
X101100000Y109100000D02*
G75*
G02*
X99100000Y111100000I0J2000000D01*
G01*
X4000000Y0D02*
G75*
G02*
X0Y4000000I0J4000000D01*
G01*
X150000000Y4000000D02*
G75*
G02*
X146000000Y0I-4000000J0D01*
G01*
X4000000Y0D02*
X146000000Y0D01*
X124000000Y117000000D02*
X124000000Y120000000D01*
X146000000Y120000000D02*
G75*
G02*
X150000000Y116000000I0J-4000000D01*
G01*
X112300000Y109100000D02*
X101100000Y109100000D01*
X140007483Y115000000D02*
X126000000Y115000000D01*
X150000000Y4000000D02*
X150000000Y116000000D01*
X146000000Y120000000D02*
X142000000Y120000000D01*
X114300000Y120000000D02*
X114300000Y111100000D01*
X0Y116000000D02*
G75*
G02*
X4000000Y120000000I4000000J0D01*
G01*
X142000000Y117000000D02*
X142000000Y120000000D01*
M02*
