%TF.GenerationSoftware,KiCad,Pcbnew,9.0.6*%
%TF.CreationDate,2026-01-13T15:41:29-05:00*%
%TF.ProjectId,ephys-test-board,65706879-732d-4746-9573-742d626f6172,F*%
%TF.SameCoordinates,PX7735940PYa6e49c0*%
%TF.FileFunction,Paste,Top*%
%TF.FilePolarity,Positive*%
%FSLAX46Y46*%
G04 Gerber Fmt 4.6, Leading zero omitted, Abs format (unit mm)*
G04 Created by KiCad (PCBNEW 9.0.6) date 2026-01-13 15:41:29*
%MOMM*%
%LPD*%
G01*
G04 APERTURE LIST*
G04 Aperture macros list*
%AMRoundRect*
0 Rectangle with rounded corners*
0 $1 Rounding radius*
0 $2 $3 $4 $5 $6 $7 $8 $9 X,Y pos of 4 corners*
0 Add a 4 corners polygon primitive as box body*
4,1,4,$2,$3,$4,$5,$6,$7,$8,$9,$2,$3,0*
0 Add four circle primitives for the rounded corners*
1,1,$1+$1,$2,$3*
1,1,$1+$1,$4,$5*
1,1,$1+$1,$6,$7*
1,1,$1+$1,$8,$9*
0 Add four rect primitives between the rounded corners*
20,1,$1+$1,$2,$3,$4,$5,0*
20,1,$1+$1,$4,$5,$6,$7,0*
20,1,$1+$1,$6,$7,$8,$9,0*
20,1,$1+$1,$8,$9,$2,$3,0*%
G04 Aperture macros list end*
%ADD10RoundRect,0.249999X-0.395001X-0.395001X0.395001X-0.395001X0.395001X0.395001X-0.395001X0.395001X0*%
%ADD11RoundRect,0.050000X-0.387500X-0.050000X0.387500X-0.050000X0.387500X0.050000X-0.387500X0.050000X0*%
%ADD12RoundRect,0.050000X-0.050000X-0.387500X0.050000X-0.387500X0.050000X0.387500X-0.050000X0.387500X0*%
%ADD13C,0.215000*%
%ADD14RoundRect,0.135000X0.135000X0.185000X-0.135000X0.185000X-0.135000X-0.185000X0.135000X-0.185000X0*%
%ADD15RoundRect,0.135000X-0.135000X-0.185000X0.135000X-0.185000X0.135000X0.185000X-0.135000X0.185000X0*%
%ADD16RoundRect,0.140000X0.140000X0.170000X-0.140000X0.170000X-0.140000X-0.170000X0.140000X-0.170000X0*%
%ADD17RoundRect,0.135000X-0.185000X0.135000X-0.185000X-0.135000X0.185000X-0.135000X0.185000X0.135000X0*%
%ADD18RoundRect,0.140000X-0.140000X-0.170000X0.140000X-0.170000X0.140000X0.170000X-0.140000X0.170000X0*%
%ADD19RoundRect,0.140000X-0.170000X0.140000X-0.170000X-0.140000X0.170000X-0.140000X0.170000X0.140000X0*%
%ADD20RoundRect,0.100000X-0.637500X-0.100000X0.637500X-0.100000X0.637500X0.100000X-0.637500X0.100000X0*%
%ADD21RoundRect,0.200000X-0.200000X-0.275000X0.200000X-0.275000X0.200000X0.275000X-0.200000X0.275000X0*%
%ADD22RoundRect,0.225000X-0.225000X-0.375000X0.225000X-0.375000X0.225000X0.375000X-0.225000X0.375000X0*%
%ADD23R,0.700000X0.640000*%
%ADD24R,0.700000X0.500000*%
%ADD25RoundRect,0.250000X0.650000X-0.325000X0.650000X0.325000X-0.650000X0.325000X-0.650000X-0.325000X0*%
%ADD26RoundRect,0.225000X0.225000X0.250000X-0.225000X0.250000X-0.225000X-0.250000X0.225000X-0.250000X0*%
%ADD27RoundRect,0.075000X0.075000X0.200000X-0.075000X0.200000X-0.075000X-0.200000X0.075000X-0.200000X0*%
%ADD28RoundRect,0.250000X-0.325000X-0.650000X0.325000X-0.650000X0.325000X0.650000X-0.325000X0.650000X0*%
%ADD29RoundRect,0.140000X0.170000X-0.140000X0.170000X0.140000X-0.170000X0.140000X-0.170000X-0.140000X0*%
%ADD30R,1.450000X0.457000*%
%ADD31RoundRect,0.150000X-0.150000X0.587500X-0.150000X-0.587500X0.150000X-0.587500X0.150000X0.587500X0*%
%ADD32RoundRect,0.225000X0.250000X-0.225000X0.250000X0.225000X-0.250000X0.225000X-0.250000X-0.225000X0*%
%ADD33RoundRect,0.250000X0.325000X0.650000X-0.325000X0.650000X-0.325000X-0.650000X0.325000X-0.650000X0*%
%ADD34RoundRect,0.150000X0.625000X-0.150000X0.625000X0.150000X-0.625000X0.150000X-0.625000X-0.150000X0*%
%ADD35RoundRect,0.250000X0.650000X-0.350000X0.650000X0.350000X-0.650000X0.350000X-0.650000X-0.350000X0*%
%ADD36RoundRect,0.100000X0.637500X0.100000X-0.637500X0.100000X-0.637500X-0.100000X0.637500X-0.100000X0*%
%ADD37RoundRect,0.150000X0.150000X-0.587500X0.150000X0.587500X-0.150000X0.587500X-0.150000X-0.587500X0*%
%ADD38RoundRect,0.135000X0.185000X-0.135000X0.185000X0.135000X-0.185000X0.135000X-0.185000X-0.135000X0*%
%ADD39RoundRect,0.225000X0.375000X-0.225000X0.375000X0.225000X-0.375000X0.225000X-0.375000X-0.225000X0*%
%ADD40R,1.400000X2.100000*%
%ADD41RoundRect,0.150000X0.512500X0.150000X-0.512500X0.150000X-0.512500X-0.150000X0.512500X-0.150000X0*%
%ADD42RoundRect,0.070000X-0.355000X0.070000X-0.355000X-0.070000X0.355000X-0.070000X0.355000X0.070000X0*%
%ADD43RoundRect,0.070000X-0.305000X0.070000X-0.305000X-0.070000X0.305000X-0.070000X0.305000X0.070000X0*%
%ADD44RoundRect,0.225000X-0.225000X-0.250000X0.225000X-0.250000X0.225000X0.250000X-0.225000X0.250000X0*%
%ADD45RoundRect,0.250000X-0.625000X0.312500X-0.625000X-0.312500X0.625000X-0.312500X0.625000X0.312500X0*%
%ADD46RoundRect,0.150000X-0.150000X0.512500X-0.150000X-0.512500X0.150000X-0.512500X0.150000X0.512500X0*%
%ADD47RoundRect,0.250000X-0.650000X0.325000X-0.650000X-0.325000X0.650000X-0.325000X0.650000X0.325000X0*%
%ADD48RoundRect,0.150000X0.150000X-0.512500X0.150000X0.512500X-0.150000X0.512500X-0.150000X-0.512500X0*%
%ADD49RoundRect,0.162500X0.162500X-0.650000X0.162500X0.650000X-0.162500X0.650000X-0.162500X-0.650000X0*%
%ADD50R,1.200000X1.400000*%
%ADD51RoundRect,0.087500X0.087500X-0.725000X0.087500X0.725000X-0.087500X0.725000X-0.087500X-0.725000X0*%
%ADD52RoundRect,0.225000X-0.250000X0.225000X-0.250000X-0.225000X0.250000X-0.225000X0.250000X0.225000X0*%
%ADD53RoundRect,0.150000X-0.512500X-0.150000X0.512500X-0.150000X0.512500X0.150000X-0.512500X0.150000X0*%
%ADD54R,0.650000X0.750000*%
%ADD55RoundRect,0.062500X-0.062500X0.187500X-0.062500X-0.187500X0.062500X-0.187500X0.062500X0.187500X0*%
%ADD56RoundRect,0.218750X-0.256250X0.218750X-0.256250X-0.218750X0.256250X-0.218750X0.256250X0.218750X0*%
%ADD57R,1.000000X3.150000*%
%ADD58RoundRect,0.150000X0.150000X0.425000X-0.150000X0.425000X-0.150000X-0.425000X0.150000X-0.425000X0*%
%ADD59RoundRect,0.075000X0.075000X0.500000X-0.075000X0.500000X-0.075000X-0.500000X0.075000X-0.500000X0*%
%ADD60O,1.000000X2.100000*%
%ADD61O,1.000000X1.800000*%
%ADD62RoundRect,0.150000X0.587500X0.150000X-0.587500X0.150000X-0.587500X-0.150000X0.587500X-0.150000X0*%
G04 APERTURE END LIST*
D10*
%TO.C,U2*%
X39130000Y80300000D03*
X39130000Y78700000D03*
X40730000Y80300000D03*
X40730000Y78700000D03*
D11*
X36492500Y82100000D03*
X36492500Y81700000D03*
X36492500Y81300000D03*
X36492500Y80900000D03*
X36492500Y80500000D03*
X36492500Y80100000D03*
X36492500Y79700000D03*
X36492500Y79300000D03*
X36492500Y78900000D03*
X36492500Y78500000D03*
X36492500Y78100000D03*
X36492500Y77700000D03*
X36492500Y77300000D03*
X36492500Y76900000D03*
D12*
X37330000Y76062500D03*
X37730000Y76062500D03*
X38130000Y76062500D03*
X38530000Y76062500D03*
X38930000Y76062500D03*
X39330000Y76062500D03*
X39730000Y76062500D03*
X40130000Y76062500D03*
X40530000Y76062500D03*
X40930000Y76062500D03*
X41330000Y76062500D03*
X41730000Y76062500D03*
X42130000Y76062500D03*
X42530000Y76062500D03*
D11*
X43367500Y76900000D03*
X43367500Y77300000D03*
X43367500Y77700000D03*
X43367500Y78100000D03*
X43367500Y78500000D03*
X43367500Y78900000D03*
X43367500Y79300000D03*
X43367500Y79700000D03*
X43367500Y80100000D03*
X43367500Y80500000D03*
X43367500Y80900000D03*
X43367500Y81300000D03*
X43367500Y81700000D03*
X43367500Y82100000D03*
D12*
X42530000Y82937500D03*
X42130000Y82937500D03*
X41730000Y82937500D03*
X41330000Y82937500D03*
X40930000Y82937500D03*
X40530000Y82937500D03*
X40130000Y82937500D03*
X39730000Y82937500D03*
X39330000Y82937500D03*
X38930000Y82937500D03*
X38530000Y82937500D03*
X38130000Y82937500D03*
X37730000Y82937500D03*
X37330000Y82937500D03*
%TD*%
D13*
%TO.C,U76*%
X124900000Y38575001D03*
X124500000Y38575001D03*
X124100000Y38575001D03*
X124900000Y38975001D03*
X124500000Y38975001D03*
X124100000Y38975001D03*
X124900000Y39375001D03*
X124500000Y39375001D03*
X124100000Y39375001D03*
%TD*%
%TO.C,U56*%
X97700000Y39375000D03*
X98100000Y39375000D03*
X98500000Y39375000D03*
X97700000Y38975000D03*
X98100000Y38975000D03*
X98500000Y38975000D03*
X97700000Y38575000D03*
X98100000Y38575000D03*
X98500000Y38575000D03*
%TD*%
%TO.C,U75*%
X122300000Y38575001D03*
X121900000Y38575001D03*
X121500000Y38575001D03*
X122300000Y38975001D03*
X121900000Y38975001D03*
X121500000Y38975001D03*
X122300000Y39375001D03*
X121900000Y39375001D03*
X121500000Y39375001D03*
%TD*%
%TO.C,U63*%
X122300000Y56600000D03*
X121900000Y56600000D03*
X121500000Y56600000D03*
X122300000Y57000000D03*
X121900000Y57000000D03*
X121500000Y57000000D03*
X122300000Y57400000D03*
X121900000Y57400000D03*
X121500000Y57400000D03*
%TD*%
%TO.C,U30*%
X52300000Y45775001D03*
X51900000Y45775001D03*
X51500000Y45775001D03*
X52300000Y46175001D03*
X51900000Y46175001D03*
X51500000Y46175001D03*
X52300000Y46575001D03*
X51900000Y46575001D03*
X51500000Y46575001D03*
%TD*%
%TO.C,U39*%
X54900000Y34975001D03*
X54500000Y34975001D03*
X54100000Y34975001D03*
X54900000Y35375001D03*
X54500000Y35375001D03*
X54100000Y35375001D03*
X54900000Y35775001D03*
X54500000Y35775001D03*
X54100000Y35775001D03*
%TD*%
%TO.C,U66*%
X124900000Y53000000D03*
X124500000Y53000000D03*
X124100000Y53000000D03*
X124900000Y53400000D03*
X124500000Y53400000D03*
X124100000Y53400000D03*
X124900000Y53800000D03*
X124500000Y53800000D03*
X124100000Y53800000D03*
%TD*%
%TO.C,U36*%
X54900000Y38575001D03*
X54500000Y38575001D03*
X54100000Y38575001D03*
X54900000Y38975001D03*
X54500000Y38975001D03*
X54100000Y38975001D03*
X54900000Y39375001D03*
X54500000Y39375001D03*
X54100000Y39375001D03*
%TD*%
%TO.C,U49*%
X97700000Y50175000D03*
X98100000Y50175000D03*
X98500000Y50175000D03*
X97700000Y49775000D03*
X98100000Y49775000D03*
X98500000Y49775000D03*
X97700000Y49375000D03*
X98100000Y49375000D03*
X98500000Y49375000D03*
%TD*%
%TO.C,U20*%
X25100000Y32175000D03*
X25500000Y32175000D03*
X25900000Y32175000D03*
X25100000Y31775000D03*
X25500000Y31775000D03*
X25900000Y31775000D03*
X25100000Y31375000D03*
X25500000Y31375000D03*
X25900000Y31375000D03*
%TD*%
%TO.C,U9*%
X27700000Y50175000D03*
X28100000Y50175000D03*
X28500000Y50175000D03*
X27700000Y49775000D03*
X28100000Y49775000D03*
X28500000Y49775000D03*
X27700000Y49375000D03*
X28100000Y49375000D03*
X28500000Y49375000D03*
%TD*%
%TO.C,U73*%
X122300000Y42175001D03*
X121900000Y42175001D03*
X121500000Y42175001D03*
X122300000Y42575001D03*
X121900000Y42575001D03*
X121500000Y42575001D03*
X122300000Y42975001D03*
X121900000Y42975001D03*
X121500000Y42975001D03*
%TD*%
%TO.C,U5*%
X25100000Y53800000D03*
X25500000Y53800000D03*
X25900000Y53800000D03*
X25100000Y53400000D03*
X25500000Y53400000D03*
X25900000Y53400000D03*
X25100000Y53000000D03*
X25500000Y53000000D03*
X25900000Y53000000D03*
%TD*%
%TO.C,U25*%
X52300000Y53000000D03*
X51900000Y53000000D03*
X51500000Y53000000D03*
X52300000Y53400000D03*
X51900000Y53400000D03*
X51500000Y53400000D03*
X52300000Y53800000D03*
X51900000Y53800000D03*
X51500000Y53800000D03*
%TD*%
%TO.C,U43*%
X95100000Y57400000D03*
X95500000Y57400000D03*
X95900000Y57400000D03*
X95100000Y57000000D03*
X95500000Y57000000D03*
X95900000Y57000000D03*
X95100000Y56600000D03*
X95500000Y56600000D03*
X95900000Y56600000D03*
%TD*%
%TO.C,U33*%
X52300000Y42175001D03*
X51900000Y42175001D03*
X51500000Y42175001D03*
X52300000Y42575001D03*
X51900000Y42575001D03*
X51500000Y42575001D03*
X52300000Y42975001D03*
X51900000Y42975001D03*
X51500000Y42975001D03*
%TD*%
%TO.C,U54*%
X97700000Y42975000D03*
X98100000Y42975000D03*
X98500000Y42975000D03*
X97700000Y42575000D03*
X98100000Y42575000D03*
X98500000Y42575000D03*
X97700000Y42175000D03*
X98100000Y42175000D03*
X98500000Y42175000D03*
%TD*%
%TO.C,U53*%
X95100000Y42975000D03*
X95500000Y42975000D03*
X95900000Y42975000D03*
X95100000Y42575000D03*
X95500000Y42575000D03*
X95900000Y42575000D03*
X95100000Y42175000D03*
X95500000Y42175000D03*
X95900000Y42175000D03*
%TD*%
%TO.C,U41*%
X54900000Y31375001D03*
X54500000Y31375001D03*
X54100000Y31375001D03*
X54900000Y31775001D03*
X54500000Y31775001D03*
X54100000Y31775001D03*
X54900000Y32175001D03*
X54500000Y32175001D03*
X54100000Y32175001D03*
%TD*%
%TO.C,U59*%
X97700000Y35775000D03*
X98100000Y35775000D03*
X98500000Y35775000D03*
X97700000Y35375000D03*
X98100000Y35375000D03*
X98500000Y35375000D03*
X97700000Y34975000D03*
X98100000Y34975000D03*
X98500000Y34975000D03*
%TD*%
%TO.C,U55*%
X95100000Y39375000D03*
X95500000Y39375000D03*
X95900000Y39375000D03*
X95100000Y38975000D03*
X95500000Y38975000D03*
X95900000Y38975000D03*
X95100000Y38575000D03*
X95500000Y38575000D03*
X95900000Y38575000D03*
%TD*%
%TO.C,U38*%
X52300000Y34975001D03*
X51900000Y34975001D03*
X51500000Y34975001D03*
X52300000Y35375001D03*
X51900000Y35375001D03*
X51500000Y35375001D03*
X52300000Y35775001D03*
X51900000Y35775001D03*
X51500000Y35775001D03*
%TD*%
%TO.C,U6*%
X27700000Y53800000D03*
X28100000Y53800000D03*
X28500000Y53800000D03*
X27700000Y53400000D03*
X28100000Y53400000D03*
X28500000Y53400000D03*
X27700000Y53000000D03*
X28100000Y53000000D03*
X28500000Y53000000D03*
%TD*%
%TO.C,U31*%
X54900000Y45775001D03*
X54500000Y45775001D03*
X54100000Y45775001D03*
X54900000Y46175001D03*
X54500000Y46175001D03*
X54100000Y46175001D03*
X54900000Y46575001D03*
X54500000Y46575001D03*
X54100000Y46575001D03*
%TD*%
%TO.C,U69*%
X124900000Y49375001D03*
X124500000Y49375001D03*
X124100000Y49375001D03*
X124900000Y49775001D03*
X124500000Y49775001D03*
X124100000Y49775001D03*
X124900000Y50175001D03*
X124500000Y50175001D03*
X124100000Y50175001D03*
%TD*%
%TO.C,U8*%
X25100000Y50175000D03*
X25500000Y50175000D03*
X25900000Y50175000D03*
X25100000Y49775000D03*
X25500000Y49775000D03*
X25900000Y49775000D03*
X25100000Y49375000D03*
X25500000Y49375000D03*
X25900000Y49375000D03*
%TD*%
%TO.C,U70*%
X122300000Y45775001D03*
X121900000Y45775001D03*
X121500000Y45775001D03*
X122300000Y46175001D03*
X121900000Y46175001D03*
X121500000Y46175001D03*
X122300000Y46575001D03*
X121900000Y46575001D03*
X121500000Y46575001D03*
%TD*%
%TO.C,U50*%
X95100000Y46575000D03*
X95500000Y46575000D03*
X95900000Y46575000D03*
X95100000Y46175000D03*
X95500000Y46175000D03*
X95900000Y46175000D03*
X95100000Y45775000D03*
X95500000Y45775000D03*
X95900000Y45775000D03*
%TD*%
%TO.C,U71*%
X124900000Y45775001D03*
X124500000Y45775001D03*
X124100000Y45775001D03*
X124900000Y46175001D03*
X124500000Y46175001D03*
X124100000Y46175001D03*
X124900000Y46575001D03*
X124500000Y46575001D03*
X124100000Y46575001D03*
%TD*%
%TO.C,U13*%
X25100000Y42975000D03*
X25500000Y42975000D03*
X25900000Y42975000D03*
X25100000Y42575000D03*
X25500000Y42575000D03*
X25900000Y42575000D03*
X25100000Y42175000D03*
X25500000Y42175000D03*
X25900000Y42175000D03*
%TD*%
%TO.C,U35*%
X52300000Y38575001D03*
X51900000Y38575001D03*
X51500000Y38575001D03*
X52300000Y38975001D03*
X51900000Y38975001D03*
X51500000Y38975001D03*
X52300000Y39375001D03*
X51900000Y39375001D03*
X51500000Y39375001D03*
%TD*%
%TO.C,U11*%
X27700000Y46575000D03*
X28100000Y46575000D03*
X28500000Y46575000D03*
X27700000Y46175000D03*
X28100000Y46175000D03*
X28500000Y46175000D03*
X27700000Y45775000D03*
X28100000Y45775000D03*
X28500000Y45775000D03*
%TD*%
%TO.C,U60*%
X95100000Y32175000D03*
X95500000Y32175000D03*
X95900000Y32175000D03*
X95100000Y31775000D03*
X95500000Y31775000D03*
X95900000Y31775000D03*
X95100000Y31375000D03*
X95500000Y31375000D03*
X95900000Y31375000D03*
%TD*%
%TO.C,U18*%
X25100000Y35775000D03*
X25500000Y35775000D03*
X25900000Y35775000D03*
X25100000Y35375000D03*
X25500000Y35375000D03*
X25900000Y35375000D03*
X25100000Y34975000D03*
X25500000Y34975000D03*
X25900000Y34975000D03*
%TD*%
%TO.C,U26*%
X54900000Y53000000D03*
X54500000Y53000000D03*
X54100000Y53000000D03*
X54900000Y53400000D03*
X54500000Y53400000D03*
X54100000Y53400000D03*
X54900000Y53800000D03*
X54500000Y53800000D03*
X54100000Y53800000D03*
%TD*%
%TO.C,U45*%
X95100000Y53800000D03*
X95500000Y53800000D03*
X95900000Y53800000D03*
X95100000Y53400000D03*
X95500000Y53400000D03*
X95900000Y53400000D03*
X95100000Y53000000D03*
X95500000Y53000000D03*
X95900000Y53000000D03*
%TD*%
%TO.C,U48*%
X95100000Y50175000D03*
X95500000Y50175000D03*
X95900000Y50175000D03*
X95100000Y49775000D03*
X95500000Y49775000D03*
X95900000Y49775000D03*
X95100000Y49375000D03*
X95500000Y49375000D03*
X95900000Y49375000D03*
%TD*%
%TO.C,U84*%
X16000000Y82350000D03*
X16000000Y81950000D03*
X16000000Y81550000D03*
X15600000Y82350000D03*
X15600000Y81950000D03*
X15600000Y81550000D03*
X15200000Y82350000D03*
X15200000Y81950000D03*
X15200000Y81550000D03*
%TD*%
%TO.C,U28*%
X52300000Y49375001D03*
X51900000Y49375001D03*
X51500000Y49375001D03*
X52300000Y49775001D03*
X51900000Y49775001D03*
X51500000Y49775001D03*
X52300000Y50175001D03*
X51900000Y50175001D03*
X51500000Y50175001D03*
%TD*%
%TO.C,U23*%
X52300000Y56600000D03*
X51900000Y56600000D03*
X51500000Y56600000D03*
X52300000Y57000000D03*
X51900000Y57000000D03*
X51500000Y57000000D03*
X52300000Y57400000D03*
X51900000Y57400000D03*
X51500000Y57400000D03*
%TD*%
%TO.C,U29*%
X54900000Y49375001D03*
X54500000Y49375001D03*
X54100000Y49375001D03*
X54900000Y49775001D03*
X54500000Y49775001D03*
X54100000Y49775001D03*
X54900000Y50175001D03*
X54500000Y50175001D03*
X54100000Y50175001D03*
%TD*%
%TO.C,U65*%
X122300000Y53000000D03*
X121900000Y53000000D03*
X121500000Y53000000D03*
X122300000Y53400000D03*
X121900000Y53400000D03*
X121500000Y53400000D03*
X122300000Y53800000D03*
X121900000Y53800000D03*
X121500000Y53800000D03*
%TD*%
%TO.C,U44*%
X97700000Y57400000D03*
X98100000Y57400000D03*
X98500000Y57400000D03*
X97700000Y57000000D03*
X98100000Y57000000D03*
X98500000Y57000000D03*
X97700000Y56600000D03*
X98100000Y56600000D03*
X98500000Y56600000D03*
%TD*%
%TO.C,U79*%
X124900000Y34975001D03*
X124500000Y34975001D03*
X124100000Y34975001D03*
X124900000Y35375001D03*
X124500000Y35375001D03*
X124100000Y35375001D03*
X124900000Y35775001D03*
X124500000Y35775001D03*
X124100000Y35775001D03*
%TD*%
%TO.C,U34*%
X54900000Y42175001D03*
X54500000Y42175001D03*
X54100000Y42175001D03*
X54900000Y42575001D03*
X54500000Y42575001D03*
X54100000Y42575001D03*
X54900000Y42975001D03*
X54500000Y42975001D03*
X54100000Y42975001D03*
%TD*%
%TO.C,U15*%
X25100000Y39375000D03*
X25500000Y39375000D03*
X25900000Y39375000D03*
X25100000Y38975000D03*
X25500000Y38975000D03*
X25900000Y38975000D03*
X25100000Y38575000D03*
X25500000Y38575000D03*
X25900000Y38575000D03*
%TD*%
%TO.C,U40*%
X52300000Y31375001D03*
X51900000Y31375001D03*
X51500000Y31375001D03*
X52300000Y31775001D03*
X51900000Y31775001D03*
X51500000Y31775001D03*
X52300000Y32175001D03*
X51900000Y32175001D03*
X51500000Y32175001D03*
%TD*%
%TO.C,U21*%
X27700000Y32175000D03*
X28100000Y32175000D03*
X28500000Y32175000D03*
X27700000Y31775000D03*
X28100000Y31775000D03*
X28500000Y31775000D03*
X27700000Y31375000D03*
X28100000Y31375000D03*
X28500000Y31375000D03*
%TD*%
%TO.C,U3*%
X25100000Y57400000D03*
X25500000Y57400000D03*
X25900000Y57400000D03*
X25100000Y57000000D03*
X25500000Y57000000D03*
X25900000Y57000000D03*
X25100000Y56600000D03*
X25500000Y56600000D03*
X25900000Y56600000D03*
%TD*%
%TO.C,U80*%
X122300000Y31375001D03*
X121900000Y31375001D03*
X121500000Y31375001D03*
X122300000Y31775001D03*
X121900000Y31775001D03*
X121500000Y31775001D03*
X122300000Y32175001D03*
X121900000Y32175001D03*
X121500000Y32175001D03*
%TD*%
%TO.C,U46*%
X97700000Y53800000D03*
X98100000Y53800000D03*
X98500000Y53800000D03*
X97700000Y53400000D03*
X98100000Y53400000D03*
X98500000Y53400000D03*
X97700000Y53000000D03*
X98100000Y53000000D03*
X98500000Y53000000D03*
%TD*%
%TO.C,U10*%
X25100000Y46575000D03*
X25500000Y46575000D03*
X25900000Y46575000D03*
X25100000Y46175000D03*
X25500000Y46175000D03*
X25900000Y46175000D03*
X25100000Y45775000D03*
X25500000Y45775000D03*
X25900000Y45775000D03*
%TD*%
%TO.C,U81*%
X124900000Y31375001D03*
X124500000Y31375001D03*
X124100000Y31375001D03*
X124900000Y31775001D03*
X124500000Y31775001D03*
X124100000Y31775001D03*
X124900000Y32175001D03*
X124500000Y32175001D03*
X124100000Y32175001D03*
%TD*%
%TO.C,U74*%
X124900000Y42175001D03*
X124500000Y42175001D03*
X124100000Y42175001D03*
X124900000Y42575001D03*
X124500000Y42575001D03*
X124100000Y42575001D03*
X124900000Y42975001D03*
X124500000Y42975001D03*
X124100000Y42975001D03*
%TD*%
%TO.C,U24*%
X54900000Y56600000D03*
X54500000Y56600000D03*
X54100000Y56600000D03*
X54900000Y57000000D03*
X54500000Y57000000D03*
X54100000Y57000000D03*
X54900000Y57400000D03*
X54500000Y57400000D03*
X54100000Y57400000D03*
%TD*%
%TO.C,U19*%
X27700000Y35775000D03*
X28100000Y35775000D03*
X28500000Y35775000D03*
X27700000Y35375000D03*
X28100000Y35375000D03*
X28500000Y35375000D03*
X27700000Y34975000D03*
X28100000Y34975000D03*
X28500000Y34975000D03*
%TD*%
%TO.C,U61*%
X97700000Y32175000D03*
X98100000Y32175000D03*
X98500000Y32175000D03*
X97700000Y31775000D03*
X98100000Y31775000D03*
X98500000Y31775000D03*
X97700000Y31375000D03*
X98100000Y31375000D03*
X98500000Y31375000D03*
%TD*%
%TO.C,U51*%
X97700000Y46575000D03*
X98100000Y46575000D03*
X98500000Y46575000D03*
X97700000Y46175000D03*
X98100000Y46175000D03*
X98500000Y46175000D03*
X97700000Y45775000D03*
X98100000Y45775000D03*
X98500000Y45775000D03*
%TD*%
%TO.C,U16*%
X27700000Y39375000D03*
X28100000Y39375000D03*
X28500000Y39375000D03*
X27700000Y38975000D03*
X28100000Y38975000D03*
X28500000Y38975000D03*
X27700000Y38575000D03*
X28100000Y38575000D03*
X28500000Y38575000D03*
%TD*%
%TO.C,U4*%
X27700000Y57400000D03*
X28100000Y57400000D03*
X28500000Y57400000D03*
X27700000Y57000000D03*
X28100000Y57000000D03*
X28500000Y57000000D03*
X27700000Y56600000D03*
X28100000Y56600000D03*
X28500000Y56600000D03*
%TD*%
%TO.C,U14*%
X27700000Y42975000D03*
X28100000Y42975000D03*
X28500000Y42975000D03*
X27700000Y42575000D03*
X28100000Y42575000D03*
X28500000Y42575000D03*
X27700000Y42175000D03*
X28100000Y42175000D03*
X28500000Y42175000D03*
%TD*%
%TO.C,U64*%
X124900000Y56600000D03*
X124500000Y56600000D03*
X124100000Y56600000D03*
X124900000Y57000000D03*
X124500000Y57000000D03*
X124100000Y57000000D03*
X124900000Y57400000D03*
X124500000Y57400000D03*
X124100000Y57400000D03*
%TD*%
%TO.C,U68*%
X122300000Y49375001D03*
X121900000Y49375001D03*
X121500000Y49375001D03*
X122300000Y49775001D03*
X121900000Y49775001D03*
X121500000Y49775001D03*
X122300000Y50175001D03*
X121900000Y50175001D03*
X121500000Y50175001D03*
%TD*%
%TO.C,U78*%
X122300000Y34975001D03*
X121900000Y34975001D03*
X121500000Y34975001D03*
X122300000Y35375001D03*
X121900000Y35375001D03*
X121500000Y35375001D03*
X122300000Y35775001D03*
X121900000Y35775001D03*
X121500000Y35775001D03*
%TD*%
%TO.C,U58*%
X95100000Y35775000D03*
X95500000Y35775000D03*
X95900000Y35775000D03*
X95100000Y35375000D03*
X95500000Y35375000D03*
X95900000Y35375000D03*
X95100000Y34975000D03*
X95500000Y34975000D03*
X95900000Y34975000D03*
%TD*%
D14*
%TO.C,R106*%
X49330000Y45200000D03*
X48310000Y45200000D03*
%TD*%
%TO.C,R132*%
X47330000Y32400000D03*
X46310000Y32400000D03*
%TD*%
D15*
%TO.C,R43*%
X32670000Y43600000D03*
X33690000Y43600000D03*
%TD*%
D16*
%TO.C,C85*%
X133955000Y51524999D03*
X132995000Y51524999D03*
%TD*%
D17*
%TO.C,R272*%
X75900000Y109650000D03*
X75900000Y108630000D03*
%TD*%
D14*
%TO.C,R220*%
X117330000Y50000000D03*
X116310000Y50000000D03*
%TD*%
D18*
%TO.C,C65*%
X86045000Y44625000D03*
X87005000Y44625000D03*
%TD*%
D19*
%TO.C,C3*%
X36800000Y70980000D03*
X36800000Y70020000D03*
%TD*%
D14*
%TO.C,R98*%
X49340000Y48400000D03*
X48320000Y48400000D03*
%TD*%
D20*
%TO.C,U72*%
X128212500Y50299999D03*
X128212500Y49649999D03*
X128212500Y48999999D03*
X128212500Y48349999D03*
X128212500Y47699999D03*
X128212500Y47049999D03*
X128212500Y46399999D03*
X128212500Y45749999D03*
X133937500Y45749999D03*
X133937500Y46399999D03*
X133937500Y47049999D03*
X133937500Y47699999D03*
X133937500Y48349999D03*
X133937500Y48999999D03*
X133937500Y49649999D03*
X133937500Y50299999D03*
%TD*%
D15*
%TO.C,R27*%
X32670000Y50800000D03*
X33690000Y50800000D03*
%TD*%
D14*
%TO.C,R124*%
X47330000Y35600000D03*
X46310000Y35600000D03*
%TD*%
%TO.C,R256*%
X119330000Y35600000D03*
X118310000Y35600000D03*
%TD*%
D15*
%TO.C,R47*%
X30670000Y43600000D03*
X31690000Y43600000D03*
%TD*%
D14*
%TO.C,R273*%
X73570000Y109500000D03*
X72550000Y109500000D03*
%TD*%
%TO.C,R224*%
X119330000Y50000000D03*
X118310000Y50000000D03*
%TD*%
D15*
%TO.C,R175*%
X100670000Y43600000D03*
X101690000Y43600000D03*
%TD*%
D17*
%TO.C,R290*%
X114000000Y90510000D03*
X114000000Y89490000D03*
%TD*%
D14*
%TO.C,R112*%
X49330000Y42800000D03*
X48310000Y42800000D03*
%TD*%
%TO.C,R210*%
X119340000Y55600000D03*
X118320000Y55600000D03*
%TD*%
D21*
%TO.C,R278*%
X77162500Y94825000D03*
X78812500Y94825000D03*
%TD*%
D19*
%TO.C,C102*%
X20150000Y84190000D03*
X20150000Y83230000D03*
%TD*%
D22*
%TO.C,D1*%
X19350000Y102000000D03*
X22650000Y102000000D03*
%TD*%
D20*
%TO.C,U32*%
X58212500Y50275000D03*
X58212500Y49625000D03*
X58212500Y48975000D03*
X58212500Y48325000D03*
X58212500Y47675000D03*
X58212500Y47025000D03*
X58212500Y46375000D03*
X58212500Y45725000D03*
X63937500Y45725000D03*
X63937500Y46375000D03*
X63937500Y47025000D03*
X63937500Y47675000D03*
X63937500Y48325000D03*
X63937500Y48975000D03*
X63937500Y49625000D03*
X63937500Y50275000D03*
%TD*%
D23*
%TO.C,RN1*%
X16450000Y85642500D03*
D24*
X16450000Y86512500D03*
X16450000Y87312500D03*
D23*
X16450000Y88182500D03*
X15050000Y88182500D03*
D24*
X15050000Y87312500D03*
X15050000Y86512500D03*
D23*
X15050000Y85642500D03*
%TD*%
D15*
%TO.C,R165*%
X102670000Y46000000D03*
X103690000Y46000000D03*
%TD*%
D25*
%TO.C,C113*%
X84400000Y100925000D03*
X84400000Y103875000D03*
%TD*%
D16*
%TO.C,C50*%
X63967500Y44325000D03*
X63007500Y44325000D03*
%TD*%
D14*
%TO.C,R222*%
X117330000Y48400000D03*
X116310000Y48400000D03*
%TD*%
%TO.C,R136*%
X49330000Y32400000D03*
X48310000Y32400000D03*
%TD*%
%TO.C,R258*%
X119340000Y34000000D03*
X118320000Y34000000D03*
%TD*%
D26*
%TO.C,C117*%
X111675000Y101250000D03*
X110125000Y101250000D03*
%TD*%
D27*
%TO.C,D4*%
X75850000Y111470000D03*
X75350000Y111470000D03*
X74850000Y111470000D03*
X74350000Y111470000D03*
X73850000Y111470000D03*
X73850000Y110700000D03*
X74350000Y110700000D03*
X74850000Y110700000D03*
X75350000Y110700000D03*
X75850000Y110700000D03*
%TD*%
D28*
%TO.C,C105*%
X23125000Y81400000D03*
X26075000Y81400000D03*
%TD*%
D29*
%TO.C,C14*%
X39849999Y85520000D03*
X39849999Y86480000D03*
%TD*%
D17*
%TO.C,R279*%
X85200000Y111410000D03*
X85200000Y110390000D03*
%TD*%
D19*
%TO.C,C5*%
X41050000Y74480000D03*
X41050000Y73520000D03*
%TD*%
D14*
%TO.C,R76*%
X47330000Y57200000D03*
X46310000Y57200000D03*
%TD*%
D15*
%TO.C,R63*%
X30670000Y36400000D03*
X31690000Y36400000D03*
%TD*%
D30*
%TO.C,J4*%
X113086000Y59600000D03*
X106914000Y59600000D03*
X113086000Y58800000D03*
X106914000Y58800000D03*
X113086000Y58000000D03*
X106914000Y58000000D03*
X113086000Y57200000D03*
X106914000Y57200000D03*
X113086000Y56400000D03*
X106914000Y56400000D03*
X113086000Y55600000D03*
X106914000Y55600000D03*
X113086000Y54800000D03*
X106914000Y54800000D03*
X113086000Y54000000D03*
X106914000Y54000000D03*
X113086000Y53200000D03*
X106914000Y53200000D03*
X113086000Y52400000D03*
X106914000Y52400000D03*
X113086000Y51600000D03*
X106914000Y51600000D03*
X113086000Y50800000D03*
X106914000Y50800000D03*
X113086000Y50000000D03*
X106914000Y50000000D03*
X113086000Y49200000D03*
X106914000Y49200000D03*
X113086000Y48400000D03*
X106914000Y48400000D03*
X113086000Y47600000D03*
X106914000Y47600000D03*
X113086000Y46800000D03*
X106914000Y46800000D03*
X113086000Y46000000D03*
X106914000Y46000000D03*
X113086000Y45200000D03*
X106914000Y45200000D03*
X113086000Y44400000D03*
X106914000Y44400000D03*
X113086000Y43600000D03*
X106914000Y43600000D03*
X113086000Y42800000D03*
X106914000Y42800000D03*
X113086000Y42000000D03*
X106914000Y42000000D03*
X113086000Y41200000D03*
X106914000Y41200000D03*
X113086000Y40400000D03*
X106914000Y40400000D03*
X113086000Y39600000D03*
X106914000Y39600000D03*
X113086000Y38800000D03*
X106914000Y38800000D03*
X113086000Y38000000D03*
X106914000Y38000000D03*
X113086000Y37200000D03*
X106914000Y37200000D03*
X113086000Y36400000D03*
X106914000Y36400000D03*
X113086000Y35600000D03*
X106914000Y35600000D03*
X113086000Y34800000D03*
X106914000Y34800000D03*
X113086000Y34000000D03*
X106914000Y34000000D03*
X113086000Y33200000D03*
X106914000Y33200000D03*
X113086000Y32400000D03*
X106914000Y32400000D03*
X113086000Y31600000D03*
X106914000Y31600000D03*
X113086000Y30800000D03*
X106914000Y30800000D03*
X113086000Y30000000D03*
X106914000Y30000000D03*
X113086000Y29200000D03*
X106914000Y29200000D03*
X113086000Y28400000D03*
X106914000Y28400000D03*
%TD*%
D15*
%TO.C,R51*%
X32670000Y40400000D03*
X33690000Y40400000D03*
%TD*%
D14*
%TO.C,R242*%
X119340000Y41200000D03*
X118320000Y41200000D03*
%TD*%
D18*
%TO.C,C106*%
X23009000Y83193500D03*
X23969000Y83193500D03*
%TD*%
D14*
%TO.C,R214*%
X117330000Y52400000D03*
X116310000Y52400000D03*
%TD*%
D31*
%TO.C,Q1*%
X76350000Y100337500D03*
X74450000Y100337500D03*
X75400000Y98462500D03*
%TD*%
D17*
%TO.C,R288*%
X103650000Y100460000D03*
X103650000Y99440000D03*
%TD*%
D32*
%TO.C,C15*%
X45299999Y84325000D03*
X45299999Y85875000D03*
%TD*%
D18*
%TO.C,C116*%
X121490000Y93196250D03*
X122450000Y93196250D03*
%TD*%
D15*
%TO.C,R37*%
X32670000Y46000000D03*
X33690000Y46000000D03*
%TD*%
D18*
%TO.C,C11*%
X44490000Y82100000D03*
X45450000Y82100000D03*
%TD*%
D14*
%TO.C,R134*%
X47330000Y30800000D03*
X46310000Y30800000D03*
%TD*%
%TO.C,R232*%
X119330000Y46800000D03*
X118310000Y46800000D03*
%TD*%
%TO.C,R204*%
X117330000Y57200000D03*
X116310000Y57200000D03*
%TD*%
D18*
%TO.C,C118*%
X121490000Y83796250D03*
X122450000Y83796250D03*
%TD*%
D15*
%TO.C,R67*%
X32670000Y33200000D03*
X33690000Y33200000D03*
%TD*%
D19*
%TO.C,C99*%
X14050000Y82280000D03*
X14050000Y81320000D03*
%TD*%
D18*
%TO.C,C70*%
X86045000Y37425000D03*
X87005000Y37425000D03*
%TD*%
D25*
%TO.C,C121*%
X104700000Y104725000D03*
X104700000Y107675000D03*
%TD*%
D14*
%TO.C,R80*%
X49330000Y57200000D03*
X48310000Y57200000D03*
%TD*%
D33*
%TO.C,C123*%
X102375000Y106750000D03*
X99425000Y106750000D03*
%TD*%
D15*
%TO.C,R35*%
X32670000Y47600000D03*
X33690000Y47600000D03*
%TD*%
D34*
%TO.C,J2*%
X74075000Y74100000D03*
X74075000Y75100000D03*
X74075000Y76100000D03*
D35*
X71550000Y72800000D03*
X71550000Y77400000D03*
%TD*%
D15*
%TO.C,R161*%
X100670000Y49200000D03*
X101690000Y49200000D03*
%TD*%
D18*
%TO.C,C10*%
X45520000Y78500000D03*
X46480000Y78500000D03*
%TD*%
D15*
%TO.C,R286*%
X121400000Y86446250D03*
X122420000Y86446250D03*
%TD*%
D36*
%TO.C,U17*%
X21787500Y38525000D03*
X21787500Y39175000D03*
X21787500Y39825000D03*
X21787500Y40475000D03*
X21787500Y41125000D03*
X21787500Y41775000D03*
X21787500Y42425000D03*
X21787500Y43075000D03*
X16062500Y43075000D03*
X16062500Y42425000D03*
X16062500Y41775000D03*
X16062500Y41125000D03*
X16062500Y40475000D03*
X16062500Y39825000D03*
X16062500Y39175000D03*
X16062500Y38525000D03*
%TD*%
D15*
%TO.C,R9*%
X32240000Y82300000D03*
X33260000Y82300000D03*
%TD*%
D37*
%TO.C,Q4*%
X105137500Y97612500D03*
X107037500Y97612500D03*
X106087500Y99487500D03*
%TD*%
D38*
%TO.C,R2*%
X29150000Y84890000D03*
X29150000Y85910000D03*
%TD*%
D14*
%TO.C,R116*%
X47330000Y39600000D03*
X46310000Y39600000D03*
%TD*%
D29*
%TO.C,C6*%
X38930000Y85520000D03*
X38930000Y86480000D03*
%TD*%
D20*
%TO.C,U37*%
X58212500Y43075000D03*
X58212500Y42425000D03*
X58212500Y41775000D03*
X58212500Y41125000D03*
X58212500Y40475000D03*
X58212500Y39825000D03*
X58212500Y39175000D03*
X58212500Y38525000D03*
X63937500Y38525000D03*
X63937500Y39175000D03*
X63937500Y39825000D03*
X63937500Y40475000D03*
X63937500Y41125000D03*
X63937500Y41775000D03*
X63937500Y42425000D03*
X63937500Y43075000D03*
%TD*%
D14*
%TO.C,R228*%
X117330000Y46800000D03*
X116310000Y46800000D03*
%TD*%
D15*
%TO.C,R23*%
X30670000Y54800000D03*
X31690000Y54800000D03*
%TD*%
D30*
%TO.C,J3*%
X43086000Y59600000D03*
X36914000Y59600000D03*
X43086000Y58800000D03*
X36914000Y58800000D03*
X43086000Y58000000D03*
X36914000Y58000000D03*
X43086000Y57200000D03*
X36914000Y57200000D03*
X43086000Y56400000D03*
X36914000Y56400000D03*
X43086000Y55600000D03*
X36914000Y55600000D03*
X43086000Y54800000D03*
X36914000Y54800000D03*
X43086000Y54000000D03*
X36914000Y54000000D03*
X43086000Y53200000D03*
X36914000Y53200000D03*
X43086000Y52400000D03*
X36914000Y52400000D03*
X43086000Y51600000D03*
X36914000Y51600000D03*
X43086000Y50800000D03*
X36914000Y50800000D03*
X43086000Y50000000D03*
X36914000Y50000000D03*
X43086000Y49200000D03*
X36914000Y49200000D03*
X43086000Y48400000D03*
X36914000Y48400000D03*
X43086000Y47600000D03*
X36914000Y47600000D03*
X43086000Y46800000D03*
X36914000Y46800000D03*
X43086000Y46000000D03*
X36914000Y46000000D03*
X43086000Y45200000D03*
X36914000Y45200000D03*
X43086000Y44400000D03*
X36914000Y44400000D03*
X43086000Y43600000D03*
X36914000Y43600000D03*
X43086000Y42800000D03*
X36914000Y42800000D03*
X43086000Y42000000D03*
X36914000Y42000000D03*
X43086000Y41200000D03*
X36914000Y41200000D03*
X43086000Y40400000D03*
X36914000Y40400000D03*
X43086000Y39600000D03*
X36914000Y39600000D03*
X43086000Y38800000D03*
X36914000Y38800000D03*
X43086000Y38000000D03*
X36914000Y38000000D03*
X43086000Y37200000D03*
X36914000Y37200000D03*
X43086000Y36400000D03*
X36914000Y36400000D03*
X43086000Y35600000D03*
X36914000Y35600000D03*
X43086000Y34800000D03*
X36914000Y34800000D03*
X43086000Y34000000D03*
X36914000Y34000000D03*
X43086000Y33200000D03*
X36914000Y33200000D03*
X43086000Y32400000D03*
X36914000Y32400000D03*
X43086000Y31600000D03*
X36914000Y31600000D03*
X43086000Y30800000D03*
X36914000Y30800000D03*
X43086000Y30000000D03*
X36914000Y30000000D03*
X43086000Y29200000D03*
X36914000Y29200000D03*
X43086000Y28400000D03*
X36914000Y28400000D03*
%TD*%
D16*
%TO.C,C90*%
X133955000Y44324999D03*
X132995000Y44324999D03*
%TD*%
D15*
%TO.C,R159*%
X100670000Y50800000D03*
X101690000Y50800000D03*
%TD*%
D36*
%TO.C,U7*%
X21787500Y52950000D03*
X21787500Y53600000D03*
X21787500Y54250000D03*
X21787500Y54900000D03*
X21787500Y55550000D03*
X21787500Y56200000D03*
X21787500Y56850000D03*
X21787500Y57500000D03*
X16062500Y57500000D03*
X16062500Y56850000D03*
X16062500Y56200000D03*
X16062500Y55550000D03*
X16062500Y54900000D03*
X16062500Y54250000D03*
X16062500Y53600000D03*
X16062500Y52950000D03*
%TD*%
D15*
%TO.C,R149*%
X102670000Y53200000D03*
X103690000Y53200000D03*
%TD*%
D14*
%TO.C,R270*%
X76510000Y105500000D03*
X75490000Y105500000D03*
%TD*%
D16*
%TO.C,C112*%
X69980000Y101700000D03*
X69020000Y101700000D03*
%TD*%
D15*
%TO.C,R11*%
X32670000Y58000000D03*
X33690000Y58000000D03*
%TD*%
D14*
%TO.C,R262*%
X117330000Y30800000D03*
X116310000Y30800000D03*
%TD*%
D29*
%TO.C,C104*%
X23520000Y90620500D03*
X23520000Y91580500D03*
%TD*%
D20*
%TO.C,U42*%
X58212500Y35875000D03*
X58212500Y35225000D03*
X58212500Y34575000D03*
X58212500Y33925000D03*
X58212500Y33275000D03*
X58212500Y32625000D03*
X58212500Y31975000D03*
X58212500Y31325000D03*
X63937500Y31325000D03*
X63937500Y31975000D03*
X63937500Y32625000D03*
X63937500Y33275000D03*
X63937500Y33925000D03*
X63937500Y34575000D03*
X63937500Y35225000D03*
X63937500Y35875000D03*
%TD*%
D29*
%TO.C,C1*%
X30910000Y95020000D03*
X30910000Y95980000D03*
%TD*%
D39*
%TO.C,D6*%
X79310000Y104790000D03*
X79310000Y108090000D03*
%TD*%
D40*
%TO.C,SW2*%
X42900000Y105600000D03*
X42900000Y96500000D03*
X38400000Y105600000D03*
X38400000Y96500000D03*
%TD*%
D15*
%TO.C,R69*%
X32670000Y31600000D03*
X33690000Y31600000D03*
%TD*%
%TO.C,R21*%
X32670000Y53200000D03*
X33690000Y53200000D03*
%TD*%
D14*
%TO.C,R7*%
X43460000Y72400000D03*
X42440000Y72400000D03*
%TD*%
D15*
%TO.C,R177*%
X100670000Y42000000D03*
X101690000Y42000000D03*
%TD*%
D36*
%TO.C,U57*%
X91787500Y38550000D03*
X91787500Y39200000D03*
X91787500Y39850000D03*
X91787500Y40500000D03*
X91787500Y41150000D03*
X91787500Y41800000D03*
X91787500Y42450000D03*
X91787500Y43100000D03*
X86062500Y43100000D03*
X86062500Y42450000D03*
X86062500Y41800000D03*
X86062500Y41150000D03*
X86062500Y40500000D03*
X86062500Y39850000D03*
X86062500Y39200000D03*
X86062500Y38550000D03*
%TD*%
D32*
%TO.C,C110*%
X70600000Y92087500D03*
X70600000Y93637500D03*
%TD*%
D25*
%TO.C,C100*%
X60450000Y101625000D03*
X60450000Y104575000D03*
%TD*%
D41*
%TO.C,U92*%
X81997500Y98825000D03*
X81997500Y99775000D03*
X81997500Y100725000D03*
X79722500Y100725000D03*
X79722500Y98825000D03*
%TD*%
D36*
%TO.C,U52*%
X91787500Y45750000D03*
X91787500Y46400000D03*
X91787500Y47050000D03*
X91787500Y47700000D03*
X91787500Y48350000D03*
X91787500Y49000000D03*
X91787500Y49650000D03*
X91787500Y50300000D03*
X86062500Y50300000D03*
X86062500Y49650000D03*
X86062500Y49000000D03*
X86062500Y48350000D03*
X86062500Y47700000D03*
X86062500Y47050000D03*
X86062500Y46400000D03*
X86062500Y45750000D03*
%TD*%
D17*
%TO.C,R280*%
X78000000Y99810000D03*
X78000000Y98790000D03*
%TD*%
D18*
%TO.C,C20*%
X16020000Y51900000D03*
X16980000Y51900000D03*
%TD*%
D36*
%TO.C,U12*%
X21787500Y45725000D03*
X21787500Y46375000D03*
X21787500Y47025000D03*
X21787500Y47675000D03*
X21787500Y48325000D03*
X21787500Y48975000D03*
X21787500Y49625000D03*
X21787500Y50275000D03*
X16062500Y50275000D03*
X16062500Y49625000D03*
X16062500Y48975000D03*
X16062500Y48325000D03*
X16062500Y47675000D03*
X16062500Y47025000D03*
X16062500Y46375000D03*
X16062500Y45725000D03*
%TD*%
D15*
%TO.C,R169*%
X100670000Y46000000D03*
X101690000Y46000000D03*
%TD*%
%TO.C,R179*%
X102670000Y40400000D03*
X103690000Y40400000D03*
%TD*%
%TO.C,R171*%
X102670000Y43600000D03*
X103690000Y43600000D03*
%TD*%
D17*
%TO.C,R291*%
X59900000Y97020000D03*
X59900000Y96000000D03*
%TD*%
D15*
%TO.C,R45*%
X32670000Y42000000D03*
X33690000Y42000000D03*
%TD*%
D14*
%TO.C,R96*%
X49330000Y50000000D03*
X48310000Y50000000D03*
%TD*%
%TO.C,R128*%
X49330000Y35600000D03*
X48310000Y35600000D03*
%TD*%
D15*
%TO.C,R153*%
X100670000Y53200000D03*
X101690000Y53200000D03*
%TD*%
D14*
%TO.C,R216*%
X119330000Y54000000D03*
X118310000Y54000000D03*
%TD*%
D41*
%TO.C,U91*%
X70435000Y98050000D03*
X70435000Y99000000D03*
X70435000Y99950000D03*
X68160000Y99950000D03*
X68160000Y99000000D03*
X68160000Y98050000D03*
%TD*%
D14*
%TO.C,R126*%
X47330000Y34000000D03*
X46310000Y34000000D03*
%TD*%
%TO.C,R238*%
X117330000Y41200000D03*
X116310000Y41200000D03*
%TD*%
%TO.C,R264*%
X119330000Y32400000D03*
X118310000Y32400000D03*
%TD*%
D42*
%TO.C,U90*%
X76675000Y92200000D03*
D43*
X76625000Y91700000D03*
X76625000Y91200000D03*
X77775000Y91200000D03*
X77775000Y91700000D03*
X77775000Y92200000D03*
%TD*%
D14*
%TO.C,R236*%
X117330000Y42800000D03*
X116310000Y42800000D03*
%TD*%
D15*
%TO.C,R29*%
X32670000Y49200000D03*
X33690000Y49200000D03*
%TD*%
D16*
%TO.C,C127*%
X118130000Y90500000D03*
X117170000Y90500000D03*
%TD*%
D15*
%TO.C,R41*%
X30670000Y46000000D03*
X31690000Y46000000D03*
%TD*%
D44*
%TO.C,C98*%
X61325000Y96350000D03*
X62875000Y96350000D03*
%TD*%
D20*
%TO.C,U77*%
X128212500Y43099999D03*
X128212500Y42449999D03*
X128212500Y41799999D03*
X128212500Y41149999D03*
X128212500Y40499999D03*
X128212500Y39849999D03*
X128212500Y39199999D03*
X128212500Y38549999D03*
X133937500Y38549999D03*
X133937500Y39199999D03*
X133937500Y39849999D03*
X133937500Y40499999D03*
X133937500Y41149999D03*
X133937500Y41799999D03*
X133937500Y42449999D03*
X133937500Y43099999D03*
%TD*%
D45*
%TO.C,R269*%
X25000000Y104962500D03*
X25000000Y102037500D03*
%TD*%
D14*
%TO.C,R266*%
X119330000Y30800000D03*
X118310000Y30800000D03*
%TD*%
D15*
%TO.C,R173*%
X102670000Y42000000D03*
X103690000Y42000000D03*
%TD*%
D36*
%TO.C,U22*%
X21787500Y31325000D03*
X21787500Y31975000D03*
X21787500Y32625000D03*
X21787500Y33275000D03*
X21787500Y33925000D03*
X21787500Y34575000D03*
X21787500Y35225000D03*
X21787500Y35875000D03*
X16062500Y35875000D03*
X16062500Y35225000D03*
X16062500Y34575000D03*
X16062500Y33925000D03*
X16062500Y33275000D03*
X16062500Y32625000D03*
X16062500Y31975000D03*
X16062500Y31325000D03*
%TD*%
D14*
%TO.C,R100*%
X47330000Y46800000D03*
X46310000Y46800000D03*
%TD*%
D37*
%TO.C,Q2*%
X73250000Y88562500D03*
X75150000Y88562500D03*
X74200000Y90437500D03*
%TD*%
D15*
%TO.C,R157*%
X102670000Y49200000D03*
X103690000Y49200000D03*
%TD*%
D38*
%TO.C,R4*%
X41699999Y85490000D03*
X41699999Y86510000D03*
%TD*%
D15*
%TO.C,R65*%
X30670000Y34800000D03*
X31690000Y34800000D03*
%TD*%
D19*
%TO.C,C9*%
X40130000Y74480000D03*
X40130000Y73520000D03*
%TD*%
D20*
%TO.C,U27*%
X58212500Y57499999D03*
X58212500Y56849999D03*
X58212500Y56199999D03*
X58212500Y55549999D03*
X58212500Y54899999D03*
X58212500Y54249999D03*
X58212500Y53599999D03*
X58212500Y52949999D03*
X63937500Y52949999D03*
X63937500Y53599999D03*
X63937500Y54249999D03*
X63937500Y54899999D03*
X63937500Y55549999D03*
X63937500Y56199999D03*
X63937500Y56849999D03*
X63937500Y57499999D03*
%TD*%
D19*
%TO.C,C109*%
X60300000Y93080000D03*
X60300000Y92120000D03*
%TD*%
D14*
%TO.C,R240*%
X119330000Y42800000D03*
X118310000Y42800000D03*
%TD*%
%TO.C,R78*%
X47330000Y55600000D03*
X46310000Y55600000D03*
%TD*%
D15*
%TO.C,R199*%
X100670000Y33200000D03*
X101690000Y33200000D03*
%TD*%
D16*
%TO.C,C40*%
X63967500Y58725000D03*
X63007500Y58725000D03*
%TD*%
%TO.C,C45*%
X63967500Y51525000D03*
X63007500Y51525000D03*
%TD*%
D14*
%TO.C,R208*%
X119330000Y57200000D03*
X118310000Y57200000D03*
%TD*%
D15*
%TO.C,R71*%
X30670000Y33200000D03*
X31690000Y33200000D03*
%TD*%
D16*
%TO.C,C8*%
X35330000Y78100000D03*
X34370000Y78100000D03*
%TD*%
D19*
%TO.C,C96*%
X25100000Y94630000D03*
X25100000Y93670000D03*
%TD*%
D14*
%TO.C,R86*%
X47330000Y52400000D03*
X46310000Y52400000D03*
%TD*%
D15*
%TO.C,R284*%
X121400000Y90846250D03*
X122420000Y90846250D03*
%TD*%
%TO.C,R197*%
X102670000Y31600000D03*
X103690000Y31600000D03*
%TD*%
D46*
%TO.C,U86*%
X20150000Y88050000D03*
X19200000Y88050000D03*
X18250000Y88050000D03*
X18250000Y85775000D03*
X19200000Y85775000D03*
X20150000Y85775000D03*
%TD*%
D47*
%TO.C,C101*%
X58050000Y100575000D03*
X58050000Y97625000D03*
%TD*%
D15*
%TO.C,R53*%
X32670000Y38800000D03*
X33690000Y38800000D03*
%TD*%
%TO.C,R33*%
X30670000Y49200000D03*
X31690000Y49200000D03*
%TD*%
D16*
%TO.C,C95*%
X133955000Y37124999D03*
X132995000Y37124999D03*
%TD*%
D36*
%TO.C,U62*%
X91787500Y31350000D03*
X91787500Y32000000D03*
X91787500Y32650000D03*
X91787500Y33300000D03*
X91787500Y33950000D03*
X91787500Y34600000D03*
X91787500Y35250000D03*
X91787500Y35900000D03*
X86062500Y35900000D03*
X86062500Y35250000D03*
X86062500Y34600000D03*
X86062500Y33950000D03*
X86062500Y33300000D03*
X86062500Y32650000D03*
X86062500Y32000000D03*
X86062500Y31350000D03*
%TD*%
D14*
%TO.C,R287*%
X122430000Y85146250D03*
X121410000Y85146250D03*
%TD*%
D25*
%TO.C,C97*%
X63300000Y101625000D03*
X63300000Y104575000D03*
%TD*%
D14*
%TO.C,R212*%
X117330000Y54000000D03*
X116310000Y54000000D03*
%TD*%
%TO.C,R206*%
X117330000Y55600000D03*
X116310000Y55600000D03*
%TD*%
D48*
%TO.C,U83*%
X26400000Y92225000D03*
X27350000Y92225000D03*
X28300000Y92225000D03*
X28300000Y94500000D03*
X26400000Y94500000D03*
%TD*%
D26*
%TO.C,C108*%
X68775000Y96062500D03*
X67225000Y96062500D03*
%TD*%
D20*
%TO.C,U67*%
X128212500Y57499999D03*
X128212500Y56849999D03*
X128212500Y56199999D03*
X128212500Y55549999D03*
X128212500Y54899999D03*
X128212500Y54249999D03*
X128212500Y53599999D03*
X128212500Y52949999D03*
X133937500Y52949999D03*
X133937500Y53599999D03*
X133937500Y54249999D03*
X133937500Y54899999D03*
X133937500Y55549999D03*
X133937500Y56199999D03*
X133937500Y56849999D03*
X133937500Y57499999D03*
%TD*%
D17*
%TO.C,R274*%
X65100000Y94310000D03*
X65100000Y93290000D03*
%TD*%
D14*
%TO.C,R244*%
X117330000Y39600000D03*
X116310000Y39600000D03*
%TD*%
%TO.C,R102*%
X47330000Y45200000D03*
X46310000Y45200000D03*
%TD*%
D32*
%TO.C,C4*%
X43839999Y84335000D03*
X43839999Y85885000D03*
%TD*%
D18*
%TO.C,C75*%
X86045000Y30225000D03*
X87005000Y30225000D03*
%TD*%
D49*
%TO.C,U1*%
X31025000Y85912500D03*
X32295000Y85912500D03*
X33565000Y85912500D03*
X34835000Y85912500D03*
X34835000Y93087500D03*
X33565000Y93087500D03*
X32295000Y93087500D03*
X31025000Y93087500D03*
%TD*%
D16*
%TO.C,C55*%
X63967500Y37125000D03*
X63007500Y37125000D03*
%TD*%
D15*
%TO.C,R17*%
X30670000Y56400000D03*
X31690000Y56400000D03*
%TD*%
D14*
%TO.C,R230*%
X117330000Y45200000D03*
X116310000Y45200000D03*
%TD*%
D38*
%TO.C,R276*%
X71900000Y99490000D03*
X71900000Y100510000D03*
%TD*%
D14*
%TO.C,R3*%
X46460000Y75750000D03*
X45440000Y75750000D03*
%TD*%
D15*
%TO.C,R167*%
X100670000Y47600000D03*
X101690000Y47600000D03*
%TD*%
D14*
%TO.C,R92*%
X47330000Y50000000D03*
X46310000Y50000000D03*
%TD*%
D36*
%TO.C,U47*%
X91787500Y52950000D03*
X91787500Y53600000D03*
X91787500Y54250000D03*
X91787500Y54900000D03*
X91787500Y55550000D03*
X91787500Y56200000D03*
X91787500Y56850000D03*
X91787500Y57500000D03*
X86062500Y57500000D03*
X86062500Y56850000D03*
X86062500Y56200000D03*
X86062500Y55550000D03*
X86062500Y54900000D03*
X86062500Y54250000D03*
X86062500Y53600000D03*
X86062500Y52950000D03*
%TD*%
D15*
%TO.C,R8*%
X42640000Y73700000D03*
X43660000Y73700000D03*
%TD*%
D50*
%TO.C,Y1*%
X35340000Y70580000D03*
X35340000Y72780000D03*
X33740000Y72780000D03*
X33740000Y70580000D03*
%TD*%
D15*
%TO.C,R191*%
X100670000Y36400000D03*
X101690000Y36400000D03*
%TD*%
D19*
%TO.C,C107*%
X65100000Y92280000D03*
X65100000Y91320000D03*
%TD*%
D15*
%TO.C,R25*%
X30670000Y53200000D03*
X31690000Y53200000D03*
%TD*%
%TO.C,R59*%
X32670000Y36400000D03*
X33690000Y36400000D03*
%TD*%
%TO.C,R181*%
X102670000Y38800000D03*
X103690000Y38800000D03*
%TD*%
D51*
%TO.C,U87*%
X23000000Y84800000D03*
X23500000Y84800000D03*
X24000000Y84800000D03*
X24500000Y84800000D03*
X25000000Y84800000D03*
X25000000Y89025000D03*
X24500000Y89025000D03*
X24000000Y89025000D03*
X23500000Y89025000D03*
X23000000Y89025000D03*
%TD*%
D14*
%TO.C,R271*%
X76510000Y106600000D03*
X75490000Y106600000D03*
%TD*%
D29*
%TO.C,C13*%
X40769999Y85520000D03*
X40769999Y86480000D03*
%TD*%
D18*
%TO.C,C12*%
X44490000Y83020000D03*
X45450000Y83020000D03*
%TD*%
D14*
%TO.C,R234*%
X119330000Y45200000D03*
X118310000Y45200000D03*
%TD*%
D15*
%TO.C,R143*%
X100670000Y58000000D03*
X101690000Y58000000D03*
%TD*%
D14*
%TO.C,R120*%
X49330000Y39600000D03*
X48310000Y39600000D03*
%TD*%
D17*
%TO.C,R1*%
X31300000Y27810000D03*
X31300000Y26790000D03*
%TD*%
%TO.C,R289*%
X112950000Y90460000D03*
X112950000Y89440000D03*
%TD*%
D15*
%TO.C,R141*%
X102670000Y56400000D03*
X103690000Y56400000D03*
%TD*%
D14*
%TO.C,R138*%
X49330000Y30800000D03*
X48310000Y30800000D03*
%TD*%
D17*
%TO.C,R6*%
X39200000Y74510000D03*
X39200000Y73490000D03*
%TD*%
D52*
%TO.C,C122*%
X112350000Y107475000D03*
X112350000Y105925000D03*
%TD*%
D29*
%TO.C,C125*%
X115070000Y89516250D03*
X115070000Y90476250D03*
%TD*%
D15*
%TO.C,R282*%
X105477500Y95750000D03*
X106497500Y95750000D03*
%TD*%
%TO.C,R13*%
X32670000Y56400000D03*
X33690000Y56400000D03*
%TD*%
%TO.C,R145*%
X100670000Y56400000D03*
X101690000Y56400000D03*
%TD*%
D22*
%TO.C,D3*%
X74050000Y102600000D03*
X77350000Y102600000D03*
%TD*%
D19*
%TO.C,C111*%
X79000000Y92180000D03*
X79000000Y91220000D03*
%TD*%
D14*
%TO.C,R226*%
X119340000Y48400000D03*
X118320000Y48400000D03*
%TD*%
D15*
%TO.C,R57*%
X30670000Y38800000D03*
X31690000Y38800000D03*
%TD*%
D16*
%TO.C,C80*%
X133955000Y58724999D03*
X132995000Y58724999D03*
%TD*%
D29*
%TO.C,C2*%
X36800000Y72420000D03*
X36800000Y73380000D03*
%TD*%
D15*
%TO.C,R283*%
X109190000Y95887500D03*
X110210000Y95887500D03*
%TD*%
D18*
%TO.C,C30*%
X16020000Y37400000D03*
X16980000Y37400000D03*
%TD*%
%TO.C,C25*%
X16020000Y44600000D03*
X16980000Y44600000D03*
%TD*%
%TO.C,C60*%
X86045000Y51825000D03*
X87005000Y51825000D03*
%TD*%
D15*
%TO.C,R195*%
X102670000Y33200000D03*
X103690000Y33200000D03*
%TD*%
D18*
%TO.C,C35*%
X16020000Y30200000D03*
X16980000Y30200000D03*
%TD*%
D15*
%TO.C,R201*%
X100670000Y31600000D03*
X101690000Y31600000D03*
%TD*%
%TO.C,R189*%
X102670000Y34800000D03*
X103690000Y34800000D03*
%TD*%
D14*
%TO.C,R218*%
X119330000Y52400000D03*
X118310000Y52400000D03*
%TD*%
D44*
%TO.C,C126*%
X100875000Y104600000D03*
X102425000Y104600000D03*
%TD*%
D32*
%TO.C,C124*%
X112450000Y102775000D03*
X112450000Y104325000D03*
%TD*%
D29*
%TO.C,C114*%
X66710000Y97970000D03*
X66710000Y98930000D03*
%TD*%
D14*
%TO.C,R94*%
X47330000Y48400000D03*
X46310000Y48400000D03*
%TD*%
%TO.C,R267*%
X58610000Y96100000D03*
X57590000Y96100000D03*
%TD*%
D15*
%TO.C,R31*%
X30670000Y50800000D03*
X31690000Y50800000D03*
%TD*%
D53*
%TO.C,U93*%
X116682500Y89096250D03*
X116682500Y88146250D03*
X116682500Y87196250D03*
X118957500Y87196250D03*
X118957500Y89096250D03*
%TD*%
D54*
%TO.C,U85*%
X62125000Y99125000D03*
X61325000Y99125000D03*
D55*
X62475000Y100075000D03*
X61975000Y100075000D03*
X61475000Y100075000D03*
X60975000Y100075000D03*
X60975000Y98175000D03*
X61475000Y98175000D03*
X61975000Y98175000D03*
X62475000Y98175000D03*
%TD*%
D38*
%TO.C,R5*%
X42639999Y85490000D03*
X42639999Y86510000D03*
%TD*%
D15*
%TO.C,R61*%
X32670000Y34800000D03*
X33690000Y34800000D03*
%TD*%
D22*
%TO.C,D2*%
X28000000Y102000000D03*
X31300000Y102000000D03*
%TD*%
D14*
%TO.C,R285*%
X122430000Y92046250D03*
X121410000Y92046250D03*
%TD*%
%TO.C,R82*%
X49340000Y55600000D03*
X48320000Y55600000D03*
%TD*%
D38*
%TO.C,R277*%
X71900000Y101690000D03*
X71900000Y102710000D03*
%TD*%
D46*
%TO.C,U88*%
X68750000Y94000000D03*
X67800000Y94000000D03*
X66850000Y94000000D03*
X66850000Y91725000D03*
X68750000Y91725000D03*
%TD*%
D15*
%TO.C,R187*%
X102670000Y36400000D03*
X103690000Y36400000D03*
%TD*%
D14*
%TO.C,R250*%
X119330000Y38000000D03*
X118310000Y38000000D03*
%TD*%
%TO.C,R275*%
X87795000Y97160000D03*
X86775000Y97160000D03*
%TD*%
D15*
%TO.C,R155*%
X102670000Y50800000D03*
X103690000Y50800000D03*
%TD*%
%TO.C,R185*%
X100670000Y38800000D03*
X101690000Y38800000D03*
%TD*%
%TO.C,R163*%
X102670000Y47600000D03*
X103690000Y47600000D03*
%TD*%
D14*
%TO.C,R122*%
X49330000Y38000000D03*
X48310000Y38000000D03*
%TD*%
D37*
%TO.C,U89*%
X61750000Y91862500D03*
X63650000Y91862500D03*
X62700000Y93737500D03*
%TD*%
D15*
%TO.C,R139*%
X102670000Y58000000D03*
X103690000Y58000000D03*
%TD*%
D56*
%TO.C,D5*%
X83300000Y117387500D03*
X83300000Y115812500D03*
%TD*%
D14*
%TO.C,R114*%
X49340000Y41200000D03*
X48320000Y41200000D03*
%TD*%
D15*
%TO.C,R281*%
X76690000Y93300000D03*
X77710000Y93300000D03*
%TD*%
D14*
%TO.C,R84*%
X47330000Y54000000D03*
X46310000Y54000000D03*
%TD*%
D28*
%TO.C,C119*%
X106875000Y107000000D03*
X109825000Y107000000D03*
%TD*%
D15*
%TO.C,R151*%
X100670000Y54800000D03*
X101690000Y54800000D03*
%TD*%
%TO.C,R15*%
X30670000Y58000000D03*
X31690000Y58000000D03*
%TD*%
D14*
%TO.C,R110*%
X47330000Y41200000D03*
X46310000Y41200000D03*
%TD*%
D15*
%TO.C,R19*%
X32670000Y54800000D03*
X33690000Y54800000D03*
%TD*%
D14*
%TO.C,R254*%
X117330000Y34000000D03*
X116310000Y34000000D03*
%TD*%
D29*
%TO.C,C103*%
X19200000Y89530000D03*
X19200000Y90490000D03*
%TD*%
D14*
%TO.C,R90*%
X49330000Y52400000D03*
X48310000Y52400000D03*
%TD*%
D15*
%TO.C,R147*%
X102670000Y54800000D03*
X103690000Y54800000D03*
%TD*%
D14*
%TO.C,R108*%
X47330000Y42800000D03*
X46310000Y42800000D03*
%TD*%
D15*
%TO.C,R183*%
X100670000Y40400000D03*
X101690000Y40400000D03*
%TD*%
D26*
%TO.C,C120*%
X108475000Y104750000D03*
X106925000Y104750000D03*
%TD*%
D15*
%TO.C,R39*%
X30670000Y47600000D03*
X31690000Y47600000D03*
%TD*%
D57*
%TO.C,J1*%
X54420000Y73600000D03*
X54420000Y78650000D03*
X56960000Y73600000D03*
X56960000Y78650000D03*
X59500000Y73600000D03*
X59500000Y78650000D03*
X62040000Y73600000D03*
X62040000Y78650000D03*
%TD*%
D58*
%TO.C,J6*%
X78200000Y113610000D03*
X77400000Y113610000D03*
D59*
X76250000Y113610000D03*
X75250000Y113610000D03*
X74750000Y113610000D03*
X73750000Y113610000D03*
D58*
X72600000Y113610000D03*
X71800000Y113610000D03*
X71800000Y113610000D03*
X72600000Y113610000D03*
D59*
X73250000Y113610000D03*
X74250000Y113610000D03*
X75750000Y113610000D03*
X76750000Y113610000D03*
D58*
X77400000Y113610000D03*
X78200000Y113610000D03*
D60*
X79320000Y114185000D03*
D61*
X79320000Y118365000D03*
D60*
X70680000Y114185000D03*
D61*
X70680000Y118365000D03*
%TD*%
D15*
%TO.C,R73*%
X30670000Y31600000D03*
X31690000Y31600000D03*
%TD*%
D14*
%TO.C,R260*%
X117330000Y32400000D03*
X116310000Y32400000D03*
%TD*%
%TO.C,R130*%
X49340000Y34000000D03*
X48320000Y34000000D03*
%TD*%
%TO.C,R104*%
X49330000Y46800000D03*
X48310000Y46800000D03*
%TD*%
D28*
%TO.C,C115*%
X79325000Y102700000D03*
X82275000Y102700000D03*
%TD*%
D15*
%TO.C,R49*%
X30670000Y42000000D03*
X31690000Y42000000D03*
%TD*%
D14*
%TO.C,R88*%
X49330000Y54000000D03*
X48310000Y54000000D03*
%TD*%
D37*
%TO.C,Q5*%
X108700000Y97612500D03*
X110600000Y97612500D03*
X109650000Y99487500D03*
%TD*%
D14*
%TO.C,R246*%
X117330000Y38000000D03*
X116310000Y38000000D03*
%TD*%
%TO.C,R248*%
X119330000Y39600000D03*
X118310000Y39600000D03*
%TD*%
D16*
%TO.C,C7*%
X35330000Y82500000D03*
X34370000Y82500000D03*
%TD*%
D15*
%TO.C,R10*%
X32240000Y81200000D03*
X33260000Y81200000D03*
%TD*%
D14*
%TO.C,R118*%
X47330000Y38000000D03*
X46310000Y38000000D03*
%TD*%
D15*
%TO.C,R55*%
X30670000Y40400000D03*
X31690000Y40400000D03*
%TD*%
%TO.C,R193*%
X100670000Y34800000D03*
X101690000Y34800000D03*
%TD*%
D20*
%TO.C,U82*%
X128212500Y35899999D03*
X128212500Y35249999D03*
X128212500Y34599999D03*
X128212500Y33949999D03*
X128212500Y33299999D03*
X128212500Y32649999D03*
X128212500Y31999999D03*
X128212500Y31349999D03*
X133937500Y31349999D03*
X133937500Y31999999D03*
X133937500Y32649999D03*
X133937500Y33299999D03*
X133937500Y33949999D03*
X133937500Y34599999D03*
X133937500Y35249999D03*
X133937500Y35899999D03*
%TD*%
D17*
%TO.C,R268*%
X59900000Y98960000D03*
X59900000Y97940000D03*
%TD*%
D62*
%TO.C,Q3*%
X74925000Y92975000D03*
X74925000Y94875000D03*
X73050000Y93925000D03*
%TD*%
D14*
%TO.C,R252*%
X117330000Y35600000D03*
X116310000Y35600000D03*
%TD*%
M02*
