%TF.GenerationSoftware,KiCad,Pcbnew,8.0.1*%
%TF.CreationDate,2024-11-15T12:43:49-05:00*%
%TF.ProjectId,ephys-test-board,65706879-732d-4746-9573-742d626f6172,rev?*%
%TF.SameCoordinates,Original*%
%TF.FileFunction,Paste,Bot*%
%TF.FilePolarity,Positive*%
%FSLAX46Y46*%
G04 Gerber Fmt 4.6, Leading zero omitted, Abs format (unit mm)*
G04 Created by KiCad (PCBNEW 8.0.1) date 2024-11-15 12:43:49*
%MOMM*%
%LPD*%
G01*
G04 APERTURE LIST*
G04 Aperture macros list*
%AMRoundRect*
0 Rectangle with rounded corners*
0 $1 Rounding radius*
0 $2 $3 $4 $5 $6 $7 $8 $9 X,Y pos of 4 corners*
0 Add a 4 corners polygon primitive as box body*
4,1,4,$2,$3,$4,$5,$6,$7,$8,$9,$2,$3,0*
0 Add four circle primitives for the rounded corners*
1,1,$1+$1,$2,$3*
1,1,$1+$1,$4,$5*
1,1,$1+$1,$6,$7*
1,1,$1+$1,$8,$9*
0 Add four rect primitives between the rounded corners*
20,1,$1+$1,$2,$3,$4,$5,0*
20,1,$1+$1,$4,$5,$6,$7,0*
20,1,$1+$1,$6,$7,$8,$9,0*
20,1,$1+$1,$8,$9,$2,$3,0*%
G04 Aperture macros list end*
%ADD10RoundRect,0.100000X0.225000X0.100000X-0.225000X0.100000X-0.225000X-0.100000X0.225000X-0.100000X0*%
%ADD11RoundRect,0.135000X0.135000X0.185000X-0.135000X0.185000X-0.135000X-0.185000X0.135000X-0.185000X0*%
%ADD12RoundRect,0.140000X-0.170000X0.140000X-0.170000X-0.140000X0.170000X-0.140000X0.170000X0.140000X0*%
%ADD13RoundRect,0.135000X-0.135000X-0.185000X0.135000X-0.185000X0.135000X0.185000X-0.135000X0.185000X0*%
%ADD14RoundRect,0.100000X-0.225000X-0.100000X0.225000X-0.100000X0.225000X0.100000X-0.225000X0.100000X0*%
%ADD15RoundRect,0.140000X0.140000X0.170000X-0.140000X0.170000X-0.140000X-0.170000X0.140000X-0.170000X0*%
%ADD16RoundRect,0.140000X-0.140000X-0.170000X0.140000X-0.170000X0.140000X0.170000X-0.140000X0.170000X0*%
%ADD17RoundRect,0.140000X0.170000X-0.140000X0.170000X0.140000X-0.170000X0.140000X-0.170000X-0.140000X0*%
%ADD18RoundRect,0.250000X0.325000X0.650000X-0.325000X0.650000X-0.325000X-0.650000X0.325000X-0.650000X0*%
%ADD19R,0.800000X0.300000*%
%ADD20R,0.650000X0.300000*%
%ADD21R,0.950000X0.400000*%
%ADD22RoundRect,0.250000X-0.250000X-0.475000X0.250000X-0.475000X0.250000X0.475000X-0.250000X0.475000X0*%
%ADD23RoundRect,0.135000X-0.185000X0.135000X-0.185000X-0.135000X0.185000X-0.135000X0.185000X0.135000X0*%
G04 APERTURE END LIST*
D10*
%TO.C,U140*%
X250525000Y-158375000D03*
X250525000Y-159025000D03*
X250525000Y-159675000D03*
X248625000Y-159675000D03*
X248625000Y-159025000D03*
X248625000Y-158375000D03*
%TD*%
D11*
%TO.C,R63*%
X159910000Y-161600000D03*
X158890000Y-161600000D03*
%TD*%
%TO.C,R185*%
X229910000Y-160000000D03*
X228890000Y-160000000D03*
%TD*%
D12*
%TO.C,C251*%
X251725000Y-147345000D03*
X251725000Y-148305000D03*
%TD*%
D13*
%TO.C,R157*%
X226490000Y-145600000D03*
X227510000Y-145600000D03*
%TD*%
D11*
%TO.C,R74*%
X173635000Y-136025000D03*
X172615000Y-136025000D03*
%TD*%
%TO.C,R234*%
X243635000Y-150425000D03*
X242615000Y-150425000D03*
%TD*%
D14*
%TO.C,U28*%
X144800000Y-155250000D03*
X144800000Y-154600000D03*
X144800000Y-153950000D03*
X146700000Y-153950000D03*
X146700000Y-154600000D03*
X146700000Y-155250000D03*
%TD*%
D15*
%TO.C,C44*%
X155480000Y-148800000D03*
X154520000Y-148800000D03*
%TD*%
D13*
%TO.C,R232*%
X240115000Y-152025000D03*
X241135000Y-152025000D03*
%TD*%
D12*
%TO.C,C115*%
X181725000Y-147345000D03*
X181725000Y-148305000D03*
%TD*%
D10*
%TO.C,U129*%
X255175000Y-150875000D03*
X255175000Y-151525000D03*
X255175000Y-152175000D03*
X253275000Y-152175000D03*
X253275000Y-151525000D03*
X253275000Y-150875000D03*
%TD*%
D16*
%TO.C,C103*%
X174655000Y-144825000D03*
X175615000Y-144825000D03*
%TD*%
D13*
%TO.C,R112*%
X170115000Y-155225000D03*
X171135000Y-155225000D03*
%TD*%
D11*
%TO.C,R244*%
X243635000Y-155225000D03*
X242615000Y-155225000D03*
%TD*%
D17*
%TO.C,C165*%
X223000000Y-140180000D03*
X223000000Y-139220000D03*
%TD*%
D11*
%TO.C,R220*%
X243645000Y-144825000D03*
X242625000Y-144825000D03*
%TD*%
D15*
%TO.C,C25*%
X155480000Y-140000000D03*
X154520000Y-140000000D03*
%TD*%
D12*
%TO.C,C90*%
X181725000Y-137145000D03*
X181725000Y-138105000D03*
%TD*%
D17*
%TO.C,C174*%
X223000000Y-144200000D03*
X223000000Y-143240000D03*
%TD*%
D14*
%TO.C,U22*%
X149550000Y-152050000D03*
X149550000Y-151400000D03*
X149550000Y-150750000D03*
X151450000Y-150750000D03*
X151450000Y-151400000D03*
X151450000Y-152050000D03*
%TD*%
D13*
%TO.C,R246*%
X240115000Y-157625000D03*
X241135000Y-157625000D03*
%TD*%
D15*
%TO.C,C204*%
X225480000Y-158400000D03*
X224520000Y-158400000D03*
%TD*%
%TO.C,C153*%
X225480000Y-136800000D03*
X224520000Y-136800000D03*
%TD*%
D13*
%TO.C,R104*%
X170115000Y-152025000D03*
X171135000Y-152025000D03*
%TD*%
D14*
%TO.C,U78*%
X214800000Y-137650000D03*
X214800000Y-137000000D03*
X214800000Y-136350000D03*
X216700000Y-136350000D03*
X216700000Y-137000000D03*
X216700000Y-137650000D03*
%TD*%
D13*
%TO.C,R43*%
X156490000Y-151200000D03*
X157510000Y-151200000D03*
%TD*%
%TO.C,R179*%
X226490000Y-154400000D03*
X227510000Y-154400000D03*
%TD*%
D15*
%TO.C,C27*%
X155480000Y-141600000D03*
X154520000Y-141600000D03*
%TD*%
D11*
%TO.C,R108*%
X173645000Y-152025000D03*
X172625000Y-152025000D03*
%TD*%
D13*
%TO.C,R200*%
X240115000Y-137625000D03*
X241135000Y-137625000D03*
%TD*%
D11*
%TO.C,R23*%
X159910000Y-144000000D03*
X158890000Y-144000000D03*
%TD*%
%TO.C,R242*%
X243635000Y-153625000D03*
X242615000Y-153625000D03*
%TD*%
%TO.C,R252*%
X243645000Y-159225000D03*
X242625000Y-159225000D03*
%TD*%
D17*
%TO.C,C157*%
X223000000Y-137000000D03*
X223000000Y-136040000D03*
%TD*%
D14*
%TO.C,U85*%
X219550000Y-144850000D03*
X219550000Y-144200000D03*
X219550000Y-143550000D03*
X221450000Y-143550000D03*
X221450000Y-144200000D03*
X221450000Y-144850000D03*
%TD*%
D15*
%TO.C,C19*%
X155480000Y-138400000D03*
X154520000Y-138400000D03*
%TD*%
%TO.C,C76*%
X155480000Y-161600000D03*
X154520000Y-161600000D03*
%TD*%
D11*
%TO.C,R137*%
X229910000Y-138400000D03*
X228890000Y-138400000D03*
%TD*%
D17*
%TO.C,C21*%
X153000000Y-137000000D03*
X153000000Y-136040000D03*
%TD*%
D16*
%TO.C,C230*%
X244645000Y-140825000D03*
X245605000Y-140825000D03*
%TD*%
D10*
%TO.C,U54*%
X180525000Y-146975000D03*
X180525000Y-147625000D03*
X180525000Y-148275000D03*
X178625000Y-148275000D03*
X178625000Y-147625000D03*
X178625000Y-146975000D03*
%TD*%
D17*
%TO.C,C82*%
X148263500Y-161800000D03*
X148263500Y-160840000D03*
%TD*%
D12*
%TO.C,C113*%
X177025000Y-147645000D03*
X177025000Y-148605000D03*
%TD*%
D11*
%TO.C,R98*%
X173635000Y-146425000D03*
X172615000Y-146425000D03*
%TD*%
D13*
%TO.C,R86*%
X170115000Y-143225000D03*
X171135000Y-143225000D03*
%TD*%
D15*
%TO.C,C161*%
X225480000Y-140000000D03*
X224520000Y-140000000D03*
%TD*%
D13*
%TO.C,R67*%
X156490000Y-161600000D03*
X157510000Y-161600000D03*
%TD*%
D10*
%TO.C,U39*%
X185175000Y-136475000D03*
X185175000Y-137125000D03*
X185175000Y-137775000D03*
X183275000Y-137775000D03*
X183275000Y-137125000D03*
X183275000Y-136475000D03*
%TD*%
D11*
%TO.C,R84*%
X173635000Y-140825000D03*
X172615000Y-140825000D03*
%TD*%
D13*
%TO.C,R189*%
X226490000Y-160000000D03*
X227510000Y-160000000D03*
%TD*%
D17*
%TO.C,C57*%
X148250000Y-151400000D03*
X148250000Y-150440000D03*
%TD*%
%TO.C,C29*%
X153000000Y-140180000D03*
X153000000Y-139220000D03*
%TD*%
D15*
%TO.C,C53*%
X155480000Y-152800000D03*
X154520000Y-152800000D03*
%TD*%
D13*
%TO.C,R139*%
X226490000Y-136800000D03*
X227510000Y-136800000D03*
%TD*%
%TO.C,R102*%
X170115000Y-150425000D03*
X171135000Y-150425000D03*
%TD*%
D12*
%TO.C,C249*%
X247025000Y-147645000D03*
X247025000Y-148605000D03*
%TD*%
D17*
%TO.C,C38*%
X153000000Y-144200000D03*
X153000000Y-143240000D03*
%TD*%
D11*
%TO.C,R124*%
X173645000Y-159225000D03*
X172625000Y-159225000D03*
%TD*%
%TO.C,R236*%
X243645000Y-152025000D03*
X242625000Y-152025000D03*
%TD*%
D12*
%TO.C,C243*%
X251725000Y-144345000D03*
X251725000Y-145305000D03*
%TD*%
D10*
%TO.C,U144*%
X250525000Y-161375000D03*
X250525000Y-162025000D03*
X250525000Y-162675000D03*
X248625000Y-162675000D03*
X248625000Y-162025000D03*
X248625000Y-161375000D03*
%TD*%
D12*
%TO.C,C122*%
X177025000Y-151845000D03*
X177025000Y-152805000D03*
%TD*%
%TO.C,C149*%
X181725000Y-161745000D03*
X181725000Y-162705000D03*
%TD*%
D16*
%TO.C,C279*%
X244645000Y-160825000D03*
X245605000Y-160825000D03*
%TD*%
D11*
%TO.C,R218*%
X243635000Y-143225000D03*
X242615000Y-143225000D03*
%TD*%
D14*
%TO.C,U10*%
X144800000Y-140850000D03*
X144800000Y-140200000D03*
X144800000Y-139550000D03*
X146700000Y-139550000D03*
X146700000Y-140200000D03*
X146700000Y-140850000D03*
%TD*%
D13*
%TO.C,R128*%
X170115000Y-162425000D03*
X171135000Y-162425000D03*
%TD*%
%TO.C,R45*%
X156490000Y-152800000D03*
X157510000Y-152800000D03*
%TD*%
D17*
%TO.C,C216*%
X223000000Y-161780000D03*
X223000000Y-160820000D03*
%TD*%
D12*
%TO.C,C277*%
X251725000Y-158745000D03*
X251725000Y-159705000D03*
%TD*%
D16*
%TO.C,C145*%
X174645000Y-162425000D03*
X175605000Y-162425000D03*
%TD*%
D15*
%TO.C,C36*%
X155480000Y-145600000D03*
X154520000Y-145600000D03*
%TD*%
D13*
%TO.C,R88*%
X170115000Y-144825000D03*
X171135000Y-144825000D03*
%TD*%
D17*
%TO.C,C72*%
X153000000Y-158600000D03*
X153000000Y-157640000D03*
%TD*%
D15*
%TO.C,C212*%
X225480000Y-161600000D03*
X224520000Y-161600000D03*
%TD*%
D11*
%TO.C,R116*%
X173635000Y-155225000D03*
X172615000Y-155225000D03*
%TD*%
D13*
%TO.C,R94*%
X170115000Y-146425000D03*
X171135000Y-146425000D03*
%TD*%
D15*
%TO.C,C155*%
X225480000Y-138400000D03*
X224520000Y-138400000D03*
%TD*%
D12*
%TO.C,C132*%
X181725000Y-154545000D03*
X181725000Y-155505000D03*
%TD*%
D15*
%TO.C,C189*%
X225480000Y-152800000D03*
X224520000Y-152800000D03*
%TD*%
D12*
%TO.C,C266*%
X247025000Y-154845000D03*
X247025000Y-155805000D03*
%TD*%
D10*
%TO.C,U117*%
X250525000Y-139775000D03*
X250525000Y-140425000D03*
X250525000Y-141075000D03*
X248625000Y-141075000D03*
X248625000Y-140425000D03*
X248625000Y-139775000D03*
%TD*%
D17*
%TO.C,C40*%
X148250000Y-144200000D03*
X148250000Y-143240000D03*
%TD*%
D13*
%TO.C,R155*%
X226490000Y-144000000D03*
X227510000Y-144000000D03*
%TD*%
%TO.C,R216*%
X240115000Y-144825000D03*
X241135000Y-144825000D03*
%TD*%
D10*
%TO.C,U52*%
X185175000Y-146675000D03*
X185175000Y-147325000D03*
X185175000Y-147975000D03*
X183275000Y-147975000D03*
X183275000Y-147325000D03*
X183275000Y-146675000D03*
%TD*%
D13*
%TO.C,R181*%
X226490000Y-156000000D03*
X227510000Y-156000000D03*
%TD*%
D10*
%TO.C,U133*%
X255175000Y-153875000D03*
X255175000Y-154525000D03*
X255175000Y-155175000D03*
X253275000Y-155175000D03*
X253275000Y-154525000D03*
X253275000Y-153875000D03*
%TD*%
D12*
%TO.C,C88*%
X177025000Y-137445000D03*
X177025000Y-138405000D03*
%TD*%
D14*
%TO.C,U76*%
X219550000Y-137650000D03*
X219550000Y-137000000D03*
X219550000Y-136350000D03*
X221450000Y-136350000D03*
X221450000Y-137000000D03*
X221450000Y-137650000D03*
%TD*%
D11*
%TO.C,R250*%
X243635000Y-157625000D03*
X242615000Y-157625000D03*
%TD*%
D10*
%TO.C,U113*%
X250525000Y-136775000D03*
X250525000Y-137425000D03*
X250525000Y-138075000D03*
X248625000Y-138075000D03*
X248625000Y-137425000D03*
X248625000Y-136775000D03*
%TD*%
D15*
%TO.C,C206*%
X225480000Y-160000000D03*
X224520000Y-160000000D03*
%TD*%
D14*
%TO.C,U89*%
X219550000Y-148050000D03*
X219550000Y-147400000D03*
X219550000Y-146750000D03*
X221450000Y-146750000D03*
X221450000Y-147400000D03*
X221450000Y-148050000D03*
%TD*%
%TO.C,U24*%
X144800000Y-152050000D03*
X144800000Y-151400000D03*
X144800000Y-150750000D03*
X146700000Y-150750000D03*
X146700000Y-151400000D03*
X146700000Y-152050000D03*
%TD*%
D11*
%TO.C,R92*%
X173645000Y-144825000D03*
X172625000Y-144825000D03*
%TD*%
D13*
%TO.C,R147*%
X226490000Y-140000000D03*
X227510000Y-140000000D03*
%TD*%
D14*
%TO.C,U80*%
X219550000Y-140850000D03*
X219550000Y-140200000D03*
X219550000Y-139550000D03*
X221450000Y-139550000D03*
X221450000Y-140200000D03*
X221450000Y-140850000D03*
%TD*%
D15*
%TO.C,C42*%
X155480000Y-147200000D03*
X154520000Y-147200000D03*
%TD*%
D10*
%TO.C,U72*%
X180525000Y-161375000D03*
X180525000Y-162025000D03*
X180525000Y-162675000D03*
X178625000Y-162675000D03*
X178625000Y-162025000D03*
X178625000Y-161375000D03*
%TD*%
%TO.C,U122*%
X250525000Y-143975000D03*
X250525000Y-144625000D03*
X250525000Y-145275000D03*
X248625000Y-145275000D03*
X248625000Y-144625000D03*
X248625000Y-143975000D03*
%TD*%
D12*
%TO.C,C141*%
X181725000Y-158745000D03*
X181725000Y-159705000D03*
%TD*%
D14*
%TO.C,U26*%
X149550000Y-155250000D03*
X149550000Y-154600000D03*
X149550000Y-153950000D03*
X151450000Y-153950000D03*
X151450000Y-154600000D03*
X151450000Y-155250000D03*
%TD*%
D13*
%TO.C,R222*%
X240115000Y-146425000D03*
X241135000Y-146425000D03*
%TD*%
%TO.C,R80*%
X170115000Y-140825000D03*
X171135000Y-140825000D03*
%TD*%
%TO.C,R238*%
X240115000Y-153625000D03*
X241135000Y-153625000D03*
%TD*%
%TO.C,R59*%
X156490000Y-158400000D03*
X157510000Y-158400000D03*
%TD*%
D16*
%TO.C,C247*%
X244645000Y-148025000D03*
X245605000Y-148025000D03*
%TD*%
D14*
%TO.C,U82*%
X214800000Y-140850000D03*
X214800000Y-140200000D03*
X214800000Y-139550000D03*
X216700000Y-139550000D03*
X216700000Y-140200000D03*
X216700000Y-140850000D03*
%TD*%
D15*
%TO.C,C178*%
X225480000Y-147200000D03*
X224520000Y-147200000D03*
%TD*%
D13*
%TO.C,R173*%
X226490000Y-152800000D03*
X227510000Y-152800000D03*
%TD*%
D16*
%TO.C,C222*%
X244655000Y-137625000D03*
X245615000Y-137625000D03*
%TD*%
%TO.C,C92*%
X174645000Y-139225000D03*
X175605000Y-139225000D03*
%TD*%
D14*
%TO.C,U35*%
X149550000Y-162450000D03*
X149550000Y-161800000D03*
X149550000Y-161150000D03*
X151450000Y-161150000D03*
X151450000Y-161800000D03*
X151450000Y-162450000D03*
%TD*%
D17*
%TO.C,C65*%
X148263500Y-154600000D03*
X148263500Y-153640000D03*
%TD*%
D13*
%TO.C,R21*%
X156490000Y-141600000D03*
X157510000Y-141600000D03*
%TD*%
D12*
%TO.C,C98*%
X181725000Y-140145000D03*
X181725000Y-141105000D03*
%TD*%
D17*
%TO.C,C74*%
X148250000Y-158600000D03*
X148250000Y-157640000D03*
%TD*%
D15*
%TO.C,C51*%
X155480000Y-151200000D03*
X154520000Y-151200000D03*
%TD*%
D11*
%TO.C,R175*%
X229910000Y-154400000D03*
X228890000Y-154400000D03*
%TD*%
D12*
%TO.C,C241*%
X247025000Y-144645000D03*
X247025000Y-145605000D03*
%TD*%
D17*
%TO.C,C191*%
X223000000Y-151400000D03*
X223000000Y-150440000D03*
%TD*%
D13*
%TO.C,R69*%
X156490000Y-163200000D03*
X157510000Y-163200000D03*
%TD*%
D10*
%TO.C,U138*%
X255175000Y-158075000D03*
X255175000Y-158725000D03*
X255175000Y-159375000D03*
X253275000Y-159375000D03*
X253275000Y-158725000D03*
X253275000Y-158075000D03*
%TD*%
D17*
%TO.C,C55*%
X153000000Y-151400000D03*
X153000000Y-150440000D03*
%TD*%
D11*
%TO.C,R228*%
X243635000Y-148025000D03*
X242615000Y-148025000D03*
%TD*%
D16*
%TO.C,C128*%
X174645000Y-155225000D03*
X175605000Y-155225000D03*
%TD*%
D17*
%TO.C,C210*%
X218250000Y-158600000D03*
X218250000Y-157640000D03*
%TD*%
D14*
%TO.C,U109*%
X214800000Y-162450000D03*
X214800000Y-161800000D03*
X214800000Y-161150000D03*
X216700000Y-161150000D03*
X216700000Y-161800000D03*
X216700000Y-162450000D03*
%TD*%
D13*
%TO.C,R198*%
X240115000Y-136025000D03*
X241135000Y-136025000D03*
%TD*%
D16*
%TO.C,C262*%
X244645000Y-153625000D03*
X245605000Y-153625000D03*
%TD*%
%TO.C,C273*%
X244655000Y-159225000D03*
X245615000Y-159225000D03*
%TD*%
D12*
%TO.C,C139*%
X177025000Y-159045000D03*
X177025000Y-160005000D03*
%TD*%
D11*
%TO.C,R76*%
X173645000Y-137625000D03*
X172625000Y-137625000D03*
%TD*%
%TO.C,R167*%
X229910000Y-151200000D03*
X228890000Y-151200000D03*
%TD*%
D10*
%TO.C,U70*%
X185175000Y-161075000D03*
X185175000Y-161725000D03*
X185175000Y-162375000D03*
X183275000Y-162375000D03*
X183275000Y-161725000D03*
X183275000Y-161075000D03*
%TD*%
D12*
%TO.C,C234*%
X251725000Y-140145000D03*
X251725000Y-141105000D03*
%TD*%
D17*
%TO.C,C208*%
X223000000Y-158600000D03*
X223000000Y-157640000D03*
%TD*%
D14*
%TO.C,U87*%
X214800000Y-144850000D03*
X214800000Y-144200000D03*
X214800000Y-143550000D03*
X216700000Y-143550000D03*
X216700000Y-144200000D03*
X216700000Y-144850000D03*
%TD*%
D10*
%TO.C,U120*%
X255175000Y-143675000D03*
X255175000Y-144325000D03*
X255175000Y-144975000D03*
X253275000Y-144975000D03*
X253275000Y-144325000D03*
X253275000Y-143675000D03*
%TD*%
D11*
%TO.C,R25*%
X159910000Y-145600000D03*
X158890000Y-145600000D03*
%TD*%
D15*
%TO.C,C197*%
X225480000Y-156000000D03*
X224520000Y-156000000D03*
%TD*%
D16*
%TO.C,C120*%
X174655000Y-152025000D03*
X175615000Y-152025000D03*
%TD*%
%TO.C,C271*%
X244645000Y-157625000D03*
X245605000Y-157625000D03*
%TD*%
D15*
%TO.C,C170*%
X225480000Y-144000000D03*
X224520000Y-144000000D03*
%TD*%
D14*
%TO.C,U98*%
X219550000Y-155250000D03*
X219550000Y-154600000D03*
X219550000Y-153950000D03*
X221450000Y-153950000D03*
X221450000Y-154600000D03*
X221450000Y-155250000D03*
%TD*%
%TO.C,U100*%
X214800000Y-155250000D03*
X214800000Y-154600000D03*
X214800000Y-153950000D03*
X216700000Y-153950000D03*
X216700000Y-154600000D03*
X216700000Y-155250000D03*
%TD*%
D10*
%TO.C,U41*%
X180525000Y-136775000D03*
X180525000Y-137425000D03*
X180525000Y-138075000D03*
X178625000Y-138075000D03*
X178625000Y-137425000D03*
X178625000Y-136775000D03*
%TD*%
D15*
%TO.C,C59*%
X155480000Y-154400000D03*
X154520000Y-154400000D03*
%TD*%
D11*
%TO.C,R57*%
X159910000Y-160000000D03*
X158890000Y-160000000D03*
%TD*%
D13*
%TO.C,R195*%
X226490000Y-161600000D03*
X227510000Y-161600000D03*
%TD*%
D11*
%TO.C,R145*%
X229910000Y-141600000D03*
X228890000Y-141600000D03*
%TD*%
D16*
%TO.C,C135*%
X174645000Y-157625000D03*
X175605000Y-157625000D03*
%TD*%
D17*
%TO.C,C193*%
X218250000Y-151400000D03*
X218250000Y-150440000D03*
%TD*%
D11*
%TO.C,R65*%
X159910000Y-163200000D03*
X158890000Y-163200000D03*
%TD*%
%TO.C,R39*%
X159910000Y-151200000D03*
X158890000Y-151200000D03*
%TD*%
D13*
%TO.C,R27*%
X156490000Y-144000000D03*
X157510000Y-144000000D03*
%TD*%
%TO.C,R197*%
X226490000Y-163200000D03*
X227510000Y-163200000D03*
%TD*%
D16*
%TO.C,C281*%
X244645000Y-162425000D03*
X245605000Y-162425000D03*
%TD*%
D14*
%TO.C,U33*%
X144800000Y-159250000D03*
X144800000Y-158600000D03*
X144800000Y-157950000D03*
X146700000Y-157950000D03*
X146700000Y-158600000D03*
X146700000Y-159250000D03*
%TD*%
D12*
%TO.C,C285*%
X251725000Y-161745000D03*
X251725000Y-162705000D03*
%TD*%
D14*
%TO.C,U6*%
X144800000Y-137650000D03*
X144800000Y-137000000D03*
X144800000Y-136350000D03*
X146700000Y-136350000D03*
X146700000Y-137000000D03*
X146700000Y-137650000D03*
%TD*%
D10*
%TO.C,U57*%
X185175000Y-150875000D03*
X185175000Y-151525000D03*
X185175000Y-152175000D03*
X183275000Y-152175000D03*
X183275000Y-151525000D03*
X183275000Y-150875000D03*
%TD*%
D11*
%TO.C,R260*%
X243635000Y-162425000D03*
X242615000Y-162425000D03*
%TD*%
D13*
%TO.C,R230*%
X240115000Y-150425000D03*
X241135000Y-150425000D03*
%TD*%
D17*
%TO.C,C182*%
X223000000Y-147380000D03*
X223000000Y-146420000D03*
%TD*%
D11*
%TO.C,R2*%
X180210000Y-113900000D03*
X179190000Y-113900000D03*
%TD*%
D16*
%TO.C,C137*%
X174655000Y-159225000D03*
X175615000Y-159225000D03*
%TD*%
D12*
%TO.C,C268*%
X251725000Y-154545000D03*
X251725000Y-155505000D03*
%TD*%
D13*
%TO.C,R61*%
X156490000Y-160000000D03*
X157510000Y-160000000D03*
%TD*%
D12*
%TO.C,C275*%
X247025000Y-159045000D03*
X247025000Y-160005000D03*
%TD*%
D11*
%TO.C,R161*%
X229910000Y-148800000D03*
X228890000Y-148800000D03*
%TD*%
D12*
%TO.C,C258*%
X247025000Y-151845000D03*
X247025000Y-152805000D03*
%TD*%
D10*
%TO.C,U61*%
X185175000Y-153875000D03*
X185175000Y-154525000D03*
X185175000Y-155175000D03*
X183275000Y-155175000D03*
X183275000Y-154525000D03*
X183275000Y-153875000D03*
%TD*%
D11*
%TO.C,R15*%
X159910000Y-140000000D03*
X158890000Y-140000000D03*
%TD*%
D12*
%TO.C,C105*%
X177025000Y-144645000D03*
X177025000Y-145605000D03*
%TD*%
D15*
%TO.C,C214*%
X225480000Y-163200000D03*
X224520000Y-163200000D03*
%TD*%
D14*
%TO.C,U13*%
X149550000Y-144850000D03*
X149550000Y-144200000D03*
X149550000Y-143550000D03*
X151450000Y-143550000D03*
X151450000Y-144200000D03*
X151450000Y-144850000D03*
%TD*%
%TO.C,U8*%
X149550000Y-140850000D03*
X149550000Y-140200000D03*
X149550000Y-139550000D03*
X151450000Y-139550000D03*
X151450000Y-140200000D03*
X151450000Y-140850000D03*
%TD*%
D16*
%TO.C,C254*%
X244645000Y-150425000D03*
X245605000Y-150425000D03*
%TD*%
D14*
%TO.C,U31*%
X149550000Y-159250000D03*
X149550000Y-158600000D03*
X149550000Y-157950000D03*
X151450000Y-157950000D03*
X151450000Y-158600000D03*
X151450000Y-159250000D03*
%TD*%
D11*
%TO.C,R122*%
X173635000Y-157625000D03*
X172615000Y-157625000D03*
%TD*%
D14*
%TO.C,U4*%
X149550000Y-137650000D03*
X149550000Y-137000000D03*
X149550000Y-136350000D03*
X151450000Y-136350000D03*
X151450000Y-137000000D03*
X151450000Y-137650000D03*
%TD*%
D17*
%TO.C,C167*%
X218263500Y-140200000D03*
X218263500Y-139240000D03*
%TD*%
D13*
%TO.C,R120*%
X170115000Y-159225000D03*
X171135000Y-159225000D03*
%TD*%
D12*
%TO.C,C130*%
X177025000Y-154845000D03*
X177025000Y-155805000D03*
%TD*%
D11*
%TO.C,R153*%
X229910000Y-145600000D03*
X228890000Y-145600000D03*
%TD*%
D10*
%TO.C,U50*%
X180525000Y-143975000D03*
X180525000Y-144625000D03*
X180525000Y-145275000D03*
X178625000Y-145275000D03*
X178625000Y-144625000D03*
X178625000Y-143975000D03*
%TD*%
%TO.C,U43*%
X185175000Y-139475000D03*
X185175000Y-140125000D03*
X185175000Y-140775000D03*
X183275000Y-140775000D03*
X183275000Y-140125000D03*
X183275000Y-139475000D03*
%TD*%
D14*
%TO.C,U15*%
X144800000Y-144850000D03*
X144800000Y-144200000D03*
X144800000Y-143550000D03*
X146700000Y-143550000D03*
X146700000Y-144200000D03*
X146700000Y-144850000D03*
%TD*%
D13*
%TO.C,R53*%
X156490000Y-156000000D03*
X157510000Y-156000000D03*
%TD*%
D16*
%TO.C,C245*%
X244645000Y-146425000D03*
X245605000Y-146425000D03*
%TD*%
D13*
%TO.C,R11*%
X156490000Y-136800000D03*
X157510000Y-136800000D03*
%TD*%
D16*
%TO.C,C237*%
X244645000Y-143225000D03*
X245605000Y-143225000D03*
%TD*%
D13*
%TO.C,R70*%
X170115000Y-136025000D03*
X171135000Y-136025000D03*
%TD*%
D11*
%TO.C,R132*%
X173635000Y-162425000D03*
X172615000Y-162425000D03*
%TD*%
D16*
%TO.C,C126*%
X174645000Y-153625000D03*
X175605000Y-153625000D03*
%TD*%
D15*
%TO.C,C17*%
X155480000Y-136800000D03*
X154520000Y-136800000D03*
%TD*%
D11*
%TO.C,R82*%
X173635000Y-139225000D03*
X172615000Y-139225000D03*
%TD*%
D15*
%TO.C,C180*%
X225480000Y-148800000D03*
X224520000Y-148800000D03*
%TD*%
D11*
%TO.C,R9*%
X159910000Y-138400000D03*
X158890000Y-138400000D03*
%TD*%
D13*
%TO.C,R37*%
X156490000Y-148800000D03*
X157510000Y-148800000D03*
%TD*%
D10*
%TO.C,U111*%
X255175000Y-136475000D03*
X255175000Y-137125000D03*
X255175000Y-137775000D03*
X253275000Y-137775000D03*
X253275000Y-137125000D03*
X253275000Y-136475000D03*
%TD*%
D11*
%TO.C,R177*%
X229910000Y-156000000D03*
X228890000Y-156000000D03*
%TD*%
D13*
%TO.C,R248*%
X240115000Y-159225000D03*
X241135000Y-159225000D03*
%TD*%
D11*
%TO.C,R183*%
X229910000Y-158400000D03*
X228890000Y-158400000D03*
%TD*%
D10*
%TO.C,U68*%
X180525000Y-158375000D03*
X180525000Y-159025000D03*
X180525000Y-159675000D03*
X178625000Y-159675000D03*
X178625000Y-159025000D03*
X178625000Y-158375000D03*
%TD*%
D15*
%TO.C,C78*%
X155480000Y-163200000D03*
X154520000Y-163200000D03*
%TD*%
D14*
%TO.C,U96*%
X214800000Y-152050000D03*
X214800000Y-151400000D03*
X214800000Y-150750000D03*
X216700000Y-150750000D03*
X216700000Y-151400000D03*
X216700000Y-152050000D03*
%TD*%
D11*
%TO.C,R202*%
X243635000Y-136025000D03*
X242615000Y-136025000D03*
%TD*%
D13*
%TO.C,R78*%
X170115000Y-139225000D03*
X171135000Y-139225000D03*
%TD*%
D18*
%TO.C,C301*%
X235448566Y-88450000D03*
X232498566Y-88450000D03*
%TD*%
D17*
%TO.C,C199*%
X223000000Y-154580000D03*
X223000000Y-153620000D03*
%TD*%
D11*
%TO.C,R106*%
X173635000Y-150425000D03*
X172615000Y-150425000D03*
%TD*%
D17*
%TO.C,C218*%
X218263500Y-161800000D03*
X218263500Y-160840000D03*
%TD*%
D15*
%TO.C,C163*%
X225480000Y-141600000D03*
X224520000Y-141600000D03*
%TD*%
D13*
%TO.C,R224*%
X240115000Y-148025000D03*
X241135000Y-148025000D03*
%TD*%
D11*
%TO.C,R7*%
X159910000Y-136800000D03*
X158890000Y-136800000D03*
%TD*%
D15*
%TO.C,C34*%
X155480000Y-144000000D03*
X154520000Y-144000000D03*
%TD*%
D11*
%TO.C,R130*%
X173635000Y-160825000D03*
X172615000Y-160825000D03*
%TD*%
D16*
%TO.C,C94*%
X174645000Y-140825000D03*
X175605000Y-140825000D03*
%TD*%
%TO.C,C109*%
X174645000Y-146425000D03*
X175605000Y-146425000D03*
%TD*%
D12*
%TO.C,C107*%
X181725000Y-144345000D03*
X181725000Y-145305000D03*
%TD*%
%TO.C,C96*%
X177025000Y-140445000D03*
X177025000Y-141405000D03*
%TD*%
D10*
%TO.C,U135*%
X250525000Y-154175000D03*
X250525000Y-154825000D03*
X250525000Y-155475000D03*
X248625000Y-155475000D03*
X248625000Y-154825000D03*
X248625000Y-154175000D03*
%TD*%
D11*
%TO.C,R159*%
X229910000Y-147200000D03*
X228890000Y-147200000D03*
%TD*%
%TO.C,R151*%
X229910000Y-144000000D03*
X228890000Y-144000000D03*
%TD*%
D17*
%TO.C,C184*%
X218263500Y-147400000D03*
X218263500Y-146440000D03*
%TD*%
D13*
%TO.C,R72*%
X170115000Y-137625000D03*
X171135000Y-137625000D03*
%TD*%
D12*
%TO.C,C147*%
X177025000Y-162045000D03*
X177025000Y-163005000D03*
%TD*%
D10*
%TO.C,U45*%
X180525000Y-139775000D03*
X180525000Y-140425000D03*
X180525000Y-141075000D03*
X178625000Y-141075000D03*
X178625000Y-140425000D03*
X178625000Y-139775000D03*
%TD*%
D11*
%TO.C,R143*%
X229910000Y-140000000D03*
X228890000Y-140000000D03*
%TD*%
D12*
%TO.C,C283*%
X247025000Y-162045000D03*
X247025000Y-163005000D03*
%TD*%
D10*
%TO.C,U142*%
X255175000Y-161075000D03*
X255175000Y-161725000D03*
X255175000Y-162375000D03*
X253275000Y-162375000D03*
X253275000Y-161725000D03*
X253275000Y-161075000D03*
%TD*%
D11*
%TO.C,R169*%
X229910000Y-152800000D03*
X228890000Y-152800000D03*
%TD*%
D13*
%TO.C,R126*%
X170115000Y-160825000D03*
X171135000Y-160825000D03*
%TD*%
%TO.C,R165*%
X226490000Y-148800000D03*
X227510000Y-148800000D03*
%TD*%
%TO.C,R35*%
X156490000Y-147200000D03*
X157510000Y-147200000D03*
%TD*%
D14*
%TO.C,U91*%
X214800000Y-148050000D03*
X214800000Y-147400000D03*
X214800000Y-146750000D03*
X216700000Y-146750000D03*
X216700000Y-147400000D03*
X216700000Y-148050000D03*
%TD*%
%TO.C,U19*%
X144800000Y-148050000D03*
X144800000Y-147400000D03*
X144800000Y-146750000D03*
X146700000Y-146750000D03*
X146700000Y-147400000D03*
X146700000Y-148050000D03*
%TD*%
D10*
%TO.C,U48*%
X185175000Y-143675000D03*
X185175000Y-144325000D03*
X185175000Y-144975000D03*
X183275000Y-144975000D03*
X183275000Y-144325000D03*
X183275000Y-143675000D03*
%TD*%
D13*
%TO.C,R206*%
X240115000Y-139225000D03*
X241135000Y-139225000D03*
%TD*%
D16*
%TO.C,C84*%
X174645000Y-136025000D03*
X175605000Y-136025000D03*
%TD*%
%TO.C,C101*%
X174645000Y-143225000D03*
X175605000Y-143225000D03*
%TD*%
%TO.C,C256*%
X244655000Y-152025000D03*
X245615000Y-152025000D03*
%TD*%
D17*
%TO.C,C23*%
X148250000Y-137000000D03*
X148250000Y-136040000D03*
%TD*%
D11*
%TO.C,R204*%
X243645000Y-137625000D03*
X242625000Y-137625000D03*
%TD*%
%TO.C,R193*%
X229910000Y-163200000D03*
X228890000Y-163200000D03*
%TD*%
D16*
%TO.C,C239*%
X244655000Y-144825000D03*
X245615000Y-144825000D03*
%TD*%
D13*
%TO.C,R256*%
X240115000Y-162425000D03*
X241135000Y-162425000D03*
%TD*%
D16*
%TO.C,C86*%
X174655000Y-137625000D03*
X175615000Y-137625000D03*
%TD*%
D12*
%TO.C,C124*%
X181725000Y-151545000D03*
X181725000Y-152505000D03*
%TD*%
D17*
%TO.C,C46*%
X153000000Y-147380000D03*
X153000000Y-146420000D03*
%TD*%
D13*
%TO.C,R141*%
X226490000Y-138400000D03*
X227510000Y-138400000D03*
%TD*%
D10*
%TO.C,U63*%
X180525000Y-154175000D03*
X180525000Y-154825000D03*
X180525000Y-155475000D03*
X178625000Y-155475000D03*
X178625000Y-154825000D03*
X178625000Y-154175000D03*
%TD*%
D11*
%TO.C,R100*%
X173635000Y-148025000D03*
X172615000Y-148025000D03*
%TD*%
D14*
%TO.C,U37*%
X144800000Y-162450000D03*
X144800000Y-161800000D03*
X144800000Y-161150000D03*
X146700000Y-161150000D03*
X146700000Y-161800000D03*
X146700000Y-162450000D03*
%TD*%
D11*
%TO.C,R49*%
X159910000Y-156000000D03*
X158890000Y-156000000D03*
%TD*%
D16*
%TO.C,C264*%
X244645000Y-155225000D03*
X245605000Y-155225000D03*
%TD*%
D11*
%TO.C,R17*%
X159910000Y-141600000D03*
X158890000Y-141600000D03*
%TD*%
D10*
%TO.C,U115*%
X255175000Y-139475000D03*
X255175000Y-140125000D03*
X255175000Y-140775000D03*
X253275000Y-140775000D03*
X253275000Y-140125000D03*
X253275000Y-139475000D03*
%TD*%
D11*
%TO.C,R212*%
X243635000Y-140825000D03*
X242615000Y-140825000D03*
%TD*%
D13*
%TO.C,R19*%
X156490000Y-140000000D03*
X157510000Y-140000000D03*
%TD*%
D11*
%TO.C,R90*%
X173635000Y-143225000D03*
X172615000Y-143225000D03*
%TD*%
%TO.C,R41*%
X159910000Y-152800000D03*
X158890000Y-152800000D03*
%TD*%
D17*
%TO.C,C159*%
X218250000Y-137000000D03*
X218250000Y-136040000D03*
%TD*%
D13*
%TO.C,R149*%
X226490000Y-141600000D03*
X227510000Y-141600000D03*
%TD*%
D14*
%TO.C,U105*%
X214800000Y-159250000D03*
X214800000Y-158600000D03*
X214800000Y-157950000D03*
X216700000Y-157950000D03*
X216700000Y-158600000D03*
X216700000Y-159250000D03*
%TD*%
D16*
%TO.C,C118*%
X174645000Y-150425000D03*
X175605000Y-150425000D03*
%TD*%
D17*
%TO.C,C31*%
X148263500Y-140200000D03*
X148263500Y-139240000D03*
%TD*%
D13*
%TO.C,R214*%
X240115000Y-143225000D03*
X241135000Y-143225000D03*
%TD*%
%TO.C,R187*%
X226490000Y-158400000D03*
X227510000Y-158400000D03*
%TD*%
D17*
%TO.C,C176*%
X218250000Y-144200000D03*
X218250000Y-143240000D03*
%TD*%
D10*
%TO.C,U126*%
X250525000Y-146975000D03*
X250525000Y-147625000D03*
X250525000Y-148275000D03*
X248625000Y-148275000D03*
X248625000Y-147625000D03*
X248625000Y-146975000D03*
%TD*%
D17*
%TO.C,C63*%
X153000000Y-154580000D03*
X153000000Y-153620000D03*
%TD*%
D15*
%TO.C,C187*%
X225480000Y-151200000D03*
X224520000Y-151200000D03*
%TD*%
D10*
%TO.C,U59*%
X180525000Y-151175000D03*
X180525000Y-151825000D03*
X180525000Y-152475000D03*
X178625000Y-152475000D03*
X178625000Y-151825000D03*
X178625000Y-151175000D03*
%TD*%
D15*
%TO.C,C61*%
X155480000Y-156000000D03*
X154520000Y-156000000D03*
%TD*%
D11*
%TO.C,R135*%
X229910000Y-136800000D03*
X228890000Y-136800000D03*
%TD*%
%TO.C,R33*%
X159910000Y-148800000D03*
X158890000Y-148800000D03*
%TD*%
%TO.C,R47*%
X159910000Y-154400000D03*
X158890000Y-154400000D03*
%TD*%
D13*
%TO.C,R163*%
X226490000Y-147200000D03*
X227510000Y-147200000D03*
%TD*%
D12*
%TO.C,C232*%
X247025000Y-140445000D03*
X247025000Y-141405000D03*
%TD*%
D13*
%TO.C,R29*%
X156490000Y-145600000D03*
X157510000Y-145600000D03*
%TD*%
D12*
%TO.C,C260*%
X251725000Y-151545000D03*
X251725000Y-152505000D03*
%TD*%
D15*
%TO.C,C195*%
X225480000Y-154400000D03*
X224520000Y-154400000D03*
%TD*%
D11*
%TO.C,R55*%
X159910000Y-158400000D03*
X158890000Y-158400000D03*
%TD*%
D14*
%TO.C,U107*%
X219550000Y-162450000D03*
X219550000Y-161800000D03*
X219550000Y-161150000D03*
X221450000Y-161150000D03*
X221450000Y-161800000D03*
X221450000Y-162450000D03*
%TD*%
D11*
%TO.C,R114*%
X173635000Y-153625000D03*
X172615000Y-153625000D03*
%TD*%
D16*
%TO.C,C228*%
X244645000Y-139225000D03*
X245605000Y-139225000D03*
%TD*%
D15*
%TO.C,C172*%
X225480000Y-145600000D03*
X224520000Y-145600000D03*
%TD*%
D19*
%TO.C,J4*%
X238773566Y-81550000D03*
D20*
X235898566Y-81850000D03*
D19*
X238773566Y-82150000D03*
D20*
X235898566Y-82450000D03*
D19*
X238773566Y-82750000D03*
D20*
X235898566Y-83050000D03*
D19*
X238773566Y-83350000D03*
D20*
X235898566Y-83650000D03*
D19*
X238773566Y-83950000D03*
D20*
X235898566Y-84250000D03*
D19*
X238773566Y-84550000D03*
D20*
X235898566Y-84850000D03*
D19*
X238773566Y-85150000D03*
D20*
X235898566Y-85450000D03*
D19*
X238773566Y-85750000D03*
D21*
X238498566Y-86450000D03*
X238498566Y-80850000D03*
%TD*%
D22*
%TO.C,C302*%
X237423566Y-88450000D03*
X239323566Y-88450000D03*
%TD*%
D13*
%TO.C,R51*%
X156490000Y-154400000D03*
X157510000Y-154400000D03*
%TD*%
%TO.C,R118*%
X170115000Y-157625000D03*
X171135000Y-157625000D03*
%TD*%
%TO.C,R96*%
X170115000Y-148025000D03*
X171135000Y-148025000D03*
%TD*%
D11*
%TO.C,R210*%
X243635000Y-139225000D03*
X242615000Y-139225000D03*
%TD*%
D15*
%TO.C,C70*%
X155480000Y-160000000D03*
X154520000Y-160000000D03*
%TD*%
D13*
%TO.C,R240*%
X240115000Y-155225000D03*
X241135000Y-155225000D03*
%TD*%
%TO.C,R208*%
X240115000Y-140825000D03*
X241135000Y-140825000D03*
%TD*%
%TO.C,R171*%
X226490000Y-151200000D03*
X227510000Y-151200000D03*
%TD*%
D16*
%TO.C,C143*%
X174645000Y-160825000D03*
X175605000Y-160825000D03*
%TD*%
D14*
%TO.C,U17*%
X149550000Y-148050000D03*
X149550000Y-147400000D03*
X149550000Y-146750000D03*
X151450000Y-146750000D03*
X151450000Y-147400000D03*
X151450000Y-148050000D03*
%TD*%
D13*
%TO.C,R13*%
X156490000Y-138400000D03*
X157510000Y-138400000D03*
%TD*%
D23*
%TO.C,R277*%
X240673566Y-86240000D03*
X240673566Y-87260000D03*
%TD*%
D10*
%TO.C,U66*%
X185175000Y-158075000D03*
X185175000Y-158725000D03*
X185175000Y-159375000D03*
X183275000Y-159375000D03*
X183275000Y-158725000D03*
X183275000Y-158075000D03*
%TD*%
D17*
%TO.C,C80*%
X153000000Y-161780000D03*
X153000000Y-160820000D03*
%TD*%
D12*
%TO.C,C226*%
X251725000Y-137145000D03*
X251725000Y-138105000D03*
%TD*%
D16*
%TO.C,C220*%
X244645000Y-136025000D03*
X245605000Y-136025000D03*
%TD*%
%TO.C,C111*%
X174645000Y-148025000D03*
X175605000Y-148025000D03*
%TD*%
D12*
%TO.C,C224*%
X247025000Y-137445000D03*
X247025000Y-138405000D03*
%TD*%
D17*
%TO.C,C201*%
X218263500Y-154600000D03*
X218263500Y-153640000D03*
%TD*%
D13*
%TO.C,R110*%
X170115000Y-153625000D03*
X171135000Y-153625000D03*
%TD*%
D10*
%TO.C,U131*%
X250525000Y-151175000D03*
X250525000Y-151825000D03*
X250525000Y-152475000D03*
X248625000Y-152475000D03*
X248625000Y-151825000D03*
X248625000Y-151175000D03*
%TD*%
D15*
%TO.C,C68*%
X155480000Y-158400000D03*
X154520000Y-158400000D03*
%TD*%
D11*
%TO.C,R191*%
X229910000Y-161600000D03*
X228890000Y-161600000D03*
%TD*%
D14*
%TO.C,U94*%
X219550000Y-152050000D03*
X219550000Y-151400000D03*
X219550000Y-150750000D03*
X221450000Y-150750000D03*
X221450000Y-151400000D03*
X221450000Y-152050000D03*
%TD*%
D10*
%TO.C,U124*%
X255175000Y-146675000D03*
X255175000Y-147325000D03*
X255175000Y-147975000D03*
X253275000Y-147975000D03*
X253275000Y-147325000D03*
X253275000Y-146675000D03*
%TD*%
D14*
%TO.C,U103*%
X219550000Y-159250000D03*
X219550000Y-158600000D03*
X219550000Y-157950000D03*
X221450000Y-157950000D03*
X221450000Y-158600000D03*
X221450000Y-159250000D03*
%TD*%
D11*
%TO.C,R258*%
X243635000Y-160825000D03*
X242615000Y-160825000D03*
%TD*%
%TO.C,R31*%
X159910000Y-147200000D03*
X158890000Y-147200000D03*
%TD*%
D17*
%TO.C,C48*%
X148263500Y-147400000D03*
X148263500Y-146440000D03*
%TD*%
D11*
%TO.C,R226*%
X243635000Y-146425000D03*
X242615000Y-146425000D03*
%TD*%
D13*
%TO.C,R254*%
X240115000Y-160825000D03*
X241135000Y-160825000D03*
%TD*%
M02*
