%TF.GenerationSoftware,KiCad,Pcbnew,8.0.1*%
%TF.CreationDate,2024-11-14T18:54:37-05:00*%
%TF.ProjectId,ephys-test-board,65706879-732d-4746-9573-742d626f6172,rev?*%
%TF.SameCoordinates,Original*%
%TF.FileFunction,Paste,Top*%
%TF.FilePolarity,Positive*%
%FSLAX46Y46*%
G04 Gerber Fmt 4.6, Leading zero omitted, Abs format (unit mm)*
G04 Created by KiCad (PCBNEW 8.0.1) date 2024-11-14 18:54:37*
%MOMM*%
%LPD*%
G01*
G04 APERTURE LIST*
G04 Aperture macros list*
%AMRoundRect*
0 Rectangle with rounded corners*
0 $1 Rounding radius*
0 $2 $3 $4 $5 $6 $7 $8 $9 X,Y pos of 4 corners*
0 Add a 4 corners polygon primitive as box body*
4,1,4,$2,$3,$4,$5,$6,$7,$8,$9,$2,$3,0*
0 Add four circle primitives for the rounded corners*
1,1,$1+$1,$2,$3*
1,1,$1+$1,$4,$5*
1,1,$1+$1,$6,$7*
1,1,$1+$1,$8,$9*
0 Add four rect primitives between the rounded corners*
20,1,$1+$1,$2,$3,$4,$5,0*
20,1,$1+$1,$4,$5,$6,$7,0*
20,1,$1+$1,$6,$7,$8,$9,0*
20,1,$1+$1,$8,$9,$2,$3,0*%
G04 Aperture macros list end*
%ADD10RoundRect,0.218750X-0.256250X0.218750X-0.256250X-0.218750X0.256250X-0.218750X0.256250X0.218750X0*%
%ADD11RoundRect,0.135000X-0.185000X0.135000X-0.185000X-0.135000X0.185000X-0.135000X0.185000X0.135000X0*%
%ADD12RoundRect,0.140000X0.140000X0.170000X-0.140000X0.170000X-0.140000X-0.170000X0.140000X-0.170000X0*%
%ADD13RoundRect,0.140000X0.170000X-0.140000X0.170000X0.140000X-0.170000X0.140000X-0.170000X-0.140000X0*%
%ADD14RoundRect,0.225000X0.225000X0.250000X-0.225000X0.250000X-0.225000X-0.250000X0.225000X-0.250000X0*%
%ADD15RoundRect,0.140000X-0.140000X-0.170000X0.140000X-0.170000X0.140000X0.170000X-0.140000X0.170000X0*%
%ADD16RoundRect,0.225000X0.250000X-0.225000X0.250000X0.225000X-0.250000X0.225000X-0.250000X-0.225000X0*%
%ADD17RoundRect,0.140000X-0.170000X0.140000X-0.170000X-0.140000X0.170000X-0.140000X0.170000X0.140000X0*%
%ADD18RoundRect,0.250000X-0.325000X-0.650000X0.325000X-0.650000X0.325000X0.650000X-0.325000X0.650000X0*%
%ADD19RoundRect,0.225000X-0.250000X0.225000X-0.250000X-0.225000X0.250000X-0.225000X0.250000X0.225000X0*%
%ADD20R,1.450000X0.457000*%
%ADD21RoundRect,0.150000X0.150000X0.625000X-0.150000X0.625000X-0.150000X-0.625000X0.150000X-0.625000X0*%
%ADD22RoundRect,0.250000X0.350000X0.650000X-0.350000X0.650000X-0.350000X-0.650000X0.350000X-0.650000X0*%
%ADD23RoundRect,0.250000X-0.625000X0.312500X-0.625000X-0.312500X0.625000X-0.312500X0.625000X0.312500X0*%
%ADD24RoundRect,0.200000X-0.200000X-0.275000X0.200000X-0.275000X0.200000X0.275000X-0.200000X0.275000X0*%
%ADD25RoundRect,0.135000X-0.135000X-0.185000X0.135000X-0.185000X0.135000X0.185000X-0.135000X0.185000X0*%
%ADD26RoundRect,0.150000X-0.150000X0.512500X-0.150000X-0.512500X0.150000X-0.512500X0.150000X0.512500X0*%
%ADD27RoundRect,0.070000X-0.355000X0.070000X-0.355000X-0.070000X0.355000X-0.070000X0.355000X0.070000X0*%
%ADD28RoundRect,0.070000X-0.305000X0.070000X-0.305000X-0.070000X0.305000X-0.070000X0.305000X0.070000X0*%
%ADD29RoundRect,0.135000X0.135000X0.185000X-0.135000X0.185000X-0.135000X-0.185000X0.135000X-0.185000X0*%
%ADD30RoundRect,0.100000X0.225000X0.100000X-0.225000X0.100000X-0.225000X-0.100000X0.225000X-0.100000X0*%
%ADD31RoundRect,0.100000X-0.637500X-0.100000X0.637500X-0.100000X0.637500X0.100000X-0.637500X0.100000X0*%
%ADD32RoundRect,0.100000X-0.225000X-0.100000X0.225000X-0.100000X0.225000X0.100000X-0.225000X0.100000X0*%
%ADD33RoundRect,0.225000X-0.375000X0.225000X-0.375000X-0.225000X0.375000X-0.225000X0.375000X0.225000X0*%
%ADD34RoundRect,0.250000X-0.650000X0.325000X-0.650000X-0.325000X0.650000X-0.325000X0.650000X0.325000X0*%
%ADD35RoundRect,0.150000X-0.150000X0.587500X-0.150000X-0.587500X0.150000X-0.587500X0.150000X0.587500X0*%
%ADD36RoundRect,0.100000X0.637500X0.100000X-0.637500X0.100000X-0.637500X-0.100000X0.637500X-0.100000X0*%
%ADD37RoundRect,0.135000X0.185000X-0.135000X0.185000X0.135000X-0.185000X0.135000X-0.185000X-0.135000X0*%
%ADD38RoundRect,0.150000X0.512500X0.150000X-0.512500X0.150000X-0.512500X-0.150000X0.512500X-0.150000X0*%
%ADD39RoundRect,0.150000X0.150000X-0.587500X0.150000X0.587500X-0.150000X0.587500X-0.150000X-0.587500X0*%
%ADD40RoundRect,0.150000X0.150000X-0.650000X0.150000X0.650000X-0.150000X0.650000X-0.150000X-0.650000X0*%
%ADD41R,1.400000X1.200000*%
%ADD42RoundRect,0.087500X0.725000X0.087500X-0.725000X0.087500X-0.725000X-0.087500X0.725000X-0.087500X0*%
%ADD43RoundRect,0.225000X-0.225000X-0.375000X0.225000X-0.375000X0.225000X0.375000X-0.225000X0.375000X0*%
%ADD44RoundRect,0.050000X-0.050000X-0.387500X0.050000X-0.387500X0.050000X0.387500X-0.050000X0.387500X0*%
%ADD45RoundRect,0.050000X-0.387500X-0.050000X0.387500X-0.050000X0.387500X0.050000X-0.387500X0.050000X0*%
%ADD46RoundRect,0.249999X-0.395001X-0.395001X0.395001X-0.395001X0.395001X0.395001X-0.395001X0.395001X0*%
%ADD47RoundRect,0.150000X-0.512500X-0.150000X0.512500X-0.150000X0.512500X0.150000X-0.512500X0.150000X0*%
%ADD48R,0.300000X0.800000*%
%ADD49O,1.000000X1.800000*%
%ADD50O,1.000000X2.100000*%
%ADD51RoundRect,0.150000X0.150000X0.425000X-0.150000X0.425000X-0.150000X-0.425000X0.150000X-0.425000X0*%
%ADD52RoundRect,0.075000X0.075000X0.500000X-0.075000X0.500000X-0.075000X-0.500000X0.075000X-0.500000X0*%
%ADD53RoundRect,0.250001X-0.499999X-1.449999X0.499999X-1.449999X0.499999X1.449999X-0.499999X1.449999X0*%
%ADD54RoundRect,0.250000X-0.250000X-1.500000X0.250000X-1.500000X0.250000X1.500000X-0.250000X1.500000X0*%
%ADD55RoundRect,0.150000X0.587500X0.150000X-0.587500X0.150000X-0.587500X-0.150000X0.587500X-0.150000X0*%
G04 APERTURE END LIST*
D10*
%TO.C,D4*%
X208300000Y-57612500D03*
X208300000Y-59187500D03*
%TD*%
D11*
%TO.C,R283*%
X210200000Y-63590000D03*
X210200000Y-64610000D03*
%TD*%
D12*
%TO.C,C292*%
X250080000Y-65500000D03*
X249120000Y-65500000D03*
%TD*%
D13*
%TO.C,C294*%
X235150000Y-66880000D03*
X235150000Y-65920000D03*
%TD*%
D14*
%TO.C,C295*%
X193775000Y-78937500D03*
X192225000Y-78937500D03*
%TD*%
D15*
%TO.C,C296*%
X241570000Y-63200000D03*
X242530000Y-63200000D03*
%TD*%
D16*
%TO.C,C297*%
X195600000Y-82912500D03*
X195600000Y-81362500D03*
%TD*%
D17*
%TO.C,C298*%
X204000000Y-82820000D03*
X204000000Y-83780000D03*
%TD*%
D18*
%TO.C,C299*%
X204325000Y-72300000D03*
X207275000Y-72300000D03*
%TD*%
D19*
%TO.C,C300*%
X240873566Y-83375000D03*
X240873566Y-84925000D03*
%TD*%
D15*
%TO.C,C303*%
X241570000Y-72600000D03*
X242530000Y-72600000D03*
%TD*%
D14*
%TO.C,C304*%
X238048566Y-80250000D03*
X236498566Y-80250000D03*
%TD*%
%TO.C,C305*%
X238273566Y-82450000D03*
X236723566Y-82450000D03*
%TD*%
D20*
%TO.C,J2*%
X168086000Y-134400000D03*
X161914000Y-134400000D03*
X168086000Y-135200000D03*
X161914000Y-135200000D03*
X168086000Y-136000000D03*
X161914000Y-136000000D03*
X168086000Y-136800000D03*
X161914000Y-136800000D03*
X168086000Y-137600000D03*
X161914000Y-137600000D03*
X168086000Y-138400000D03*
X161914000Y-138400000D03*
X168086000Y-139200000D03*
X161914000Y-139200000D03*
X168086000Y-140000000D03*
X161914000Y-140000000D03*
X168086000Y-140800000D03*
X161914000Y-140800000D03*
X168086000Y-141600000D03*
X161914000Y-141600000D03*
X168086000Y-142400000D03*
X161914000Y-142400000D03*
X168086000Y-143200000D03*
X161914000Y-143200000D03*
X168086000Y-144000000D03*
X161914000Y-144000000D03*
X168086000Y-144800000D03*
X161914000Y-144800000D03*
X168086000Y-145600000D03*
X161914000Y-145600000D03*
X168086000Y-146400000D03*
X161914000Y-146400000D03*
X168086000Y-147200000D03*
X161914000Y-147200000D03*
X168086000Y-148000000D03*
X161914000Y-148000000D03*
X168086000Y-148800000D03*
X161914000Y-148800000D03*
X168086000Y-149600000D03*
X161914000Y-149600000D03*
X168086000Y-150400000D03*
X161914000Y-150400000D03*
X168086000Y-151200000D03*
X161914000Y-151200000D03*
X168086000Y-152000000D03*
X161914000Y-152000000D03*
X168086000Y-152800000D03*
X161914000Y-152800000D03*
X168086000Y-153600000D03*
X161914000Y-153600000D03*
X168086000Y-154400000D03*
X161914000Y-154400000D03*
X168086000Y-155200000D03*
X161914000Y-155200000D03*
X168086000Y-156000000D03*
X161914000Y-156000000D03*
X168086000Y-156800000D03*
X161914000Y-156800000D03*
X168086000Y-157600000D03*
X161914000Y-157600000D03*
X168086000Y-158400000D03*
X161914000Y-158400000D03*
X168086000Y-159200000D03*
X161914000Y-159200000D03*
X168086000Y-160000000D03*
X161914000Y-160000000D03*
X168086000Y-160800000D03*
X161914000Y-160800000D03*
X168086000Y-161600000D03*
X161914000Y-161600000D03*
X168086000Y-162400000D03*
X161914000Y-162400000D03*
X168086000Y-163200000D03*
X161914000Y-163200000D03*
X168086000Y-164000000D03*
X161914000Y-164000000D03*
X168086000Y-164800000D03*
X161914000Y-164800000D03*
X168086000Y-165600000D03*
X161914000Y-165600000D03*
%TD*%
D21*
%TO.C,J8*%
X174100000Y-122475000D03*
X173100000Y-122475000D03*
X172100000Y-122475000D03*
D22*
X175400000Y-125000000D03*
X170800000Y-125000000D03*
%TD*%
D23*
%TO.C,R262*%
X150000000Y-70037500D03*
X150000000Y-72962500D03*
%TD*%
D11*
%TO.C,R268*%
X251500000Y-64390000D03*
X251500000Y-65410000D03*
%TD*%
D24*
%TO.C,R270*%
X202162500Y-80175000D03*
X203812500Y-80175000D03*
%TD*%
D25*
%TO.C,R275*%
X153690000Y-108600000D03*
X154710000Y-108600000D03*
%TD*%
D26*
%TO.C,U151*%
X193750000Y-81000000D03*
X192800000Y-81000000D03*
X191850000Y-81000000D03*
X191850000Y-83275000D03*
X193750000Y-83275000D03*
%TD*%
D27*
%TO.C,U152*%
X201675000Y-82800000D03*
D28*
X201625000Y-83300000D03*
X201625000Y-83800000D03*
X202775000Y-83800000D03*
X202775000Y-83300000D03*
X202775000Y-82800000D03*
%TD*%
D16*
%TO.C,C307*%
X240773566Y-81625000D03*
X240773566Y-80075000D03*
%TD*%
D29*
%TO.C,R101*%
X172615000Y-148825000D03*
X173635000Y-148825000D03*
%TD*%
D25*
%TO.C,R127*%
X171135000Y-161625000D03*
X170115000Y-161625000D03*
%TD*%
D15*
%TO.C,C272*%
X244645000Y-158425000D03*
X245605000Y-158425000D03*
%TD*%
D29*
%TO.C,R38*%
X158890000Y-150400000D03*
X159910000Y-150400000D03*
%TD*%
D12*
%TO.C,C253*%
X264367500Y-142200000D03*
X263407500Y-142200000D03*
%TD*%
D30*
%TO.C,U130*%
X255175000Y-152175000D03*
X255175000Y-151525000D03*
X255175000Y-150875000D03*
X253275000Y-150875000D03*
X253275000Y-151525000D03*
X253275000Y-152175000D03*
%TD*%
D11*
%TO.C,R266*%
X201400000Y-64010000D03*
X201400000Y-62990000D03*
%TD*%
D25*
%TO.C,R215*%
X241135000Y-144025000D03*
X240115000Y-144025000D03*
%TD*%
D15*
%TO.C,C185*%
X205620000Y-149400000D03*
X206580000Y-149400000D03*
%TD*%
%TO.C,C3*%
X160650000Y-120040000D03*
X161610000Y-120040000D03*
%TD*%
D17*
%TO.C,C106*%
X177025000Y-144645000D03*
X177025000Y-145605000D03*
%TD*%
D29*
%TO.C,R93*%
X172625000Y-145625000D03*
X173645000Y-145625000D03*
%TD*%
D31*
%TO.C,U128*%
X258625000Y-143425000D03*
X258625000Y-144075000D03*
X258625000Y-144725000D03*
X258625000Y-145375000D03*
X258625000Y-146025000D03*
X258625000Y-146675000D03*
X258625000Y-147325000D03*
X258625000Y-147975000D03*
X264350000Y-147975000D03*
X264350000Y-147325000D03*
X264350000Y-146675000D03*
X264350000Y-146025000D03*
X264350000Y-145375000D03*
X264350000Y-144725000D03*
X264350000Y-144075000D03*
X264350000Y-143425000D03*
%TD*%
D29*
%TO.C,R22*%
X158890000Y-143200000D03*
X159910000Y-143200000D03*
%TD*%
D25*
%TO.C,R119*%
X171135000Y-158425000D03*
X170115000Y-158425000D03*
%TD*%
D12*
%TO.C,C196*%
X225480000Y-155200000D03*
X224520000Y-155200000D03*
%TD*%
D17*
%TO.C,C131*%
X177025000Y-154845000D03*
X177025000Y-155805000D03*
%TD*%
D29*
%TO.C,R251*%
X242615000Y-158425000D03*
X243635000Y-158425000D03*
%TD*%
D25*
%TO.C,R42*%
X157510000Y-150400000D03*
X156490000Y-150400000D03*
%TD*%
D11*
%TO.C,R267*%
X198500000Y-64010000D03*
X198500000Y-62990000D03*
%TD*%
D32*
%TO.C,U7*%
X149550000Y-139550000D03*
X149550000Y-140200000D03*
X149550000Y-140850000D03*
X151450000Y-140850000D03*
X151450000Y-140200000D03*
X151450000Y-139550000D03*
%TD*%
D29*
%TO.C,R219*%
X242615000Y-144025000D03*
X243635000Y-144025000D03*
%TD*%
D32*
%TO.C,U77*%
X214800000Y-136350000D03*
X214800000Y-137000000D03*
X214800000Y-137650000D03*
X216700000Y-137650000D03*
X216700000Y-137000000D03*
X216700000Y-136350000D03*
%TD*%
D25*
%TO.C,R170*%
X227510000Y-150400000D03*
X226490000Y-150400000D03*
%TD*%
%TO.C,R278*%
X235210000Y-68150000D03*
X234190000Y-68150000D03*
%TD*%
D29*
%TO.C,R107*%
X172615000Y-151225000D03*
X173635000Y-151225000D03*
%TD*%
%TO.C,R205*%
X242625000Y-138425000D03*
X243645000Y-138425000D03*
%TD*%
D30*
%TO.C,U112*%
X255175000Y-137775000D03*
X255175000Y-137125000D03*
X255175000Y-136475000D03*
X253275000Y-136475000D03*
X253275000Y-137125000D03*
X253275000Y-137775000D03*
%TD*%
D33*
%TO.C,D1*%
X144700000Y-70250000D03*
X144700000Y-73550000D03*
%TD*%
D31*
%TO.C,U56*%
X188625000Y-143425000D03*
X188625000Y-144075000D03*
X188625000Y-144725000D03*
X188625000Y-145375000D03*
X188625000Y-146025000D03*
X188625000Y-146675000D03*
X188625000Y-147325000D03*
X188625000Y-147975000D03*
X194350000Y-147975000D03*
X194350000Y-147325000D03*
X194350000Y-146675000D03*
X194350000Y-146025000D03*
X194350000Y-145375000D03*
X194350000Y-144725000D03*
X194350000Y-144075000D03*
X194350000Y-143425000D03*
%TD*%
D13*
%TO.C,C156*%
X223000000Y-137000000D03*
X223000000Y-136040000D03*
%TD*%
D29*
%TO.C,R160*%
X228890000Y-148000000D03*
X229910000Y-148000000D03*
%TD*%
D32*
%TO.C,U16*%
X149550000Y-146750000D03*
X149550000Y-147400000D03*
X149550000Y-148050000D03*
X151450000Y-148050000D03*
X151450000Y-147400000D03*
X151450000Y-146750000D03*
%TD*%
D12*
%TO.C,C18*%
X155480000Y-137600000D03*
X154520000Y-137600000D03*
%TD*%
D11*
%TO.C,R285*%
X151200000Y-114410000D03*
X151200000Y-113390000D03*
%TD*%
D17*
%TO.C,C235*%
X251725000Y-140145000D03*
X251725000Y-141105000D03*
%TD*%
D12*
%TO.C,C134*%
X194367500Y-149400000D03*
X193407500Y-149400000D03*
%TD*%
D25*
%TO.C,R217*%
X241135000Y-145625000D03*
X240115000Y-145625000D03*
%TD*%
D15*
%TO.C,C136*%
X174645000Y-158425000D03*
X175605000Y-158425000D03*
%TD*%
%TO.C,C129*%
X174645000Y-156025000D03*
X175605000Y-156025000D03*
%TD*%
D29*
%TO.C,R131*%
X172615000Y-161625000D03*
X173635000Y-161625000D03*
%TD*%
D15*
%TO.C,C95*%
X174645000Y-141625000D03*
X175605000Y-141625000D03*
%TD*%
%TO.C,C138*%
X174655000Y-160025000D03*
X175615000Y-160025000D03*
%TD*%
D29*
%TO.C,R253*%
X242625000Y-160025000D03*
X243645000Y-160025000D03*
%TD*%
D15*
%TO.C,C246*%
X244645000Y-147225000D03*
X245605000Y-147225000D03*
%TD*%
D12*
%TO.C,C194*%
X225480000Y-153600000D03*
X224520000Y-153600000D03*
%TD*%
D32*
%TO.C,U93*%
X219550000Y-150750000D03*
X219550000Y-151400000D03*
X219550000Y-152050000D03*
X221450000Y-152050000D03*
X221450000Y-151400000D03*
X221450000Y-150750000D03*
%TD*%
D34*
%TO.C,C290*%
X149700000Y-97225000D03*
X149700000Y-100175000D03*
%TD*%
D13*
%TO.C,C14*%
X161299999Y-105380000D03*
X161299999Y-104420000D03*
%TD*%
%TO.C,C175*%
X218250000Y-144200000D03*
X218250000Y-143240000D03*
%TD*%
D15*
%TO.C,C104*%
X174655000Y-145625000D03*
X175615000Y-145625000D03*
%TD*%
D12*
%TO.C,C203*%
X225480000Y-157600000D03*
X224520000Y-157600000D03*
%TD*%
D17*
%TO.C,C5*%
X162500000Y-116420000D03*
X162500000Y-117380000D03*
%TD*%
D25*
%TO.C,R71*%
X171135000Y-136825000D03*
X170115000Y-136825000D03*
%TD*%
D30*
%TO.C,U42*%
X180525000Y-138075000D03*
X180525000Y-137425000D03*
X180525000Y-136775000D03*
X178625000Y-136775000D03*
X178625000Y-137425000D03*
X178625000Y-138075000D03*
%TD*%
D25*
%TO.C,R58*%
X157510000Y-157600000D03*
X156490000Y-157600000D03*
%TD*%
D20*
%TO.C,J3*%
X231914000Y-165600000D03*
X238086000Y-165600000D03*
X231914000Y-164800000D03*
X238086000Y-164800000D03*
X231914000Y-164000000D03*
X238086000Y-164000000D03*
X231914000Y-163200000D03*
X238086000Y-163200000D03*
X231914000Y-162400000D03*
X238086000Y-162400000D03*
X231914000Y-161600000D03*
X238086000Y-161600000D03*
X231914000Y-160800000D03*
X238086000Y-160800000D03*
X231914000Y-160000000D03*
X238086000Y-160000000D03*
X231914000Y-159200000D03*
X238086000Y-159200000D03*
X231914000Y-158400000D03*
X238086000Y-158400000D03*
X231914000Y-157600000D03*
X238086000Y-157600000D03*
X231914000Y-156800000D03*
X238086000Y-156800000D03*
X231914000Y-156000000D03*
X238086000Y-156000000D03*
X231914000Y-155200000D03*
X238086000Y-155200000D03*
X231914000Y-154400000D03*
X238086000Y-154400000D03*
X231914000Y-153600000D03*
X238086000Y-153600000D03*
X231914000Y-152800000D03*
X238086000Y-152800000D03*
X231914000Y-152000000D03*
X238086000Y-152000000D03*
X231914000Y-151200000D03*
X238086000Y-151200000D03*
X231914000Y-150400000D03*
X238086000Y-150400000D03*
X231914000Y-149600000D03*
X238086000Y-149600000D03*
X231914000Y-148800000D03*
X238086000Y-148800000D03*
X231914000Y-148000000D03*
X238086000Y-148000000D03*
X231914000Y-147200000D03*
X238086000Y-147200000D03*
X231914000Y-146400000D03*
X238086000Y-146400000D03*
X231914000Y-145600000D03*
X238086000Y-145600000D03*
X231914000Y-144800000D03*
X238086000Y-144800000D03*
X231914000Y-144000000D03*
X238086000Y-144000000D03*
X231914000Y-143200000D03*
X238086000Y-143200000D03*
X231914000Y-142400000D03*
X238086000Y-142400000D03*
X231914000Y-141600000D03*
X238086000Y-141600000D03*
X231914000Y-140800000D03*
X238086000Y-140800000D03*
X231914000Y-140000000D03*
X238086000Y-140000000D03*
X231914000Y-139200000D03*
X238086000Y-139200000D03*
X231914000Y-138400000D03*
X238086000Y-138400000D03*
X231914000Y-137600000D03*
X238086000Y-137600000D03*
X231914000Y-136800000D03*
X238086000Y-136800000D03*
X231914000Y-136000000D03*
X238086000Y-136000000D03*
X231914000Y-135200000D03*
X238086000Y-135200000D03*
X231914000Y-134400000D03*
X238086000Y-134400000D03*
%TD*%
D13*
%TO.C,C215*%
X223000000Y-161780000D03*
X223000000Y-160820000D03*
%TD*%
D17*
%TO.C,C116*%
X181725000Y-147345000D03*
X181725000Y-148305000D03*
%TD*%
D30*
%TO.C,U139*%
X255175000Y-159375000D03*
X255175000Y-158725000D03*
X255175000Y-158075000D03*
X253275000Y-158075000D03*
X253275000Y-158725000D03*
X253275000Y-159375000D03*
%TD*%
D29*
%TO.C,R46*%
X158890000Y-153600000D03*
X159910000Y-153600000D03*
%TD*%
%TO.C,R237*%
X242625000Y-152825000D03*
X243645000Y-152825000D03*
%TD*%
D17*
%TO.C,C291*%
X147800000Y-97020000D03*
X147800000Y-97980000D03*
%TD*%
D25*
%TO.C,R209*%
X241135000Y-141625000D03*
X240115000Y-141625000D03*
%TD*%
D35*
%TO.C,Q1*%
X201350000Y-74662500D03*
X199450000Y-74662500D03*
X200400000Y-76537500D03*
%TD*%
D30*
%TO.C,U73*%
X180525000Y-162675000D03*
X180525000Y-162025000D03*
X180525000Y-161375000D03*
X178625000Y-161375000D03*
X178625000Y-162025000D03*
X178625000Y-162675000D03*
%TD*%
D16*
%TO.C,C15*%
X166749999Y-106575000D03*
X166749999Y-105025000D03*
%TD*%
D13*
%TO.C,C173*%
X223000000Y-144200000D03*
X223000000Y-143240000D03*
%TD*%
D29*
%TO.C,R32*%
X158890000Y-148000000D03*
X159910000Y-148000000D03*
%TD*%
D30*
%TO.C,U71*%
X185175000Y-162375000D03*
X185175000Y-161725000D03*
X185175000Y-161075000D03*
X183275000Y-161075000D03*
X183275000Y-161725000D03*
X183275000Y-162375000D03*
%TD*%
D17*
%TO.C,C286*%
X251725000Y-161745000D03*
X251725000Y-162705000D03*
%TD*%
D15*
%TO.C,C11*%
X165940000Y-108800000D03*
X166900000Y-108800000D03*
%TD*%
D25*
%TO.C,R129*%
X171135000Y-163225000D03*
X170115000Y-163225000D03*
%TD*%
D29*
%TO.C,R227*%
X242615000Y-147225000D03*
X243635000Y-147225000D03*
%TD*%
D25*
%TO.C,R199*%
X241135000Y-136825000D03*
X240115000Y-136825000D03*
%TD*%
D17*
%TO.C,C227*%
X251725000Y-137145000D03*
X251725000Y-138105000D03*
%TD*%
D32*
%TO.C,U108*%
X214800000Y-161150000D03*
X214800000Y-161800000D03*
X214800000Y-162450000D03*
X216700000Y-162450000D03*
X216700000Y-161800000D03*
X216700000Y-161150000D03*
%TD*%
%TO.C,U18*%
X144800000Y-146750000D03*
X144800000Y-147400000D03*
X144800000Y-148050000D03*
X146700000Y-148050000D03*
X146700000Y-147400000D03*
X146700000Y-146750000D03*
%TD*%
D29*
%TO.C,R62*%
X158890000Y-160800000D03*
X159910000Y-160800000D03*
%TD*%
D17*
%TO.C,C288*%
X132400000Y-96720000D03*
X132400000Y-97680000D03*
%TD*%
D30*
%TO.C,U121*%
X255175000Y-144975000D03*
X255175000Y-144325000D03*
X255175000Y-143675000D03*
X253275000Y-143675000D03*
X253275000Y-144325000D03*
X253275000Y-144975000D03*
%TD*%
D15*
%TO.C,C202*%
X205620000Y-156600000D03*
X206580000Y-156600000D03*
%TD*%
D29*
%TO.C,R75*%
X172615000Y-136825000D03*
X173635000Y-136825000D03*
%TD*%
D30*
%TO.C,U114*%
X250525000Y-138075000D03*
X250525000Y-137425000D03*
X250525000Y-136775000D03*
X248625000Y-136775000D03*
X248625000Y-137425000D03*
X248625000Y-138075000D03*
%TD*%
%TO.C,U51*%
X180525000Y-145275000D03*
X180525000Y-144625000D03*
X180525000Y-143975000D03*
X178625000Y-143975000D03*
X178625000Y-144625000D03*
X178625000Y-145275000D03*
%TD*%
%TO.C,U134*%
X255175000Y-155175000D03*
X255175000Y-154525000D03*
X255175000Y-153875000D03*
X253275000Y-153875000D03*
X253275000Y-154525000D03*
X253275000Y-155175000D03*
%TD*%
D29*
%TO.C,R30*%
X158890000Y-146400000D03*
X159910000Y-146400000D03*
%TD*%
D12*
%TO.C,C67*%
X155480000Y-157600000D03*
X154520000Y-157600000D03*
%TD*%
D25*
%TO.C,R156*%
X227510000Y-144800000D03*
X226490000Y-144800000D03*
%TD*%
D15*
%TO.C,C10*%
X166820000Y-112200000D03*
X167780000Y-112200000D03*
%TD*%
D25*
%TO.C,R280*%
X242500000Y-69950000D03*
X241480000Y-69950000D03*
%TD*%
D36*
%TO.C,U29*%
X141362500Y-155475000D03*
X141362500Y-154825000D03*
X141362500Y-154175000D03*
X141362500Y-153525000D03*
X141362500Y-152875000D03*
X141362500Y-152225000D03*
X141362500Y-151575000D03*
X141362500Y-150925000D03*
X135637500Y-150925000D03*
X135637500Y-151575000D03*
X135637500Y-152225000D03*
X135637500Y-152875000D03*
X135637500Y-153525000D03*
X135637500Y-154175000D03*
X135637500Y-154825000D03*
X135637500Y-155475000D03*
%TD*%
D17*
%TO.C,C89*%
X177025000Y-137445000D03*
X177025000Y-138405000D03*
%TD*%
%TO.C,C125*%
X181725000Y-151545000D03*
X181725000Y-152505000D03*
%TD*%
D30*
%TO.C,U49*%
X185175000Y-144975000D03*
X185175000Y-144325000D03*
X185175000Y-143675000D03*
X183275000Y-143675000D03*
X183275000Y-144325000D03*
X183275000Y-144975000D03*
%TD*%
D37*
%TO.C,R1*%
X150600000Y-104990000D03*
X150600000Y-106010000D03*
%TD*%
D25*
%TO.C,R111*%
X171135000Y-154425000D03*
X170115000Y-154425000D03*
%TD*%
D13*
%TO.C,C73*%
X148250000Y-158600000D03*
X148250000Y-157640000D03*
%TD*%
%TO.C,C6*%
X160380000Y-105380000D03*
X160380000Y-104420000D03*
%TD*%
D31*
%TO.C,U65*%
X188625000Y-150625000D03*
X188625000Y-151275000D03*
X188625000Y-151925000D03*
X188625000Y-152575000D03*
X188625000Y-153225000D03*
X188625000Y-153875000D03*
X188625000Y-154525000D03*
X188625000Y-155175000D03*
X194350000Y-155175000D03*
X194350000Y-154525000D03*
X194350000Y-153875000D03*
X194350000Y-153225000D03*
X194350000Y-152575000D03*
X194350000Y-151925000D03*
X194350000Y-151275000D03*
X194350000Y-150625000D03*
%TD*%
D12*
%TO.C,C169*%
X225480000Y-143200000D03*
X224520000Y-143200000D03*
%TD*%
D25*
%TO.C,R223*%
X241135000Y-147225000D03*
X240115000Y-147225000D03*
%TD*%
%TO.C,R18*%
X157510000Y-139200000D03*
X156490000Y-139200000D03*
%TD*%
D12*
%TO.C,C270*%
X264367500Y-149400000D03*
X263407500Y-149400000D03*
%TD*%
D13*
%TO.C,C20*%
X153000000Y-137000000D03*
X153000000Y-136040000D03*
%TD*%
D25*
%TO.C,R154*%
X227510000Y-143200000D03*
X226490000Y-143200000D03*
%TD*%
D36*
%TO.C,U11*%
X141362500Y-141075000D03*
X141362500Y-140425000D03*
X141362500Y-139775000D03*
X141362500Y-139125000D03*
X141362500Y-138475000D03*
X141362500Y-137825000D03*
X141362500Y-137175000D03*
X141362500Y-136525000D03*
X135637500Y-136525000D03*
X135637500Y-137175000D03*
X135637500Y-137825000D03*
X135637500Y-138475000D03*
X135637500Y-139125000D03*
X135637500Y-139775000D03*
X135637500Y-140425000D03*
X135637500Y-141075000D03*
%TD*%
D29*
%TO.C,R144*%
X228890000Y-140800000D03*
X229910000Y-140800000D03*
%TD*%
D12*
%TO.C,C188*%
X225480000Y-152000000D03*
X224520000Y-152000000D03*
%TD*%
D29*
%TO.C,R264*%
X200490000Y-69500000D03*
X201510000Y-69500000D03*
%TD*%
%TO.C,R6*%
X158890000Y-136000000D03*
X159910000Y-136000000D03*
%TD*%
D17*
%TO.C,C269*%
X251725000Y-154545000D03*
X251725000Y-155505000D03*
%TD*%
D25*
%TO.C,R257*%
X241135000Y-163225000D03*
X240115000Y-163225000D03*
%TD*%
D31*
%TO.C,U74*%
X188625000Y-157825000D03*
X188625000Y-158475000D03*
X188625000Y-159125000D03*
X188625000Y-159775000D03*
X188625000Y-160425000D03*
X188625000Y-161075000D03*
X188625000Y-161725000D03*
X188625000Y-162375000D03*
X194350000Y-162375000D03*
X194350000Y-161725000D03*
X194350000Y-161075000D03*
X194350000Y-160425000D03*
X194350000Y-159775000D03*
X194350000Y-159125000D03*
X194350000Y-158475000D03*
X194350000Y-157825000D03*
%TD*%
D13*
%TO.C,C1*%
X152360000Y-95880000D03*
X152360000Y-94920000D03*
%TD*%
%TO.C,C22*%
X148250000Y-137000000D03*
X148250000Y-136040000D03*
%TD*%
%TO.C,C39*%
X148250000Y-144200000D03*
X148250000Y-143240000D03*
%TD*%
D29*
%TO.C,R64*%
X158890000Y-162400000D03*
X159910000Y-162400000D03*
%TD*%
D30*
%TO.C,U55*%
X180525000Y-148275000D03*
X180525000Y-147625000D03*
X180525000Y-146975000D03*
X178625000Y-146975000D03*
X178625000Y-147625000D03*
X178625000Y-148275000D03*
%TD*%
D29*
%TO.C,R16*%
X158890000Y-140800000D03*
X159910000Y-140800000D03*
%TD*%
%TO.C,R273*%
X163890000Y-118500000D03*
X164910000Y-118500000D03*
%TD*%
D17*
%TO.C,C123*%
X177025000Y-151845000D03*
X177025000Y-152805000D03*
%TD*%
D32*
%TO.C,U25*%
X149550000Y-153950000D03*
X149550000Y-154600000D03*
X149550000Y-155250000D03*
X151450000Y-155250000D03*
X151450000Y-154600000D03*
X151450000Y-153950000D03*
%TD*%
D25*
%TO.C,R172*%
X227510000Y-152000000D03*
X226490000Y-152000000D03*
%TD*%
D36*
%TO.C,U101*%
X211362500Y-155475000D03*
X211362500Y-154825000D03*
X211362500Y-154175000D03*
X211362500Y-153525000D03*
X211362500Y-152875000D03*
X211362500Y-152225000D03*
X211362500Y-151575000D03*
X211362500Y-150925000D03*
X205637500Y-150925000D03*
X205637500Y-151575000D03*
X205637500Y-152225000D03*
X205637500Y-152875000D03*
X205637500Y-153525000D03*
X205637500Y-154175000D03*
X205637500Y-154825000D03*
X205637500Y-155475000D03*
%TD*%
D32*
%TO.C,U97*%
X219550000Y-153950000D03*
X219550000Y-154600000D03*
X219550000Y-155250000D03*
X221450000Y-155250000D03*
X221450000Y-154600000D03*
X221450000Y-153950000D03*
%TD*%
D38*
%TO.C,U153*%
X204722500Y-76175000D03*
X204722500Y-74275000D03*
X206997500Y-74275000D03*
X206997500Y-75225000D03*
X206997500Y-76175000D03*
%TD*%
D36*
%TO.C,U92*%
X211362500Y-148275000D03*
X211362500Y-147625000D03*
X211362500Y-146975000D03*
X211362500Y-146325000D03*
X211362500Y-145675000D03*
X211362500Y-145025000D03*
X211362500Y-144375000D03*
X211362500Y-143725000D03*
X205637500Y-143725000D03*
X205637500Y-144375000D03*
X205637500Y-145025000D03*
X205637500Y-145675000D03*
X205637500Y-146325000D03*
X205637500Y-146975000D03*
X205637500Y-147625000D03*
X205637500Y-148275000D03*
%TD*%
D11*
%TO.C,R271*%
X203000000Y-76210000D03*
X203000000Y-75190000D03*
%TD*%
D32*
%TO.C,U81*%
X214800000Y-139550000D03*
X214800000Y-140200000D03*
X214800000Y-140850000D03*
X216700000Y-140850000D03*
X216700000Y-140200000D03*
X216700000Y-139550000D03*
%TD*%
D15*
%TO.C,C32*%
X135620000Y-142200000D03*
X136580000Y-142200000D03*
%TD*%
D36*
%TO.C,U20*%
X141362500Y-148275000D03*
X141362500Y-147625000D03*
X141362500Y-146975000D03*
X141362500Y-146325000D03*
X141362500Y-145675000D03*
X141362500Y-145025000D03*
X141362500Y-144375000D03*
X141362500Y-143725000D03*
X135637500Y-143725000D03*
X135637500Y-144375000D03*
X135637500Y-145025000D03*
X135637500Y-145675000D03*
X135637500Y-146325000D03*
X135637500Y-146975000D03*
X135637500Y-147625000D03*
X135637500Y-148275000D03*
%TD*%
D25*
%TO.C,R164*%
X227510000Y-148000000D03*
X226490000Y-148000000D03*
%TD*%
D15*
%TO.C,C255*%
X244645000Y-151225000D03*
X245605000Y-151225000D03*
%TD*%
%TO.C,C248*%
X244645000Y-148825000D03*
X245605000Y-148825000D03*
%TD*%
D29*
%TO.C,R174*%
X228890000Y-153600000D03*
X229910000Y-153600000D03*
%TD*%
D13*
%TO.C,C164*%
X223000000Y-140180000D03*
X223000000Y-139220000D03*
%TD*%
D29*
%TO.C,R166*%
X228890000Y-150400000D03*
X229910000Y-150400000D03*
%TD*%
%TO.C,R40*%
X158890000Y-152000000D03*
X159910000Y-152000000D03*
%TD*%
D12*
%TO.C,C60*%
X155480000Y-155200000D03*
X154520000Y-155200000D03*
%TD*%
D32*
%TO.C,U5*%
X144800000Y-136350000D03*
X144800000Y-137000000D03*
X144800000Y-137650000D03*
X146700000Y-137650000D03*
X146700000Y-137000000D03*
X146700000Y-136350000D03*
%TD*%
D29*
%TO.C,R91*%
X172615000Y-144025000D03*
X173635000Y-144025000D03*
%TD*%
%TO.C,R123*%
X172615000Y-158425000D03*
X173635000Y-158425000D03*
%TD*%
D25*
%TO.C,R148*%
X227510000Y-140800000D03*
X226490000Y-140800000D03*
%TD*%
D29*
%TO.C,R211*%
X242615000Y-140025000D03*
X243635000Y-140025000D03*
%TD*%
D12*
%TO.C,C33*%
X155480000Y-143200000D03*
X154520000Y-143200000D03*
%TD*%
D32*
%TO.C,U34*%
X149550000Y-161150000D03*
X149550000Y-161800000D03*
X149550000Y-162450000D03*
X151450000Y-162450000D03*
X151450000Y-161800000D03*
X151450000Y-161150000D03*
%TD*%
D25*
%TO.C,R121*%
X171135000Y-160025000D03*
X170115000Y-160025000D03*
%TD*%
%TO.C,R233*%
X241135000Y-152825000D03*
X240115000Y-152825000D03*
%TD*%
D29*
%TO.C,R259*%
X242615000Y-161625000D03*
X243635000Y-161625000D03*
%TD*%
D13*
%TO.C,C54*%
X153000000Y-151400000D03*
X153000000Y-150440000D03*
%TD*%
D32*
%TO.C,U23*%
X144800000Y-150750000D03*
X144800000Y-151400000D03*
X144800000Y-152050000D03*
X146700000Y-152050000D03*
X146700000Y-151400000D03*
X146700000Y-150750000D03*
%TD*%
D25*
%TO.C,R231*%
X241135000Y-151225000D03*
X240115000Y-151225000D03*
%TD*%
D30*
%TO.C,U69*%
X180525000Y-159675000D03*
X180525000Y-159025000D03*
X180525000Y-158375000D03*
X178625000Y-158375000D03*
X178625000Y-159025000D03*
X178625000Y-159675000D03*
%TD*%
D29*
%TO.C,R24*%
X158890000Y-144800000D03*
X159910000Y-144800000D03*
%TD*%
D12*
%TO.C,C293*%
X237920000Y-65850000D03*
X238880000Y-65850000D03*
%TD*%
D25*
%TO.C,R36*%
X157510000Y-148000000D03*
X156490000Y-148000000D03*
%TD*%
D12*
%TO.C,C152*%
X225480000Y-136000000D03*
X224520000Y-136000000D03*
%TD*%
D32*
%TO.C,U106*%
X219550000Y-161150000D03*
X219550000Y-161800000D03*
X219550000Y-162450000D03*
X221450000Y-162450000D03*
X221450000Y-161800000D03*
X221450000Y-161150000D03*
%TD*%
D31*
%TO.C,U137*%
X258625000Y-150625000D03*
X258625000Y-151275000D03*
X258625000Y-151925000D03*
X258625000Y-152575000D03*
X258625000Y-153225000D03*
X258625000Y-153875000D03*
X258625000Y-154525000D03*
X258625000Y-155175000D03*
X264350000Y-155175000D03*
X264350000Y-154525000D03*
X264350000Y-153875000D03*
X264350000Y-153225000D03*
X264350000Y-152575000D03*
X264350000Y-151925000D03*
X264350000Y-151275000D03*
X264350000Y-150625000D03*
%TD*%
D30*
%TO.C,U40*%
X185175000Y-137775000D03*
X185175000Y-137125000D03*
X185175000Y-136475000D03*
X183275000Y-136475000D03*
X183275000Y-137125000D03*
X183275000Y-137775000D03*
%TD*%
D32*
%TO.C,U88*%
X219550000Y-146750000D03*
X219550000Y-147400000D03*
X219550000Y-148050000D03*
X221450000Y-148050000D03*
X221450000Y-147400000D03*
X221450000Y-146750000D03*
%TD*%
D30*
%TO.C,U44*%
X185175000Y-140775000D03*
X185175000Y-140125000D03*
X185175000Y-139475000D03*
X183275000Y-139475000D03*
X183275000Y-140125000D03*
X183275000Y-140775000D03*
%TD*%
D15*
%TO.C,C93*%
X174645000Y-140025000D03*
X175605000Y-140025000D03*
%TD*%
D29*
%TO.C,R261*%
X242615000Y-163225000D03*
X243635000Y-163225000D03*
%TD*%
D32*
%TO.C,U30*%
X149550000Y-157950000D03*
X149550000Y-158600000D03*
X149550000Y-159250000D03*
X151450000Y-159250000D03*
X151450000Y-158600000D03*
X151450000Y-157950000D03*
%TD*%
D13*
%TO.C,C30*%
X148263500Y-140200000D03*
X148263500Y-139240000D03*
%TD*%
%TO.C,C56*%
X148250000Y-151400000D03*
X148250000Y-150440000D03*
%TD*%
D29*
%TO.C,R168*%
X228890000Y-152000000D03*
X229910000Y-152000000D03*
%TD*%
D11*
%TO.C,R284*%
X149900000Y-112910000D03*
X149900000Y-111890000D03*
%TD*%
D36*
%TO.C,U38*%
X141362500Y-162675000D03*
X141362500Y-162025000D03*
X141362500Y-161375000D03*
X141362500Y-160725000D03*
X141362500Y-160075000D03*
X141362500Y-159425000D03*
X141362500Y-158775000D03*
X141362500Y-158125000D03*
X135637500Y-158125000D03*
X135637500Y-158775000D03*
X135637500Y-159425000D03*
X135637500Y-160075000D03*
X135637500Y-160725000D03*
X135637500Y-161375000D03*
X135637500Y-162025000D03*
X135637500Y-162675000D03*
%TD*%
D25*
%TO.C,R95*%
X171135000Y-147225000D03*
X170115000Y-147225000D03*
%TD*%
D30*
%TO.C,U123*%
X250525000Y-145275000D03*
X250525000Y-144625000D03*
X250525000Y-143975000D03*
X248625000Y-143975000D03*
X248625000Y-144625000D03*
X248625000Y-145275000D03*
%TD*%
D39*
%TO.C,Q2*%
X198250000Y-86437500D03*
X200150000Y-86437500D03*
X199200000Y-84562500D03*
%TD*%
D15*
%TO.C,C231*%
X244645000Y-141625000D03*
X245605000Y-141625000D03*
%TD*%
D29*
%TO.C,R152*%
X228890000Y-144800000D03*
X229910000Y-144800000D03*
%TD*%
D13*
%TO.C,C28*%
X153000000Y-140180000D03*
X153000000Y-139220000D03*
%TD*%
D37*
%TO.C,R3*%
X163149999Y-104390000D03*
X163149999Y-105410000D03*
%TD*%
D25*
%TO.C,R60*%
X157510000Y-159200000D03*
X156490000Y-159200000D03*
%TD*%
D15*
%TO.C,C274*%
X244655000Y-160025000D03*
X245615000Y-160025000D03*
%TD*%
%TO.C,C229*%
X244645000Y-140025000D03*
X245605000Y-140025000D03*
%TD*%
D17*
%TO.C,C9*%
X161580000Y-116420000D03*
X161580000Y-117380000D03*
%TD*%
D13*
%TO.C,C45*%
X153000000Y-147380000D03*
X153000000Y-146420000D03*
%TD*%
D15*
%TO.C,C144*%
X174645000Y-161625000D03*
X175605000Y-161625000D03*
%TD*%
D17*
%TO.C,C140*%
X177025000Y-159045000D03*
X177025000Y-160005000D03*
%TD*%
D15*
%TO.C,C87*%
X174655000Y-138425000D03*
X175615000Y-138425000D03*
%TD*%
%TO.C,C221*%
X244645000Y-136825000D03*
X245605000Y-136825000D03*
%TD*%
D31*
%TO.C,U47*%
X188625000Y-136225000D03*
X188625000Y-136875000D03*
X188625000Y-137525000D03*
X188625000Y-138175000D03*
X188625000Y-138825000D03*
X188625000Y-139475000D03*
X188625000Y-140125000D03*
X188625000Y-140775000D03*
X194350000Y-140775000D03*
X194350000Y-140125000D03*
X194350000Y-139475000D03*
X194350000Y-138825000D03*
X194350000Y-138175000D03*
X194350000Y-137525000D03*
X194350000Y-136875000D03*
X194350000Y-136225000D03*
%TD*%
D15*
%TO.C,C280*%
X244645000Y-161625000D03*
X245605000Y-161625000D03*
%TD*%
D13*
%TO.C,C207*%
X223000000Y-158600000D03*
X223000000Y-157640000D03*
%TD*%
D32*
%TO.C,U95*%
X214800000Y-150750000D03*
X214800000Y-151400000D03*
X214800000Y-152050000D03*
X216700000Y-152050000D03*
X216700000Y-151400000D03*
X216700000Y-150750000D03*
%TD*%
D30*
%TO.C,U141*%
X250525000Y-159675000D03*
X250525000Y-159025000D03*
X250525000Y-158375000D03*
X248625000Y-158375000D03*
X248625000Y-159025000D03*
X248625000Y-159675000D03*
%TD*%
D29*
%TO.C,R235*%
X242615000Y-151225000D03*
X243635000Y-151225000D03*
%TD*%
D25*
%TO.C,R73*%
X171135000Y-138425000D03*
X170115000Y-138425000D03*
%TD*%
%TO.C,R194*%
X227510000Y-160800000D03*
X226490000Y-160800000D03*
%TD*%
D15*
%TO.C,C263*%
X244645000Y-154425000D03*
X245605000Y-154425000D03*
%TD*%
D12*
%TO.C,C16*%
X155480000Y-136000000D03*
X154520000Y-136000000D03*
%TD*%
D32*
%TO.C,U21*%
X149550000Y-150750000D03*
X149550000Y-151400000D03*
X149550000Y-152050000D03*
X151450000Y-152050000D03*
X151450000Y-151400000D03*
X151450000Y-150750000D03*
%TD*%
D12*
%TO.C,C100*%
X194367500Y-135000000D03*
X193407500Y-135000000D03*
%TD*%
D13*
%TO.C,C71*%
X153000000Y-158600000D03*
X153000000Y-157640000D03*
%TD*%
D12*
%TO.C,C24*%
X155480000Y-139200000D03*
X154520000Y-139200000D03*
%TD*%
D30*
%TO.C,U143*%
X255175000Y-162375000D03*
X255175000Y-161725000D03*
X255175000Y-161075000D03*
X253275000Y-161075000D03*
X253275000Y-161725000D03*
X253275000Y-162375000D03*
%TD*%
D12*
%TO.C,C26*%
X155480000Y-140800000D03*
X154520000Y-140800000D03*
%TD*%
%TO.C,C117*%
X194367500Y-142200000D03*
X193407500Y-142200000D03*
%TD*%
D15*
%TO.C,C112*%
X174645000Y-148825000D03*
X175605000Y-148825000D03*
%TD*%
D29*
%TO.C,R203*%
X242615000Y-136825000D03*
X243635000Y-136825000D03*
%TD*%
D25*
%TO.C,R66*%
X157510000Y-160800000D03*
X156490000Y-160800000D03*
%TD*%
D15*
%TO.C,C127*%
X174645000Y-154425000D03*
X175605000Y-154425000D03*
%TD*%
D12*
%TO.C,C8*%
X156680000Y-112400000D03*
X155720000Y-112400000D03*
%TD*%
D25*
%TO.C,R81*%
X171135000Y-141625000D03*
X170115000Y-141625000D03*
%TD*%
D32*
%TO.C,U9*%
X144800000Y-139550000D03*
X144800000Y-140200000D03*
X144800000Y-140850000D03*
X146700000Y-140850000D03*
X146700000Y-140200000D03*
X146700000Y-139550000D03*
%TD*%
D15*
%TO.C,C257*%
X244655000Y-152825000D03*
X245615000Y-152825000D03*
%TD*%
D30*
%TO.C,U136*%
X250525000Y-155475000D03*
X250525000Y-154825000D03*
X250525000Y-154175000D03*
X248625000Y-154175000D03*
X248625000Y-154825000D03*
X248625000Y-155475000D03*
%TD*%
D25*
%TO.C,R279*%
X241480000Y-65550000D03*
X242500000Y-65550000D03*
%TD*%
D29*
%TO.C,R192*%
X228890000Y-162400000D03*
X229910000Y-162400000D03*
%TD*%
D12*
%TO.C,C205*%
X225480000Y-159200000D03*
X224520000Y-159200000D03*
%TD*%
D32*
%TO.C,U75*%
X219550000Y-136350000D03*
X219550000Y-137000000D03*
X219550000Y-137650000D03*
X221450000Y-137650000D03*
X221450000Y-137000000D03*
X221450000Y-136350000D03*
%TD*%
D29*
%TO.C,R48*%
X158890000Y-155200000D03*
X159910000Y-155200000D03*
%TD*%
D12*
%TO.C,C154*%
X225480000Y-137600000D03*
X224520000Y-137600000D03*
%TD*%
D25*
%TO.C,R28*%
X157510000Y-144800000D03*
X156490000Y-144800000D03*
%TD*%
D12*
%TO.C,C287*%
X264367500Y-156600000D03*
X263407500Y-156600000D03*
%TD*%
D36*
%TO.C,U110*%
X211362500Y-162675000D03*
X211362500Y-162025000D03*
X211362500Y-161375000D03*
X211362500Y-160725000D03*
X211362500Y-160075000D03*
X211362500Y-159425000D03*
X211362500Y-158775000D03*
X211362500Y-158125000D03*
X205637500Y-158125000D03*
X205637500Y-158775000D03*
X205637500Y-159425000D03*
X205637500Y-160075000D03*
X205637500Y-160725000D03*
X205637500Y-161375000D03*
X205637500Y-162025000D03*
X205637500Y-162675000D03*
%TD*%
D32*
%TO.C,U3*%
X149550000Y-136350000D03*
X149550000Y-137000000D03*
X149550000Y-137650000D03*
X151450000Y-137650000D03*
X151450000Y-137000000D03*
X151450000Y-136350000D03*
%TD*%
D29*
%TO.C,R282*%
X241490000Y-71250000D03*
X242510000Y-71250000D03*
%TD*%
D30*
%TO.C,U125*%
X255175000Y-147975000D03*
X255175000Y-147325000D03*
X255175000Y-146675000D03*
X253275000Y-146675000D03*
X253275000Y-147325000D03*
X253275000Y-147975000D03*
%TD*%
D25*
%TO.C,R207*%
X241135000Y-140025000D03*
X240115000Y-140025000D03*
%TD*%
D15*
%TO.C,C238*%
X244645000Y-144025000D03*
X245605000Y-144025000D03*
%TD*%
D17*
%TO.C,C150*%
X181725000Y-161745000D03*
X181725000Y-162705000D03*
%TD*%
D25*
%TO.C,R201*%
X241135000Y-138425000D03*
X240115000Y-138425000D03*
%TD*%
D13*
%TO.C,C166*%
X218263500Y-140200000D03*
X218263500Y-139240000D03*
%TD*%
D30*
%TO.C,U58*%
X185175000Y-152175000D03*
X185175000Y-151525000D03*
X185175000Y-150875000D03*
X183275000Y-150875000D03*
X183275000Y-151525000D03*
X183275000Y-152175000D03*
%TD*%
D13*
%TO.C,C81*%
X148263500Y-161800000D03*
X148263500Y-160840000D03*
%TD*%
D31*
%TO.C,U119*%
X258625000Y-136225000D03*
X258625000Y-136875000D03*
X258625000Y-137525000D03*
X258625000Y-138175000D03*
X258625000Y-138825000D03*
X258625000Y-139475000D03*
X258625000Y-140125000D03*
X258625000Y-140775000D03*
X264350000Y-140775000D03*
X264350000Y-140125000D03*
X264350000Y-139475000D03*
X264350000Y-138825000D03*
X264350000Y-138175000D03*
X264350000Y-137525000D03*
X264350000Y-136875000D03*
X264350000Y-136225000D03*
%TD*%
D11*
%TO.C,R263*%
X249100000Y-68110000D03*
X249100000Y-67090000D03*
%TD*%
D25*
%TO.C,R239*%
X241135000Y-154425000D03*
X240115000Y-154425000D03*
%TD*%
%TO.C,R97*%
X171135000Y-148825000D03*
X170115000Y-148825000D03*
%TD*%
D16*
%TO.C,C4*%
X165289999Y-106565000D03*
X165289999Y-105015000D03*
%TD*%
D15*
%TO.C,C85*%
X174645000Y-136825000D03*
X175605000Y-136825000D03*
%TD*%
D13*
%TO.C,C181*%
X223000000Y-147380000D03*
X223000000Y-146420000D03*
%TD*%
D12*
%TO.C,C41*%
X155480000Y-146400000D03*
X154520000Y-146400000D03*
%TD*%
D32*
%TO.C,U12*%
X149550000Y-143550000D03*
X149550000Y-144200000D03*
X149550000Y-144850000D03*
X151450000Y-144850000D03*
X151450000Y-144200000D03*
X151450000Y-143550000D03*
%TD*%
D15*
%TO.C,C219*%
X205620000Y-163800000D03*
X206580000Y-163800000D03*
%TD*%
D30*
%TO.C,U116*%
X255175000Y-140775000D03*
X255175000Y-140125000D03*
X255175000Y-139475000D03*
X253275000Y-139475000D03*
X253275000Y-140125000D03*
X253275000Y-140775000D03*
%TD*%
D40*
%TO.C,U1*%
X152475000Y-105000000D03*
X153745000Y-105000000D03*
X155015000Y-105000000D03*
X156285000Y-105000000D03*
X156285000Y-97800000D03*
X155015000Y-97800000D03*
X153745000Y-97800000D03*
X152475000Y-97800000D03*
%TD*%
D12*
%TO.C,C177*%
X225480000Y-146400000D03*
X224520000Y-146400000D03*
%TD*%
%TO.C,C151*%
X194367500Y-156600000D03*
X193407500Y-156600000D03*
%TD*%
D25*
%TO.C,R12*%
X157510000Y-137600000D03*
X156490000Y-137600000D03*
%TD*%
D13*
%TO.C,C192*%
X218250000Y-151400000D03*
X218250000Y-150440000D03*
%TD*%
D25*
%TO.C,R225*%
X241135000Y-148825000D03*
X240115000Y-148825000D03*
%TD*%
D30*
%TO.C,U118*%
X250525000Y-141075000D03*
X250525000Y-140425000D03*
X250525000Y-139775000D03*
X248625000Y-139775000D03*
X248625000Y-140425000D03*
X248625000Y-141075000D03*
%TD*%
D17*
%TO.C,C108*%
X181725000Y-144345000D03*
X181725000Y-145305000D03*
%TD*%
D15*
%TO.C,C110*%
X174645000Y-147225000D03*
X175605000Y-147225000D03*
%TD*%
D13*
%TO.C,C198*%
X223000000Y-154580000D03*
X223000000Y-153620000D03*
%TD*%
D25*
%TO.C,R162*%
X227510000Y-146400000D03*
X226490000Y-146400000D03*
%TD*%
D13*
%TO.C,C158*%
X218250000Y-137000000D03*
X218250000Y-136040000D03*
%TD*%
D25*
%TO.C,R87*%
X171135000Y-144025000D03*
X170115000Y-144025000D03*
%TD*%
D36*
%TO.C,U83*%
X211362500Y-141075000D03*
X211362500Y-140425000D03*
X211362500Y-139775000D03*
X211362500Y-139125000D03*
X211362500Y-138475000D03*
X211362500Y-137825000D03*
X211362500Y-137175000D03*
X211362500Y-136525000D03*
X205637500Y-136525000D03*
X205637500Y-137175000D03*
X205637500Y-137825000D03*
X205637500Y-138475000D03*
X205637500Y-139125000D03*
X205637500Y-139775000D03*
X205637500Y-140425000D03*
X205637500Y-141075000D03*
%TD*%
D25*
%TO.C,R274*%
X165110000Y-117200000D03*
X164090000Y-117200000D03*
%TD*%
D17*
%TO.C,C91*%
X181725000Y-137145000D03*
X181725000Y-138105000D03*
%TD*%
D41*
%TO.C,Y1*%
X160650000Y-121400000D03*
X158450000Y-121400000D03*
X158450000Y-123000000D03*
X160650000Y-123000000D03*
%TD*%
D25*
%TO.C,R186*%
X227510000Y-157600000D03*
X226490000Y-157600000D03*
%TD*%
D17*
%TO.C,C133*%
X181725000Y-154545000D03*
X181725000Y-155505000D03*
%TD*%
%TO.C,C259*%
X247025000Y-151845000D03*
X247025000Y-152805000D03*
%TD*%
%TO.C,C250*%
X247025000Y-147645000D03*
X247025000Y-148605000D03*
%TD*%
D25*
%TO.C,R20*%
X157510000Y-140800000D03*
X156490000Y-140800000D03*
%TD*%
D29*
%TO.C,R54*%
X158890000Y-157600000D03*
X159910000Y-157600000D03*
%TD*%
%TO.C,R176*%
X228890000Y-155200000D03*
X229910000Y-155200000D03*
%TD*%
D42*
%TO.C,U148*%
X146000000Y-97000000D03*
X146000000Y-96500000D03*
X146000000Y-96000000D03*
X146000000Y-95500000D03*
X146000000Y-95000000D03*
X141775000Y-95000000D03*
X141775000Y-95500000D03*
X141775000Y-96000000D03*
X141775000Y-96500000D03*
X141775000Y-97000000D03*
%TD*%
D29*
%TO.C,R265*%
X200490000Y-68400000D03*
X201510000Y-68400000D03*
%TD*%
D30*
%TO.C,U62*%
X185175000Y-155175000D03*
X185175000Y-154525000D03*
X185175000Y-153875000D03*
X183275000Y-153875000D03*
X183275000Y-154525000D03*
X183275000Y-155175000D03*
%TD*%
D13*
%TO.C,C64*%
X148263500Y-154600000D03*
X148263500Y-153640000D03*
%TD*%
%TO.C,C13*%
X162219999Y-105380000D03*
X162219999Y-104420000D03*
%TD*%
D15*
%TO.C,C12*%
X165940000Y-107880000D03*
X166900000Y-107880000D03*
%TD*%
D29*
%TO.C,R229*%
X242615000Y-148825000D03*
X243635000Y-148825000D03*
%TD*%
D25*
%TO.C,R138*%
X227510000Y-136000000D03*
X226490000Y-136000000D03*
%TD*%
D29*
%TO.C,R115*%
X172615000Y-154425000D03*
X173635000Y-154425000D03*
%TD*%
D17*
%TO.C,C99*%
X181725000Y-140145000D03*
X181725000Y-141105000D03*
%TD*%
D25*
%TO.C,R269*%
X235260000Y-69200000D03*
X234240000Y-69200000D03*
%TD*%
D17*
%TO.C,C284*%
X247025000Y-162045000D03*
X247025000Y-163005000D03*
%TD*%
D13*
%TO.C,C217*%
X218263500Y-161800000D03*
X218263500Y-160840000D03*
%TD*%
D17*
%TO.C,C225*%
X247025000Y-137445000D03*
X247025000Y-138405000D03*
%TD*%
D32*
%TO.C,U99*%
X214800000Y-153950000D03*
X214800000Y-154600000D03*
X214800000Y-155250000D03*
X216700000Y-155250000D03*
X216700000Y-154600000D03*
X216700000Y-153950000D03*
%TD*%
%TO.C,U27*%
X144800000Y-153950000D03*
X144800000Y-154600000D03*
X144800000Y-155250000D03*
X146700000Y-155250000D03*
X146700000Y-154600000D03*
X146700000Y-153950000D03*
%TD*%
D29*
%TO.C,R136*%
X228890000Y-137600000D03*
X229910000Y-137600000D03*
%TD*%
%TO.C,R133*%
X172615000Y-163225000D03*
X173635000Y-163225000D03*
%TD*%
D11*
%TO.C,R5*%
X160650000Y-117410000D03*
X160650000Y-116390000D03*
%TD*%
D15*
%TO.C,C223*%
X244655000Y-138425000D03*
X245615000Y-138425000D03*
%TD*%
D17*
%TO.C,C267*%
X247025000Y-154845000D03*
X247025000Y-155805000D03*
%TD*%
D30*
%TO.C,U60*%
X180525000Y-152475000D03*
X180525000Y-151825000D03*
X180525000Y-151175000D03*
X178625000Y-151175000D03*
X178625000Y-151825000D03*
X178625000Y-152475000D03*
%TD*%
D17*
%TO.C,C244*%
X251725000Y-144345000D03*
X251725000Y-145305000D03*
%TD*%
D30*
%TO.C,U64*%
X180525000Y-155475000D03*
X180525000Y-154825000D03*
X180525000Y-154175000D03*
X178625000Y-154175000D03*
X178625000Y-154825000D03*
X178625000Y-155475000D03*
%TD*%
D32*
%TO.C,U102*%
X219550000Y-157950000D03*
X219550000Y-158600000D03*
X219550000Y-159250000D03*
X221450000Y-159250000D03*
X221450000Y-158600000D03*
X221450000Y-157950000D03*
%TD*%
D15*
%TO.C,C119*%
X174645000Y-151225000D03*
X175605000Y-151225000D03*
%TD*%
D29*
%TO.C,R8*%
X158890000Y-137600000D03*
X159910000Y-137600000D03*
%TD*%
D17*
%TO.C,C252*%
X251725000Y-147345000D03*
X251725000Y-148305000D03*
%TD*%
D12*
%TO.C,C179*%
X225480000Y-148000000D03*
X224520000Y-148000000D03*
%TD*%
D17*
%TO.C,C261*%
X251725000Y-151545000D03*
X251725000Y-152505000D03*
%TD*%
D25*
%TO.C,R140*%
X227510000Y-137600000D03*
X226490000Y-137600000D03*
%TD*%
D12*
%TO.C,C35*%
X155480000Y-144800000D03*
X154520000Y-144800000D03*
%TD*%
D15*
%TO.C,C282*%
X244645000Y-163225000D03*
X245605000Y-163225000D03*
%TD*%
D17*
%TO.C,C242*%
X247025000Y-144645000D03*
X247025000Y-145605000D03*
%TD*%
D43*
%TO.C,D3*%
X199050000Y-72400000D03*
X202350000Y-72400000D03*
%TD*%
D12*
%TO.C,C186*%
X225480000Y-150400000D03*
X224520000Y-150400000D03*
%TD*%
D30*
%TO.C,U127*%
X250525000Y-148275000D03*
X250525000Y-147625000D03*
X250525000Y-146975000D03*
X248625000Y-146975000D03*
X248625000Y-147625000D03*
X248625000Y-148275000D03*
%TD*%
D29*
%TO.C,R221*%
X242625000Y-145625000D03*
X243645000Y-145625000D03*
%TD*%
D25*
%TO.C,R52*%
X157510000Y-155200000D03*
X156490000Y-155200000D03*
%TD*%
D12*
%TO.C,C236*%
X264367500Y-135000000D03*
X263407500Y-135000000D03*
%TD*%
D44*
%TO.C,U2*%
X158780000Y-107962500D03*
X159180000Y-107962500D03*
X159580000Y-107962500D03*
X159980000Y-107962500D03*
X160380000Y-107962500D03*
X160780000Y-107962500D03*
X161180000Y-107962500D03*
X161580000Y-107962500D03*
X161980000Y-107962500D03*
X162380000Y-107962500D03*
X162780000Y-107962500D03*
X163180000Y-107962500D03*
X163580000Y-107962500D03*
X163980000Y-107962500D03*
D45*
X164817500Y-108800000D03*
X164817500Y-109200000D03*
X164817500Y-109600000D03*
X164817500Y-110000000D03*
X164817500Y-110400000D03*
X164817500Y-110800000D03*
X164817500Y-111200000D03*
X164817500Y-111600000D03*
X164817500Y-112000000D03*
X164817500Y-112400000D03*
X164817500Y-112800000D03*
X164817500Y-113200000D03*
X164817500Y-113600000D03*
X164817500Y-114000000D03*
D44*
X163980000Y-114837500D03*
X163580000Y-114837500D03*
X163180000Y-114837500D03*
X162780000Y-114837500D03*
X162380000Y-114837500D03*
X161980000Y-114837500D03*
X161580000Y-114837500D03*
X161180000Y-114837500D03*
X160780000Y-114837500D03*
X160380000Y-114837500D03*
X159980000Y-114837500D03*
X159580000Y-114837500D03*
X159180000Y-114837500D03*
X158780000Y-114837500D03*
D45*
X157942500Y-114000000D03*
X157942500Y-113600000D03*
X157942500Y-113200000D03*
X157942500Y-112800000D03*
X157942500Y-112400000D03*
X157942500Y-112000000D03*
X157942500Y-111600000D03*
X157942500Y-111200000D03*
X157942500Y-110800000D03*
X157942500Y-110400000D03*
X157942500Y-110000000D03*
X157942500Y-109600000D03*
X157942500Y-109200000D03*
X157942500Y-108800000D03*
D46*
X162180000Y-112200000D03*
X162180000Y-110600000D03*
X160580000Y-112200000D03*
X160580000Y-110600000D03*
%TD*%
D12*
%TO.C,C2*%
X159550000Y-120040000D03*
X158590000Y-120040000D03*
%TD*%
D13*
%TO.C,C183*%
X218263500Y-147400000D03*
X218263500Y-146440000D03*
%TD*%
D12*
%TO.C,C43*%
X155480000Y-148000000D03*
X154520000Y-148000000D03*
%TD*%
D15*
%TO.C,C66*%
X135620000Y-156600000D03*
X136580000Y-156600000D03*
%TD*%
%TO.C,C49*%
X135620000Y-149400000D03*
X136580000Y-149400000D03*
%TD*%
D12*
%TO.C,C211*%
X225480000Y-160800000D03*
X224520000Y-160800000D03*
%TD*%
D13*
%TO.C,C62*%
X153000000Y-154580000D03*
X153000000Y-153620000D03*
%TD*%
D17*
%TO.C,C114*%
X177025000Y-147645000D03*
X177025000Y-148605000D03*
%TD*%
D30*
%TO.C,U53*%
X185175000Y-147975000D03*
X185175000Y-147325000D03*
X185175000Y-146675000D03*
X183275000Y-146675000D03*
X183275000Y-147325000D03*
X183275000Y-147975000D03*
%TD*%
D15*
%TO.C,C168*%
X205620000Y-142200000D03*
X206580000Y-142200000D03*
%TD*%
D17*
%TO.C,C142*%
X181725000Y-158745000D03*
X181725000Y-159705000D03*
%TD*%
D29*
%TO.C,R190*%
X228890000Y-160800000D03*
X229910000Y-160800000D03*
%TD*%
D15*
%TO.C,C83*%
X135620000Y-163800000D03*
X136580000Y-163800000D03*
%TD*%
D25*
%TO.C,R196*%
X227510000Y-162400000D03*
X226490000Y-162400000D03*
%TD*%
D29*
%TO.C,R184*%
X228890000Y-159200000D03*
X229910000Y-159200000D03*
%TD*%
%TO.C,R213*%
X242615000Y-141625000D03*
X243635000Y-141625000D03*
%TD*%
D17*
%TO.C,C276*%
X247025000Y-159045000D03*
X247025000Y-160005000D03*
%TD*%
D30*
%TO.C,U46*%
X180525000Y-141075000D03*
X180525000Y-140425000D03*
X180525000Y-139775000D03*
X178625000Y-139775000D03*
X178625000Y-140425000D03*
X178625000Y-141075000D03*
%TD*%
D13*
%TO.C,C37*%
X153000000Y-144200000D03*
X153000000Y-143240000D03*
%TD*%
D30*
%TO.C,U145*%
X250525000Y-162675000D03*
X250525000Y-162025000D03*
X250525000Y-161375000D03*
X248625000Y-161375000D03*
X248625000Y-162025000D03*
X248625000Y-162675000D03*
%TD*%
D25*
%TO.C,R89*%
X171135000Y-145625000D03*
X170115000Y-145625000D03*
%TD*%
D12*
%TO.C,C162*%
X225480000Y-140800000D03*
X224520000Y-140800000D03*
%TD*%
D17*
%TO.C,C278*%
X251725000Y-158745000D03*
X251725000Y-159705000D03*
%TD*%
D12*
%TO.C,C160*%
X225480000Y-139200000D03*
X224520000Y-139200000D03*
%TD*%
%TO.C,C213*%
X225480000Y-162400000D03*
X224520000Y-162400000D03*
%TD*%
D25*
%TO.C,R26*%
X157510000Y-143200000D03*
X156490000Y-143200000D03*
%TD*%
D12*
%TO.C,C50*%
X155480000Y-150400000D03*
X154520000Y-150400000D03*
%TD*%
D17*
%TO.C,C97*%
X177025000Y-140445000D03*
X177025000Y-141405000D03*
%TD*%
D32*
%TO.C,U86*%
X214800000Y-143550000D03*
X214800000Y-144200000D03*
X214800000Y-144850000D03*
X216700000Y-144850000D03*
X216700000Y-144200000D03*
X216700000Y-143550000D03*
%TD*%
D15*
%TO.C,C102*%
X174645000Y-144025000D03*
X175605000Y-144025000D03*
%TD*%
D30*
%TO.C,U147*%
X136150000Y-96950000D03*
X136150000Y-96300000D03*
X136150000Y-95650000D03*
X134250000Y-95650000D03*
X134250000Y-96300000D03*
X134250000Y-96950000D03*
%TD*%
D47*
%TO.C,U150*%
X239037500Y-67300000D03*
X239037500Y-69200000D03*
X236762500Y-69200000D03*
X236762500Y-68250000D03*
X236762500Y-67300000D03*
%TD*%
D32*
%TO.C,U32*%
X144800000Y-157950000D03*
X144800000Y-158600000D03*
X144800000Y-159250000D03*
X146700000Y-159250000D03*
X146700000Y-158600000D03*
X146700000Y-157950000D03*
%TD*%
D37*
%TO.C,R4*%
X164089999Y-104390000D03*
X164089999Y-105410000D03*
%TD*%
D12*
%TO.C,C69*%
X155480000Y-159200000D03*
X154520000Y-159200000D03*
%TD*%
D29*
%TO.C,R56*%
X158890000Y-159200000D03*
X159910000Y-159200000D03*
%TD*%
D32*
%TO.C,U84*%
X219550000Y-143550000D03*
X219550000Y-144200000D03*
X219550000Y-144850000D03*
X221450000Y-144850000D03*
X221450000Y-144200000D03*
X221450000Y-143550000D03*
%TD*%
D33*
%TO.C,D2*%
X144700000Y-76450000D03*
X144700000Y-79750000D03*
%TD*%
D29*
%TO.C,R281*%
X241490000Y-64350000D03*
X242510000Y-64350000D03*
%TD*%
D13*
%TO.C,C209*%
X218250000Y-158600000D03*
X218250000Y-157640000D03*
%TD*%
D29*
%TO.C,R77*%
X172625000Y-138425000D03*
X173645000Y-138425000D03*
%TD*%
D12*
%TO.C,C75*%
X155480000Y-160800000D03*
X154520000Y-160800000D03*
%TD*%
D29*
%TO.C,R182*%
X228890000Y-157600000D03*
X229910000Y-157600000D03*
%TD*%
%TO.C,R245*%
X242615000Y-156025000D03*
X243635000Y-156025000D03*
%TD*%
%TO.C,R150*%
X228890000Y-143200000D03*
X229910000Y-143200000D03*
%TD*%
D48*
%TO.C,U149*%
X250350000Y-70050000D03*
X250850000Y-70050000D03*
X251350000Y-70050000D03*
X251850000Y-70050000D03*
X251850000Y-66950000D03*
X251350000Y-66950000D03*
X250850000Y-66950000D03*
X250350000Y-66950000D03*
%TD*%
D32*
%TO.C,U36*%
X144800000Y-161150000D03*
X144800000Y-161800000D03*
X144800000Y-162450000D03*
X146700000Y-162450000D03*
X146700000Y-161800000D03*
X146700000Y-161150000D03*
%TD*%
D25*
%TO.C,R180*%
X227510000Y-155200000D03*
X226490000Y-155200000D03*
%TD*%
D29*
%TO.C,R158*%
X228890000Y-146400000D03*
X229910000Y-146400000D03*
%TD*%
%TO.C,R117*%
X172615000Y-156025000D03*
X173635000Y-156025000D03*
%TD*%
D15*
%TO.C,C240*%
X244655000Y-145625000D03*
X245615000Y-145625000D03*
%TD*%
%TO.C,C265*%
X244645000Y-156025000D03*
X245605000Y-156025000D03*
%TD*%
D29*
%TO.C,R134*%
X228890000Y-136000000D03*
X229910000Y-136000000D03*
%TD*%
%TO.C,R109*%
X172625000Y-152825000D03*
X173645000Y-152825000D03*
%TD*%
D25*
%TO.C,R272*%
X202710000Y-81700000D03*
X201690000Y-81700000D03*
%TD*%
%TO.C,R79*%
X171135000Y-140025000D03*
X170115000Y-140025000D03*
%TD*%
D17*
%TO.C,C233*%
X247025000Y-140445000D03*
X247025000Y-141405000D03*
%TD*%
D13*
%TO.C,C79*%
X153000000Y-161780000D03*
X153000000Y-160820000D03*
%TD*%
%TO.C,C190*%
X223000000Y-151400000D03*
X223000000Y-150440000D03*
%TD*%
D25*
%TO.C,R146*%
X227510000Y-139200000D03*
X226490000Y-139200000D03*
%TD*%
%TO.C,R10*%
X157510000Y-136000000D03*
X156490000Y-136000000D03*
%TD*%
%TO.C,R105*%
X171135000Y-152825000D03*
X170115000Y-152825000D03*
%TD*%
D29*
%TO.C,R14*%
X158890000Y-139200000D03*
X159910000Y-139200000D03*
%TD*%
D25*
%TO.C,R249*%
X241135000Y-160025000D03*
X240115000Y-160025000D03*
%TD*%
D29*
%TO.C,R85*%
X172615000Y-141625000D03*
X173635000Y-141625000D03*
%TD*%
%TO.C,R142*%
X228890000Y-139200000D03*
X229910000Y-139200000D03*
%TD*%
D12*
%TO.C,C77*%
X155480000Y-162400000D03*
X154520000Y-162400000D03*
%TD*%
D13*
%TO.C,C47*%
X148263500Y-147400000D03*
X148263500Y-146440000D03*
%TD*%
D30*
%TO.C,U132*%
X250525000Y-152475000D03*
X250525000Y-151825000D03*
X250525000Y-151175000D03*
X248625000Y-151175000D03*
X248625000Y-151825000D03*
X248625000Y-152475000D03*
%TD*%
D25*
%TO.C,R103*%
X171135000Y-151225000D03*
X170115000Y-151225000D03*
%TD*%
%TO.C,R178*%
X227510000Y-153600000D03*
X226490000Y-153600000D03*
%TD*%
D32*
%TO.C,U104*%
X214800000Y-157950000D03*
X214800000Y-158600000D03*
X214800000Y-159250000D03*
X216700000Y-159250000D03*
X216700000Y-158600000D03*
X216700000Y-157950000D03*
%TD*%
D30*
%TO.C,U67*%
X185175000Y-159375000D03*
X185175000Y-158725000D03*
X185175000Y-158075000D03*
X183275000Y-158075000D03*
X183275000Y-158725000D03*
X183275000Y-159375000D03*
%TD*%
D25*
%TO.C,R34*%
X157510000Y-146400000D03*
X156490000Y-146400000D03*
%TD*%
D49*
%TO.C,J6*%
X195680000Y-56635000D03*
D50*
X195680000Y-60815000D03*
D49*
X204320000Y-56635000D03*
D50*
X204320000Y-60815000D03*
D51*
X203200000Y-61390000D03*
X202400000Y-61390000D03*
D52*
X201750000Y-61390000D03*
X200750000Y-61390000D03*
X199250000Y-61390000D03*
X198250000Y-61390000D03*
D51*
X197600000Y-61390000D03*
X196800000Y-61390000D03*
X196800000Y-61390000D03*
X197600000Y-61390000D03*
D52*
X198750000Y-61390000D03*
X199750000Y-61390000D03*
X200250000Y-61390000D03*
X201250000Y-61390000D03*
D51*
X202400000Y-61390000D03*
X203200000Y-61390000D03*
%TD*%
D25*
%TO.C,R68*%
X157510000Y-162400000D03*
X156490000Y-162400000D03*
%TD*%
D15*
%TO.C,C121*%
X174655000Y-152825000D03*
X175615000Y-152825000D03*
%TD*%
D25*
%TO.C,R255*%
X241135000Y-161625000D03*
X240115000Y-161625000D03*
%TD*%
D29*
%TO.C,R125*%
X172625000Y-160025000D03*
X173645000Y-160025000D03*
%TD*%
%TO.C,R99*%
X172615000Y-147225000D03*
X173635000Y-147225000D03*
%TD*%
D25*
%TO.C,R44*%
X157510000Y-152000000D03*
X156490000Y-152000000D03*
%TD*%
D12*
%TO.C,C52*%
X155480000Y-152000000D03*
X154520000Y-152000000D03*
%TD*%
D53*
%TO.C,J7*%
X214550000Y-88100000D03*
X207850000Y-88100000D03*
D54*
X212200000Y-82350000D03*
X210200000Y-82350000D03*
%TD*%
D29*
%TO.C,R83*%
X172615000Y-140025000D03*
X173635000Y-140025000D03*
%TD*%
D17*
%TO.C,C148*%
X177025000Y-162045000D03*
X177025000Y-163005000D03*
%TD*%
D32*
%TO.C,U79*%
X219550000Y-139550000D03*
X219550000Y-140200000D03*
X219550000Y-140850000D03*
X221450000Y-140850000D03*
X221450000Y-140200000D03*
X221450000Y-139550000D03*
%TD*%
%TO.C,U90*%
X214800000Y-146750000D03*
X214800000Y-147400000D03*
X214800000Y-148050000D03*
X216700000Y-148050000D03*
X216700000Y-147400000D03*
X216700000Y-146750000D03*
%TD*%
D25*
%TO.C,R241*%
X241135000Y-156025000D03*
X240115000Y-156025000D03*
%TD*%
D15*
%TO.C,C146*%
X174645000Y-163225000D03*
X175605000Y-163225000D03*
%TD*%
D29*
%TO.C,R243*%
X242615000Y-154425000D03*
X243635000Y-154425000D03*
%TD*%
D12*
%TO.C,C7*%
X156780000Y-108400000D03*
X155820000Y-108400000D03*
%TD*%
D25*
%TO.C,R276*%
X154710000Y-109700000D03*
X153690000Y-109700000D03*
%TD*%
%TO.C,R113*%
X171135000Y-156025000D03*
X170115000Y-156025000D03*
%TD*%
D32*
%TO.C,U14*%
X144800000Y-143550000D03*
X144800000Y-144200000D03*
X144800000Y-144850000D03*
X146700000Y-144850000D03*
X146700000Y-144200000D03*
X146700000Y-143550000D03*
%TD*%
D25*
%TO.C,R50*%
X157510000Y-153600000D03*
X156490000Y-153600000D03*
%TD*%
%TO.C,R188*%
X227510000Y-159200000D03*
X226490000Y-159200000D03*
%TD*%
D13*
%TO.C,C200*%
X218263500Y-154600000D03*
X218263500Y-153640000D03*
%TD*%
D31*
%TO.C,U146*%
X258625000Y-157825000D03*
X258625000Y-158475000D03*
X258625000Y-159125000D03*
X258625000Y-159775000D03*
X258625000Y-160425000D03*
X258625000Y-161075000D03*
X258625000Y-161725000D03*
X258625000Y-162375000D03*
X264350000Y-162375000D03*
X264350000Y-161725000D03*
X264350000Y-161075000D03*
X264350000Y-160425000D03*
X264350000Y-159775000D03*
X264350000Y-159125000D03*
X264350000Y-158475000D03*
X264350000Y-157825000D03*
%TD*%
D55*
%TO.C,Q3*%
X199925000Y-82025000D03*
X199925000Y-80125000D03*
X198050000Y-81075000D03*
%TD*%
D12*
%TO.C,C171*%
X225480000Y-144800000D03*
X224520000Y-144800000D03*
%TD*%
D25*
%TO.C,R247*%
X241135000Y-158425000D03*
X240115000Y-158425000D03*
%TD*%
D12*
%TO.C,C58*%
X155480000Y-153600000D03*
X154520000Y-153600000D03*
%TD*%
M02*
