%TF.GenerationSoftware,KiCad,Pcbnew,8.0.1*%
%TF.CreationDate,2024-11-15T12:43:49-05:00*%
%TF.ProjectId,ephys-test-board,65706879-732d-4746-9573-742d626f6172,rev?*%
%TF.SameCoordinates,Original*%
%TF.FileFunction,Legend,Bot*%
%TF.FilePolarity,Positive*%
%FSLAX46Y46*%
G04 Gerber Fmt 4.6, Leading zero omitted, Abs format (unit mm)*
G04 Created by KiCad (PCBNEW 8.0.1) date 2024-11-15 12:43:49*
%MOMM*%
%LPD*%
G01*
G04 APERTURE LIST*
%ADD10C,0.150000*%
%ADD11C,0.120000*%
G04 APERTURE END LIST*
D10*
X234447613Y-87009580D02*
X234495232Y-87057200D01*
X234495232Y-87057200D02*
X234638089Y-87104819D01*
X234638089Y-87104819D02*
X234733327Y-87104819D01*
X234733327Y-87104819D02*
X234876184Y-87057200D01*
X234876184Y-87057200D02*
X234971422Y-86961961D01*
X234971422Y-86961961D02*
X235019041Y-86866723D01*
X235019041Y-86866723D02*
X235066660Y-86676247D01*
X235066660Y-86676247D02*
X235066660Y-86533390D01*
X235066660Y-86533390D02*
X235019041Y-86342914D01*
X235019041Y-86342914D02*
X234971422Y-86247676D01*
X234971422Y-86247676D02*
X234876184Y-86152438D01*
X234876184Y-86152438D02*
X234733327Y-86104819D01*
X234733327Y-86104819D02*
X234638089Y-86104819D01*
X234638089Y-86104819D02*
X234495232Y-86152438D01*
X234495232Y-86152438D02*
X234447613Y-86200057D01*
X234114279Y-86104819D02*
X233495232Y-86104819D01*
X233495232Y-86104819D02*
X233828565Y-86485771D01*
X233828565Y-86485771D02*
X233685708Y-86485771D01*
X233685708Y-86485771D02*
X233590470Y-86533390D01*
X233590470Y-86533390D02*
X233542851Y-86581009D01*
X233542851Y-86581009D02*
X233495232Y-86676247D01*
X233495232Y-86676247D02*
X233495232Y-86914342D01*
X233495232Y-86914342D02*
X233542851Y-87009580D01*
X233542851Y-87009580D02*
X233590470Y-87057200D01*
X233590470Y-87057200D02*
X233685708Y-87104819D01*
X233685708Y-87104819D02*
X233971422Y-87104819D01*
X233971422Y-87104819D02*
X234066660Y-87057200D01*
X234066660Y-87057200D02*
X234114279Y-87009580D01*
X232876184Y-86104819D02*
X232780946Y-86104819D01*
X232780946Y-86104819D02*
X232685708Y-86152438D01*
X232685708Y-86152438D02*
X232638089Y-86200057D01*
X232638089Y-86200057D02*
X232590470Y-86295295D01*
X232590470Y-86295295D02*
X232542851Y-86485771D01*
X232542851Y-86485771D02*
X232542851Y-86723866D01*
X232542851Y-86723866D02*
X232590470Y-86914342D01*
X232590470Y-86914342D02*
X232638089Y-87009580D01*
X232638089Y-87009580D02*
X232685708Y-87057200D01*
X232685708Y-87057200D02*
X232780946Y-87104819D01*
X232780946Y-87104819D02*
X232876184Y-87104819D01*
X232876184Y-87104819D02*
X232971422Y-87057200D01*
X232971422Y-87057200D02*
X233019041Y-87009580D01*
X233019041Y-87009580D02*
X233066660Y-86914342D01*
X233066660Y-86914342D02*
X233114279Y-86723866D01*
X233114279Y-86723866D02*
X233114279Y-86485771D01*
X233114279Y-86485771D02*
X233066660Y-86295295D01*
X233066660Y-86295295D02*
X233019041Y-86200057D01*
X233019041Y-86200057D02*
X232971422Y-86152438D01*
X232971422Y-86152438D02*
X232876184Y-86104819D01*
X231590470Y-87104819D02*
X232161898Y-87104819D01*
X231876184Y-87104819D02*
X231876184Y-86104819D01*
X231876184Y-86104819D02*
X231971422Y-86247676D01*
X231971422Y-86247676D02*
X232066660Y-86342914D01*
X232066660Y-86342914D02*
X232161898Y-86390533D01*
X237976899Y-78904819D02*
X237976899Y-79619104D01*
X237976899Y-79619104D02*
X238024518Y-79761961D01*
X238024518Y-79761961D02*
X238119756Y-79857200D01*
X238119756Y-79857200D02*
X238262613Y-79904819D01*
X238262613Y-79904819D02*
X238357851Y-79904819D01*
X237072137Y-79238152D02*
X237072137Y-79904819D01*
X237310232Y-78857200D02*
X237548327Y-79571485D01*
X237548327Y-79571485D02*
X236929280Y-79571485D01*
X239492613Y-90489580D02*
X239540232Y-90537200D01*
X239540232Y-90537200D02*
X239683089Y-90584819D01*
X239683089Y-90584819D02*
X239778327Y-90584819D01*
X239778327Y-90584819D02*
X239921184Y-90537200D01*
X239921184Y-90537200D02*
X240016422Y-90441961D01*
X240016422Y-90441961D02*
X240064041Y-90346723D01*
X240064041Y-90346723D02*
X240111660Y-90156247D01*
X240111660Y-90156247D02*
X240111660Y-90013390D01*
X240111660Y-90013390D02*
X240064041Y-89822914D01*
X240064041Y-89822914D02*
X240016422Y-89727676D01*
X240016422Y-89727676D02*
X239921184Y-89632438D01*
X239921184Y-89632438D02*
X239778327Y-89584819D01*
X239778327Y-89584819D02*
X239683089Y-89584819D01*
X239683089Y-89584819D02*
X239540232Y-89632438D01*
X239540232Y-89632438D02*
X239492613Y-89680057D01*
X239159279Y-89584819D02*
X238540232Y-89584819D01*
X238540232Y-89584819D02*
X238873565Y-89965771D01*
X238873565Y-89965771D02*
X238730708Y-89965771D01*
X238730708Y-89965771D02*
X238635470Y-90013390D01*
X238635470Y-90013390D02*
X238587851Y-90061009D01*
X238587851Y-90061009D02*
X238540232Y-90156247D01*
X238540232Y-90156247D02*
X238540232Y-90394342D01*
X238540232Y-90394342D02*
X238587851Y-90489580D01*
X238587851Y-90489580D02*
X238635470Y-90537200D01*
X238635470Y-90537200D02*
X238730708Y-90584819D01*
X238730708Y-90584819D02*
X239016422Y-90584819D01*
X239016422Y-90584819D02*
X239111660Y-90537200D01*
X239111660Y-90537200D02*
X239159279Y-90489580D01*
X237921184Y-89584819D02*
X237825946Y-89584819D01*
X237825946Y-89584819D02*
X237730708Y-89632438D01*
X237730708Y-89632438D02*
X237683089Y-89680057D01*
X237683089Y-89680057D02*
X237635470Y-89775295D01*
X237635470Y-89775295D02*
X237587851Y-89965771D01*
X237587851Y-89965771D02*
X237587851Y-90203866D01*
X237587851Y-90203866D02*
X237635470Y-90394342D01*
X237635470Y-90394342D02*
X237683089Y-90489580D01*
X237683089Y-90489580D02*
X237730708Y-90537200D01*
X237730708Y-90537200D02*
X237825946Y-90584819D01*
X237825946Y-90584819D02*
X237921184Y-90584819D01*
X237921184Y-90584819D02*
X238016422Y-90537200D01*
X238016422Y-90537200D02*
X238064041Y-90489580D01*
X238064041Y-90489580D02*
X238111660Y-90394342D01*
X238111660Y-90394342D02*
X238159279Y-90203866D01*
X238159279Y-90203866D02*
X238159279Y-89965771D01*
X238159279Y-89965771D02*
X238111660Y-89775295D01*
X238111660Y-89775295D02*
X238064041Y-89680057D01*
X238064041Y-89680057D02*
X238016422Y-89632438D01*
X238016422Y-89632438D02*
X237921184Y-89584819D01*
X237206898Y-89680057D02*
X237159279Y-89632438D01*
X237159279Y-89632438D02*
X237064041Y-89584819D01*
X237064041Y-89584819D02*
X236825946Y-89584819D01*
X236825946Y-89584819D02*
X236730708Y-89632438D01*
X236730708Y-89632438D02*
X236683089Y-89680057D01*
X236683089Y-89680057D02*
X236635470Y-89775295D01*
X236635470Y-89775295D02*
X236635470Y-89870533D01*
X236635470Y-89870533D02*
X236683089Y-90013390D01*
X236683089Y-90013390D02*
X237254517Y-90584819D01*
X237254517Y-90584819D02*
X236635470Y-90584819D01*
X242983385Y-85930952D02*
X242507194Y-85597619D01*
X242983385Y-85359524D02*
X241983385Y-85359524D01*
X241983385Y-85359524D02*
X241983385Y-85740476D01*
X241983385Y-85740476D02*
X242031004Y-85835714D01*
X242031004Y-85835714D02*
X242078623Y-85883333D01*
X242078623Y-85883333D02*
X242173861Y-85930952D01*
X242173861Y-85930952D02*
X242316718Y-85930952D01*
X242316718Y-85930952D02*
X242411956Y-85883333D01*
X242411956Y-85883333D02*
X242459575Y-85835714D01*
X242459575Y-85835714D02*
X242507194Y-85740476D01*
X242507194Y-85740476D02*
X242507194Y-85359524D01*
X242078623Y-86311905D02*
X242031004Y-86359524D01*
X242031004Y-86359524D02*
X241983385Y-86454762D01*
X241983385Y-86454762D02*
X241983385Y-86692857D01*
X241983385Y-86692857D02*
X242031004Y-86788095D01*
X242031004Y-86788095D02*
X242078623Y-86835714D01*
X242078623Y-86835714D02*
X242173861Y-86883333D01*
X242173861Y-86883333D02*
X242269099Y-86883333D01*
X242269099Y-86883333D02*
X242411956Y-86835714D01*
X242411956Y-86835714D02*
X242983385Y-86264286D01*
X242983385Y-86264286D02*
X242983385Y-86883333D01*
X241983385Y-87216667D02*
X241983385Y-87883333D01*
X241983385Y-87883333D02*
X242983385Y-87454762D01*
X241983385Y-88169048D02*
X241983385Y-88835714D01*
X241983385Y-88835714D02*
X242983385Y-88407143D01*
D11*
%TO.C,U140*%
X248875000Y-157865000D02*
X250285000Y-157865000D01*
X248875000Y-160185000D02*
X250275000Y-160185000D01*
X250655000Y-157915000D02*
X250415000Y-157585000D01*
X250895000Y-157585000D01*
X250655000Y-157915000D01*
G36*
X250655000Y-157915000D02*
G01*
X250415000Y-157585000D01*
X250895000Y-157585000D01*
X250655000Y-157915000D01*
G37*
%TO.C,R63*%
X159246359Y-161220000D02*
X159553641Y-161220000D01*
X159246359Y-161980000D02*
X159553641Y-161980000D01*
%TO.C,R185*%
X229246359Y-159620000D02*
X229553641Y-159620000D01*
X229246359Y-160380000D02*
X229553641Y-160380000D01*
%TO.C,C251*%
X251365000Y-147932836D02*
X251365000Y-147717164D01*
X252085000Y-147932836D02*
X252085000Y-147717164D01*
%TO.C,R157*%
X227153641Y-145220000D02*
X226846359Y-145220000D01*
X227153641Y-145980000D02*
X226846359Y-145980000D01*
%TO.C,R74*%
X172971359Y-135645000D02*
X173278641Y-135645000D01*
X172971359Y-136405000D02*
X173278641Y-136405000D01*
%TO.C,R234*%
X242971359Y-150045000D02*
X243278641Y-150045000D01*
X242971359Y-150805000D02*
X243278641Y-150805000D01*
%TO.C,U28*%
X146450000Y-153440000D02*
X145050000Y-153440000D01*
X146450000Y-155760000D02*
X145040000Y-155760000D01*
X144910000Y-156040000D02*
X144430000Y-156040000D01*
X144670000Y-155710000D01*
X144910000Y-156040000D01*
G36*
X144910000Y-156040000D02*
G01*
X144430000Y-156040000D01*
X144670000Y-155710000D01*
X144910000Y-156040000D01*
G37*
%TO.C,C44*%
X154892164Y-148440000D02*
X155107836Y-148440000D01*
X154892164Y-149160000D02*
X155107836Y-149160000D01*
%TO.C,R232*%
X240778641Y-151645000D02*
X240471359Y-151645000D01*
X240778641Y-152405000D02*
X240471359Y-152405000D01*
%TO.C,C115*%
X181365000Y-147932836D02*
X181365000Y-147717164D01*
X182085000Y-147932836D02*
X182085000Y-147717164D01*
%TO.C,U129*%
X253525000Y-150365000D02*
X254935000Y-150365000D01*
X253525000Y-152685000D02*
X254925000Y-152685000D01*
X255305000Y-150415000D02*
X255065000Y-150085000D01*
X255545000Y-150085000D01*
X255305000Y-150415000D01*
G36*
X255305000Y-150415000D02*
G01*
X255065000Y-150085000D01*
X255545000Y-150085000D01*
X255305000Y-150415000D01*
G37*
%TO.C,C103*%
X175242836Y-144465000D02*
X175027164Y-144465000D01*
X175242836Y-145185000D02*
X175027164Y-145185000D01*
%TO.C,R112*%
X170778641Y-154845000D02*
X170471359Y-154845000D01*
X170778641Y-155605000D02*
X170471359Y-155605000D01*
%TO.C,R244*%
X242971359Y-154845000D02*
X243278641Y-154845000D01*
X242971359Y-155605000D02*
X243278641Y-155605000D01*
%TO.C,C165*%
X222640000Y-139592164D02*
X222640000Y-139807836D01*
X223360000Y-139592164D02*
X223360000Y-139807836D01*
%TO.C,R220*%
X242981359Y-144445000D02*
X243288641Y-144445000D01*
X242981359Y-145205000D02*
X243288641Y-145205000D01*
%TO.C,C25*%
X154892164Y-139640000D02*
X155107836Y-139640000D01*
X154892164Y-140360000D02*
X155107836Y-140360000D01*
%TO.C,C90*%
X181365000Y-137732836D02*
X181365000Y-137517164D01*
X182085000Y-137732836D02*
X182085000Y-137517164D01*
%TO.C,C174*%
X222640000Y-143612164D02*
X222640000Y-143827836D01*
X223360000Y-143612164D02*
X223360000Y-143827836D01*
%TO.C,U22*%
X151200000Y-150240000D02*
X149800000Y-150240000D01*
X151200000Y-152560000D02*
X149790000Y-152560000D01*
X149660000Y-152840000D02*
X149180000Y-152840000D01*
X149420000Y-152510000D01*
X149660000Y-152840000D01*
G36*
X149660000Y-152840000D02*
G01*
X149180000Y-152840000D01*
X149420000Y-152510000D01*
X149660000Y-152840000D01*
G37*
%TO.C,R246*%
X240778641Y-157245000D02*
X240471359Y-157245000D01*
X240778641Y-158005000D02*
X240471359Y-158005000D01*
%TO.C,C204*%
X224892164Y-158040000D02*
X225107836Y-158040000D01*
X224892164Y-158760000D02*
X225107836Y-158760000D01*
%TO.C,C153*%
X224892164Y-136440000D02*
X225107836Y-136440000D01*
X224892164Y-137160000D02*
X225107836Y-137160000D01*
%TO.C,R104*%
X170778641Y-151645000D02*
X170471359Y-151645000D01*
X170778641Y-152405000D02*
X170471359Y-152405000D01*
%TO.C,U78*%
X216450000Y-135840000D02*
X215050000Y-135840000D01*
X216450000Y-138160000D02*
X215040000Y-138160000D01*
X214910000Y-138440000D02*
X214430000Y-138440000D01*
X214670000Y-138110000D01*
X214910000Y-138440000D01*
G36*
X214910000Y-138440000D02*
G01*
X214430000Y-138440000D01*
X214670000Y-138110000D01*
X214910000Y-138440000D01*
G37*
%TO.C,R43*%
X157153641Y-150820000D02*
X156846359Y-150820000D01*
X157153641Y-151580000D02*
X156846359Y-151580000D01*
%TO.C,R179*%
X227153641Y-154020000D02*
X226846359Y-154020000D01*
X227153641Y-154780000D02*
X226846359Y-154780000D01*
%TO.C,C27*%
X154892164Y-141240000D02*
X155107836Y-141240000D01*
X154892164Y-141960000D02*
X155107836Y-141960000D01*
%TO.C,R108*%
X172981359Y-151645000D02*
X173288641Y-151645000D01*
X172981359Y-152405000D02*
X173288641Y-152405000D01*
%TO.C,R200*%
X240778641Y-137245000D02*
X240471359Y-137245000D01*
X240778641Y-138005000D02*
X240471359Y-138005000D01*
%TO.C,R23*%
X159246359Y-143620000D02*
X159553641Y-143620000D01*
X159246359Y-144380000D02*
X159553641Y-144380000D01*
%TO.C,R242*%
X242971359Y-153245000D02*
X243278641Y-153245000D01*
X242971359Y-154005000D02*
X243278641Y-154005000D01*
%TO.C,R252*%
X242981359Y-158845000D02*
X243288641Y-158845000D01*
X242981359Y-159605000D02*
X243288641Y-159605000D01*
%TO.C,C157*%
X222640000Y-136412164D02*
X222640000Y-136627836D01*
X223360000Y-136412164D02*
X223360000Y-136627836D01*
%TO.C,U85*%
X221200000Y-143040000D02*
X219800000Y-143040000D01*
X221200000Y-145360000D02*
X219790000Y-145360000D01*
X219660000Y-145640000D02*
X219180000Y-145640000D01*
X219420000Y-145310000D01*
X219660000Y-145640000D01*
G36*
X219660000Y-145640000D02*
G01*
X219180000Y-145640000D01*
X219420000Y-145310000D01*
X219660000Y-145640000D01*
G37*
%TO.C,C19*%
X154892164Y-138040000D02*
X155107836Y-138040000D01*
X154892164Y-138760000D02*
X155107836Y-138760000D01*
%TO.C,C76*%
X154892164Y-161240000D02*
X155107836Y-161240000D01*
X154892164Y-161960000D02*
X155107836Y-161960000D01*
%TO.C,R137*%
X229246359Y-138020000D02*
X229553641Y-138020000D01*
X229246359Y-138780000D02*
X229553641Y-138780000D01*
%TO.C,C21*%
X152640000Y-136412164D02*
X152640000Y-136627836D01*
X153360000Y-136412164D02*
X153360000Y-136627836D01*
%TO.C,C230*%
X245232836Y-140465000D02*
X245017164Y-140465000D01*
X245232836Y-141185000D02*
X245017164Y-141185000D01*
%TO.C,U54*%
X178875000Y-146465000D02*
X180285000Y-146465000D01*
X178875000Y-148785000D02*
X180275000Y-148785000D01*
X180655000Y-146515000D02*
X180415000Y-146185000D01*
X180895000Y-146185000D01*
X180655000Y-146515000D01*
G36*
X180655000Y-146515000D02*
G01*
X180415000Y-146185000D01*
X180895000Y-146185000D01*
X180655000Y-146515000D01*
G37*
%TO.C,C82*%
X147903500Y-161212164D02*
X147903500Y-161427836D01*
X148623500Y-161212164D02*
X148623500Y-161427836D01*
%TO.C,C113*%
X176665000Y-148232836D02*
X176665000Y-148017164D01*
X177385000Y-148232836D02*
X177385000Y-148017164D01*
%TO.C,R98*%
X172971359Y-146045000D02*
X173278641Y-146045000D01*
X172971359Y-146805000D02*
X173278641Y-146805000D01*
%TO.C,R86*%
X170778641Y-142845000D02*
X170471359Y-142845000D01*
X170778641Y-143605000D02*
X170471359Y-143605000D01*
%TO.C,C161*%
X224892164Y-139640000D02*
X225107836Y-139640000D01*
X224892164Y-140360000D02*
X225107836Y-140360000D01*
%TO.C,R67*%
X157153641Y-161220000D02*
X156846359Y-161220000D01*
X157153641Y-161980000D02*
X156846359Y-161980000D01*
%TO.C,U39*%
X183525000Y-135965000D02*
X184935000Y-135965000D01*
X183525000Y-138285000D02*
X184925000Y-138285000D01*
X185305000Y-136015000D02*
X185065000Y-135685000D01*
X185545000Y-135685000D01*
X185305000Y-136015000D01*
G36*
X185305000Y-136015000D02*
G01*
X185065000Y-135685000D01*
X185545000Y-135685000D01*
X185305000Y-136015000D01*
G37*
%TO.C,R84*%
X172971359Y-140445000D02*
X173278641Y-140445000D01*
X172971359Y-141205000D02*
X173278641Y-141205000D01*
%TO.C,R189*%
X227153641Y-159620000D02*
X226846359Y-159620000D01*
X227153641Y-160380000D02*
X226846359Y-160380000D01*
%TO.C,C57*%
X147890000Y-150812164D02*
X147890000Y-151027836D01*
X148610000Y-150812164D02*
X148610000Y-151027836D01*
%TO.C,C29*%
X152640000Y-139592164D02*
X152640000Y-139807836D01*
X153360000Y-139592164D02*
X153360000Y-139807836D01*
%TO.C,C53*%
X154892164Y-152440000D02*
X155107836Y-152440000D01*
X154892164Y-153160000D02*
X155107836Y-153160000D01*
%TO.C,R139*%
X227153641Y-136420000D02*
X226846359Y-136420000D01*
X227153641Y-137180000D02*
X226846359Y-137180000D01*
%TO.C,R102*%
X170778641Y-150045000D02*
X170471359Y-150045000D01*
X170778641Y-150805000D02*
X170471359Y-150805000D01*
%TO.C,C249*%
X246665000Y-148232836D02*
X246665000Y-148017164D01*
X247385000Y-148232836D02*
X247385000Y-148017164D01*
%TO.C,C38*%
X152640000Y-143612164D02*
X152640000Y-143827836D01*
X153360000Y-143612164D02*
X153360000Y-143827836D01*
%TO.C,R124*%
X172981359Y-158845000D02*
X173288641Y-158845000D01*
X172981359Y-159605000D02*
X173288641Y-159605000D01*
%TO.C,R236*%
X242981359Y-151645000D02*
X243288641Y-151645000D01*
X242981359Y-152405000D02*
X243288641Y-152405000D01*
%TO.C,C243*%
X251365000Y-144932836D02*
X251365000Y-144717164D01*
X252085000Y-144932836D02*
X252085000Y-144717164D01*
%TO.C,U144*%
X248875000Y-160865000D02*
X250285000Y-160865000D01*
X248875000Y-163185000D02*
X250275000Y-163185000D01*
X250655000Y-160915000D02*
X250415000Y-160585000D01*
X250895000Y-160585000D01*
X250655000Y-160915000D01*
G36*
X250655000Y-160915000D02*
G01*
X250415000Y-160585000D01*
X250895000Y-160585000D01*
X250655000Y-160915000D01*
G37*
%TO.C,C122*%
X176665000Y-152432836D02*
X176665000Y-152217164D01*
X177385000Y-152432836D02*
X177385000Y-152217164D01*
%TO.C,C149*%
X181365000Y-162332836D02*
X181365000Y-162117164D01*
X182085000Y-162332836D02*
X182085000Y-162117164D01*
%TO.C,C279*%
X245232836Y-160465000D02*
X245017164Y-160465000D01*
X245232836Y-161185000D02*
X245017164Y-161185000D01*
%TO.C,R218*%
X242971359Y-142845000D02*
X243278641Y-142845000D01*
X242971359Y-143605000D02*
X243278641Y-143605000D01*
%TO.C,U10*%
X146450000Y-139040000D02*
X145050000Y-139040000D01*
X146450000Y-141360000D02*
X145040000Y-141360000D01*
X144910000Y-141640000D02*
X144430000Y-141640000D01*
X144670000Y-141310000D01*
X144910000Y-141640000D01*
G36*
X144910000Y-141640000D02*
G01*
X144430000Y-141640000D01*
X144670000Y-141310000D01*
X144910000Y-141640000D01*
G37*
%TO.C,R128*%
X170778641Y-162045000D02*
X170471359Y-162045000D01*
X170778641Y-162805000D02*
X170471359Y-162805000D01*
%TO.C,R45*%
X157153641Y-152420000D02*
X156846359Y-152420000D01*
X157153641Y-153180000D02*
X156846359Y-153180000D01*
%TO.C,C216*%
X222640000Y-161192164D02*
X222640000Y-161407836D01*
X223360000Y-161192164D02*
X223360000Y-161407836D01*
%TO.C,C277*%
X251365000Y-159332836D02*
X251365000Y-159117164D01*
X252085000Y-159332836D02*
X252085000Y-159117164D01*
%TO.C,C145*%
X175232836Y-162065000D02*
X175017164Y-162065000D01*
X175232836Y-162785000D02*
X175017164Y-162785000D01*
%TO.C,C36*%
X154892164Y-145240000D02*
X155107836Y-145240000D01*
X154892164Y-145960000D02*
X155107836Y-145960000D01*
%TO.C,R88*%
X170778641Y-144445000D02*
X170471359Y-144445000D01*
X170778641Y-145205000D02*
X170471359Y-145205000D01*
%TO.C,C72*%
X152640000Y-158012164D02*
X152640000Y-158227836D01*
X153360000Y-158012164D02*
X153360000Y-158227836D01*
%TO.C,C212*%
X224892164Y-161240000D02*
X225107836Y-161240000D01*
X224892164Y-161960000D02*
X225107836Y-161960000D01*
%TO.C,R116*%
X172971359Y-154845000D02*
X173278641Y-154845000D01*
X172971359Y-155605000D02*
X173278641Y-155605000D01*
%TO.C,R94*%
X170778641Y-146045000D02*
X170471359Y-146045000D01*
X170778641Y-146805000D02*
X170471359Y-146805000D01*
%TO.C,C155*%
X224892164Y-138040000D02*
X225107836Y-138040000D01*
X224892164Y-138760000D02*
X225107836Y-138760000D01*
%TO.C,C132*%
X181365000Y-155132836D02*
X181365000Y-154917164D01*
X182085000Y-155132836D02*
X182085000Y-154917164D01*
%TO.C,C189*%
X224892164Y-152440000D02*
X225107836Y-152440000D01*
X224892164Y-153160000D02*
X225107836Y-153160000D01*
%TO.C,C266*%
X246665000Y-155432836D02*
X246665000Y-155217164D01*
X247385000Y-155432836D02*
X247385000Y-155217164D01*
%TO.C,U117*%
X248875000Y-139265000D02*
X250285000Y-139265000D01*
X248875000Y-141585000D02*
X250275000Y-141585000D01*
X250655000Y-139315000D02*
X250415000Y-138985000D01*
X250895000Y-138985000D01*
X250655000Y-139315000D01*
G36*
X250655000Y-139315000D02*
G01*
X250415000Y-138985000D01*
X250895000Y-138985000D01*
X250655000Y-139315000D01*
G37*
%TO.C,C40*%
X147890000Y-143612164D02*
X147890000Y-143827836D01*
X148610000Y-143612164D02*
X148610000Y-143827836D01*
%TO.C,R155*%
X227153641Y-143620000D02*
X226846359Y-143620000D01*
X227153641Y-144380000D02*
X226846359Y-144380000D01*
%TO.C,R216*%
X240778641Y-144445000D02*
X240471359Y-144445000D01*
X240778641Y-145205000D02*
X240471359Y-145205000D01*
%TO.C,U52*%
X183525000Y-146165000D02*
X184935000Y-146165000D01*
X183525000Y-148485000D02*
X184925000Y-148485000D01*
X185305000Y-146215000D02*
X185065000Y-145885000D01*
X185545000Y-145885000D01*
X185305000Y-146215000D01*
G36*
X185305000Y-146215000D02*
G01*
X185065000Y-145885000D01*
X185545000Y-145885000D01*
X185305000Y-146215000D01*
G37*
%TO.C,R181*%
X227153641Y-155620000D02*
X226846359Y-155620000D01*
X227153641Y-156380000D02*
X226846359Y-156380000D01*
%TO.C,U133*%
X253525000Y-153365000D02*
X254935000Y-153365000D01*
X253525000Y-155685000D02*
X254925000Y-155685000D01*
X255305000Y-153415000D02*
X255065000Y-153085000D01*
X255545000Y-153085000D01*
X255305000Y-153415000D01*
G36*
X255305000Y-153415000D02*
G01*
X255065000Y-153085000D01*
X255545000Y-153085000D01*
X255305000Y-153415000D01*
G37*
%TO.C,C88*%
X176665000Y-138032836D02*
X176665000Y-137817164D01*
X177385000Y-138032836D02*
X177385000Y-137817164D01*
%TO.C,U76*%
X221200000Y-135840000D02*
X219800000Y-135840000D01*
X221200000Y-138160000D02*
X219790000Y-138160000D01*
X219660000Y-138440000D02*
X219180000Y-138440000D01*
X219420000Y-138110000D01*
X219660000Y-138440000D01*
G36*
X219660000Y-138440000D02*
G01*
X219180000Y-138440000D01*
X219420000Y-138110000D01*
X219660000Y-138440000D01*
G37*
%TO.C,R250*%
X242971359Y-157245000D02*
X243278641Y-157245000D01*
X242971359Y-158005000D02*
X243278641Y-158005000D01*
%TO.C,U113*%
X248875000Y-136265000D02*
X250285000Y-136265000D01*
X248875000Y-138585000D02*
X250275000Y-138585000D01*
X250655000Y-136315000D02*
X250415000Y-135985000D01*
X250895000Y-135985000D01*
X250655000Y-136315000D01*
G36*
X250655000Y-136315000D02*
G01*
X250415000Y-135985000D01*
X250895000Y-135985000D01*
X250655000Y-136315000D01*
G37*
%TO.C,C206*%
X224892164Y-159640000D02*
X225107836Y-159640000D01*
X224892164Y-160360000D02*
X225107836Y-160360000D01*
%TO.C,U89*%
X221200000Y-146240000D02*
X219800000Y-146240000D01*
X221200000Y-148560000D02*
X219790000Y-148560000D01*
X219660000Y-148840000D02*
X219180000Y-148840000D01*
X219420000Y-148510000D01*
X219660000Y-148840000D01*
G36*
X219660000Y-148840000D02*
G01*
X219180000Y-148840000D01*
X219420000Y-148510000D01*
X219660000Y-148840000D01*
G37*
%TO.C,U24*%
X146450000Y-150240000D02*
X145050000Y-150240000D01*
X146450000Y-152560000D02*
X145040000Y-152560000D01*
X144910000Y-152840000D02*
X144430000Y-152840000D01*
X144670000Y-152510000D01*
X144910000Y-152840000D01*
G36*
X144910000Y-152840000D02*
G01*
X144430000Y-152840000D01*
X144670000Y-152510000D01*
X144910000Y-152840000D01*
G37*
%TO.C,R92*%
X172981359Y-144445000D02*
X173288641Y-144445000D01*
X172981359Y-145205000D02*
X173288641Y-145205000D01*
%TO.C,R147*%
X227153641Y-139620000D02*
X226846359Y-139620000D01*
X227153641Y-140380000D02*
X226846359Y-140380000D01*
%TO.C,U80*%
X221200000Y-139040000D02*
X219800000Y-139040000D01*
X221200000Y-141360000D02*
X219790000Y-141360000D01*
X219660000Y-141640000D02*
X219180000Y-141640000D01*
X219420000Y-141310000D01*
X219660000Y-141640000D01*
G36*
X219660000Y-141640000D02*
G01*
X219180000Y-141640000D01*
X219420000Y-141310000D01*
X219660000Y-141640000D01*
G37*
%TO.C,C42*%
X154892164Y-146840000D02*
X155107836Y-146840000D01*
X154892164Y-147560000D02*
X155107836Y-147560000D01*
%TO.C,U72*%
X178875000Y-160865000D02*
X180285000Y-160865000D01*
X178875000Y-163185000D02*
X180275000Y-163185000D01*
X180655000Y-160915000D02*
X180415000Y-160585000D01*
X180895000Y-160585000D01*
X180655000Y-160915000D01*
G36*
X180655000Y-160915000D02*
G01*
X180415000Y-160585000D01*
X180895000Y-160585000D01*
X180655000Y-160915000D01*
G37*
%TO.C,U122*%
X248875000Y-143465000D02*
X250285000Y-143465000D01*
X248875000Y-145785000D02*
X250275000Y-145785000D01*
X250655000Y-143515000D02*
X250415000Y-143185000D01*
X250895000Y-143185000D01*
X250655000Y-143515000D01*
G36*
X250655000Y-143515000D02*
G01*
X250415000Y-143185000D01*
X250895000Y-143185000D01*
X250655000Y-143515000D01*
G37*
%TO.C,C141*%
X181365000Y-159332836D02*
X181365000Y-159117164D01*
X182085000Y-159332836D02*
X182085000Y-159117164D01*
%TO.C,U26*%
X151200000Y-153440000D02*
X149800000Y-153440000D01*
X151200000Y-155760000D02*
X149790000Y-155760000D01*
X149660000Y-156040000D02*
X149180000Y-156040000D01*
X149420000Y-155710000D01*
X149660000Y-156040000D01*
G36*
X149660000Y-156040000D02*
G01*
X149180000Y-156040000D01*
X149420000Y-155710000D01*
X149660000Y-156040000D01*
G37*
%TO.C,R222*%
X240778641Y-146045000D02*
X240471359Y-146045000D01*
X240778641Y-146805000D02*
X240471359Y-146805000D01*
%TO.C,R80*%
X170778641Y-140445000D02*
X170471359Y-140445000D01*
X170778641Y-141205000D02*
X170471359Y-141205000D01*
%TO.C,R238*%
X240778641Y-153245000D02*
X240471359Y-153245000D01*
X240778641Y-154005000D02*
X240471359Y-154005000D01*
%TO.C,R59*%
X157153641Y-158020000D02*
X156846359Y-158020000D01*
X157153641Y-158780000D02*
X156846359Y-158780000D01*
%TO.C,C247*%
X245232836Y-147665000D02*
X245017164Y-147665000D01*
X245232836Y-148385000D02*
X245017164Y-148385000D01*
%TO.C,U82*%
X216450000Y-139040000D02*
X215050000Y-139040000D01*
X216450000Y-141360000D02*
X215040000Y-141360000D01*
X214910000Y-141640000D02*
X214430000Y-141640000D01*
X214670000Y-141310000D01*
X214910000Y-141640000D01*
G36*
X214910000Y-141640000D02*
G01*
X214430000Y-141640000D01*
X214670000Y-141310000D01*
X214910000Y-141640000D01*
G37*
%TO.C,C178*%
X224892164Y-146840000D02*
X225107836Y-146840000D01*
X224892164Y-147560000D02*
X225107836Y-147560000D01*
%TO.C,R173*%
X227153641Y-152420000D02*
X226846359Y-152420000D01*
X227153641Y-153180000D02*
X226846359Y-153180000D01*
%TO.C,C222*%
X245242836Y-137265000D02*
X245027164Y-137265000D01*
X245242836Y-137985000D02*
X245027164Y-137985000D01*
%TO.C,C92*%
X175232836Y-138865000D02*
X175017164Y-138865000D01*
X175232836Y-139585000D02*
X175017164Y-139585000D01*
%TO.C,U35*%
X151200000Y-160640000D02*
X149800000Y-160640000D01*
X151200000Y-162960000D02*
X149790000Y-162960000D01*
X149660000Y-163240000D02*
X149180000Y-163240000D01*
X149420000Y-162910000D01*
X149660000Y-163240000D01*
G36*
X149660000Y-163240000D02*
G01*
X149180000Y-163240000D01*
X149420000Y-162910000D01*
X149660000Y-163240000D01*
G37*
%TO.C,C65*%
X147903500Y-154012164D02*
X147903500Y-154227836D01*
X148623500Y-154012164D02*
X148623500Y-154227836D01*
%TO.C,R21*%
X157153641Y-141220000D02*
X156846359Y-141220000D01*
X157153641Y-141980000D02*
X156846359Y-141980000D01*
%TO.C,C98*%
X181365000Y-140732836D02*
X181365000Y-140517164D01*
X182085000Y-140732836D02*
X182085000Y-140517164D01*
%TO.C,C74*%
X147890000Y-158012164D02*
X147890000Y-158227836D01*
X148610000Y-158012164D02*
X148610000Y-158227836D01*
%TO.C,C51*%
X154892164Y-150840000D02*
X155107836Y-150840000D01*
X154892164Y-151560000D02*
X155107836Y-151560000D01*
%TO.C,R175*%
X229246359Y-154020000D02*
X229553641Y-154020000D01*
X229246359Y-154780000D02*
X229553641Y-154780000D01*
%TO.C,C241*%
X246665000Y-145232836D02*
X246665000Y-145017164D01*
X247385000Y-145232836D02*
X247385000Y-145017164D01*
%TO.C,C191*%
X222640000Y-150812164D02*
X222640000Y-151027836D01*
X223360000Y-150812164D02*
X223360000Y-151027836D01*
%TO.C,R69*%
X157153641Y-162820000D02*
X156846359Y-162820000D01*
X157153641Y-163580000D02*
X156846359Y-163580000D01*
%TO.C,U138*%
X253525000Y-157565000D02*
X254935000Y-157565000D01*
X253525000Y-159885000D02*
X254925000Y-159885000D01*
X255305000Y-157615000D02*
X255065000Y-157285000D01*
X255545000Y-157285000D01*
X255305000Y-157615000D01*
G36*
X255305000Y-157615000D02*
G01*
X255065000Y-157285000D01*
X255545000Y-157285000D01*
X255305000Y-157615000D01*
G37*
%TO.C,C55*%
X152640000Y-150812164D02*
X152640000Y-151027836D01*
X153360000Y-150812164D02*
X153360000Y-151027836D01*
%TO.C,R228*%
X242971359Y-147645000D02*
X243278641Y-147645000D01*
X242971359Y-148405000D02*
X243278641Y-148405000D01*
%TO.C,C128*%
X175232836Y-154865000D02*
X175017164Y-154865000D01*
X175232836Y-155585000D02*
X175017164Y-155585000D01*
%TO.C,C210*%
X217890000Y-158012164D02*
X217890000Y-158227836D01*
X218610000Y-158012164D02*
X218610000Y-158227836D01*
%TO.C,U109*%
X216450000Y-160640000D02*
X215050000Y-160640000D01*
X216450000Y-162960000D02*
X215040000Y-162960000D01*
X214910000Y-163240000D02*
X214430000Y-163240000D01*
X214670000Y-162910000D01*
X214910000Y-163240000D01*
G36*
X214910000Y-163240000D02*
G01*
X214430000Y-163240000D01*
X214670000Y-162910000D01*
X214910000Y-163240000D01*
G37*
%TO.C,R198*%
X240778641Y-135645000D02*
X240471359Y-135645000D01*
X240778641Y-136405000D02*
X240471359Y-136405000D01*
%TO.C,C262*%
X245232836Y-153265000D02*
X245017164Y-153265000D01*
X245232836Y-153985000D02*
X245017164Y-153985000D01*
%TO.C,C273*%
X245242836Y-158865000D02*
X245027164Y-158865000D01*
X245242836Y-159585000D02*
X245027164Y-159585000D01*
%TO.C,C139*%
X176665000Y-159632836D02*
X176665000Y-159417164D01*
X177385000Y-159632836D02*
X177385000Y-159417164D01*
%TO.C,R76*%
X172981359Y-137245000D02*
X173288641Y-137245000D01*
X172981359Y-138005000D02*
X173288641Y-138005000D01*
%TO.C,R167*%
X229246359Y-150820000D02*
X229553641Y-150820000D01*
X229246359Y-151580000D02*
X229553641Y-151580000D01*
%TO.C,U70*%
X183525000Y-160565000D02*
X184935000Y-160565000D01*
X183525000Y-162885000D02*
X184925000Y-162885000D01*
X185305000Y-160615000D02*
X185065000Y-160285000D01*
X185545000Y-160285000D01*
X185305000Y-160615000D01*
G36*
X185305000Y-160615000D02*
G01*
X185065000Y-160285000D01*
X185545000Y-160285000D01*
X185305000Y-160615000D01*
G37*
%TO.C,C234*%
X251365000Y-140732836D02*
X251365000Y-140517164D01*
X252085000Y-140732836D02*
X252085000Y-140517164D01*
%TO.C,C208*%
X222640000Y-158012164D02*
X222640000Y-158227836D01*
X223360000Y-158012164D02*
X223360000Y-158227836D01*
%TO.C,U87*%
X216450000Y-143040000D02*
X215050000Y-143040000D01*
X216450000Y-145360000D02*
X215040000Y-145360000D01*
X214910000Y-145640000D02*
X214430000Y-145640000D01*
X214670000Y-145310000D01*
X214910000Y-145640000D01*
G36*
X214910000Y-145640000D02*
G01*
X214430000Y-145640000D01*
X214670000Y-145310000D01*
X214910000Y-145640000D01*
G37*
%TO.C,U120*%
X253525000Y-143165000D02*
X254935000Y-143165000D01*
X253525000Y-145485000D02*
X254925000Y-145485000D01*
X255305000Y-143215000D02*
X255065000Y-142885000D01*
X255545000Y-142885000D01*
X255305000Y-143215000D01*
G36*
X255305000Y-143215000D02*
G01*
X255065000Y-142885000D01*
X255545000Y-142885000D01*
X255305000Y-143215000D01*
G37*
%TO.C,R25*%
X159246359Y-145220000D02*
X159553641Y-145220000D01*
X159246359Y-145980000D02*
X159553641Y-145980000D01*
%TO.C,C197*%
X224892164Y-155640000D02*
X225107836Y-155640000D01*
X224892164Y-156360000D02*
X225107836Y-156360000D01*
%TO.C,C120*%
X175242836Y-151665000D02*
X175027164Y-151665000D01*
X175242836Y-152385000D02*
X175027164Y-152385000D01*
%TO.C,C271*%
X245232836Y-157265000D02*
X245017164Y-157265000D01*
X245232836Y-157985000D02*
X245017164Y-157985000D01*
%TO.C,C170*%
X224892164Y-143640000D02*
X225107836Y-143640000D01*
X224892164Y-144360000D02*
X225107836Y-144360000D01*
%TO.C,U98*%
X221200000Y-153440000D02*
X219800000Y-153440000D01*
X221200000Y-155760000D02*
X219790000Y-155760000D01*
X219660000Y-156040000D02*
X219180000Y-156040000D01*
X219420000Y-155710000D01*
X219660000Y-156040000D01*
G36*
X219660000Y-156040000D02*
G01*
X219180000Y-156040000D01*
X219420000Y-155710000D01*
X219660000Y-156040000D01*
G37*
%TO.C,U100*%
X216450000Y-153440000D02*
X215050000Y-153440000D01*
X216450000Y-155760000D02*
X215040000Y-155760000D01*
X214910000Y-156040000D02*
X214430000Y-156040000D01*
X214670000Y-155710000D01*
X214910000Y-156040000D01*
G36*
X214910000Y-156040000D02*
G01*
X214430000Y-156040000D01*
X214670000Y-155710000D01*
X214910000Y-156040000D01*
G37*
%TO.C,U41*%
X178875000Y-136265000D02*
X180285000Y-136265000D01*
X178875000Y-138585000D02*
X180275000Y-138585000D01*
X180655000Y-136315000D02*
X180415000Y-135985000D01*
X180895000Y-135985000D01*
X180655000Y-136315000D01*
G36*
X180655000Y-136315000D02*
G01*
X180415000Y-135985000D01*
X180895000Y-135985000D01*
X180655000Y-136315000D01*
G37*
%TO.C,C59*%
X154892164Y-154040000D02*
X155107836Y-154040000D01*
X154892164Y-154760000D02*
X155107836Y-154760000D01*
%TO.C,R57*%
X159246359Y-159620000D02*
X159553641Y-159620000D01*
X159246359Y-160380000D02*
X159553641Y-160380000D01*
%TO.C,R195*%
X227153641Y-161220000D02*
X226846359Y-161220000D01*
X227153641Y-161980000D02*
X226846359Y-161980000D01*
%TO.C,R145*%
X229246359Y-141220000D02*
X229553641Y-141220000D01*
X229246359Y-141980000D02*
X229553641Y-141980000D01*
%TO.C,C135*%
X175232836Y-157265000D02*
X175017164Y-157265000D01*
X175232836Y-157985000D02*
X175017164Y-157985000D01*
%TO.C,C193*%
X217890000Y-150812164D02*
X217890000Y-151027836D01*
X218610000Y-150812164D02*
X218610000Y-151027836D01*
%TO.C,R65*%
X159246359Y-162820000D02*
X159553641Y-162820000D01*
X159246359Y-163580000D02*
X159553641Y-163580000D01*
%TO.C,R39*%
X159246359Y-150820000D02*
X159553641Y-150820000D01*
X159246359Y-151580000D02*
X159553641Y-151580000D01*
%TO.C,R27*%
X157153641Y-143620000D02*
X156846359Y-143620000D01*
X157153641Y-144380000D02*
X156846359Y-144380000D01*
%TO.C,R197*%
X227153641Y-162820000D02*
X226846359Y-162820000D01*
X227153641Y-163580000D02*
X226846359Y-163580000D01*
%TO.C,C281*%
X245232836Y-162065000D02*
X245017164Y-162065000D01*
X245232836Y-162785000D02*
X245017164Y-162785000D01*
%TO.C,U33*%
X146450000Y-157440000D02*
X145050000Y-157440000D01*
X146450000Y-159760000D02*
X145040000Y-159760000D01*
X144910000Y-160040000D02*
X144430000Y-160040000D01*
X144670000Y-159710000D01*
X144910000Y-160040000D01*
G36*
X144910000Y-160040000D02*
G01*
X144430000Y-160040000D01*
X144670000Y-159710000D01*
X144910000Y-160040000D01*
G37*
%TO.C,C285*%
X251365000Y-162332836D02*
X251365000Y-162117164D01*
X252085000Y-162332836D02*
X252085000Y-162117164D01*
%TO.C,U6*%
X146450000Y-135840000D02*
X145050000Y-135840000D01*
X146450000Y-138160000D02*
X145040000Y-138160000D01*
X144910000Y-138440000D02*
X144430000Y-138440000D01*
X144670000Y-138110000D01*
X144910000Y-138440000D01*
G36*
X144910000Y-138440000D02*
G01*
X144430000Y-138440000D01*
X144670000Y-138110000D01*
X144910000Y-138440000D01*
G37*
%TO.C,U57*%
X183525000Y-150365000D02*
X184935000Y-150365000D01*
X183525000Y-152685000D02*
X184925000Y-152685000D01*
X185305000Y-150415000D02*
X185065000Y-150085000D01*
X185545000Y-150085000D01*
X185305000Y-150415000D01*
G36*
X185305000Y-150415000D02*
G01*
X185065000Y-150085000D01*
X185545000Y-150085000D01*
X185305000Y-150415000D01*
G37*
%TO.C,R260*%
X242971359Y-162045000D02*
X243278641Y-162045000D01*
X242971359Y-162805000D02*
X243278641Y-162805000D01*
%TO.C,R230*%
X240778641Y-150045000D02*
X240471359Y-150045000D01*
X240778641Y-150805000D02*
X240471359Y-150805000D01*
%TO.C,C182*%
X222640000Y-146792164D02*
X222640000Y-147007836D01*
X223360000Y-146792164D02*
X223360000Y-147007836D01*
%TO.C,R2*%
X179546359Y-113520000D02*
X179853641Y-113520000D01*
X179546359Y-114280000D02*
X179853641Y-114280000D01*
%TO.C,C137*%
X175242836Y-158865000D02*
X175027164Y-158865000D01*
X175242836Y-159585000D02*
X175027164Y-159585000D01*
%TO.C,C268*%
X251365000Y-155132836D02*
X251365000Y-154917164D01*
X252085000Y-155132836D02*
X252085000Y-154917164D01*
%TO.C,R61*%
X157153641Y-159620000D02*
X156846359Y-159620000D01*
X157153641Y-160380000D02*
X156846359Y-160380000D01*
%TO.C,C275*%
X246665000Y-159632836D02*
X246665000Y-159417164D01*
X247385000Y-159632836D02*
X247385000Y-159417164D01*
%TO.C,R161*%
X229246359Y-148420000D02*
X229553641Y-148420000D01*
X229246359Y-149180000D02*
X229553641Y-149180000D01*
%TO.C,C258*%
X246665000Y-152432836D02*
X246665000Y-152217164D01*
X247385000Y-152432836D02*
X247385000Y-152217164D01*
%TO.C,U61*%
X183525000Y-153365000D02*
X184935000Y-153365000D01*
X183525000Y-155685000D02*
X184925000Y-155685000D01*
X185305000Y-153415000D02*
X185065000Y-153085000D01*
X185545000Y-153085000D01*
X185305000Y-153415000D01*
G36*
X185305000Y-153415000D02*
G01*
X185065000Y-153085000D01*
X185545000Y-153085000D01*
X185305000Y-153415000D01*
G37*
%TO.C,R15*%
X159246359Y-139620000D02*
X159553641Y-139620000D01*
X159246359Y-140380000D02*
X159553641Y-140380000D01*
%TO.C,C105*%
X176665000Y-145232836D02*
X176665000Y-145017164D01*
X177385000Y-145232836D02*
X177385000Y-145017164D01*
%TO.C,C214*%
X224892164Y-162840000D02*
X225107836Y-162840000D01*
X224892164Y-163560000D02*
X225107836Y-163560000D01*
%TO.C,U13*%
X151200000Y-143040000D02*
X149800000Y-143040000D01*
X151200000Y-145360000D02*
X149790000Y-145360000D01*
X149660000Y-145640000D02*
X149180000Y-145640000D01*
X149420000Y-145310000D01*
X149660000Y-145640000D01*
G36*
X149660000Y-145640000D02*
G01*
X149180000Y-145640000D01*
X149420000Y-145310000D01*
X149660000Y-145640000D01*
G37*
%TO.C,U8*%
X151200000Y-139040000D02*
X149800000Y-139040000D01*
X151200000Y-141360000D02*
X149790000Y-141360000D01*
X149660000Y-141640000D02*
X149180000Y-141640000D01*
X149420000Y-141310000D01*
X149660000Y-141640000D01*
G36*
X149660000Y-141640000D02*
G01*
X149180000Y-141640000D01*
X149420000Y-141310000D01*
X149660000Y-141640000D01*
G37*
%TO.C,C254*%
X245232836Y-150065000D02*
X245017164Y-150065000D01*
X245232836Y-150785000D02*
X245017164Y-150785000D01*
%TO.C,U31*%
X151200000Y-157440000D02*
X149800000Y-157440000D01*
X151200000Y-159760000D02*
X149790000Y-159760000D01*
X149660000Y-160040000D02*
X149180000Y-160040000D01*
X149420000Y-159710000D01*
X149660000Y-160040000D01*
G36*
X149660000Y-160040000D02*
G01*
X149180000Y-160040000D01*
X149420000Y-159710000D01*
X149660000Y-160040000D01*
G37*
%TO.C,R122*%
X172971359Y-157245000D02*
X173278641Y-157245000D01*
X172971359Y-158005000D02*
X173278641Y-158005000D01*
%TO.C,U4*%
X151200000Y-135840000D02*
X149800000Y-135840000D01*
X151200000Y-138160000D02*
X149790000Y-138160000D01*
X149660000Y-138440000D02*
X149180000Y-138440000D01*
X149420000Y-138110000D01*
X149660000Y-138440000D01*
G36*
X149660000Y-138440000D02*
G01*
X149180000Y-138440000D01*
X149420000Y-138110000D01*
X149660000Y-138440000D01*
G37*
%TO.C,C167*%
X217903500Y-139612164D02*
X217903500Y-139827836D01*
X218623500Y-139612164D02*
X218623500Y-139827836D01*
%TO.C,R120*%
X170778641Y-158845000D02*
X170471359Y-158845000D01*
X170778641Y-159605000D02*
X170471359Y-159605000D01*
%TO.C,C130*%
X176665000Y-155432836D02*
X176665000Y-155217164D01*
X177385000Y-155432836D02*
X177385000Y-155217164D01*
%TO.C,R153*%
X229246359Y-145220000D02*
X229553641Y-145220000D01*
X229246359Y-145980000D02*
X229553641Y-145980000D01*
%TO.C,U50*%
X178875000Y-143465000D02*
X180285000Y-143465000D01*
X178875000Y-145785000D02*
X180275000Y-145785000D01*
X180655000Y-143515000D02*
X180415000Y-143185000D01*
X180895000Y-143185000D01*
X180655000Y-143515000D01*
G36*
X180655000Y-143515000D02*
G01*
X180415000Y-143185000D01*
X180895000Y-143185000D01*
X180655000Y-143515000D01*
G37*
%TO.C,U43*%
X183525000Y-138965000D02*
X184935000Y-138965000D01*
X183525000Y-141285000D02*
X184925000Y-141285000D01*
X185305000Y-139015000D02*
X185065000Y-138685000D01*
X185545000Y-138685000D01*
X185305000Y-139015000D01*
G36*
X185305000Y-139015000D02*
G01*
X185065000Y-138685000D01*
X185545000Y-138685000D01*
X185305000Y-139015000D01*
G37*
%TO.C,U15*%
X146450000Y-143040000D02*
X145050000Y-143040000D01*
X146450000Y-145360000D02*
X145040000Y-145360000D01*
X144910000Y-145640000D02*
X144430000Y-145640000D01*
X144670000Y-145310000D01*
X144910000Y-145640000D01*
G36*
X144910000Y-145640000D02*
G01*
X144430000Y-145640000D01*
X144670000Y-145310000D01*
X144910000Y-145640000D01*
G37*
%TO.C,R53*%
X157153641Y-155620000D02*
X156846359Y-155620000D01*
X157153641Y-156380000D02*
X156846359Y-156380000D01*
%TO.C,C245*%
X245232836Y-146065000D02*
X245017164Y-146065000D01*
X245232836Y-146785000D02*
X245017164Y-146785000D01*
%TO.C,R11*%
X157153641Y-136420000D02*
X156846359Y-136420000D01*
X157153641Y-137180000D02*
X156846359Y-137180000D01*
%TO.C,C237*%
X245232836Y-142865000D02*
X245017164Y-142865000D01*
X245232836Y-143585000D02*
X245017164Y-143585000D01*
%TO.C,R70*%
X170778641Y-135645000D02*
X170471359Y-135645000D01*
X170778641Y-136405000D02*
X170471359Y-136405000D01*
%TO.C,R132*%
X172971359Y-162045000D02*
X173278641Y-162045000D01*
X172971359Y-162805000D02*
X173278641Y-162805000D01*
%TO.C,C126*%
X175232836Y-153265000D02*
X175017164Y-153265000D01*
X175232836Y-153985000D02*
X175017164Y-153985000D01*
%TO.C,C17*%
X154892164Y-136440000D02*
X155107836Y-136440000D01*
X154892164Y-137160000D02*
X155107836Y-137160000D01*
%TO.C,R82*%
X172971359Y-138845000D02*
X173278641Y-138845000D01*
X172971359Y-139605000D02*
X173278641Y-139605000D01*
%TO.C,C180*%
X224892164Y-148440000D02*
X225107836Y-148440000D01*
X224892164Y-149160000D02*
X225107836Y-149160000D01*
%TO.C,R9*%
X159246359Y-138020000D02*
X159553641Y-138020000D01*
X159246359Y-138780000D02*
X159553641Y-138780000D01*
%TO.C,R37*%
X157153641Y-148420000D02*
X156846359Y-148420000D01*
X157153641Y-149180000D02*
X156846359Y-149180000D01*
%TO.C,U111*%
X253525000Y-135965000D02*
X254935000Y-135965000D01*
X253525000Y-138285000D02*
X254925000Y-138285000D01*
X255305000Y-136015000D02*
X255065000Y-135685000D01*
X255545000Y-135685000D01*
X255305000Y-136015000D01*
G36*
X255305000Y-136015000D02*
G01*
X255065000Y-135685000D01*
X255545000Y-135685000D01*
X255305000Y-136015000D01*
G37*
%TO.C,R177*%
X229246359Y-155620000D02*
X229553641Y-155620000D01*
X229246359Y-156380000D02*
X229553641Y-156380000D01*
%TO.C,R248*%
X240778641Y-158845000D02*
X240471359Y-158845000D01*
X240778641Y-159605000D02*
X240471359Y-159605000D01*
%TO.C,R183*%
X229246359Y-158020000D02*
X229553641Y-158020000D01*
X229246359Y-158780000D02*
X229553641Y-158780000D01*
%TO.C,U68*%
X178875000Y-157865000D02*
X180285000Y-157865000D01*
X178875000Y-160185000D02*
X180275000Y-160185000D01*
X180655000Y-157915000D02*
X180415000Y-157585000D01*
X180895000Y-157585000D01*
X180655000Y-157915000D01*
G36*
X180655000Y-157915000D02*
G01*
X180415000Y-157585000D01*
X180895000Y-157585000D01*
X180655000Y-157915000D01*
G37*
%TO.C,C78*%
X154892164Y-162840000D02*
X155107836Y-162840000D01*
X154892164Y-163560000D02*
X155107836Y-163560000D01*
%TO.C,U96*%
X216450000Y-150240000D02*
X215050000Y-150240000D01*
X216450000Y-152560000D02*
X215040000Y-152560000D01*
X214910000Y-152840000D02*
X214430000Y-152840000D01*
X214670000Y-152510000D01*
X214910000Y-152840000D01*
G36*
X214910000Y-152840000D02*
G01*
X214430000Y-152840000D01*
X214670000Y-152510000D01*
X214910000Y-152840000D01*
G37*
%TO.C,R202*%
X242971359Y-135645000D02*
X243278641Y-135645000D01*
X242971359Y-136405000D02*
X243278641Y-136405000D01*
%TO.C,R78*%
X170778641Y-138845000D02*
X170471359Y-138845000D01*
X170778641Y-139605000D02*
X170471359Y-139605000D01*
%TO.C,C301*%
X233262314Y-87540000D02*
X234684818Y-87540000D01*
X233262314Y-89360000D02*
X234684818Y-89360000D01*
%TO.C,C199*%
X222640000Y-153992164D02*
X222640000Y-154207836D01*
X223360000Y-153992164D02*
X223360000Y-154207836D01*
%TO.C,R106*%
X172971359Y-150045000D02*
X173278641Y-150045000D01*
X172971359Y-150805000D02*
X173278641Y-150805000D01*
%TO.C,C218*%
X217903500Y-161212164D02*
X217903500Y-161427836D01*
X218623500Y-161212164D02*
X218623500Y-161427836D01*
%TO.C,C163*%
X224892164Y-141240000D02*
X225107836Y-141240000D01*
X224892164Y-141960000D02*
X225107836Y-141960000D01*
%TO.C,R224*%
X240778641Y-147645000D02*
X240471359Y-147645000D01*
X240778641Y-148405000D02*
X240471359Y-148405000D01*
%TO.C,R7*%
X159246359Y-136420000D02*
X159553641Y-136420000D01*
X159246359Y-137180000D02*
X159553641Y-137180000D01*
%TO.C,C34*%
X154892164Y-143640000D02*
X155107836Y-143640000D01*
X154892164Y-144360000D02*
X155107836Y-144360000D01*
%TO.C,R130*%
X172971359Y-160445000D02*
X173278641Y-160445000D01*
X172971359Y-161205000D02*
X173278641Y-161205000D01*
%TO.C,C94*%
X175232836Y-140465000D02*
X175017164Y-140465000D01*
X175232836Y-141185000D02*
X175017164Y-141185000D01*
%TO.C,C109*%
X175232836Y-146065000D02*
X175017164Y-146065000D01*
X175232836Y-146785000D02*
X175017164Y-146785000D01*
%TO.C,C107*%
X181365000Y-144932836D02*
X181365000Y-144717164D01*
X182085000Y-144932836D02*
X182085000Y-144717164D01*
%TO.C,C96*%
X176665000Y-141032836D02*
X176665000Y-140817164D01*
X177385000Y-141032836D02*
X177385000Y-140817164D01*
%TO.C,U135*%
X248875000Y-153665000D02*
X250285000Y-153665000D01*
X248875000Y-155985000D02*
X250275000Y-155985000D01*
X250655000Y-153715000D02*
X250415000Y-153385000D01*
X250895000Y-153385000D01*
X250655000Y-153715000D01*
G36*
X250655000Y-153715000D02*
G01*
X250415000Y-153385000D01*
X250895000Y-153385000D01*
X250655000Y-153715000D01*
G37*
%TO.C,R159*%
X229246359Y-146820000D02*
X229553641Y-146820000D01*
X229246359Y-147580000D02*
X229553641Y-147580000D01*
%TO.C,R151*%
X229246359Y-143620000D02*
X229553641Y-143620000D01*
X229246359Y-144380000D02*
X229553641Y-144380000D01*
%TO.C,C184*%
X217903500Y-146812164D02*
X217903500Y-147027836D01*
X218623500Y-146812164D02*
X218623500Y-147027836D01*
%TO.C,R72*%
X170778641Y-137245000D02*
X170471359Y-137245000D01*
X170778641Y-138005000D02*
X170471359Y-138005000D01*
%TO.C,C147*%
X176665000Y-162632836D02*
X176665000Y-162417164D01*
X177385000Y-162632836D02*
X177385000Y-162417164D01*
%TO.C,U45*%
X178875000Y-139265000D02*
X180285000Y-139265000D01*
X178875000Y-141585000D02*
X180275000Y-141585000D01*
X180655000Y-139315000D02*
X180415000Y-138985000D01*
X180895000Y-138985000D01*
X180655000Y-139315000D01*
G36*
X180655000Y-139315000D02*
G01*
X180415000Y-138985000D01*
X180895000Y-138985000D01*
X180655000Y-139315000D01*
G37*
%TO.C,R143*%
X229246359Y-139620000D02*
X229553641Y-139620000D01*
X229246359Y-140380000D02*
X229553641Y-140380000D01*
%TO.C,C283*%
X246665000Y-162632836D02*
X246665000Y-162417164D01*
X247385000Y-162632836D02*
X247385000Y-162417164D01*
%TO.C,U142*%
X253525000Y-160565000D02*
X254935000Y-160565000D01*
X253525000Y-162885000D02*
X254925000Y-162885000D01*
X255305000Y-160615000D02*
X255065000Y-160285000D01*
X255545000Y-160285000D01*
X255305000Y-160615000D01*
G36*
X255305000Y-160615000D02*
G01*
X255065000Y-160285000D01*
X255545000Y-160285000D01*
X255305000Y-160615000D01*
G37*
%TO.C,R169*%
X229246359Y-152420000D02*
X229553641Y-152420000D01*
X229246359Y-153180000D02*
X229553641Y-153180000D01*
%TO.C,R126*%
X170778641Y-160445000D02*
X170471359Y-160445000D01*
X170778641Y-161205000D02*
X170471359Y-161205000D01*
%TO.C,R165*%
X227153641Y-148420000D02*
X226846359Y-148420000D01*
X227153641Y-149180000D02*
X226846359Y-149180000D01*
%TO.C,R35*%
X157153641Y-146820000D02*
X156846359Y-146820000D01*
X157153641Y-147580000D02*
X156846359Y-147580000D01*
%TO.C,U91*%
X216450000Y-146240000D02*
X215050000Y-146240000D01*
X216450000Y-148560000D02*
X215040000Y-148560000D01*
X214910000Y-148840000D02*
X214430000Y-148840000D01*
X214670000Y-148510000D01*
X214910000Y-148840000D01*
G36*
X214910000Y-148840000D02*
G01*
X214430000Y-148840000D01*
X214670000Y-148510000D01*
X214910000Y-148840000D01*
G37*
%TO.C,U19*%
X146450000Y-146240000D02*
X145050000Y-146240000D01*
X146450000Y-148560000D02*
X145040000Y-148560000D01*
X144910000Y-148840000D02*
X144430000Y-148840000D01*
X144670000Y-148510000D01*
X144910000Y-148840000D01*
G36*
X144910000Y-148840000D02*
G01*
X144430000Y-148840000D01*
X144670000Y-148510000D01*
X144910000Y-148840000D01*
G37*
%TO.C,U48*%
X183525000Y-143165000D02*
X184935000Y-143165000D01*
X183525000Y-145485000D02*
X184925000Y-145485000D01*
X185305000Y-143215000D02*
X185065000Y-142885000D01*
X185545000Y-142885000D01*
X185305000Y-143215000D01*
G36*
X185305000Y-143215000D02*
G01*
X185065000Y-142885000D01*
X185545000Y-142885000D01*
X185305000Y-143215000D01*
G37*
%TO.C,R206*%
X240778641Y-138845000D02*
X240471359Y-138845000D01*
X240778641Y-139605000D02*
X240471359Y-139605000D01*
%TO.C,C84*%
X175232836Y-135665000D02*
X175017164Y-135665000D01*
X175232836Y-136385000D02*
X175017164Y-136385000D01*
%TO.C,C101*%
X175232836Y-142865000D02*
X175017164Y-142865000D01*
X175232836Y-143585000D02*
X175017164Y-143585000D01*
%TO.C,C256*%
X245242836Y-151665000D02*
X245027164Y-151665000D01*
X245242836Y-152385000D02*
X245027164Y-152385000D01*
%TO.C,C23*%
X147890000Y-136412164D02*
X147890000Y-136627836D01*
X148610000Y-136412164D02*
X148610000Y-136627836D01*
%TO.C,R204*%
X242981359Y-137245000D02*
X243288641Y-137245000D01*
X242981359Y-138005000D02*
X243288641Y-138005000D01*
%TO.C,R193*%
X229246359Y-162820000D02*
X229553641Y-162820000D01*
X229246359Y-163580000D02*
X229553641Y-163580000D01*
%TO.C,C239*%
X245242836Y-144465000D02*
X245027164Y-144465000D01*
X245242836Y-145185000D02*
X245027164Y-145185000D01*
%TO.C,R256*%
X240778641Y-162045000D02*
X240471359Y-162045000D01*
X240778641Y-162805000D02*
X240471359Y-162805000D01*
%TO.C,C86*%
X175242836Y-137265000D02*
X175027164Y-137265000D01*
X175242836Y-137985000D02*
X175027164Y-137985000D01*
%TO.C,C124*%
X181365000Y-152132836D02*
X181365000Y-151917164D01*
X182085000Y-152132836D02*
X182085000Y-151917164D01*
%TO.C,C46*%
X152640000Y-146792164D02*
X152640000Y-147007836D01*
X153360000Y-146792164D02*
X153360000Y-147007836D01*
%TO.C,R141*%
X227153641Y-138020000D02*
X226846359Y-138020000D01*
X227153641Y-138780000D02*
X226846359Y-138780000D01*
%TO.C,U63*%
X178875000Y-153665000D02*
X180285000Y-153665000D01*
X178875000Y-155985000D02*
X180275000Y-155985000D01*
X180655000Y-153715000D02*
X180415000Y-153385000D01*
X180895000Y-153385000D01*
X180655000Y-153715000D01*
G36*
X180655000Y-153715000D02*
G01*
X180415000Y-153385000D01*
X180895000Y-153385000D01*
X180655000Y-153715000D01*
G37*
%TO.C,R100*%
X172971359Y-147645000D02*
X173278641Y-147645000D01*
X172971359Y-148405000D02*
X173278641Y-148405000D01*
%TO.C,U37*%
X146450000Y-160640000D02*
X145050000Y-160640000D01*
X146450000Y-162960000D02*
X145040000Y-162960000D01*
X144910000Y-163240000D02*
X144430000Y-163240000D01*
X144670000Y-162910000D01*
X144910000Y-163240000D01*
G36*
X144910000Y-163240000D02*
G01*
X144430000Y-163240000D01*
X144670000Y-162910000D01*
X144910000Y-163240000D01*
G37*
%TO.C,R49*%
X159246359Y-155620000D02*
X159553641Y-155620000D01*
X159246359Y-156380000D02*
X159553641Y-156380000D01*
%TO.C,C264*%
X245232836Y-154865000D02*
X245017164Y-154865000D01*
X245232836Y-155585000D02*
X245017164Y-155585000D01*
%TO.C,R17*%
X159246359Y-141220000D02*
X159553641Y-141220000D01*
X159246359Y-141980000D02*
X159553641Y-141980000D01*
%TO.C,U115*%
X253525000Y-138965000D02*
X254935000Y-138965000D01*
X253525000Y-141285000D02*
X254925000Y-141285000D01*
X255305000Y-139015000D02*
X255065000Y-138685000D01*
X255545000Y-138685000D01*
X255305000Y-139015000D01*
G36*
X255305000Y-139015000D02*
G01*
X255065000Y-138685000D01*
X255545000Y-138685000D01*
X255305000Y-139015000D01*
G37*
%TO.C,R212*%
X242971359Y-140445000D02*
X243278641Y-140445000D01*
X242971359Y-141205000D02*
X243278641Y-141205000D01*
%TO.C,R19*%
X157153641Y-139620000D02*
X156846359Y-139620000D01*
X157153641Y-140380000D02*
X156846359Y-140380000D01*
%TO.C,R90*%
X172971359Y-142845000D02*
X173278641Y-142845000D01*
X172971359Y-143605000D02*
X173278641Y-143605000D01*
%TO.C,R41*%
X159246359Y-152420000D02*
X159553641Y-152420000D01*
X159246359Y-153180000D02*
X159553641Y-153180000D01*
%TO.C,C159*%
X217890000Y-136412164D02*
X217890000Y-136627836D01*
X218610000Y-136412164D02*
X218610000Y-136627836D01*
%TO.C,R149*%
X227153641Y-141220000D02*
X226846359Y-141220000D01*
X227153641Y-141980000D02*
X226846359Y-141980000D01*
%TO.C,U105*%
X216450000Y-157440000D02*
X215050000Y-157440000D01*
X216450000Y-159760000D02*
X215040000Y-159760000D01*
X214910000Y-160040000D02*
X214430000Y-160040000D01*
X214670000Y-159710000D01*
X214910000Y-160040000D01*
G36*
X214910000Y-160040000D02*
G01*
X214430000Y-160040000D01*
X214670000Y-159710000D01*
X214910000Y-160040000D01*
G37*
%TO.C,C118*%
X175232836Y-150065000D02*
X175017164Y-150065000D01*
X175232836Y-150785000D02*
X175017164Y-150785000D01*
%TO.C,C31*%
X147903500Y-139612164D02*
X147903500Y-139827836D01*
X148623500Y-139612164D02*
X148623500Y-139827836D01*
%TO.C,R214*%
X240778641Y-142845000D02*
X240471359Y-142845000D01*
X240778641Y-143605000D02*
X240471359Y-143605000D01*
%TO.C,R187*%
X227153641Y-158020000D02*
X226846359Y-158020000D01*
X227153641Y-158780000D02*
X226846359Y-158780000D01*
%TO.C,C176*%
X217890000Y-143612164D02*
X217890000Y-143827836D01*
X218610000Y-143612164D02*
X218610000Y-143827836D01*
%TO.C,U126*%
X248875000Y-146465000D02*
X250285000Y-146465000D01*
X248875000Y-148785000D02*
X250275000Y-148785000D01*
X250655000Y-146515000D02*
X250415000Y-146185000D01*
X250895000Y-146185000D01*
X250655000Y-146515000D01*
G36*
X250655000Y-146515000D02*
G01*
X250415000Y-146185000D01*
X250895000Y-146185000D01*
X250655000Y-146515000D01*
G37*
%TO.C,C63*%
X152640000Y-153992164D02*
X152640000Y-154207836D01*
X153360000Y-153992164D02*
X153360000Y-154207836D01*
%TO.C,C187*%
X224892164Y-150840000D02*
X225107836Y-150840000D01*
X224892164Y-151560000D02*
X225107836Y-151560000D01*
%TO.C,U59*%
X178875000Y-150665000D02*
X180285000Y-150665000D01*
X178875000Y-152985000D02*
X180275000Y-152985000D01*
X180655000Y-150715000D02*
X180415000Y-150385000D01*
X180895000Y-150385000D01*
X180655000Y-150715000D01*
G36*
X180655000Y-150715000D02*
G01*
X180415000Y-150385000D01*
X180895000Y-150385000D01*
X180655000Y-150715000D01*
G37*
%TO.C,C61*%
X154892164Y-155640000D02*
X155107836Y-155640000D01*
X154892164Y-156360000D02*
X155107836Y-156360000D01*
%TO.C,R135*%
X229246359Y-136420000D02*
X229553641Y-136420000D01*
X229246359Y-137180000D02*
X229553641Y-137180000D01*
%TO.C,R33*%
X159246359Y-148420000D02*
X159553641Y-148420000D01*
X159246359Y-149180000D02*
X159553641Y-149180000D01*
%TO.C,R47*%
X159246359Y-154020000D02*
X159553641Y-154020000D01*
X159246359Y-154780000D02*
X159553641Y-154780000D01*
%TO.C,R163*%
X227153641Y-146820000D02*
X226846359Y-146820000D01*
X227153641Y-147580000D02*
X226846359Y-147580000D01*
%TO.C,C232*%
X246665000Y-141032836D02*
X246665000Y-140817164D01*
X247385000Y-141032836D02*
X247385000Y-140817164D01*
%TO.C,R29*%
X157153641Y-145220000D02*
X156846359Y-145220000D01*
X157153641Y-145980000D02*
X156846359Y-145980000D01*
%TO.C,C260*%
X251365000Y-152132836D02*
X251365000Y-151917164D01*
X252085000Y-152132836D02*
X252085000Y-151917164D01*
%TO.C,C195*%
X224892164Y-154040000D02*
X225107836Y-154040000D01*
X224892164Y-154760000D02*
X225107836Y-154760000D01*
%TO.C,R55*%
X159246359Y-158020000D02*
X159553641Y-158020000D01*
X159246359Y-158780000D02*
X159553641Y-158780000D01*
%TO.C,U107*%
X221200000Y-160640000D02*
X219800000Y-160640000D01*
X221200000Y-162960000D02*
X219790000Y-162960000D01*
X219660000Y-163240000D02*
X219180000Y-163240000D01*
X219420000Y-162910000D01*
X219660000Y-163240000D01*
G36*
X219660000Y-163240000D02*
G01*
X219180000Y-163240000D01*
X219420000Y-162910000D01*
X219660000Y-163240000D01*
G37*
%TO.C,R114*%
X172971359Y-153245000D02*
X173278641Y-153245000D01*
X172971359Y-154005000D02*
X173278641Y-154005000D01*
%TO.C,C228*%
X245232836Y-138865000D02*
X245017164Y-138865000D01*
X245232836Y-139585000D02*
X245017164Y-139585000D01*
%TO.C,C172*%
X224892164Y-145240000D02*
X225107836Y-145240000D01*
X224892164Y-145960000D02*
X225107836Y-145960000D01*
%TO.C,J4*%
X235313566Y-81440000D02*
X235313566Y-83650000D01*
X235313566Y-85860000D02*
X235313566Y-83650000D01*
X235763566Y-81040000D02*
X235763566Y-81440000D01*
X235763566Y-81440000D02*
X235313566Y-81440000D01*
X235763566Y-85860000D02*
X235313566Y-85860000D01*
X235763566Y-86260000D02*
X235763566Y-85860000D01*
X236163566Y-80390000D02*
X236163566Y-81040000D01*
X236163566Y-81040000D02*
X235763566Y-81040000D01*
X236163566Y-86260000D02*
X235763566Y-86260000D01*
X236163566Y-86910000D02*
X236163566Y-86260000D01*
X239233566Y-80390000D02*
X236163566Y-80390000D01*
X239233566Y-81140000D02*
X239233566Y-80390000D01*
X239233566Y-86160000D02*
X239233566Y-86910000D01*
X239233566Y-86910000D02*
X236163566Y-86910000D01*
X239433566Y-81140000D02*
X239233566Y-81140000D01*
X239433566Y-83650000D02*
X239433566Y-81140000D01*
X239433566Y-83650000D02*
X239433566Y-86160000D01*
X239433566Y-86160000D02*
X239233566Y-86160000D01*
X239783566Y-81550000D02*
X239995698Y-81400000D01*
X239995698Y-81400000D02*
X239995698Y-81700000D01*
X239995698Y-81700000D02*
X239783566Y-81550000D01*
%TO.C,C302*%
X238634818Y-87715000D02*
X238112314Y-87715000D01*
X238634818Y-89185000D02*
X238112314Y-89185000D01*
%TO.C,R51*%
X157153641Y-154020000D02*
X156846359Y-154020000D01*
X157153641Y-154780000D02*
X156846359Y-154780000D01*
%TO.C,R118*%
X170778641Y-157245000D02*
X170471359Y-157245000D01*
X170778641Y-158005000D02*
X170471359Y-158005000D01*
%TO.C,R96*%
X170778641Y-147645000D02*
X170471359Y-147645000D01*
X170778641Y-148405000D02*
X170471359Y-148405000D01*
%TO.C,R210*%
X242971359Y-138845000D02*
X243278641Y-138845000D01*
X242971359Y-139605000D02*
X243278641Y-139605000D01*
%TO.C,C70*%
X154892164Y-159640000D02*
X155107836Y-159640000D01*
X154892164Y-160360000D02*
X155107836Y-160360000D01*
%TO.C,R240*%
X240778641Y-154845000D02*
X240471359Y-154845000D01*
X240778641Y-155605000D02*
X240471359Y-155605000D01*
%TO.C,R208*%
X240778641Y-140445000D02*
X240471359Y-140445000D01*
X240778641Y-141205000D02*
X240471359Y-141205000D01*
%TO.C,R171*%
X227153641Y-150820000D02*
X226846359Y-150820000D01*
X227153641Y-151580000D02*
X226846359Y-151580000D01*
%TO.C,C143*%
X175232836Y-160465000D02*
X175017164Y-160465000D01*
X175232836Y-161185000D02*
X175017164Y-161185000D01*
%TO.C,U17*%
X151200000Y-146240000D02*
X149800000Y-146240000D01*
X151200000Y-148560000D02*
X149790000Y-148560000D01*
X149660000Y-148840000D02*
X149180000Y-148840000D01*
X149420000Y-148510000D01*
X149660000Y-148840000D01*
G36*
X149660000Y-148840000D02*
G01*
X149180000Y-148840000D01*
X149420000Y-148510000D01*
X149660000Y-148840000D01*
G37*
%TO.C,R13*%
X157153641Y-138020000D02*
X156846359Y-138020000D01*
X157153641Y-138780000D02*
X156846359Y-138780000D01*
%TO.C,R277*%
X240293566Y-86903641D02*
X240293566Y-86596359D01*
X241053566Y-86903641D02*
X241053566Y-86596359D01*
%TO.C,U66*%
X183525000Y-157565000D02*
X184935000Y-157565000D01*
X183525000Y-159885000D02*
X184925000Y-159885000D01*
X185305000Y-157615000D02*
X185065000Y-157285000D01*
X185545000Y-157285000D01*
X185305000Y-157615000D01*
G36*
X185305000Y-157615000D02*
G01*
X185065000Y-157285000D01*
X185545000Y-157285000D01*
X185305000Y-157615000D01*
G37*
%TO.C,C80*%
X152640000Y-161192164D02*
X152640000Y-161407836D01*
X153360000Y-161192164D02*
X153360000Y-161407836D01*
%TO.C,C226*%
X251365000Y-137732836D02*
X251365000Y-137517164D01*
X252085000Y-137732836D02*
X252085000Y-137517164D01*
%TO.C,C220*%
X245232836Y-135665000D02*
X245017164Y-135665000D01*
X245232836Y-136385000D02*
X245017164Y-136385000D01*
%TO.C,C111*%
X175232836Y-147665000D02*
X175017164Y-147665000D01*
X175232836Y-148385000D02*
X175017164Y-148385000D01*
%TO.C,C224*%
X246665000Y-138032836D02*
X246665000Y-137817164D01*
X247385000Y-138032836D02*
X247385000Y-137817164D01*
%TO.C,C201*%
X217903500Y-154012164D02*
X217903500Y-154227836D01*
X218623500Y-154012164D02*
X218623500Y-154227836D01*
%TO.C,R110*%
X170778641Y-153245000D02*
X170471359Y-153245000D01*
X170778641Y-154005000D02*
X170471359Y-154005000D01*
%TO.C,U131*%
X248875000Y-150665000D02*
X250285000Y-150665000D01*
X248875000Y-152985000D02*
X250275000Y-152985000D01*
X250655000Y-150715000D02*
X250415000Y-150385000D01*
X250895000Y-150385000D01*
X250655000Y-150715000D01*
G36*
X250655000Y-150715000D02*
G01*
X250415000Y-150385000D01*
X250895000Y-150385000D01*
X250655000Y-150715000D01*
G37*
%TO.C,C68*%
X154892164Y-158040000D02*
X155107836Y-158040000D01*
X154892164Y-158760000D02*
X155107836Y-158760000D01*
%TO.C,R191*%
X229246359Y-161220000D02*
X229553641Y-161220000D01*
X229246359Y-161980000D02*
X229553641Y-161980000D01*
%TO.C,U94*%
X221200000Y-150240000D02*
X219800000Y-150240000D01*
X221200000Y-152560000D02*
X219790000Y-152560000D01*
X219660000Y-152840000D02*
X219180000Y-152840000D01*
X219420000Y-152510000D01*
X219660000Y-152840000D01*
G36*
X219660000Y-152840000D02*
G01*
X219180000Y-152840000D01*
X219420000Y-152510000D01*
X219660000Y-152840000D01*
G37*
%TO.C,U124*%
X253525000Y-146165000D02*
X254935000Y-146165000D01*
X253525000Y-148485000D02*
X254925000Y-148485000D01*
X255305000Y-146215000D02*
X255065000Y-145885000D01*
X255545000Y-145885000D01*
X255305000Y-146215000D01*
G36*
X255305000Y-146215000D02*
G01*
X255065000Y-145885000D01*
X255545000Y-145885000D01*
X255305000Y-146215000D01*
G37*
%TO.C,U103*%
X221200000Y-157440000D02*
X219800000Y-157440000D01*
X221200000Y-159760000D02*
X219790000Y-159760000D01*
X219660000Y-160040000D02*
X219180000Y-160040000D01*
X219420000Y-159710000D01*
X219660000Y-160040000D01*
G36*
X219660000Y-160040000D02*
G01*
X219180000Y-160040000D01*
X219420000Y-159710000D01*
X219660000Y-160040000D01*
G37*
%TO.C,R258*%
X242971359Y-160445000D02*
X243278641Y-160445000D01*
X242971359Y-161205000D02*
X243278641Y-161205000D01*
%TO.C,R31*%
X159246359Y-146820000D02*
X159553641Y-146820000D01*
X159246359Y-147580000D02*
X159553641Y-147580000D01*
%TO.C,C48*%
X147903500Y-146812164D02*
X147903500Y-147027836D01*
X148623500Y-146812164D02*
X148623500Y-147027836D01*
%TO.C,R226*%
X242971359Y-146045000D02*
X243278641Y-146045000D01*
X242971359Y-146805000D02*
X243278641Y-146805000D01*
%TO.C,R254*%
X240778641Y-160445000D02*
X240471359Y-160445000D01*
X240778641Y-161205000D02*
X240471359Y-161205000D01*
%TD*%
M02*
