%TF.GenerationSoftware,KiCad,Pcbnew,9.0.0*%
%TF.CreationDate,2025-04-08T22:51:13-04:00*%
%TF.ProjectId,ephys-test-board,65706879-732d-4746-9573-742d626f6172,C*%
%TF.SameCoordinates,Original*%
%TF.FileFunction,Soldermask,Bot*%
%TF.FilePolarity,Negative*%
%FSLAX46Y46*%
G04 Gerber Fmt 4.6, Leading zero omitted, Abs format (unit mm)*
G04 Created by KiCad (PCBNEW 9.0.0) date 2025-04-08 22:51:13*
%MOMM*%
%LPD*%
G01*
G04 APERTURE LIST*
G04 Aperture macros list*
%AMRoundRect*
0 Rectangle with rounded corners*
0 $1 Rounding radius*
0 $2 $3 $4 $5 $6 $7 $8 $9 X,Y pos of 4 corners*
0 Add a 4 corners polygon primitive as box body*
4,1,4,$2,$3,$4,$5,$6,$7,$8,$9,$2,$3,0*
0 Add four circle primitives for the rounded corners*
1,1,$1+$1,$2,$3*
1,1,$1+$1,$4,$5*
1,1,$1+$1,$6,$7*
1,1,$1+$1,$8,$9*
0 Add four rect primitives between the rounded corners*
20,1,$1+$1,$2,$3,$4,$5,0*
20,1,$1+$1,$4,$5,$6,$7,0*
20,1,$1+$1,$6,$7,$8,$9,0*
20,1,$1+$1,$8,$9,$2,$3,0*%
G04 Aperture macros list end*
%ADD10C,0.000000*%
%ADD11C,1.016000*%
%ADD12C,2.100000*%
%ADD13C,1.750000*%
%ADD14RoundRect,0.250000X-0.550000X-0.550000X0.550000X-0.550000X0.550000X0.550000X-0.550000X0.550000X0*%
%ADD15C,1.600000*%
%ADD16O,4.100000X3.000000*%
%ADD17C,3.000000*%
%ADD18C,5.700000*%
%ADD19R,1.800000X1.800000*%
%ADD20C,1.800000*%
%ADD21C,2.000000*%
%ADD22C,3.500000*%
%ADD23C,0.650000*%
%ADD24O,1.000000X2.100000*%
%ADD25O,1.000000X1.800000*%
%ADD26RoundRect,0.100000X0.225000X0.100000X-0.225000X0.100000X-0.225000X-0.100000X0.225000X-0.100000X0*%
%ADD27RoundRect,0.135000X-0.135000X-0.185000X0.135000X-0.185000X0.135000X0.185000X-0.135000X0.185000X0*%
%ADD28RoundRect,0.140000X-0.170000X0.140000X-0.170000X-0.140000X0.170000X-0.140000X0.170000X0.140000X0*%
%ADD29RoundRect,0.135000X0.135000X0.185000X-0.135000X0.185000X-0.135000X-0.185000X0.135000X-0.185000X0*%
%ADD30RoundRect,0.100000X-0.225000X-0.100000X0.225000X-0.100000X0.225000X0.100000X-0.225000X0.100000X0*%
%ADD31RoundRect,0.140000X0.140000X0.170000X-0.140000X0.170000X-0.140000X-0.170000X0.140000X-0.170000X0*%
%ADD32RoundRect,0.140000X-0.140000X-0.170000X0.140000X-0.170000X0.140000X0.170000X-0.140000X0.170000X0*%
%ADD33RoundRect,0.140000X0.170000X-0.140000X0.170000X0.140000X-0.170000X0.140000X-0.170000X-0.140000X0*%
%ADD34R,0.300000X1.300000*%
%ADD35R,1.800000X2.200000*%
%ADD36RoundRect,0.250000X0.250000X1.500000X-0.250000X1.500000X-0.250000X-1.500000X0.250000X-1.500000X0*%
%ADD37RoundRect,0.250001X0.499999X1.449999X-0.499999X1.449999X-0.499999X-1.449999X0.499999X-1.449999X0*%
G04 APERTURE END LIST*
D10*
%TO.C,G\u002A\u002A\u002A*%
G36*
X245120935Y-61465183D02*
G01*
X245133772Y-61468912D01*
X245137576Y-61474997D01*
X245138036Y-61484456D01*
X245139518Y-61514620D01*
X245141879Y-61562498D01*
X245144985Y-61625374D01*
X245148701Y-61700534D01*
X245152892Y-61785262D01*
X245157426Y-61876843D01*
X245161051Y-61950113D01*
X245165249Y-62035132D01*
X245168962Y-62110565D01*
X245172066Y-62173826D01*
X245174432Y-62222323D01*
X245175934Y-62253468D01*
X245176445Y-62264673D01*
X245176435Y-62264691D01*
X245165288Y-62265949D01*
X245136096Y-62268191D01*
X245093211Y-62271104D01*
X245040987Y-62274378D01*
X245013890Y-62275910D01*
X244928053Y-62278693D01*
X244859711Y-62276515D01*
X244805178Y-62268633D01*
X244760763Y-62254307D01*
X244722778Y-62232796D01*
X244687534Y-62203358D01*
X244659139Y-62173008D01*
X244633118Y-62133948D01*
X244614763Y-62087835D01*
X244602130Y-62029524D01*
X244593277Y-61953875D01*
X244586695Y-61858370D01*
X244585764Y-61776704D01*
X244591196Y-61711077D01*
X244603240Y-61658550D01*
X244622150Y-61616183D01*
X244633360Y-61598023D01*
X244665398Y-61556831D01*
X244703066Y-61525297D01*
X244749718Y-61502019D01*
X244808709Y-61485593D01*
X244883394Y-61474615D01*
X244977127Y-61467682D01*
X244996723Y-61466695D01*
X245055561Y-61464218D01*
X245095914Y-61463666D01*
X245120935Y-61465183D01*
G37*
G36*
X247700372Y-63728101D02*
G01*
X247691553Y-63842498D01*
X247683603Y-63943725D01*
X247676635Y-64030232D01*
X247670759Y-64100473D01*
X247666086Y-64152899D01*
X247662727Y-64185963D01*
X247660794Y-64198118D01*
X247652009Y-64198207D01*
X247622695Y-64196892D01*
X247574905Y-64194195D01*
X247510799Y-64190268D01*
X247432539Y-64185262D01*
X247342284Y-64179329D01*
X247242196Y-64172621D01*
X247134435Y-64165288D01*
X247021163Y-64157483D01*
X246904540Y-64149357D01*
X246786727Y-64141060D01*
X246669885Y-64132746D01*
X246556174Y-64124565D01*
X246447755Y-64116668D01*
X246346790Y-64109208D01*
X246255439Y-64102336D01*
X246175863Y-64096202D01*
X246110222Y-64090959D01*
X246060678Y-64086759D01*
X246029391Y-64083752D01*
X245968861Y-64077089D01*
X245973925Y-64016031D01*
X245974778Y-64005003D01*
X245975529Y-63973863D01*
X245971330Y-63958727D01*
X245961142Y-63954604D01*
X245960707Y-63954615D01*
X245944643Y-63956355D01*
X245908182Y-63960893D01*
X245853087Y-63967995D01*
X245781123Y-63977426D01*
X245694055Y-63988953D01*
X245593646Y-64002340D01*
X245481662Y-64017353D01*
X245359866Y-64033758D01*
X245230024Y-64051320D01*
X245093899Y-64069806D01*
X244930822Y-64091888D01*
X244778104Y-64112313D01*
X244646153Y-64129650D01*
X244534168Y-64143996D01*
X244441348Y-64155447D01*
X244366893Y-64164099D01*
X244310001Y-64170047D01*
X244269873Y-64173389D01*
X244245708Y-64174220D01*
X244236705Y-64172635D01*
X244235007Y-64165487D01*
X244230238Y-64137585D01*
X244222916Y-64090458D01*
X244213302Y-64025929D01*
X244201659Y-63945826D01*
X244188248Y-63851973D01*
X244173334Y-63746196D01*
X244157176Y-63630320D01*
X244140039Y-63506172D01*
X244122184Y-63375577D01*
X244109022Y-63279057D01*
X244091857Y-63153850D01*
X244075707Y-63036789D01*
X244060821Y-62929649D01*
X244047451Y-62834206D01*
X244035847Y-62752237D01*
X244026259Y-62685519D01*
X244018938Y-62635826D01*
X244014133Y-62604936D01*
X244012096Y-62594625D01*
X244011850Y-62595994D01*
X244010449Y-62614450D01*
X244008153Y-62652936D01*
X244005060Y-62709563D01*
X244001263Y-62782440D01*
X243996860Y-62869676D01*
X243991945Y-62969383D01*
X243986616Y-63079668D01*
X243980967Y-63198643D01*
X243975095Y-63324416D01*
X243973819Y-63351937D01*
X243967844Y-63479605D01*
X243962025Y-63602108D01*
X243956472Y-63717274D01*
X243951291Y-63822932D01*
X243946592Y-63916911D01*
X243942483Y-63997040D01*
X243939071Y-64061148D01*
X243936466Y-64107063D01*
X243934776Y-64132615D01*
X243931880Y-64163285D01*
X243926765Y-64194531D01*
X243919683Y-64210225D01*
X243909318Y-64214613D01*
X243897157Y-64214308D01*
X243863883Y-64213020D01*
X243812117Y-64210817D01*
X243743813Y-64207791D01*
X243660924Y-64204037D01*
X243565404Y-64199647D01*
X243459207Y-64194715D01*
X243344286Y-64189335D01*
X243222594Y-64183601D01*
X243096085Y-64177605D01*
X242966714Y-64171442D01*
X242836432Y-64165205D01*
X242707195Y-64158987D01*
X242580955Y-64152883D01*
X242459667Y-64146985D01*
X242345282Y-64141388D01*
X242239757Y-64136184D01*
X242145043Y-64131468D01*
X242063094Y-64127333D01*
X241995865Y-64123873D01*
X241945308Y-64121181D01*
X241913377Y-64119350D01*
X241902026Y-64118475D01*
X241901855Y-64116820D01*
X241902112Y-64097498D01*
X241903394Y-64057731D01*
X241905628Y-63999052D01*
X241908740Y-63922996D01*
X241912658Y-63831097D01*
X241917307Y-63724890D01*
X241917596Y-63718422D01*
X242101683Y-63718422D01*
X242101945Y-63757884D01*
X242103419Y-63776650D01*
X242109903Y-63795123D01*
X242137201Y-63842263D01*
X242175031Y-63885464D01*
X242216122Y-63915751D01*
X242216493Y-63915942D01*
X242280378Y-63937036D01*
X242347576Y-63938758D01*
X242412172Y-63921787D01*
X242468250Y-63886802D01*
X242468958Y-63886166D01*
X242488929Y-63862158D01*
X242518167Y-63818375D01*
X242556314Y-63755409D01*
X242603011Y-63673850D01*
X242657901Y-63574288D01*
X242677511Y-63538212D01*
X242718372Y-63463159D01*
X242764355Y-63378825D01*
X242814396Y-63287147D01*
X242867433Y-63190064D01*
X242922406Y-63089516D01*
X242978251Y-62987441D01*
X243033906Y-62885777D01*
X243088309Y-62786463D01*
X243140398Y-62691438D01*
X243189111Y-62602641D01*
X243233386Y-62522009D01*
X243272160Y-62451483D01*
X243304371Y-62393000D01*
X243328958Y-62348499D01*
X243344858Y-62319919D01*
X243351009Y-62309199D01*
X243358446Y-62309199D01*
X243358611Y-62311224D01*
X243358282Y-62331297D01*
X243356938Y-62371283D01*
X243354661Y-62429303D01*
X243351534Y-62503475D01*
X243347638Y-62591920D01*
X243343056Y-62692757D01*
X243337870Y-62804104D01*
X243332163Y-62924083D01*
X243326016Y-63050812D01*
X243323837Y-63095689D01*
X243317918Y-63221635D01*
X243312595Y-63340954D01*
X243307939Y-63451658D01*
X243304023Y-63551761D01*
X243300917Y-63639274D01*
X243298695Y-63712210D01*
X243297427Y-63768581D01*
X243297186Y-63806400D01*
X243298044Y-63823680D01*
X243307078Y-63854845D01*
X243318765Y-63883199D01*
X243333406Y-63904357D01*
X243369052Y-63939348D01*
X243411930Y-63969579D01*
X243453178Y-63988131D01*
X243489474Y-63995929D01*
X243559458Y-63996073D01*
X243623316Y-63974568D01*
X243681747Y-63931241D01*
X243692923Y-63919519D01*
X243720812Y-63881610D01*
X243737302Y-63845592D01*
X243737797Y-63842960D01*
X243740144Y-63819889D01*
X243743439Y-63776204D01*
X243747599Y-63713390D01*
X243752541Y-63632931D01*
X243758182Y-63536312D01*
X243764440Y-63425019D01*
X243771233Y-63300537D01*
X243778478Y-63164350D01*
X243786092Y-63017944D01*
X243793993Y-62862804D01*
X243802098Y-62700416D01*
X243810325Y-62532263D01*
X243816469Y-62405001D01*
X243825729Y-62211280D01*
X243833855Y-62038408D01*
X243840887Y-61885339D01*
X243843513Y-61826328D01*
X244129879Y-61826328D01*
X244131143Y-61904725D01*
X244134122Y-61980651D01*
X244138792Y-62049142D01*
X244145131Y-62105239D01*
X244162773Y-62189871D01*
X244205575Y-62307943D01*
X244266896Y-62416237D01*
X244345010Y-62512364D01*
X244438192Y-62593934D01*
X244544717Y-62658556D01*
X244601824Y-62685321D01*
X244654315Y-62706047D01*
X244705131Y-62720623D01*
X244759099Y-62729871D01*
X244821048Y-62734608D01*
X244895805Y-62735655D01*
X244988199Y-62733832D01*
X245066905Y-62731983D01*
X245126128Y-62731672D01*
X245166592Y-62732997D01*
X245190180Y-62736020D01*
X245198779Y-62740803D01*
X245199555Y-62747385D01*
X245201508Y-62774566D01*
X245204281Y-62820366D01*
X245207745Y-62882422D01*
X245211775Y-62958371D01*
X245216242Y-63045848D01*
X245221019Y-63142492D01*
X245225980Y-63245939D01*
X245229169Y-63311458D01*
X245234454Y-63412305D01*
X245239792Y-63505536D01*
X245245016Y-63588663D01*
X245249958Y-63659201D01*
X245254449Y-63714662D01*
X245258321Y-63752560D01*
X245261407Y-63770406D01*
X245271334Y-63790698D01*
X245302126Y-63831924D01*
X245341619Y-63869197D01*
X245381810Y-63894284D01*
X245422076Y-63904924D01*
X245475234Y-63908861D01*
X245528458Y-63905153D01*
X245571093Y-63893827D01*
X245593003Y-63881337D01*
X245632183Y-63848800D01*
X245666767Y-63809250D01*
X245688830Y-63770957D01*
X245693850Y-63751322D01*
X245698995Y-63712642D01*
X245701114Y-63669448D01*
X245700919Y-63652738D01*
X245699721Y-63610833D01*
X245697517Y-63550441D01*
X245694394Y-63473346D01*
X245690444Y-63381330D01*
X245685754Y-63276177D01*
X245680415Y-63159671D01*
X245674515Y-63033595D01*
X245668145Y-62899734D01*
X245661393Y-62759869D01*
X245654348Y-62615785D01*
X245647101Y-62469266D01*
X245639741Y-62322094D01*
X245632356Y-62176053D01*
X245625037Y-62032928D01*
X245617872Y-61894500D01*
X245610951Y-61762555D01*
X245604364Y-61638874D01*
X245598199Y-61525243D01*
X245592547Y-61423444D01*
X245587495Y-61335261D01*
X245583135Y-61262477D01*
X245579555Y-61206876D01*
X245576844Y-61170241D01*
X245575093Y-61154356D01*
X245562168Y-61121506D01*
X245529170Y-61073958D01*
X245485118Y-61032884D01*
X245436463Y-61005224D01*
X245428304Y-61002256D01*
X245412308Y-60997657D01*
X245393411Y-60994457D01*
X245368809Y-60992648D01*
X245335700Y-60992223D01*
X245291283Y-60993174D01*
X245232755Y-60995493D01*
X245157314Y-60999172D01*
X245062158Y-61004205D01*
X245055673Y-61004555D01*
X244950284Y-61010531D01*
X244864056Y-61016286D01*
X244793784Y-61022377D01*
X244736264Y-61029362D01*
X244688292Y-61037799D01*
X244646664Y-61048245D01*
X244608175Y-61061259D01*
X244569622Y-61077398D01*
X244527798Y-61097219D01*
X244477775Y-61125457D01*
X244395814Y-61186631D01*
X244319155Y-61261218D01*
X244303781Y-61280445D01*
X244253213Y-61343687D01*
X244203403Y-61428508D01*
X244196060Y-61444353D01*
X244173755Y-61496715D01*
X244154794Y-61547080D01*
X244142651Y-61586412D01*
X244142449Y-61587247D01*
X244136615Y-61625918D01*
X244132592Y-61681963D01*
X244130354Y-61750420D01*
X244129879Y-61826328D01*
X243843513Y-61826328D01*
X243846863Y-61751027D01*
X243851824Y-61634424D01*
X243855807Y-61534486D01*
X243858853Y-61450165D01*
X243861000Y-61380415D01*
X243862288Y-61324191D01*
X243862755Y-61280445D01*
X243862440Y-61248132D01*
X243861384Y-61226204D01*
X243859624Y-61213617D01*
X243848362Y-61182451D01*
X243813260Y-61131606D01*
X243763176Y-61091643D01*
X243702460Y-61065610D01*
X243635460Y-61056553D01*
X243621928Y-61057167D01*
X243560609Y-61073277D01*
X243502581Y-61110106D01*
X243449729Y-61166163D01*
X243403937Y-61239954D01*
X243403845Y-61240134D01*
X243390387Y-61265934D01*
X243367922Y-61308124D01*
X243337490Y-61364798D01*
X243300130Y-61434050D01*
X243256883Y-61513972D01*
X243208789Y-61602660D01*
X243156887Y-61698206D01*
X243102219Y-61798705D01*
X243045824Y-61902249D01*
X242988741Y-62006933D01*
X242932012Y-62110851D01*
X242876676Y-62212096D01*
X242823773Y-62308761D01*
X242774344Y-62398941D01*
X242729427Y-62480730D01*
X242690064Y-62552220D01*
X242657295Y-62611506D01*
X242632159Y-62656681D01*
X242615696Y-62685840D01*
X242608947Y-62697075D01*
X242607513Y-62697924D01*
X242603815Y-62687803D01*
X242602958Y-62658480D01*
X242605059Y-62612484D01*
X242605294Y-62608980D01*
X242608180Y-62561763D01*
X242611761Y-62497249D01*
X242615916Y-62418094D01*
X242620523Y-62326952D01*
X242625459Y-62226479D01*
X242630605Y-62119330D01*
X242635838Y-62008160D01*
X242641036Y-61895624D01*
X242646078Y-61784377D01*
X242650842Y-61677074D01*
X242655207Y-61576371D01*
X242659051Y-61484921D01*
X242662253Y-61405381D01*
X242664690Y-61340404D01*
X242666242Y-61292648D01*
X242666786Y-61264765D01*
X242666615Y-61243016D01*
X242663220Y-61184924D01*
X242654189Y-61141421D01*
X242637841Y-61106617D01*
X242612494Y-61074621D01*
X242560856Y-61032963D01*
X242500292Y-61007920D01*
X242436689Y-61000797D01*
X242374105Y-61010916D01*
X242316599Y-61037600D01*
X242268229Y-61080172D01*
X242233053Y-61137953D01*
X242231288Y-61145468D01*
X242227537Y-61175324D01*
X242223009Y-61224952D01*
X242217792Y-61292592D01*
X242211971Y-61376486D01*
X242205634Y-61474873D01*
X242198865Y-61585994D01*
X242191753Y-61708090D01*
X242184382Y-61839401D01*
X242176841Y-61978167D01*
X242169215Y-62122630D01*
X242161590Y-62271029D01*
X242154053Y-62421605D01*
X242146691Y-62572599D01*
X242139590Y-62722252D01*
X242132836Y-62868802D01*
X242126516Y-63010492D01*
X242120716Y-63145562D01*
X242115523Y-63272252D01*
X242111023Y-63388803D01*
X242107302Y-63493455D01*
X242104448Y-63584448D01*
X242102546Y-63660024D01*
X242101683Y-63718422D01*
X241917596Y-63718422D01*
X241922616Y-63605908D01*
X241928509Y-63475686D01*
X241934915Y-63335757D01*
X241941759Y-63187656D01*
X241948968Y-63032918D01*
X241956470Y-62873075D01*
X241964191Y-62709663D01*
X241972056Y-62544215D01*
X241979994Y-62378266D01*
X241987931Y-62213349D01*
X241995794Y-62051000D01*
X242003509Y-61892751D01*
X242011002Y-61740138D01*
X242018202Y-61594694D01*
X242025033Y-61457953D01*
X242031424Y-61331451D01*
X242037300Y-61216719D01*
X242042589Y-61115294D01*
X242047217Y-61028709D01*
X242051111Y-60958498D01*
X242054197Y-60906196D01*
X242056403Y-60873335D01*
X242057654Y-60861452D01*
X242057654Y-60861451D01*
X242069774Y-60860683D01*
X242102817Y-60860962D01*
X242155174Y-60862227D01*
X242225239Y-60864415D01*
X242311405Y-60867467D01*
X242412064Y-60871319D01*
X242525609Y-60875911D01*
X242650433Y-60881181D01*
X242784928Y-60887068D01*
X242927486Y-60893509D01*
X243076502Y-60900445D01*
X244087923Y-60948189D01*
X244087923Y-60974050D01*
X244091259Y-60990279D01*
X244103872Y-60999911D01*
X244111027Y-60999185D01*
X244139028Y-60995703D01*
X244186263Y-60989564D01*
X244250895Y-60981016D01*
X244331086Y-60970304D01*
X244424997Y-60957677D01*
X244530791Y-60943380D01*
X244646629Y-60927660D01*
X244770674Y-60910764D01*
X244901087Y-60892938D01*
X244994059Y-60880241D01*
X245119544Y-60863212D01*
X245237094Y-60847386D01*
X245344907Y-60832997D01*
X245441184Y-60820283D01*
X245524122Y-60809477D01*
X245591919Y-60800817D01*
X245642776Y-60794539D01*
X245674890Y-60790878D01*
X245686460Y-60790071D01*
X245686533Y-60790243D01*
X245688877Y-60803934D01*
X245694039Y-60838387D01*
X245701817Y-60892160D01*
X245712010Y-60963810D01*
X245724417Y-61051896D01*
X245738837Y-61154975D01*
X245755067Y-61271604D01*
X245772908Y-61400340D01*
X245792157Y-61539742D01*
X245812613Y-61688366D01*
X245834076Y-61844770D01*
X245856343Y-62007512D01*
X245858926Y-62026410D01*
X245881117Y-62188200D01*
X245902527Y-62343295D01*
X245922951Y-62490274D01*
X245942187Y-62627711D01*
X245960030Y-62754183D01*
X245976277Y-62868268D01*
X245990723Y-62968540D01*
X246003166Y-63053576D01*
X246013402Y-63121952D01*
X246021226Y-63172246D01*
X246026435Y-63203032D01*
X246028826Y-63212888D01*
X246029934Y-63206182D01*
X246031032Y-63195455D01*
X246289829Y-63195455D01*
X246289838Y-63236937D01*
X246290439Y-63270536D01*
X246291608Y-63297737D01*
X246293323Y-63320021D01*
X246295559Y-63338873D01*
X246298292Y-63355774D01*
X246301499Y-63372208D01*
X246321443Y-63449642D01*
X246365646Y-63557749D01*
X246428422Y-63657763D01*
X246438616Y-63669448D01*
X246511753Y-63753279D01*
X246531194Y-63772446D01*
X246592870Y-63827627D01*
X246652313Y-63869920D01*
X246717047Y-63904166D01*
X246794596Y-63935204D01*
X246819007Y-63942471D01*
X246880014Y-63953681D01*
X246952998Y-63960821D01*
X247031178Y-63963729D01*
X247107773Y-63962245D01*
X247176003Y-63956210D01*
X247229086Y-63945463D01*
X247280885Y-63928776D01*
X247335359Y-63907540D01*
X247377459Y-63885299D01*
X247412862Y-63859393D01*
X247436325Y-63836424D01*
X247472101Y-63781471D01*
X247491336Y-63719748D01*
X247494129Y-63655781D01*
X247480580Y-63594095D01*
X247450788Y-63539216D01*
X247404853Y-63495669D01*
X247352259Y-63467314D01*
X247287548Y-63452187D01*
X247219181Y-63457978D01*
X247144495Y-63484574D01*
X247079170Y-63505016D01*
X247006230Y-63507706D01*
X246934664Y-63491949D01*
X246868786Y-63459306D01*
X246812910Y-63411339D01*
X246771349Y-63349606D01*
X246770333Y-63347522D01*
X246765551Y-63337813D01*
X246761345Y-63328458D01*
X246757731Y-63318110D01*
X246754721Y-63305421D01*
X246752330Y-63289045D01*
X246750571Y-63267634D01*
X246749457Y-63239843D01*
X246749003Y-63204324D01*
X246749222Y-63159731D01*
X246750128Y-63104715D01*
X246751734Y-63037932D01*
X246754053Y-62958033D01*
X246757101Y-62863672D01*
X246760889Y-62753503D01*
X246765433Y-62626177D01*
X246770745Y-62480349D01*
X246776839Y-62314671D01*
X246783729Y-62127797D01*
X246785741Y-62072893D01*
X246792364Y-61887386D01*
X246797893Y-61723981D01*
X246802338Y-61582342D01*
X246805706Y-61462132D01*
X246808005Y-61363015D01*
X246809244Y-61284656D01*
X246809431Y-61226717D01*
X246808573Y-61188862D01*
X246806679Y-61170755D01*
X246798803Y-61147986D01*
X246766018Y-61092798D01*
X246720823Y-61051961D01*
X246666925Y-61025489D01*
X246608033Y-61013394D01*
X246547855Y-61015693D01*
X246490099Y-61032398D01*
X246438473Y-61063524D01*
X246396686Y-61109084D01*
X246368446Y-61169094D01*
X246368372Y-61169357D01*
X246366193Y-61187191D01*
X246363341Y-61225877D01*
X246359889Y-61283792D01*
X246355911Y-61359310D01*
X246351481Y-61450807D01*
X246346673Y-61556656D01*
X246341562Y-61675233D01*
X246336220Y-61804913D01*
X246330722Y-61944072D01*
X246325142Y-62091083D01*
X246319553Y-62244322D01*
X246313934Y-62401887D01*
X246308349Y-62559813D01*
X246303546Y-62697993D01*
X246299502Y-62817910D01*
X246296193Y-62921047D01*
X246293595Y-63008887D01*
X246291684Y-63082913D01*
X246290437Y-63144608D01*
X246289829Y-63195455D01*
X246031032Y-63195455D01*
X246032758Y-63178599D01*
X246036987Y-63131118D01*
X246042501Y-63065243D01*
X246049185Y-62982480D01*
X246056921Y-62884332D01*
X246065592Y-62772304D01*
X246075081Y-62647902D01*
X246085270Y-62512629D01*
X246096042Y-62367991D01*
X246107281Y-62215491D01*
X246118868Y-62056636D01*
X246127304Y-61940861D01*
X246138671Y-61786311D01*
X246149617Y-61639144D01*
X246160022Y-61500872D01*
X246169769Y-61373007D01*
X246178740Y-61257060D01*
X246186816Y-61154543D01*
X246193879Y-61066968D01*
X246199810Y-60995847D01*
X246204492Y-60942691D01*
X246207806Y-60909012D01*
X246209634Y-60896322D01*
X246210640Y-60895683D01*
X246225780Y-60894213D01*
X246259166Y-60894404D01*
X246311328Y-60896285D01*
X246382794Y-60899888D01*
X246474092Y-60905242D01*
X246585753Y-60912378D01*
X246718304Y-60921328D01*
X246872275Y-60932120D01*
X247048194Y-60944787D01*
X247179470Y-60954410D01*
X247307995Y-60963973D01*
X247428270Y-60973064D01*
X247538513Y-60981541D01*
X247636943Y-60989263D01*
X247721778Y-60996088D01*
X247791238Y-61001875D01*
X247843541Y-61006482D01*
X247876906Y-61009769D01*
X247889551Y-61011593D01*
X247889596Y-61011643D01*
X247889750Y-61024232D01*
X247888329Y-61057699D01*
X247885444Y-61110498D01*
X247881208Y-61181080D01*
X247875730Y-61267898D01*
X247869122Y-61369404D01*
X247861496Y-61484049D01*
X247852961Y-61610288D01*
X247843630Y-61746571D01*
X247833612Y-61891350D01*
X247823021Y-62043080D01*
X247811966Y-62200210D01*
X247800559Y-62361195D01*
X247788910Y-62524485D01*
X247777132Y-62688534D01*
X247765334Y-62851794D01*
X247753629Y-63012716D01*
X247742126Y-63169754D01*
X247730939Y-63321359D01*
X247720176Y-63465983D01*
X247709950Y-63602080D01*
X247705869Y-63655781D01*
X247700372Y-63728101D01*
G37*
%TD*%
D11*
%TO.C,J3*%
X237032000Y-113762000D03*
X237032000Y-148238000D03*
%TD*%
D12*
%TO.C,SW4*%
X173250000Y-60490000D03*
X180260000Y-60490000D03*
D13*
X174500000Y-58000000D03*
X179000000Y-58000000D03*
%TD*%
D11*
%TO.C,J2*%
X167032000Y-113762000D03*
X167032000Y-148238000D03*
%TD*%
D14*
%TO.C,SW2*%
X252500000Y-81450000D03*
D15*
X252500000Y-86450000D03*
X252500000Y-83950000D03*
X267000000Y-81450000D03*
X267000000Y-86450000D03*
D16*
X260000000Y-78350000D03*
X260000000Y-89550000D03*
%TD*%
D17*
%TO.C,TP16*%
X215400000Y-64300000D03*
%TD*%
D18*
%TO.C,H1*%
X129000000Y-171000000D03*
%TD*%
D19*
%TO.C,SW1*%
X255460000Y-68000000D03*
D20*
X258000000Y-68000000D03*
X260540000Y-68000000D03*
X255460000Y-62920000D03*
X260540000Y-62920000D03*
%TD*%
D18*
%TO.C,H2*%
X129000000Y-59000000D03*
%TD*%
D21*
%TO.C,J5*%
X150000000Y-67400000D03*
D22*
X153800000Y-59600000D03*
X146200000Y-59600000D03*
%TD*%
D18*
%TO.C,H3*%
X271000000Y-59000000D03*
%TD*%
D17*
%TO.C,TP8*%
X220600000Y-64300000D03*
%TD*%
D23*
%TO.C,J6*%
X202890000Y-60315000D03*
X197110000Y-60315000D03*
D24*
X204320000Y-60815000D03*
D25*
X204320000Y-56635000D03*
D24*
X195680000Y-60815000D03*
D25*
X195680000Y-56635000D03*
%TD*%
D18*
%TO.C,H4*%
X271000000Y-171000000D03*
%TD*%
D26*
%TO.C,U140*%
X250525000Y-139375000D03*
X250525000Y-140025000D03*
X250525000Y-140675000D03*
X248625000Y-140675000D03*
X248625000Y-140025000D03*
X248625000Y-139375000D03*
%TD*%
D27*
%TO.C,R63*%
X156490000Y-142600000D03*
X157510000Y-142600000D03*
%TD*%
%TO.C,R185*%
X226490000Y-141000000D03*
X227510000Y-141000000D03*
%TD*%
D28*
%TO.C,C251*%
X251725000Y-128345000D03*
X251725000Y-129305000D03*
%TD*%
D27*
%TO.C,R157*%
X224490000Y-126600000D03*
X225510000Y-126600000D03*
%TD*%
D29*
%TO.C,R74*%
X175610000Y-117000000D03*
X174590000Y-117000000D03*
%TD*%
%TO.C,R234*%
X245610000Y-131425000D03*
X244590000Y-131425000D03*
%TD*%
D30*
%TO.C,U28*%
X144800000Y-136250000D03*
X144800000Y-135600000D03*
X144800000Y-134950000D03*
X146700000Y-134950000D03*
X146700000Y-135600000D03*
X146700000Y-136250000D03*
%TD*%
D31*
%TO.C,C44*%
X159880000Y-129800000D03*
X158920000Y-129800000D03*
%TD*%
D29*
%TO.C,R232*%
X243610000Y-133000000D03*
X242590000Y-133000000D03*
%TD*%
D28*
%TO.C,C115*%
X181725000Y-128345000D03*
X181725000Y-129305000D03*
%TD*%
D26*
%TO.C,U129*%
X255175000Y-131875000D03*
X255175000Y-132525000D03*
X255175000Y-133175000D03*
X253275000Y-133175000D03*
X253275000Y-132525000D03*
X253275000Y-131875000D03*
%TD*%
D32*
%TO.C,C103*%
X170130000Y-125800000D03*
X171090000Y-125800000D03*
%TD*%
D29*
%TO.C,R112*%
X173610000Y-136200000D03*
X172590000Y-136200000D03*
%TD*%
%TO.C,R244*%
X245610000Y-136225000D03*
X244590000Y-136225000D03*
%TD*%
D33*
%TO.C,C165*%
X223000000Y-121180000D03*
X223000000Y-120220000D03*
%TD*%
D29*
%TO.C,R220*%
X245620000Y-125825000D03*
X244600000Y-125825000D03*
%TD*%
D31*
%TO.C,C25*%
X159880000Y-121000000D03*
X158920000Y-121000000D03*
%TD*%
D28*
%TO.C,C90*%
X181725000Y-118145000D03*
X181725000Y-119105000D03*
%TD*%
D34*
%TO.C,J4*%
X227950000Y-72250000D03*
X228450000Y-72250000D03*
X228950000Y-72250000D03*
X229450000Y-72250000D03*
X229950000Y-72250000D03*
X230450000Y-72250000D03*
X230950000Y-72250000D03*
X231450000Y-72250000D03*
X231950000Y-72250000D03*
X232450000Y-72250000D03*
X232950000Y-72250000D03*
X233450000Y-72250000D03*
X233950000Y-72250000D03*
X234450000Y-72250000D03*
X234950000Y-72250000D03*
X235450000Y-72250000D03*
D35*
X226050000Y-69000000D03*
X237350000Y-69000000D03*
%TD*%
D33*
%TO.C,C174*%
X223000000Y-125200000D03*
X223000000Y-124240000D03*
%TD*%
D30*
%TO.C,U22*%
X149550000Y-133050000D03*
X149550000Y-132400000D03*
X149550000Y-131750000D03*
X151450000Y-131750000D03*
X151450000Y-132400000D03*
X151450000Y-133050000D03*
%TD*%
D29*
%TO.C,R246*%
X243610000Y-138600000D03*
X242590000Y-138600000D03*
%TD*%
D31*
%TO.C,C204*%
X229880000Y-139400000D03*
X228920000Y-139400000D03*
%TD*%
%TO.C,C153*%
X229880000Y-117800000D03*
X228920000Y-117800000D03*
%TD*%
D29*
%TO.C,R104*%
X173610000Y-133000000D03*
X172590000Y-133000000D03*
%TD*%
D30*
%TO.C,U78*%
X214800000Y-118650000D03*
X214800000Y-118000000D03*
X214800000Y-117350000D03*
X216700000Y-117350000D03*
X216700000Y-118000000D03*
X216700000Y-118650000D03*
%TD*%
D27*
%TO.C,R43*%
X154490000Y-132200000D03*
X155510000Y-132200000D03*
%TD*%
%TO.C,R179*%
X224490000Y-135400000D03*
X225510000Y-135400000D03*
%TD*%
D31*
%TO.C,C27*%
X159880000Y-122600000D03*
X158920000Y-122600000D03*
%TD*%
D29*
%TO.C,R108*%
X175620000Y-133000000D03*
X174600000Y-133000000D03*
%TD*%
%TO.C,R200*%
X243610000Y-118600000D03*
X242590000Y-118600000D03*
%TD*%
D27*
%TO.C,R23*%
X156490000Y-125000000D03*
X157510000Y-125000000D03*
%TD*%
D29*
%TO.C,R242*%
X245610000Y-134625000D03*
X244590000Y-134625000D03*
%TD*%
%TO.C,R252*%
X245620000Y-140225000D03*
X244600000Y-140225000D03*
%TD*%
D33*
%TO.C,C157*%
X223000000Y-118000000D03*
X223000000Y-117040000D03*
%TD*%
D30*
%TO.C,U85*%
X219550000Y-125850000D03*
X219550000Y-125200000D03*
X219550000Y-124550000D03*
X221450000Y-124550000D03*
X221450000Y-125200000D03*
X221450000Y-125850000D03*
%TD*%
D31*
%TO.C,C19*%
X159880000Y-119400000D03*
X158920000Y-119400000D03*
%TD*%
%TO.C,C76*%
X159880000Y-142600000D03*
X158920000Y-142600000D03*
%TD*%
D27*
%TO.C,R137*%
X226490000Y-119400000D03*
X227510000Y-119400000D03*
%TD*%
D33*
%TO.C,C21*%
X153000000Y-118000000D03*
X153000000Y-117040000D03*
%TD*%
D32*
%TO.C,C230*%
X240120000Y-121800000D03*
X241080000Y-121800000D03*
%TD*%
D26*
%TO.C,U54*%
X180525000Y-127975000D03*
X180525000Y-128625000D03*
X180525000Y-129275000D03*
X178625000Y-129275000D03*
X178625000Y-128625000D03*
X178625000Y-127975000D03*
%TD*%
D33*
%TO.C,C82*%
X148263500Y-142800000D03*
X148263500Y-141840000D03*
%TD*%
D28*
%TO.C,C113*%
X177025000Y-128645000D03*
X177025000Y-129605000D03*
%TD*%
D29*
%TO.C,R98*%
X175610000Y-127400000D03*
X174590000Y-127400000D03*
%TD*%
%TO.C,R86*%
X173610000Y-124200000D03*
X172590000Y-124200000D03*
%TD*%
D31*
%TO.C,C161*%
X229880000Y-121000000D03*
X228920000Y-121000000D03*
%TD*%
D27*
%TO.C,R67*%
X154490000Y-142600000D03*
X155510000Y-142600000D03*
%TD*%
D26*
%TO.C,U39*%
X185175000Y-117475000D03*
X185175000Y-118125000D03*
X185175000Y-118775000D03*
X183275000Y-118775000D03*
X183275000Y-118125000D03*
X183275000Y-117475000D03*
%TD*%
D29*
%TO.C,R84*%
X175610000Y-121800000D03*
X174590000Y-121800000D03*
%TD*%
D27*
%TO.C,R189*%
X224490000Y-141000000D03*
X225510000Y-141000000D03*
%TD*%
D33*
%TO.C,C57*%
X148250000Y-132400000D03*
X148250000Y-131440000D03*
%TD*%
%TO.C,C29*%
X153000000Y-121180000D03*
X153000000Y-120220000D03*
%TD*%
D31*
%TO.C,C53*%
X159880000Y-133800000D03*
X158920000Y-133800000D03*
%TD*%
D27*
%TO.C,R139*%
X224490000Y-117800000D03*
X225510000Y-117800000D03*
%TD*%
D29*
%TO.C,R102*%
X173610000Y-131400000D03*
X172590000Y-131400000D03*
%TD*%
D28*
%TO.C,C249*%
X247025000Y-128645000D03*
X247025000Y-129605000D03*
%TD*%
D33*
%TO.C,C38*%
X153000000Y-125200000D03*
X153000000Y-124240000D03*
%TD*%
D29*
%TO.C,R124*%
X175620000Y-140200000D03*
X174600000Y-140200000D03*
%TD*%
%TO.C,R236*%
X245620000Y-133025000D03*
X244600000Y-133025000D03*
%TD*%
D28*
%TO.C,C243*%
X251725000Y-125345000D03*
X251725000Y-126305000D03*
%TD*%
D26*
%TO.C,U144*%
X250525000Y-142375000D03*
X250525000Y-143025000D03*
X250525000Y-143675000D03*
X248625000Y-143675000D03*
X248625000Y-143025000D03*
X248625000Y-142375000D03*
%TD*%
D28*
%TO.C,C122*%
X177025000Y-132845000D03*
X177025000Y-133805000D03*
%TD*%
%TO.C,C149*%
X181725000Y-142745000D03*
X181725000Y-143705000D03*
%TD*%
D32*
%TO.C,C279*%
X240120000Y-141800000D03*
X241080000Y-141800000D03*
%TD*%
D29*
%TO.C,R218*%
X245610000Y-124225000D03*
X244590000Y-124225000D03*
%TD*%
D30*
%TO.C,U10*%
X144800000Y-121850000D03*
X144800000Y-121200000D03*
X144800000Y-120550000D03*
X146700000Y-120550000D03*
X146700000Y-121200000D03*
X146700000Y-121850000D03*
%TD*%
D29*
%TO.C,R128*%
X173610000Y-143400000D03*
X172590000Y-143400000D03*
%TD*%
D27*
%TO.C,R45*%
X154490000Y-133800000D03*
X155510000Y-133800000D03*
%TD*%
D33*
%TO.C,C216*%
X223000000Y-142780000D03*
X223000000Y-141820000D03*
%TD*%
D28*
%TO.C,C277*%
X251725000Y-139745000D03*
X251725000Y-140705000D03*
%TD*%
D32*
%TO.C,C145*%
X170120000Y-143400000D03*
X171080000Y-143400000D03*
%TD*%
D31*
%TO.C,C36*%
X159880000Y-126600000D03*
X158920000Y-126600000D03*
%TD*%
D29*
%TO.C,R88*%
X173610000Y-125800000D03*
X172590000Y-125800000D03*
%TD*%
D33*
%TO.C,C72*%
X153000000Y-139600000D03*
X153000000Y-138640000D03*
%TD*%
D31*
%TO.C,C212*%
X229880000Y-142600000D03*
X228920000Y-142600000D03*
%TD*%
D29*
%TO.C,R116*%
X175610000Y-136200000D03*
X174590000Y-136200000D03*
%TD*%
%TO.C,R94*%
X173610000Y-127400000D03*
X172590000Y-127400000D03*
%TD*%
D31*
%TO.C,C155*%
X229880000Y-119400000D03*
X228920000Y-119400000D03*
%TD*%
D28*
%TO.C,C132*%
X181725000Y-135545000D03*
X181725000Y-136505000D03*
%TD*%
D31*
%TO.C,C189*%
X229880000Y-133800000D03*
X228920000Y-133800000D03*
%TD*%
D28*
%TO.C,C266*%
X247025000Y-135845000D03*
X247025000Y-136805000D03*
%TD*%
D26*
%TO.C,U117*%
X250525000Y-120775000D03*
X250525000Y-121425000D03*
X250525000Y-122075000D03*
X248625000Y-122075000D03*
X248625000Y-121425000D03*
X248625000Y-120775000D03*
%TD*%
D33*
%TO.C,C40*%
X148250000Y-125200000D03*
X148250000Y-124240000D03*
%TD*%
D27*
%TO.C,R155*%
X224490000Y-125000000D03*
X225510000Y-125000000D03*
%TD*%
D29*
%TO.C,R216*%
X243610000Y-125800000D03*
X242590000Y-125800000D03*
%TD*%
D26*
%TO.C,U52*%
X185175000Y-127675000D03*
X185175000Y-128325000D03*
X185175000Y-128975000D03*
X183275000Y-128975000D03*
X183275000Y-128325000D03*
X183275000Y-127675000D03*
%TD*%
D27*
%TO.C,R181*%
X224490000Y-137000000D03*
X225510000Y-137000000D03*
%TD*%
D26*
%TO.C,U133*%
X255175000Y-134875000D03*
X255175000Y-135525000D03*
X255175000Y-136175000D03*
X253275000Y-136175000D03*
X253275000Y-135525000D03*
X253275000Y-134875000D03*
%TD*%
D28*
%TO.C,C88*%
X177025000Y-118445000D03*
X177025000Y-119405000D03*
%TD*%
D30*
%TO.C,U76*%
X219550000Y-118650000D03*
X219550000Y-118000000D03*
X219550000Y-117350000D03*
X221450000Y-117350000D03*
X221450000Y-118000000D03*
X221450000Y-118650000D03*
%TD*%
D29*
%TO.C,R250*%
X245610000Y-138625000D03*
X244590000Y-138625000D03*
%TD*%
D26*
%TO.C,U113*%
X250525000Y-117775000D03*
X250525000Y-118425000D03*
X250525000Y-119075000D03*
X248625000Y-119075000D03*
X248625000Y-118425000D03*
X248625000Y-117775000D03*
%TD*%
D31*
%TO.C,C206*%
X229880000Y-141000000D03*
X228920000Y-141000000D03*
%TD*%
D30*
%TO.C,U89*%
X219550000Y-129050000D03*
X219550000Y-128400000D03*
X219550000Y-127750000D03*
X221450000Y-127750000D03*
X221450000Y-128400000D03*
X221450000Y-129050000D03*
%TD*%
%TO.C,U24*%
X144800000Y-133050000D03*
X144800000Y-132400000D03*
X144800000Y-131750000D03*
X146700000Y-131750000D03*
X146700000Y-132400000D03*
X146700000Y-133050000D03*
%TD*%
D29*
%TO.C,R92*%
X175620000Y-125800000D03*
X174600000Y-125800000D03*
%TD*%
D27*
%TO.C,R147*%
X224490000Y-121000000D03*
X225510000Y-121000000D03*
%TD*%
D30*
%TO.C,U80*%
X219550000Y-121850000D03*
X219550000Y-121200000D03*
X219550000Y-120550000D03*
X221450000Y-120550000D03*
X221450000Y-121200000D03*
X221450000Y-121850000D03*
%TD*%
D31*
%TO.C,C42*%
X159880000Y-128200000D03*
X158920000Y-128200000D03*
%TD*%
D26*
%TO.C,U72*%
X180525000Y-142375000D03*
X180525000Y-143025000D03*
X180525000Y-143675000D03*
X178625000Y-143675000D03*
X178625000Y-143025000D03*
X178625000Y-142375000D03*
%TD*%
%TO.C,U122*%
X250525000Y-124975000D03*
X250525000Y-125625000D03*
X250525000Y-126275000D03*
X248625000Y-126275000D03*
X248625000Y-125625000D03*
X248625000Y-124975000D03*
%TD*%
D28*
%TO.C,C141*%
X181725000Y-139745000D03*
X181725000Y-140705000D03*
%TD*%
D30*
%TO.C,U26*%
X149550000Y-136250000D03*
X149550000Y-135600000D03*
X149550000Y-134950000D03*
X151450000Y-134950000D03*
X151450000Y-135600000D03*
X151450000Y-136250000D03*
%TD*%
D29*
%TO.C,R222*%
X243610000Y-127400000D03*
X242590000Y-127400000D03*
%TD*%
%TO.C,R80*%
X173610000Y-121800000D03*
X172590000Y-121800000D03*
%TD*%
%TO.C,R238*%
X243610000Y-134600000D03*
X242590000Y-134600000D03*
%TD*%
D27*
%TO.C,R59*%
X154490000Y-139400000D03*
X155510000Y-139400000D03*
%TD*%
D32*
%TO.C,C247*%
X240120000Y-129000000D03*
X241080000Y-129000000D03*
%TD*%
D30*
%TO.C,U82*%
X214800000Y-121850000D03*
X214800000Y-121200000D03*
X214800000Y-120550000D03*
X216700000Y-120550000D03*
X216700000Y-121200000D03*
X216700000Y-121850000D03*
%TD*%
D31*
%TO.C,C178*%
X229880000Y-128200000D03*
X228920000Y-128200000D03*
%TD*%
D27*
%TO.C,R173*%
X224490000Y-133800000D03*
X225510000Y-133800000D03*
%TD*%
D32*
%TO.C,C222*%
X240130000Y-118600000D03*
X241090000Y-118600000D03*
%TD*%
%TO.C,C92*%
X170120000Y-120200000D03*
X171080000Y-120200000D03*
%TD*%
D30*
%TO.C,U35*%
X149550000Y-143450000D03*
X149550000Y-142800000D03*
X149550000Y-142150000D03*
X151450000Y-142150000D03*
X151450000Y-142800000D03*
X151450000Y-143450000D03*
%TD*%
D33*
%TO.C,C65*%
X148263500Y-135600000D03*
X148263500Y-134640000D03*
%TD*%
D27*
%TO.C,R21*%
X154490000Y-122600000D03*
X155510000Y-122600000D03*
%TD*%
D28*
%TO.C,C98*%
X181725000Y-121145000D03*
X181725000Y-122105000D03*
%TD*%
D33*
%TO.C,C74*%
X148250000Y-139600000D03*
X148250000Y-138640000D03*
%TD*%
D31*
%TO.C,C51*%
X159880000Y-132200000D03*
X158920000Y-132200000D03*
%TD*%
D27*
%TO.C,R175*%
X226490000Y-135400000D03*
X227510000Y-135400000D03*
%TD*%
D28*
%TO.C,C241*%
X247025000Y-125645000D03*
X247025000Y-126605000D03*
%TD*%
D33*
%TO.C,C191*%
X223000000Y-132400000D03*
X223000000Y-131440000D03*
%TD*%
D27*
%TO.C,R69*%
X154490000Y-144200000D03*
X155510000Y-144200000D03*
%TD*%
D26*
%TO.C,U138*%
X255175000Y-139075000D03*
X255175000Y-139725000D03*
X255175000Y-140375000D03*
X253275000Y-140375000D03*
X253275000Y-139725000D03*
X253275000Y-139075000D03*
%TD*%
D33*
%TO.C,C55*%
X153000000Y-132400000D03*
X153000000Y-131440000D03*
%TD*%
D29*
%TO.C,R228*%
X245610000Y-129025000D03*
X244590000Y-129025000D03*
%TD*%
D32*
%TO.C,C128*%
X170120000Y-136200000D03*
X171080000Y-136200000D03*
%TD*%
D33*
%TO.C,C210*%
X218250000Y-139600000D03*
X218250000Y-138640000D03*
%TD*%
D30*
%TO.C,U109*%
X214800000Y-143450000D03*
X214800000Y-142800000D03*
X214800000Y-142150000D03*
X216700000Y-142150000D03*
X216700000Y-142800000D03*
X216700000Y-143450000D03*
%TD*%
D29*
%TO.C,R198*%
X243610000Y-117000000D03*
X242590000Y-117000000D03*
%TD*%
D32*
%TO.C,C262*%
X240120000Y-134600000D03*
X241080000Y-134600000D03*
%TD*%
%TO.C,C273*%
X240130000Y-140200000D03*
X241090000Y-140200000D03*
%TD*%
D28*
%TO.C,C139*%
X177025000Y-140045000D03*
X177025000Y-141005000D03*
%TD*%
D29*
%TO.C,R76*%
X175620000Y-118600000D03*
X174600000Y-118600000D03*
%TD*%
D27*
%TO.C,R167*%
X226490000Y-132200000D03*
X227510000Y-132200000D03*
%TD*%
D26*
%TO.C,U70*%
X185175000Y-142075000D03*
X185175000Y-142725000D03*
X185175000Y-143375000D03*
X183275000Y-143375000D03*
X183275000Y-142725000D03*
X183275000Y-142075000D03*
%TD*%
D28*
%TO.C,C234*%
X251725000Y-121145000D03*
X251725000Y-122105000D03*
%TD*%
D33*
%TO.C,C208*%
X223000000Y-139600000D03*
X223000000Y-138640000D03*
%TD*%
D30*
%TO.C,U87*%
X214800000Y-125850000D03*
X214800000Y-125200000D03*
X214800000Y-124550000D03*
X216700000Y-124550000D03*
X216700000Y-125200000D03*
X216700000Y-125850000D03*
%TD*%
D26*
%TO.C,U120*%
X255175000Y-124675000D03*
X255175000Y-125325000D03*
X255175000Y-125975000D03*
X253275000Y-125975000D03*
X253275000Y-125325000D03*
X253275000Y-124675000D03*
%TD*%
D27*
%TO.C,R25*%
X156490000Y-126600000D03*
X157510000Y-126600000D03*
%TD*%
D31*
%TO.C,C197*%
X229880000Y-137000000D03*
X228920000Y-137000000D03*
%TD*%
D32*
%TO.C,C120*%
X170130000Y-133000000D03*
X171090000Y-133000000D03*
%TD*%
%TO.C,C271*%
X240120000Y-138600000D03*
X241080000Y-138600000D03*
%TD*%
D31*
%TO.C,C170*%
X229880000Y-125000000D03*
X228920000Y-125000000D03*
%TD*%
D30*
%TO.C,U98*%
X219550000Y-136250000D03*
X219550000Y-135600000D03*
X219550000Y-134950000D03*
X221450000Y-134950000D03*
X221450000Y-135600000D03*
X221450000Y-136250000D03*
%TD*%
%TO.C,U100*%
X214800000Y-136250000D03*
X214800000Y-135600000D03*
X214800000Y-134950000D03*
X216700000Y-134950000D03*
X216700000Y-135600000D03*
X216700000Y-136250000D03*
%TD*%
D26*
%TO.C,U41*%
X180525000Y-117775000D03*
X180525000Y-118425000D03*
X180525000Y-119075000D03*
X178625000Y-119075000D03*
X178625000Y-118425000D03*
X178625000Y-117775000D03*
%TD*%
D31*
%TO.C,C59*%
X159880000Y-135400000D03*
X158920000Y-135400000D03*
%TD*%
D27*
%TO.C,R57*%
X156490000Y-141000000D03*
X157510000Y-141000000D03*
%TD*%
%TO.C,R195*%
X224490000Y-142600000D03*
X225510000Y-142600000D03*
%TD*%
%TO.C,R145*%
X226490000Y-122600000D03*
X227510000Y-122600000D03*
%TD*%
D32*
%TO.C,C135*%
X170120000Y-138600000D03*
X171080000Y-138600000D03*
%TD*%
D33*
%TO.C,C193*%
X218250000Y-132400000D03*
X218250000Y-131440000D03*
%TD*%
D27*
%TO.C,R65*%
X156490000Y-144200000D03*
X157510000Y-144200000D03*
%TD*%
%TO.C,R39*%
X156490000Y-132200000D03*
X157510000Y-132200000D03*
%TD*%
%TO.C,R27*%
X154490000Y-125000000D03*
X155510000Y-125000000D03*
%TD*%
%TO.C,R197*%
X224490000Y-144200000D03*
X225510000Y-144200000D03*
%TD*%
D32*
%TO.C,C281*%
X240120000Y-143400000D03*
X241080000Y-143400000D03*
%TD*%
D30*
%TO.C,U33*%
X144800000Y-140250000D03*
X144800000Y-139600000D03*
X144800000Y-138950000D03*
X146700000Y-138950000D03*
X146700000Y-139600000D03*
X146700000Y-140250000D03*
%TD*%
D28*
%TO.C,C285*%
X251725000Y-142745000D03*
X251725000Y-143705000D03*
%TD*%
D30*
%TO.C,U6*%
X144800000Y-118650000D03*
X144800000Y-118000000D03*
X144800000Y-117350000D03*
X146700000Y-117350000D03*
X146700000Y-118000000D03*
X146700000Y-118650000D03*
%TD*%
D26*
%TO.C,U57*%
X185175000Y-131875000D03*
X185175000Y-132525000D03*
X185175000Y-133175000D03*
X183275000Y-133175000D03*
X183275000Y-132525000D03*
X183275000Y-131875000D03*
%TD*%
D29*
%TO.C,R260*%
X245610000Y-143425000D03*
X244590000Y-143425000D03*
%TD*%
%TO.C,R230*%
X243610000Y-131400000D03*
X242590000Y-131400000D03*
%TD*%
D33*
%TO.C,C182*%
X223000000Y-128380000D03*
X223000000Y-127420000D03*
%TD*%
D32*
%TO.C,C137*%
X170130000Y-140200000D03*
X171090000Y-140200000D03*
%TD*%
D28*
%TO.C,C268*%
X251725000Y-135545000D03*
X251725000Y-136505000D03*
%TD*%
D27*
%TO.C,R61*%
X154490000Y-141000000D03*
X155510000Y-141000000D03*
%TD*%
D28*
%TO.C,C275*%
X247025000Y-140045000D03*
X247025000Y-141005000D03*
%TD*%
D27*
%TO.C,R161*%
X226490000Y-129800000D03*
X227510000Y-129800000D03*
%TD*%
D28*
%TO.C,C258*%
X247025000Y-132845000D03*
X247025000Y-133805000D03*
%TD*%
D26*
%TO.C,U61*%
X185175000Y-134875000D03*
X185175000Y-135525000D03*
X185175000Y-136175000D03*
X183275000Y-136175000D03*
X183275000Y-135525000D03*
X183275000Y-134875000D03*
%TD*%
D27*
%TO.C,R15*%
X156490000Y-121000000D03*
X157510000Y-121000000D03*
%TD*%
D28*
%TO.C,C105*%
X177025000Y-125645000D03*
X177025000Y-126605000D03*
%TD*%
D31*
%TO.C,C214*%
X229880000Y-144200000D03*
X228920000Y-144200000D03*
%TD*%
D30*
%TO.C,U13*%
X149550000Y-125850000D03*
X149550000Y-125200000D03*
X149550000Y-124550000D03*
X151450000Y-124550000D03*
X151450000Y-125200000D03*
X151450000Y-125850000D03*
%TD*%
%TO.C,U8*%
X149550000Y-121850000D03*
X149550000Y-121200000D03*
X149550000Y-120550000D03*
X151450000Y-120550000D03*
X151450000Y-121200000D03*
X151450000Y-121850000D03*
%TD*%
D32*
%TO.C,C254*%
X240120000Y-131400000D03*
X241080000Y-131400000D03*
%TD*%
D30*
%TO.C,U31*%
X149550000Y-140250000D03*
X149550000Y-139600000D03*
X149550000Y-138950000D03*
X151450000Y-138950000D03*
X151450000Y-139600000D03*
X151450000Y-140250000D03*
%TD*%
D29*
%TO.C,R122*%
X175610000Y-138600000D03*
X174590000Y-138600000D03*
%TD*%
D30*
%TO.C,U4*%
X149550000Y-118650000D03*
X149550000Y-118000000D03*
X149550000Y-117350000D03*
X151450000Y-117350000D03*
X151450000Y-118000000D03*
X151450000Y-118650000D03*
%TD*%
D33*
%TO.C,C167*%
X218263500Y-121200000D03*
X218263500Y-120240000D03*
%TD*%
D29*
%TO.C,R120*%
X173610000Y-140200000D03*
X172590000Y-140200000D03*
%TD*%
D28*
%TO.C,C130*%
X177025000Y-135845000D03*
X177025000Y-136805000D03*
%TD*%
D27*
%TO.C,R153*%
X226490000Y-126600000D03*
X227510000Y-126600000D03*
%TD*%
D26*
%TO.C,U50*%
X180525000Y-124975000D03*
X180525000Y-125625000D03*
X180525000Y-126275000D03*
X178625000Y-126275000D03*
X178625000Y-125625000D03*
X178625000Y-124975000D03*
%TD*%
%TO.C,U43*%
X185175000Y-120475000D03*
X185175000Y-121125000D03*
X185175000Y-121775000D03*
X183275000Y-121775000D03*
X183275000Y-121125000D03*
X183275000Y-120475000D03*
%TD*%
D30*
%TO.C,U15*%
X144800000Y-125850000D03*
X144800000Y-125200000D03*
X144800000Y-124550000D03*
X146700000Y-124550000D03*
X146700000Y-125200000D03*
X146700000Y-125850000D03*
%TD*%
D27*
%TO.C,R53*%
X154490000Y-137000000D03*
X155510000Y-137000000D03*
%TD*%
D32*
%TO.C,C245*%
X240120000Y-127400000D03*
X241080000Y-127400000D03*
%TD*%
D27*
%TO.C,R11*%
X154490000Y-117800000D03*
X155510000Y-117800000D03*
%TD*%
D32*
%TO.C,C237*%
X240120000Y-124200000D03*
X241080000Y-124200000D03*
%TD*%
D29*
%TO.C,R70*%
X173610000Y-117000000D03*
X172590000Y-117000000D03*
%TD*%
%TO.C,R132*%
X175610000Y-143400000D03*
X174590000Y-143400000D03*
%TD*%
D32*
%TO.C,C126*%
X170120000Y-134600000D03*
X171080000Y-134600000D03*
%TD*%
D31*
%TO.C,C17*%
X159880000Y-117800000D03*
X158920000Y-117800000D03*
%TD*%
D29*
%TO.C,R82*%
X175610000Y-120200000D03*
X174590000Y-120200000D03*
%TD*%
D31*
%TO.C,C180*%
X229880000Y-129800000D03*
X228920000Y-129800000D03*
%TD*%
D27*
%TO.C,R9*%
X156490000Y-119400000D03*
X157510000Y-119400000D03*
%TD*%
%TO.C,R37*%
X154490000Y-129800000D03*
X155510000Y-129800000D03*
%TD*%
D26*
%TO.C,U111*%
X255175000Y-117475000D03*
X255175000Y-118125000D03*
X255175000Y-118775000D03*
X253275000Y-118775000D03*
X253275000Y-118125000D03*
X253275000Y-117475000D03*
%TD*%
D27*
%TO.C,R177*%
X226490000Y-137000000D03*
X227510000Y-137000000D03*
%TD*%
D29*
%TO.C,R248*%
X243610000Y-140200000D03*
X242590000Y-140200000D03*
%TD*%
D27*
%TO.C,R183*%
X226490000Y-139400000D03*
X227510000Y-139400000D03*
%TD*%
D26*
%TO.C,U68*%
X180525000Y-139375000D03*
X180525000Y-140025000D03*
X180525000Y-140675000D03*
X178625000Y-140675000D03*
X178625000Y-140025000D03*
X178625000Y-139375000D03*
%TD*%
D31*
%TO.C,C78*%
X159880000Y-144200000D03*
X158920000Y-144200000D03*
%TD*%
D30*
%TO.C,U96*%
X214800000Y-133050000D03*
X214800000Y-132400000D03*
X214800000Y-131750000D03*
X216700000Y-131750000D03*
X216700000Y-132400000D03*
X216700000Y-133050000D03*
%TD*%
D29*
%TO.C,R202*%
X245610000Y-117025000D03*
X244590000Y-117025000D03*
%TD*%
%TO.C,R78*%
X173610000Y-120200000D03*
X172590000Y-120200000D03*
%TD*%
D33*
%TO.C,C199*%
X223000000Y-135580000D03*
X223000000Y-134620000D03*
%TD*%
D29*
%TO.C,R106*%
X175610000Y-131400000D03*
X174590000Y-131400000D03*
%TD*%
D33*
%TO.C,C218*%
X218263500Y-142800000D03*
X218263500Y-141840000D03*
%TD*%
D31*
%TO.C,C163*%
X229880000Y-122600000D03*
X228920000Y-122600000D03*
%TD*%
D29*
%TO.C,R224*%
X243610000Y-129000000D03*
X242590000Y-129000000D03*
%TD*%
D27*
%TO.C,R7*%
X156490000Y-117800000D03*
X157510000Y-117800000D03*
%TD*%
D31*
%TO.C,C34*%
X159880000Y-125000000D03*
X158920000Y-125000000D03*
%TD*%
D29*
%TO.C,R130*%
X175610000Y-141800000D03*
X174590000Y-141800000D03*
%TD*%
D32*
%TO.C,C94*%
X170120000Y-121800000D03*
X171080000Y-121800000D03*
%TD*%
%TO.C,C109*%
X170120000Y-127400000D03*
X171080000Y-127400000D03*
%TD*%
D28*
%TO.C,C107*%
X181725000Y-125345000D03*
X181725000Y-126305000D03*
%TD*%
%TO.C,C96*%
X177025000Y-121445000D03*
X177025000Y-122405000D03*
%TD*%
D26*
%TO.C,U135*%
X250525000Y-135175000D03*
X250525000Y-135825000D03*
X250525000Y-136475000D03*
X248625000Y-136475000D03*
X248625000Y-135825000D03*
X248625000Y-135175000D03*
%TD*%
D27*
%TO.C,R159*%
X226490000Y-128200000D03*
X227510000Y-128200000D03*
%TD*%
%TO.C,R151*%
X226490000Y-125000000D03*
X227510000Y-125000000D03*
%TD*%
D33*
%TO.C,C184*%
X218263500Y-128400000D03*
X218263500Y-127440000D03*
%TD*%
D29*
%TO.C,R72*%
X173610000Y-118600000D03*
X172590000Y-118600000D03*
%TD*%
D28*
%TO.C,C147*%
X177025000Y-143045000D03*
X177025000Y-144005000D03*
%TD*%
D26*
%TO.C,U45*%
X180525000Y-120775000D03*
X180525000Y-121425000D03*
X180525000Y-122075000D03*
X178625000Y-122075000D03*
X178625000Y-121425000D03*
X178625000Y-120775000D03*
%TD*%
D27*
%TO.C,R143*%
X226490000Y-121000000D03*
X227510000Y-121000000D03*
%TD*%
D28*
%TO.C,C283*%
X247025000Y-143045000D03*
X247025000Y-144005000D03*
%TD*%
D26*
%TO.C,U142*%
X255175000Y-142075000D03*
X255175000Y-142725000D03*
X255175000Y-143375000D03*
X253275000Y-143375000D03*
X253275000Y-142725000D03*
X253275000Y-142075000D03*
%TD*%
D27*
%TO.C,R169*%
X226490000Y-133800000D03*
X227510000Y-133800000D03*
%TD*%
D29*
%TO.C,R126*%
X173610000Y-141800000D03*
X172590000Y-141800000D03*
%TD*%
D27*
%TO.C,R165*%
X224490000Y-129800000D03*
X225510000Y-129800000D03*
%TD*%
%TO.C,R35*%
X154490000Y-128200000D03*
X155510000Y-128200000D03*
%TD*%
D30*
%TO.C,U91*%
X214800000Y-129050000D03*
X214800000Y-128400000D03*
X214800000Y-127750000D03*
X216700000Y-127750000D03*
X216700000Y-128400000D03*
X216700000Y-129050000D03*
%TD*%
%TO.C,U19*%
X144800000Y-129050000D03*
X144800000Y-128400000D03*
X144800000Y-127750000D03*
X146700000Y-127750000D03*
X146700000Y-128400000D03*
X146700000Y-129050000D03*
%TD*%
D26*
%TO.C,U48*%
X185175000Y-124675000D03*
X185175000Y-125325000D03*
X185175000Y-125975000D03*
X183275000Y-125975000D03*
X183275000Y-125325000D03*
X183275000Y-124675000D03*
%TD*%
D29*
%TO.C,R206*%
X243610000Y-120200000D03*
X242590000Y-120200000D03*
%TD*%
D32*
%TO.C,C84*%
X170120000Y-117000000D03*
X171080000Y-117000000D03*
%TD*%
%TO.C,C101*%
X170120000Y-124200000D03*
X171080000Y-124200000D03*
%TD*%
%TO.C,C256*%
X240130000Y-133000000D03*
X241090000Y-133000000D03*
%TD*%
D33*
%TO.C,C23*%
X148250000Y-118000000D03*
X148250000Y-117040000D03*
%TD*%
D29*
%TO.C,R204*%
X245620000Y-118625000D03*
X244600000Y-118625000D03*
%TD*%
D27*
%TO.C,R193*%
X226490000Y-144200000D03*
X227510000Y-144200000D03*
%TD*%
D32*
%TO.C,C239*%
X240130000Y-125800000D03*
X241090000Y-125800000D03*
%TD*%
D29*
%TO.C,R256*%
X243610000Y-143400000D03*
X242590000Y-143400000D03*
%TD*%
D32*
%TO.C,C86*%
X170130000Y-118600000D03*
X171090000Y-118600000D03*
%TD*%
D28*
%TO.C,C124*%
X181725000Y-132545000D03*
X181725000Y-133505000D03*
%TD*%
D33*
%TO.C,C46*%
X153000000Y-128380000D03*
X153000000Y-127420000D03*
%TD*%
D27*
%TO.C,R141*%
X224490000Y-119400000D03*
X225510000Y-119400000D03*
%TD*%
D26*
%TO.C,U63*%
X180525000Y-135175000D03*
X180525000Y-135825000D03*
X180525000Y-136475000D03*
X178625000Y-136475000D03*
X178625000Y-135825000D03*
X178625000Y-135175000D03*
%TD*%
D29*
%TO.C,R100*%
X175610000Y-129000000D03*
X174590000Y-129000000D03*
%TD*%
D30*
%TO.C,U37*%
X144800000Y-143450000D03*
X144800000Y-142800000D03*
X144800000Y-142150000D03*
X146700000Y-142150000D03*
X146700000Y-142800000D03*
X146700000Y-143450000D03*
%TD*%
D27*
%TO.C,R49*%
X156490000Y-137000000D03*
X157510000Y-137000000D03*
%TD*%
D32*
%TO.C,C264*%
X240120000Y-136200000D03*
X241080000Y-136200000D03*
%TD*%
D27*
%TO.C,R17*%
X156490000Y-122600000D03*
X157510000Y-122600000D03*
%TD*%
D26*
%TO.C,U115*%
X255175000Y-120475000D03*
X255175000Y-121125000D03*
X255175000Y-121775000D03*
X253275000Y-121775000D03*
X253275000Y-121125000D03*
X253275000Y-120475000D03*
%TD*%
D29*
%TO.C,R212*%
X245610000Y-121825000D03*
X244590000Y-121825000D03*
%TD*%
D27*
%TO.C,R19*%
X154490000Y-121000000D03*
X155510000Y-121000000D03*
%TD*%
D29*
%TO.C,R90*%
X175610000Y-124200000D03*
X174590000Y-124200000D03*
%TD*%
D27*
%TO.C,R41*%
X156490000Y-133800000D03*
X157510000Y-133800000D03*
%TD*%
D33*
%TO.C,C159*%
X218250000Y-118000000D03*
X218250000Y-117040000D03*
%TD*%
D27*
%TO.C,R149*%
X224490000Y-122600000D03*
X225510000Y-122600000D03*
%TD*%
D30*
%TO.C,U105*%
X214800000Y-140250000D03*
X214800000Y-139600000D03*
X214800000Y-138950000D03*
X216700000Y-138950000D03*
X216700000Y-139600000D03*
X216700000Y-140250000D03*
%TD*%
D32*
%TO.C,C118*%
X170120000Y-131400000D03*
X171080000Y-131400000D03*
%TD*%
D33*
%TO.C,C31*%
X148263500Y-121200000D03*
X148263500Y-120240000D03*
%TD*%
D29*
%TO.C,R214*%
X243610000Y-124200000D03*
X242590000Y-124200000D03*
%TD*%
D27*
%TO.C,R187*%
X224490000Y-139400000D03*
X225510000Y-139400000D03*
%TD*%
D33*
%TO.C,C176*%
X218250000Y-125200000D03*
X218250000Y-124240000D03*
%TD*%
D26*
%TO.C,U126*%
X250525000Y-127975000D03*
X250525000Y-128625000D03*
X250525000Y-129275000D03*
X248625000Y-129275000D03*
X248625000Y-128625000D03*
X248625000Y-127975000D03*
%TD*%
D33*
%TO.C,C63*%
X153000000Y-135580000D03*
X153000000Y-134620000D03*
%TD*%
D31*
%TO.C,C187*%
X229880000Y-132200000D03*
X228920000Y-132200000D03*
%TD*%
D26*
%TO.C,U59*%
X180525000Y-132175000D03*
X180525000Y-132825000D03*
X180525000Y-133475000D03*
X178625000Y-133475000D03*
X178625000Y-132825000D03*
X178625000Y-132175000D03*
%TD*%
D31*
%TO.C,C61*%
X159880000Y-137000000D03*
X158920000Y-137000000D03*
%TD*%
D27*
%TO.C,R135*%
X226490000Y-117800000D03*
X227510000Y-117800000D03*
%TD*%
%TO.C,R33*%
X156490000Y-129800000D03*
X157510000Y-129800000D03*
%TD*%
%TO.C,R47*%
X156490000Y-135400000D03*
X157510000Y-135400000D03*
%TD*%
%TO.C,R163*%
X224490000Y-128200000D03*
X225510000Y-128200000D03*
%TD*%
D28*
%TO.C,C232*%
X247025000Y-121445000D03*
X247025000Y-122405000D03*
%TD*%
D27*
%TO.C,R29*%
X154490000Y-126600000D03*
X155510000Y-126600000D03*
%TD*%
D28*
%TO.C,C260*%
X251725000Y-132545000D03*
X251725000Y-133505000D03*
%TD*%
D31*
%TO.C,C195*%
X229880000Y-135400000D03*
X228920000Y-135400000D03*
%TD*%
D27*
%TO.C,R55*%
X156490000Y-139400000D03*
X157510000Y-139400000D03*
%TD*%
D30*
%TO.C,U107*%
X219550000Y-143450000D03*
X219550000Y-142800000D03*
X219550000Y-142150000D03*
X221450000Y-142150000D03*
X221450000Y-142800000D03*
X221450000Y-143450000D03*
%TD*%
D29*
%TO.C,R114*%
X175610000Y-134600000D03*
X174590000Y-134600000D03*
%TD*%
D32*
%TO.C,C228*%
X240120000Y-120200000D03*
X241080000Y-120200000D03*
%TD*%
D31*
%TO.C,C172*%
X229880000Y-126600000D03*
X228920000Y-126600000D03*
%TD*%
D27*
%TO.C,R51*%
X154490000Y-135400000D03*
X155510000Y-135400000D03*
%TD*%
D29*
%TO.C,R118*%
X173610000Y-138600000D03*
X172590000Y-138600000D03*
%TD*%
%TO.C,R96*%
X173610000Y-129000000D03*
X172590000Y-129000000D03*
%TD*%
%TO.C,R210*%
X245610000Y-120225000D03*
X244590000Y-120225000D03*
%TD*%
D31*
%TO.C,C70*%
X159880000Y-141000000D03*
X158920000Y-141000000D03*
%TD*%
D29*
%TO.C,R240*%
X243610000Y-136200000D03*
X242590000Y-136200000D03*
%TD*%
%TO.C,R208*%
X243610000Y-121800000D03*
X242590000Y-121800000D03*
%TD*%
D27*
%TO.C,R171*%
X224490000Y-132200000D03*
X225510000Y-132200000D03*
%TD*%
D32*
%TO.C,C143*%
X170120000Y-141800000D03*
X171080000Y-141800000D03*
%TD*%
D30*
%TO.C,U17*%
X149550000Y-129050000D03*
X149550000Y-128400000D03*
X149550000Y-127750000D03*
X151450000Y-127750000D03*
X151450000Y-128400000D03*
X151450000Y-129050000D03*
%TD*%
D27*
%TO.C,R13*%
X154490000Y-119400000D03*
X155510000Y-119400000D03*
%TD*%
D26*
%TO.C,U66*%
X185175000Y-139075000D03*
X185175000Y-139725000D03*
X185175000Y-140375000D03*
X183275000Y-140375000D03*
X183275000Y-139725000D03*
X183275000Y-139075000D03*
%TD*%
D33*
%TO.C,C80*%
X153000000Y-142780000D03*
X153000000Y-141820000D03*
%TD*%
D28*
%TO.C,C226*%
X251725000Y-118145000D03*
X251725000Y-119105000D03*
%TD*%
D32*
%TO.C,C220*%
X240120000Y-117000000D03*
X241080000Y-117000000D03*
%TD*%
D36*
%TO.C,J7*%
X219000000Y-68750000D03*
X217000000Y-68750000D03*
D37*
X221350000Y-74500000D03*
X214650000Y-74500000D03*
%TD*%
D32*
%TO.C,C111*%
X170120000Y-129000000D03*
X171080000Y-129000000D03*
%TD*%
D28*
%TO.C,C224*%
X247025000Y-118445000D03*
X247025000Y-119405000D03*
%TD*%
D33*
%TO.C,C201*%
X218263500Y-135600000D03*
X218263500Y-134640000D03*
%TD*%
D29*
%TO.C,R110*%
X173610000Y-134600000D03*
X172590000Y-134600000D03*
%TD*%
D26*
%TO.C,U131*%
X250525000Y-132175000D03*
X250525000Y-132825000D03*
X250525000Y-133475000D03*
X248625000Y-133475000D03*
X248625000Y-132825000D03*
X248625000Y-132175000D03*
%TD*%
D31*
%TO.C,C68*%
X159880000Y-139400000D03*
X158920000Y-139400000D03*
%TD*%
D27*
%TO.C,R191*%
X226490000Y-142600000D03*
X227510000Y-142600000D03*
%TD*%
D30*
%TO.C,U94*%
X219550000Y-133050000D03*
X219550000Y-132400000D03*
X219550000Y-131750000D03*
X221450000Y-131750000D03*
X221450000Y-132400000D03*
X221450000Y-133050000D03*
%TD*%
D26*
%TO.C,U124*%
X255175000Y-127675000D03*
X255175000Y-128325000D03*
X255175000Y-128975000D03*
X253275000Y-128975000D03*
X253275000Y-128325000D03*
X253275000Y-127675000D03*
%TD*%
D30*
%TO.C,U103*%
X219550000Y-140250000D03*
X219550000Y-139600000D03*
X219550000Y-138950000D03*
X221450000Y-138950000D03*
X221450000Y-139600000D03*
X221450000Y-140250000D03*
%TD*%
D29*
%TO.C,R258*%
X245610000Y-141825000D03*
X244590000Y-141825000D03*
%TD*%
D27*
%TO.C,R31*%
X156490000Y-128200000D03*
X157510000Y-128200000D03*
%TD*%
D33*
%TO.C,C48*%
X148263500Y-128400000D03*
X148263500Y-127440000D03*
%TD*%
D29*
%TO.C,R226*%
X245610000Y-127425000D03*
X244590000Y-127425000D03*
%TD*%
%TO.C,R254*%
X243610000Y-141800000D03*
X242590000Y-141800000D03*
%TD*%
M02*
