%TF.GenerationSoftware,KiCad,Pcbnew,9.0.6*%
%TF.CreationDate,2026-01-13T15:41:30-05:00*%
%TF.ProjectId,ephys-test-board,65706879-732d-4746-9573-742d626f6172,F*%
%TF.SameCoordinates,PX7735940PYa6e49c0*%
%TF.FileFunction,Soldermask,Top*%
%TF.FilePolarity,Negative*%
%FSLAX46Y46*%
G04 Gerber Fmt 4.6, Leading zero omitted, Abs format (unit mm)*
G04 Created by KiCad (PCBNEW 9.0.6) date 2026-01-13 15:41:30*
%MOMM*%
%LPD*%
G01*
G04 APERTURE LIST*
G04 Aperture macros list*
%AMRoundRect*
0 Rectangle with rounded corners*
0 $1 Rounding radius*
0 $2 $3 $4 $5 $6 $7 $8 $9 X,Y pos of 4 corners*
0 Add a 4 corners polygon primitive as box body*
4,1,4,$2,$3,$4,$5,$6,$7,$8,$9,$2,$3,0*
0 Add four circle primitives for the rounded corners*
1,1,$1+$1,$2,$3*
1,1,$1+$1,$4,$5*
1,1,$1+$1,$6,$7*
1,1,$1+$1,$8,$9*
0 Add four rect primitives between the rounded corners*
20,1,$1+$1,$2,$3,$4,$5,0*
20,1,$1+$1,$4,$5,$6,$7,0*
20,1,$1+$1,$6,$7,$8,$9,0*
20,1,$1+$1,$8,$9,$2,$3,0*%
G04 Aperture macros list end*
%ADD10C,0.000000*%
%ADD11RoundRect,0.050000X-0.387500X-0.050000X0.387500X-0.050000X0.387500X0.050000X-0.387500X0.050000X0*%
%ADD12RoundRect,0.050000X-0.050000X-0.387500X0.050000X-0.387500X0.050000X0.387500X-0.050000X0.387500X0*%
%ADD13R,3.200000X3.200000*%
%ADD14C,5.700000*%
%ADD15RoundRect,0.250000X-0.550000X-0.550000X0.550000X-0.550000X0.550000X0.550000X-0.550000X0.550000X0*%
%ADD16C,1.600000*%
%ADD17O,4.100000X3.000000*%
%ADD18C,0.265000*%
%ADD19RoundRect,0.135000X0.135000X0.185000X-0.135000X0.185000X-0.135000X-0.185000X0.135000X-0.185000X0*%
%ADD20RoundRect,0.135000X-0.135000X-0.185000X0.135000X-0.185000X0.135000X0.185000X-0.135000X0.185000X0*%
%ADD21RoundRect,0.140000X0.140000X0.170000X-0.140000X0.170000X-0.140000X-0.170000X0.140000X-0.170000X0*%
%ADD22RoundRect,0.135000X-0.185000X0.135000X-0.185000X-0.135000X0.185000X-0.135000X0.185000X0.135000X0*%
%ADD23RoundRect,0.140000X-0.140000X-0.170000X0.140000X-0.170000X0.140000X0.170000X-0.140000X0.170000X0*%
%ADD24RoundRect,0.140000X-0.170000X0.140000X-0.170000X-0.140000X0.170000X-0.140000X0.170000X0.140000X0*%
%ADD25RoundRect,0.100000X-0.637500X-0.100000X0.637500X-0.100000X0.637500X0.100000X-0.637500X0.100000X0*%
%ADD26RoundRect,0.200000X-0.200000X-0.275000X0.200000X-0.275000X0.200000X0.275000X-0.200000X0.275000X0*%
%ADD27RoundRect,0.225000X-0.225000X-0.375000X0.225000X-0.375000X0.225000X0.375000X-0.225000X0.375000X0*%
%ADD28R,0.700000X0.640000*%
%ADD29R,0.700000X0.500000*%
%ADD30RoundRect,0.250000X0.650000X-0.325000X0.650000X0.325000X-0.650000X0.325000X-0.650000X-0.325000X0*%
%ADD31C,2.000000*%
%ADD32RoundRect,0.225000X0.225000X0.250000X-0.225000X0.250000X-0.225000X-0.250000X0.225000X-0.250000X0*%
%ADD33RoundRect,0.075000X0.075000X0.200000X-0.075000X0.200000X-0.075000X-0.200000X0.075000X-0.200000X0*%
%ADD34RoundRect,0.250000X-0.325000X-0.650000X0.325000X-0.650000X0.325000X0.650000X-0.325000X0.650000X0*%
%ADD35RoundRect,0.140000X0.170000X-0.140000X0.170000X0.140000X-0.170000X0.140000X-0.170000X-0.140000X0*%
%ADD36C,1.016000*%
%ADD37R,1.450000X0.457000*%
%ADD38RoundRect,0.150000X-0.150000X0.587500X-0.150000X-0.587500X0.150000X-0.587500X0.150000X0.587500X0*%
%ADD39RoundRect,0.225000X0.250000X-0.225000X0.250000X0.225000X-0.250000X0.225000X-0.250000X-0.225000X0*%
%ADD40RoundRect,0.250000X0.325000X0.650000X-0.325000X0.650000X-0.325000X-0.650000X0.325000X-0.650000X0*%
%ADD41C,2.100000*%
%ADD42C,1.750000*%
%ADD43RoundRect,0.150000X0.625000X-0.150000X0.625000X0.150000X-0.625000X0.150000X-0.625000X-0.150000X0*%
%ADD44RoundRect,0.250000X0.650000X-0.350000X0.650000X0.350000X-0.650000X0.350000X-0.650000X-0.350000X0*%
%ADD45RoundRect,0.100000X0.637500X0.100000X-0.637500X0.100000X-0.637500X-0.100000X0.637500X-0.100000X0*%
%ADD46RoundRect,0.150000X0.150000X-0.587500X0.150000X0.587500X-0.150000X0.587500X-0.150000X-0.587500X0*%
%ADD47RoundRect,0.135000X0.185000X-0.135000X0.185000X0.135000X-0.185000X0.135000X-0.185000X-0.135000X0*%
%ADD48RoundRect,0.225000X0.375000X-0.225000X0.375000X0.225000X-0.375000X0.225000X-0.375000X-0.225000X0*%
%ADD49R,1.400000X2.100000*%
%ADD50RoundRect,0.150000X0.512500X0.150000X-0.512500X0.150000X-0.512500X-0.150000X0.512500X-0.150000X0*%
%ADD51RoundRect,0.070000X-0.355000X0.070000X-0.355000X-0.070000X0.355000X-0.070000X0.355000X0.070000X0*%
%ADD52RoundRect,0.070000X-0.305000X0.070000X-0.305000X-0.070000X0.305000X-0.070000X0.305000X0.070000X0*%
%ADD53RoundRect,0.225000X-0.225000X-0.250000X0.225000X-0.250000X0.225000X0.250000X-0.225000X0.250000X0*%
%ADD54RoundRect,0.250000X-0.625000X0.312500X-0.625000X-0.312500X0.625000X-0.312500X0.625000X0.312500X0*%
%ADD55RoundRect,0.150000X-0.150000X0.512500X-0.150000X-0.512500X0.150000X-0.512500X0.150000X0.512500X0*%
%ADD56RoundRect,0.250000X-0.650000X0.325000X-0.650000X-0.325000X0.650000X-0.325000X0.650000X0.325000X0*%
%ADD57RoundRect,0.150000X0.150000X-0.512500X0.150000X0.512500X-0.150000X0.512500X-0.150000X-0.512500X0*%
%ADD58RoundRect,0.162500X0.162500X-0.650000X0.162500X0.650000X-0.162500X0.650000X-0.162500X-0.650000X0*%
%ADD59C,3.000000*%
%ADD60R,1.200000X1.400000*%
%ADD61RoundRect,0.087500X0.087500X-0.725000X0.087500X0.725000X-0.087500X0.725000X-0.087500X-0.725000X0*%
%ADD62RoundRect,0.102000X-0.900000X-0.900000X0.900000X-0.900000X0.900000X0.900000X-0.900000X0.900000X0*%
%ADD63C,2.004000*%
%ADD64RoundRect,0.225000X-0.250000X0.225000X-0.250000X-0.225000X0.250000X-0.225000X0.250000X0.225000X0*%
%ADD65C,3.500000*%
%ADD66RoundRect,0.150000X-0.512500X-0.150000X0.512500X-0.150000X0.512500X0.150000X-0.512500X0.150000X0*%
%ADD67RoundRect,0.062500X-0.062500X0.187500X-0.062500X-0.187500X0.062500X-0.187500X0.062500X0.187500X0*%
%ADD68R,1.600000X0.900000*%
%ADD69RoundRect,0.218750X-0.256250X0.218750X-0.256250X-0.218750X0.256250X-0.218750X0.256250X0.218750X0*%
%ADD70R,1.000000X3.150000*%
%ADD71C,0.650000*%
%ADD72RoundRect,0.150000X0.150000X0.425000X-0.150000X0.425000X-0.150000X-0.425000X0.150000X-0.425000X0*%
%ADD73RoundRect,0.075000X0.075000X0.500000X-0.075000X0.500000X-0.075000X-0.500000X0.075000X-0.500000X0*%
%ADD74O,1.000000X2.100000*%
%ADD75O,1.000000X1.800000*%
%ADD76RoundRect,0.150000X0.587500X0.150000X-0.587500X0.150000X-0.587500X-0.150000X0.587500X-0.150000X0*%
G04 APERTURE END LIST*
D10*
%TO.C,G\u002A\u002A\u002A*%
G36*
X82319905Y17958797D02*
G01*
X82424976Y17943127D01*
X82483922Y17927169D01*
X82610199Y17875096D01*
X82721844Y17806239D01*
X82823049Y17718564D01*
X82910618Y17617480D01*
X82979043Y17507024D01*
X83031929Y17381361D01*
X83032586Y17379437D01*
X83065601Y17282490D01*
X83065601Y16482681D01*
X83065601Y15682872D01*
X83032586Y15585925D01*
X82979724Y15460052D01*
X82910678Y15348777D01*
X82823158Y15247423D01*
X82715234Y15154366D01*
X82597986Y15083656D01*
X82471013Y15035117D01*
X82333911Y15008575D01*
X82265792Y15003646D01*
X82207021Y15002869D01*
X82150958Y15004474D01*
X82106223Y15008120D01*
X82090987Y15010561D01*
X81955802Y15048295D01*
X81836406Y15101972D01*
X81728602Y15173823D01*
X81647459Y15246314D01*
X81569875Y15333181D01*
X81509378Y15423553D01*
X81461466Y15524969D01*
X81433771Y15604103D01*
X81405391Y15694990D01*
X81405391Y15719227D01*
X81405391Y16482681D01*
X81405391Y17246135D01*
X81793177Y17246135D01*
X81793177Y16482681D01*
X81793177Y15719227D01*
X81826069Y15652576D01*
X81882661Y15559841D01*
X81951738Y15487145D01*
X82035265Y15432691D01*
X82093710Y15407823D01*
X82170174Y15390817D01*
X82256261Y15388382D01*
X82342615Y15400016D01*
X82419880Y15425218D01*
X82420128Y15425332D01*
X82496299Y15471798D01*
X82566108Y15536200D01*
X82623234Y15612239D01*
X82642192Y15646671D01*
X82677815Y15719227D01*
X82677815Y16482681D01*
X82677815Y17246135D01*
X82642192Y17318690D01*
X82591930Y17398354D01*
X82525905Y17469164D01*
X82450555Y17524683D01*
X82420128Y17540754D01*
X82382556Y17556785D01*
X82348136Y17566573D01*
X82308596Y17571577D01*
X82255667Y17573256D01*
X82235496Y17573330D01*
X82176809Y17572377D01*
X82134045Y17568547D01*
X82098935Y17560380D01*
X82063208Y17546417D01*
X82050864Y17540754D01*
X81977471Y17495589D01*
X81908772Y17433695D01*
X81852125Y17362432D01*
X81825754Y17315643D01*
X81793177Y17246135D01*
X81405391Y17246135D01*
X81405391Y17270372D01*
X81433771Y17361259D01*
X81475697Y17474494D01*
X81527146Y17571557D01*
X81592618Y17659988D01*
X81647459Y17719048D01*
X81734327Y17796632D01*
X81824699Y17857129D01*
X81926114Y17905041D01*
X82005248Y17932737D01*
X82101161Y17953705D01*
X82209006Y17962358D01*
X82319905Y17958797D01*
G37*
G36*
X86689562Y17959799D02*
G01*
X86791571Y17945358D01*
X86840458Y17932703D01*
X86957806Y17888834D01*
X87058418Y17834420D01*
X87148860Y17765579D01*
X87191889Y17724968D01*
X87279392Y17625231D01*
X87347079Y17519803D01*
X87399336Y17401645D01*
X87407118Y17379437D01*
X87439952Y17282490D01*
X87440133Y16844112D01*
X87440134Y16729327D01*
X87439945Y16636269D01*
X87439433Y16562427D01*
X87438466Y16505293D01*
X87436913Y16462357D01*
X87434642Y16431108D01*
X87431520Y16409036D01*
X87427416Y16393633D01*
X87422198Y16382387D01*
X87415735Y16372790D01*
X87415329Y16372246D01*
X87386479Y16339885D01*
X87356890Y16313773D01*
X87348509Y16308022D01*
X87338688Y16303211D01*
X87325289Y16299241D01*
X87306172Y16296015D01*
X87279200Y16293433D01*
X87242232Y16291397D01*
X87193132Y16289809D01*
X87129759Y16288568D01*
X87049976Y16287578D01*
X86951643Y16286740D01*
X86832622Y16285954D01*
X86741832Y16285418D01*
X86160227Y16282047D01*
X86164059Y16000637D01*
X86167891Y15719227D01*
X86206079Y15638625D01*
X86259939Y15549496D01*
X86329285Y15478430D01*
X86416341Y15423205D01*
X86426602Y15418234D01*
X86471355Y15398607D01*
X86508988Y15387131D01*
X86549568Y15381725D01*
X86603162Y15380310D01*
X86610210Y15380309D01*
X86700185Y15387398D01*
X86778426Y15410230D01*
X86852046Y15451519D01*
X86904347Y15492604D01*
X86971482Y15539690D01*
X87036361Y15562878D01*
X87098626Y15562146D01*
X87157920Y15537474D01*
X87193846Y15509388D01*
X87236976Y15456084D01*
X87256714Y15399578D01*
X87253545Y15340842D01*
X87227952Y15280852D01*
X87180417Y15220580D01*
X87111424Y15161000D01*
X87021456Y15103086D01*
X86981558Y15081558D01*
X86875454Y15038626D01*
X86756584Y15010662D01*
X86631768Y14998359D01*
X86507826Y15002408D01*
X86396596Y15022166D01*
X86262375Y15069337D01*
X86141263Y15136428D01*
X86034573Y15222188D01*
X85943619Y15325366D01*
X85869712Y15444709D01*
X85814904Y15576706D01*
X85780105Y15682872D01*
X85780105Y16482681D01*
X85780105Y16670515D01*
X86159910Y16670515D01*
X86610210Y16670515D01*
X87060510Y16670515D01*
X87056478Y16958325D01*
X87052447Y17246135D01*
X87016974Y17318581D01*
X86966945Y17397998D01*
X86901086Y17468740D01*
X86825886Y17524316D01*
X86794842Y17540754D01*
X86757270Y17556785D01*
X86722849Y17566573D01*
X86683310Y17571577D01*
X86630381Y17573256D01*
X86610210Y17573330D01*
X86551522Y17572377D01*
X86508759Y17568547D01*
X86473649Y17560380D01*
X86437922Y17546417D01*
X86425578Y17540754D01*
X86348467Y17493008D01*
X86278118Y17427517D01*
X86221020Y17350770D01*
X86203446Y17318581D01*
X86167973Y17246135D01*
X86163941Y16958325D01*
X86159910Y16670515D01*
X85780105Y16670515D01*
X85780105Y17282490D01*
X85813120Y17379437D01*
X85863471Y17500829D01*
X85928373Y17608080D01*
X86012277Y17708329D01*
X86028531Y17724968D01*
X86116368Y17802386D01*
X86211125Y17863457D01*
X86319367Y17912061D01*
X86379962Y17932703D01*
X86474414Y17953471D01*
X86580729Y17962503D01*
X86689562Y17959799D01*
G37*
G36*
X91997387Y17959799D02*
G01*
X92099396Y17945358D01*
X92148282Y17932703D01*
X92265631Y17888834D01*
X92366242Y17834420D01*
X92456684Y17765579D01*
X92499714Y17724968D01*
X92587216Y17625231D01*
X92654904Y17519803D01*
X92707160Y17401645D01*
X92714942Y17379437D01*
X92747776Y17282490D01*
X92747958Y16844112D01*
X92747959Y16729327D01*
X92747769Y16636269D01*
X92747257Y16562427D01*
X92746290Y16505293D01*
X92744738Y16462357D01*
X92742466Y16431108D01*
X92739345Y16409036D01*
X92735241Y16393633D01*
X92730023Y16382387D01*
X92723559Y16372790D01*
X92723154Y16372246D01*
X92694304Y16339885D01*
X92664715Y16313773D01*
X92656334Y16308022D01*
X92646513Y16303211D01*
X92633113Y16299241D01*
X92613997Y16296015D01*
X92587024Y16293433D01*
X92550057Y16291397D01*
X92500956Y16289809D01*
X92437584Y16288568D01*
X92357800Y16287578D01*
X92259467Y16286740D01*
X92140446Y16285954D01*
X92049656Y16285418D01*
X91468051Y16282047D01*
X91471883Y16000637D01*
X91475716Y15719227D01*
X91513903Y15638625D01*
X91567763Y15549496D01*
X91637109Y15478430D01*
X91724166Y15423205D01*
X91734427Y15418234D01*
X91779179Y15398607D01*
X91816812Y15387131D01*
X91857392Y15381725D01*
X91910987Y15380310D01*
X91918034Y15380309D01*
X92008009Y15387398D01*
X92086250Y15410230D01*
X92159871Y15451519D01*
X92212171Y15492604D01*
X92279306Y15539690D01*
X92344185Y15562878D01*
X92406451Y15562146D01*
X92465744Y15537474D01*
X92501671Y15509388D01*
X92544800Y15456084D01*
X92564539Y15399578D01*
X92561370Y15340842D01*
X92535776Y15280852D01*
X92488242Y15220580D01*
X92419249Y15161000D01*
X92329281Y15103086D01*
X92289382Y15081558D01*
X92183278Y15038626D01*
X92064408Y15010662D01*
X91939592Y14998359D01*
X91815650Y15002408D01*
X91704421Y15022166D01*
X91570200Y15069337D01*
X91449088Y15136428D01*
X91342398Y15222188D01*
X91251443Y15325366D01*
X91177536Y15444709D01*
X91122728Y15576706D01*
X91087929Y15682872D01*
X91087929Y16482681D01*
X91087929Y16670515D01*
X91467734Y16670515D01*
X91918034Y16670515D01*
X92368335Y16670515D01*
X92364303Y16958325D01*
X92360271Y17246135D01*
X92324798Y17318581D01*
X92274770Y17397998D01*
X92208911Y17468740D01*
X92133710Y17524316D01*
X92102666Y17540754D01*
X92065094Y17556785D01*
X92030674Y17566573D01*
X91991134Y17571577D01*
X91938205Y17573256D01*
X91918034Y17573330D01*
X91859347Y17572377D01*
X91816584Y17568547D01*
X91781474Y17560380D01*
X91745746Y17546417D01*
X91733402Y17540754D01*
X91656291Y17493008D01*
X91585942Y17427517D01*
X91528845Y17350770D01*
X91511270Y17318581D01*
X91475798Y17246135D01*
X91471766Y16958325D01*
X91467734Y16670515D01*
X91087929Y16670515D01*
X91087929Y17282490D01*
X91120945Y17379437D01*
X91171296Y17500829D01*
X91236198Y17608080D01*
X91320102Y17708329D01*
X91336355Y17724968D01*
X91424192Y17802386D01*
X91518949Y17863457D01*
X91627191Y17912061D01*
X91687786Y17932703D01*
X91782239Y17953471D01*
X91888553Y17962503D01*
X91997387Y17959799D01*
G37*
G36*
X89049158Y17898892D02*
G01*
X89150179Y17857915D01*
X89235146Y17811572D01*
X89312241Y17754767D01*
X89378331Y17693812D01*
X89466347Y17592730D01*
X89534769Y17483044D01*
X89587452Y17358545D01*
X89588597Y17355200D01*
X89621613Y17258253D01*
X89621613Y16189705D01*
X89621605Y16004440D01*
X89621557Y15841875D01*
X89621436Y15700472D01*
X89621205Y15578694D01*
X89620831Y15475003D01*
X89620278Y15387863D01*
X89619511Y15315735D01*
X89618497Y15257084D01*
X89617198Y15210371D01*
X89615582Y15174059D01*
X89613613Y15146611D01*
X89611256Y15126489D01*
X89608476Y15112158D01*
X89605238Y15102078D01*
X89601509Y15094713D01*
X89597252Y15088525D01*
X89596627Y15087686D01*
X89554874Y15041511D01*
X89510244Y15015195D01*
X89455110Y15004831D01*
X89433779Y15004246D01*
X89373627Y15010286D01*
X89326440Y15031011D01*
X89284588Y15070330D01*
X89270930Y15087672D01*
X89266561Y15093926D01*
X89262721Y15101272D01*
X89259369Y15111259D01*
X89256457Y15125440D01*
X89253943Y15145367D01*
X89251782Y15172590D01*
X89249929Y15208661D01*
X89248340Y15255131D01*
X89246970Y15313552D01*
X89245775Y15385476D01*
X89244711Y15472453D01*
X89243733Y15576035D01*
X89242797Y15697773D01*
X89241858Y15839219D01*
X89240871Y16001925D01*
X89239885Y16171513D01*
X89233826Y17221899D01*
X89198313Y17294344D01*
X89143336Y17380335D01*
X89070499Y17454177D01*
X88985189Y17510485D01*
X88979077Y17513539D01*
X88906632Y17549011D01*
X88618993Y17553041D01*
X88331355Y17557071D01*
X88328154Y16339106D01*
X88327625Y16140531D01*
X88327124Y15964759D01*
X88326618Y15810354D01*
X88326075Y15675882D01*
X88325463Y15559909D01*
X88324750Y15461000D01*
X88323902Y15377721D01*
X88322888Y15308638D01*
X88321675Y15252316D01*
X88320232Y15207320D01*
X88318525Y15172217D01*
X88316523Y15145571D01*
X88314193Y15125948D01*
X88311503Y15111914D01*
X88308420Y15102035D01*
X88304913Y15094875D01*
X88300948Y15089001D01*
X88299967Y15087679D01*
X88271895Y15055974D01*
X88243308Y15030569D01*
X88202652Y15011820D01*
X88150154Y15002694D01*
X88096592Y15004119D01*
X88057748Y15014561D01*
X88013953Y15044182D01*
X87976542Y15086704D01*
X87952748Y15133296D01*
X87949301Y15146993D01*
X87948391Y15164175D01*
X87947579Y15203976D01*
X87946869Y15264776D01*
X87946264Y15344958D01*
X87945771Y15442903D01*
X87945391Y15556992D01*
X87945131Y15685608D01*
X87944993Y15827132D01*
X87944982Y15979945D01*
X87945103Y16142430D01*
X87945359Y16312967D01*
X87945755Y16489939D01*
X87945790Y16503002D01*
X87946345Y16709948D01*
X87946867Y16894034D01*
X87947386Y17056636D01*
X87947931Y17199132D01*
X87948531Y17322898D01*
X87949215Y17429310D01*
X87950012Y17519746D01*
X87950950Y17595582D01*
X87952059Y17658194D01*
X87953369Y17708959D01*
X87954907Y17749254D01*
X87956703Y17780455D01*
X87958787Y17803940D01*
X87961186Y17821084D01*
X87963931Y17833264D01*
X87967050Y17841857D01*
X87970572Y17848240D01*
X87974270Y17853446D01*
X88003130Y17885786D01*
X88032751Y17911894D01*
X88042337Y17918433D01*
X88053438Y17923719D01*
X88068566Y17927887D01*
X88090228Y17931068D01*
X88120936Y17933395D01*
X88163200Y17935001D01*
X88219528Y17936020D01*
X88292432Y17936584D01*
X88384420Y17936826D01*
X88498004Y17936879D01*
X88504616Y17936879D01*
X88942987Y17936879D01*
X89049158Y17898892D01*
G37*
G36*
X95734864Y19251737D02*
G01*
X95782051Y19231012D01*
X95823903Y19191695D01*
X95837562Y19174351D01*
X95843241Y19166086D01*
X95848003Y19156404D01*
X95851944Y19143198D01*
X95855158Y19124363D01*
X95857739Y19097793D01*
X95859783Y19061381D01*
X95861383Y19013022D01*
X95862635Y18950609D01*
X95863632Y18872036D01*
X95864469Y18775198D01*
X95865242Y18657988D01*
X95865905Y18542984D01*
X95869263Y17945071D01*
X96174923Y17940247D01*
X96269783Y17938642D01*
X96344152Y17936953D01*
X96401772Y17934835D01*
X96446388Y17931944D01*
X96481743Y17927933D01*
X96511581Y17922459D01*
X96539645Y17915175D01*
X96569679Y17905737D01*
X96577529Y17903136D01*
X96703757Y17850913D01*
X96815205Y17782180D01*
X96916656Y17694327D01*
X97004225Y17593243D01*
X97072650Y17482787D01*
X97125535Y17357124D01*
X97126193Y17355200D01*
X97159208Y17258253D01*
X97159208Y16189705D01*
X97159200Y16004440D01*
X97159153Y15841875D01*
X97159031Y15700472D01*
X97158801Y15578694D01*
X97158426Y15475003D01*
X97157873Y15387863D01*
X97157107Y15315735D01*
X97156092Y15257084D01*
X97154794Y15210371D01*
X97153177Y15174059D01*
X97151208Y15146611D01*
X97148851Y15126489D01*
X97146071Y15112158D01*
X97142834Y15102078D01*
X97139104Y15094713D01*
X97134847Y15088525D01*
X97134223Y15087686D01*
X97092470Y15041511D01*
X97047839Y15015195D01*
X96992705Y15004831D01*
X96971374Y15004246D01*
X96911223Y15010286D01*
X96864035Y15031011D01*
X96822183Y15070330D01*
X96808525Y15087672D01*
X96804156Y15093926D01*
X96800317Y15101272D01*
X96796964Y15111259D01*
X96794053Y15125440D01*
X96791539Y15145367D01*
X96789377Y15172590D01*
X96787524Y15208661D01*
X96785935Y15255131D01*
X96784565Y15313552D01*
X96783371Y15385476D01*
X96782306Y15472453D01*
X96781328Y15576035D01*
X96780392Y15697773D01*
X96779453Y15839219D01*
X96778467Y16001925D01*
X96777481Y16171513D01*
X96771422Y17221899D01*
X96735908Y17294344D01*
X96680931Y17380335D01*
X96608094Y17454177D01*
X96522785Y17510485D01*
X96516673Y17513539D01*
X96444227Y17549011D01*
X96156589Y17553041D01*
X95868950Y17557071D01*
X95865749Y16339106D01*
X95865220Y16140531D01*
X95864719Y15964759D01*
X95864214Y15810354D01*
X95863671Y15675882D01*
X95863059Y15559909D01*
X95862345Y15461000D01*
X95861497Y15377721D01*
X95860483Y15308638D01*
X95859271Y15252316D01*
X95857827Y15207320D01*
X95856120Y15172217D01*
X95854118Y15145571D01*
X95851788Y15125948D01*
X95849098Y15111914D01*
X95846016Y15102035D01*
X95842508Y15094875D01*
X95838544Y15089001D01*
X95837562Y15087679D01*
X95809491Y15055974D01*
X95780903Y15030569D01*
X95740248Y15011820D01*
X95687749Y15002694D01*
X95634187Y15004119D01*
X95595344Y15014561D01*
X95551557Y15044173D01*
X95514159Y15086677D01*
X95490377Y15133248D01*
X95486923Y15146993D01*
X95486177Y15163242D01*
X95485495Y15202424D01*
X95484879Y15263235D01*
X95484331Y15344372D01*
X95483855Y15444531D01*
X95483451Y15562407D01*
X95483123Y15696698D01*
X95482873Y15846099D01*
X95482703Y16009307D01*
X95482615Y16185018D01*
X95482611Y16371929D01*
X95482694Y16568736D01*
X95482866Y16774134D01*
X95483130Y16986821D01*
X95483412Y17163449D01*
X95483863Y17419640D01*
X95484289Y17652709D01*
X95484703Y17863769D01*
X95485123Y18053934D01*
X95485563Y18224319D01*
X95486041Y18376037D01*
X95486570Y18510202D01*
X95487167Y18627929D01*
X95487849Y18730331D01*
X95488630Y18818522D01*
X95489526Y18893616D01*
X95490554Y18956728D01*
X95491729Y19008971D01*
X95493066Y19051459D01*
X95494581Y19085306D01*
X95496291Y19111626D01*
X95498211Y19131534D01*
X95500357Y19146142D01*
X95502744Y19156566D01*
X95505388Y19163919D01*
X95508306Y19169315D01*
X95511512Y19173868D01*
X95511865Y19174342D01*
X95553620Y19220514D01*
X95598249Y19246828D01*
X95653379Y19257191D01*
X95674714Y19257776D01*
X95734864Y19251737D01*
G37*
G36*
X100509924Y17960476D02*
G01*
X100573879Y17959558D01*
X100621639Y17956618D01*
X100661231Y17950347D01*
X100700686Y17939436D01*
X100748033Y17922578D01*
X100752290Y17920975D01*
X100871959Y17865308D01*
X100980146Y17793980D01*
X101073143Y17709961D01*
X101147242Y17616219D01*
X101161323Y17593422D01*
X101188183Y17527723D01*
X101193333Y17463043D01*
X101177747Y17403279D01*
X101142401Y17352324D01*
X101091788Y17315815D01*
X101024946Y17293657D01*
X100960536Y17294370D01*
X100901992Y17316989D01*
X100852749Y17360548D01*
X100833554Y17388391D01*
X100777319Y17464036D01*
X100708749Y17519341D01*
X100626860Y17554846D01*
X100530669Y17571089D01*
X100497805Y17572297D01*
X100415141Y17567860D01*
X100347490Y17550913D01*
X100287639Y17518613D01*
X100228375Y17468111D01*
X100224824Y17464584D01*
X100167794Y17392188D01*
X100130141Y17310987D01*
X100112099Y17225032D01*
X100113901Y17138375D01*
X100135779Y17055068D01*
X100177964Y16979164D01*
X100195708Y16957193D01*
X100219191Y16935009D01*
X100260389Y16901084D01*
X100316920Y16857219D01*
X100386404Y16805220D01*
X100466455Y16746889D01*
X100554694Y16684030D01*
X100580700Y16665754D01*
X100663818Y16606944D01*
X100743327Y16549616D01*
X100816299Y16495962D01*
X100879805Y16448172D01*
X100930917Y16408440D01*
X100966707Y16378958D01*
X100979422Y16367286D01*
X101063237Y16269982D01*
X101127908Y16163429D01*
X101169351Y16065134D01*
X101184543Y16020526D01*
X101194889Y15983131D01*
X101201321Y15946233D01*
X101204772Y15903115D01*
X101206174Y15847061D01*
X101206432Y15797996D01*
X101203355Y15692771D01*
X101192540Y15604502D01*
X101172241Y15526657D01*
X101140712Y15452708D01*
X101096208Y15376125D01*
X101091781Y15369302D01*
X101007717Y15261385D01*
X100908931Y15170434D01*
X100798151Y15097533D01*
X100678100Y15043769D01*
X100551505Y15010228D01*
X100421091Y14997997D01*
X100289582Y15008161D01*
X100221865Y15022606D01*
X100099443Y15065861D01*
X99984130Y15128305D01*
X99880391Y15206811D01*
X99792689Y15298252D01*
X99755073Y15349618D01*
X99718033Y15421367D01*
X99702328Y15489606D01*
X99707257Y15551786D01*
X99732120Y15605360D01*
X99776218Y15647779D01*
X99838850Y15676496D01*
X99845396Y15678328D01*
X99912512Y15686216D01*
X99971327Y15671415D01*
X100023002Y15633543D01*
X100039970Y15614326D01*
X100092247Y15551118D01*
X100135455Y15504199D01*
X100173842Y15469611D01*
X100211656Y15443392D01*
X100239800Y15428028D01*
X100278040Y15410464D01*
X100312049Y15399860D01*
X100350543Y15394488D01*
X100402240Y15392621D01*
X100419036Y15392496D01*
X100475008Y15393176D01*
X100515296Y15396880D01*
X100548414Y15405249D01*
X100582875Y15419926D01*
X100596633Y15426758D01*
X100675680Y15478469D01*
X100743569Y15545742D01*
X100790657Y15616221D01*
X100803875Y15645002D01*
X100812268Y15674177D01*
X100816871Y15710404D01*
X100818721Y15760342D01*
X100818941Y15797996D01*
X100818438Y15856669D01*
X100816073Y15897991D01*
X100810557Y15928841D01*
X100800603Y15956099D01*
X100784923Y15986644D01*
X100782972Y15990178D01*
X100770672Y16011696D01*
X100758006Y16031203D01*
X100743007Y16050313D01*
X100723708Y16070641D01*
X100698140Y16093801D01*
X100664338Y16121408D01*
X100620332Y16155076D01*
X100564155Y16196420D01*
X100493841Y16247054D01*
X100407421Y16308592D01*
X100315685Y16373616D01*
X100218091Y16443437D01*
X100130611Y16507434D01*
X100055216Y16564098D01*
X99993877Y16611921D01*
X99948565Y16649395D01*
X99921251Y16675011D01*
X99919840Y16676574D01*
X99845757Y16776977D01*
X99786121Y16892849D01*
X99756719Y16973473D01*
X99736402Y17065770D01*
X99727360Y17168685D01*
X99729626Y17273162D01*
X99743230Y17370144D01*
X99755169Y17415792D01*
X99806363Y17538195D01*
X99877896Y17650208D01*
X99967166Y17749266D01*
X100071575Y17832806D01*
X100188523Y17898265D01*
X100279676Y17932961D01*
X100329104Y17946560D01*
X100376420Y17955019D01*
X100429966Y17959337D01*
X100498086Y17960509D01*
X100509924Y17960476D01*
G37*
G36*
X99330300Y17943328D02*
G01*
X99381428Y17910728D01*
X99419637Y17864025D01*
X99440714Y17806392D01*
X99443511Y17774727D01*
X99440110Y17760141D01*
X99430211Y17723887D01*
X99414274Y17667515D01*
X99392759Y17592573D01*
X99366124Y17500611D01*
X99334830Y17393178D01*
X99299336Y17271824D01*
X99260100Y17138097D01*
X99217583Y16993546D01*
X99172243Y16839721D01*
X99124541Y16678171D01*
X99074935Y16510445D01*
X99023884Y16338092D01*
X98971849Y16162661D01*
X98919288Y15985702D01*
X98866662Y15808763D01*
X98814428Y15633395D01*
X98763047Y15461145D01*
X98712978Y15293564D01*
X98664680Y15132200D01*
X98618613Y14978603D01*
X98575236Y14834321D01*
X98535009Y14700904D01*
X98498390Y14579901D01*
X98465839Y14472861D01*
X98437816Y14381334D01*
X98424367Y14337738D01*
X98387143Y14230108D01*
X98346728Y14140726D01*
X98299723Y14063609D01*
X98242729Y13992768D01*
X98207602Y13956011D01*
X98096614Y13861292D01*
X97976017Y13788288D01*
X97847033Y13737564D01*
X97710887Y13709689D01*
X97668177Y13705824D01*
X97616292Y13703455D01*
X97580044Y13705233D01*
X97551012Y13712389D01*
X97520771Y13726152D01*
X97517595Y13727814D01*
X97464873Y13767898D01*
X97432043Y13821594D01*
X97419818Y13887693D01*
X97419752Y13893399D01*
X97427824Y13959445D01*
X97452907Y14011102D01*
X97496297Y14049529D01*
X97559293Y14075884D01*
X97641366Y14091121D01*
X97750763Y14113264D01*
X97843984Y14153432D01*
X97921111Y14211678D01*
X97982228Y14288055D01*
X97998037Y14315610D01*
X98012275Y14347683D01*
X98031144Y14397830D01*
X98053664Y14462763D01*
X98078856Y14539190D01*
X98105740Y14623822D01*
X98133336Y14713369D01*
X98160665Y14804541D01*
X98186748Y14894048D01*
X98210604Y14978599D01*
X98231254Y15054905D01*
X98247719Y15119675D01*
X98259018Y15169621D01*
X98264174Y15201450D01*
X98264162Y15209423D01*
X98259866Y15225976D01*
X98249067Y15264148D01*
X98232235Y15322348D01*
X98209842Y15398983D01*
X98182357Y15492462D01*
X98150252Y15601193D01*
X98113998Y15723582D01*
X98074064Y15858039D01*
X98030922Y16002972D01*
X97985043Y16156787D01*
X97936897Y16317894D01*
X97898452Y16446326D01*
X97848664Y16612611D01*
X97800608Y16773262D01*
X97754771Y16926643D01*
X97711640Y17071117D01*
X97671702Y17205049D01*
X97635444Y17326802D01*
X97603353Y17434739D01*
X97575916Y17527225D01*
X97553621Y17602622D01*
X97536953Y17659296D01*
X97526401Y17695608D01*
X97522806Y17708445D01*
X97513826Y17780643D01*
X97527148Y17843651D01*
X97562936Y17898149D01*
X97570905Y17906268D01*
X97622729Y17941554D01*
X97681385Y17957602D01*
X97741455Y17955199D01*
X97797522Y17935132D01*
X97844168Y17898190D01*
X97868130Y17863072D01*
X97874300Y17846194D01*
X97886798Y17807853D01*
X97905082Y17749829D01*
X97928610Y17673900D01*
X97956839Y17581847D01*
X97989227Y17475449D01*
X98025231Y17356485D01*
X98064310Y17226735D01*
X98105920Y17087977D01*
X98149520Y16941993D01*
X98177147Y16849191D01*
X98221382Y16700655D01*
X98263711Y16558978D01*
X98303619Y16425856D01*
X98340591Y16302984D01*
X98374113Y16192058D01*
X98403670Y16094774D01*
X98428747Y16012828D01*
X98448829Y15947916D01*
X98463403Y15901733D01*
X98471953Y15875974D01*
X98474046Y15870986D01*
X98478398Y15882296D01*
X98489170Y15915081D01*
X98505824Y15967600D01*
X98527825Y16038110D01*
X98554638Y16124869D01*
X98585726Y16226136D01*
X98620554Y16340168D01*
X98658586Y16465224D01*
X98699287Y16599562D01*
X98742119Y16741439D01*
X98758203Y16794841D01*
X98802276Y16941249D01*
X98844771Y17082398D01*
X98885106Y17216352D01*
X98922698Y17341176D01*
X98956963Y17454933D01*
X98987318Y17555688D01*
X99013181Y17641505D01*
X99033968Y17710450D01*
X99049096Y17760585D01*
X99057982Y17789977D01*
X99059247Y17794142D01*
X99089911Y17865710D01*
X99132481Y17916674D01*
X99187881Y17948038D01*
X99206140Y17953525D01*
X99270466Y17958652D01*
X99330300Y17943328D01*
G37*
G36*
X84722917Y17898892D02*
G01*
X84823939Y17857915D01*
X84908906Y17811572D01*
X84986001Y17754767D01*
X85052090Y17693812D01*
X85140107Y17592730D01*
X85208528Y17483044D01*
X85261212Y17358545D01*
X85262357Y17355200D01*
X85295372Y17258253D01*
X85295372Y16482681D01*
X85295372Y15707108D01*
X85262357Y15610162D01*
X85210016Y15485215D01*
X85142034Y15375235D01*
X85054553Y15274014D01*
X85052090Y15271550D01*
X84974445Y15201064D01*
X84896000Y15145784D01*
X84808479Y15100568D01*
X84722917Y15066961D01*
X84689863Y15055449D01*
X84661441Y15046526D01*
X84633895Y15039807D01*
X84603470Y15034907D01*
X84566409Y15031440D01*
X84518956Y15029021D01*
X84457355Y15027266D01*
X84377851Y15025789D01*
X84311086Y15024738D01*
X84005427Y15020013D01*
X84002069Y14422239D01*
X84001279Y14286422D01*
X84000502Y14172734D01*
X83999644Y14079071D01*
X83998612Y14003325D01*
X83997309Y13943390D01*
X83995641Y13897160D01*
X83993515Y13862528D01*
X83990835Y13837389D01*
X83987506Y13819635D01*
X83983435Y13807160D01*
X83978526Y13797859D01*
X83973726Y13791011D01*
X83945652Y13759308D01*
X83917067Y13733908D01*
X83876412Y13715160D01*
X83823913Y13706034D01*
X83770352Y13707459D01*
X83731508Y13717901D01*
X83687721Y13747513D01*
X83650323Y13790017D01*
X83626541Y13836588D01*
X83623087Y13850333D01*
X83622339Y13866595D01*
X83621654Y13905785D01*
X83621037Y13966596D01*
X83620489Y14047721D01*
X83620012Y14147849D01*
X83619608Y14265675D01*
X83619281Y14399890D01*
X83619032Y14549186D01*
X83618863Y14712255D01*
X83618777Y14887789D01*
X83618776Y15074480D01*
X83618863Y15271021D01*
X83619039Y15476103D01*
X83619307Y15688418D01*
X83619575Y15854671D01*
X83620029Y16110040D01*
X83620455Y16342290D01*
X83620733Y16482681D01*
X84004771Y16482681D01*
X84004771Y15410210D01*
X84264235Y15410210D01*
X84355010Y15410514D01*
X84425518Y15411605D01*
X84479724Y15413751D01*
X84521593Y15417220D01*
X84555089Y15422280D01*
X84584177Y15429198D01*
X84595662Y15432607D01*
X84691140Y15473699D01*
X84771679Y15533278D01*
X84838264Y15612224D01*
X84881677Y15688931D01*
X84887011Y15700612D01*
X84891558Y15712738D01*
X84895380Y15727235D01*
X84898541Y15746029D01*
X84901103Y15771047D01*
X84903129Y15804214D01*
X84904681Y15847457D01*
X84905824Y15902701D01*
X84906619Y15971873D01*
X84907130Y16056898D01*
X84907419Y16159703D01*
X84907550Y16282213D01*
X84907585Y16426355D01*
X84907586Y16482681D01*
X84907570Y16634907D01*
X84907480Y16764823D01*
X84907254Y16874354D01*
X84906829Y16965427D01*
X84906141Y17039967D01*
X84905128Y17099900D01*
X84903727Y17147154D01*
X84901875Y17183653D01*
X84899509Y17211323D01*
X84896567Y17232092D01*
X84892985Y17247884D01*
X84888700Y17260626D01*
X84883651Y17272244D01*
X84881677Y17276431D01*
X84825429Y17371314D01*
X84756004Y17446132D01*
X84672418Y17501767D01*
X84595662Y17532755D01*
X84567232Y17540507D01*
X84536008Y17546290D01*
X84498025Y17550374D01*
X84449317Y17553026D01*
X84385921Y17554514D01*
X84303871Y17555106D01*
X84264235Y17555152D01*
X84004771Y17555152D01*
X84004771Y16482681D01*
X83620733Y16482681D01*
X83620871Y16552538D01*
X83621292Y16741903D01*
X83621735Y16911501D01*
X83622214Y17062450D01*
X83622747Y17195868D01*
X83623348Y17312872D01*
X83624034Y17414579D01*
X83624821Y17502108D01*
X83625464Y17555152D01*
X83625724Y17576575D01*
X83626760Y17639098D01*
X83627945Y17690796D01*
X83629293Y17732784D01*
X83630822Y17766182D01*
X83632548Y17792106D01*
X83634485Y17811673D01*
X83636650Y17826002D01*
X83639059Y17836210D01*
X83641728Y17843415D01*
X83644673Y17848733D01*
X83647909Y17853283D01*
X83648029Y17853445D01*
X83676890Y17885786D01*
X83706510Y17911894D01*
X83716096Y17918433D01*
X83727198Y17923719D01*
X83742325Y17927887D01*
X83763988Y17931068D01*
X83794696Y17933395D01*
X83836959Y17935001D01*
X83893288Y17936020D01*
X83966191Y17936584D01*
X84058180Y17936826D01*
X84171763Y17936879D01*
X84178376Y17936879D01*
X84616746Y17936879D01*
X84722917Y17898892D01*
G37*
G36*
X94369101Y17898892D02*
G01*
X94470122Y17857915D01*
X94555089Y17811572D01*
X94632184Y17754767D01*
X94698273Y17693812D01*
X94786290Y17592730D01*
X94854712Y17483044D01*
X94907395Y17358545D01*
X94908540Y17355200D01*
X94941555Y17258253D01*
X94941555Y16482681D01*
X94941555Y15707108D01*
X94908540Y15610162D01*
X94856200Y15485215D01*
X94788217Y15375235D01*
X94700736Y15274014D01*
X94698273Y15271550D01*
X94620628Y15201064D01*
X94542183Y15145784D01*
X94454662Y15100568D01*
X94369101Y15066961D01*
X94336046Y15055449D01*
X94307624Y15046526D01*
X94280079Y15039807D01*
X94249653Y15034907D01*
X94212592Y15031440D01*
X94165139Y15029021D01*
X94103538Y15027266D01*
X94024034Y15025789D01*
X93957270Y15024738D01*
X93651610Y15020013D01*
X93648253Y14422239D01*
X93647462Y14286422D01*
X93646685Y14172734D01*
X93645828Y14079071D01*
X93644795Y14003325D01*
X93643492Y13943390D01*
X93641824Y13897160D01*
X93639698Y13862528D01*
X93637018Y13837389D01*
X93633689Y13819635D01*
X93629618Y13807160D01*
X93624709Y13797859D01*
X93619910Y13791011D01*
X93591835Y13759308D01*
X93563250Y13733908D01*
X93522595Y13715160D01*
X93470096Y13706034D01*
X93416535Y13707459D01*
X93377691Y13717901D01*
X93333904Y13747513D01*
X93296506Y13790017D01*
X93272724Y13836588D01*
X93269270Y13850333D01*
X93268522Y13866595D01*
X93267838Y13905785D01*
X93267220Y13966596D01*
X93266672Y14047721D01*
X93266195Y14147849D01*
X93265791Y14265675D01*
X93265464Y14399890D01*
X93265215Y14549186D01*
X93265046Y14712255D01*
X93264960Y14887789D01*
X93264959Y15074480D01*
X93265046Y15271021D01*
X93265222Y15476103D01*
X93265490Y15688418D01*
X93265759Y15854671D01*
X93266212Y16110040D01*
X93266638Y16342290D01*
X93266916Y16482681D01*
X93650954Y16482681D01*
X93650954Y15410210D01*
X93910418Y15410210D01*
X94001193Y15410514D01*
X94071701Y15411605D01*
X94125907Y15413751D01*
X94167776Y15417220D01*
X94201272Y15422280D01*
X94230360Y15429198D01*
X94241845Y15432607D01*
X94337323Y15473699D01*
X94417862Y15533278D01*
X94484447Y15612224D01*
X94527860Y15688931D01*
X94533194Y15700612D01*
X94537741Y15712738D01*
X94541563Y15727235D01*
X94544724Y15746029D01*
X94547286Y15771047D01*
X94549312Y15804214D01*
X94550865Y15847457D01*
X94552007Y15902701D01*
X94552803Y15971873D01*
X94553313Y16056898D01*
X94553603Y16159703D01*
X94553733Y16282213D01*
X94553768Y16426355D01*
X94553769Y16482681D01*
X94553753Y16634907D01*
X94553664Y16764823D01*
X94553437Y16874354D01*
X94553012Y16965427D01*
X94552324Y17039967D01*
X94551311Y17099900D01*
X94549910Y17147154D01*
X94548058Y17183653D01*
X94545692Y17211323D01*
X94542750Y17232092D01*
X94539168Y17247884D01*
X94534884Y17260626D01*
X94529834Y17272244D01*
X94527860Y17276431D01*
X94471613Y17371314D01*
X94402187Y17446132D01*
X94318601Y17501767D01*
X94241845Y17532755D01*
X94213416Y17540507D01*
X94182192Y17546290D01*
X94144208Y17550374D01*
X94095500Y17553026D01*
X94032104Y17554514D01*
X93950054Y17555106D01*
X93910418Y17555152D01*
X93650954Y17555152D01*
X93650954Y16482681D01*
X93266916Y16482681D01*
X93267054Y16552538D01*
X93267476Y16741903D01*
X93267918Y16911501D01*
X93268397Y17062450D01*
X93268930Y17195868D01*
X93269531Y17312872D01*
X93270217Y17414579D01*
X93271004Y17502108D01*
X93271647Y17555152D01*
X93271907Y17576575D01*
X93272943Y17639098D01*
X93274128Y17690796D01*
X93275477Y17732784D01*
X93277006Y17766182D01*
X93278731Y17792106D01*
X93280668Y17811673D01*
X93282833Y17826002D01*
X93285242Y17836210D01*
X93287911Y17843415D01*
X93290856Y17848733D01*
X93294092Y17853283D01*
X93294212Y17853445D01*
X93323073Y17885786D01*
X93352693Y17911894D01*
X93362279Y17918433D01*
X93373381Y17923719D01*
X93388508Y17927887D01*
X93410171Y17931068D01*
X93440879Y17933395D01*
X93483143Y17935001D01*
X93539471Y17936020D01*
X93612375Y17936584D01*
X93704363Y17936826D01*
X93817946Y17936879D01*
X93824559Y17936879D01*
X94262929Y17936879D01*
X94369101Y17898892D01*
G37*
G36*
X91778670Y26488825D02*
G01*
X91860789Y26459440D01*
X91871954Y26453587D01*
X91926138Y26416564D01*
X91968853Y26368680D01*
X92004327Y26304577D01*
X92020437Y26265386D01*
X92027567Y26247333D01*
X92043295Y26208073D01*
X92067113Y26148859D01*
X92098513Y26070945D01*
X92136988Y25975585D01*
X92182030Y25864033D01*
X92233132Y25737542D01*
X92289784Y25597367D01*
X92351481Y25444761D01*
X92417714Y25280978D01*
X92487975Y25107271D01*
X92561757Y24924896D01*
X92638552Y24735104D01*
X92717853Y24539151D01*
X92799151Y24338289D01*
X92881939Y24133774D01*
X92965710Y23926858D01*
X93049955Y23718795D01*
X93134168Y23510839D01*
X93217839Y23304244D01*
X93300463Y23100264D01*
X93381530Y22900152D01*
X93460533Y22705163D01*
X93536965Y22516550D01*
X93610318Y22335567D01*
X93680084Y22163467D01*
X93745755Y22001505D01*
X93806824Y21850934D01*
X93862783Y21713009D01*
X93913125Y21588982D01*
X93957341Y21480108D01*
X93994925Y21387640D01*
X94025367Y21312833D01*
X94048162Y21256940D01*
X94062800Y21221214D01*
X94067944Y21208826D01*
X94093334Y21126053D01*
X94096526Y21045967D01*
X94077752Y20962068D01*
X94076799Y20959268D01*
X94070889Y20940332D01*
X94058808Y20900155D01*
X94041151Y20840770D01*
X94018510Y20764209D01*
X93991481Y20672505D01*
X93960656Y20567690D01*
X93926630Y20451797D01*
X93889997Y20326859D01*
X93851349Y20194908D01*
X93811282Y20057977D01*
X93770388Y19918098D01*
X93729263Y19777304D01*
X93688498Y19637627D01*
X93648689Y19501101D01*
X93610430Y19369757D01*
X93574313Y19245629D01*
X93540933Y19130748D01*
X93510883Y19027148D01*
X93484758Y18936861D01*
X93463152Y18861920D01*
X93446657Y18804357D01*
X93435869Y18766204D01*
X93432465Y18753792D01*
X93402836Y18686996D01*
X93354641Y18629759D01*
X93292533Y18584691D01*
X93221167Y18554404D01*
X93145195Y18541507D01*
X93069271Y18548610D01*
X93067470Y18549052D01*
X93026614Y18562334D01*
X92983247Y18580753D01*
X92976582Y18584072D01*
X92961782Y18590572D01*
X92925448Y18605981D01*
X92868442Y18629942D01*
X92791624Y18662098D01*
X92695857Y18702089D01*
X92582001Y18749559D01*
X92450918Y18804150D01*
X92303469Y18865503D01*
X92140515Y18933262D01*
X91962917Y19007068D01*
X91771537Y19086564D01*
X91567236Y19171391D01*
X91350875Y19261193D01*
X91123315Y19355610D01*
X90885418Y19454286D01*
X90638045Y19556863D01*
X90382057Y19662983D01*
X90118316Y19772287D01*
X89847682Y19884419D01*
X89571017Y19999021D01*
X89415601Y20063385D01*
X89136004Y20179172D01*
X88861973Y20292659D01*
X88594368Y20403490D01*
X88334048Y20511307D01*
X88081876Y20615754D01*
X87838711Y20716476D01*
X87605414Y20813114D01*
X87382845Y20905313D01*
X87171865Y20992717D01*
X86973334Y21074968D01*
X86788113Y21151710D01*
X86617063Y21222587D01*
X86461043Y21287242D01*
X86384893Y21318802D01*
X87970419Y21318802D01*
X87981044Y21313912D01*
X88012748Y21300309D01*
X88064213Y21278541D01*
X88134121Y21249153D01*
X88221152Y21212694D01*
X88323989Y21169709D01*
X88441313Y21120747D01*
X88571805Y21066352D01*
X88714147Y21007073D01*
X88867020Y20943456D01*
X89029106Y20876048D01*
X89199085Y20805396D01*
X89375640Y20732046D01*
X89557452Y20656546D01*
X89743202Y20579441D01*
X89931571Y20501280D01*
X90121242Y20422609D01*
X90310896Y20343974D01*
X90499213Y20265923D01*
X90684876Y20189002D01*
X90866566Y20113758D01*
X91042964Y20040738D01*
X91212751Y19970488D01*
X91374610Y19903557D01*
X91527222Y19840489D01*
X91669267Y19781833D01*
X91799428Y19728135D01*
X91916386Y19679942D01*
X92018822Y19637800D01*
X92105418Y19602257D01*
X92174855Y19573859D01*
X92225815Y19553153D01*
X92256978Y19540686D01*
X92267043Y19536967D01*
X92260729Y19546992D01*
X92241318Y19575141D01*
X92209900Y19619887D01*
X92167561Y19679700D01*
X92115392Y19753053D01*
X92054480Y19838419D01*
X91985915Y19934270D01*
X91910785Y20039077D01*
X91830178Y20151314D01*
X91745184Y20269451D01*
X91740840Y20275484D01*
X91655323Y20394054D01*
X91573741Y20506822D01*
X91497220Y20612250D01*
X91426888Y20708800D01*
X91363873Y20794935D01*
X91309303Y20869118D01*
X91264306Y20929811D01*
X91261607Y20933404D01*
X92020300Y20933404D01*
X92025764Y20922542D01*
X92043999Y20894197D01*
X92073531Y20850497D01*
X92112885Y20793567D01*
X92160588Y20725535D01*
X92215165Y20648527D01*
X92275144Y20564669D01*
X92294794Y20537351D01*
X92356374Y20452074D01*
X92413473Y20373427D01*
X92464566Y20303478D01*
X92508128Y20244298D01*
X92542633Y20197954D01*
X92566555Y20166518D01*
X92578369Y20152057D01*
X92579341Y20151351D01*
X92578056Y20163727D01*
X92572614Y20196980D01*
X92563542Y20248210D01*
X92551371Y20314514D01*
X92536627Y20392990D01*
X92519840Y20480737D01*
X92511679Y20522887D01*
X92493848Y20614003D01*
X92477318Y20697222D01*
X92462690Y20769625D01*
X92450562Y20828293D01*
X92449269Y20834311D01*
X93072447Y20834311D01*
X93072893Y20821269D01*
X93077481Y20788278D01*
X93085517Y20738975D01*
X93096309Y20676995D01*
X93109164Y20605972D01*
X93123388Y20529542D01*
X93138288Y20451341D01*
X93153172Y20375003D01*
X93167347Y20304165D01*
X93180118Y20242460D01*
X93190793Y20193526D01*
X93198680Y20160996D01*
X93203084Y20148506D01*
X93203207Y20148473D01*
X93208400Y20159631D01*
X93219303Y20191120D01*
X93234981Y20239964D01*
X93254502Y20303184D01*
X93276932Y20377804D01*
X93301337Y20460846D01*
X93303579Y20468562D01*
X93327923Y20552845D01*
X93349883Y20629639D01*
X93368588Y20695834D01*
X93383165Y20748318D01*
X93392744Y20783982D01*
X93396452Y20799717D01*
X93396469Y20799995D01*
X93385278Y20804742D01*
X93355297Y20810567D01*
X93311917Y20816900D01*
X93260531Y20823170D01*
X93206528Y20828806D01*
X93155301Y20833237D01*
X93112239Y20835893D01*
X93082735Y20836201D01*
X93072447Y20834311D01*
X92449269Y20834311D01*
X92441534Y20870306D01*
X92436203Y20892747D01*
X92435172Y20895680D01*
X92421490Y20898958D01*
X92388662Y20903519D01*
X92341549Y20908922D01*
X92285015Y20914725D01*
X92223921Y20920484D01*
X92163129Y20925759D01*
X92107500Y20930107D01*
X92061898Y20933085D01*
X92031182Y20934253D01*
X92020300Y20933404D01*
X91261607Y20933404D01*
X91230008Y20975477D01*
X91207539Y21004578D01*
X91198025Y21015576D01*
X91197937Y21015616D01*
X91184332Y21017331D01*
X91148410Y21021110D01*
X91091877Y21026794D01*
X91016438Y21034221D01*
X90923802Y21043232D01*
X90815673Y21053665D01*
X90693759Y21065362D01*
X90559765Y21078162D01*
X90415398Y21091903D01*
X90262366Y21106427D01*
X90102373Y21121572D01*
X89937126Y21137179D01*
X89768332Y21153087D01*
X89597697Y21169136D01*
X89426927Y21185165D01*
X89257729Y21201014D01*
X89091810Y21216524D01*
X88930875Y21231533D01*
X88776631Y21245881D01*
X88630784Y21259408D01*
X88495042Y21271955D01*
X88371109Y21283359D01*
X88260693Y21293462D01*
X88165499Y21302103D01*
X88087235Y21309121D01*
X88027607Y21314356D01*
X87988320Y21317649D01*
X87971082Y21318838D01*
X87970419Y21318802D01*
X86384893Y21318802D01*
X86320914Y21345318D01*
X86197537Y21396460D01*
X86091773Y21440310D01*
X86004481Y21476512D01*
X85936522Y21504710D01*
X85888757Y21524547D01*
X85862046Y21535666D01*
X85856620Y21537945D01*
X85788230Y21579802D01*
X85735366Y21637677D01*
X85699773Y21707650D01*
X85683197Y21785801D01*
X85687384Y21868212D01*
X85695050Y21900759D01*
X85705885Y21933684D01*
X85719281Y21961287D01*
X85739020Y21988693D01*
X85768883Y22021026D01*
X85801531Y22052640D01*
X86701665Y22052640D01*
X86701668Y22052498D01*
X86714249Y22050656D01*
X86749701Y22046662D01*
X86806763Y22040642D01*
X86884177Y22032717D01*
X86980683Y22023012D01*
X87095022Y22011649D01*
X87225934Y21998752D01*
X87372159Y21984444D01*
X87532439Y21968848D01*
X87705514Y21952088D01*
X87890124Y21934286D01*
X88085010Y21915566D01*
X88288913Y21896051D01*
X88500573Y21875865D01*
X88710258Y21855935D01*
X88928246Y21835247D01*
X89139726Y21815172D01*
X89343436Y21795830D01*
X89538112Y21777342D01*
X89722494Y21759826D01*
X89895318Y21743404D01*
X90055323Y21728196D01*
X90201246Y21714320D01*
X90331825Y21701898D01*
X90445797Y21691049D01*
X90541901Y21681894D01*
X90618874Y21674552D01*
X90675454Y21669143D01*
X90710379Y21665788D01*
X90722360Y21664610D01*
X90729167Y21671643D01*
X90728419Y21675208D01*
X90720953Y21686386D01*
X90700185Y21716006D01*
X90666989Y21762848D01*
X90622237Y21825695D01*
X90566803Y21903327D01*
X90501557Y21994527D01*
X90427375Y22098076D01*
X90345127Y22212755D01*
X90255688Y22337347D01*
X90159929Y22470631D01*
X90058725Y22611391D01*
X89952946Y22758407D01*
X89876097Y22865151D01*
X89766905Y23016789D01*
X89661173Y23163628D01*
X89629631Y23207436D01*
X90381037Y23207436D01*
X90383041Y23200986D01*
X90397572Y23177591D01*
X90422856Y23139873D01*
X90457116Y23090453D01*
X90498578Y23031954D01*
X90521078Y23000641D01*
X90557784Y22949731D01*
X90606722Y22881787D01*
X90665982Y22799462D01*
X90733657Y22705407D01*
X90807839Y22602275D01*
X90886621Y22492718D01*
X90968095Y22379388D01*
X91050353Y22264936D01*
X91099550Y22196469D01*
X91175630Y22090608D01*
X91247558Y21990579D01*
X91314080Y21898122D01*
X91373943Y21814978D01*
X91425892Y21742885D01*
X91468674Y21683584D01*
X91501035Y21638816D01*
X91521721Y21610319D01*
X91529437Y21599881D01*
X91542444Y21597001D01*
X91576042Y21592183D01*
X91626696Y21585804D01*
X91690870Y21578240D01*
X91765029Y21569868D01*
X91845639Y21561065D01*
X91929164Y21552208D01*
X92012069Y21543674D01*
X92090819Y21535840D01*
X92161879Y21529083D01*
X92221713Y21523779D01*
X92266787Y21520306D01*
X92285927Y21519231D01*
X92310040Y21520859D01*
X92316268Y21532212D01*
X92314114Y21545109D01*
X92309113Y21569022D01*
X92301268Y21609603D01*
X92291956Y21659657D01*
X92287999Y21681440D01*
X92278584Y21732257D01*
X92270102Y21775538D01*
X92263886Y21804583D01*
X92262219Y21811102D01*
X92252139Y21820068D01*
X92224162Y21842184D01*
X92179919Y21876243D01*
X92121038Y21921034D01*
X92049149Y21975350D01*
X91965880Y22037979D01*
X91872860Y22107715D01*
X91771718Y22183347D01*
X91664083Y22263667D01*
X91551583Y22347465D01*
X91435849Y22433532D01*
X91318508Y22520659D01*
X91201189Y22607638D01*
X91085522Y22693258D01*
X90973136Y22776312D01*
X90865658Y22855589D01*
X90764719Y22929882D01*
X90671947Y22997979D01*
X90588971Y23058674D01*
X90517420Y23110756D01*
X90458923Y23153016D01*
X90415109Y23184246D01*
X90387606Y23203236D01*
X90381037Y23207436D01*
X89629631Y23207436D01*
X89559820Y23304393D01*
X89463765Y23437807D01*
X89373926Y23562595D01*
X89291222Y23677481D01*
X89216570Y23781189D01*
X89150890Y23872442D01*
X89095099Y23949966D01*
X89050117Y24012483D01*
X89016862Y24058719D01*
X88996252Y24087396D01*
X88990055Y24096040D01*
X88952295Y24148931D01*
X87823689Y23104007D01*
X87683631Y22974237D01*
X87548680Y22849006D01*
X87419886Y22729300D01*
X87298299Y22616101D01*
X87184969Y22510396D01*
X87080948Y22413169D01*
X86987285Y22325403D01*
X86905031Y22248084D01*
X86835237Y22182195D01*
X86778953Y22128722D01*
X86737229Y22088649D01*
X86711116Y22062960D01*
X86701665Y22052640D01*
X85801531Y22052640D01*
X85812652Y22063409D01*
X85820658Y22070957D01*
X85841651Y22090568D01*
X85879361Y22125634D01*
X85932712Y22175158D01*
X86000624Y22238140D01*
X86082020Y22313583D01*
X86175822Y22400489D01*
X86280952Y22497859D01*
X86396331Y22604695D01*
X86520883Y22719999D01*
X86653529Y22842772D01*
X86793190Y22972017D01*
X86938790Y23106734D01*
X87089250Y23245927D01*
X87243492Y23388595D01*
X87258540Y23402513D01*
X87413198Y23545585D01*
X87564232Y23685365D01*
X87710559Y23820848D01*
X87851095Y23951029D01*
X87984758Y24074903D01*
X88110465Y24191465D01*
X88227132Y24299708D01*
X88333677Y24398630D01*
X88429017Y24487223D01*
X88512068Y24564483D01*
X88581748Y24629404D01*
X88636973Y24680982D01*
X88676661Y24718212D01*
X88699728Y24740087D01*
X88700943Y24741260D01*
X88765782Y24801575D01*
X88819828Y24845338D01*
X88867437Y24874914D01*
X88912965Y24892669D01*
X88960768Y24900968D01*
X88997685Y24902419D01*
X89029955Y24901832D01*
X89058220Y24898976D01*
X89085579Y24892206D01*
X89115134Y24879879D01*
X89149982Y24860350D01*
X89193223Y24831976D01*
X89247959Y24793113D01*
X89317287Y24742116D01*
X89360474Y24710003D01*
X89422746Y24663733D01*
X89499057Y24607210D01*
X89588077Y24541411D01*
X89688477Y24467310D01*
X89798927Y24385884D01*
X89918096Y24298107D01*
X90044655Y24204956D01*
X90177274Y24107406D01*
X90314623Y24006433D01*
X90455371Y23903012D01*
X90598190Y23798119D01*
X90741749Y23692730D01*
X90884719Y23587820D01*
X91025768Y23484365D01*
X91163569Y23383340D01*
X91296789Y23285722D01*
X91424100Y23192485D01*
X91544172Y23104605D01*
X91655674Y23023059D01*
X91757278Y22948821D01*
X91847652Y22882867D01*
X91925467Y22826173D01*
X91989393Y22779715D01*
X92038100Y22744468D01*
X92070259Y22721407D01*
X92084538Y22711509D01*
X92085155Y22711198D01*
X92083299Y22723263D01*
X92077064Y22757782D01*
X92066706Y22813420D01*
X92052481Y22888843D01*
X92034645Y22982714D01*
X92013455Y23093700D01*
X92002952Y23148520D01*
X92623680Y23148520D01*
X92624815Y23135942D01*
X92630131Y23102108D01*
X92639169Y23049555D01*
X92651475Y22980814D01*
X92666592Y22898422D01*
X92684063Y22804913D01*
X92703433Y22702819D01*
X92711460Y22660927D01*
X92734593Y22540829D01*
X92753781Y22442277D01*
X92769585Y22363002D01*
X92782564Y22300738D01*
X92793281Y22253215D01*
X92802294Y22218165D01*
X92810166Y22193321D01*
X92817455Y22176414D01*
X92824724Y22165176D01*
X92832531Y22157339D01*
X92836721Y22154055D01*
X92859385Y22137141D01*
X92896128Y22109693D01*
X92941619Y22075695D01*
X92984407Y22043706D01*
X93029519Y22010576D01*
X93067175Y21984057D01*
X93093434Y21966847D01*
X93104350Y21961638D01*
X93100853Y21973305D01*
X93089042Y22005337D01*
X93069738Y22055648D01*
X93043761Y22122154D01*
X93011933Y22202770D01*
X92975074Y22295412D01*
X92934006Y22397995D01*
X92889550Y22508433D01*
X92868883Y22559580D01*
X92823040Y22672590D01*
X92779880Y22778377D01*
X92740256Y22874892D01*
X92705022Y22960086D01*
X92675028Y23031912D01*
X92651130Y23088320D01*
X92634179Y23127263D01*
X92625028Y23146692D01*
X92623680Y23148520D01*
X92002952Y23148520D01*
X91998454Y23171994D01*
X92608779Y23171994D01*
X92614838Y23165935D01*
X92620897Y23171994D01*
X92614838Y23178053D01*
X92608779Y23171994D01*
X91998454Y23171994D01*
X91989167Y23220464D01*
X91962037Y23361672D01*
X91932320Y23515989D01*
X91900274Y23682080D01*
X91866154Y23858609D01*
X91830216Y24044242D01*
X91792717Y24237643D01*
X91758159Y24415626D01*
X91704315Y24693298D01*
X91655290Y24947281D01*
X91611072Y25177636D01*
X91571648Y25384424D01*
X91537009Y25567707D01*
X91507142Y25727545D01*
X91482036Y25864001D01*
X91461679Y25977135D01*
X91446061Y26067009D01*
X91435169Y26133684D01*
X91428994Y26177221D01*
X91427440Y26195515D01*
X91437139Y26281060D01*
X91466970Y26353373D01*
X91517342Y26413304D01*
X91540915Y26432255D01*
X91617875Y26475177D01*
X91697413Y26494052D01*
X91778670Y26488825D01*
G37*
%TD*%
D11*
%TO.C,U2*%
X36492500Y82100000D03*
X36492500Y81700000D03*
X36492500Y81300000D03*
X36492500Y80900000D03*
X36492500Y80500000D03*
X36492500Y80100000D03*
X36492500Y79700000D03*
X36492500Y79300000D03*
X36492500Y78900000D03*
X36492500Y78500000D03*
X36492500Y78100000D03*
X36492500Y77700000D03*
X36492500Y77300000D03*
X36492500Y76900000D03*
D12*
X37330000Y76062500D03*
X37730000Y76062500D03*
X38130000Y76062500D03*
X38530000Y76062500D03*
X38930000Y76062500D03*
X39330000Y76062500D03*
X39730000Y76062500D03*
X40130000Y76062500D03*
X40530000Y76062500D03*
X40930000Y76062500D03*
X41330000Y76062500D03*
X41730000Y76062500D03*
X42130000Y76062500D03*
X42530000Y76062500D03*
D11*
X43367500Y76900000D03*
X43367500Y77300000D03*
X43367500Y77700000D03*
X43367500Y78100000D03*
X43367500Y78500000D03*
X43367500Y78900000D03*
X43367500Y79300000D03*
X43367500Y79700000D03*
X43367500Y80100000D03*
X43367500Y80500000D03*
X43367500Y80900000D03*
X43367500Y81300000D03*
X43367500Y81700000D03*
X43367500Y82100000D03*
D12*
X42530000Y82937500D03*
X42130000Y82937500D03*
X41730000Y82937500D03*
X41330000Y82937500D03*
X40930000Y82937500D03*
X40530000Y82937500D03*
X40130000Y82937500D03*
X39730000Y82937500D03*
X39330000Y82937500D03*
X38930000Y82937500D03*
X38530000Y82937500D03*
X38130000Y82937500D03*
X37730000Y82937500D03*
X37330000Y82937500D03*
D13*
X39930000Y79500000D03*
%TD*%
D14*
%TO.C,H8*%
X135000000Y75000000D03*
%TD*%
%TO.C,H7*%
X15000000Y15000000D03*
%TD*%
%TO.C,H6*%
X135000000Y15000000D03*
%TD*%
D15*
%TO.C,SW4*%
X127500000Y93550000D03*
D16*
X127500000Y88550000D03*
X127500000Y91050000D03*
X142000000Y93550000D03*
X142000000Y88550000D03*
D17*
X135000000Y96650000D03*
X135000000Y85450000D03*
%TD*%
D18*
%TO.C,U76*%
X124900000Y38575001D03*
X124500000Y38575001D03*
X124100000Y38575001D03*
X124900000Y38975001D03*
X124500000Y38975001D03*
X124100000Y38975001D03*
X124900000Y39375001D03*
X124500000Y39375001D03*
X124100000Y39375001D03*
%TD*%
%TO.C,U56*%
X97700000Y39375000D03*
X98100000Y39375000D03*
X98500000Y39375000D03*
X97700000Y38975000D03*
X98100000Y38975000D03*
X98500000Y38975000D03*
X97700000Y38575000D03*
X98100000Y38575000D03*
X98500000Y38575000D03*
%TD*%
%TO.C,U75*%
X122300000Y38575001D03*
X121900000Y38575001D03*
X121500000Y38575001D03*
X122300000Y38975001D03*
X121900000Y38975001D03*
X121500000Y38975001D03*
X122300000Y39375001D03*
X121900000Y39375001D03*
X121500000Y39375001D03*
%TD*%
%TO.C,U63*%
X122300000Y56600000D03*
X121900000Y56600000D03*
X121500000Y56600000D03*
X122300000Y57000000D03*
X121900000Y57000000D03*
X121500000Y57000000D03*
X122300000Y57400000D03*
X121900000Y57400000D03*
X121500000Y57400000D03*
%TD*%
%TO.C,U30*%
X52300000Y45775001D03*
X51900000Y45775001D03*
X51500000Y45775001D03*
X52300000Y46175001D03*
X51900000Y46175001D03*
X51500000Y46175001D03*
X52300000Y46575001D03*
X51900000Y46575001D03*
X51500000Y46575001D03*
%TD*%
%TO.C,U39*%
X54900000Y34975001D03*
X54500000Y34975001D03*
X54100000Y34975001D03*
X54900000Y35375001D03*
X54500000Y35375001D03*
X54100000Y35375001D03*
X54900000Y35775001D03*
X54500000Y35775001D03*
X54100000Y35775001D03*
%TD*%
%TO.C,U66*%
X124900000Y53000000D03*
X124500000Y53000000D03*
X124100000Y53000000D03*
X124900000Y53400000D03*
X124500000Y53400000D03*
X124100000Y53400000D03*
X124900000Y53800000D03*
X124500000Y53800000D03*
X124100000Y53800000D03*
%TD*%
%TO.C,U36*%
X54900000Y38575001D03*
X54500000Y38575001D03*
X54100000Y38575001D03*
X54900000Y38975001D03*
X54500000Y38975001D03*
X54100000Y38975001D03*
X54900000Y39375001D03*
X54500000Y39375001D03*
X54100000Y39375001D03*
%TD*%
%TO.C,U49*%
X97700000Y50175000D03*
X98100000Y50175000D03*
X98500000Y50175000D03*
X97700000Y49775000D03*
X98100000Y49775000D03*
X98500000Y49775000D03*
X97700000Y49375000D03*
X98100000Y49375000D03*
X98500000Y49375000D03*
%TD*%
%TO.C,U20*%
X25100000Y32175000D03*
X25500000Y32175000D03*
X25900000Y32175000D03*
X25100000Y31775000D03*
X25500000Y31775000D03*
X25900000Y31775000D03*
X25100000Y31375000D03*
X25500000Y31375000D03*
X25900000Y31375000D03*
%TD*%
%TO.C,U9*%
X27700000Y50175000D03*
X28100000Y50175000D03*
X28500000Y50175000D03*
X27700000Y49775000D03*
X28100000Y49775000D03*
X28500000Y49775000D03*
X27700000Y49375000D03*
X28100000Y49375000D03*
X28500000Y49375000D03*
%TD*%
%TO.C,U73*%
X122300000Y42175001D03*
X121900000Y42175001D03*
X121500000Y42175001D03*
X122300000Y42575001D03*
X121900000Y42575001D03*
X121500000Y42575001D03*
X122300000Y42975001D03*
X121900000Y42975001D03*
X121500000Y42975001D03*
%TD*%
%TO.C,U5*%
X25100000Y53800000D03*
X25500000Y53800000D03*
X25900000Y53800000D03*
X25100000Y53400000D03*
X25500000Y53400000D03*
X25900000Y53400000D03*
X25100000Y53000000D03*
X25500000Y53000000D03*
X25900000Y53000000D03*
%TD*%
%TO.C,U25*%
X52300000Y53000000D03*
X51900000Y53000000D03*
X51500000Y53000000D03*
X52300000Y53400000D03*
X51900000Y53400000D03*
X51500000Y53400000D03*
X52300000Y53800000D03*
X51900000Y53800000D03*
X51500000Y53800000D03*
%TD*%
%TO.C,U43*%
X95100000Y57400000D03*
X95500000Y57400000D03*
X95900000Y57400000D03*
X95100000Y57000000D03*
X95500000Y57000000D03*
X95900000Y57000000D03*
X95100000Y56600000D03*
X95500000Y56600000D03*
X95900000Y56600000D03*
%TD*%
%TO.C,U33*%
X52300000Y42175001D03*
X51900000Y42175001D03*
X51500000Y42175001D03*
X52300000Y42575001D03*
X51900000Y42575001D03*
X51500000Y42575001D03*
X52300000Y42975001D03*
X51900000Y42975001D03*
X51500000Y42975001D03*
%TD*%
%TO.C,U54*%
X97700000Y42975000D03*
X98100000Y42975000D03*
X98500000Y42975000D03*
X97700000Y42575000D03*
X98100000Y42575000D03*
X98500000Y42575000D03*
X97700000Y42175000D03*
X98100000Y42175000D03*
X98500000Y42175000D03*
%TD*%
%TO.C,U53*%
X95100000Y42975000D03*
X95500000Y42975000D03*
X95900000Y42975000D03*
X95100000Y42575000D03*
X95500000Y42575000D03*
X95900000Y42575000D03*
X95100000Y42175000D03*
X95500000Y42175000D03*
X95900000Y42175000D03*
%TD*%
%TO.C,U41*%
X54900000Y31375001D03*
X54500000Y31375001D03*
X54100000Y31375001D03*
X54900000Y31775001D03*
X54500000Y31775001D03*
X54100000Y31775001D03*
X54900000Y32175001D03*
X54500000Y32175001D03*
X54100000Y32175001D03*
%TD*%
%TO.C,U59*%
X97700000Y35775000D03*
X98100000Y35775000D03*
X98500000Y35775000D03*
X97700000Y35375000D03*
X98100000Y35375000D03*
X98500000Y35375000D03*
X97700000Y34975000D03*
X98100000Y34975000D03*
X98500000Y34975000D03*
%TD*%
%TO.C,U55*%
X95100000Y39375000D03*
X95500000Y39375000D03*
X95900000Y39375000D03*
X95100000Y38975000D03*
X95500000Y38975000D03*
X95900000Y38975000D03*
X95100000Y38575000D03*
X95500000Y38575000D03*
X95900000Y38575000D03*
%TD*%
%TO.C,U38*%
X52300000Y34975001D03*
X51900000Y34975001D03*
X51500000Y34975001D03*
X52300000Y35375001D03*
X51900000Y35375001D03*
X51500000Y35375001D03*
X52300000Y35775001D03*
X51900000Y35775001D03*
X51500000Y35775001D03*
%TD*%
%TO.C,U6*%
X27700000Y53800000D03*
X28100000Y53800000D03*
X28500000Y53800000D03*
X27700000Y53400000D03*
X28100000Y53400000D03*
X28500000Y53400000D03*
X27700000Y53000000D03*
X28100000Y53000000D03*
X28500000Y53000000D03*
%TD*%
%TO.C,U31*%
X54900000Y45775001D03*
X54500000Y45775001D03*
X54100000Y45775001D03*
X54900000Y46175001D03*
X54500000Y46175001D03*
X54100000Y46175001D03*
X54900000Y46575001D03*
X54500000Y46575001D03*
X54100000Y46575001D03*
%TD*%
%TO.C,U69*%
X124900000Y49375001D03*
X124500000Y49375001D03*
X124100000Y49375001D03*
X124900000Y49775001D03*
X124500000Y49775001D03*
X124100000Y49775001D03*
X124900000Y50175001D03*
X124500000Y50175001D03*
X124100000Y50175001D03*
%TD*%
%TO.C,U8*%
X25100000Y50175000D03*
X25500000Y50175000D03*
X25900000Y50175000D03*
X25100000Y49775000D03*
X25500000Y49775000D03*
X25900000Y49775000D03*
X25100000Y49375000D03*
X25500000Y49375000D03*
X25900000Y49375000D03*
%TD*%
%TO.C,U70*%
X122300000Y45775001D03*
X121900000Y45775001D03*
X121500000Y45775001D03*
X122300000Y46175001D03*
X121900000Y46175001D03*
X121500000Y46175001D03*
X122300000Y46575001D03*
X121900000Y46575001D03*
X121500000Y46575001D03*
%TD*%
%TO.C,U50*%
X95100000Y46575000D03*
X95500000Y46575000D03*
X95900000Y46575000D03*
X95100000Y46175000D03*
X95500000Y46175000D03*
X95900000Y46175000D03*
X95100000Y45775000D03*
X95500000Y45775000D03*
X95900000Y45775000D03*
%TD*%
%TO.C,U71*%
X124900000Y45775001D03*
X124500000Y45775001D03*
X124100000Y45775001D03*
X124900000Y46175001D03*
X124500000Y46175001D03*
X124100000Y46175001D03*
X124900000Y46575001D03*
X124500000Y46575001D03*
X124100000Y46575001D03*
%TD*%
%TO.C,U13*%
X25100000Y42975000D03*
X25500000Y42975000D03*
X25900000Y42975000D03*
X25100000Y42575000D03*
X25500000Y42575000D03*
X25900000Y42575000D03*
X25100000Y42175000D03*
X25500000Y42175000D03*
X25900000Y42175000D03*
%TD*%
%TO.C,U35*%
X52300000Y38575001D03*
X51900000Y38575001D03*
X51500000Y38575001D03*
X52300000Y38975001D03*
X51900000Y38975001D03*
X51500000Y38975001D03*
X52300000Y39375001D03*
X51900000Y39375001D03*
X51500000Y39375001D03*
%TD*%
%TO.C,U11*%
X27700000Y46575000D03*
X28100000Y46575000D03*
X28500000Y46575000D03*
X27700000Y46175000D03*
X28100000Y46175000D03*
X28500000Y46175000D03*
X27700000Y45775000D03*
X28100000Y45775000D03*
X28500000Y45775000D03*
%TD*%
%TO.C,U60*%
X95100000Y32175000D03*
X95500000Y32175000D03*
X95900000Y32175000D03*
X95100000Y31775000D03*
X95500000Y31775000D03*
X95900000Y31775000D03*
X95100000Y31375000D03*
X95500000Y31375000D03*
X95900000Y31375000D03*
%TD*%
%TO.C,U18*%
X25100000Y35775000D03*
X25500000Y35775000D03*
X25900000Y35775000D03*
X25100000Y35375000D03*
X25500000Y35375000D03*
X25900000Y35375000D03*
X25100000Y34975000D03*
X25500000Y34975000D03*
X25900000Y34975000D03*
%TD*%
%TO.C,U26*%
X54900000Y53000000D03*
X54500000Y53000000D03*
X54100000Y53000000D03*
X54900000Y53400000D03*
X54500000Y53400000D03*
X54100000Y53400000D03*
X54900000Y53800000D03*
X54500000Y53800000D03*
X54100000Y53800000D03*
%TD*%
%TO.C,U45*%
X95100000Y53800000D03*
X95500000Y53800000D03*
X95900000Y53800000D03*
X95100000Y53400000D03*
X95500000Y53400000D03*
X95900000Y53400000D03*
X95100000Y53000000D03*
X95500000Y53000000D03*
X95900000Y53000000D03*
%TD*%
%TO.C,U48*%
X95100000Y50175000D03*
X95500000Y50175000D03*
X95900000Y50175000D03*
X95100000Y49775000D03*
X95500000Y49775000D03*
X95900000Y49775000D03*
X95100000Y49375000D03*
X95500000Y49375000D03*
X95900000Y49375000D03*
%TD*%
%TO.C,U84*%
X16000000Y82350000D03*
X16000000Y81950000D03*
X16000000Y81550000D03*
X15600000Y82350000D03*
X15600000Y81950000D03*
X15600000Y81550000D03*
X15200000Y82350000D03*
X15200000Y81950000D03*
X15200000Y81550000D03*
%TD*%
%TO.C,U28*%
X52300000Y49375001D03*
X51900000Y49375001D03*
X51500000Y49375001D03*
X52300000Y49775001D03*
X51900000Y49775001D03*
X51500000Y49775001D03*
X52300000Y50175001D03*
X51900000Y50175001D03*
X51500000Y50175001D03*
%TD*%
%TO.C,U23*%
X52300000Y56600000D03*
X51900000Y56600000D03*
X51500000Y56600000D03*
X52300000Y57000000D03*
X51900000Y57000000D03*
X51500000Y57000000D03*
X52300000Y57400000D03*
X51900000Y57400000D03*
X51500000Y57400000D03*
%TD*%
%TO.C,U29*%
X54900000Y49375001D03*
X54500000Y49375001D03*
X54100000Y49375001D03*
X54900000Y49775001D03*
X54500000Y49775001D03*
X54100000Y49775001D03*
X54900000Y50175001D03*
X54500000Y50175001D03*
X54100000Y50175001D03*
%TD*%
%TO.C,U65*%
X122300000Y53000000D03*
X121900000Y53000000D03*
X121500000Y53000000D03*
X122300000Y53400000D03*
X121900000Y53400000D03*
X121500000Y53400000D03*
X122300000Y53800000D03*
X121900000Y53800000D03*
X121500000Y53800000D03*
%TD*%
%TO.C,U44*%
X97700000Y57400000D03*
X98100000Y57400000D03*
X98500000Y57400000D03*
X97700000Y57000000D03*
X98100000Y57000000D03*
X98500000Y57000000D03*
X97700000Y56600000D03*
X98100000Y56600000D03*
X98500000Y56600000D03*
%TD*%
%TO.C,U79*%
X124900000Y34975001D03*
X124500000Y34975001D03*
X124100000Y34975001D03*
X124900000Y35375001D03*
X124500000Y35375001D03*
X124100000Y35375001D03*
X124900000Y35775001D03*
X124500000Y35775001D03*
X124100000Y35775001D03*
%TD*%
%TO.C,U34*%
X54900000Y42175001D03*
X54500000Y42175001D03*
X54100000Y42175001D03*
X54900000Y42575001D03*
X54500000Y42575001D03*
X54100000Y42575001D03*
X54900000Y42975001D03*
X54500000Y42975001D03*
X54100000Y42975001D03*
%TD*%
%TO.C,U15*%
X25100000Y39375000D03*
X25500000Y39375000D03*
X25900000Y39375000D03*
X25100000Y38975000D03*
X25500000Y38975000D03*
X25900000Y38975000D03*
X25100000Y38575000D03*
X25500000Y38575000D03*
X25900000Y38575000D03*
%TD*%
%TO.C,U40*%
X52300000Y31375001D03*
X51900000Y31375001D03*
X51500000Y31375001D03*
X52300000Y31775001D03*
X51900000Y31775001D03*
X51500000Y31775001D03*
X52300000Y32175001D03*
X51900000Y32175001D03*
X51500000Y32175001D03*
%TD*%
%TO.C,U21*%
X27700000Y32175000D03*
X28100000Y32175000D03*
X28500000Y32175000D03*
X27700000Y31775000D03*
X28100000Y31775000D03*
X28500000Y31775000D03*
X27700000Y31375000D03*
X28100000Y31375000D03*
X28500000Y31375000D03*
%TD*%
%TO.C,U3*%
X25100000Y57400000D03*
X25500000Y57400000D03*
X25900000Y57400000D03*
X25100000Y57000000D03*
X25500000Y57000000D03*
X25900000Y57000000D03*
X25100000Y56600000D03*
X25500000Y56600000D03*
X25900000Y56600000D03*
%TD*%
%TO.C,U80*%
X122300000Y31375001D03*
X121900000Y31375001D03*
X121500000Y31375001D03*
X122300000Y31775001D03*
X121900000Y31775001D03*
X121500000Y31775001D03*
X122300000Y32175001D03*
X121900000Y32175001D03*
X121500000Y32175001D03*
%TD*%
%TO.C,U46*%
X97700000Y53800000D03*
X98100000Y53800000D03*
X98500000Y53800000D03*
X97700000Y53400000D03*
X98100000Y53400000D03*
X98500000Y53400000D03*
X97700000Y53000000D03*
X98100000Y53000000D03*
X98500000Y53000000D03*
%TD*%
%TO.C,U10*%
X25100000Y46575000D03*
X25500000Y46575000D03*
X25900000Y46575000D03*
X25100000Y46175000D03*
X25500000Y46175000D03*
X25900000Y46175000D03*
X25100000Y45775000D03*
X25500000Y45775000D03*
X25900000Y45775000D03*
%TD*%
%TO.C,U81*%
X124900000Y31375001D03*
X124500000Y31375001D03*
X124100000Y31375001D03*
X124900000Y31775001D03*
X124500000Y31775001D03*
X124100000Y31775001D03*
X124900000Y32175001D03*
X124500000Y32175001D03*
X124100000Y32175001D03*
%TD*%
%TO.C,U74*%
X124900000Y42175001D03*
X124500000Y42175001D03*
X124100000Y42175001D03*
X124900000Y42575001D03*
X124500000Y42575001D03*
X124100000Y42575001D03*
X124900000Y42975001D03*
X124500000Y42975001D03*
X124100000Y42975001D03*
%TD*%
%TO.C,U24*%
X54900000Y56600000D03*
X54500000Y56600000D03*
X54100000Y56600000D03*
X54900000Y57000000D03*
X54500000Y57000000D03*
X54100000Y57000000D03*
X54900000Y57400000D03*
X54500000Y57400000D03*
X54100000Y57400000D03*
%TD*%
%TO.C,U19*%
X27700000Y35775000D03*
X28100000Y35775000D03*
X28500000Y35775000D03*
X27700000Y35375000D03*
X28100000Y35375000D03*
X28500000Y35375000D03*
X27700000Y34975000D03*
X28100000Y34975000D03*
X28500000Y34975000D03*
%TD*%
%TO.C,U61*%
X97700000Y32175000D03*
X98100000Y32175000D03*
X98500000Y32175000D03*
X97700000Y31775000D03*
X98100000Y31775000D03*
X98500000Y31775000D03*
X97700000Y31375000D03*
X98100000Y31375000D03*
X98500000Y31375000D03*
%TD*%
%TO.C,U51*%
X97700000Y46575000D03*
X98100000Y46575000D03*
X98500000Y46575000D03*
X97700000Y46175000D03*
X98100000Y46175000D03*
X98500000Y46175000D03*
X97700000Y45775000D03*
X98100000Y45775000D03*
X98500000Y45775000D03*
%TD*%
%TO.C,U16*%
X27700000Y39375000D03*
X28100000Y39375000D03*
X28500000Y39375000D03*
X27700000Y38975000D03*
X28100000Y38975000D03*
X28500000Y38975000D03*
X27700000Y38575000D03*
X28100000Y38575000D03*
X28500000Y38575000D03*
%TD*%
%TO.C,U4*%
X27700000Y57400000D03*
X28100000Y57400000D03*
X28500000Y57400000D03*
X27700000Y57000000D03*
X28100000Y57000000D03*
X28500000Y57000000D03*
X27700000Y56600000D03*
X28100000Y56600000D03*
X28500000Y56600000D03*
%TD*%
%TO.C,U14*%
X27700000Y42975000D03*
X28100000Y42975000D03*
X28500000Y42975000D03*
X27700000Y42575000D03*
X28100000Y42575000D03*
X28500000Y42575000D03*
X27700000Y42175000D03*
X28100000Y42175000D03*
X28500000Y42175000D03*
%TD*%
%TO.C,U64*%
X124900000Y56600000D03*
X124500000Y56600000D03*
X124100000Y56600000D03*
X124900000Y57000000D03*
X124500000Y57000000D03*
X124100000Y57000000D03*
X124900000Y57400000D03*
X124500000Y57400000D03*
X124100000Y57400000D03*
%TD*%
%TO.C,U68*%
X122300000Y49375001D03*
X121900000Y49375001D03*
X121500000Y49375001D03*
X122300000Y49775001D03*
X121900000Y49775001D03*
X121500000Y49775001D03*
X122300000Y50175001D03*
X121900000Y50175001D03*
X121500000Y50175001D03*
%TD*%
%TO.C,U78*%
X122300000Y34975001D03*
X121900000Y34975001D03*
X121500000Y34975001D03*
X122300000Y35375001D03*
X121900000Y35375001D03*
X121500000Y35375001D03*
X122300000Y35775001D03*
X121900000Y35775001D03*
X121500000Y35775001D03*
%TD*%
%TO.C,U58*%
X95100000Y35775000D03*
X95500000Y35775000D03*
X95900000Y35775000D03*
X95100000Y35375000D03*
X95500000Y35375000D03*
X95900000Y35375000D03*
X95100000Y34975000D03*
X95500000Y34975000D03*
X95900000Y34975000D03*
%TD*%
D19*
%TO.C,R106*%
X49330000Y45200000D03*
X48310000Y45200000D03*
%TD*%
%TO.C,R132*%
X47330000Y32400000D03*
X46310000Y32400000D03*
%TD*%
D20*
%TO.C,R43*%
X32670000Y43600000D03*
X33690000Y43600000D03*
%TD*%
D21*
%TO.C,C85*%
X133955000Y51524999D03*
X132995000Y51524999D03*
%TD*%
D22*
%TO.C,R272*%
X75900000Y109650000D03*
X75900000Y108630000D03*
%TD*%
D19*
%TO.C,R220*%
X117330000Y50000000D03*
X116310000Y50000000D03*
%TD*%
D23*
%TO.C,C65*%
X86045000Y44625000D03*
X87005000Y44625000D03*
%TD*%
D24*
%TO.C,C3*%
X36800000Y70980000D03*
X36800000Y70020000D03*
%TD*%
D19*
%TO.C,R98*%
X49340000Y48400000D03*
X48320000Y48400000D03*
%TD*%
D25*
%TO.C,U72*%
X128212500Y50299999D03*
X128212500Y49649999D03*
X128212500Y48999999D03*
X128212500Y48349999D03*
X128212500Y47699999D03*
X128212500Y47049999D03*
X128212500Y46399999D03*
X128212500Y45749999D03*
X133937500Y45749999D03*
X133937500Y46399999D03*
X133937500Y47049999D03*
X133937500Y47699999D03*
X133937500Y48349999D03*
X133937500Y48999999D03*
X133937500Y49649999D03*
X133937500Y50299999D03*
%TD*%
D20*
%TO.C,R27*%
X32670000Y50800000D03*
X33690000Y50800000D03*
%TD*%
D19*
%TO.C,R124*%
X47330000Y35600000D03*
X46310000Y35600000D03*
%TD*%
%TO.C,R256*%
X119330000Y35600000D03*
X118310000Y35600000D03*
%TD*%
D20*
%TO.C,R47*%
X30670000Y43600000D03*
X31690000Y43600000D03*
%TD*%
D19*
%TO.C,R273*%
X73570000Y109500000D03*
X72550000Y109500000D03*
%TD*%
%TO.C,R224*%
X119330000Y50000000D03*
X118310000Y50000000D03*
%TD*%
D20*
%TO.C,R175*%
X100670000Y43600000D03*
X101690000Y43600000D03*
%TD*%
D22*
%TO.C,R290*%
X114000000Y90510000D03*
X114000000Y89490000D03*
%TD*%
D19*
%TO.C,R112*%
X49330000Y42800000D03*
X48310000Y42800000D03*
%TD*%
%TO.C,R210*%
X119340000Y55600000D03*
X118320000Y55600000D03*
%TD*%
D26*
%TO.C,R278*%
X77162500Y94825000D03*
X78812500Y94825000D03*
%TD*%
D24*
%TO.C,C102*%
X20150000Y84190000D03*
X20150000Y83230000D03*
%TD*%
D27*
%TO.C,D1*%
X19350000Y102000000D03*
X22650000Y102000000D03*
%TD*%
D25*
%TO.C,U32*%
X58212500Y50275000D03*
X58212500Y49625000D03*
X58212500Y48975000D03*
X58212500Y48325000D03*
X58212500Y47675000D03*
X58212500Y47025000D03*
X58212500Y46375000D03*
X58212500Y45725000D03*
X63937500Y45725000D03*
X63937500Y46375000D03*
X63937500Y47025000D03*
X63937500Y47675000D03*
X63937500Y48325000D03*
X63937500Y48975000D03*
X63937500Y49625000D03*
X63937500Y50275000D03*
%TD*%
D28*
%TO.C,RN1*%
X16450000Y85642500D03*
D29*
X16450000Y86512500D03*
X16450000Y87312500D03*
D28*
X16450000Y88182500D03*
X15050000Y88182500D03*
D29*
X15050000Y87312500D03*
X15050000Y86512500D03*
D28*
X15050000Y85642500D03*
%TD*%
D20*
%TO.C,R165*%
X102670000Y46000000D03*
X103690000Y46000000D03*
%TD*%
D30*
%TO.C,C113*%
X84400000Y100925000D03*
X84400000Y103875000D03*
%TD*%
D21*
%TO.C,C50*%
X63967500Y44325000D03*
X63007500Y44325000D03*
%TD*%
D31*
%TO.C,TP8*%
X63500000Y111100000D03*
%TD*%
D19*
%TO.C,R222*%
X117330000Y48400000D03*
X116310000Y48400000D03*
%TD*%
%TO.C,R136*%
X49330000Y32400000D03*
X48310000Y32400000D03*
%TD*%
%TO.C,R258*%
X119340000Y34000000D03*
X118320000Y34000000D03*
%TD*%
D32*
%TO.C,C117*%
X111675000Y101250000D03*
X110125000Y101250000D03*
%TD*%
D33*
%TO.C,D4*%
X75850000Y111470000D03*
X75350000Y111470000D03*
X74850000Y111470000D03*
X74350000Y111470000D03*
X73850000Y111470000D03*
X73850000Y110700000D03*
X74350000Y110700000D03*
X74850000Y110700000D03*
X75350000Y110700000D03*
X75850000Y110700000D03*
%TD*%
D34*
%TO.C,C105*%
X23125000Y81400000D03*
X26075000Y81400000D03*
%TD*%
D35*
%TO.C,C14*%
X39849999Y85520000D03*
X39849999Y86480000D03*
%TD*%
D22*
%TO.C,R279*%
X85200000Y111410000D03*
X85200000Y110390000D03*
%TD*%
D24*
%TO.C,C5*%
X41050000Y74480000D03*
X41050000Y73520000D03*
%TD*%
D19*
%TO.C,R76*%
X47330000Y57200000D03*
X46310000Y57200000D03*
%TD*%
D20*
%TO.C,R63*%
X30670000Y36400000D03*
X31690000Y36400000D03*
%TD*%
D36*
%TO.C,J4*%
X112032000Y61238000D03*
X112032000Y26762000D03*
D37*
X113086000Y59600000D03*
X106914000Y59600000D03*
X113086000Y58800000D03*
X106914000Y58800000D03*
X113086000Y58000000D03*
X106914000Y58000000D03*
X113086000Y57200000D03*
X106914000Y57200000D03*
X113086000Y56400000D03*
X106914000Y56400000D03*
X113086000Y55600000D03*
X106914000Y55600000D03*
X113086000Y54800000D03*
X106914000Y54800000D03*
X113086000Y54000000D03*
X106914000Y54000000D03*
X113086000Y53200000D03*
X106914000Y53200000D03*
X113086000Y52400000D03*
X106914000Y52400000D03*
X113086000Y51600000D03*
X106914000Y51600000D03*
X113086000Y50800000D03*
X106914000Y50800000D03*
X113086000Y50000000D03*
X106914000Y50000000D03*
X113086000Y49200000D03*
X106914000Y49200000D03*
X113086000Y48400000D03*
X106914000Y48400000D03*
X113086000Y47600000D03*
X106914000Y47600000D03*
X113086000Y46800000D03*
X106914000Y46800000D03*
X113086000Y46000000D03*
X106914000Y46000000D03*
X113086000Y45200000D03*
X106914000Y45200000D03*
X113086000Y44400000D03*
X106914000Y44400000D03*
X113086000Y43600000D03*
X106914000Y43600000D03*
X113086000Y42800000D03*
X106914000Y42800000D03*
X113086000Y42000000D03*
X106914000Y42000000D03*
X113086000Y41200000D03*
X106914000Y41200000D03*
X113086000Y40400000D03*
X106914000Y40400000D03*
X113086000Y39600000D03*
X106914000Y39600000D03*
X113086000Y38800000D03*
X106914000Y38800000D03*
X113086000Y38000000D03*
X106914000Y38000000D03*
X113086000Y37200000D03*
X106914000Y37200000D03*
X113086000Y36400000D03*
X106914000Y36400000D03*
X113086000Y35600000D03*
X106914000Y35600000D03*
X113086000Y34800000D03*
X106914000Y34800000D03*
X113086000Y34000000D03*
X106914000Y34000000D03*
X113086000Y33200000D03*
X106914000Y33200000D03*
X113086000Y32400000D03*
X106914000Y32400000D03*
X113086000Y31600000D03*
X106914000Y31600000D03*
X113086000Y30800000D03*
X106914000Y30800000D03*
X113086000Y30000000D03*
X106914000Y30000000D03*
X113086000Y29200000D03*
X106914000Y29200000D03*
X113086000Y28400000D03*
X106914000Y28400000D03*
%TD*%
D20*
%TO.C,R51*%
X32670000Y40400000D03*
X33690000Y40400000D03*
%TD*%
D19*
%TO.C,R242*%
X119340000Y41200000D03*
X118320000Y41200000D03*
%TD*%
D23*
%TO.C,C106*%
X23009000Y83193500D03*
X23969000Y83193500D03*
%TD*%
D19*
%TO.C,R214*%
X117330000Y52400000D03*
X116310000Y52400000D03*
%TD*%
D38*
%TO.C,Q1*%
X76350000Y100337500D03*
X74450000Y100337500D03*
X75400000Y98462500D03*
%TD*%
D22*
%TO.C,R288*%
X103650000Y100460000D03*
X103650000Y99440000D03*
%TD*%
D39*
%TO.C,C15*%
X45299999Y84325000D03*
X45299999Y85875000D03*
%TD*%
D23*
%TO.C,C116*%
X121490000Y93196250D03*
X122450000Y93196250D03*
%TD*%
D20*
%TO.C,R37*%
X32670000Y46000000D03*
X33690000Y46000000D03*
%TD*%
D23*
%TO.C,C11*%
X44490000Y82100000D03*
X45450000Y82100000D03*
%TD*%
D19*
%TO.C,R134*%
X47330000Y30800000D03*
X46310000Y30800000D03*
%TD*%
%TO.C,R232*%
X119330000Y46800000D03*
X118310000Y46800000D03*
%TD*%
%TO.C,R204*%
X117330000Y57200000D03*
X116310000Y57200000D03*
%TD*%
D23*
%TO.C,C118*%
X121490000Y83796250D03*
X122450000Y83796250D03*
%TD*%
D20*
%TO.C,R67*%
X32670000Y33200000D03*
X33690000Y33200000D03*
%TD*%
D24*
%TO.C,C99*%
X14050000Y82280000D03*
X14050000Y81320000D03*
%TD*%
D23*
%TO.C,C70*%
X86045000Y37425000D03*
X87005000Y37425000D03*
%TD*%
D30*
%TO.C,C121*%
X104700000Y104725000D03*
X104700000Y107675000D03*
%TD*%
D19*
%TO.C,R80*%
X49330000Y57200000D03*
X48310000Y57200000D03*
%TD*%
D31*
%TO.C,TP14*%
X83000000Y93300000D03*
%TD*%
D40*
%TO.C,C123*%
X102375000Y106750000D03*
X99425000Y106750000D03*
%TD*%
D41*
%TO.C,SW1*%
X48250000Y114510000D03*
X55260000Y114510000D03*
D42*
X49500000Y117000000D03*
X54000000Y117000000D03*
%TD*%
D20*
%TO.C,R35*%
X32670000Y47600000D03*
X33690000Y47600000D03*
%TD*%
D43*
%TO.C,J2*%
X74075000Y74100000D03*
X74075000Y75100000D03*
X74075000Y76100000D03*
D44*
X71550000Y72800000D03*
X71550000Y77400000D03*
%TD*%
D20*
%TO.C,R161*%
X100670000Y49200000D03*
X101690000Y49200000D03*
%TD*%
D23*
%TO.C,C10*%
X45520000Y78500000D03*
X46480000Y78500000D03*
%TD*%
D20*
%TO.C,R286*%
X121400000Y86446250D03*
X122420000Y86446250D03*
%TD*%
D45*
%TO.C,U17*%
X21787500Y38525000D03*
X21787500Y39175000D03*
X21787500Y39825000D03*
X21787500Y40475000D03*
X21787500Y41125000D03*
X21787500Y41775000D03*
X21787500Y42425000D03*
X21787500Y43075000D03*
X16062500Y43075000D03*
X16062500Y42425000D03*
X16062500Y41775000D03*
X16062500Y41125000D03*
X16062500Y40475000D03*
X16062500Y39825000D03*
X16062500Y39175000D03*
X16062500Y38525000D03*
%TD*%
D20*
%TO.C,R9*%
X32240000Y82300000D03*
X33260000Y82300000D03*
%TD*%
D46*
%TO.C,Q4*%
X105137500Y97612500D03*
X107037500Y97612500D03*
X106087500Y99487500D03*
%TD*%
D47*
%TO.C,R2*%
X29150000Y84890000D03*
X29150000Y85910000D03*
%TD*%
D19*
%TO.C,R116*%
X47330000Y39600000D03*
X46310000Y39600000D03*
%TD*%
D35*
%TO.C,C6*%
X38930000Y85520000D03*
X38930000Y86480000D03*
%TD*%
D25*
%TO.C,U37*%
X58212500Y43075000D03*
X58212500Y42425000D03*
X58212500Y41775000D03*
X58212500Y41125000D03*
X58212500Y40475000D03*
X58212500Y39825000D03*
X58212500Y39175000D03*
X58212500Y38525000D03*
X63937500Y38525000D03*
X63937500Y39175000D03*
X63937500Y39825000D03*
X63937500Y40475000D03*
X63937500Y41125000D03*
X63937500Y41775000D03*
X63937500Y42425000D03*
X63937500Y43075000D03*
%TD*%
D19*
%TO.C,R228*%
X117330000Y46800000D03*
X116310000Y46800000D03*
%TD*%
D20*
%TO.C,R23*%
X30670000Y54800000D03*
X31690000Y54800000D03*
%TD*%
D36*
%TO.C,J3*%
X42032000Y61238000D03*
X42032000Y26762000D03*
D37*
X43086000Y59600000D03*
X36914000Y59600000D03*
X43086000Y58800000D03*
X36914000Y58800000D03*
X43086000Y58000000D03*
X36914000Y58000000D03*
X43086000Y57200000D03*
X36914000Y57200000D03*
X43086000Y56400000D03*
X36914000Y56400000D03*
X43086000Y55600000D03*
X36914000Y55600000D03*
X43086000Y54800000D03*
X36914000Y54800000D03*
X43086000Y54000000D03*
X36914000Y54000000D03*
X43086000Y53200000D03*
X36914000Y53200000D03*
X43086000Y52400000D03*
X36914000Y52400000D03*
X43086000Y51600000D03*
X36914000Y51600000D03*
X43086000Y50800000D03*
X36914000Y50800000D03*
X43086000Y50000000D03*
X36914000Y50000000D03*
X43086000Y49200000D03*
X36914000Y49200000D03*
X43086000Y48400000D03*
X36914000Y48400000D03*
X43086000Y47600000D03*
X36914000Y47600000D03*
X43086000Y46800000D03*
X36914000Y46800000D03*
X43086000Y46000000D03*
X36914000Y46000000D03*
X43086000Y45200000D03*
X36914000Y45200000D03*
X43086000Y44400000D03*
X36914000Y44400000D03*
X43086000Y43600000D03*
X36914000Y43600000D03*
X43086000Y42800000D03*
X36914000Y42800000D03*
X43086000Y42000000D03*
X36914000Y42000000D03*
X43086000Y41200000D03*
X36914000Y41200000D03*
X43086000Y40400000D03*
X36914000Y40400000D03*
X43086000Y39600000D03*
X36914000Y39600000D03*
X43086000Y38800000D03*
X36914000Y38800000D03*
X43086000Y38000000D03*
X36914000Y38000000D03*
X43086000Y37200000D03*
X36914000Y37200000D03*
X43086000Y36400000D03*
X36914000Y36400000D03*
X43086000Y35600000D03*
X36914000Y35600000D03*
X43086000Y34800000D03*
X36914000Y34800000D03*
X43086000Y34000000D03*
X36914000Y34000000D03*
X43086000Y33200000D03*
X36914000Y33200000D03*
X43086000Y32400000D03*
X36914000Y32400000D03*
X43086000Y31600000D03*
X36914000Y31600000D03*
X43086000Y30800000D03*
X36914000Y30800000D03*
X43086000Y30000000D03*
X36914000Y30000000D03*
X43086000Y29200000D03*
X36914000Y29200000D03*
X43086000Y28400000D03*
X36914000Y28400000D03*
%TD*%
D21*
%TO.C,C90*%
X133955000Y44324999D03*
X132995000Y44324999D03*
%TD*%
D20*
%TO.C,R159*%
X100670000Y50800000D03*
X101690000Y50800000D03*
%TD*%
D45*
%TO.C,U7*%
X21787500Y52950000D03*
X21787500Y53600000D03*
X21787500Y54250000D03*
X21787500Y54900000D03*
X21787500Y55550000D03*
X21787500Y56200000D03*
X21787500Y56850000D03*
X21787500Y57500000D03*
X16062500Y57500000D03*
X16062500Y56850000D03*
X16062500Y56200000D03*
X16062500Y55550000D03*
X16062500Y54900000D03*
X16062500Y54250000D03*
X16062500Y53600000D03*
X16062500Y52950000D03*
%TD*%
D20*
%TO.C,R149*%
X102670000Y53200000D03*
X103690000Y53200000D03*
%TD*%
D31*
%TO.C,TP6*%
X11405000Y100352000D03*
%TD*%
D19*
%TO.C,R270*%
X76510000Y105500000D03*
X75490000Y105500000D03*
%TD*%
D21*
%TO.C,C112*%
X69980000Y101700000D03*
X69020000Y101700000D03*
%TD*%
D20*
%TO.C,R11*%
X32670000Y58000000D03*
X33690000Y58000000D03*
%TD*%
D19*
%TO.C,R262*%
X117330000Y30800000D03*
X116310000Y30800000D03*
%TD*%
D35*
%TO.C,C104*%
X23520000Y90620500D03*
X23520000Y91580500D03*
%TD*%
D25*
%TO.C,U42*%
X58212500Y35875000D03*
X58212500Y35225000D03*
X58212500Y34575000D03*
X58212500Y33925000D03*
X58212500Y33275000D03*
X58212500Y32625000D03*
X58212500Y31975000D03*
X58212500Y31325000D03*
X63937500Y31325000D03*
X63937500Y31975000D03*
X63937500Y32625000D03*
X63937500Y33275000D03*
X63937500Y33925000D03*
X63937500Y34575000D03*
X63937500Y35225000D03*
X63937500Y35875000D03*
%TD*%
D35*
%TO.C,C1*%
X30910000Y95020000D03*
X30910000Y95980000D03*
%TD*%
D48*
%TO.C,D6*%
X79310000Y104790000D03*
X79310000Y108090000D03*
%TD*%
D49*
%TO.C,SW2*%
X42900000Y105600000D03*
X42900000Y96500000D03*
X38400000Y105600000D03*
X38400000Y96500000D03*
%TD*%
D20*
%TO.C,R69*%
X32670000Y31600000D03*
X33690000Y31600000D03*
%TD*%
%TO.C,R21*%
X32670000Y53200000D03*
X33690000Y53200000D03*
%TD*%
D19*
%TO.C,R7*%
X43460000Y72400000D03*
X42440000Y72400000D03*
%TD*%
D20*
%TO.C,R177*%
X100670000Y42000000D03*
X101690000Y42000000D03*
%TD*%
D31*
%TO.C,TP2*%
X67700000Y111100000D03*
%TD*%
D45*
%TO.C,U57*%
X91787500Y38550000D03*
X91787500Y39200000D03*
X91787500Y39850000D03*
X91787500Y40500000D03*
X91787500Y41150000D03*
X91787500Y41800000D03*
X91787500Y42450000D03*
X91787500Y43100000D03*
X86062500Y43100000D03*
X86062500Y42450000D03*
X86062500Y41800000D03*
X86062500Y41150000D03*
X86062500Y40500000D03*
X86062500Y39850000D03*
X86062500Y39200000D03*
X86062500Y38550000D03*
%TD*%
D39*
%TO.C,C110*%
X70600000Y92087500D03*
X70600000Y93637500D03*
%TD*%
D30*
%TO.C,C100*%
X60450000Y101625000D03*
X60450000Y104575000D03*
%TD*%
D50*
%TO.C,U92*%
X81997500Y98825000D03*
X81997500Y99775000D03*
X81997500Y100725000D03*
X79722500Y100725000D03*
X79722500Y98825000D03*
%TD*%
D45*
%TO.C,U52*%
X91787500Y45750000D03*
X91787500Y46400000D03*
X91787500Y47050000D03*
X91787500Y47700000D03*
X91787500Y48350000D03*
X91787500Y49000000D03*
X91787500Y49650000D03*
X91787500Y50300000D03*
X86062500Y50300000D03*
X86062500Y49650000D03*
X86062500Y49000000D03*
X86062500Y48350000D03*
X86062500Y47700000D03*
X86062500Y47050000D03*
X86062500Y46400000D03*
X86062500Y45750000D03*
%TD*%
D22*
%TO.C,R280*%
X78000000Y99810000D03*
X78000000Y98790000D03*
%TD*%
D23*
%TO.C,C20*%
X16020000Y51900000D03*
X16980000Y51900000D03*
%TD*%
D45*
%TO.C,U12*%
X21787500Y45725000D03*
X21787500Y46375000D03*
X21787500Y47025000D03*
X21787500Y47675000D03*
X21787500Y48325000D03*
X21787500Y48975000D03*
X21787500Y49625000D03*
X21787500Y50275000D03*
X16062500Y50275000D03*
X16062500Y49625000D03*
X16062500Y48975000D03*
X16062500Y48325000D03*
X16062500Y47675000D03*
X16062500Y47025000D03*
X16062500Y46375000D03*
X16062500Y45725000D03*
%TD*%
D20*
%TO.C,R169*%
X100670000Y46000000D03*
X101690000Y46000000D03*
%TD*%
%TO.C,R179*%
X102670000Y40400000D03*
X103690000Y40400000D03*
%TD*%
%TO.C,R171*%
X102670000Y43600000D03*
X103690000Y43600000D03*
%TD*%
D22*
%TO.C,R291*%
X59900000Y97020000D03*
X59900000Y96000000D03*
%TD*%
D20*
%TO.C,R45*%
X32670000Y42000000D03*
X33690000Y42000000D03*
%TD*%
D19*
%TO.C,R96*%
X49330000Y50000000D03*
X48310000Y50000000D03*
%TD*%
%TO.C,R128*%
X49330000Y35600000D03*
X48310000Y35600000D03*
%TD*%
D20*
%TO.C,R153*%
X100670000Y53200000D03*
X101690000Y53200000D03*
%TD*%
D19*
%TO.C,R216*%
X119330000Y54000000D03*
X118310000Y54000000D03*
%TD*%
D50*
%TO.C,U91*%
X70435000Y98050000D03*
X70435000Y99000000D03*
X70435000Y99950000D03*
X68160000Y99950000D03*
X68160000Y99000000D03*
X68160000Y98050000D03*
%TD*%
D19*
%TO.C,R126*%
X47330000Y34000000D03*
X46310000Y34000000D03*
%TD*%
%TO.C,R238*%
X117330000Y41200000D03*
X116310000Y41200000D03*
%TD*%
%TO.C,R264*%
X119330000Y32400000D03*
X118310000Y32400000D03*
%TD*%
D51*
%TO.C,U90*%
X76675000Y92200000D03*
D52*
X76625000Y91700000D03*
X76625000Y91200000D03*
X77775000Y91200000D03*
X77775000Y91700000D03*
X77775000Y92200000D03*
%TD*%
D19*
%TO.C,R236*%
X117330000Y42800000D03*
X116310000Y42800000D03*
%TD*%
D20*
%TO.C,R29*%
X32670000Y49200000D03*
X33690000Y49200000D03*
%TD*%
D21*
%TO.C,C127*%
X118130000Y90500000D03*
X117170000Y90500000D03*
%TD*%
D20*
%TO.C,R41*%
X30670000Y46000000D03*
X31690000Y46000000D03*
%TD*%
D53*
%TO.C,C98*%
X61325000Y96350000D03*
X62875000Y96350000D03*
%TD*%
D25*
%TO.C,U77*%
X128212500Y43099999D03*
X128212500Y42449999D03*
X128212500Y41799999D03*
X128212500Y41149999D03*
X128212500Y40499999D03*
X128212500Y39849999D03*
X128212500Y39199999D03*
X128212500Y38549999D03*
X133937500Y38549999D03*
X133937500Y39199999D03*
X133937500Y39849999D03*
X133937500Y40499999D03*
X133937500Y41149999D03*
X133937500Y41799999D03*
X133937500Y42449999D03*
X133937500Y43099999D03*
%TD*%
D54*
%TO.C,R269*%
X25000000Y104962500D03*
X25000000Y102037500D03*
%TD*%
D19*
%TO.C,R266*%
X119330000Y30800000D03*
X118310000Y30800000D03*
%TD*%
D20*
%TO.C,R173*%
X102670000Y42000000D03*
X103690000Y42000000D03*
%TD*%
D45*
%TO.C,U22*%
X21787500Y31325000D03*
X21787500Y31975000D03*
X21787500Y32625000D03*
X21787500Y33275000D03*
X21787500Y33925000D03*
X21787500Y34575000D03*
X21787500Y35225000D03*
X21787500Y35875000D03*
X16062500Y35875000D03*
X16062500Y35225000D03*
X16062500Y34575000D03*
X16062500Y33925000D03*
X16062500Y33275000D03*
X16062500Y32625000D03*
X16062500Y31975000D03*
X16062500Y31325000D03*
%TD*%
D19*
%TO.C,R100*%
X47330000Y46800000D03*
X46310000Y46800000D03*
%TD*%
D46*
%TO.C,Q2*%
X73250000Y88562500D03*
X75150000Y88562500D03*
X74200000Y90437500D03*
%TD*%
D20*
%TO.C,R157*%
X102670000Y49200000D03*
X103690000Y49200000D03*
%TD*%
D47*
%TO.C,R4*%
X41699999Y85490000D03*
X41699999Y86510000D03*
%TD*%
D20*
%TO.C,R65*%
X30670000Y34800000D03*
X31690000Y34800000D03*
%TD*%
D24*
%TO.C,C9*%
X40130000Y74480000D03*
X40130000Y73520000D03*
%TD*%
D31*
%TO.C,TP1*%
X18250000Y81800000D03*
%TD*%
%TO.C,TP5*%
X49700000Y92200000D03*
%TD*%
D25*
%TO.C,U27*%
X58212500Y57499999D03*
X58212500Y56849999D03*
X58212500Y56199999D03*
X58212500Y55549999D03*
X58212500Y54899999D03*
X58212500Y54249999D03*
X58212500Y53599999D03*
X58212500Y52949999D03*
X63937500Y52949999D03*
X63937500Y53599999D03*
X63937500Y54249999D03*
X63937500Y54899999D03*
X63937500Y55549999D03*
X63937500Y56199999D03*
X63937500Y56849999D03*
X63937500Y57499999D03*
%TD*%
D24*
%TO.C,C109*%
X60300000Y93080000D03*
X60300000Y92120000D03*
%TD*%
D19*
%TO.C,R240*%
X119330000Y42800000D03*
X118310000Y42800000D03*
%TD*%
%TO.C,R78*%
X47330000Y55600000D03*
X46310000Y55600000D03*
%TD*%
D20*
%TO.C,R199*%
X100670000Y33200000D03*
X101690000Y33200000D03*
%TD*%
D21*
%TO.C,C40*%
X63967500Y58725000D03*
X63007500Y58725000D03*
%TD*%
%TO.C,C45*%
X63967500Y51525000D03*
X63007500Y51525000D03*
%TD*%
D19*
%TO.C,R208*%
X119330000Y57200000D03*
X118310000Y57200000D03*
%TD*%
D20*
%TO.C,R71*%
X30670000Y33200000D03*
X31690000Y33200000D03*
%TD*%
D21*
%TO.C,C8*%
X35330000Y78100000D03*
X34370000Y78100000D03*
%TD*%
D24*
%TO.C,C96*%
X25100000Y94630000D03*
X25100000Y93670000D03*
%TD*%
D19*
%TO.C,R86*%
X47330000Y52400000D03*
X46310000Y52400000D03*
%TD*%
D20*
%TO.C,R284*%
X121400000Y90846250D03*
X122420000Y90846250D03*
%TD*%
%TO.C,R197*%
X102670000Y31600000D03*
X103690000Y31600000D03*
%TD*%
D31*
%TO.C,TP9*%
X122000000Y107000000D03*
%TD*%
D55*
%TO.C,U86*%
X20150000Y88050000D03*
X19200000Y88050000D03*
X18250000Y88050000D03*
X18250000Y85775000D03*
X19200000Y85775000D03*
X20150000Y85775000D03*
%TD*%
D56*
%TO.C,C101*%
X58050000Y100575000D03*
X58050000Y97625000D03*
%TD*%
D20*
%TO.C,R53*%
X32670000Y38800000D03*
X33690000Y38800000D03*
%TD*%
%TO.C,R33*%
X30670000Y49200000D03*
X31690000Y49200000D03*
%TD*%
D21*
%TO.C,C95*%
X133955000Y37124999D03*
X132995000Y37124999D03*
%TD*%
D45*
%TO.C,U62*%
X91787500Y31350000D03*
X91787500Y32000000D03*
X91787500Y32650000D03*
X91787500Y33300000D03*
X91787500Y33950000D03*
X91787500Y34600000D03*
X91787500Y35250000D03*
X91787500Y35900000D03*
X86062500Y35900000D03*
X86062500Y35250000D03*
X86062500Y34600000D03*
X86062500Y33950000D03*
X86062500Y33300000D03*
X86062500Y32650000D03*
X86062500Y32000000D03*
X86062500Y31350000D03*
%TD*%
D19*
%TO.C,R287*%
X122430000Y85146250D03*
X121410000Y85146250D03*
%TD*%
D30*
%TO.C,C97*%
X63300000Y101625000D03*
X63300000Y104575000D03*
%TD*%
D19*
%TO.C,R212*%
X117330000Y54000000D03*
X116310000Y54000000D03*
%TD*%
%TO.C,R206*%
X117330000Y55600000D03*
X116310000Y55600000D03*
%TD*%
D57*
%TO.C,U83*%
X26400000Y92225000D03*
X27350000Y92225000D03*
X28300000Y92225000D03*
X28300000Y94500000D03*
X26400000Y94500000D03*
%TD*%
D31*
%TO.C,TP10*%
X30650000Y68400000D03*
%TD*%
D32*
%TO.C,C108*%
X68775000Y96062500D03*
X67225000Y96062500D03*
%TD*%
D25*
%TO.C,U67*%
X128212500Y57499999D03*
X128212500Y56849999D03*
X128212500Y56199999D03*
X128212500Y55549999D03*
X128212500Y54899999D03*
X128212500Y54249999D03*
X128212500Y53599999D03*
X128212500Y52949999D03*
X133937500Y52949999D03*
X133937500Y53599999D03*
X133937500Y54249999D03*
X133937500Y54899999D03*
X133937500Y55549999D03*
X133937500Y56199999D03*
X133937500Y56849999D03*
X133937500Y57499999D03*
%TD*%
D22*
%TO.C,R274*%
X65100000Y94310000D03*
X65100000Y93290000D03*
%TD*%
D19*
%TO.C,R244*%
X117330000Y39600000D03*
X116310000Y39600000D03*
%TD*%
%TO.C,R102*%
X47330000Y45200000D03*
X46310000Y45200000D03*
%TD*%
D39*
%TO.C,C4*%
X43839999Y84335000D03*
X43839999Y85885000D03*
%TD*%
D23*
%TO.C,C75*%
X86045000Y30225000D03*
X87005000Y30225000D03*
%TD*%
D58*
%TO.C,U1*%
X31025000Y85912500D03*
X32295000Y85912500D03*
X33565000Y85912500D03*
X34835000Y85912500D03*
X34835000Y93087500D03*
X33565000Y93087500D03*
X32295000Y93087500D03*
X31025000Y93087500D03*
%TD*%
D21*
%TO.C,C55*%
X63967500Y37125000D03*
X63007500Y37125000D03*
%TD*%
D20*
%TO.C,R17*%
X30670000Y56400000D03*
X31690000Y56400000D03*
%TD*%
D19*
%TO.C,R230*%
X117330000Y45200000D03*
X116310000Y45200000D03*
%TD*%
D59*
%TO.C,TP13*%
X90400000Y110700000D03*
%TD*%
D47*
%TO.C,R276*%
X71900000Y99490000D03*
X71900000Y100510000D03*
%TD*%
D19*
%TO.C,R3*%
X46460000Y75750000D03*
X45440000Y75750000D03*
%TD*%
D31*
%TO.C,TP4*%
X62700000Y89100000D03*
%TD*%
D20*
%TO.C,R167*%
X100670000Y47600000D03*
X101690000Y47600000D03*
%TD*%
D14*
%TO.C,H1*%
X4000000Y4000000D03*
%TD*%
D19*
%TO.C,R92*%
X47330000Y50000000D03*
X46310000Y50000000D03*
%TD*%
D45*
%TO.C,U47*%
X91787500Y52950000D03*
X91787500Y53600000D03*
X91787500Y54250000D03*
X91787500Y54900000D03*
X91787500Y55550000D03*
X91787500Y56200000D03*
X91787500Y56850000D03*
X91787500Y57500000D03*
X86062500Y57500000D03*
X86062500Y56850000D03*
X86062500Y56200000D03*
X86062500Y55550000D03*
X86062500Y54900000D03*
X86062500Y54250000D03*
X86062500Y53600000D03*
X86062500Y52950000D03*
%TD*%
D20*
%TO.C,R8*%
X42640000Y73700000D03*
X43660000Y73700000D03*
%TD*%
D60*
%TO.C,Y1*%
X35340000Y70580000D03*
X35340000Y72780000D03*
X33740000Y72780000D03*
X33740000Y70580000D03*
%TD*%
D20*
%TO.C,R191*%
X100670000Y36400000D03*
X101690000Y36400000D03*
%TD*%
D24*
%TO.C,C107*%
X65100000Y92280000D03*
X65100000Y91320000D03*
%TD*%
D20*
%TO.C,R25*%
X30670000Y53200000D03*
X31690000Y53200000D03*
%TD*%
%TO.C,R59*%
X32670000Y36400000D03*
X33690000Y36400000D03*
%TD*%
%TO.C,R181*%
X102670000Y38800000D03*
X103690000Y38800000D03*
%TD*%
D61*
%TO.C,U87*%
X23000000Y84800000D03*
X23500000Y84800000D03*
X24000000Y84800000D03*
X24500000Y84800000D03*
X25000000Y84800000D03*
X25000000Y89025000D03*
X24500000Y89025000D03*
X24000000Y89025000D03*
X23500000Y89025000D03*
X23000000Y89025000D03*
%TD*%
D19*
%TO.C,R271*%
X76510000Y106600000D03*
X75490000Y106600000D03*
%TD*%
D35*
%TO.C,C13*%
X40769999Y85520000D03*
X40769999Y86480000D03*
%TD*%
D23*
%TO.C,C12*%
X44490000Y83020000D03*
X45450000Y83020000D03*
%TD*%
D19*
%TO.C,R234*%
X119330000Y45200000D03*
X118310000Y45200000D03*
%TD*%
D20*
%TO.C,R143*%
X100670000Y58000000D03*
X101690000Y58000000D03*
%TD*%
D19*
%TO.C,R120*%
X49330000Y39600000D03*
X48310000Y39600000D03*
%TD*%
D22*
%TO.C,R1*%
X31300000Y27810000D03*
X31300000Y26790000D03*
%TD*%
D62*
%TO.C,SW3*%
X130460000Y107000000D03*
D63*
X133000000Y107000000D03*
X135540000Y107000000D03*
X130460000Y112080000D03*
X135540000Y112080000D03*
%TD*%
D22*
%TO.C,R289*%
X112950000Y90460000D03*
X112950000Y89440000D03*
%TD*%
D20*
%TO.C,R141*%
X102670000Y56400000D03*
X103690000Y56400000D03*
%TD*%
D19*
%TO.C,R138*%
X49330000Y30800000D03*
X48310000Y30800000D03*
%TD*%
D22*
%TO.C,R6*%
X39200000Y74510000D03*
X39200000Y73490000D03*
%TD*%
D64*
%TO.C,C122*%
X112350000Y107475000D03*
X112350000Y105925000D03*
%TD*%
D35*
%TO.C,C125*%
X115070000Y89516250D03*
X115070000Y90476250D03*
%TD*%
D20*
%TO.C,R282*%
X105477500Y95750000D03*
X106497500Y95750000D03*
%TD*%
%TO.C,R13*%
X32670000Y56400000D03*
X33690000Y56400000D03*
%TD*%
D14*
%TO.C,H2*%
X4000000Y116000000D03*
%TD*%
D20*
%TO.C,R145*%
X100670000Y56400000D03*
X101690000Y56400000D03*
%TD*%
D27*
%TO.C,D3*%
X74050000Y102600000D03*
X77350000Y102600000D03*
%TD*%
D24*
%TO.C,C111*%
X79000000Y92180000D03*
X79000000Y91220000D03*
%TD*%
D19*
%TO.C,R226*%
X119340000Y48400000D03*
X118320000Y48400000D03*
%TD*%
D20*
%TO.C,R57*%
X30670000Y38800000D03*
X31690000Y38800000D03*
%TD*%
D31*
%TO.C,TP7*%
X90500000Y86800000D03*
%TD*%
D21*
%TO.C,C80*%
X133955000Y58724999D03*
X132995000Y58724999D03*
%TD*%
D35*
%TO.C,C2*%
X36800000Y72420000D03*
X36800000Y73380000D03*
%TD*%
D20*
%TO.C,R283*%
X109190000Y95887500D03*
X110210000Y95887500D03*
%TD*%
D23*
%TO.C,C30*%
X16020000Y37400000D03*
X16980000Y37400000D03*
%TD*%
%TO.C,C25*%
X16020000Y44600000D03*
X16980000Y44600000D03*
%TD*%
%TO.C,C60*%
X86045000Y51825000D03*
X87005000Y51825000D03*
%TD*%
D20*
%TO.C,R195*%
X102670000Y33200000D03*
X103690000Y33200000D03*
%TD*%
D23*
%TO.C,C35*%
X16020000Y30200000D03*
X16980000Y30200000D03*
%TD*%
D20*
%TO.C,R201*%
X100670000Y31600000D03*
X101690000Y31600000D03*
%TD*%
%TO.C,R189*%
X102670000Y34800000D03*
X103690000Y34800000D03*
%TD*%
D19*
%TO.C,R218*%
X119330000Y52400000D03*
X118310000Y52400000D03*
%TD*%
D31*
%TO.C,J5*%
X25000000Y107600000D03*
D65*
X28800000Y115400000D03*
X21200000Y115400000D03*
%TD*%
D53*
%TO.C,C126*%
X100875000Y104600000D03*
X102425000Y104600000D03*
%TD*%
D39*
%TO.C,C124*%
X112450000Y102775000D03*
X112450000Y104325000D03*
%TD*%
D35*
%TO.C,C114*%
X66710000Y97970000D03*
X66710000Y98930000D03*
%TD*%
D19*
%TO.C,R94*%
X47330000Y48400000D03*
X46310000Y48400000D03*
%TD*%
%TO.C,R267*%
X58610000Y96100000D03*
X57590000Y96100000D03*
%TD*%
D20*
%TO.C,R31*%
X30670000Y50800000D03*
X31690000Y50800000D03*
%TD*%
D66*
%TO.C,U93*%
X116682500Y89096250D03*
X116682500Y88146250D03*
X116682500Y87196250D03*
X118957500Y87196250D03*
X118957500Y89096250D03*
%TD*%
D31*
%TO.C,TP12*%
X47600000Y84500000D03*
%TD*%
%TO.C,TP3*%
X69860000Y104990000D03*
%TD*%
D67*
%TO.C,U85*%
X62475000Y100075000D03*
X61975000Y100075000D03*
X61475000Y100075000D03*
X60975000Y100075000D03*
X60975000Y98175000D03*
X61475000Y98175000D03*
X61975000Y98175000D03*
X62475000Y98175000D03*
D68*
X61725000Y99125000D03*
%TD*%
D47*
%TO.C,R5*%
X42639999Y85490000D03*
X42639999Y86510000D03*
%TD*%
D20*
%TO.C,R61*%
X32670000Y34800000D03*
X33690000Y34800000D03*
%TD*%
D27*
%TO.C,D2*%
X28000000Y102000000D03*
X31300000Y102000000D03*
%TD*%
D19*
%TO.C,R285*%
X122430000Y92046250D03*
X121410000Y92046250D03*
%TD*%
%TO.C,R82*%
X49340000Y55600000D03*
X48320000Y55600000D03*
%TD*%
D47*
%TO.C,R277*%
X71900000Y101690000D03*
X71900000Y102710000D03*
%TD*%
D55*
%TO.C,U88*%
X68750000Y94000000D03*
X67800000Y94000000D03*
X66850000Y94000000D03*
X66850000Y91725000D03*
X68750000Y91725000D03*
%TD*%
D20*
%TO.C,R187*%
X102670000Y36400000D03*
X103690000Y36400000D03*
%TD*%
D19*
%TO.C,R250*%
X119330000Y38000000D03*
X118310000Y38000000D03*
%TD*%
%TO.C,R275*%
X87795000Y97160000D03*
X86775000Y97160000D03*
%TD*%
D20*
%TO.C,R155*%
X102670000Y50800000D03*
X103690000Y50800000D03*
%TD*%
%TO.C,R185*%
X100670000Y38800000D03*
X101690000Y38800000D03*
%TD*%
%TO.C,R163*%
X102670000Y47600000D03*
X103690000Y47600000D03*
%TD*%
D19*
%TO.C,R122*%
X49330000Y38000000D03*
X48310000Y38000000D03*
%TD*%
D46*
%TO.C,U89*%
X61750000Y91862500D03*
X63650000Y91862500D03*
X62700000Y93737500D03*
%TD*%
D20*
%TO.C,R139*%
X102670000Y58000000D03*
X103690000Y58000000D03*
%TD*%
D69*
%TO.C,D5*%
X83300000Y117387500D03*
X83300000Y115812500D03*
%TD*%
D19*
%TO.C,R114*%
X49340000Y41200000D03*
X48320000Y41200000D03*
%TD*%
D20*
%TO.C,R281*%
X76690000Y93300000D03*
X77710000Y93300000D03*
%TD*%
D19*
%TO.C,R84*%
X47330000Y54000000D03*
X46310000Y54000000D03*
%TD*%
D34*
%TO.C,C119*%
X106875000Y107000000D03*
X109825000Y107000000D03*
%TD*%
D20*
%TO.C,R151*%
X100670000Y54800000D03*
X101690000Y54800000D03*
%TD*%
%TO.C,R15*%
X30670000Y58000000D03*
X31690000Y58000000D03*
%TD*%
D19*
%TO.C,R110*%
X47330000Y41200000D03*
X46310000Y41200000D03*
%TD*%
D20*
%TO.C,R19*%
X32670000Y54800000D03*
X33690000Y54800000D03*
%TD*%
D14*
%TO.C,H3*%
X146000000Y116000000D03*
%TD*%
D19*
%TO.C,R254*%
X117330000Y34000000D03*
X116310000Y34000000D03*
%TD*%
D35*
%TO.C,C103*%
X19200000Y89530000D03*
X19200000Y90490000D03*
%TD*%
D19*
%TO.C,R90*%
X49330000Y52400000D03*
X48310000Y52400000D03*
%TD*%
D20*
%TO.C,R147*%
X102670000Y54800000D03*
X103690000Y54800000D03*
%TD*%
D59*
%TO.C,TP11*%
X95600000Y110700000D03*
%TD*%
D31*
%TO.C,TP15*%
X33825000Y99005000D03*
%TD*%
D19*
%TO.C,R108*%
X47330000Y42800000D03*
X46310000Y42800000D03*
%TD*%
D20*
%TO.C,R183*%
X100670000Y40400000D03*
X101690000Y40400000D03*
%TD*%
D32*
%TO.C,C120*%
X108475000Y104750000D03*
X106925000Y104750000D03*
%TD*%
D20*
%TO.C,R39*%
X30670000Y47600000D03*
X31690000Y47600000D03*
%TD*%
D70*
%TO.C,J1*%
X54420000Y73600000D03*
X54420000Y78650000D03*
X56960000Y73600000D03*
X56960000Y78650000D03*
X59500000Y73600000D03*
X59500000Y78650000D03*
X62040000Y73600000D03*
X62040000Y78650000D03*
%TD*%
D71*
%TO.C,J6*%
X77890000Y114685000D03*
X72110000Y114685000D03*
D72*
X78200000Y113610000D03*
X77400000Y113610000D03*
D73*
X76250000Y113610000D03*
X75250000Y113610000D03*
X74750000Y113610000D03*
X73750000Y113610000D03*
D72*
X72600000Y113610000D03*
X71800000Y113610000D03*
X71800000Y113610000D03*
X72600000Y113610000D03*
D73*
X73250000Y113610000D03*
X74250000Y113610000D03*
X75750000Y113610000D03*
X76750000Y113610000D03*
D72*
X77400000Y113610000D03*
X78200000Y113610000D03*
D74*
X79320000Y114185000D03*
D75*
X79320000Y118365000D03*
D74*
X70680000Y114185000D03*
D75*
X70680000Y118365000D03*
%TD*%
D20*
%TO.C,R73*%
X30670000Y31600000D03*
X31690000Y31600000D03*
%TD*%
D19*
%TO.C,R260*%
X117330000Y32400000D03*
X116310000Y32400000D03*
%TD*%
%TO.C,R130*%
X49340000Y34000000D03*
X48320000Y34000000D03*
%TD*%
%TO.C,R104*%
X49330000Y46800000D03*
X48310000Y46800000D03*
%TD*%
D34*
%TO.C,C115*%
X79325000Y102700000D03*
X82275000Y102700000D03*
%TD*%
D20*
%TO.C,R49*%
X30670000Y42000000D03*
X31690000Y42000000D03*
%TD*%
D19*
%TO.C,R88*%
X49330000Y54000000D03*
X48310000Y54000000D03*
%TD*%
D46*
%TO.C,Q5*%
X108700000Y97612500D03*
X110600000Y97612500D03*
X109650000Y99487500D03*
%TD*%
D19*
%TO.C,R246*%
X117330000Y38000000D03*
X116310000Y38000000D03*
%TD*%
%TO.C,R248*%
X119330000Y39600000D03*
X118310000Y39600000D03*
%TD*%
D21*
%TO.C,C7*%
X35330000Y82500000D03*
X34370000Y82500000D03*
%TD*%
D20*
%TO.C,R10*%
X32240000Y81200000D03*
X33260000Y81200000D03*
%TD*%
D19*
%TO.C,R118*%
X47330000Y38000000D03*
X46310000Y38000000D03*
%TD*%
D14*
%TO.C,H4*%
X146000000Y4000000D03*
%TD*%
D20*
%TO.C,R55*%
X30670000Y40400000D03*
X31690000Y40400000D03*
%TD*%
%TO.C,R193*%
X100670000Y34800000D03*
X101690000Y34800000D03*
%TD*%
D25*
%TO.C,U82*%
X128212500Y35899999D03*
X128212500Y35249999D03*
X128212500Y34599999D03*
X128212500Y33949999D03*
X128212500Y33299999D03*
X128212500Y32649999D03*
X128212500Y31999999D03*
X128212500Y31349999D03*
X133937500Y31349999D03*
X133937500Y31999999D03*
X133937500Y32649999D03*
X133937500Y33299999D03*
X133937500Y33949999D03*
X133937500Y34599999D03*
X133937500Y35249999D03*
X133937500Y35899999D03*
%TD*%
D22*
%TO.C,R268*%
X59900000Y98960000D03*
X59900000Y97940000D03*
%TD*%
D76*
%TO.C,Q3*%
X74925000Y92975000D03*
X74925000Y94875000D03*
X73050000Y93925000D03*
%TD*%
D19*
%TO.C,R252*%
X117330000Y35600000D03*
X116310000Y35600000D03*
%TD*%
M02*
