%TF.GenerationSoftware,KiCad,Pcbnew,10.0.3*%
%TF.CreationDate,2026-09-21T22:20:01+01:00*%
%TF.ProjectId,ephys-test-board,65706879-732d-4746-9573-742d626f6172,H*%
%TF.SameCoordinates,PX7735940PYa6e49c0*%
%TF.FileFunction,Legend,Bot*%
%TF.FilePolarity,Positive*%
%FSLAX46Y46*%
G04 Gerber Fmt 4.6, Leading zero omitted, Abs format (unit mm)*
G04 Created by KiCad (PCBNEW 10.0.3) date 2026-09-21 22:20:01*
%MOMM*%
%LPD*%
G01*
G04 APERTURE LIST*
G04 Aperture macros list*
%AMRoundRect*
0 Rectangle with rounded corners*
0 $1 Rounding radius*
0 $2 $3 $4 $5 $6 $7 $8 $9 X,Y pos of 4 corners*
0 Add a 4 corners polygon primitive as box body*
4,1,4,$2,$3,$4,$5,$6,$7,$8,$9,$2,$3,0*
0 Add four circle primitives for the rounded corners*
1,1,$1+$1,$2,$3*
1,1,$1+$1,$4,$5*
1,1,$1+$1,$6,$7*
1,1,$1+$1,$8,$9*
0 Add four rect primitives between the rounded corners*
20,1,$1+$1,$2,$3,$4,$5,0*
20,1,$1+$1,$4,$5,$6,$7,0*
20,1,$1+$1,$6,$7,$8,$9,0*
20,1,$1+$1,$8,$9,$2,$3,0*%
G04 Aperture macros list end*
%ADD10C,0.150000*%
%ADD11C,0.300000*%
%ADD12C,0.120000*%
%ADD13C,0.000000*%
%ADD14C,1.016000*%
%ADD15C,2.100000*%
%ADD16C,1.750000*%
%ADD17RoundRect,0.250000X-0.550000X-0.550000X0.550000X-0.550000X0.550000X0.550000X-0.550000X0.550000X0*%
%ADD18C,1.600000*%
%ADD19O,4.100000X3.000000*%
%ADD20C,5.700000*%
%ADD21C,3.000000*%
%ADD22RoundRect,0.102000X-0.900000X-0.900000X0.900000X-0.900000X0.900000X0.900000X-0.900000X0.900000X0*%
%ADD23C,2.004000*%
%ADD24C,2.000000*%
%ADD25C,3.500000*%
%ADD26C,0.650000*%
%ADD27O,1.000000X2.100000*%
%ADD28O,1.000000X1.800000*%
%ADD29RoundRect,0.135000X-0.135000X-0.185000X0.135000X-0.185000X0.135000X0.185000X-0.135000X0.185000X0*%
%ADD30RoundRect,0.140000X-0.140000X-0.170000X0.140000X-0.170000X0.140000X0.170000X-0.140000X0.170000X0*%
%ADD31RoundRect,0.135000X0.135000X0.185000X-0.135000X0.185000X-0.135000X-0.185000X0.135000X-0.185000X0*%
%ADD32RoundRect,0.140000X0.140000X0.170000X-0.140000X0.170000X-0.140000X-0.170000X0.140000X-0.170000X0*%
%ADD33R,0.300000X1.300000*%
%ADD34R,1.800000X2.200000*%
%ADD35RoundRect,0.250000X0.250000X1.500000X-0.250000X1.500000X-0.250000X-1.500000X0.250000X-1.500000X0*%
%ADD36RoundRect,0.250001X0.499999X1.449999X-0.499999X1.449999X-0.499999X-1.449999X0.499999X-1.449999X0*%
G04 APERTURE END LIST*
D10*
X7800000Y104900000D02*
X81100000Y104900000D01*
X81100000Y70000000D01*
X7800000Y70000000D01*
X7800000Y104900000D01*
D11*
X89828571Y113606900D02*
X90971429Y113606900D01*
X95028571Y113706900D02*
X96171429Y113706900D01*
X95600000Y114278329D02*
X95600000Y113135472D01*
D10*
X125078571Y43152159D02*
X125121428Y43109301D01*
X125121428Y43109301D02*
X125250000Y43066444D01*
X125250000Y43066444D02*
X125335714Y43066444D01*
X125335714Y43066444D02*
X125464285Y43109301D01*
X125464285Y43109301D02*
X125550000Y43195016D01*
X125550000Y43195016D02*
X125592857Y43280730D01*
X125592857Y43280730D02*
X125635714Y43452159D01*
X125635714Y43452159D02*
X125635714Y43580730D01*
X125635714Y43580730D02*
X125592857Y43752159D01*
X125592857Y43752159D02*
X125550000Y43837873D01*
X125550000Y43837873D02*
X125464285Y43923587D01*
X125464285Y43923587D02*
X125335714Y43966444D01*
X125335714Y43966444D02*
X125250000Y43966444D01*
X125250000Y43966444D02*
X125121428Y43923587D01*
X125121428Y43923587D02*
X125078571Y43880730D01*
X124564285Y43580730D02*
X124650000Y43623587D01*
X124650000Y43623587D02*
X124692857Y43666444D01*
X124692857Y43666444D02*
X124735714Y43752159D01*
X124735714Y43752159D02*
X124735714Y43795016D01*
X124735714Y43795016D02*
X124692857Y43880730D01*
X124692857Y43880730D02*
X124650000Y43923587D01*
X124650000Y43923587D02*
X124564285Y43966444D01*
X124564285Y43966444D02*
X124392857Y43966444D01*
X124392857Y43966444D02*
X124307143Y43923587D01*
X124307143Y43923587D02*
X124264285Y43880730D01*
X124264285Y43880730D02*
X124221428Y43795016D01*
X124221428Y43795016D02*
X124221428Y43752159D01*
X124221428Y43752159D02*
X124264285Y43666444D01*
X124264285Y43666444D02*
X124307143Y43623587D01*
X124307143Y43623587D02*
X124392857Y43580730D01*
X124392857Y43580730D02*
X124564285Y43580730D01*
X124564285Y43580730D02*
X124650000Y43537873D01*
X124650000Y43537873D02*
X124692857Y43495016D01*
X124692857Y43495016D02*
X124735714Y43409301D01*
X124735714Y43409301D02*
X124735714Y43237873D01*
X124735714Y43237873D02*
X124692857Y43152159D01*
X124692857Y43152159D02*
X124650000Y43109301D01*
X124650000Y43109301D02*
X124564285Y43066444D01*
X124564285Y43066444D02*
X124392857Y43066444D01*
X124392857Y43066444D02*
X124307143Y43109301D01*
X124307143Y43109301D02*
X124264285Y43152159D01*
X124264285Y43152159D02*
X124221428Y43237873D01*
X124221428Y43237873D02*
X124221428Y43409301D01*
X124221428Y43409301D02*
X124264285Y43495016D01*
X124264285Y43495016D02*
X124307143Y43537873D01*
X124307143Y43537873D02*
X124392857Y43580730D01*
X123450000Y43666444D02*
X123450000Y43066444D01*
X123664285Y44009301D02*
X123878571Y43366444D01*
X123878571Y43366444D02*
X123321428Y43366444D01*
X55078571Y43152159D02*
X55121428Y43109301D01*
X55121428Y43109301D02*
X55250000Y43066444D01*
X55250000Y43066444D02*
X55335714Y43066444D01*
X55335714Y43066444D02*
X55464285Y43109301D01*
X55464285Y43109301D02*
X55550000Y43195016D01*
X55550000Y43195016D02*
X55592857Y43280730D01*
X55592857Y43280730D02*
X55635714Y43452159D01*
X55635714Y43452159D02*
X55635714Y43580730D01*
X55635714Y43580730D02*
X55592857Y43752159D01*
X55592857Y43752159D02*
X55550000Y43837873D01*
X55550000Y43837873D02*
X55464285Y43923587D01*
X55464285Y43923587D02*
X55335714Y43966444D01*
X55335714Y43966444D02*
X55250000Y43966444D01*
X55250000Y43966444D02*
X55121428Y43923587D01*
X55121428Y43923587D02*
X55078571Y43880730D01*
X54307143Y43666444D02*
X54307143Y43066444D01*
X54521428Y44009301D02*
X54735714Y43366444D01*
X54735714Y43366444D02*
X54178571Y43366444D01*
X53450000Y43666444D02*
X53450000Y43066444D01*
X53664285Y44009301D02*
X53878571Y43366444D01*
X53878571Y43366444D02*
X53321428Y43366444D01*
X96078571Y59337158D02*
X96121428Y59294300D01*
X96121428Y59294300D02*
X96250000Y59251443D01*
X96250000Y59251443D02*
X96335714Y59251443D01*
X96335714Y59251443D02*
X96464285Y59294300D01*
X96464285Y59294300D02*
X96550000Y59380015D01*
X96550000Y59380015D02*
X96592857Y59465729D01*
X96592857Y59465729D02*
X96635714Y59637158D01*
X96635714Y59637158D02*
X96635714Y59765729D01*
X96635714Y59765729D02*
X96592857Y59937158D01*
X96592857Y59937158D02*
X96550000Y60022872D01*
X96550000Y60022872D02*
X96464285Y60108586D01*
X96464285Y60108586D02*
X96335714Y60151443D01*
X96335714Y60151443D02*
X96250000Y60151443D01*
X96250000Y60151443D02*
X96121428Y60108586D01*
X96121428Y60108586D02*
X96078571Y60065729D01*
X95264285Y60151443D02*
X95692857Y60151443D01*
X95692857Y60151443D02*
X95735714Y59722872D01*
X95735714Y59722872D02*
X95692857Y59765729D01*
X95692857Y59765729D02*
X95607143Y59808586D01*
X95607143Y59808586D02*
X95392857Y59808586D01*
X95392857Y59808586D02*
X95307143Y59765729D01*
X95307143Y59765729D02*
X95264285Y59722872D01*
X95264285Y59722872D02*
X95221428Y59637158D01*
X95221428Y59637158D02*
X95221428Y59422872D01*
X95221428Y59422872D02*
X95264285Y59337158D01*
X95264285Y59337158D02*
X95307143Y59294300D01*
X95307143Y59294300D02*
X95392857Y59251443D01*
X95392857Y59251443D02*
X95607143Y59251443D01*
X95607143Y59251443D02*
X95692857Y59294300D01*
X95692857Y59294300D02*
X95735714Y59337158D01*
X94450000Y60151443D02*
X94621428Y60151443D01*
X94621428Y60151443D02*
X94707142Y60108586D01*
X94707142Y60108586D02*
X94750000Y60065729D01*
X94750000Y60065729D02*
X94835714Y59937158D01*
X94835714Y59937158D02*
X94878571Y59765729D01*
X94878571Y59765729D02*
X94878571Y59422872D01*
X94878571Y59422872D02*
X94835714Y59337158D01*
X94835714Y59337158D02*
X94792857Y59294300D01*
X94792857Y59294300D02*
X94707142Y59251443D01*
X94707142Y59251443D02*
X94535714Y59251443D01*
X94535714Y59251443D02*
X94450000Y59294300D01*
X94450000Y59294300D02*
X94407142Y59337158D01*
X94407142Y59337158D02*
X94364285Y59422872D01*
X94364285Y59422872D02*
X94364285Y59637158D01*
X94364285Y59637158D02*
X94407142Y59722872D01*
X94407142Y59722872D02*
X94450000Y59765729D01*
X94450000Y59765729D02*
X94535714Y59808586D01*
X94535714Y59808586D02*
X94707142Y59808586D01*
X94707142Y59808586D02*
X94792857Y59765729D01*
X94792857Y59765729D02*
X94835714Y59722872D01*
X94835714Y59722872D02*
X94878571Y59637158D01*
X55078571Y53977158D02*
X55121428Y53934300D01*
X55121428Y53934300D02*
X55250000Y53891443D01*
X55250000Y53891443D02*
X55335714Y53891443D01*
X55335714Y53891443D02*
X55464285Y53934300D01*
X55464285Y53934300D02*
X55550000Y54020015D01*
X55550000Y54020015D02*
X55592857Y54105729D01*
X55592857Y54105729D02*
X55635714Y54277158D01*
X55635714Y54277158D02*
X55635714Y54405729D01*
X55635714Y54405729D02*
X55592857Y54577158D01*
X55592857Y54577158D02*
X55550000Y54662872D01*
X55550000Y54662872D02*
X55464285Y54748586D01*
X55464285Y54748586D02*
X55335714Y54791443D01*
X55335714Y54791443D02*
X55250000Y54791443D01*
X55250000Y54791443D02*
X55121428Y54748586D01*
X55121428Y54748586D02*
X55078571Y54705729D01*
X54778571Y54791443D02*
X54221428Y54791443D01*
X54221428Y54791443D02*
X54521428Y54448586D01*
X54521428Y54448586D02*
X54392857Y54448586D01*
X54392857Y54448586D02*
X54307143Y54405729D01*
X54307143Y54405729D02*
X54264285Y54362872D01*
X54264285Y54362872D02*
X54221428Y54277158D01*
X54221428Y54277158D02*
X54221428Y54062872D01*
X54221428Y54062872D02*
X54264285Y53977158D01*
X54264285Y53977158D02*
X54307143Y53934300D01*
X54307143Y53934300D02*
X54392857Y53891443D01*
X54392857Y53891443D02*
X54650000Y53891443D01*
X54650000Y53891443D02*
X54735714Y53934300D01*
X54735714Y53934300D02*
X54778571Y53977158D01*
X53921428Y54791443D02*
X53321428Y54791443D01*
X53321428Y54791443D02*
X53707142Y53891443D01*
X113949999Y104191443D02*
X113949999Y103548586D01*
X113949999Y103548586D02*
X113992856Y103420015D01*
X113992856Y103420015D02*
X114078570Y103334300D01*
X114078570Y103334300D02*
X114207142Y103291443D01*
X114207142Y103291443D02*
X114292856Y103291443D01*
X113392856Y103805729D02*
X113478571Y103848586D01*
X113478571Y103848586D02*
X113521428Y103891443D01*
X113521428Y103891443D02*
X113564285Y103977158D01*
X113564285Y103977158D02*
X113564285Y104020015D01*
X113564285Y104020015D02*
X113521428Y104105729D01*
X113521428Y104105729D02*
X113478571Y104148586D01*
X113478571Y104148586D02*
X113392856Y104191443D01*
X113392856Y104191443D02*
X113221428Y104191443D01*
X113221428Y104191443D02*
X113135714Y104148586D01*
X113135714Y104148586D02*
X113092856Y104105729D01*
X113092856Y104105729D02*
X113049999Y104020015D01*
X113049999Y104020015D02*
X113049999Y103977158D01*
X113049999Y103977158D02*
X113092856Y103891443D01*
X113092856Y103891443D02*
X113135714Y103848586D01*
X113135714Y103848586D02*
X113221428Y103805729D01*
X113221428Y103805729D02*
X113392856Y103805729D01*
X113392856Y103805729D02*
X113478571Y103762872D01*
X113478571Y103762872D02*
X113521428Y103720015D01*
X113521428Y103720015D02*
X113564285Y103634300D01*
X113564285Y103634300D02*
X113564285Y103462872D01*
X113564285Y103462872D02*
X113521428Y103377158D01*
X113521428Y103377158D02*
X113478571Y103334300D01*
X113478571Y103334300D02*
X113392856Y103291443D01*
X113392856Y103291443D02*
X113221428Y103291443D01*
X113221428Y103291443D02*
X113135714Y103334300D01*
X113135714Y103334300D02*
X113092856Y103377158D01*
X113092856Y103377158D02*
X113049999Y103462872D01*
X113049999Y103462872D02*
X113049999Y103634300D01*
X113049999Y103634300D02*
X113092856Y103720015D01*
X113092856Y103720015D02*
X113135714Y103762872D01*
X113135714Y103762872D02*
X113221428Y103805729D01*
X98678571Y52112158D02*
X98721428Y52069300D01*
X98721428Y52069300D02*
X98850000Y52026443D01*
X98850000Y52026443D02*
X98935714Y52026443D01*
X98935714Y52026443D02*
X99064285Y52069300D01*
X99064285Y52069300D02*
X99150000Y52155015D01*
X99150000Y52155015D02*
X99192857Y52240729D01*
X99192857Y52240729D02*
X99235714Y52412158D01*
X99235714Y52412158D02*
X99235714Y52540729D01*
X99235714Y52540729D02*
X99192857Y52712158D01*
X99192857Y52712158D02*
X99150000Y52797872D01*
X99150000Y52797872D02*
X99064285Y52883586D01*
X99064285Y52883586D02*
X98935714Y52926443D01*
X98935714Y52926443D02*
X98850000Y52926443D01*
X98850000Y52926443D02*
X98721428Y52883586D01*
X98721428Y52883586D02*
X98678571Y52840729D01*
X97907143Y52926443D02*
X98078571Y52926443D01*
X98078571Y52926443D02*
X98164285Y52883586D01*
X98164285Y52883586D02*
X98207143Y52840729D01*
X98207143Y52840729D02*
X98292857Y52712158D01*
X98292857Y52712158D02*
X98335714Y52540729D01*
X98335714Y52540729D02*
X98335714Y52197872D01*
X98335714Y52197872D02*
X98292857Y52112158D01*
X98292857Y52112158D02*
X98250000Y52069300D01*
X98250000Y52069300D02*
X98164285Y52026443D01*
X98164285Y52026443D02*
X97992857Y52026443D01*
X97992857Y52026443D02*
X97907143Y52069300D01*
X97907143Y52069300D02*
X97864285Y52112158D01*
X97864285Y52112158D02*
X97821428Y52197872D01*
X97821428Y52197872D02*
X97821428Y52412158D01*
X97821428Y52412158D02*
X97864285Y52497872D01*
X97864285Y52497872D02*
X97907143Y52540729D01*
X97907143Y52540729D02*
X97992857Y52583586D01*
X97992857Y52583586D02*
X98164285Y52583586D01*
X98164285Y52583586D02*
X98250000Y52540729D01*
X98250000Y52540729D02*
X98292857Y52497872D01*
X98292857Y52497872D02*
X98335714Y52412158D01*
X97478571Y52840729D02*
X97435714Y52883586D01*
X97435714Y52883586D02*
X97350000Y52926443D01*
X97350000Y52926443D02*
X97135714Y52926443D01*
X97135714Y52926443D02*
X97050000Y52883586D01*
X97050000Y52883586D02*
X97007142Y52840729D01*
X97007142Y52840729D02*
X96964285Y52755015D01*
X96964285Y52755015D02*
X96964285Y52669300D01*
X96964285Y52669300D02*
X97007142Y52540729D01*
X97007142Y52540729D02*
X97521428Y52026443D01*
X97521428Y52026443D02*
X96964285Y52026443D01*
X96078571Y34112158D02*
X96121428Y34069300D01*
X96121428Y34069300D02*
X96250000Y34026443D01*
X96250000Y34026443D02*
X96335714Y34026443D01*
X96335714Y34026443D02*
X96464285Y34069300D01*
X96464285Y34069300D02*
X96550000Y34155015D01*
X96550000Y34155015D02*
X96592857Y34240729D01*
X96592857Y34240729D02*
X96635714Y34412158D01*
X96635714Y34412158D02*
X96635714Y34540729D01*
X96635714Y34540729D02*
X96592857Y34712158D01*
X96592857Y34712158D02*
X96550000Y34797872D01*
X96550000Y34797872D02*
X96464285Y34883586D01*
X96464285Y34883586D02*
X96335714Y34926443D01*
X96335714Y34926443D02*
X96250000Y34926443D01*
X96250000Y34926443D02*
X96121428Y34883586D01*
X96121428Y34883586D02*
X96078571Y34840729D01*
X95778571Y34926443D02*
X95178571Y34926443D01*
X95178571Y34926443D02*
X95564285Y34026443D01*
X94921428Y34926443D02*
X94364285Y34926443D01*
X94364285Y34926443D02*
X94664285Y34583586D01*
X94664285Y34583586D02*
X94535714Y34583586D01*
X94535714Y34583586D02*
X94450000Y34540729D01*
X94450000Y34540729D02*
X94407142Y34497872D01*
X94407142Y34497872D02*
X94364285Y34412158D01*
X94364285Y34412158D02*
X94364285Y34197872D01*
X94364285Y34197872D02*
X94407142Y34112158D01*
X94407142Y34112158D02*
X94450000Y34069300D01*
X94450000Y34069300D02*
X94535714Y34026443D01*
X94535714Y34026443D02*
X94792857Y34026443D01*
X94792857Y34026443D02*
X94878571Y34069300D01*
X94878571Y34069300D02*
X94921428Y34112158D01*
X96078571Y52112158D02*
X96121428Y52069300D01*
X96121428Y52069300D02*
X96250000Y52026443D01*
X96250000Y52026443D02*
X96335714Y52026443D01*
X96335714Y52026443D02*
X96464285Y52069300D01*
X96464285Y52069300D02*
X96550000Y52155015D01*
X96550000Y52155015D02*
X96592857Y52240729D01*
X96592857Y52240729D02*
X96635714Y52412158D01*
X96635714Y52412158D02*
X96635714Y52540729D01*
X96635714Y52540729D02*
X96592857Y52712158D01*
X96592857Y52712158D02*
X96550000Y52797872D01*
X96550000Y52797872D02*
X96464285Y52883586D01*
X96464285Y52883586D02*
X96335714Y52926443D01*
X96335714Y52926443D02*
X96250000Y52926443D01*
X96250000Y52926443D02*
X96121428Y52883586D01*
X96121428Y52883586D02*
X96078571Y52840729D01*
X95307143Y52926443D02*
X95478571Y52926443D01*
X95478571Y52926443D02*
X95564285Y52883586D01*
X95564285Y52883586D02*
X95607143Y52840729D01*
X95607143Y52840729D02*
X95692857Y52712158D01*
X95692857Y52712158D02*
X95735714Y52540729D01*
X95735714Y52540729D02*
X95735714Y52197872D01*
X95735714Y52197872D02*
X95692857Y52112158D01*
X95692857Y52112158D02*
X95650000Y52069300D01*
X95650000Y52069300D02*
X95564285Y52026443D01*
X95564285Y52026443D02*
X95392857Y52026443D01*
X95392857Y52026443D02*
X95307143Y52069300D01*
X95307143Y52069300D02*
X95264285Y52112158D01*
X95264285Y52112158D02*
X95221428Y52197872D01*
X95221428Y52197872D02*
X95221428Y52412158D01*
X95221428Y52412158D02*
X95264285Y52497872D01*
X95264285Y52497872D02*
X95307143Y52540729D01*
X95307143Y52540729D02*
X95392857Y52583586D01*
X95392857Y52583586D02*
X95564285Y52583586D01*
X95564285Y52583586D02*
X95650000Y52540729D01*
X95650000Y52540729D02*
X95692857Y52497872D01*
X95692857Y52497872D02*
X95735714Y52412158D01*
X94364285Y52026443D02*
X94878571Y52026443D01*
X94621428Y52026443D02*
X94621428Y52926443D01*
X94621428Y52926443D02*
X94707142Y52797872D01*
X94707142Y52797872D02*
X94792857Y52712158D01*
X94792857Y52712158D02*
X94878571Y52669300D01*
X52478571Y43152159D02*
X52521428Y43109301D01*
X52521428Y43109301D02*
X52650000Y43066444D01*
X52650000Y43066444D02*
X52735714Y43066444D01*
X52735714Y43066444D02*
X52864285Y43109301D01*
X52864285Y43109301D02*
X52950000Y43195016D01*
X52950000Y43195016D02*
X52992857Y43280730D01*
X52992857Y43280730D02*
X53035714Y43452159D01*
X53035714Y43452159D02*
X53035714Y43580730D01*
X53035714Y43580730D02*
X52992857Y43752159D01*
X52992857Y43752159D02*
X52950000Y43837873D01*
X52950000Y43837873D02*
X52864285Y43923587D01*
X52864285Y43923587D02*
X52735714Y43966444D01*
X52735714Y43966444D02*
X52650000Y43966444D01*
X52650000Y43966444D02*
X52521428Y43923587D01*
X52521428Y43923587D02*
X52478571Y43880730D01*
X51707143Y43666444D02*
X51707143Y43066444D01*
X51921428Y44009301D02*
X52135714Y43366444D01*
X52135714Y43366444D02*
X51578571Y43366444D01*
X51321428Y43966444D02*
X50764285Y43966444D01*
X50764285Y43966444D02*
X51064285Y43623587D01*
X51064285Y43623587D02*
X50935714Y43623587D01*
X50935714Y43623587D02*
X50850000Y43580730D01*
X50850000Y43580730D02*
X50807142Y43537873D01*
X50807142Y43537873D02*
X50764285Y43452159D01*
X50764285Y43452159D02*
X50764285Y43237873D01*
X50764285Y43237873D02*
X50807142Y43152159D01*
X50807142Y43152159D02*
X50850000Y43109301D01*
X50850000Y43109301D02*
X50935714Y43066444D01*
X50935714Y43066444D02*
X51192857Y43066444D01*
X51192857Y43066444D02*
X51278571Y43109301D01*
X51278571Y43109301D02*
X51321428Y43152159D01*
X28678571Y34112158D02*
X28721428Y34069300D01*
X28721428Y34069300D02*
X28850000Y34026443D01*
X28850000Y34026443D02*
X28935714Y34026443D01*
X28935714Y34026443D02*
X29064285Y34069300D01*
X29064285Y34069300D02*
X29150000Y34155015D01*
X29150000Y34155015D02*
X29192857Y34240729D01*
X29192857Y34240729D02*
X29235714Y34412158D01*
X29235714Y34412158D02*
X29235714Y34540729D01*
X29235714Y34540729D02*
X29192857Y34712158D01*
X29192857Y34712158D02*
X29150000Y34797872D01*
X29150000Y34797872D02*
X29064285Y34883586D01*
X29064285Y34883586D02*
X28935714Y34926443D01*
X28935714Y34926443D02*
X28850000Y34926443D01*
X28850000Y34926443D02*
X28721428Y34883586D01*
X28721428Y34883586D02*
X28678571Y34840729D01*
X28378571Y34926443D02*
X27821428Y34926443D01*
X27821428Y34926443D02*
X28121428Y34583586D01*
X28121428Y34583586D02*
X27992857Y34583586D01*
X27992857Y34583586D02*
X27907143Y34540729D01*
X27907143Y34540729D02*
X27864285Y34497872D01*
X27864285Y34497872D02*
X27821428Y34412158D01*
X27821428Y34412158D02*
X27821428Y34197872D01*
X27821428Y34197872D02*
X27864285Y34112158D01*
X27864285Y34112158D02*
X27907143Y34069300D01*
X27907143Y34069300D02*
X27992857Y34026443D01*
X27992857Y34026443D02*
X28250000Y34026443D01*
X28250000Y34026443D02*
X28335714Y34069300D01*
X28335714Y34069300D02*
X28378571Y34112158D01*
X27478571Y34840729D02*
X27435714Y34883586D01*
X27435714Y34883586D02*
X27350000Y34926443D01*
X27350000Y34926443D02*
X27135714Y34926443D01*
X27135714Y34926443D02*
X27050000Y34883586D01*
X27050000Y34883586D02*
X27007142Y34840729D01*
X27007142Y34840729D02*
X26964285Y34755015D01*
X26964285Y34755015D02*
X26964285Y34669300D01*
X26964285Y34669300D02*
X27007142Y34540729D01*
X27007142Y34540729D02*
X27521428Y34026443D01*
X27521428Y34026443D02*
X26964285Y34026443D01*
X122478571Y43152159D02*
X122521428Y43109301D01*
X122521428Y43109301D02*
X122650000Y43066444D01*
X122650000Y43066444D02*
X122735714Y43066444D01*
X122735714Y43066444D02*
X122864285Y43109301D01*
X122864285Y43109301D02*
X122950000Y43195016D01*
X122950000Y43195016D02*
X122992857Y43280730D01*
X122992857Y43280730D02*
X123035714Y43452159D01*
X123035714Y43452159D02*
X123035714Y43580730D01*
X123035714Y43580730D02*
X122992857Y43752159D01*
X122992857Y43752159D02*
X122950000Y43837873D01*
X122950000Y43837873D02*
X122864285Y43923587D01*
X122864285Y43923587D02*
X122735714Y43966444D01*
X122735714Y43966444D02*
X122650000Y43966444D01*
X122650000Y43966444D02*
X122521428Y43923587D01*
X122521428Y43923587D02*
X122478571Y43880730D01*
X121964285Y43580730D02*
X122050000Y43623587D01*
X122050000Y43623587D02*
X122092857Y43666444D01*
X122092857Y43666444D02*
X122135714Y43752159D01*
X122135714Y43752159D02*
X122135714Y43795016D01*
X122135714Y43795016D02*
X122092857Y43880730D01*
X122092857Y43880730D02*
X122050000Y43923587D01*
X122050000Y43923587D02*
X121964285Y43966444D01*
X121964285Y43966444D02*
X121792857Y43966444D01*
X121792857Y43966444D02*
X121707143Y43923587D01*
X121707143Y43923587D02*
X121664285Y43880730D01*
X121664285Y43880730D02*
X121621428Y43795016D01*
X121621428Y43795016D02*
X121621428Y43752159D01*
X121621428Y43752159D02*
X121664285Y43666444D01*
X121664285Y43666444D02*
X121707143Y43623587D01*
X121707143Y43623587D02*
X121792857Y43580730D01*
X121792857Y43580730D02*
X121964285Y43580730D01*
X121964285Y43580730D02*
X122050000Y43537873D01*
X122050000Y43537873D02*
X122092857Y43495016D01*
X122092857Y43495016D02*
X122135714Y43409301D01*
X122135714Y43409301D02*
X122135714Y43237873D01*
X122135714Y43237873D02*
X122092857Y43152159D01*
X122092857Y43152159D02*
X122050000Y43109301D01*
X122050000Y43109301D02*
X121964285Y43066444D01*
X121964285Y43066444D02*
X121792857Y43066444D01*
X121792857Y43066444D02*
X121707143Y43109301D01*
X121707143Y43109301D02*
X121664285Y43152159D01*
X121664285Y43152159D02*
X121621428Y43237873D01*
X121621428Y43237873D02*
X121621428Y43409301D01*
X121621428Y43409301D02*
X121664285Y43495016D01*
X121664285Y43495016D02*
X121707143Y43537873D01*
X121707143Y43537873D02*
X121792857Y43580730D01*
X121321428Y43966444D02*
X120764285Y43966444D01*
X120764285Y43966444D02*
X121064285Y43623587D01*
X121064285Y43623587D02*
X120935714Y43623587D01*
X120935714Y43623587D02*
X120850000Y43580730D01*
X120850000Y43580730D02*
X120807142Y43537873D01*
X120807142Y43537873D02*
X120764285Y43452159D01*
X120764285Y43452159D02*
X120764285Y43237873D01*
X120764285Y43237873D02*
X120807142Y43152159D01*
X120807142Y43152159D02*
X120850000Y43109301D01*
X120850000Y43109301D02*
X120935714Y43066444D01*
X120935714Y43066444D02*
X121192857Y43066444D01*
X121192857Y43066444D02*
X121278571Y43109301D01*
X121278571Y43109301D02*
X121321428Y43152159D01*
X26078571Y59337158D02*
X26121428Y59294300D01*
X26121428Y59294300D02*
X26250000Y59251443D01*
X26250000Y59251443D02*
X26335714Y59251443D01*
X26335714Y59251443D02*
X26464285Y59294300D01*
X26464285Y59294300D02*
X26550000Y59380015D01*
X26550000Y59380015D02*
X26592857Y59465729D01*
X26592857Y59465729D02*
X26635714Y59637158D01*
X26635714Y59637158D02*
X26635714Y59765729D01*
X26635714Y59765729D02*
X26592857Y59937158D01*
X26592857Y59937158D02*
X26550000Y60022872D01*
X26550000Y60022872D02*
X26464285Y60108586D01*
X26464285Y60108586D02*
X26335714Y60151443D01*
X26335714Y60151443D02*
X26250000Y60151443D01*
X26250000Y60151443D02*
X26121428Y60108586D01*
X26121428Y60108586D02*
X26078571Y60065729D01*
X25221428Y59251443D02*
X25735714Y59251443D01*
X25478571Y59251443D02*
X25478571Y60151443D01*
X25478571Y60151443D02*
X25564285Y60022872D01*
X25564285Y60022872D02*
X25650000Y59937158D01*
X25650000Y59937158D02*
X25735714Y59894300D01*
X24450000Y60151443D02*
X24621428Y60151443D01*
X24621428Y60151443D02*
X24707142Y60108586D01*
X24707142Y60108586D02*
X24750000Y60065729D01*
X24750000Y60065729D02*
X24835714Y59937158D01*
X24835714Y59937158D02*
X24878571Y59765729D01*
X24878571Y59765729D02*
X24878571Y59422872D01*
X24878571Y59422872D02*
X24835714Y59337158D01*
X24835714Y59337158D02*
X24792857Y59294300D01*
X24792857Y59294300D02*
X24707142Y59251443D01*
X24707142Y59251443D02*
X24535714Y59251443D01*
X24535714Y59251443D02*
X24450000Y59294300D01*
X24450000Y59294300D02*
X24407142Y59337158D01*
X24407142Y59337158D02*
X24364285Y59422872D01*
X24364285Y59422872D02*
X24364285Y59637158D01*
X24364285Y59637158D02*
X24407142Y59722872D01*
X24407142Y59722872D02*
X24450000Y59765729D01*
X24450000Y59765729D02*
X24535714Y59808586D01*
X24535714Y59808586D02*
X24707142Y59808586D01*
X24707142Y59808586D02*
X24792857Y59765729D01*
X24792857Y59765729D02*
X24835714Y59722872D01*
X24835714Y59722872D02*
X24878571Y59637158D01*
X125078571Y46752159D02*
X125121428Y46709301D01*
X125121428Y46709301D02*
X125250000Y46666444D01*
X125250000Y46666444D02*
X125335714Y46666444D01*
X125335714Y46666444D02*
X125464285Y46709301D01*
X125464285Y46709301D02*
X125550000Y46795016D01*
X125550000Y46795016D02*
X125592857Y46880730D01*
X125592857Y46880730D02*
X125635714Y47052159D01*
X125635714Y47052159D02*
X125635714Y47180730D01*
X125635714Y47180730D02*
X125592857Y47352159D01*
X125592857Y47352159D02*
X125550000Y47437873D01*
X125550000Y47437873D02*
X125464285Y47523587D01*
X125464285Y47523587D02*
X125335714Y47566444D01*
X125335714Y47566444D02*
X125250000Y47566444D01*
X125250000Y47566444D02*
X125121428Y47523587D01*
X125121428Y47523587D02*
X125078571Y47480730D01*
X124564285Y47180730D02*
X124650000Y47223587D01*
X124650000Y47223587D02*
X124692857Y47266444D01*
X124692857Y47266444D02*
X124735714Y47352159D01*
X124735714Y47352159D02*
X124735714Y47395016D01*
X124735714Y47395016D02*
X124692857Y47480730D01*
X124692857Y47480730D02*
X124650000Y47523587D01*
X124650000Y47523587D02*
X124564285Y47566444D01*
X124564285Y47566444D02*
X124392857Y47566444D01*
X124392857Y47566444D02*
X124307143Y47523587D01*
X124307143Y47523587D02*
X124264285Y47480730D01*
X124264285Y47480730D02*
X124221428Y47395016D01*
X124221428Y47395016D02*
X124221428Y47352159D01*
X124221428Y47352159D02*
X124264285Y47266444D01*
X124264285Y47266444D02*
X124307143Y47223587D01*
X124307143Y47223587D02*
X124392857Y47180730D01*
X124392857Y47180730D02*
X124564285Y47180730D01*
X124564285Y47180730D02*
X124650000Y47137873D01*
X124650000Y47137873D02*
X124692857Y47095016D01*
X124692857Y47095016D02*
X124735714Y47009301D01*
X124735714Y47009301D02*
X124735714Y46837873D01*
X124735714Y46837873D02*
X124692857Y46752159D01*
X124692857Y46752159D02*
X124650000Y46709301D01*
X124650000Y46709301D02*
X124564285Y46666444D01*
X124564285Y46666444D02*
X124392857Y46666444D01*
X124392857Y46666444D02*
X124307143Y46709301D01*
X124307143Y46709301D02*
X124264285Y46752159D01*
X124264285Y46752159D02*
X124221428Y46837873D01*
X124221428Y46837873D02*
X124221428Y47009301D01*
X124221428Y47009301D02*
X124264285Y47095016D01*
X124264285Y47095016D02*
X124307143Y47137873D01*
X124307143Y47137873D02*
X124392857Y47180730D01*
X123878571Y47480730D02*
X123835714Y47523587D01*
X123835714Y47523587D02*
X123750000Y47566444D01*
X123750000Y47566444D02*
X123535714Y47566444D01*
X123535714Y47566444D02*
X123450000Y47523587D01*
X123450000Y47523587D02*
X123407142Y47480730D01*
X123407142Y47480730D02*
X123364285Y47395016D01*
X123364285Y47395016D02*
X123364285Y47309301D01*
X123364285Y47309301D02*
X123407142Y47180730D01*
X123407142Y47180730D02*
X123921428Y46666444D01*
X123921428Y46666444D02*
X123364285Y46666444D01*
X52478571Y39552159D02*
X52521428Y39509301D01*
X52521428Y39509301D02*
X52650000Y39466444D01*
X52650000Y39466444D02*
X52735714Y39466444D01*
X52735714Y39466444D02*
X52864285Y39509301D01*
X52864285Y39509301D02*
X52950000Y39595016D01*
X52950000Y39595016D02*
X52992857Y39680730D01*
X52992857Y39680730D02*
X53035714Y39852159D01*
X53035714Y39852159D02*
X53035714Y39980730D01*
X53035714Y39980730D02*
X52992857Y40152159D01*
X52992857Y40152159D02*
X52950000Y40237873D01*
X52950000Y40237873D02*
X52864285Y40323587D01*
X52864285Y40323587D02*
X52735714Y40366444D01*
X52735714Y40366444D02*
X52650000Y40366444D01*
X52650000Y40366444D02*
X52521428Y40323587D01*
X52521428Y40323587D02*
X52478571Y40280730D01*
X51707143Y40066444D02*
X51707143Y39466444D01*
X51921428Y40409301D02*
X52135714Y39766444D01*
X52135714Y39766444D02*
X51578571Y39766444D01*
X50850000Y40366444D02*
X51021428Y40366444D01*
X51021428Y40366444D02*
X51107142Y40323587D01*
X51107142Y40323587D02*
X51150000Y40280730D01*
X51150000Y40280730D02*
X51235714Y40152159D01*
X51235714Y40152159D02*
X51278571Y39980730D01*
X51278571Y39980730D02*
X51278571Y39637873D01*
X51278571Y39637873D02*
X51235714Y39552159D01*
X51235714Y39552159D02*
X51192857Y39509301D01*
X51192857Y39509301D02*
X51107142Y39466444D01*
X51107142Y39466444D02*
X50935714Y39466444D01*
X50935714Y39466444D02*
X50850000Y39509301D01*
X50850000Y39509301D02*
X50807142Y39552159D01*
X50807142Y39552159D02*
X50764285Y39637873D01*
X50764285Y39637873D02*
X50764285Y39852159D01*
X50764285Y39852159D02*
X50807142Y39937873D01*
X50807142Y39937873D02*
X50850000Y39980730D01*
X50850000Y39980730D02*
X50935714Y40023587D01*
X50935714Y40023587D02*
X51107142Y40023587D01*
X51107142Y40023587D02*
X51192857Y39980730D01*
X51192857Y39980730D02*
X51235714Y39937873D01*
X51235714Y39937873D02*
X51278571Y39852159D01*
X55078571Y28752159D02*
X55121428Y28709301D01*
X55121428Y28709301D02*
X55250000Y28666444D01*
X55250000Y28666444D02*
X55335714Y28666444D01*
X55335714Y28666444D02*
X55464285Y28709301D01*
X55464285Y28709301D02*
X55550000Y28795016D01*
X55550000Y28795016D02*
X55592857Y28880730D01*
X55592857Y28880730D02*
X55635714Y29052159D01*
X55635714Y29052159D02*
X55635714Y29180730D01*
X55635714Y29180730D02*
X55592857Y29352159D01*
X55592857Y29352159D02*
X55550000Y29437873D01*
X55550000Y29437873D02*
X55464285Y29523587D01*
X55464285Y29523587D02*
X55335714Y29566444D01*
X55335714Y29566444D02*
X55250000Y29566444D01*
X55250000Y29566444D02*
X55121428Y29523587D01*
X55121428Y29523587D02*
X55078571Y29480730D01*
X54264285Y29566444D02*
X54692857Y29566444D01*
X54692857Y29566444D02*
X54735714Y29137873D01*
X54735714Y29137873D02*
X54692857Y29180730D01*
X54692857Y29180730D02*
X54607143Y29223587D01*
X54607143Y29223587D02*
X54392857Y29223587D01*
X54392857Y29223587D02*
X54307143Y29180730D01*
X54307143Y29180730D02*
X54264285Y29137873D01*
X54264285Y29137873D02*
X54221428Y29052159D01*
X54221428Y29052159D02*
X54221428Y28837873D01*
X54221428Y28837873D02*
X54264285Y28752159D01*
X54264285Y28752159D02*
X54307143Y28709301D01*
X54307143Y28709301D02*
X54392857Y28666444D01*
X54392857Y28666444D02*
X54607143Y28666444D01*
X54607143Y28666444D02*
X54692857Y28709301D01*
X54692857Y28709301D02*
X54735714Y28752159D01*
X53450000Y29266444D02*
X53450000Y28666444D01*
X53664285Y29609301D02*
X53878571Y28966444D01*
X53878571Y28966444D02*
X53321428Y28966444D01*
X28678571Y59337158D02*
X28721428Y59294300D01*
X28721428Y59294300D02*
X28850000Y59251443D01*
X28850000Y59251443D02*
X28935714Y59251443D01*
X28935714Y59251443D02*
X29064285Y59294300D01*
X29064285Y59294300D02*
X29150000Y59380015D01*
X29150000Y59380015D02*
X29192857Y59465729D01*
X29192857Y59465729D02*
X29235714Y59637158D01*
X29235714Y59637158D02*
X29235714Y59765729D01*
X29235714Y59765729D02*
X29192857Y59937158D01*
X29192857Y59937158D02*
X29150000Y60022872D01*
X29150000Y60022872D02*
X29064285Y60108586D01*
X29064285Y60108586D02*
X28935714Y60151443D01*
X28935714Y60151443D02*
X28850000Y60151443D01*
X28850000Y60151443D02*
X28721428Y60108586D01*
X28721428Y60108586D02*
X28678571Y60065729D01*
X27821428Y59251443D02*
X28335714Y59251443D01*
X28078571Y59251443D02*
X28078571Y60151443D01*
X28078571Y60151443D02*
X28164285Y60022872D01*
X28164285Y60022872D02*
X28250000Y59937158D01*
X28250000Y59937158D02*
X28335714Y59894300D01*
X27521428Y60151443D02*
X26921428Y60151443D01*
X26921428Y60151443D02*
X27307142Y59251443D01*
X28678571Y52112158D02*
X28721428Y52069300D01*
X28721428Y52069300D02*
X28850000Y52026443D01*
X28850000Y52026443D02*
X28935714Y52026443D01*
X28935714Y52026443D02*
X29064285Y52069300D01*
X29064285Y52069300D02*
X29150000Y52155015D01*
X29150000Y52155015D02*
X29192857Y52240729D01*
X29192857Y52240729D02*
X29235714Y52412158D01*
X29235714Y52412158D02*
X29235714Y52540729D01*
X29235714Y52540729D02*
X29192857Y52712158D01*
X29192857Y52712158D02*
X29150000Y52797872D01*
X29150000Y52797872D02*
X29064285Y52883586D01*
X29064285Y52883586D02*
X28935714Y52926443D01*
X28935714Y52926443D02*
X28850000Y52926443D01*
X28850000Y52926443D02*
X28721428Y52883586D01*
X28721428Y52883586D02*
X28678571Y52840729D01*
X28335714Y52840729D02*
X28292857Y52883586D01*
X28292857Y52883586D02*
X28207143Y52926443D01*
X28207143Y52926443D02*
X27992857Y52926443D01*
X27992857Y52926443D02*
X27907143Y52883586D01*
X27907143Y52883586D02*
X27864285Y52840729D01*
X27864285Y52840729D02*
X27821428Y52755015D01*
X27821428Y52755015D02*
X27821428Y52669300D01*
X27821428Y52669300D02*
X27864285Y52540729D01*
X27864285Y52540729D02*
X28378571Y52026443D01*
X28378571Y52026443D02*
X27821428Y52026443D01*
X27478571Y52840729D02*
X27435714Y52883586D01*
X27435714Y52883586D02*
X27350000Y52926443D01*
X27350000Y52926443D02*
X27135714Y52926443D01*
X27135714Y52926443D02*
X27050000Y52883586D01*
X27050000Y52883586D02*
X27007142Y52840729D01*
X27007142Y52840729D02*
X26964285Y52755015D01*
X26964285Y52755015D02*
X26964285Y52669300D01*
X26964285Y52669300D02*
X27007142Y52540729D01*
X27007142Y52540729D02*
X27521428Y52026443D01*
X27521428Y52026443D02*
X26964285Y52026443D01*
X125078571Y32352159D02*
X125121428Y32309301D01*
X125121428Y32309301D02*
X125250000Y32266444D01*
X125250000Y32266444D02*
X125335714Y32266444D01*
X125335714Y32266444D02*
X125464285Y32309301D01*
X125464285Y32309301D02*
X125550000Y32395016D01*
X125550000Y32395016D02*
X125592857Y32480730D01*
X125592857Y32480730D02*
X125635714Y32652159D01*
X125635714Y32652159D02*
X125635714Y32780730D01*
X125635714Y32780730D02*
X125592857Y32952159D01*
X125592857Y32952159D02*
X125550000Y33037873D01*
X125550000Y33037873D02*
X125464285Y33123587D01*
X125464285Y33123587D02*
X125335714Y33166444D01*
X125335714Y33166444D02*
X125250000Y33166444D01*
X125250000Y33166444D02*
X125121428Y33123587D01*
X125121428Y33123587D02*
X125078571Y33080730D01*
X124650000Y32266444D02*
X124478571Y32266444D01*
X124478571Y32266444D02*
X124392857Y32309301D01*
X124392857Y32309301D02*
X124350000Y32352159D01*
X124350000Y32352159D02*
X124264285Y32480730D01*
X124264285Y32480730D02*
X124221428Y32652159D01*
X124221428Y32652159D02*
X124221428Y32995016D01*
X124221428Y32995016D02*
X124264285Y33080730D01*
X124264285Y33080730D02*
X124307143Y33123587D01*
X124307143Y33123587D02*
X124392857Y33166444D01*
X124392857Y33166444D02*
X124564285Y33166444D01*
X124564285Y33166444D02*
X124650000Y33123587D01*
X124650000Y33123587D02*
X124692857Y33080730D01*
X124692857Y33080730D02*
X124735714Y32995016D01*
X124735714Y32995016D02*
X124735714Y32780730D01*
X124735714Y32780730D02*
X124692857Y32695016D01*
X124692857Y32695016D02*
X124650000Y32652159D01*
X124650000Y32652159D02*
X124564285Y32609301D01*
X124564285Y32609301D02*
X124392857Y32609301D01*
X124392857Y32609301D02*
X124307143Y32652159D01*
X124307143Y32652159D02*
X124264285Y32695016D01*
X124264285Y32695016D02*
X124221428Y32780730D01*
X123878571Y33080730D02*
X123835714Y33123587D01*
X123835714Y33123587D02*
X123750000Y33166444D01*
X123750000Y33166444D02*
X123535714Y33166444D01*
X123535714Y33166444D02*
X123450000Y33123587D01*
X123450000Y33123587D02*
X123407142Y33080730D01*
X123407142Y33080730D02*
X123364285Y32995016D01*
X123364285Y32995016D02*
X123364285Y32909301D01*
X123364285Y32909301D02*
X123407142Y32780730D01*
X123407142Y32780730D02*
X123921428Y32266444D01*
X123921428Y32266444D02*
X123364285Y32266444D01*
X55078571Y35952159D02*
X55121428Y35909301D01*
X55121428Y35909301D02*
X55250000Y35866444D01*
X55250000Y35866444D02*
X55335714Y35866444D01*
X55335714Y35866444D02*
X55464285Y35909301D01*
X55464285Y35909301D02*
X55550000Y35995016D01*
X55550000Y35995016D02*
X55592857Y36080730D01*
X55592857Y36080730D02*
X55635714Y36252159D01*
X55635714Y36252159D02*
X55635714Y36380730D01*
X55635714Y36380730D02*
X55592857Y36552159D01*
X55592857Y36552159D02*
X55550000Y36637873D01*
X55550000Y36637873D02*
X55464285Y36723587D01*
X55464285Y36723587D02*
X55335714Y36766444D01*
X55335714Y36766444D02*
X55250000Y36766444D01*
X55250000Y36766444D02*
X55121428Y36723587D01*
X55121428Y36723587D02*
X55078571Y36680730D01*
X54307143Y36466444D02*
X54307143Y35866444D01*
X54521428Y36809301D02*
X54735714Y36166444D01*
X54735714Y36166444D02*
X54178571Y36166444D01*
X53792857Y35866444D02*
X53621428Y35866444D01*
X53621428Y35866444D02*
X53535714Y35909301D01*
X53535714Y35909301D02*
X53492857Y35952159D01*
X53492857Y35952159D02*
X53407142Y36080730D01*
X53407142Y36080730D02*
X53364285Y36252159D01*
X53364285Y36252159D02*
X53364285Y36595016D01*
X53364285Y36595016D02*
X53407142Y36680730D01*
X53407142Y36680730D02*
X53450000Y36723587D01*
X53450000Y36723587D02*
X53535714Y36766444D01*
X53535714Y36766444D02*
X53707142Y36766444D01*
X53707142Y36766444D02*
X53792857Y36723587D01*
X53792857Y36723587D02*
X53835714Y36680730D01*
X53835714Y36680730D02*
X53878571Y36595016D01*
X53878571Y36595016D02*
X53878571Y36380730D01*
X53878571Y36380730D02*
X53835714Y36295016D01*
X53835714Y36295016D02*
X53792857Y36252159D01*
X53792857Y36252159D02*
X53707142Y36209301D01*
X53707142Y36209301D02*
X53535714Y36209301D01*
X53535714Y36209301D02*
X53450000Y36252159D01*
X53450000Y36252159D02*
X53407142Y36295016D01*
X53407142Y36295016D02*
X53364285Y36380730D01*
X122478571Y35952159D02*
X122521428Y35909301D01*
X122521428Y35909301D02*
X122650000Y35866444D01*
X122650000Y35866444D02*
X122735714Y35866444D01*
X122735714Y35866444D02*
X122864285Y35909301D01*
X122864285Y35909301D02*
X122950000Y35995016D01*
X122950000Y35995016D02*
X122992857Y36080730D01*
X122992857Y36080730D02*
X123035714Y36252159D01*
X123035714Y36252159D02*
X123035714Y36380730D01*
X123035714Y36380730D02*
X122992857Y36552159D01*
X122992857Y36552159D02*
X122950000Y36637873D01*
X122950000Y36637873D02*
X122864285Y36723587D01*
X122864285Y36723587D02*
X122735714Y36766444D01*
X122735714Y36766444D02*
X122650000Y36766444D01*
X122650000Y36766444D02*
X122521428Y36723587D01*
X122521428Y36723587D02*
X122478571Y36680730D01*
X121964285Y36380730D02*
X122050000Y36423587D01*
X122050000Y36423587D02*
X122092857Y36466444D01*
X122092857Y36466444D02*
X122135714Y36552159D01*
X122135714Y36552159D02*
X122135714Y36595016D01*
X122135714Y36595016D02*
X122092857Y36680730D01*
X122092857Y36680730D02*
X122050000Y36723587D01*
X122050000Y36723587D02*
X121964285Y36766444D01*
X121964285Y36766444D02*
X121792857Y36766444D01*
X121792857Y36766444D02*
X121707143Y36723587D01*
X121707143Y36723587D02*
X121664285Y36680730D01*
X121664285Y36680730D02*
X121621428Y36595016D01*
X121621428Y36595016D02*
X121621428Y36552159D01*
X121621428Y36552159D02*
X121664285Y36466444D01*
X121664285Y36466444D02*
X121707143Y36423587D01*
X121707143Y36423587D02*
X121792857Y36380730D01*
X121792857Y36380730D02*
X121964285Y36380730D01*
X121964285Y36380730D02*
X122050000Y36337873D01*
X122050000Y36337873D02*
X122092857Y36295016D01*
X122092857Y36295016D02*
X122135714Y36209301D01*
X122135714Y36209301D02*
X122135714Y36037873D01*
X122135714Y36037873D02*
X122092857Y35952159D01*
X122092857Y35952159D02*
X122050000Y35909301D01*
X122050000Y35909301D02*
X121964285Y35866444D01*
X121964285Y35866444D02*
X121792857Y35866444D01*
X121792857Y35866444D02*
X121707143Y35909301D01*
X121707143Y35909301D02*
X121664285Y35952159D01*
X121664285Y35952159D02*
X121621428Y36037873D01*
X121621428Y36037873D02*
X121621428Y36209301D01*
X121621428Y36209301D02*
X121664285Y36295016D01*
X121664285Y36295016D02*
X121707143Y36337873D01*
X121707143Y36337873D02*
X121792857Y36380730D01*
X121107142Y36380730D02*
X121192857Y36423587D01*
X121192857Y36423587D02*
X121235714Y36466444D01*
X121235714Y36466444D02*
X121278571Y36552159D01*
X121278571Y36552159D02*
X121278571Y36595016D01*
X121278571Y36595016D02*
X121235714Y36680730D01*
X121235714Y36680730D02*
X121192857Y36723587D01*
X121192857Y36723587D02*
X121107142Y36766444D01*
X121107142Y36766444D02*
X120935714Y36766444D01*
X120935714Y36766444D02*
X120850000Y36723587D01*
X120850000Y36723587D02*
X120807142Y36680730D01*
X120807142Y36680730D02*
X120764285Y36595016D01*
X120764285Y36595016D02*
X120764285Y36552159D01*
X120764285Y36552159D02*
X120807142Y36466444D01*
X120807142Y36466444D02*
X120850000Y36423587D01*
X120850000Y36423587D02*
X120935714Y36380730D01*
X120935714Y36380730D02*
X121107142Y36380730D01*
X121107142Y36380730D02*
X121192857Y36337873D01*
X121192857Y36337873D02*
X121235714Y36295016D01*
X121235714Y36295016D02*
X121278571Y36209301D01*
X121278571Y36209301D02*
X121278571Y36037873D01*
X121278571Y36037873D02*
X121235714Y35952159D01*
X121235714Y35952159D02*
X121192857Y35909301D01*
X121192857Y35909301D02*
X121107142Y35866444D01*
X121107142Y35866444D02*
X120935714Y35866444D01*
X120935714Y35866444D02*
X120850000Y35909301D01*
X120850000Y35909301D02*
X120807142Y35952159D01*
X120807142Y35952159D02*
X120764285Y36037873D01*
X120764285Y36037873D02*
X120764285Y36209301D01*
X120764285Y36209301D02*
X120807142Y36295016D01*
X120807142Y36295016D02*
X120850000Y36337873D01*
X120850000Y36337873D02*
X120935714Y36380730D01*
X96078571Y55737158D02*
X96121428Y55694300D01*
X96121428Y55694300D02*
X96250000Y55651443D01*
X96250000Y55651443D02*
X96335714Y55651443D01*
X96335714Y55651443D02*
X96464285Y55694300D01*
X96464285Y55694300D02*
X96550000Y55780015D01*
X96550000Y55780015D02*
X96592857Y55865729D01*
X96592857Y55865729D02*
X96635714Y56037158D01*
X96635714Y56037158D02*
X96635714Y56165729D01*
X96635714Y56165729D02*
X96592857Y56337158D01*
X96592857Y56337158D02*
X96550000Y56422872D01*
X96550000Y56422872D02*
X96464285Y56508586D01*
X96464285Y56508586D02*
X96335714Y56551443D01*
X96335714Y56551443D02*
X96250000Y56551443D01*
X96250000Y56551443D02*
X96121428Y56508586D01*
X96121428Y56508586D02*
X96078571Y56465729D01*
X95264285Y56551443D02*
X95692857Y56551443D01*
X95692857Y56551443D02*
X95735714Y56122872D01*
X95735714Y56122872D02*
X95692857Y56165729D01*
X95692857Y56165729D02*
X95607143Y56208586D01*
X95607143Y56208586D02*
X95392857Y56208586D01*
X95392857Y56208586D02*
X95307143Y56165729D01*
X95307143Y56165729D02*
X95264285Y56122872D01*
X95264285Y56122872D02*
X95221428Y56037158D01*
X95221428Y56037158D02*
X95221428Y55822872D01*
X95221428Y55822872D02*
X95264285Y55737158D01*
X95264285Y55737158D02*
X95307143Y55694300D01*
X95307143Y55694300D02*
X95392857Y55651443D01*
X95392857Y55651443D02*
X95607143Y55651443D01*
X95607143Y55651443D02*
X95692857Y55694300D01*
X95692857Y55694300D02*
X95735714Y55737158D01*
X94707142Y56165729D02*
X94792857Y56208586D01*
X94792857Y56208586D02*
X94835714Y56251443D01*
X94835714Y56251443D02*
X94878571Y56337158D01*
X94878571Y56337158D02*
X94878571Y56380015D01*
X94878571Y56380015D02*
X94835714Y56465729D01*
X94835714Y56465729D02*
X94792857Y56508586D01*
X94792857Y56508586D02*
X94707142Y56551443D01*
X94707142Y56551443D02*
X94535714Y56551443D01*
X94535714Y56551443D02*
X94450000Y56508586D01*
X94450000Y56508586D02*
X94407142Y56465729D01*
X94407142Y56465729D02*
X94364285Y56380015D01*
X94364285Y56380015D02*
X94364285Y56337158D01*
X94364285Y56337158D02*
X94407142Y56251443D01*
X94407142Y56251443D02*
X94450000Y56208586D01*
X94450000Y56208586D02*
X94535714Y56165729D01*
X94535714Y56165729D02*
X94707142Y56165729D01*
X94707142Y56165729D02*
X94792857Y56122872D01*
X94792857Y56122872D02*
X94835714Y56080015D01*
X94835714Y56080015D02*
X94878571Y55994300D01*
X94878571Y55994300D02*
X94878571Y55822872D01*
X94878571Y55822872D02*
X94835714Y55737158D01*
X94835714Y55737158D02*
X94792857Y55694300D01*
X94792857Y55694300D02*
X94707142Y55651443D01*
X94707142Y55651443D02*
X94535714Y55651443D01*
X94535714Y55651443D02*
X94450000Y55694300D01*
X94450000Y55694300D02*
X94407142Y55737158D01*
X94407142Y55737158D02*
X94364285Y55822872D01*
X94364285Y55822872D02*
X94364285Y55994300D01*
X94364285Y55994300D02*
X94407142Y56080015D01*
X94407142Y56080015D02*
X94450000Y56122872D01*
X94450000Y56122872D02*
X94535714Y56165729D01*
X52478571Y53977158D02*
X52521428Y53934300D01*
X52521428Y53934300D02*
X52650000Y53891443D01*
X52650000Y53891443D02*
X52735714Y53891443D01*
X52735714Y53891443D02*
X52864285Y53934300D01*
X52864285Y53934300D02*
X52950000Y54020015D01*
X52950000Y54020015D02*
X52992857Y54105729D01*
X52992857Y54105729D02*
X53035714Y54277158D01*
X53035714Y54277158D02*
X53035714Y54405729D01*
X53035714Y54405729D02*
X52992857Y54577158D01*
X52992857Y54577158D02*
X52950000Y54662872D01*
X52950000Y54662872D02*
X52864285Y54748586D01*
X52864285Y54748586D02*
X52735714Y54791443D01*
X52735714Y54791443D02*
X52650000Y54791443D01*
X52650000Y54791443D02*
X52521428Y54748586D01*
X52521428Y54748586D02*
X52478571Y54705729D01*
X52178571Y54791443D02*
X51621428Y54791443D01*
X51621428Y54791443D02*
X51921428Y54448586D01*
X51921428Y54448586D02*
X51792857Y54448586D01*
X51792857Y54448586D02*
X51707143Y54405729D01*
X51707143Y54405729D02*
X51664285Y54362872D01*
X51664285Y54362872D02*
X51621428Y54277158D01*
X51621428Y54277158D02*
X51621428Y54062872D01*
X51621428Y54062872D02*
X51664285Y53977158D01*
X51664285Y53977158D02*
X51707143Y53934300D01*
X51707143Y53934300D02*
X51792857Y53891443D01*
X51792857Y53891443D02*
X52050000Y53891443D01*
X52050000Y53891443D02*
X52135714Y53934300D01*
X52135714Y53934300D02*
X52178571Y53977158D01*
X50850000Y54791443D02*
X51021428Y54791443D01*
X51021428Y54791443D02*
X51107142Y54748586D01*
X51107142Y54748586D02*
X51150000Y54705729D01*
X51150000Y54705729D02*
X51235714Y54577158D01*
X51235714Y54577158D02*
X51278571Y54405729D01*
X51278571Y54405729D02*
X51278571Y54062872D01*
X51278571Y54062872D02*
X51235714Y53977158D01*
X51235714Y53977158D02*
X51192857Y53934300D01*
X51192857Y53934300D02*
X51107142Y53891443D01*
X51107142Y53891443D02*
X50935714Y53891443D01*
X50935714Y53891443D02*
X50850000Y53934300D01*
X50850000Y53934300D02*
X50807142Y53977158D01*
X50807142Y53977158D02*
X50764285Y54062872D01*
X50764285Y54062872D02*
X50764285Y54277158D01*
X50764285Y54277158D02*
X50807142Y54362872D01*
X50807142Y54362872D02*
X50850000Y54405729D01*
X50850000Y54405729D02*
X50935714Y54448586D01*
X50935714Y54448586D02*
X51107142Y54448586D01*
X51107142Y54448586D02*
X51192857Y54405729D01*
X51192857Y54405729D02*
X51235714Y54362872D01*
X51235714Y54362872D02*
X51278571Y54277158D01*
X55078571Y32352159D02*
X55121428Y32309301D01*
X55121428Y32309301D02*
X55250000Y32266444D01*
X55250000Y32266444D02*
X55335714Y32266444D01*
X55335714Y32266444D02*
X55464285Y32309301D01*
X55464285Y32309301D02*
X55550000Y32395016D01*
X55550000Y32395016D02*
X55592857Y32480730D01*
X55592857Y32480730D02*
X55635714Y32652159D01*
X55635714Y32652159D02*
X55635714Y32780730D01*
X55635714Y32780730D02*
X55592857Y32952159D01*
X55592857Y32952159D02*
X55550000Y33037873D01*
X55550000Y33037873D02*
X55464285Y33123587D01*
X55464285Y33123587D02*
X55335714Y33166444D01*
X55335714Y33166444D02*
X55250000Y33166444D01*
X55250000Y33166444D02*
X55121428Y33123587D01*
X55121428Y33123587D02*
X55078571Y33080730D01*
X54264285Y33166444D02*
X54692857Y33166444D01*
X54692857Y33166444D02*
X54735714Y32737873D01*
X54735714Y32737873D02*
X54692857Y32780730D01*
X54692857Y32780730D02*
X54607143Y32823587D01*
X54607143Y32823587D02*
X54392857Y32823587D01*
X54392857Y32823587D02*
X54307143Y32780730D01*
X54307143Y32780730D02*
X54264285Y32737873D01*
X54264285Y32737873D02*
X54221428Y32652159D01*
X54221428Y32652159D02*
X54221428Y32437873D01*
X54221428Y32437873D02*
X54264285Y32352159D01*
X54264285Y32352159D02*
X54307143Y32309301D01*
X54307143Y32309301D02*
X54392857Y32266444D01*
X54392857Y32266444D02*
X54607143Y32266444D01*
X54607143Y32266444D02*
X54692857Y32309301D01*
X54692857Y32309301D02*
X54735714Y32352159D01*
X53878571Y33080730D02*
X53835714Y33123587D01*
X53835714Y33123587D02*
X53750000Y33166444D01*
X53750000Y33166444D02*
X53535714Y33166444D01*
X53535714Y33166444D02*
X53450000Y33123587D01*
X53450000Y33123587D02*
X53407142Y33080730D01*
X53407142Y33080730D02*
X53364285Y32995016D01*
X53364285Y32995016D02*
X53364285Y32909301D01*
X53364285Y32909301D02*
X53407142Y32780730D01*
X53407142Y32780730D02*
X53921428Y32266444D01*
X53921428Y32266444D02*
X53364285Y32266444D01*
X26078571Y41312158D02*
X26121428Y41269300D01*
X26121428Y41269300D02*
X26250000Y41226443D01*
X26250000Y41226443D02*
X26335714Y41226443D01*
X26335714Y41226443D02*
X26464285Y41269300D01*
X26464285Y41269300D02*
X26550000Y41355015D01*
X26550000Y41355015D02*
X26592857Y41440729D01*
X26592857Y41440729D02*
X26635714Y41612158D01*
X26635714Y41612158D02*
X26635714Y41740729D01*
X26635714Y41740729D02*
X26592857Y41912158D01*
X26592857Y41912158D02*
X26550000Y41997872D01*
X26550000Y41997872D02*
X26464285Y42083586D01*
X26464285Y42083586D02*
X26335714Y42126443D01*
X26335714Y42126443D02*
X26250000Y42126443D01*
X26250000Y42126443D02*
X26121428Y42083586D01*
X26121428Y42083586D02*
X26078571Y42040729D01*
X25735714Y42040729D02*
X25692857Y42083586D01*
X25692857Y42083586D02*
X25607143Y42126443D01*
X25607143Y42126443D02*
X25392857Y42126443D01*
X25392857Y42126443D02*
X25307143Y42083586D01*
X25307143Y42083586D02*
X25264285Y42040729D01*
X25264285Y42040729D02*
X25221428Y41955015D01*
X25221428Y41955015D02*
X25221428Y41869300D01*
X25221428Y41869300D02*
X25264285Y41740729D01*
X25264285Y41740729D02*
X25778571Y41226443D01*
X25778571Y41226443D02*
X25221428Y41226443D01*
X24450000Y42126443D02*
X24621428Y42126443D01*
X24621428Y42126443D02*
X24707142Y42083586D01*
X24707142Y42083586D02*
X24750000Y42040729D01*
X24750000Y42040729D02*
X24835714Y41912158D01*
X24835714Y41912158D02*
X24878571Y41740729D01*
X24878571Y41740729D02*
X24878571Y41397872D01*
X24878571Y41397872D02*
X24835714Y41312158D01*
X24835714Y41312158D02*
X24792857Y41269300D01*
X24792857Y41269300D02*
X24707142Y41226443D01*
X24707142Y41226443D02*
X24535714Y41226443D01*
X24535714Y41226443D02*
X24450000Y41269300D01*
X24450000Y41269300D02*
X24407142Y41312158D01*
X24407142Y41312158D02*
X24364285Y41397872D01*
X24364285Y41397872D02*
X24364285Y41612158D01*
X24364285Y41612158D02*
X24407142Y41697872D01*
X24407142Y41697872D02*
X24450000Y41740729D01*
X24450000Y41740729D02*
X24535714Y41783586D01*
X24535714Y41783586D02*
X24707142Y41783586D01*
X24707142Y41783586D02*
X24792857Y41740729D01*
X24792857Y41740729D02*
X24835714Y41697872D01*
X24835714Y41697872D02*
X24878571Y41612158D01*
X28678571Y55737158D02*
X28721428Y55694300D01*
X28721428Y55694300D02*
X28850000Y55651443D01*
X28850000Y55651443D02*
X28935714Y55651443D01*
X28935714Y55651443D02*
X29064285Y55694300D01*
X29064285Y55694300D02*
X29150000Y55780015D01*
X29150000Y55780015D02*
X29192857Y55865729D01*
X29192857Y55865729D02*
X29235714Y56037158D01*
X29235714Y56037158D02*
X29235714Y56165729D01*
X29235714Y56165729D02*
X29192857Y56337158D01*
X29192857Y56337158D02*
X29150000Y56422872D01*
X29150000Y56422872D02*
X29064285Y56508586D01*
X29064285Y56508586D02*
X28935714Y56551443D01*
X28935714Y56551443D02*
X28850000Y56551443D01*
X28850000Y56551443D02*
X28721428Y56508586D01*
X28721428Y56508586D02*
X28678571Y56465729D01*
X27821428Y55651443D02*
X28335714Y55651443D01*
X28078571Y55651443D02*
X28078571Y56551443D01*
X28078571Y56551443D02*
X28164285Y56422872D01*
X28164285Y56422872D02*
X28250000Y56337158D01*
X28250000Y56337158D02*
X28335714Y56294300D01*
X27392857Y55651443D02*
X27221428Y55651443D01*
X27221428Y55651443D02*
X27135714Y55694300D01*
X27135714Y55694300D02*
X27092857Y55737158D01*
X27092857Y55737158D02*
X27007142Y55865729D01*
X27007142Y55865729D02*
X26964285Y56037158D01*
X26964285Y56037158D02*
X26964285Y56380015D01*
X26964285Y56380015D02*
X27007142Y56465729D01*
X27007142Y56465729D02*
X27050000Y56508586D01*
X27050000Y56508586D02*
X27135714Y56551443D01*
X27135714Y56551443D02*
X27307142Y56551443D01*
X27307142Y56551443D02*
X27392857Y56508586D01*
X27392857Y56508586D02*
X27435714Y56465729D01*
X27435714Y56465729D02*
X27478571Y56380015D01*
X27478571Y56380015D02*
X27478571Y56165729D01*
X27478571Y56165729D02*
X27435714Y56080015D01*
X27435714Y56080015D02*
X27392857Y56037158D01*
X27392857Y56037158D02*
X27307142Y55994300D01*
X27307142Y55994300D02*
X27135714Y55994300D01*
X27135714Y55994300D02*
X27050000Y56037158D01*
X27050000Y56037158D02*
X27007142Y56080015D01*
X27007142Y56080015D02*
X26964285Y56165729D01*
X28678571Y41312158D02*
X28721428Y41269300D01*
X28721428Y41269300D02*
X28850000Y41226443D01*
X28850000Y41226443D02*
X28935714Y41226443D01*
X28935714Y41226443D02*
X29064285Y41269300D01*
X29064285Y41269300D02*
X29150000Y41355015D01*
X29150000Y41355015D02*
X29192857Y41440729D01*
X29192857Y41440729D02*
X29235714Y41612158D01*
X29235714Y41612158D02*
X29235714Y41740729D01*
X29235714Y41740729D02*
X29192857Y41912158D01*
X29192857Y41912158D02*
X29150000Y41997872D01*
X29150000Y41997872D02*
X29064285Y42083586D01*
X29064285Y42083586D02*
X28935714Y42126443D01*
X28935714Y42126443D02*
X28850000Y42126443D01*
X28850000Y42126443D02*
X28721428Y42083586D01*
X28721428Y42083586D02*
X28678571Y42040729D01*
X28335714Y42040729D02*
X28292857Y42083586D01*
X28292857Y42083586D02*
X28207143Y42126443D01*
X28207143Y42126443D02*
X27992857Y42126443D01*
X27992857Y42126443D02*
X27907143Y42083586D01*
X27907143Y42083586D02*
X27864285Y42040729D01*
X27864285Y42040729D02*
X27821428Y41955015D01*
X27821428Y41955015D02*
X27821428Y41869300D01*
X27821428Y41869300D02*
X27864285Y41740729D01*
X27864285Y41740729D02*
X28378571Y41226443D01*
X28378571Y41226443D02*
X27821428Y41226443D01*
X27521428Y42126443D02*
X26921428Y42126443D01*
X26921428Y42126443D02*
X27307142Y41226443D01*
X55078571Y50377158D02*
X55121428Y50334300D01*
X55121428Y50334300D02*
X55250000Y50291443D01*
X55250000Y50291443D02*
X55335714Y50291443D01*
X55335714Y50291443D02*
X55464285Y50334300D01*
X55464285Y50334300D02*
X55550000Y50420015D01*
X55550000Y50420015D02*
X55592857Y50505729D01*
X55592857Y50505729D02*
X55635714Y50677158D01*
X55635714Y50677158D02*
X55635714Y50805729D01*
X55635714Y50805729D02*
X55592857Y50977158D01*
X55592857Y50977158D02*
X55550000Y51062872D01*
X55550000Y51062872D02*
X55464285Y51148586D01*
X55464285Y51148586D02*
X55335714Y51191443D01*
X55335714Y51191443D02*
X55250000Y51191443D01*
X55250000Y51191443D02*
X55121428Y51148586D01*
X55121428Y51148586D02*
X55078571Y51105729D01*
X54778571Y51191443D02*
X54221428Y51191443D01*
X54221428Y51191443D02*
X54521428Y50848586D01*
X54521428Y50848586D02*
X54392857Y50848586D01*
X54392857Y50848586D02*
X54307143Y50805729D01*
X54307143Y50805729D02*
X54264285Y50762872D01*
X54264285Y50762872D02*
X54221428Y50677158D01*
X54221428Y50677158D02*
X54221428Y50462872D01*
X54221428Y50462872D02*
X54264285Y50377158D01*
X54264285Y50377158D02*
X54307143Y50334300D01*
X54307143Y50334300D02*
X54392857Y50291443D01*
X54392857Y50291443D02*
X54650000Y50291443D01*
X54650000Y50291443D02*
X54735714Y50334300D01*
X54735714Y50334300D02*
X54778571Y50377158D01*
X53792857Y50291443D02*
X53621428Y50291443D01*
X53621428Y50291443D02*
X53535714Y50334300D01*
X53535714Y50334300D02*
X53492857Y50377158D01*
X53492857Y50377158D02*
X53407142Y50505729D01*
X53407142Y50505729D02*
X53364285Y50677158D01*
X53364285Y50677158D02*
X53364285Y51020015D01*
X53364285Y51020015D02*
X53407142Y51105729D01*
X53407142Y51105729D02*
X53450000Y51148586D01*
X53450000Y51148586D02*
X53535714Y51191443D01*
X53535714Y51191443D02*
X53707142Y51191443D01*
X53707142Y51191443D02*
X53792857Y51148586D01*
X53792857Y51148586D02*
X53835714Y51105729D01*
X53835714Y51105729D02*
X53878571Y51020015D01*
X53878571Y51020015D02*
X53878571Y50805729D01*
X53878571Y50805729D02*
X53835714Y50720015D01*
X53835714Y50720015D02*
X53792857Y50677158D01*
X53792857Y50677158D02*
X53707142Y50634300D01*
X53707142Y50634300D02*
X53535714Y50634300D01*
X53535714Y50634300D02*
X53450000Y50677158D01*
X53450000Y50677158D02*
X53407142Y50720015D01*
X53407142Y50720015D02*
X53364285Y50805729D01*
X26078571Y55737158D02*
X26121428Y55694300D01*
X26121428Y55694300D02*
X26250000Y55651443D01*
X26250000Y55651443D02*
X26335714Y55651443D01*
X26335714Y55651443D02*
X26464285Y55694300D01*
X26464285Y55694300D02*
X26550000Y55780015D01*
X26550000Y55780015D02*
X26592857Y55865729D01*
X26592857Y55865729D02*
X26635714Y56037158D01*
X26635714Y56037158D02*
X26635714Y56165729D01*
X26635714Y56165729D02*
X26592857Y56337158D01*
X26592857Y56337158D02*
X26550000Y56422872D01*
X26550000Y56422872D02*
X26464285Y56508586D01*
X26464285Y56508586D02*
X26335714Y56551443D01*
X26335714Y56551443D02*
X26250000Y56551443D01*
X26250000Y56551443D02*
X26121428Y56508586D01*
X26121428Y56508586D02*
X26078571Y56465729D01*
X25221428Y55651443D02*
X25735714Y55651443D01*
X25478571Y55651443D02*
X25478571Y56551443D01*
X25478571Y56551443D02*
X25564285Y56422872D01*
X25564285Y56422872D02*
X25650000Y56337158D01*
X25650000Y56337158D02*
X25735714Y56294300D01*
X24707142Y56165729D02*
X24792857Y56208586D01*
X24792857Y56208586D02*
X24835714Y56251443D01*
X24835714Y56251443D02*
X24878571Y56337158D01*
X24878571Y56337158D02*
X24878571Y56380015D01*
X24878571Y56380015D02*
X24835714Y56465729D01*
X24835714Y56465729D02*
X24792857Y56508586D01*
X24792857Y56508586D02*
X24707142Y56551443D01*
X24707142Y56551443D02*
X24535714Y56551443D01*
X24535714Y56551443D02*
X24450000Y56508586D01*
X24450000Y56508586D02*
X24407142Y56465729D01*
X24407142Y56465729D02*
X24364285Y56380015D01*
X24364285Y56380015D02*
X24364285Y56337158D01*
X24364285Y56337158D02*
X24407142Y56251443D01*
X24407142Y56251443D02*
X24450000Y56208586D01*
X24450000Y56208586D02*
X24535714Y56165729D01*
X24535714Y56165729D02*
X24707142Y56165729D01*
X24707142Y56165729D02*
X24792857Y56122872D01*
X24792857Y56122872D02*
X24835714Y56080015D01*
X24835714Y56080015D02*
X24878571Y55994300D01*
X24878571Y55994300D02*
X24878571Y55822872D01*
X24878571Y55822872D02*
X24835714Y55737158D01*
X24835714Y55737158D02*
X24792857Y55694300D01*
X24792857Y55694300D02*
X24707142Y55651443D01*
X24707142Y55651443D02*
X24535714Y55651443D01*
X24535714Y55651443D02*
X24450000Y55694300D01*
X24450000Y55694300D02*
X24407142Y55737158D01*
X24407142Y55737158D02*
X24364285Y55822872D01*
X24364285Y55822872D02*
X24364285Y55994300D01*
X24364285Y55994300D02*
X24407142Y56080015D01*
X24407142Y56080015D02*
X24450000Y56122872D01*
X24450000Y56122872D02*
X24535714Y56165729D01*
X122478571Y46752159D02*
X122521428Y46709301D01*
X122521428Y46709301D02*
X122650000Y46666444D01*
X122650000Y46666444D02*
X122735714Y46666444D01*
X122735714Y46666444D02*
X122864285Y46709301D01*
X122864285Y46709301D02*
X122950000Y46795016D01*
X122950000Y46795016D02*
X122992857Y46880730D01*
X122992857Y46880730D02*
X123035714Y47052159D01*
X123035714Y47052159D02*
X123035714Y47180730D01*
X123035714Y47180730D02*
X122992857Y47352159D01*
X122992857Y47352159D02*
X122950000Y47437873D01*
X122950000Y47437873D02*
X122864285Y47523587D01*
X122864285Y47523587D02*
X122735714Y47566444D01*
X122735714Y47566444D02*
X122650000Y47566444D01*
X122650000Y47566444D02*
X122521428Y47523587D01*
X122521428Y47523587D02*
X122478571Y47480730D01*
X121964285Y47180730D02*
X122050000Y47223587D01*
X122050000Y47223587D02*
X122092857Y47266444D01*
X122092857Y47266444D02*
X122135714Y47352159D01*
X122135714Y47352159D02*
X122135714Y47395016D01*
X122135714Y47395016D02*
X122092857Y47480730D01*
X122092857Y47480730D02*
X122050000Y47523587D01*
X122050000Y47523587D02*
X121964285Y47566444D01*
X121964285Y47566444D02*
X121792857Y47566444D01*
X121792857Y47566444D02*
X121707143Y47523587D01*
X121707143Y47523587D02*
X121664285Y47480730D01*
X121664285Y47480730D02*
X121621428Y47395016D01*
X121621428Y47395016D02*
X121621428Y47352159D01*
X121621428Y47352159D02*
X121664285Y47266444D01*
X121664285Y47266444D02*
X121707143Y47223587D01*
X121707143Y47223587D02*
X121792857Y47180730D01*
X121792857Y47180730D02*
X121964285Y47180730D01*
X121964285Y47180730D02*
X122050000Y47137873D01*
X122050000Y47137873D02*
X122092857Y47095016D01*
X122092857Y47095016D02*
X122135714Y47009301D01*
X122135714Y47009301D02*
X122135714Y46837873D01*
X122135714Y46837873D02*
X122092857Y46752159D01*
X122092857Y46752159D02*
X122050000Y46709301D01*
X122050000Y46709301D02*
X121964285Y46666444D01*
X121964285Y46666444D02*
X121792857Y46666444D01*
X121792857Y46666444D02*
X121707143Y46709301D01*
X121707143Y46709301D02*
X121664285Y46752159D01*
X121664285Y46752159D02*
X121621428Y46837873D01*
X121621428Y46837873D02*
X121621428Y47009301D01*
X121621428Y47009301D02*
X121664285Y47095016D01*
X121664285Y47095016D02*
X121707143Y47137873D01*
X121707143Y47137873D02*
X121792857Y47180730D01*
X120764285Y46666444D02*
X121278571Y46666444D01*
X121021428Y46666444D02*
X121021428Y47566444D01*
X121021428Y47566444D02*
X121107142Y47437873D01*
X121107142Y47437873D02*
X121192857Y47352159D01*
X121192857Y47352159D02*
X121278571Y47309301D01*
X26078571Y48512158D02*
X26121428Y48469300D01*
X26121428Y48469300D02*
X26250000Y48426443D01*
X26250000Y48426443D02*
X26335714Y48426443D01*
X26335714Y48426443D02*
X26464285Y48469300D01*
X26464285Y48469300D02*
X26550000Y48555015D01*
X26550000Y48555015D02*
X26592857Y48640729D01*
X26592857Y48640729D02*
X26635714Y48812158D01*
X26635714Y48812158D02*
X26635714Y48940729D01*
X26635714Y48940729D02*
X26592857Y49112158D01*
X26592857Y49112158D02*
X26550000Y49197872D01*
X26550000Y49197872D02*
X26464285Y49283586D01*
X26464285Y49283586D02*
X26335714Y49326443D01*
X26335714Y49326443D02*
X26250000Y49326443D01*
X26250000Y49326443D02*
X26121428Y49283586D01*
X26121428Y49283586D02*
X26078571Y49240729D01*
X25735714Y49240729D02*
X25692857Y49283586D01*
X25692857Y49283586D02*
X25607143Y49326443D01*
X25607143Y49326443D02*
X25392857Y49326443D01*
X25392857Y49326443D02*
X25307143Y49283586D01*
X25307143Y49283586D02*
X25264285Y49240729D01*
X25264285Y49240729D02*
X25221428Y49155015D01*
X25221428Y49155015D02*
X25221428Y49069300D01*
X25221428Y49069300D02*
X25264285Y48940729D01*
X25264285Y48940729D02*
X25778571Y48426443D01*
X25778571Y48426443D02*
X25221428Y48426443D01*
X24921428Y49326443D02*
X24364285Y49326443D01*
X24364285Y49326443D02*
X24664285Y48983586D01*
X24664285Y48983586D02*
X24535714Y48983586D01*
X24535714Y48983586D02*
X24450000Y48940729D01*
X24450000Y48940729D02*
X24407142Y48897872D01*
X24407142Y48897872D02*
X24364285Y48812158D01*
X24364285Y48812158D02*
X24364285Y48597872D01*
X24364285Y48597872D02*
X24407142Y48512158D01*
X24407142Y48512158D02*
X24450000Y48469300D01*
X24450000Y48469300D02*
X24535714Y48426443D01*
X24535714Y48426443D02*
X24792857Y48426443D01*
X24792857Y48426443D02*
X24878571Y48469300D01*
X24878571Y48469300D02*
X24921428Y48512158D01*
X96078571Y37712158D02*
X96121428Y37669300D01*
X96121428Y37669300D02*
X96250000Y37626443D01*
X96250000Y37626443D02*
X96335714Y37626443D01*
X96335714Y37626443D02*
X96464285Y37669300D01*
X96464285Y37669300D02*
X96550000Y37755015D01*
X96550000Y37755015D02*
X96592857Y37840729D01*
X96592857Y37840729D02*
X96635714Y38012158D01*
X96635714Y38012158D02*
X96635714Y38140729D01*
X96635714Y38140729D02*
X96592857Y38312158D01*
X96592857Y38312158D02*
X96550000Y38397872D01*
X96550000Y38397872D02*
X96464285Y38483586D01*
X96464285Y38483586D02*
X96335714Y38526443D01*
X96335714Y38526443D02*
X96250000Y38526443D01*
X96250000Y38526443D02*
X96121428Y38483586D01*
X96121428Y38483586D02*
X96078571Y38440729D01*
X95778571Y38526443D02*
X95178571Y38526443D01*
X95178571Y38526443D02*
X95564285Y37626443D01*
X94364285Y37626443D02*
X94878571Y37626443D01*
X94621428Y37626443D02*
X94621428Y38526443D01*
X94621428Y38526443D02*
X94707142Y38397872D01*
X94707142Y38397872D02*
X94792857Y38312158D01*
X94792857Y38312158D02*
X94878571Y38269300D01*
X52478571Y32352159D02*
X52521428Y32309301D01*
X52521428Y32309301D02*
X52650000Y32266444D01*
X52650000Y32266444D02*
X52735714Y32266444D01*
X52735714Y32266444D02*
X52864285Y32309301D01*
X52864285Y32309301D02*
X52950000Y32395016D01*
X52950000Y32395016D02*
X52992857Y32480730D01*
X52992857Y32480730D02*
X53035714Y32652159D01*
X53035714Y32652159D02*
X53035714Y32780730D01*
X53035714Y32780730D02*
X52992857Y32952159D01*
X52992857Y32952159D02*
X52950000Y33037873D01*
X52950000Y33037873D02*
X52864285Y33123587D01*
X52864285Y33123587D02*
X52735714Y33166444D01*
X52735714Y33166444D02*
X52650000Y33166444D01*
X52650000Y33166444D02*
X52521428Y33123587D01*
X52521428Y33123587D02*
X52478571Y33080730D01*
X51664285Y33166444D02*
X52092857Y33166444D01*
X52092857Y33166444D02*
X52135714Y32737873D01*
X52135714Y32737873D02*
X52092857Y32780730D01*
X52092857Y32780730D02*
X52007143Y32823587D01*
X52007143Y32823587D02*
X51792857Y32823587D01*
X51792857Y32823587D02*
X51707143Y32780730D01*
X51707143Y32780730D02*
X51664285Y32737873D01*
X51664285Y32737873D02*
X51621428Y32652159D01*
X51621428Y32652159D02*
X51621428Y32437873D01*
X51621428Y32437873D02*
X51664285Y32352159D01*
X51664285Y32352159D02*
X51707143Y32309301D01*
X51707143Y32309301D02*
X51792857Y32266444D01*
X51792857Y32266444D02*
X52007143Y32266444D01*
X52007143Y32266444D02*
X52092857Y32309301D01*
X52092857Y32309301D02*
X52135714Y32352159D01*
X50764285Y32266444D02*
X51278571Y32266444D01*
X51021428Y32266444D02*
X51021428Y33166444D01*
X51021428Y33166444D02*
X51107142Y33037873D01*
X51107142Y33037873D02*
X51192857Y32952159D01*
X51192857Y32952159D02*
X51278571Y32909301D01*
X26078571Y34112158D02*
X26121428Y34069300D01*
X26121428Y34069300D02*
X26250000Y34026443D01*
X26250000Y34026443D02*
X26335714Y34026443D01*
X26335714Y34026443D02*
X26464285Y34069300D01*
X26464285Y34069300D02*
X26550000Y34155015D01*
X26550000Y34155015D02*
X26592857Y34240729D01*
X26592857Y34240729D02*
X26635714Y34412158D01*
X26635714Y34412158D02*
X26635714Y34540729D01*
X26635714Y34540729D02*
X26592857Y34712158D01*
X26592857Y34712158D02*
X26550000Y34797872D01*
X26550000Y34797872D02*
X26464285Y34883586D01*
X26464285Y34883586D02*
X26335714Y34926443D01*
X26335714Y34926443D02*
X26250000Y34926443D01*
X26250000Y34926443D02*
X26121428Y34883586D01*
X26121428Y34883586D02*
X26078571Y34840729D01*
X25778571Y34926443D02*
X25221428Y34926443D01*
X25221428Y34926443D02*
X25521428Y34583586D01*
X25521428Y34583586D02*
X25392857Y34583586D01*
X25392857Y34583586D02*
X25307143Y34540729D01*
X25307143Y34540729D02*
X25264285Y34497872D01*
X25264285Y34497872D02*
X25221428Y34412158D01*
X25221428Y34412158D02*
X25221428Y34197872D01*
X25221428Y34197872D02*
X25264285Y34112158D01*
X25264285Y34112158D02*
X25307143Y34069300D01*
X25307143Y34069300D02*
X25392857Y34026443D01*
X25392857Y34026443D02*
X25650000Y34026443D01*
X25650000Y34026443D02*
X25735714Y34069300D01*
X25735714Y34069300D02*
X25778571Y34112158D01*
X24364285Y34026443D02*
X24878571Y34026443D01*
X24621428Y34026443D02*
X24621428Y34926443D01*
X24621428Y34926443D02*
X24707142Y34797872D01*
X24707142Y34797872D02*
X24792857Y34712158D01*
X24792857Y34712158D02*
X24878571Y34669300D01*
X125078571Y50377158D02*
X125121428Y50334300D01*
X125121428Y50334300D02*
X125250000Y50291443D01*
X125250000Y50291443D02*
X125335714Y50291443D01*
X125335714Y50291443D02*
X125464285Y50334300D01*
X125464285Y50334300D02*
X125550000Y50420015D01*
X125550000Y50420015D02*
X125592857Y50505729D01*
X125592857Y50505729D02*
X125635714Y50677158D01*
X125635714Y50677158D02*
X125635714Y50805729D01*
X125635714Y50805729D02*
X125592857Y50977158D01*
X125592857Y50977158D02*
X125550000Y51062872D01*
X125550000Y51062872D02*
X125464285Y51148586D01*
X125464285Y51148586D02*
X125335714Y51191443D01*
X125335714Y51191443D02*
X125250000Y51191443D01*
X125250000Y51191443D02*
X125121428Y51148586D01*
X125121428Y51148586D02*
X125078571Y51105729D01*
X124778571Y51191443D02*
X124178571Y51191443D01*
X124178571Y51191443D02*
X124564285Y50291443D01*
X123792857Y50291443D02*
X123621428Y50291443D01*
X123621428Y50291443D02*
X123535714Y50334300D01*
X123535714Y50334300D02*
X123492857Y50377158D01*
X123492857Y50377158D02*
X123407142Y50505729D01*
X123407142Y50505729D02*
X123364285Y50677158D01*
X123364285Y50677158D02*
X123364285Y51020015D01*
X123364285Y51020015D02*
X123407142Y51105729D01*
X123407142Y51105729D02*
X123450000Y51148586D01*
X123450000Y51148586D02*
X123535714Y51191443D01*
X123535714Y51191443D02*
X123707142Y51191443D01*
X123707142Y51191443D02*
X123792857Y51148586D01*
X123792857Y51148586D02*
X123835714Y51105729D01*
X123835714Y51105729D02*
X123878571Y51020015D01*
X123878571Y51020015D02*
X123878571Y50805729D01*
X123878571Y50805729D02*
X123835714Y50720015D01*
X123835714Y50720015D02*
X123792857Y50677158D01*
X123792857Y50677158D02*
X123707142Y50634300D01*
X123707142Y50634300D02*
X123535714Y50634300D01*
X123535714Y50634300D02*
X123450000Y50677158D01*
X123450000Y50677158D02*
X123407142Y50720015D01*
X123407142Y50720015D02*
X123364285Y50805729D01*
X98678571Y55737158D02*
X98721428Y55694300D01*
X98721428Y55694300D02*
X98850000Y55651443D01*
X98850000Y55651443D02*
X98935714Y55651443D01*
X98935714Y55651443D02*
X99064285Y55694300D01*
X99064285Y55694300D02*
X99150000Y55780015D01*
X99150000Y55780015D02*
X99192857Y55865729D01*
X99192857Y55865729D02*
X99235714Y56037158D01*
X99235714Y56037158D02*
X99235714Y56165729D01*
X99235714Y56165729D02*
X99192857Y56337158D01*
X99192857Y56337158D02*
X99150000Y56422872D01*
X99150000Y56422872D02*
X99064285Y56508586D01*
X99064285Y56508586D02*
X98935714Y56551443D01*
X98935714Y56551443D02*
X98850000Y56551443D01*
X98850000Y56551443D02*
X98721428Y56508586D01*
X98721428Y56508586D02*
X98678571Y56465729D01*
X97864285Y56551443D02*
X98292857Y56551443D01*
X98292857Y56551443D02*
X98335714Y56122872D01*
X98335714Y56122872D02*
X98292857Y56165729D01*
X98292857Y56165729D02*
X98207143Y56208586D01*
X98207143Y56208586D02*
X97992857Y56208586D01*
X97992857Y56208586D02*
X97907143Y56165729D01*
X97907143Y56165729D02*
X97864285Y56122872D01*
X97864285Y56122872D02*
X97821428Y56037158D01*
X97821428Y56037158D02*
X97821428Y55822872D01*
X97821428Y55822872D02*
X97864285Y55737158D01*
X97864285Y55737158D02*
X97907143Y55694300D01*
X97907143Y55694300D02*
X97992857Y55651443D01*
X97992857Y55651443D02*
X98207143Y55651443D01*
X98207143Y55651443D02*
X98292857Y55694300D01*
X98292857Y55694300D02*
X98335714Y55737158D01*
X97392857Y55651443D02*
X97221428Y55651443D01*
X97221428Y55651443D02*
X97135714Y55694300D01*
X97135714Y55694300D02*
X97092857Y55737158D01*
X97092857Y55737158D02*
X97007142Y55865729D01*
X97007142Y55865729D02*
X96964285Y56037158D01*
X96964285Y56037158D02*
X96964285Y56380015D01*
X96964285Y56380015D02*
X97007142Y56465729D01*
X97007142Y56465729D02*
X97050000Y56508586D01*
X97050000Y56508586D02*
X97135714Y56551443D01*
X97135714Y56551443D02*
X97307142Y56551443D01*
X97307142Y56551443D02*
X97392857Y56508586D01*
X97392857Y56508586D02*
X97435714Y56465729D01*
X97435714Y56465729D02*
X97478571Y56380015D01*
X97478571Y56380015D02*
X97478571Y56165729D01*
X97478571Y56165729D02*
X97435714Y56080015D01*
X97435714Y56080015D02*
X97392857Y56037158D01*
X97392857Y56037158D02*
X97307142Y55994300D01*
X97307142Y55994300D02*
X97135714Y55994300D01*
X97135714Y55994300D02*
X97050000Y56037158D01*
X97050000Y56037158D02*
X97007142Y56080015D01*
X97007142Y56080015D02*
X96964285Y56165729D01*
X28678571Y37712158D02*
X28721428Y37669300D01*
X28721428Y37669300D02*
X28850000Y37626443D01*
X28850000Y37626443D02*
X28935714Y37626443D01*
X28935714Y37626443D02*
X29064285Y37669300D01*
X29064285Y37669300D02*
X29150000Y37755015D01*
X29150000Y37755015D02*
X29192857Y37840729D01*
X29192857Y37840729D02*
X29235714Y38012158D01*
X29235714Y38012158D02*
X29235714Y38140729D01*
X29235714Y38140729D02*
X29192857Y38312158D01*
X29192857Y38312158D02*
X29150000Y38397872D01*
X29150000Y38397872D02*
X29064285Y38483586D01*
X29064285Y38483586D02*
X28935714Y38526443D01*
X28935714Y38526443D02*
X28850000Y38526443D01*
X28850000Y38526443D02*
X28721428Y38483586D01*
X28721428Y38483586D02*
X28678571Y38440729D01*
X28378571Y38526443D02*
X27821428Y38526443D01*
X27821428Y38526443D02*
X28121428Y38183586D01*
X28121428Y38183586D02*
X27992857Y38183586D01*
X27992857Y38183586D02*
X27907143Y38140729D01*
X27907143Y38140729D02*
X27864285Y38097872D01*
X27864285Y38097872D02*
X27821428Y38012158D01*
X27821428Y38012158D02*
X27821428Y37797872D01*
X27821428Y37797872D02*
X27864285Y37712158D01*
X27864285Y37712158D02*
X27907143Y37669300D01*
X27907143Y37669300D02*
X27992857Y37626443D01*
X27992857Y37626443D02*
X28250000Y37626443D01*
X28250000Y37626443D02*
X28335714Y37669300D01*
X28335714Y37669300D02*
X28378571Y37712158D01*
X27050000Y38226443D02*
X27050000Y37626443D01*
X27264285Y38569300D02*
X27478571Y37926443D01*
X27478571Y37926443D02*
X26921428Y37926443D01*
X96078571Y48512158D02*
X96121428Y48469300D01*
X96121428Y48469300D02*
X96250000Y48426443D01*
X96250000Y48426443D02*
X96335714Y48426443D01*
X96335714Y48426443D02*
X96464285Y48469300D01*
X96464285Y48469300D02*
X96550000Y48555015D01*
X96550000Y48555015D02*
X96592857Y48640729D01*
X96592857Y48640729D02*
X96635714Y48812158D01*
X96635714Y48812158D02*
X96635714Y48940729D01*
X96635714Y48940729D02*
X96592857Y49112158D01*
X96592857Y49112158D02*
X96550000Y49197872D01*
X96550000Y49197872D02*
X96464285Y49283586D01*
X96464285Y49283586D02*
X96335714Y49326443D01*
X96335714Y49326443D02*
X96250000Y49326443D01*
X96250000Y49326443D02*
X96121428Y49283586D01*
X96121428Y49283586D02*
X96078571Y49240729D01*
X95307143Y49326443D02*
X95478571Y49326443D01*
X95478571Y49326443D02*
X95564285Y49283586D01*
X95564285Y49283586D02*
X95607143Y49240729D01*
X95607143Y49240729D02*
X95692857Y49112158D01*
X95692857Y49112158D02*
X95735714Y48940729D01*
X95735714Y48940729D02*
X95735714Y48597872D01*
X95735714Y48597872D02*
X95692857Y48512158D01*
X95692857Y48512158D02*
X95650000Y48469300D01*
X95650000Y48469300D02*
X95564285Y48426443D01*
X95564285Y48426443D02*
X95392857Y48426443D01*
X95392857Y48426443D02*
X95307143Y48469300D01*
X95307143Y48469300D02*
X95264285Y48512158D01*
X95264285Y48512158D02*
X95221428Y48597872D01*
X95221428Y48597872D02*
X95221428Y48812158D01*
X95221428Y48812158D02*
X95264285Y48897872D01*
X95264285Y48897872D02*
X95307143Y48940729D01*
X95307143Y48940729D02*
X95392857Y48983586D01*
X95392857Y48983586D02*
X95564285Y48983586D01*
X95564285Y48983586D02*
X95650000Y48940729D01*
X95650000Y48940729D02*
X95692857Y48897872D01*
X95692857Y48897872D02*
X95735714Y48812158D01*
X94921428Y49326443D02*
X94364285Y49326443D01*
X94364285Y49326443D02*
X94664285Y48983586D01*
X94664285Y48983586D02*
X94535714Y48983586D01*
X94535714Y48983586D02*
X94450000Y48940729D01*
X94450000Y48940729D02*
X94407142Y48897872D01*
X94407142Y48897872D02*
X94364285Y48812158D01*
X94364285Y48812158D02*
X94364285Y48597872D01*
X94364285Y48597872D02*
X94407142Y48512158D01*
X94407142Y48512158D02*
X94450000Y48469300D01*
X94450000Y48469300D02*
X94535714Y48426443D01*
X94535714Y48426443D02*
X94792857Y48426443D01*
X94792857Y48426443D02*
X94878571Y48469300D01*
X94878571Y48469300D02*
X94921428Y48512158D01*
X125078571Y28752159D02*
X125121428Y28709301D01*
X125121428Y28709301D02*
X125250000Y28666444D01*
X125250000Y28666444D02*
X125335714Y28666444D01*
X125335714Y28666444D02*
X125464285Y28709301D01*
X125464285Y28709301D02*
X125550000Y28795016D01*
X125550000Y28795016D02*
X125592857Y28880730D01*
X125592857Y28880730D02*
X125635714Y29052159D01*
X125635714Y29052159D02*
X125635714Y29180730D01*
X125635714Y29180730D02*
X125592857Y29352159D01*
X125592857Y29352159D02*
X125550000Y29437873D01*
X125550000Y29437873D02*
X125464285Y29523587D01*
X125464285Y29523587D02*
X125335714Y29566444D01*
X125335714Y29566444D02*
X125250000Y29566444D01*
X125250000Y29566444D02*
X125121428Y29523587D01*
X125121428Y29523587D02*
X125078571Y29480730D01*
X124650000Y28666444D02*
X124478571Y28666444D01*
X124478571Y28666444D02*
X124392857Y28709301D01*
X124392857Y28709301D02*
X124350000Y28752159D01*
X124350000Y28752159D02*
X124264285Y28880730D01*
X124264285Y28880730D02*
X124221428Y29052159D01*
X124221428Y29052159D02*
X124221428Y29395016D01*
X124221428Y29395016D02*
X124264285Y29480730D01*
X124264285Y29480730D02*
X124307143Y29523587D01*
X124307143Y29523587D02*
X124392857Y29566444D01*
X124392857Y29566444D02*
X124564285Y29566444D01*
X124564285Y29566444D02*
X124650000Y29523587D01*
X124650000Y29523587D02*
X124692857Y29480730D01*
X124692857Y29480730D02*
X124735714Y29395016D01*
X124735714Y29395016D02*
X124735714Y29180730D01*
X124735714Y29180730D02*
X124692857Y29095016D01*
X124692857Y29095016D02*
X124650000Y29052159D01*
X124650000Y29052159D02*
X124564285Y29009301D01*
X124564285Y29009301D02*
X124392857Y29009301D01*
X124392857Y29009301D02*
X124307143Y29052159D01*
X124307143Y29052159D02*
X124264285Y29095016D01*
X124264285Y29095016D02*
X124221428Y29180730D01*
X123450000Y29266444D02*
X123450000Y28666444D01*
X123664285Y29609301D02*
X123878571Y28966444D01*
X123878571Y28966444D02*
X123321428Y28966444D01*
X98678571Y44912158D02*
X98721428Y44869300D01*
X98721428Y44869300D02*
X98850000Y44826443D01*
X98850000Y44826443D02*
X98935714Y44826443D01*
X98935714Y44826443D02*
X99064285Y44869300D01*
X99064285Y44869300D02*
X99150000Y44955015D01*
X99150000Y44955015D02*
X99192857Y45040729D01*
X99192857Y45040729D02*
X99235714Y45212158D01*
X99235714Y45212158D02*
X99235714Y45340729D01*
X99235714Y45340729D02*
X99192857Y45512158D01*
X99192857Y45512158D02*
X99150000Y45597872D01*
X99150000Y45597872D02*
X99064285Y45683586D01*
X99064285Y45683586D02*
X98935714Y45726443D01*
X98935714Y45726443D02*
X98850000Y45726443D01*
X98850000Y45726443D02*
X98721428Y45683586D01*
X98721428Y45683586D02*
X98678571Y45640729D01*
X97907143Y45726443D02*
X98078571Y45726443D01*
X98078571Y45726443D02*
X98164285Y45683586D01*
X98164285Y45683586D02*
X98207143Y45640729D01*
X98207143Y45640729D02*
X98292857Y45512158D01*
X98292857Y45512158D02*
X98335714Y45340729D01*
X98335714Y45340729D02*
X98335714Y44997872D01*
X98335714Y44997872D02*
X98292857Y44912158D01*
X98292857Y44912158D02*
X98250000Y44869300D01*
X98250000Y44869300D02*
X98164285Y44826443D01*
X98164285Y44826443D02*
X97992857Y44826443D01*
X97992857Y44826443D02*
X97907143Y44869300D01*
X97907143Y44869300D02*
X97864285Y44912158D01*
X97864285Y44912158D02*
X97821428Y44997872D01*
X97821428Y44997872D02*
X97821428Y45212158D01*
X97821428Y45212158D02*
X97864285Y45297872D01*
X97864285Y45297872D02*
X97907143Y45340729D01*
X97907143Y45340729D02*
X97992857Y45383586D01*
X97992857Y45383586D02*
X98164285Y45383586D01*
X98164285Y45383586D02*
X98250000Y45340729D01*
X98250000Y45340729D02*
X98292857Y45297872D01*
X98292857Y45297872D02*
X98335714Y45212158D01*
X97521428Y45726443D02*
X96921428Y45726443D01*
X96921428Y45726443D02*
X97307142Y44826443D01*
X96078571Y41312158D02*
X96121428Y41269300D01*
X96121428Y41269300D02*
X96250000Y41226443D01*
X96250000Y41226443D02*
X96335714Y41226443D01*
X96335714Y41226443D02*
X96464285Y41269300D01*
X96464285Y41269300D02*
X96550000Y41355015D01*
X96550000Y41355015D02*
X96592857Y41440729D01*
X96592857Y41440729D02*
X96635714Y41612158D01*
X96635714Y41612158D02*
X96635714Y41740729D01*
X96635714Y41740729D02*
X96592857Y41912158D01*
X96592857Y41912158D02*
X96550000Y41997872D01*
X96550000Y41997872D02*
X96464285Y42083586D01*
X96464285Y42083586D02*
X96335714Y42126443D01*
X96335714Y42126443D02*
X96250000Y42126443D01*
X96250000Y42126443D02*
X96121428Y42083586D01*
X96121428Y42083586D02*
X96078571Y42040729D01*
X95307143Y42126443D02*
X95478571Y42126443D01*
X95478571Y42126443D02*
X95564285Y42083586D01*
X95564285Y42083586D02*
X95607143Y42040729D01*
X95607143Y42040729D02*
X95692857Y41912158D01*
X95692857Y41912158D02*
X95735714Y41740729D01*
X95735714Y41740729D02*
X95735714Y41397872D01*
X95735714Y41397872D02*
X95692857Y41312158D01*
X95692857Y41312158D02*
X95650000Y41269300D01*
X95650000Y41269300D02*
X95564285Y41226443D01*
X95564285Y41226443D02*
X95392857Y41226443D01*
X95392857Y41226443D02*
X95307143Y41269300D01*
X95307143Y41269300D02*
X95264285Y41312158D01*
X95264285Y41312158D02*
X95221428Y41397872D01*
X95221428Y41397872D02*
X95221428Y41612158D01*
X95221428Y41612158D02*
X95264285Y41697872D01*
X95264285Y41697872D02*
X95307143Y41740729D01*
X95307143Y41740729D02*
X95392857Y41783586D01*
X95392857Y41783586D02*
X95564285Y41783586D01*
X95564285Y41783586D02*
X95650000Y41740729D01*
X95650000Y41740729D02*
X95692857Y41697872D01*
X95692857Y41697872D02*
X95735714Y41612158D01*
X94707142Y41740729D02*
X94792857Y41783586D01*
X94792857Y41783586D02*
X94835714Y41826443D01*
X94835714Y41826443D02*
X94878571Y41912158D01*
X94878571Y41912158D02*
X94878571Y41955015D01*
X94878571Y41955015D02*
X94835714Y42040729D01*
X94835714Y42040729D02*
X94792857Y42083586D01*
X94792857Y42083586D02*
X94707142Y42126443D01*
X94707142Y42126443D02*
X94535714Y42126443D01*
X94535714Y42126443D02*
X94450000Y42083586D01*
X94450000Y42083586D02*
X94407142Y42040729D01*
X94407142Y42040729D02*
X94364285Y41955015D01*
X94364285Y41955015D02*
X94364285Y41912158D01*
X94364285Y41912158D02*
X94407142Y41826443D01*
X94407142Y41826443D02*
X94450000Y41783586D01*
X94450000Y41783586D02*
X94535714Y41740729D01*
X94535714Y41740729D02*
X94707142Y41740729D01*
X94707142Y41740729D02*
X94792857Y41697872D01*
X94792857Y41697872D02*
X94835714Y41655015D01*
X94835714Y41655015D02*
X94878571Y41569300D01*
X94878571Y41569300D02*
X94878571Y41397872D01*
X94878571Y41397872D02*
X94835714Y41312158D01*
X94835714Y41312158D02*
X94792857Y41269300D01*
X94792857Y41269300D02*
X94707142Y41226443D01*
X94707142Y41226443D02*
X94535714Y41226443D01*
X94535714Y41226443D02*
X94450000Y41269300D01*
X94450000Y41269300D02*
X94407142Y41312158D01*
X94407142Y41312158D02*
X94364285Y41397872D01*
X94364285Y41397872D02*
X94364285Y41569300D01*
X94364285Y41569300D02*
X94407142Y41655015D01*
X94407142Y41655015D02*
X94450000Y41697872D01*
X94450000Y41697872D02*
X94535714Y41740729D01*
X125078571Y35952159D02*
X125121428Y35909301D01*
X125121428Y35909301D02*
X125250000Y35866444D01*
X125250000Y35866444D02*
X125335714Y35866444D01*
X125335714Y35866444D02*
X125464285Y35909301D01*
X125464285Y35909301D02*
X125550000Y35995016D01*
X125550000Y35995016D02*
X125592857Y36080730D01*
X125592857Y36080730D02*
X125635714Y36252159D01*
X125635714Y36252159D02*
X125635714Y36380730D01*
X125635714Y36380730D02*
X125592857Y36552159D01*
X125592857Y36552159D02*
X125550000Y36637873D01*
X125550000Y36637873D02*
X125464285Y36723587D01*
X125464285Y36723587D02*
X125335714Y36766444D01*
X125335714Y36766444D02*
X125250000Y36766444D01*
X125250000Y36766444D02*
X125121428Y36723587D01*
X125121428Y36723587D02*
X125078571Y36680730D01*
X124564285Y36380730D02*
X124650000Y36423587D01*
X124650000Y36423587D02*
X124692857Y36466444D01*
X124692857Y36466444D02*
X124735714Y36552159D01*
X124735714Y36552159D02*
X124735714Y36595016D01*
X124735714Y36595016D02*
X124692857Y36680730D01*
X124692857Y36680730D02*
X124650000Y36723587D01*
X124650000Y36723587D02*
X124564285Y36766444D01*
X124564285Y36766444D02*
X124392857Y36766444D01*
X124392857Y36766444D02*
X124307143Y36723587D01*
X124307143Y36723587D02*
X124264285Y36680730D01*
X124264285Y36680730D02*
X124221428Y36595016D01*
X124221428Y36595016D02*
X124221428Y36552159D01*
X124221428Y36552159D02*
X124264285Y36466444D01*
X124264285Y36466444D02*
X124307143Y36423587D01*
X124307143Y36423587D02*
X124392857Y36380730D01*
X124392857Y36380730D02*
X124564285Y36380730D01*
X124564285Y36380730D02*
X124650000Y36337873D01*
X124650000Y36337873D02*
X124692857Y36295016D01*
X124692857Y36295016D02*
X124735714Y36209301D01*
X124735714Y36209301D02*
X124735714Y36037873D01*
X124735714Y36037873D02*
X124692857Y35952159D01*
X124692857Y35952159D02*
X124650000Y35909301D01*
X124650000Y35909301D02*
X124564285Y35866444D01*
X124564285Y35866444D02*
X124392857Y35866444D01*
X124392857Y35866444D02*
X124307143Y35909301D01*
X124307143Y35909301D02*
X124264285Y35952159D01*
X124264285Y35952159D02*
X124221428Y36037873D01*
X124221428Y36037873D02*
X124221428Y36209301D01*
X124221428Y36209301D02*
X124264285Y36295016D01*
X124264285Y36295016D02*
X124307143Y36337873D01*
X124307143Y36337873D02*
X124392857Y36380730D01*
X123792857Y35866444D02*
X123621428Y35866444D01*
X123621428Y35866444D02*
X123535714Y35909301D01*
X123535714Y35909301D02*
X123492857Y35952159D01*
X123492857Y35952159D02*
X123407142Y36080730D01*
X123407142Y36080730D02*
X123364285Y36252159D01*
X123364285Y36252159D02*
X123364285Y36595016D01*
X123364285Y36595016D02*
X123407142Y36680730D01*
X123407142Y36680730D02*
X123450000Y36723587D01*
X123450000Y36723587D02*
X123535714Y36766444D01*
X123535714Y36766444D02*
X123707142Y36766444D01*
X123707142Y36766444D02*
X123792857Y36723587D01*
X123792857Y36723587D02*
X123835714Y36680730D01*
X123835714Y36680730D02*
X123878571Y36595016D01*
X123878571Y36595016D02*
X123878571Y36380730D01*
X123878571Y36380730D02*
X123835714Y36295016D01*
X123835714Y36295016D02*
X123792857Y36252159D01*
X123792857Y36252159D02*
X123707142Y36209301D01*
X123707142Y36209301D02*
X123535714Y36209301D01*
X123535714Y36209301D02*
X123450000Y36252159D01*
X123450000Y36252159D02*
X123407142Y36295016D01*
X123407142Y36295016D02*
X123364285Y36380730D01*
X122478571Y32352159D02*
X122521428Y32309301D01*
X122521428Y32309301D02*
X122650000Y32266444D01*
X122650000Y32266444D02*
X122735714Y32266444D01*
X122735714Y32266444D02*
X122864285Y32309301D01*
X122864285Y32309301D02*
X122950000Y32395016D01*
X122950000Y32395016D02*
X122992857Y32480730D01*
X122992857Y32480730D02*
X123035714Y32652159D01*
X123035714Y32652159D02*
X123035714Y32780730D01*
X123035714Y32780730D02*
X122992857Y32952159D01*
X122992857Y32952159D02*
X122950000Y33037873D01*
X122950000Y33037873D02*
X122864285Y33123587D01*
X122864285Y33123587D02*
X122735714Y33166444D01*
X122735714Y33166444D02*
X122650000Y33166444D01*
X122650000Y33166444D02*
X122521428Y33123587D01*
X122521428Y33123587D02*
X122478571Y33080730D01*
X122050000Y32266444D02*
X121878571Y32266444D01*
X121878571Y32266444D02*
X121792857Y32309301D01*
X121792857Y32309301D02*
X121750000Y32352159D01*
X121750000Y32352159D02*
X121664285Y32480730D01*
X121664285Y32480730D02*
X121621428Y32652159D01*
X121621428Y32652159D02*
X121621428Y32995016D01*
X121621428Y32995016D02*
X121664285Y33080730D01*
X121664285Y33080730D02*
X121707143Y33123587D01*
X121707143Y33123587D02*
X121792857Y33166444D01*
X121792857Y33166444D02*
X121964285Y33166444D01*
X121964285Y33166444D02*
X122050000Y33123587D01*
X122050000Y33123587D02*
X122092857Y33080730D01*
X122092857Y33080730D02*
X122135714Y32995016D01*
X122135714Y32995016D02*
X122135714Y32780730D01*
X122135714Y32780730D02*
X122092857Y32695016D01*
X122092857Y32695016D02*
X122050000Y32652159D01*
X122050000Y32652159D02*
X121964285Y32609301D01*
X121964285Y32609301D02*
X121792857Y32609301D01*
X121792857Y32609301D02*
X121707143Y32652159D01*
X121707143Y32652159D02*
X121664285Y32695016D01*
X121664285Y32695016D02*
X121621428Y32780730D01*
X120764285Y32266444D02*
X121278571Y32266444D01*
X121021428Y32266444D02*
X121021428Y33166444D01*
X121021428Y33166444D02*
X121107142Y33037873D01*
X121107142Y33037873D02*
X121192857Y32952159D01*
X121192857Y32952159D02*
X121278571Y32909301D01*
X98678571Y59337158D02*
X98721428Y59294300D01*
X98721428Y59294300D02*
X98850000Y59251443D01*
X98850000Y59251443D02*
X98935714Y59251443D01*
X98935714Y59251443D02*
X99064285Y59294300D01*
X99064285Y59294300D02*
X99150000Y59380015D01*
X99150000Y59380015D02*
X99192857Y59465729D01*
X99192857Y59465729D02*
X99235714Y59637158D01*
X99235714Y59637158D02*
X99235714Y59765729D01*
X99235714Y59765729D02*
X99192857Y59937158D01*
X99192857Y59937158D02*
X99150000Y60022872D01*
X99150000Y60022872D02*
X99064285Y60108586D01*
X99064285Y60108586D02*
X98935714Y60151443D01*
X98935714Y60151443D02*
X98850000Y60151443D01*
X98850000Y60151443D02*
X98721428Y60108586D01*
X98721428Y60108586D02*
X98678571Y60065729D01*
X97864285Y60151443D02*
X98292857Y60151443D01*
X98292857Y60151443D02*
X98335714Y59722872D01*
X98335714Y59722872D02*
X98292857Y59765729D01*
X98292857Y59765729D02*
X98207143Y59808586D01*
X98207143Y59808586D02*
X97992857Y59808586D01*
X97992857Y59808586D02*
X97907143Y59765729D01*
X97907143Y59765729D02*
X97864285Y59722872D01*
X97864285Y59722872D02*
X97821428Y59637158D01*
X97821428Y59637158D02*
X97821428Y59422872D01*
X97821428Y59422872D02*
X97864285Y59337158D01*
X97864285Y59337158D02*
X97907143Y59294300D01*
X97907143Y59294300D02*
X97992857Y59251443D01*
X97992857Y59251443D02*
X98207143Y59251443D01*
X98207143Y59251443D02*
X98292857Y59294300D01*
X98292857Y59294300D02*
X98335714Y59337158D01*
X97521428Y60151443D02*
X96921428Y60151443D01*
X96921428Y60151443D02*
X97307142Y59251443D01*
X122478571Y39552159D02*
X122521428Y39509301D01*
X122521428Y39509301D02*
X122650000Y39466444D01*
X122650000Y39466444D02*
X122735714Y39466444D01*
X122735714Y39466444D02*
X122864285Y39509301D01*
X122864285Y39509301D02*
X122950000Y39595016D01*
X122950000Y39595016D02*
X122992857Y39680730D01*
X122992857Y39680730D02*
X123035714Y39852159D01*
X123035714Y39852159D02*
X123035714Y39980730D01*
X123035714Y39980730D02*
X122992857Y40152159D01*
X122992857Y40152159D02*
X122950000Y40237873D01*
X122950000Y40237873D02*
X122864285Y40323587D01*
X122864285Y40323587D02*
X122735714Y40366444D01*
X122735714Y40366444D02*
X122650000Y40366444D01*
X122650000Y40366444D02*
X122521428Y40323587D01*
X122521428Y40323587D02*
X122478571Y40280730D01*
X121964285Y39980730D02*
X122050000Y40023587D01*
X122050000Y40023587D02*
X122092857Y40066444D01*
X122092857Y40066444D02*
X122135714Y40152159D01*
X122135714Y40152159D02*
X122135714Y40195016D01*
X122135714Y40195016D02*
X122092857Y40280730D01*
X122092857Y40280730D02*
X122050000Y40323587D01*
X122050000Y40323587D02*
X121964285Y40366444D01*
X121964285Y40366444D02*
X121792857Y40366444D01*
X121792857Y40366444D02*
X121707143Y40323587D01*
X121707143Y40323587D02*
X121664285Y40280730D01*
X121664285Y40280730D02*
X121621428Y40195016D01*
X121621428Y40195016D02*
X121621428Y40152159D01*
X121621428Y40152159D02*
X121664285Y40066444D01*
X121664285Y40066444D02*
X121707143Y40023587D01*
X121707143Y40023587D02*
X121792857Y39980730D01*
X121792857Y39980730D02*
X121964285Y39980730D01*
X121964285Y39980730D02*
X122050000Y39937873D01*
X122050000Y39937873D02*
X122092857Y39895016D01*
X122092857Y39895016D02*
X122135714Y39809301D01*
X122135714Y39809301D02*
X122135714Y39637873D01*
X122135714Y39637873D02*
X122092857Y39552159D01*
X122092857Y39552159D02*
X122050000Y39509301D01*
X122050000Y39509301D02*
X121964285Y39466444D01*
X121964285Y39466444D02*
X121792857Y39466444D01*
X121792857Y39466444D02*
X121707143Y39509301D01*
X121707143Y39509301D02*
X121664285Y39552159D01*
X121664285Y39552159D02*
X121621428Y39637873D01*
X121621428Y39637873D02*
X121621428Y39809301D01*
X121621428Y39809301D02*
X121664285Y39895016D01*
X121664285Y39895016D02*
X121707143Y39937873D01*
X121707143Y39937873D02*
X121792857Y39980730D01*
X120850000Y40366444D02*
X121021428Y40366444D01*
X121021428Y40366444D02*
X121107142Y40323587D01*
X121107142Y40323587D02*
X121150000Y40280730D01*
X121150000Y40280730D02*
X121235714Y40152159D01*
X121235714Y40152159D02*
X121278571Y39980730D01*
X121278571Y39980730D02*
X121278571Y39637873D01*
X121278571Y39637873D02*
X121235714Y39552159D01*
X121235714Y39552159D02*
X121192857Y39509301D01*
X121192857Y39509301D02*
X121107142Y39466444D01*
X121107142Y39466444D02*
X120935714Y39466444D01*
X120935714Y39466444D02*
X120850000Y39509301D01*
X120850000Y39509301D02*
X120807142Y39552159D01*
X120807142Y39552159D02*
X120764285Y39637873D01*
X120764285Y39637873D02*
X120764285Y39852159D01*
X120764285Y39852159D02*
X120807142Y39937873D01*
X120807142Y39937873D02*
X120850000Y39980730D01*
X120850000Y39980730D02*
X120935714Y40023587D01*
X120935714Y40023587D02*
X121107142Y40023587D01*
X121107142Y40023587D02*
X121192857Y39980730D01*
X121192857Y39980730D02*
X121235714Y39937873D01*
X121235714Y39937873D02*
X121278571Y39852159D01*
X52478571Y46752158D02*
X52521428Y46709300D01*
X52521428Y46709300D02*
X52650000Y46666443D01*
X52650000Y46666443D02*
X52735714Y46666443D01*
X52735714Y46666443D02*
X52864285Y46709300D01*
X52864285Y46709300D02*
X52950000Y46795015D01*
X52950000Y46795015D02*
X52992857Y46880729D01*
X52992857Y46880729D02*
X53035714Y47052158D01*
X53035714Y47052158D02*
X53035714Y47180729D01*
X53035714Y47180729D02*
X52992857Y47352158D01*
X52992857Y47352158D02*
X52950000Y47437872D01*
X52950000Y47437872D02*
X52864285Y47523586D01*
X52864285Y47523586D02*
X52735714Y47566443D01*
X52735714Y47566443D02*
X52650000Y47566443D01*
X52650000Y47566443D02*
X52521428Y47523586D01*
X52521428Y47523586D02*
X52478571Y47480729D01*
X51707143Y47266443D02*
X51707143Y46666443D01*
X51921428Y47609300D02*
X52135714Y46966443D01*
X52135714Y46966443D02*
X51578571Y46966443D01*
X50764285Y46666443D02*
X51278571Y46666443D01*
X51021428Y46666443D02*
X51021428Y47566443D01*
X51021428Y47566443D02*
X51107142Y47437872D01*
X51107142Y47437872D02*
X51192857Y47352158D01*
X51192857Y47352158D02*
X51278571Y47309300D01*
X28678571Y44912158D02*
X28721428Y44869300D01*
X28721428Y44869300D02*
X28850000Y44826443D01*
X28850000Y44826443D02*
X28935714Y44826443D01*
X28935714Y44826443D02*
X29064285Y44869300D01*
X29064285Y44869300D02*
X29150000Y44955015D01*
X29150000Y44955015D02*
X29192857Y45040729D01*
X29192857Y45040729D02*
X29235714Y45212158D01*
X29235714Y45212158D02*
X29235714Y45340729D01*
X29235714Y45340729D02*
X29192857Y45512158D01*
X29192857Y45512158D02*
X29150000Y45597872D01*
X29150000Y45597872D02*
X29064285Y45683586D01*
X29064285Y45683586D02*
X28935714Y45726443D01*
X28935714Y45726443D02*
X28850000Y45726443D01*
X28850000Y45726443D02*
X28721428Y45683586D01*
X28721428Y45683586D02*
X28678571Y45640729D01*
X28335714Y45640729D02*
X28292857Y45683586D01*
X28292857Y45683586D02*
X28207143Y45726443D01*
X28207143Y45726443D02*
X27992857Y45726443D01*
X27992857Y45726443D02*
X27907143Y45683586D01*
X27907143Y45683586D02*
X27864285Y45640729D01*
X27864285Y45640729D02*
X27821428Y45555015D01*
X27821428Y45555015D02*
X27821428Y45469300D01*
X27821428Y45469300D02*
X27864285Y45340729D01*
X27864285Y45340729D02*
X28378571Y44826443D01*
X28378571Y44826443D02*
X27821428Y44826443D01*
X27392857Y44826443D02*
X27221428Y44826443D01*
X27221428Y44826443D02*
X27135714Y44869300D01*
X27135714Y44869300D02*
X27092857Y44912158D01*
X27092857Y44912158D02*
X27007142Y45040729D01*
X27007142Y45040729D02*
X26964285Y45212158D01*
X26964285Y45212158D02*
X26964285Y45555015D01*
X26964285Y45555015D02*
X27007142Y45640729D01*
X27007142Y45640729D02*
X27050000Y45683586D01*
X27050000Y45683586D02*
X27135714Y45726443D01*
X27135714Y45726443D02*
X27307142Y45726443D01*
X27307142Y45726443D02*
X27392857Y45683586D01*
X27392857Y45683586D02*
X27435714Y45640729D01*
X27435714Y45640729D02*
X27478571Y45555015D01*
X27478571Y45555015D02*
X27478571Y45340729D01*
X27478571Y45340729D02*
X27435714Y45255015D01*
X27435714Y45255015D02*
X27392857Y45212158D01*
X27392857Y45212158D02*
X27307142Y45169300D01*
X27307142Y45169300D02*
X27135714Y45169300D01*
X27135714Y45169300D02*
X27050000Y45212158D01*
X27050000Y45212158D02*
X27007142Y45255015D01*
X27007142Y45255015D02*
X26964285Y45340729D01*
X52478571Y35952159D02*
X52521428Y35909301D01*
X52521428Y35909301D02*
X52650000Y35866444D01*
X52650000Y35866444D02*
X52735714Y35866444D01*
X52735714Y35866444D02*
X52864285Y35909301D01*
X52864285Y35909301D02*
X52950000Y35995016D01*
X52950000Y35995016D02*
X52992857Y36080730D01*
X52992857Y36080730D02*
X53035714Y36252159D01*
X53035714Y36252159D02*
X53035714Y36380730D01*
X53035714Y36380730D02*
X52992857Y36552159D01*
X52992857Y36552159D02*
X52950000Y36637873D01*
X52950000Y36637873D02*
X52864285Y36723587D01*
X52864285Y36723587D02*
X52735714Y36766444D01*
X52735714Y36766444D02*
X52650000Y36766444D01*
X52650000Y36766444D02*
X52521428Y36723587D01*
X52521428Y36723587D02*
X52478571Y36680730D01*
X51707143Y36466444D02*
X51707143Y35866444D01*
X51921428Y36809301D02*
X52135714Y36166444D01*
X52135714Y36166444D02*
X51578571Y36166444D01*
X51107142Y36380730D02*
X51192857Y36423587D01*
X51192857Y36423587D02*
X51235714Y36466444D01*
X51235714Y36466444D02*
X51278571Y36552159D01*
X51278571Y36552159D02*
X51278571Y36595016D01*
X51278571Y36595016D02*
X51235714Y36680730D01*
X51235714Y36680730D02*
X51192857Y36723587D01*
X51192857Y36723587D02*
X51107142Y36766444D01*
X51107142Y36766444D02*
X50935714Y36766444D01*
X50935714Y36766444D02*
X50850000Y36723587D01*
X50850000Y36723587D02*
X50807142Y36680730D01*
X50807142Y36680730D02*
X50764285Y36595016D01*
X50764285Y36595016D02*
X50764285Y36552159D01*
X50764285Y36552159D02*
X50807142Y36466444D01*
X50807142Y36466444D02*
X50850000Y36423587D01*
X50850000Y36423587D02*
X50935714Y36380730D01*
X50935714Y36380730D02*
X51107142Y36380730D01*
X51107142Y36380730D02*
X51192857Y36337873D01*
X51192857Y36337873D02*
X51235714Y36295016D01*
X51235714Y36295016D02*
X51278571Y36209301D01*
X51278571Y36209301D02*
X51278571Y36037873D01*
X51278571Y36037873D02*
X51235714Y35952159D01*
X51235714Y35952159D02*
X51192857Y35909301D01*
X51192857Y35909301D02*
X51107142Y35866444D01*
X51107142Y35866444D02*
X50935714Y35866444D01*
X50935714Y35866444D02*
X50850000Y35909301D01*
X50850000Y35909301D02*
X50807142Y35952159D01*
X50807142Y35952159D02*
X50764285Y36037873D01*
X50764285Y36037873D02*
X50764285Y36209301D01*
X50764285Y36209301D02*
X50807142Y36295016D01*
X50807142Y36295016D02*
X50850000Y36337873D01*
X50850000Y36337873D02*
X50935714Y36380730D01*
X98678571Y34112158D02*
X98721428Y34069300D01*
X98721428Y34069300D02*
X98850000Y34026443D01*
X98850000Y34026443D02*
X98935714Y34026443D01*
X98935714Y34026443D02*
X99064285Y34069300D01*
X99064285Y34069300D02*
X99150000Y34155015D01*
X99150000Y34155015D02*
X99192857Y34240729D01*
X99192857Y34240729D02*
X99235714Y34412158D01*
X99235714Y34412158D02*
X99235714Y34540729D01*
X99235714Y34540729D02*
X99192857Y34712158D01*
X99192857Y34712158D02*
X99150000Y34797872D01*
X99150000Y34797872D02*
X99064285Y34883586D01*
X99064285Y34883586D02*
X98935714Y34926443D01*
X98935714Y34926443D02*
X98850000Y34926443D01*
X98850000Y34926443D02*
X98721428Y34883586D01*
X98721428Y34883586D02*
X98678571Y34840729D01*
X98378571Y34926443D02*
X97778571Y34926443D01*
X97778571Y34926443D02*
X98164285Y34026443D01*
X97050000Y34626443D02*
X97050000Y34026443D01*
X97264285Y34969300D02*
X97478571Y34326443D01*
X97478571Y34326443D02*
X96921428Y34326443D01*
X98678571Y48512158D02*
X98721428Y48469300D01*
X98721428Y48469300D02*
X98850000Y48426443D01*
X98850000Y48426443D02*
X98935714Y48426443D01*
X98935714Y48426443D02*
X99064285Y48469300D01*
X99064285Y48469300D02*
X99150000Y48555015D01*
X99150000Y48555015D02*
X99192857Y48640729D01*
X99192857Y48640729D02*
X99235714Y48812158D01*
X99235714Y48812158D02*
X99235714Y48940729D01*
X99235714Y48940729D02*
X99192857Y49112158D01*
X99192857Y49112158D02*
X99150000Y49197872D01*
X99150000Y49197872D02*
X99064285Y49283586D01*
X99064285Y49283586D02*
X98935714Y49326443D01*
X98935714Y49326443D02*
X98850000Y49326443D01*
X98850000Y49326443D02*
X98721428Y49283586D01*
X98721428Y49283586D02*
X98678571Y49240729D01*
X97907143Y49326443D02*
X98078571Y49326443D01*
X98078571Y49326443D02*
X98164285Y49283586D01*
X98164285Y49283586D02*
X98207143Y49240729D01*
X98207143Y49240729D02*
X98292857Y49112158D01*
X98292857Y49112158D02*
X98335714Y48940729D01*
X98335714Y48940729D02*
X98335714Y48597872D01*
X98335714Y48597872D02*
X98292857Y48512158D01*
X98292857Y48512158D02*
X98250000Y48469300D01*
X98250000Y48469300D02*
X98164285Y48426443D01*
X98164285Y48426443D02*
X97992857Y48426443D01*
X97992857Y48426443D02*
X97907143Y48469300D01*
X97907143Y48469300D02*
X97864285Y48512158D01*
X97864285Y48512158D02*
X97821428Y48597872D01*
X97821428Y48597872D02*
X97821428Y48812158D01*
X97821428Y48812158D02*
X97864285Y48897872D01*
X97864285Y48897872D02*
X97907143Y48940729D01*
X97907143Y48940729D02*
X97992857Y48983586D01*
X97992857Y48983586D02*
X98164285Y48983586D01*
X98164285Y48983586D02*
X98250000Y48940729D01*
X98250000Y48940729D02*
X98292857Y48897872D01*
X98292857Y48897872D02*
X98335714Y48812158D01*
X97050000Y49026443D02*
X97050000Y48426443D01*
X97264285Y49369300D02*
X97478571Y48726443D01*
X97478571Y48726443D02*
X96921428Y48726443D01*
X26078571Y44912158D02*
X26121428Y44869300D01*
X26121428Y44869300D02*
X26250000Y44826443D01*
X26250000Y44826443D02*
X26335714Y44826443D01*
X26335714Y44826443D02*
X26464285Y44869300D01*
X26464285Y44869300D02*
X26550000Y44955015D01*
X26550000Y44955015D02*
X26592857Y45040729D01*
X26592857Y45040729D02*
X26635714Y45212158D01*
X26635714Y45212158D02*
X26635714Y45340729D01*
X26635714Y45340729D02*
X26592857Y45512158D01*
X26592857Y45512158D02*
X26550000Y45597872D01*
X26550000Y45597872D02*
X26464285Y45683586D01*
X26464285Y45683586D02*
X26335714Y45726443D01*
X26335714Y45726443D02*
X26250000Y45726443D01*
X26250000Y45726443D02*
X26121428Y45683586D01*
X26121428Y45683586D02*
X26078571Y45640729D01*
X25735714Y45640729D02*
X25692857Y45683586D01*
X25692857Y45683586D02*
X25607143Y45726443D01*
X25607143Y45726443D02*
X25392857Y45726443D01*
X25392857Y45726443D02*
X25307143Y45683586D01*
X25307143Y45683586D02*
X25264285Y45640729D01*
X25264285Y45640729D02*
X25221428Y45555015D01*
X25221428Y45555015D02*
X25221428Y45469300D01*
X25221428Y45469300D02*
X25264285Y45340729D01*
X25264285Y45340729D02*
X25778571Y44826443D01*
X25778571Y44826443D02*
X25221428Y44826443D01*
X24707142Y45340729D02*
X24792857Y45383586D01*
X24792857Y45383586D02*
X24835714Y45426443D01*
X24835714Y45426443D02*
X24878571Y45512158D01*
X24878571Y45512158D02*
X24878571Y45555015D01*
X24878571Y45555015D02*
X24835714Y45640729D01*
X24835714Y45640729D02*
X24792857Y45683586D01*
X24792857Y45683586D02*
X24707142Y45726443D01*
X24707142Y45726443D02*
X24535714Y45726443D01*
X24535714Y45726443D02*
X24450000Y45683586D01*
X24450000Y45683586D02*
X24407142Y45640729D01*
X24407142Y45640729D02*
X24364285Y45555015D01*
X24364285Y45555015D02*
X24364285Y45512158D01*
X24364285Y45512158D02*
X24407142Y45426443D01*
X24407142Y45426443D02*
X24450000Y45383586D01*
X24450000Y45383586D02*
X24535714Y45340729D01*
X24535714Y45340729D02*
X24707142Y45340729D01*
X24707142Y45340729D02*
X24792857Y45297872D01*
X24792857Y45297872D02*
X24835714Y45255015D01*
X24835714Y45255015D02*
X24878571Y45169300D01*
X24878571Y45169300D02*
X24878571Y44997872D01*
X24878571Y44997872D02*
X24835714Y44912158D01*
X24835714Y44912158D02*
X24792857Y44869300D01*
X24792857Y44869300D02*
X24707142Y44826443D01*
X24707142Y44826443D02*
X24535714Y44826443D01*
X24535714Y44826443D02*
X24450000Y44869300D01*
X24450000Y44869300D02*
X24407142Y44912158D01*
X24407142Y44912158D02*
X24364285Y44997872D01*
X24364285Y44997872D02*
X24364285Y45169300D01*
X24364285Y45169300D02*
X24407142Y45255015D01*
X24407142Y45255015D02*
X24450000Y45297872D01*
X24450000Y45297872D02*
X24535714Y45340729D01*
X55078571Y46752158D02*
X55121428Y46709300D01*
X55121428Y46709300D02*
X55250000Y46666443D01*
X55250000Y46666443D02*
X55335714Y46666443D01*
X55335714Y46666443D02*
X55464285Y46709300D01*
X55464285Y46709300D02*
X55550000Y46795015D01*
X55550000Y46795015D02*
X55592857Y46880729D01*
X55592857Y46880729D02*
X55635714Y47052158D01*
X55635714Y47052158D02*
X55635714Y47180729D01*
X55635714Y47180729D02*
X55592857Y47352158D01*
X55592857Y47352158D02*
X55550000Y47437872D01*
X55550000Y47437872D02*
X55464285Y47523586D01*
X55464285Y47523586D02*
X55335714Y47566443D01*
X55335714Y47566443D02*
X55250000Y47566443D01*
X55250000Y47566443D02*
X55121428Y47523586D01*
X55121428Y47523586D02*
X55078571Y47480729D01*
X54307143Y47266443D02*
X54307143Y46666443D01*
X54521428Y47609300D02*
X54735714Y46966443D01*
X54735714Y46966443D02*
X54178571Y46966443D01*
X53878571Y47480729D02*
X53835714Y47523586D01*
X53835714Y47523586D02*
X53750000Y47566443D01*
X53750000Y47566443D02*
X53535714Y47566443D01*
X53535714Y47566443D02*
X53450000Y47523586D01*
X53450000Y47523586D02*
X53407142Y47480729D01*
X53407142Y47480729D02*
X53364285Y47395015D01*
X53364285Y47395015D02*
X53364285Y47309300D01*
X53364285Y47309300D02*
X53407142Y47180729D01*
X53407142Y47180729D02*
X53921428Y46666443D01*
X53921428Y46666443D02*
X53364285Y46666443D01*
X52478571Y50377158D02*
X52521428Y50334300D01*
X52521428Y50334300D02*
X52650000Y50291443D01*
X52650000Y50291443D02*
X52735714Y50291443D01*
X52735714Y50291443D02*
X52864285Y50334300D01*
X52864285Y50334300D02*
X52950000Y50420015D01*
X52950000Y50420015D02*
X52992857Y50505729D01*
X52992857Y50505729D02*
X53035714Y50677158D01*
X53035714Y50677158D02*
X53035714Y50805729D01*
X53035714Y50805729D02*
X52992857Y50977158D01*
X52992857Y50977158D02*
X52950000Y51062872D01*
X52950000Y51062872D02*
X52864285Y51148586D01*
X52864285Y51148586D02*
X52735714Y51191443D01*
X52735714Y51191443D02*
X52650000Y51191443D01*
X52650000Y51191443D02*
X52521428Y51148586D01*
X52521428Y51148586D02*
X52478571Y51105729D01*
X52178571Y51191443D02*
X51621428Y51191443D01*
X51621428Y51191443D02*
X51921428Y50848586D01*
X51921428Y50848586D02*
X51792857Y50848586D01*
X51792857Y50848586D02*
X51707143Y50805729D01*
X51707143Y50805729D02*
X51664285Y50762872D01*
X51664285Y50762872D02*
X51621428Y50677158D01*
X51621428Y50677158D02*
X51621428Y50462872D01*
X51621428Y50462872D02*
X51664285Y50377158D01*
X51664285Y50377158D02*
X51707143Y50334300D01*
X51707143Y50334300D02*
X51792857Y50291443D01*
X51792857Y50291443D02*
X52050000Y50291443D01*
X52050000Y50291443D02*
X52135714Y50334300D01*
X52135714Y50334300D02*
X52178571Y50377158D01*
X51107142Y50805729D02*
X51192857Y50848586D01*
X51192857Y50848586D02*
X51235714Y50891443D01*
X51235714Y50891443D02*
X51278571Y50977158D01*
X51278571Y50977158D02*
X51278571Y51020015D01*
X51278571Y51020015D02*
X51235714Y51105729D01*
X51235714Y51105729D02*
X51192857Y51148586D01*
X51192857Y51148586D02*
X51107142Y51191443D01*
X51107142Y51191443D02*
X50935714Y51191443D01*
X50935714Y51191443D02*
X50850000Y51148586D01*
X50850000Y51148586D02*
X50807142Y51105729D01*
X50807142Y51105729D02*
X50764285Y51020015D01*
X50764285Y51020015D02*
X50764285Y50977158D01*
X50764285Y50977158D02*
X50807142Y50891443D01*
X50807142Y50891443D02*
X50850000Y50848586D01*
X50850000Y50848586D02*
X50935714Y50805729D01*
X50935714Y50805729D02*
X51107142Y50805729D01*
X51107142Y50805729D02*
X51192857Y50762872D01*
X51192857Y50762872D02*
X51235714Y50720015D01*
X51235714Y50720015D02*
X51278571Y50634300D01*
X51278571Y50634300D02*
X51278571Y50462872D01*
X51278571Y50462872D02*
X51235714Y50377158D01*
X51235714Y50377158D02*
X51192857Y50334300D01*
X51192857Y50334300D02*
X51107142Y50291443D01*
X51107142Y50291443D02*
X50935714Y50291443D01*
X50935714Y50291443D02*
X50850000Y50334300D01*
X50850000Y50334300D02*
X50807142Y50377158D01*
X50807142Y50377158D02*
X50764285Y50462872D01*
X50764285Y50462872D02*
X50764285Y50634300D01*
X50764285Y50634300D02*
X50807142Y50720015D01*
X50807142Y50720015D02*
X50850000Y50762872D01*
X50850000Y50762872D02*
X50935714Y50805729D01*
X52478571Y28752159D02*
X52521428Y28709301D01*
X52521428Y28709301D02*
X52650000Y28666444D01*
X52650000Y28666444D02*
X52735714Y28666444D01*
X52735714Y28666444D02*
X52864285Y28709301D01*
X52864285Y28709301D02*
X52950000Y28795016D01*
X52950000Y28795016D02*
X52992857Y28880730D01*
X52992857Y28880730D02*
X53035714Y29052159D01*
X53035714Y29052159D02*
X53035714Y29180730D01*
X53035714Y29180730D02*
X52992857Y29352159D01*
X52992857Y29352159D02*
X52950000Y29437873D01*
X52950000Y29437873D02*
X52864285Y29523587D01*
X52864285Y29523587D02*
X52735714Y29566444D01*
X52735714Y29566444D02*
X52650000Y29566444D01*
X52650000Y29566444D02*
X52521428Y29523587D01*
X52521428Y29523587D02*
X52478571Y29480730D01*
X51664285Y29566444D02*
X52092857Y29566444D01*
X52092857Y29566444D02*
X52135714Y29137873D01*
X52135714Y29137873D02*
X52092857Y29180730D01*
X52092857Y29180730D02*
X52007143Y29223587D01*
X52007143Y29223587D02*
X51792857Y29223587D01*
X51792857Y29223587D02*
X51707143Y29180730D01*
X51707143Y29180730D02*
X51664285Y29137873D01*
X51664285Y29137873D02*
X51621428Y29052159D01*
X51621428Y29052159D02*
X51621428Y28837873D01*
X51621428Y28837873D02*
X51664285Y28752159D01*
X51664285Y28752159D02*
X51707143Y28709301D01*
X51707143Y28709301D02*
X51792857Y28666444D01*
X51792857Y28666444D02*
X52007143Y28666444D01*
X52007143Y28666444D02*
X52092857Y28709301D01*
X52092857Y28709301D02*
X52135714Y28752159D01*
X51321428Y29566444D02*
X50764285Y29566444D01*
X50764285Y29566444D02*
X51064285Y29223587D01*
X51064285Y29223587D02*
X50935714Y29223587D01*
X50935714Y29223587D02*
X50850000Y29180730D01*
X50850000Y29180730D02*
X50807142Y29137873D01*
X50807142Y29137873D02*
X50764285Y29052159D01*
X50764285Y29052159D02*
X50764285Y28837873D01*
X50764285Y28837873D02*
X50807142Y28752159D01*
X50807142Y28752159D02*
X50850000Y28709301D01*
X50850000Y28709301D02*
X50935714Y28666444D01*
X50935714Y28666444D02*
X51192857Y28666444D01*
X51192857Y28666444D02*
X51278571Y28709301D01*
X51278571Y28709301D02*
X51321428Y28752159D01*
X122478571Y28752159D02*
X122521428Y28709301D01*
X122521428Y28709301D02*
X122650000Y28666444D01*
X122650000Y28666444D02*
X122735714Y28666444D01*
X122735714Y28666444D02*
X122864285Y28709301D01*
X122864285Y28709301D02*
X122950000Y28795016D01*
X122950000Y28795016D02*
X122992857Y28880730D01*
X122992857Y28880730D02*
X123035714Y29052159D01*
X123035714Y29052159D02*
X123035714Y29180730D01*
X123035714Y29180730D02*
X122992857Y29352159D01*
X122992857Y29352159D02*
X122950000Y29437873D01*
X122950000Y29437873D02*
X122864285Y29523587D01*
X122864285Y29523587D02*
X122735714Y29566444D01*
X122735714Y29566444D02*
X122650000Y29566444D01*
X122650000Y29566444D02*
X122521428Y29523587D01*
X122521428Y29523587D02*
X122478571Y29480730D01*
X122050000Y28666444D02*
X121878571Y28666444D01*
X121878571Y28666444D02*
X121792857Y28709301D01*
X121792857Y28709301D02*
X121750000Y28752159D01*
X121750000Y28752159D02*
X121664285Y28880730D01*
X121664285Y28880730D02*
X121621428Y29052159D01*
X121621428Y29052159D02*
X121621428Y29395016D01*
X121621428Y29395016D02*
X121664285Y29480730D01*
X121664285Y29480730D02*
X121707143Y29523587D01*
X121707143Y29523587D02*
X121792857Y29566444D01*
X121792857Y29566444D02*
X121964285Y29566444D01*
X121964285Y29566444D02*
X122050000Y29523587D01*
X122050000Y29523587D02*
X122092857Y29480730D01*
X122092857Y29480730D02*
X122135714Y29395016D01*
X122135714Y29395016D02*
X122135714Y29180730D01*
X122135714Y29180730D02*
X122092857Y29095016D01*
X122092857Y29095016D02*
X122050000Y29052159D01*
X122050000Y29052159D02*
X121964285Y29009301D01*
X121964285Y29009301D02*
X121792857Y29009301D01*
X121792857Y29009301D02*
X121707143Y29052159D01*
X121707143Y29052159D02*
X121664285Y29095016D01*
X121664285Y29095016D02*
X121621428Y29180730D01*
X121321428Y29566444D02*
X120764285Y29566444D01*
X120764285Y29566444D02*
X121064285Y29223587D01*
X121064285Y29223587D02*
X120935714Y29223587D01*
X120935714Y29223587D02*
X120850000Y29180730D01*
X120850000Y29180730D02*
X120807142Y29137873D01*
X120807142Y29137873D02*
X120764285Y29052159D01*
X120764285Y29052159D02*
X120764285Y28837873D01*
X120764285Y28837873D02*
X120807142Y28752159D01*
X120807142Y28752159D02*
X120850000Y28709301D01*
X120850000Y28709301D02*
X120935714Y28666444D01*
X120935714Y28666444D02*
X121192857Y28666444D01*
X121192857Y28666444D02*
X121278571Y28709301D01*
X121278571Y28709301D02*
X121321428Y28752159D01*
X26078571Y52112158D02*
X26121428Y52069300D01*
X26121428Y52069300D02*
X26250000Y52026443D01*
X26250000Y52026443D02*
X26335714Y52026443D01*
X26335714Y52026443D02*
X26464285Y52069300D01*
X26464285Y52069300D02*
X26550000Y52155015D01*
X26550000Y52155015D02*
X26592857Y52240729D01*
X26592857Y52240729D02*
X26635714Y52412158D01*
X26635714Y52412158D02*
X26635714Y52540729D01*
X26635714Y52540729D02*
X26592857Y52712158D01*
X26592857Y52712158D02*
X26550000Y52797872D01*
X26550000Y52797872D02*
X26464285Y52883586D01*
X26464285Y52883586D02*
X26335714Y52926443D01*
X26335714Y52926443D02*
X26250000Y52926443D01*
X26250000Y52926443D02*
X26121428Y52883586D01*
X26121428Y52883586D02*
X26078571Y52840729D01*
X25735714Y52840729D02*
X25692857Y52883586D01*
X25692857Y52883586D02*
X25607143Y52926443D01*
X25607143Y52926443D02*
X25392857Y52926443D01*
X25392857Y52926443D02*
X25307143Y52883586D01*
X25307143Y52883586D02*
X25264285Y52840729D01*
X25264285Y52840729D02*
X25221428Y52755015D01*
X25221428Y52755015D02*
X25221428Y52669300D01*
X25221428Y52669300D02*
X25264285Y52540729D01*
X25264285Y52540729D02*
X25778571Y52026443D01*
X25778571Y52026443D02*
X25221428Y52026443D01*
X24364285Y52026443D02*
X24878571Y52026443D01*
X24621428Y52026443D02*
X24621428Y52926443D01*
X24621428Y52926443D02*
X24707142Y52797872D01*
X24707142Y52797872D02*
X24792857Y52712158D01*
X24792857Y52712158D02*
X24878571Y52669300D01*
X55078571Y39552159D02*
X55121428Y39509301D01*
X55121428Y39509301D02*
X55250000Y39466444D01*
X55250000Y39466444D02*
X55335714Y39466444D01*
X55335714Y39466444D02*
X55464285Y39509301D01*
X55464285Y39509301D02*
X55550000Y39595016D01*
X55550000Y39595016D02*
X55592857Y39680730D01*
X55592857Y39680730D02*
X55635714Y39852159D01*
X55635714Y39852159D02*
X55635714Y39980730D01*
X55635714Y39980730D02*
X55592857Y40152159D01*
X55592857Y40152159D02*
X55550000Y40237873D01*
X55550000Y40237873D02*
X55464285Y40323587D01*
X55464285Y40323587D02*
X55335714Y40366444D01*
X55335714Y40366444D02*
X55250000Y40366444D01*
X55250000Y40366444D02*
X55121428Y40323587D01*
X55121428Y40323587D02*
X55078571Y40280730D01*
X54307143Y40066444D02*
X54307143Y39466444D01*
X54521428Y40409301D02*
X54735714Y39766444D01*
X54735714Y39766444D02*
X54178571Y39766444D01*
X53921428Y40366444D02*
X53321428Y40366444D01*
X53321428Y40366444D02*
X53707142Y39466444D01*
X98678571Y37712158D02*
X98721428Y37669300D01*
X98721428Y37669300D02*
X98850000Y37626443D01*
X98850000Y37626443D02*
X98935714Y37626443D01*
X98935714Y37626443D02*
X99064285Y37669300D01*
X99064285Y37669300D02*
X99150000Y37755015D01*
X99150000Y37755015D02*
X99192857Y37840729D01*
X99192857Y37840729D02*
X99235714Y38012158D01*
X99235714Y38012158D02*
X99235714Y38140729D01*
X99235714Y38140729D02*
X99192857Y38312158D01*
X99192857Y38312158D02*
X99150000Y38397872D01*
X99150000Y38397872D02*
X99064285Y38483586D01*
X99064285Y38483586D02*
X98935714Y38526443D01*
X98935714Y38526443D02*
X98850000Y38526443D01*
X98850000Y38526443D02*
X98721428Y38483586D01*
X98721428Y38483586D02*
X98678571Y38440729D01*
X98378571Y38526443D02*
X97778571Y38526443D01*
X97778571Y38526443D02*
X98164285Y37626443D01*
X97478571Y38440729D02*
X97435714Y38483586D01*
X97435714Y38483586D02*
X97350000Y38526443D01*
X97350000Y38526443D02*
X97135714Y38526443D01*
X97135714Y38526443D02*
X97050000Y38483586D01*
X97050000Y38483586D02*
X97007142Y38440729D01*
X97007142Y38440729D02*
X96964285Y38355015D01*
X96964285Y38355015D02*
X96964285Y38269300D01*
X96964285Y38269300D02*
X97007142Y38140729D01*
X97007142Y38140729D02*
X97521428Y37626443D01*
X97521428Y37626443D02*
X96964285Y37626443D01*
X122478571Y50377158D02*
X122521428Y50334300D01*
X122521428Y50334300D02*
X122650000Y50291443D01*
X122650000Y50291443D02*
X122735714Y50291443D01*
X122735714Y50291443D02*
X122864285Y50334300D01*
X122864285Y50334300D02*
X122950000Y50420015D01*
X122950000Y50420015D02*
X122992857Y50505729D01*
X122992857Y50505729D02*
X123035714Y50677158D01*
X123035714Y50677158D02*
X123035714Y50805729D01*
X123035714Y50805729D02*
X122992857Y50977158D01*
X122992857Y50977158D02*
X122950000Y51062872D01*
X122950000Y51062872D02*
X122864285Y51148586D01*
X122864285Y51148586D02*
X122735714Y51191443D01*
X122735714Y51191443D02*
X122650000Y51191443D01*
X122650000Y51191443D02*
X122521428Y51148586D01*
X122521428Y51148586D02*
X122478571Y51105729D01*
X122178571Y51191443D02*
X121578571Y51191443D01*
X121578571Y51191443D02*
X121964285Y50291443D01*
X121107142Y50805729D02*
X121192857Y50848586D01*
X121192857Y50848586D02*
X121235714Y50891443D01*
X121235714Y50891443D02*
X121278571Y50977158D01*
X121278571Y50977158D02*
X121278571Y51020015D01*
X121278571Y51020015D02*
X121235714Y51105729D01*
X121235714Y51105729D02*
X121192857Y51148586D01*
X121192857Y51148586D02*
X121107142Y51191443D01*
X121107142Y51191443D02*
X120935714Y51191443D01*
X120935714Y51191443D02*
X120850000Y51148586D01*
X120850000Y51148586D02*
X120807142Y51105729D01*
X120807142Y51105729D02*
X120764285Y51020015D01*
X120764285Y51020015D02*
X120764285Y50977158D01*
X120764285Y50977158D02*
X120807142Y50891443D01*
X120807142Y50891443D02*
X120850000Y50848586D01*
X120850000Y50848586D02*
X120935714Y50805729D01*
X120935714Y50805729D02*
X121107142Y50805729D01*
X121107142Y50805729D02*
X121192857Y50762872D01*
X121192857Y50762872D02*
X121235714Y50720015D01*
X121235714Y50720015D02*
X121278571Y50634300D01*
X121278571Y50634300D02*
X121278571Y50462872D01*
X121278571Y50462872D02*
X121235714Y50377158D01*
X121235714Y50377158D02*
X121192857Y50334300D01*
X121192857Y50334300D02*
X121107142Y50291443D01*
X121107142Y50291443D02*
X120935714Y50291443D01*
X120935714Y50291443D02*
X120850000Y50334300D01*
X120850000Y50334300D02*
X120807142Y50377158D01*
X120807142Y50377158D02*
X120764285Y50462872D01*
X120764285Y50462872D02*
X120764285Y50634300D01*
X120764285Y50634300D02*
X120807142Y50720015D01*
X120807142Y50720015D02*
X120850000Y50762872D01*
X120850000Y50762872D02*
X120935714Y50805729D01*
X26078571Y37712158D02*
X26121428Y37669300D01*
X26121428Y37669300D02*
X26250000Y37626443D01*
X26250000Y37626443D02*
X26335714Y37626443D01*
X26335714Y37626443D02*
X26464285Y37669300D01*
X26464285Y37669300D02*
X26550000Y37755015D01*
X26550000Y37755015D02*
X26592857Y37840729D01*
X26592857Y37840729D02*
X26635714Y38012158D01*
X26635714Y38012158D02*
X26635714Y38140729D01*
X26635714Y38140729D02*
X26592857Y38312158D01*
X26592857Y38312158D02*
X26550000Y38397872D01*
X26550000Y38397872D02*
X26464285Y38483586D01*
X26464285Y38483586D02*
X26335714Y38526443D01*
X26335714Y38526443D02*
X26250000Y38526443D01*
X26250000Y38526443D02*
X26121428Y38483586D01*
X26121428Y38483586D02*
X26078571Y38440729D01*
X25778571Y38526443D02*
X25221428Y38526443D01*
X25221428Y38526443D02*
X25521428Y38183586D01*
X25521428Y38183586D02*
X25392857Y38183586D01*
X25392857Y38183586D02*
X25307143Y38140729D01*
X25307143Y38140729D02*
X25264285Y38097872D01*
X25264285Y38097872D02*
X25221428Y38012158D01*
X25221428Y38012158D02*
X25221428Y37797872D01*
X25221428Y37797872D02*
X25264285Y37712158D01*
X25264285Y37712158D02*
X25307143Y37669300D01*
X25307143Y37669300D02*
X25392857Y37626443D01*
X25392857Y37626443D02*
X25650000Y37626443D01*
X25650000Y37626443D02*
X25735714Y37669300D01*
X25735714Y37669300D02*
X25778571Y37712158D01*
X24921428Y38526443D02*
X24364285Y38526443D01*
X24364285Y38526443D02*
X24664285Y38183586D01*
X24664285Y38183586D02*
X24535714Y38183586D01*
X24535714Y38183586D02*
X24450000Y38140729D01*
X24450000Y38140729D02*
X24407142Y38097872D01*
X24407142Y38097872D02*
X24364285Y38012158D01*
X24364285Y38012158D02*
X24364285Y37797872D01*
X24364285Y37797872D02*
X24407142Y37712158D01*
X24407142Y37712158D02*
X24450000Y37669300D01*
X24450000Y37669300D02*
X24535714Y37626443D01*
X24535714Y37626443D02*
X24792857Y37626443D01*
X24792857Y37626443D02*
X24878571Y37669300D01*
X24878571Y37669300D02*
X24921428Y37712158D01*
X125078571Y39552159D02*
X125121428Y39509301D01*
X125121428Y39509301D02*
X125250000Y39466444D01*
X125250000Y39466444D02*
X125335714Y39466444D01*
X125335714Y39466444D02*
X125464285Y39509301D01*
X125464285Y39509301D02*
X125550000Y39595016D01*
X125550000Y39595016D02*
X125592857Y39680730D01*
X125592857Y39680730D02*
X125635714Y39852159D01*
X125635714Y39852159D02*
X125635714Y39980730D01*
X125635714Y39980730D02*
X125592857Y40152159D01*
X125592857Y40152159D02*
X125550000Y40237873D01*
X125550000Y40237873D02*
X125464285Y40323587D01*
X125464285Y40323587D02*
X125335714Y40366444D01*
X125335714Y40366444D02*
X125250000Y40366444D01*
X125250000Y40366444D02*
X125121428Y40323587D01*
X125121428Y40323587D02*
X125078571Y40280730D01*
X124564285Y39980730D02*
X124650000Y40023587D01*
X124650000Y40023587D02*
X124692857Y40066444D01*
X124692857Y40066444D02*
X124735714Y40152159D01*
X124735714Y40152159D02*
X124735714Y40195016D01*
X124735714Y40195016D02*
X124692857Y40280730D01*
X124692857Y40280730D02*
X124650000Y40323587D01*
X124650000Y40323587D02*
X124564285Y40366444D01*
X124564285Y40366444D02*
X124392857Y40366444D01*
X124392857Y40366444D02*
X124307143Y40323587D01*
X124307143Y40323587D02*
X124264285Y40280730D01*
X124264285Y40280730D02*
X124221428Y40195016D01*
X124221428Y40195016D02*
X124221428Y40152159D01*
X124221428Y40152159D02*
X124264285Y40066444D01*
X124264285Y40066444D02*
X124307143Y40023587D01*
X124307143Y40023587D02*
X124392857Y39980730D01*
X124392857Y39980730D02*
X124564285Y39980730D01*
X124564285Y39980730D02*
X124650000Y39937873D01*
X124650000Y39937873D02*
X124692857Y39895016D01*
X124692857Y39895016D02*
X124735714Y39809301D01*
X124735714Y39809301D02*
X124735714Y39637873D01*
X124735714Y39637873D02*
X124692857Y39552159D01*
X124692857Y39552159D02*
X124650000Y39509301D01*
X124650000Y39509301D02*
X124564285Y39466444D01*
X124564285Y39466444D02*
X124392857Y39466444D01*
X124392857Y39466444D02*
X124307143Y39509301D01*
X124307143Y39509301D02*
X124264285Y39552159D01*
X124264285Y39552159D02*
X124221428Y39637873D01*
X124221428Y39637873D02*
X124221428Y39809301D01*
X124221428Y39809301D02*
X124264285Y39895016D01*
X124264285Y39895016D02*
X124307143Y39937873D01*
X124307143Y39937873D02*
X124392857Y39980730D01*
X123921428Y40366444D02*
X123321428Y40366444D01*
X123321428Y40366444D02*
X123707142Y39466444D01*
X96078571Y44912158D02*
X96121428Y44869300D01*
X96121428Y44869300D02*
X96250000Y44826443D01*
X96250000Y44826443D02*
X96335714Y44826443D01*
X96335714Y44826443D02*
X96464285Y44869300D01*
X96464285Y44869300D02*
X96550000Y44955015D01*
X96550000Y44955015D02*
X96592857Y45040729D01*
X96592857Y45040729D02*
X96635714Y45212158D01*
X96635714Y45212158D02*
X96635714Y45340729D01*
X96635714Y45340729D02*
X96592857Y45512158D01*
X96592857Y45512158D02*
X96550000Y45597872D01*
X96550000Y45597872D02*
X96464285Y45683586D01*
X96464285Y45683586D02*
X96335714Y45726443D01*
X96335714Y45726443D02*
X96250000Y45726443D01*
X96250000Y45726443D02*
X96121428Y45683586D01*
X96121428Y45683586D02*
X96078571Y45640729D01*
X95307143Y45726443D02*
X95478571Y45726443D01*
X95478571Y45726443D02*
X95564285Y45683586D01*
X95564285Y45683586D02*
X95607143Y45640729D01*
X95607143Y45640729D02*
X95692857Y45512158D01*
X95692857Y45512158D02*
X95735714Y45340729D01*
X95735714Y45340729D02*
X95735714Y44997872D01*
X95735714Y44997872D02*
X95692857Y44912158D01*
X95692857Y44912158D02*
X95650000Y44869300D01*
X95650000Y44869300D02*
X95564285Y44826443D01*
X95564285Y44826443D02*
X95392857Y44826443D01*
X95392857Y44826443D02*
X95307143Y44869300D01*
X95307143Y44869300D02*
X95264285Y44912158D01*
X95264285Y44912158D02*
X95221428Y44997872D01*
X95221428Y44997872D02*
X95221428Y45212158D01*
X95221428Y45212158D02*
X95264285Y45297872D01*
X95264285Y45297872D02*
X95307143Y45340729D01*
X95307143Y45340729D02*
X95392857Y45383586D01*
X95392857Y45383586D02*
X95564285Y45383586D01*
X95564285Y45383586D02*
X95650000Y45340729D01*
X95650000Y45340729D02*
X95692857Y45297872D01*
X95692857Y45297872D02*
X95735714Y45212158D01*
X94450000Y45726443D02*
X94621428Y45726443D01*
X94621428Y45726443D02*
X94707142Y45683586D01*
X94707142Y45683586D02*
X94750000Y45640729D01*
X94750000Y45640729D02*
X94835714Y45512158D01*
X94835714Y45512158D02*
X94878571Y45340729D01*
X94878571Y45340729D02*
X94878571Y44997872D01*
X94878571Y44997872D02*
X94835714Y44912158D01*
X94835714Y44912158D02*
X94792857Y44869300D01*
X94792857Y44869300D02*
X94707142Y44826443D01*
X94707142Y44826443D02*
X94535714Y44826443D01*
X94535714Y44826443D02*
X94450000Y44869300D01*
X94450000Y44869300D02*
X94407142Y44912158D01*
X94407142Y44912158D02*
X94364285Y44997872D01*
X94364285Y44997872D02*
X94364285Y45212158D01*
X94364285Y45212158D02*
X94407142Y45297872D01*
X94407142Y45297872D02*
X94450000Y45340729D01*
X94450000Y45340729D02*
X94535714Y45383586D01*
X94535714Y45383586D02*
X94707142Y45383586D01*
X94707142Y45383586D02*
X94792857Y45340729D01*
X94792857Y45340729D02*
X94835714Y45297872D01*
X94835714Y45297872D02*
X94878571Y45212158D01*
X28678571Y48512158D02*
X28721428Y48469300D01*
X28721428Y48469300D02*
X28850000Y48426443D01*
X28850000Y48426443D02*
X28935714Y48426443D01*
X28935714Y48426443D02*
X29064285Y48469300D01*
X29064285Y48469300D02*
X29150000Y48555015D01*
X29150000Y48555015D02*
X29192857Y48640729D01*
X29192857Y48640729D02*
X29235714Y48812158D01*
X29235714Y48812158D02*
X29235714Y48940729D01*
X29235714Y48940729D02*
X29192857Y49112158D01*
X29192857Y49112158D02*
X29150000Y49197872D01*
X29150000Y49197872D02*
X29064285Y49283586D01*
X29064285Y49283586D02*
X28935714Y49326443D01*
X28935714Y49326443D02*
X28850000Y49326443D01*
X28850000Y49326443D02*
X28721428Y49283586D01*
X28721428Y49283586D02*
X28678571Y49240729D01*
X28335714Y49240729D02*
X28292857Y49283586D01*
X28292857Y49283586D02*
X28207143Y49326443D01*
X28207143Y49326443D02*
X27992857Y49326443D01*
X27992857Y49326443D02*
X27907143Y49283586D01*
X27907143Y49283586D02*
X27864285Y49240729D01*
X27864285Y49240729D02*
X27821428Y49155015D01*
X27821428Y49155015D02*
X27821428Y49069300D01*
X27821428Y49069300D02*
X27864285Y48940729D01*
X27864285Y48940729D02*
X28378571Y48426443D01*
X28378571Y48426443D02*
X27821428Y48426443D01*
X27050000Y49026443D02*
X27050000Y48426443D01*
X27264285Y49369300D02*
X27478571Y48726443D01*
X27478571Y48726443D02*
X26921428Y48726443D01*
X125078571Y53977158D02*
X125121428Y53934300D01*
X125121428Y53934300D02*
X125250000Y53891443D01*
X125250000Y53891443D02*
X125335714Y53891443D01*
X125335714Y53891443D02*
X125464285Y53934300D01*
X125464285Y53934300D02*
X125550000Y54020015D01*
X125550000Y54020015D02*
X125592857Y54105729D01*
X125592857Y54105729D02*
X125635714Y54277158D01*
X125635714Y54277158D02*
X125635714Y54405729D01*
X125635714Y54405729D02*
X125592857Y54577158D01*
X125592857Y54577158D02*
X125550000Y54662872D01*
X125550000Y54662872D02*
X125464285Y54748586D01*
X125464285Y54748586D02*
X125335714Y54791443D01*
X125335714Y54791443D02*
X125250000Y54791443D01*
X125250000Y54791443D02*
X125121428Y54748586D01*
X125121428Y54748586D02*
X125078571Y54705729D01*
X124778571Y54791443D02*
X124178571Y54791443D01*
X124178571Y54791443D02*
X124564285Y53891443D01*
X123921428Y54791443D02*
X123321428Y54791443D01*
X123321428Y54791443D02*
X123707142Y53891443D01*
X87458557Y103900000D02*
X88101414Y103900000D01*
X88101414Y103900000D02*
X88229985Y103942857D01*
X88229985Y103942857D02*
X88315700Y104028571D01*
X88315700Y104028571D02*
X88358557Y104157143D01*
X88358557Y104157143D02*
X88358557Y104242857D01*
X87458557Y103557143D02*
X87458557Y102957143D01*
X87458557Y102957143D02*
X88358557Y103342857D01*
X122478571Y53977158D02*
X122521428Y53934300D01*
X122521428Y53934300D02*
X122650000Y53891443D01*
X122650000Y53891443D02*
X122735714Y53891443D01*
X122735714Y53891443D02*
X122864285Y53934300D01*
X122864285Y53934300D02*
X122950000Y54020015D01*
X122950000Y54020015D02*
X122992857Y54105729D01*
X122992857Y54105729D02*
X123035714Y54277158D01*
X123035714Y54277158D02*
X123035714Y54405729D01*
X123035714Y54405729D02*
X122992857Y54577158D01*
X122992857Y54577158D02*
X122950000Y54662872D01*
X122950000Y54662872D02*
X122864285Y54748586D01*
X122864285Y54748586D02*
X122735714Y54791443D01*
X122735714Y54791443D02*
X122650000Y54791443D01*
X122650000Y54791443D02*
X122521428Y54748586D01*
X122521428Y54748586D02*
X122478571Y54705729D01*
X122178571Y54791443D02*
X121578571Y54791443D01*
X121578571Y54791443D02*
X121964285Y53891443D01*
X120850000Y54791443D02*
X121021428Y54791443D01*
X121021428Y54791443D02*
X121107142Y54748586D01*
X121107142Y54748586D02*
X121150000Y54705729D01*
X121150000Y54705729D02*
X121235714Y54577158D01*
X121235714Y54577158D02*
X121278571Y54405729D01*
X121278571Y54405729D02*
X121278571Y54062872D01*
X121278571Y54062872D02*
X121235714Y53977158D01*
X121235714Y53977158D02*
X121192857Y53934300D01*
X121192857Y53934300D02*
X121107142Y53891443D01*
X121107142Y53891443D02*
X120935714Y53891443D01*
X120935714Y53891443D02*
X120850000Y53934300D01*
X120850000Y53934300D02*
X120807142Y53977158D01*
X120807142Y53977158D02*
X120764285Y54062872D01*
X120764285Y54062872D02*
X120764285Y54277158D01*
X120764285Y54277158D02*
X120807142Y54362872D01*
X120807142Y54362872D02*
X120850000Y54405729D01*
X120850000Y54405729D02*
X120935714Y54448586D01*
X120935714Y54448586D02*
X121107142Y54448586D01*
X121107142Y54448586D02*
X121192857Y54405729D01*
X121192857Y54405729D02*
X121235714Y54362872D01*
X121235714Y54362872D02*
X121278571Y54277158D01*
X98678571Y41312158D02*
X98721428Y41269300D01*
X98721428Y41269300D02*
X98850000Y41226443D01*
X98850000Y41226443D02*
X98935714Y41226443D01*
X98935714Y41226443D02*
X99064285Y41269300D01*
X99064285Y41269300D02*
X99150000Y41355015D01*
X99150000Y41355015D02*
X99192857Y41440729D01*
X99192857Y41440729D02*
X99235714Y41612158D01*
X99235714Y41612158D02*
X99235714Y41740729D01*
X99235714Y41740729D02*
X99192857Y41912158D01*
X99192857Y41912158D02*
X99150000Y41997872D01*
X99150000Y41997872D02*
X99064285Y42083586D01*
X99064285Y42083586D02*
X98935714Y42126443D01*
X98935714Y42126443D02*
X98850000Y42126443D01*
X98850000Y42126443D02*
X98721428Y42083586D01*
X98721428Y42083586D02*
X98678571Y42040729D01*
X97907143Y42126443D02*
X98078571Y42126443D01*
X98078571Y42126443D02*
X98164285Y42083586D01*
X98164285Y42083586D02*
X98207143Y42040729D01*
X98207143Y42040729D02*
X98292857Y41912158D01*
X98292857Y41912158D02*
X98335714Y41740729D01*
X98335714Y41740729D02*
X98335714Y41397872D01*
X98335714Y41397872D02*
X98292857Y41312158D01*
X98292857Y41312158D02*
X98250000Y41269300D01*
X98250000Y41269300D02*
X98164285Y41226443D01*
X98164285Y41226443D02*
X97992857Y41226443D01*
X97992857Y41226443D02*
X97907143Y41269300D01*
X97907143Y41269300D02*
X97864285Y41312158D01*
X97864285Y41312158D02*
X97821428Y41397872D01*
X97821428Y41397872D02*
X97821428Y41612158D01*
X97821428Y41612158D02*
X97864285Y41697872D01*
X97864285Y41697872D02*
X97907143Y41740729D01*
X97907143Y41740729D02*
X97992857Y41783586D01*
X97992857Y41783586D02*
X98164285Y41783586D01*
X98164285Y41783586D02*
X98250000Y41740729D01*
X98250000Y41740729D02*
X98292857Y41697872D01*
X98292857Y41697872D02*
X98335714Y41612158D01*
X97392857Y41226443D02*
X97221428Y41226443D01*
X97221428Y41226443D02*
X97135714Y41269300D01*
X97135714Y41269300D02*
X97092857Y41312158D01*
X97092857Y41312158D02*
X97007142Y41440729D01*
X97007142Y41440729D02*
X96964285Y41612158D01*
X96964285Y41612158D02*
X96964285Y41955015D01*
X96964285Y41955015D02*
X97007142Y42040729D01*
X97007142Y42040729D02*
X97050000Y42083586D01*
X97050000Y42083586D02*
X97135714Y42126443D01*
X97135714Y42126443D02*
X97307142Y42126443D01*
X97307142Y42126443D02*
X97392857Y42083586D01*
X97392857Y42083586D02*
X97435714Y42040729D01*
X97435714Y42040729D02*
X97478571Y41955015D01*
X97478571Y41955015D02*
X97478571Y41740729D01*
X97478571Y41740729D02*
X97435714Y41655015D01*
X97435714Y41655015D02*
X97392857Y41612158D01*
X97392857Y41612158D02*
X97307142Y41569300D01*
X97307142Y41569300D02*
X97135714Y41569300D01*
X97135714Y41569300D02*
X97050000Y41612158D01*
X97050000Y41612158D02*
X97007142Y41655015D01*
X97007142Y41655015D02*
X96964285Y41740729D01*
%TO.C,R68*%
D12*
X33026359Y32780000D02*
X33333641Y32780000D01*
X33026359Y32020000D02*
X33333641Y32020000D01*
%TO.C,R190*%
X103026359Y34380000D02*
X103333641Y34380000D01*
X103026359Y33620000D02*
X103333641Y33620000D01*
%TO.C,C84*%
X124392164Y44995001D02*
X124607836Y44995001D01*
X124392164Y44275001D02*
X124607836Y44275001D01*
%TO.C,R162*%
X101026359Y48780000D02*
X101333641Y48780000D01*
X101026359Y48020000D02*
X101333641Y48020000D01*
%TO.C,R79*%
X48973641Y58380000D02*
X48666359Y58380000D01*
X48973641Y57620000D02*
X48666359Y57620000D01*
%TO.C,R239*%
X118973641Y43955000D02*
X118666359Y43955000D01*
X118973641Y43195000D02*
X118666359Y43195000D01*
%TO.C,R237*%
X116973641Y42380000D02*
X116666359Y42380000D01*
X116973641Y41620000D02*
X116666359Y41620000D01*
%TO.C,C44*%
X54392164Y44995001D02*
X54607836Y44995001D01*
X54392164Y44275001D02*
X54607836Y44275001D01*
%TO.C,R117*%
X46973641Y39180000D02*
X46666359Y39180000D01*
X46973641Y38420000D02*
X46666359Y38420000D01*
%TO.C,R249*%
X118973641Y39155000D02*
X118666359Y39155000D01*
X118973641Y38395000D02*
X118666359Y38395000D01*
%TO.C,C56*%
X95607836Y58860000D02*
X95392164Y58860000D01*
X95607836Y58140000D02*
X95392164Y58140000D01*
%TO.C,R225*%
X118983641Y49555000D02*
X118676359Y49555000D01*
X118983641Y48795000D02*
X118676359Y48795000D01*
%TO.C,C37*%
X54392164Y55820000D02*
X54607836Y55820000D01*
X54392164Y55100000D02*
X54607836Y55100000D01*
%TO.C,J8*%
X101050000Y109100000D02*
X112350000Y109100000D01*
X101050000Y107360000D02*
X101050000Y109100000D01*
X101050000Y103300000D02*
X101050000Y104640000D01*
X102540000Y103300000D02*
X101050000Y103300000D01*
X102540000Y103300000D02*
X102540000Y102100000D01*
X110860000Y103300000D02*
X112350000Y103300000D01*
X112350000Y109100000D02*
X112350000Y107360000D01*
X112350000Y103300000D02*
X112350000Y104640000D01*
%TO.C,R251*%
X116973641Y36780000D02*
X116666359Y36780000D01*
X116973641Y36020000D02*
X116666359Y36020000D01*
%TO.C,R109*%
X46973641Y42380000D02*
X46666359Y42380000D01*
X46973641Y41620000D02*
X46666359Y41620000D01*
%TO.C,R48*%
X31026359Y43180000D02*
X31333641Y43180000D01*
X31026359Y42420000D02*
X31333641Y42420000D01*
%TO.C,R184*%
X101026359Y39980000D02*
X101333641Y39980000D01*
X101026359Y39220000D02*
X101333641Y39220000D01*
%TO.C,R113*%
X48983641Y42380000D02*
X48676359Y42380000D01*
X48983641Y41620000D02*
X48676359Y41620000D01*
%TO.C,R205*%
X116973641Y56780000D02*
X116666359Y56780000D01*
X116973641Y56020000D02*
X116666359Y56020000D01*
%TO.C,R28*%
X33026359Y50380000D02*
X33333641Y50380000D01*
X33026359Y49620000D02*
X33333641Y49620000D01*
%TO.C,R247*%
X118973641Y40755000D02*
X118666359Y40755000D01*
X118973641Y39995000D02*
X118666359Y39995000D01*
%TO.C,R257*%
X118983641Y35155000D02*
X118676359Y35155000D01*
X118983641Y34395000D02*
X118676359Y34395000D01*
%TO.C,C62*%
X98207836Y51635000D02*
X97992164Y51635000D01*
X98207836Y50915000D02*
X97992164Y50915000D01*
%TO.C,C73*%
X95607836Y33635000D02*
X95392164Y33635000D01*
X95607836Y32915000D02*
X95392164Y32915000D01*
%TO.C,R142*%
X103026359Y55980000D02*
X103333641Y55980000D01*
X103026359Y55220000D02*
X103333641Y55220000D01*
%TO.C,C61*%
X95607836Y51635000D02*
X95392164Y51635000D01*
X95607836Y50915000D02*
X95392164Y50915000D01*
%TO.C,C43*%
X51792164Y44995001D02*
X52007836Y44995001D01*
X51792164Y44275001D02*
X52007836Y44275001D01*
%TO.C,R103*%
X48973641Y47980000D02*
X48666359Y47980000D01*
X48973641Y47220000D02*
X48666359Y47220000D01*
%TO.C,R91*%
X46973641Y51180000D02*
X46666359Y51180000D01*
X46973641Y50420000D02*
X46666359Y50420000D01*
%TO.C,R72*%
X31026359Y32780000D02*
X31333641Y32780000D01*
X31026359Y32020000D02*
X31333641Y32020000D01*
%TO.C,R89*%
X48973641Y53580000D02*
X48666359Y53580000D01*
X48973641Y52820000D02*
X48666359Y52820000D01*
%TO.C,R194*%
X101026359Y34380000D02*
X101333641Y34380000D01*
X101026359Y33620000D02*
X101333641Y33620000D01*
%TO.C,R144*%
X101026359Y57580000D02*
X101333641Y57580000D01*
X101026359Y56820000D02*
X101333641Y56820000D01*
%TO.C,C32*%
X28207836Y33635000D02*
X27992164Y33635000D01*
X28207836Y32915000D02*
X27992164Y32915000D01*
%TO.C,R107*%
X46973641Y43980000D02*
X46666359Y43980000D01*
X46973641Y43220000D02*
X46666359Y43220000D01*
%TO.C,C83*%
X121792164Y44995001D02*
X122007836Y44995001D01*
X121792164Y44275001D02*
X122007836Y44275001D01*
%TO.C,R129*%
X48983641Y35180000D02*
X48676359Y35180000D01*
X48983641Y34420000D02*
X48676359Y34420000D01*
%TO.C,C16*%
X25607836Y58860000D02*
X25392164Y58860000D01*
X25607836Y58140000D02*
X25392164Y58140000D01*
%TO.C,R241*%
X118983641Y42355000D02*
X118676359Y42355000D01*
X118983641Y41595000D02*
X118676359Y41595000D01*
%TO.C,C82*%
X124392164Y48595001D02*
X124607836Y48595001D01*
X124392164Y47875001D02*
X124607836Y47875001D01*
%TO.C,C46*%
X51792164Y41395001D02*
X52007836Y41395001D01*
X51792164Y40675001D02*
X52007836Y40675001D01*
%TO.C,C54*%
X54392164Y30595001D02*
X54607836Y30595001D01*
X54392164Y29875001D02*
X54607836Y29875001D01*
%TO.C,R223*%
X118973641Y51155000D02*
X118666359Y51155000D01*
X118973641Y50395000D02*
X118666359Y50395000D01*
%TO.C,C17*%
X28207836Y58860000D02*
X27992164Y58860000D01*
X28207836Y58140000D02*
X27992164Y58140000D01*
%TO.C,R133*%
X46973641Y31980000D02*
X46666359Y31980000D01*
X46973641Y31220000D02*
X46666359Y31220000D01*
%TO.C,C22*%
X28207836Y51635000D02*
X27992164Y51635000D01*
X28207836Y50915000D02*
X27992164Y50915000D01*
%TO.C,R50*%
X31026359Y41580000D02*
X31333641Y41580000D01*
X31026359Y40820000D02*
X31333641Y40820000D01*
%TO.C,C92*%
X124392164Y34195001D02*
X124607836Y34195001D01*
X124392164Y33475001D02*
X124607836Y33475001D01*
%TO.C,R93*%
X46973641Y49580000D02*
X46666359Y49580000D01*
X46973641Y48820000D02*
X46666359Y48820000D01*
%TO.C,R121*%
X48973641Y39180000D02*
X48666359Y39180000D01*
X48973641Y38420000D02*
X48666359Y38420000D01*
%TO.C,R99*%
X46973641Y47980000D02*
X46666359Y47980000D01*
X46973641Y47220000D02*
X46666359Y47220000D01*
%TO.C,C49*%
X54392164Y37795001D02*
X54607836Y37795001D01*
X54392164Y37075001D02*
X54607836Y37075001D01*
%TO.C,C88*%
X121792164Y37795001D02*
X122007836Y37795001D01*
X121792164Y37075001D02*
X122007836Y37075001D01*
%TO.C,R160*%
X101026359Y50380000D02*
X101333641Y50380000D01*
X101026359Y49620000D02*
X101333641Y49620000D01*
%TO.C,R221*%
X116973641Y49580000D02*
X116666359Y49580000D01*
X116973641Y48820000D02*
X116666359Y48820000D01*
%TO.C,C58*%
X95607836Y55260000D02*
X95392164Y55260000D01*
X95607836Y54540000D02*
X95392164Y54540000D01*
%TO.C,R186*%
X101026359Y38380000D02*
X101333641Y38380000D01*
X101026359Y37620000D02*
X101333641Y37620000D01*
%TO.C,C36*%
X51792164Y55820000D02*
X52007836Y55820000D01*
X51792164Y55100000D02*
X52007836Y55100000D01*
%TO.C,R255*%
X118973641Y36755000D02*
X118666359Y36755000D01*
X118973641Y35995000D02*
X118666359Y35995000D01*
%TO.C,R97*%
X48983641Y49580000D02*
X48676359Y49580000D01*
X48983641Y48820000D02*
X48676359Y48820000D01*
%TO.C,R152*%
X101026359Y54380000D02*
X101333641Y54380000D01*
X101026359Y53620000D02*
X101333641Y53620000D01*
%TO.C,C52*%
X54392164Y34195001D02*
X54607836Y34195001D01*
X54392164Y33475001D02*
X54607836Y33475001D01*
%TO.C,R227*%
X116973641Y47980000D02*
X116666359Y47980000D01*
X116973641Y47220000D02*
X116666359Y47220000D01*
%TO.C,C26*%
X25607836Y40835000D02*
X25392164Y40835000D01*
X25607836Y40115000D02*
X25392164Y40115000D01*
%TO.C,R85*%
X46973641Y53580000D02*
X46666359Y53580000D01*
X46973641Y52820000D02*
X46666359Y52820000D01*
%TO.C,R243*%
X116973641Y40780000D02*
X116666359Y40780000D01*
X116973641Y40020000D02*
X116666359Y40020000D01*
%TO.C,R64*%
X31026359Y35980000D02*
X31333641Y35980000D01*
X31026359Y35220000D02*
X31333641Y35220000D01*
%TO.C,R178*%
X101026359Y41580000D02*
X101333641Y41580000D01*
X101026359Y40820000D02*
X101333641Y40820000D01*
%TO.C,C19*%
X28207836Y55260000D02*
X27992164Y55260000D01*
X28207836Y54540000D02*
X27992164Y54540000D01*
%TO.C,C27*%
X28207836Y40835000D02*
X27992164Y40835000D01*
X28207836Y40115000D02*
X27992164Y40115000D01*
%TO.C,R26*%
X31026359Y52780000D02*
X31333641Y52780000D01*
X31026359Y52020000D02*
X31333641Y52020000D01*
%TO.C,C39*%
X54392164Y52220000D02*
X54607836Y52220000D01*
X54392164Y51500000D02*
X54607836Y51500000D01*
%TO.C,R180*%
X103026359Y39980000D02*
X103333641Y39980000D01*
X103026359Y39220000D02*
X103333641Y39220000D01*
%TO.C,C18*%
X25607836Y55260000D02*
X25392164Y55260000D01*
X25607836Y54540000D02*
X25392164Y54540000D01*
%TO.C,C81*%
X121792164Y48595001D02*
X122007836Y48595001D01*
X121792164Y47875001D02*
X122007836Y47875001D01*
%TO.C,R74*%
X31026359Y31180000D02*
X31333641Y31180000D01*
X31026359Y30420000D02*
X31333641Y30420000D01*
%TO.C,R233*%
X118973641Y46355000D02*
X118666359Y46355000D01*
X118973641Y45595000D02*
X118666359Y45595000D01*
%TO.C,C23*%
X25607836Y48035000D02*
X25392164Y48035000D01*
X25607836Y47315000D02*
X25392164Y47315000D01*
%TO.C,R203*%
X116973641Y58380000D02*
X116666359Y58380000D01*
X116973641Y57620000D02*
X116666359Y57620000D01*
%TO.C,C71*%
X95607836Y37235000D02*
X95392164Y37235000D01*
X95607836Y36515000D02*
X95392164Y36515000D01*
%TO.C,C51*%
X51792164Y34195001D02*
X52007836Y34195001D01*
X51792164Y33475001D02*
X52007836Y33475001D01*
%TO.C,C31*%
X25607836Y33635000D02*
X25392164Y33635000D01*
X25607836Y32915000D02*
X25392164Y32915000D01*
%TO.C,R81*%
X48983641Y56780000D02*
X48676359Y56780000D01*
X48983641Y56020000D02*
X48676359Y56020000D01*
%TO.C,R172*%
X103026359Y43180000D02*
X103333641Y43180000D01*
X103026359Y42420000D02*
X103333641Y42420000D01*
%TO.C,C79*%
X124392164Y52220000D02*
X124607836Y52220000D01*
X124392164Y51500000D02*
X124607836Y51500000D01*
%TO.C,R30*%
X33026359Y48780000D02*
X33333641Y48780000D01*
X33026359Y48020000D02*
X33333641Y48020000D01*
%TO.C,R62*%
X33026359Y34380000D02*
X33333641Y34380000D01*
X33026359Y33620000D02*
X33333641Y33620000D01*
%TO.C,R200*%
X101026359Y32780000D02*
X101333641Y32780000D01*
X101026359Y32020000D02*
X101333641Y32020000D01*
%TO.C,C59*%
X98207836Y55260000D02*
X97992164Y55260000D01*
X98207836Y54540000D02*
X97992164Y54540000D01*
%TO.C,R150*%
X103026359Y52780000D02*
X103333641Y52780000D01*
X103026359Y52020000D02*
X103333641Y52020000D01*
%TO.C,C34*%
X28207836Y37235000D02*
X27992164Y37235000D01*
X28207836Y36515000D02*
X27992164Y36515000D01*
%TO.C,R70*%
X33026359Y31180000D02*
X33333641Y31180000D01*
X33026359Y30420000D02*
X33333641Y30420000D01*
%TO.C,R44*%
X33026359Y43180000D02*
X33333641Y43180000D01*
X33026359Y42420000D02*
X33333641Y42420000D01*
%TO.C,R32*%
X31026359Y50380000D02*
X31333641Y50380000D01*
X31026359Y49620000D02*
X31333641Y49620000D01*
%TO.C,R202*%
X101026359Y31180000D02*
X101333641Y31180000D01*
X101026359Y30420000D02*
X101333641Y30420000D01*
%TO.C,C63*%
X95607836Y48035000D02*
X95392164Y48035000D01*
X95607836Y47315000D02*
X95392164Y47315000D01*
%TO.C,C94*%
X124392164Y30595001D02*
X124607836Y30595001D01*
X124392164Y29875001D02*
X124607836Y29875001D01*
%TO.C,R265*%
X118973641Y31955000D02*
X118666359Y31955000D01*
X118973641Y31195000D02*
X118666359Y31195000D01*
%TO.C,C67*%
X98207836Y44435000D02*
X97992164Y44435000D01*
X98207836Y43715000D02*
X97992164Y43715000D01*
%TO.C,R235*%
X116973641Y43980000D02*
X116666359Y43980000D01*
X116973641Y43220000D02*
X116666359Y43220000D01*
%TO.C,C68*%
X95607836Y40835000D02*
X95392164Y40835000D01*
X95607836Y40115000D02*
X95392164Y40115000D01*
%TO.C,C89*%
X124392164Y37795001D02*
X124607836Y37795001D01*
X124392164Y37075001D02*
X124607836Y37075001D01*
%TO.C,R66*%
X31026359Y34380000D02*
X31333641Y34380000D01*
X31026359Y33620000D02*
X31333641Y33620000D01*
%TO.C,C91*%
X121792164Y34195001D02*
X122007836Y34195001D01*
X121792164Y33475001D02*
X122007836Y33475001D01*
%TO.C,R166*%
X103026359Y45580000D02*
X103333641Y45580000D01*
X103026359Y44820000D02*
X103333641Y44820000D01*
%TO.C,C57*%
X98207836Y58860000D02*
X97992164Y58860000D01*
X98207836Y58140000D02*
X97992164Y58140000D01*
%TO.C,C86*%
X121792164Y41395001D02*
X122007836Y41395001D01*
X121792164Y40675001D02*
X122007836Y40675001D01*
%TO.C,R20*%
X33026359Y54380000D02*
X33333641Y54380000D01*
X33026359Y53620000D02*
X33333641Y53620000D01*
%TO.C,C41*%
X51792164Y48595000D02*
X52007836Y48595000D01*
X51792164Y47875000D02*
X52007836Y47875000D01*
%TO.C,R127*%
X48973641Y36780000D02*
X48666359Y36780000D01*
X48973641Y36020000D02*
X48666359Y36020000D01*
%TO.C,C29*%
X28207836Y44435000D02*
X27992164Y44435000D01*
X28207836Y43715000D02*
X27992164Y43715000D01*
%TO.C,R125*%
X46973641Y35180000D02*
X46666359Y35180000D01*
X46973641Y34420000D02*
X46666359Y34420000D01*
%TO.C,C48*%
X51792164Y37795001D02*
X52007836Y37795001D01*
X51792164Y37075001D02*
X52007836Y37075001D01*
%TO.C,R158*%
X103026359Y48780000D02*
X103333641Y48780000D01*
X103026359Y48020000D02*
X103333641Y48020000D01*
%TO.C,C74*%
X98207836Y33635000D02*
X97992164Y33635000D01*
X98207836Y32915000D02*
X97992164Y32915000D01*
%TO.C,R58*%
X31026359Y38380000D02*
X31333641Y38380000D01*
X31026359Y37620000D02*
X31333641Y37620000D01*
%TO.C,R16*%
X31026359Y57580000D02*
X31333641Y57580000D01*
X31026359Y56820000D02*
X31333641Y56820000D01*
%TO.C,R75*%
X46973641Y58380000D02*
X46666359Y58380000D01*
X46973641Y57620000D02*
X46666359Y57620000D01*
%TO.C,R137*%
X48973641Y31980000D02*
X48666359Y31980000D01*
X48973641Y31220000D02*
X48666359Y31220000D01*
%TO.C,R87*%
X48973641Y55180000D02*
X48666359Y55180000D01*
X48973641Y54420000D02*
X48666359Y54420000D01*
%TO.C,R14*%
X33026359Y55980000D02*
X33333641Y55980000D01*
X33026359Y55220000D02*
X33333641Y55220000D01*
%TO.C,R42*%
X31026359Y45580000D02*
X31333641Y45580000D01*
X31026359Y44820000D02*
X31333641Y44820000D01*
%TO.C,R182*%
X103026359Y38380000D02*
X103333641Y38380000D01*
X103026359Y37620000D02*
X103333641Y37620000D01*
%TO.C,R253*%
X116973641Y35180000D02*
X116666359Y35180000D01*
X116973641Y34420000D02*
X116666359Y34420000D01*
%TO.C,R188*%
X103026359Y35980000D02*
X103333641Y35980000D01*
X103026359Y35220000D02*
X103333641Y35220000D01*
%TO.C,R207*%
X118973641Y58355000D02*
X118666359Y58355000D01*
X118973641Y57595000D02*
X118666359Y57595000D01*
%TO.C,R83*%
X46973641Y55180000D02*
X46666359Y55180000D01*
X46973641Y54420000D02*
X46666359Y54420000D01*
%TO.C,C64*%
X98207836Y48035000D02*
X97992164Y48035000D01*
X98207836Y47315000D02*
X97992164Y47315000D01*
%TO.C,R111*%
X48973641Y43980000D02*
X48666359Y43980000D01*
X48973641Y43220000D02*
X48666359Y43220000D01*
%TO.C,R229*%
X116973641Y46380000D02*
X116666359Y46380000D01*
X116973641Y45620000D02*
X116666359Y45620000D01*
%TO.C,R12*%
X33026359Y57580000D02*
X33333641Y57580000D01*
X33026359Y56820000D02*
X33333641Y56820000D01*
%TO.C,C28*%
X25607836Y44435000D02*
X25392164Y44435000D01*
X25607836Y43715000D02*
X25392164Y43715000D01*
%TO.C,R135*%
X48973641Y33580000D02*
X48666359Y33580000D01*
X48973641Y32820000D02*
X48666359Y32820000D01*
%TO.C,C42*%
X54392164Y48595000D02*
X54607836Y48595000D01*
X54392164Y47875000D02*
X54607836Y47875000D01*
%TO.C,C38*%
X51792164Y52220000D02*
X52007836Y52220000D01*
X51792164Y51500000D02*
X52007836Y51500000D01*
%TO.C,R164*%
X103026359Y47180000D02*
X103333641Y47180000D01*
X103026359Y46420000D02*
X103333641Y46420000D01*
%TO.C,R156*%
X103026359Y50380000D02*
X103333641Y50380000D01*
X103026359Y49620000D02*
X103333641Y49620000D01*
%TO.C,R77*%
X46973641Y56780000D02*
X46666359Y56780000D01*
X46973641Y56020000D02*
X46666359Y56020000D01*
%TO.C,C53*%
X51792164Y30595001D02*
X52007836Y30595001D01*
X51792164Y29875001D02*
X52007836Y29875001D01*
%TO.C,R148*%
X103026359Y54380000D02*
X103333641Y54380000D01*
X103026359Y53620000D02*
X103333641Y53620000D01*
%TO.C,C93*%
X121792164Y30595001D02*
X122007836Y30595001D01*
X121792164Y29875001D02*
X122007836Y29875001D01*
%TO.C,C21*%
X25607836Y51635000D02*
X25392164Y51635000D01*
X25607836Y50915000D02*
X25392164Y50915000D01*
%TO.C,R174*%
X103026359Y41580000D02*
X103333641Y41580000D01*
X103026359Y40820000D02*
X103333641Y40820000D01*
%TO.C,R131*%
X46973641Y33580000D02*
X46666359Y33580000D01*
X46973641Y32820000D02*
X46666359Y32820000D01*
%TO.C,R170*%
X101026359Y45580000D02*
X101333641Y45580000D01*
X101026359Y44820000D02*
X101333641Y44820000D01*
%TO.C,R40*%
X31026359Y47180000D02*
X31333641Y47180000D01*
X31026359Y46420000D02*
X31333641Y46420000D01*
%TO.C,R211*%
X116973641Y55180000D02*
X116666359Y55180000D01*
X116973641Y54420000D02*
X116666359Y54420000D01*
%TO.C,R209*%
X118983641Y56755000D02*
X118676359Y56755000D01*
X118983641Y55995000D02*
X118676359Y55995000D01*
%TO.C,R198*%
X103026359Y31180000D02*
X103333641Y31180000D01*
X103026359Y30420000D02*
X103333641Y30420000D01*
%TO.C,R261*%
X116973641Y31980000D02*
X116666359Y31980000D01*
X116973641Y31220000D02*
X116666359Y31220000D01*
%TO.C,C47*%
X54392164Y41395001D02*
X54607836Y41395001D01*
X54392164Y40675001D02*
X54607836Y40675001D01*
%TO.C,R146*%
X101026359Y55980000D02*
X101333641Y55980000D01*
X101026359Y55220000D02*
X101333641Y55220000D01*
%TO.C,R105*%
X48973641Y46380000D02*
X48666359Y46380000D01*
X48973641Y45620000D02*
X48666359Y45620000D01*
%TO.C,R54*%
X33026359Y38380000D02*
X33333641Y38380000D01*
X33026359Y37620000D02*
X33333641Y37620000D01*
%TO.C,R22*%
X33026359Y52780000D02*
X33333641Y52780000D01*
X33026359Y52020000D02*
X33333641Y52020000D01*
%TO.C,R217*%
X118973641Y53555000D02*
X118666359Y53555000D01*
X118973641Y52795000D02*
X118666359Y52795000D01*
%TO.C,R24*%
X31026359Y54380000D02*
X31333641Y54380000D01*
X31026359Y53620000D02*
X31333641Y53620000D01*
%TO.C,R95*%
X48973641Y51180000D02*
X48666359Y51180000D01*
X48973641Y50420000D02*
X48666359Y50420000D01*
%TO.C,R46*%
X33026359Y41580000D02*
X33333641Y41580000D01*
X33026359Y40820000D02*
X33333641Y40820000D01*
%TO.C,R154*%
X101026359Y52780000D02*
X101333641Y52780000D01*
X101026359Y52020000D02*
X101333641Y52020000D01*
%TO.C,R219*%
X116973641Y51180000D02*
X116666359Y51180000D01*
X116973641Y50420000D02*
X116666359Y50420000D01*
%TO.C,R192*%
X101026359Y35980000D02*
X101333641Y35980000D01*
X101026359Y35220000D02*
X101333641Y35220000D01*
%TO.C,C72*%
X98207836Y37235000D02*
X97992164Y37235000D01*
X98207836Y36515000D02*
X97992164Y36515000D01*
%TO.C,R140*%
X103026359Y57580000D02*
X103333641Y57580000D01*
X103026359Y56820000D02*
X103333641Y56820000D01*
%TO.C,R38*%
X33026359Y45580000D02*
X33333641Y45580000D01*
X33026359Y44820000D02*
X33333641Y44820000D01*
%TO.C,R52*%
X33026359Y39980000D02*
X33333641Y39980000D01*
X33026359Y39220000D02*
X33333641Y39220000D01*
%TO.C,R168*%
X101026359Y47180000D02*
X101333641Y47180000D01*
X101026359Y46420000D02*
X101333641Y46420000D01*
%TO.C,C78*%
X121792164Y52220000D02*
X122007836Y52220000D01*
X121792164Y51500000D02*
X122007836Y51500000D01*
%TO.C,R34*%
X31026359Y48780000D02*
X31333641Y48780000D01*
X31026359Y48020000D02*
X31333641Y48020000D01*
%TO.C,C33*%
X25607836Y37235000D02*
X25392164Y37235000D01*
X25607836Y36515000D02*
X25392164Y36515000D01*
%TO.C,C87*%
X124392164Y41395001D02*
X124607836Y41395001D01*
X124392164Y40675001D02*
X124607836Y40675001D01*
%TO.C,C66*%
X95607836Y44435000D02*
X95392164Y44435000D01*
X95607836Y43715000D02*
X95392164Y43715000D01*
%TO.C,R60*%
X33026359Y35980000D02*
X33333641Y35980000D01*
X33026359Y35220000D02*
X33333641Y35220000D01*
%TO.C,R119*%
X48973641Y40780000D02*
X48666359Y40780000D01*
X48973641Y40020000D02*
X48666359Y40020000D01*
%TO.C,R56*%
X31026359Y39980000D02*
X31333641Y39980000D01*
X31026359Y39220000D02*
X31333641Y39220000D01*
%TO.C,R123*%
X46973641Y36780000D02*
X46666359Y36780000D01*
X46973641Y36020000D02*
X46666359Y36020000D01*
%TO.C,C24*%
X28207836Y48035000D02*
X27992164Y48035000D01*
X28207836Y47315000D02*
X27992164Y47315000D01*
%TO.C,R101*%
X46973641Y46380000D02*
X46666359Y46380000D01*
X46973641Y45620000D02*
X46666359Y45620000D01*
%TO.C,R215*%
X118973641Y55155000D02*
X118666359Y55155000D01*
X118973641Y54395000D02*
X118666359Y54395000D01*
%TO.C,R245*%
X116973641Y39180000D02*
X116666359Y39180000D01*
X116973641Y38420000D02*
X116666359Y38420000D01*
%TO.C,R213*%
X116973641Y53580000D02*
X116666359Y53580000D01*
X116973641Y52820000D02*
X116666359Y52820000D01*
%TO.C,R176*%
X101026359Y43180000D02*
X101333641Y43180000D01*
X101026359Y42420000D02*
X101333641Y42420000D01*
%TO.C,R18*%
X31026359Y55980000D02*
X31333641Y55980000D01*
X31026359Y55220000D02*
X31333641Y55220000D01*
%TO.C,C77*%
X124392164Y55820000D02*
X124607836Y55820000D01*
X124392164Y55100000D02*
X124607836Y55100000D01*
%TO.C,J7*%
X88940000Y106710000D02*
X89960000Y106710000D01*
X88940000Y102460000D02*
X88940000Y106710000D01*
X89960000Y106710000D02*
X89960000Y105110000D01*
X89960000Y105110000D02*
X91240000Y105110000D01*
X94760000Y105110000D02*
X94760000Y108000000D01*
X95340000Y98890000D02*
X90660000Y98890000D01*
X96040000Y106710000D02*
X96040000Y105110000D01*
X96040000Y105110000D02*
X94760000Y105110000D01*
X97060000Y106710000D02*
X96040000Y106710000D01*
X97060000Y102460000D02*
X97060000Y106710000D01*
%TO.C,C76*%
X121792164Y55820000D02*
X122007836Y55820000D01*
X121792164Y55100000D02*
X122007836Y55100000D01*
%TO.C,R115*%
X46973641Y40780000D02*
X46666359Y40780000D01*
X46973641Y40020000D02*
X46666359Y40020000D01*
%TO.C,R196*%
X103026359Y32780000D02*
X103333641Y32780000D01*
X103026359Y32020000D02*
X103333641Y32020000D01*
%TO.C,C69*%
X98207836Y40835000D02*
X97992164Y40835000D01*
X98207836Y40115000D02*
X97992164Y40115000D01*
%TO.C,R263*%
X118973641Y33555000D02*
X118666359Y33555000D01*
X118973641Y32795000D02*
X118666359Y32795000D01*
%TO.C,R36*%
X33026359Y47180000D02*
X33333641Y47180000D01*
X33026359Y46420000D02*
X33333641Y46420000D01*
%TO.C,R231*%
X118973641Y47955000D02*
X118666359Y47955000D01*
X118973641Y47195000D02*
X118666359Y47195000D01*
%TO.C,R259*%
X116973641Y33580000D02*
X116666359Y33580000D01*
X116973641Y32820000D02*
X116666359Y32820000D01*
%TD*%
%LPC*%
D13*
%TO.C,G\u002A\u002A\u002A*%
G36*
X120120935Y113534817D02*
G01*
X120133772Y113531088D01*
X120137576Y113525003D01*
X120138036Y113515544D01*
X120139518Y113485380D01*
X120141879Y113437502D01*
X120144985Y113374626D01*
X120148701Y113299466D01*
X120152892Y113214738D01*
X120157426Y113123157D01*
X120161051Y113049887D01*
X120165249Y112964868D01*
X120168962Y112889435D01*
X120172066Y112826174D01*
X120174432Y112777677D01*
X120175934Y112746532D01*
X120176445Y112735327D01*
X120176435Y112735309D01*
X120165288Y112734051D01*
X120136096Y112731809D01*
X120093211Y112728896D01*
X120040987Y112725622D01*
X120013890Y112724090D01*
X119928053Y112721307D01*
X119859711Y112723485D01*
X119805178Y112731367D01*
X119760763Y112745693D01*
X119722778Y112767204D01*
X119687534Y112796642D01*
X119659139Y112826992D01*
X119633118Y112866052D01*
X119614763Y112912165D01*
X119602130Y112970476D01*
X119593277Y113046125D01*
X119586695Y113141630D01*
X119585764Y113223296D01*
X119591196Y113288923D01*
X119603240Y113341450D01*
X119622150Y113383817D01*
X119633360Y113401977D01*
X119665398Y113443169D01*
X119703066Y113474703D01*
X119749718Y113497981D01*
X119808709Y113514407D01*
X119883394Y113525385D01*
X119977127Y113532318D01*
X119996723Y113533305D01*
X120055561Y113535782D01*
X120095914Y113536334D01*
X120120935Y113534817D01*
G37*
G36*
X122700372Y111271899D02*
G01*
X122691553Y111157502D01*
X122683603Y111056275D01*
X122676635Y110969768D01*
X122670759Y110899527D01*
X122666086Y110847101D01*
X122662727Y110814037D01*
X122660794Y110801882D01*
X122652009Y110801793D01*
X122622695Y110803108D01*
X122574905Y110805805D01*
X122510799Y110809732D01*
X122432539Y110814738D01*
X122342284Y110820671D01*
X122242196Y110827379D01*
X122134435Y110834712D01*
X122021163Y110842517D01*
X121904540Y110850643D01*
X121786727Y110858940D01*
X121669885Y110867254D01*
X121556174Y110875435D01*
X121447755Y110883332D01*
X121346790Y110890792D01*
X121255439Y110897664D01*
X121175863Y110903798D01*
X121110222Y110909041D01*
X121060678Y110913241D01*
X121029391Y110916248D01*
X120968861Y110922911D01*
X120973925Y110983969D01*
X120974778Y110994997D01*
X120975529Y111026137D01*
X120971330Y111041273D01*
X120961142Y111045396D01*
X120960707Y111045385D01*
X120944643Y111043645D01*
X120908182Y111039107D01*
X120853087Y111032005D01*
X120781123Y111022574D01*
X120694055Y111011047D01*
X120593646Y110997660D01*
X120481662Y110982647D01*
X120359866Y110966242D01*
X120230024Y110948680D01*
X120093899Y110930194D01*
X119930822Y110908112D01*
X119778104Y110887687D01*
X119646153Y110870350D01*
X119534168Y110856004D01*
X119441348Y110844553D01*
X119366893Y110835901D01*
X119310001Y110829953D01*
X119269873Y110826611D01*
X119245708Y110825780D01*
X119236705Y110827365D01*
X119235007Y110834513D01*
X119230238Y110862415D01*
X119222916Y110909542D01*
X119213302Y110974071D01*
X119201659Y111054174D01*
X119188248Y111148027D01*
X119173334Y111253804D01*
X119157176Y111369680D01*
X119140039Y111493828D01*
X119122184Y111624423D01*
X119109022Y111720943D01*
X119091857Y111846150D01*
X119075707Y111963211D01*
X119060821Y112070351D01*
X119047451Y112165794D01*
X119035847Y112247763D01*
X119026259Y112314481D01*
X119018938Y112364174D01*
X119014133Y112395064D01*
X119012096Y112405375D01*
X119011850Y112404006D01*
X119010449Y112385550D01*
X119008153Y112347064D01*
X119005060Y112290437D01*
X119001263Y112217560D01*
X118996860Y112130324D01*
X118991945Y112030617D01*
X118986616Y111920332D01*
X118980967Y111801357D01*
X118975095Y111675584D01*
X118973819Y111648063D01*
X118967844Y111520395D01*
X118962025Y111397892D01*
X118956472Y111282726D01*
X118951291Y111177068D01*
X118946592Y111083089D01*
X118942483Y111002960D01*
X118939071Y110938852D01*
X118936466Y110892937D01*
X118934776Y110867385D01*
X118931880Y110836715D01*
X118926765Y110805469D01*
X118919683Y110789775D01*
X118909318Y110785387D01*
X118897157Y110785692D01*
X118863883Y110786980D01*
X118812117Y110789183D01*
X118743813Y110792209D01*
X118660924Y110795963D01*
X118565404Y110800353D01*
X118459207Y110805285D01*
X118344286Y110810665D01*
X118222594Y110816399D01*
X118096085Y110822395D01*
X117966714Y110828558D01*
X117836432Y110834795D01*
X117707195Y110841013D01*
X117580955Y110847117D01*
X117459667Y110853015D01*
X117345282Y110858612D01*
X117239757Y110863816D01*
X117145043Y110868532D01*
X117063094Y110872667D01*
X116995865Y110876127D01*
X116945308Y110878819D01*
X116913377Y110880650D01*
X116902026Y110881525D01*
X116901855Y110883180D01*
X116902112Y110902502D01*
X116903394Y110942269D01*
X116905628Y111000948D01*
X116908740Y111077004D01*
X116912658Y111168903D01*
X116917307Y111275110D01*
X116917596Y111281578D01*
X117101683Y111281578D01*
X117101945Y111242116D01*
X117103419Y111223350D01*
X117109903Y111204877D01*
X117137201Y111157737D01*
X117175031Y111114536D01*
X117216122Y111084249D01*
X117216493Y111084058D01*
X117280378Y111062964D01*
X117347576Y111061242D01*
X117412172Y111078213D01*
X117468250Y111113198D01*
X117468958Y111113834D01*
X117488929Y111137842D01*
X117518167Y111181625D01*
X117556314Y111244591D01*
X117603011Y111326150D01*
X117657901Y111425712D01*
X117677511Y111461788D01*
X117718372Y111536841D01*
X117764355Y111621175D01*
X117814396Y111712853D01*
X117867433Y111809936D01*
X117922406Y111910484D01*
X117978251Y112012559D01*
X118033906Y112114223D01*
X118088309Y112213537D01*
X118140398Y112308562D01*
X118189111Y112397359D01*
X118233386Y112477991D01*
X118272160Y112548517D01*
X118304371Y112607000D01*
X118328958Y112651501D01*
X118344858Y112680081D01*
X118351009Y112690801D01*
X118358446Y112690801D01*
X118358611Y112688776D01*
X118358282Y112668703D01*
X118356938Y112628717D01*
X118354661Y112570697D01*
X118351534Y112496525D01*
X118347638Y112408080D01*
X118343056Y112307243D01*
X118337870Y112195896D01*
X118332163Y112075917D01*
X118326016Y111949188D01*
X118323837Y111904311D01*
X118317918Y111778365D01*
X118312595Y111659046D01*
X118307939Y111548342D01*
X118304023Y111448239D01*
X118300917Y111360726D01*
X118298695Y111287790D01*
X118297427Y111231419D01*
X118297186Y111193600D01*
X118298044Y111176320D01*
X118307078Y111145155D01*
X118318765Y111116801D01*
X118333406Y111095643D01*
X118369052Y111060652D01*
X118411930Y111030421D01*
X118453178Y111011869D01*
X118489474Y111004071D01*
X118559458Y111003927D01*
X118623316Y111025432D01*
X118681747Y111068759D01*
X118692923Y111080481D01*
X118720812Y111118390D01*
X118737302Y111154408D01*
X118737797Y111157040D01*
X118740144Y111180111D01*
X118743439Y111223796D01*
X118747599Y111286610D01*
X118752541Y111367069D01*
X118758182Y111463688D01*
X118764440Y111574981D01*
X118771233Y111699463D01*
X118778478Y111835650D01*
X118786092Y111982056D01*
X118793993Y112137196D01*
X118802098Y112299584D01*
X118810325Y112467737D01*
X118816469Y112594999D01*
X118825729Y112788720D01*
X118833855Y112961592D01*
X118840887Y113114661D01*
X118843513Y113173672D01*
X119129879Y113173672D01*
X119131143Y113095275D01*
X119134122Y113019349D01*
X119138792Y112950858D01*
X119145131Y112894761D01*
X119162773Y112810129D01*
X119205575Y112692057D01*
X119266896Y112583763D01*
X119345010Y112487636D01*
X119438192Y112406066D01*
X119544717Y112341444D01*
X119601824Y112314679D01*
X119654315Y112293953D01*
X119705131Y112279377D01*
X119759099Y112270129D01*
X119821048Y112265392D01*
X119895805Y112264345D01*
X119988199Y112266168D01*
X120066905Y112268017D01*
X120126128Y112268328D01*
X120166592Y112267003D01*
X120190180Y112263980D01*
X120198779Y112259197D01*
X120199555Y112252615D01*
X120201508Y112225434D01*
X120204281Y112179634D01*
X120207745Y112117578D01*
X120211775Y112041629D01*
X120216242Y111954152D01*
X120221019Y111857508D01*
X120225980Y111754061D01*
X120229169Y111688542D01*
X120234454Y111587695D01*
X120239792Y111494464D01*
X120245016Y111411337D01*
X120249958Y111340799D01*
X120254449Y111285338D01*
X120258321Y111247440D01*
X120261407Y111229594D01*
X120271334Y111209302D01*
X120302126Y111168076D01*
X120341619Y111130803D01*
X120381810Y111105716D01*
X120422076Y111095076D01*
X120475234Y111091139D01*
X120528458Y111094847D01*
X120571093Y111106173D01*
X120593003Y111118663D01*
X120632183Y111151200D01*
X120666767Y111190750D01*
X120688830Y111229043D01*
X120693850Y111248678D01*
X120698995Y111287358D01*
X120701114Y111330552D01*
X120700919Y111347262D01*
X120699721Y111389167D01*
X120697517Y111449559D01*
X120694394Y111526654D01*
X120690444Y111618670D01*
X120685754Y111723823D01*
X120680415Y111840329D01*
X120674515Y111966405D01*
X120668145Y112100266D01*
X120661393Y112240131D01*
X120654348Y112384215D01*
X120647101Y112530734D01*
X120639741Y112677906D01*
X120632356Y112823947D01*
X120625037Y112967072D01*
X120617872Y113105500D01*
X120610951Y113237445D01*
X120604364Y113361126D01*
X120598199Y113474757D01*
X120592547Y113576556D01*
X120587495Y113664739D01*
X120583135Y113737523D01*
X120579555Y113793124D01*
X120576844Y113829759D01*
X120575093Y113845644D01*
X120562168Y113878494D01*
X120529170Y113926042D01*
X120485118Y113967116D01*
X120436463Y113994776D01*
X120428304Y113997744D01*
X120412308Y114002343D01*
X120393411Y114005543D01*
X120368809Y114007352D01*
X120335700Y114007777D01*
X120291283Y114006826D01*
X120232755Y114004507D01*
X120157314Y114000828D01*
X120062158Y113995795D01*
X120055673Y113995445D01*
X119950284Y113989469D01*
X119864056Y113983714D01*
X119793784Y113977623D01*
X119736264Y113970638D01*
X119688292Y113962201D01*
X119646664Y113951755D01*
X119608175Y113938741D01*
X119569622Y113922602D01*
X119527798Y113902781D01*
X119477775Y113874543D01*
X119395814Y113813369D01*
X119319155Y113738782D01*
X119303781Y113719555D01*
X119253213Y113656313D01*
X119203403Y113571492D01*
X119196060Y113555647D01*
X119173755Y113503285D01*
X119154794Y113452920D01*
X119142651Y113413588D01*
X119142449Y113412753D01*
X119136615Y113374082D01*
X119132592Y113318037D01*
X119130354Y113249580D01*
X119129879Y113173672D01*
X118843513Y113173672D01*
X118846863Y113248973D01*
X118851824Y113365576D01*
X118855807Y113465514D01*
X118858853Y113549835D01*
X118861000Y113619585D01*
X118862288Y113675809D01*
X118862755Y113719555D01*
X118862440Y113751868D01*
X118861384Y113773796D01*
X118859624Y113786383D01*
X118848362Y113817549D01*
X118813260Y113868394D01*
X118763176Y113908357D01*
X118702460Y113934390D01*
X118635460Y113943447D01*
X118621928Y113942833D01*
X118560609Y113926723D01*
X118502581Y113889894D01*
X118449729Y113833837D01*
X118403937Y113760046D01*
X118403845Y113759866D01*
X118390387Y113734066D01*
X118367922Y113691876D01*
X118337490Y113635202D01*
X118300130Y113565950D01*
X118256883Y113486028D01*
X118208789Y113397340D01*
X118156887Y113301794D01*
X118102219Y113201295D01*
X118045824Y113097751D01*
X117988741Y112993067D01*
X117932012Y112889149D01*
X117876676Y112787904D01*
X117823773Y112691239D01*
X117774344Y112601059D01*
X117729427Y112519270D01*
X117690064Y112447780D01*
X117657295Y112388494D01*
X117632159Y112343319D01*
X117615696Y112314160D01*
X117608947Y112302925D01*
X117607513Y112302076D01*
X117603815Y112312197D01*
X117602958Y112341520D01*
X117605059Y112387516D01*
X117605294Y112391020D01*
X117608180Y112438237D01*
X117611761Y112502751D01*
X117615916Y112581906D01*
X117620523Y112673048D01*
X117625459Y112773521D01*
X117630605Y112880670D01*
X117635838Y112991840D01*
X117641036Y113104376D01*
X117646078Y113215623D01*
X117650842Y113322926D01*
X117655207Y113423629D01*
X117659051Y113515079D01*
X117662253Y113594619D01*
X117664690Y113659596D01*
X117666242Y113707352D01*
X117666786Y113735235D01*
X117666615Y113756984D01*
X117663220Y113815076D01*
X117654189Y113858579D01*
X117637841Y113893383D01*
X117612494Y113925379D01*
X117560856Y113967037D01*
X117500292Y113992080D01*
X117436689Y113999203D01*
X117374105Y113989084D01*
X117316599Y113962400D01*
X117268229Y113919828D01*
X117233053Y113862047D01*
X117231288Y113854532D01*
X117227537Y113824676D01*
X117223009Y113775048D01*
X117217792Y113707408D01*
X117211971Y113623514D01*
X117205634Y113525127D01*
X117198865Y113414006D01*
X117191753Y113291910D01*
X117184382Y113160599D01*
X117176841Y113021833D01*
X117169215Y112877370D01*
X117161590Y112728971D01*
X117154053Y112578395D01*
X117146691Y112427401D01*
X117139590Y112277748D01*
X117132836Y112131198D01*
X117126516Y111989508D01*
X117120716Y111854438D01*
X117115523Y111727748D01*
X117111023Y111611197D01*
X117107302Y111506545D01*
X117104448Y111415552D01*
X117102546Y111339976D01*
X117101683Y111281578D01*
X116917596Y111281578D01*
X116922616Y111394092D01*
X116928509Y111524314D01*
X116934915Y111664243D01*
X116941759Y111812344D01*
X116948968Y111967082D01*
X116956470Y112126925D01*
X116964191Y112290337D01*
X116972056Y112455785D01*
X116979994Y112621734D01*
X116987931Y112786651D01*
X116995794Y112949000D01*
X117003509Y113107249D01*
X117011002Y113259862D01*
X117018202Y113405306D01*
X117025033Y113542047D01*
X117031424Y113668549D01*
X117037300Y113783281D01*
X117042589Y113884706D01*
X117047217Y113971291D01*
X117051111Y114041502D01*
X117054197Y114093804D01*
X117056403Y114126665D01*
X117057654Y114138548D01*
X117057654Y114138549D01*
X117069774Y114139317D01*
X117102817Y114139038D01*
X117155174Y114137773D01*
X117225239Y114135585D01*
X117311405Y114132533D01*
X117412064Y114128681D01*
X117525609Y114124089D01*
X117650433Y114118819D01*
X117784928Y114112932D01*
X117927486Y114106491D01*
X118076502Y114099555D01*
X119087923Y114051811D01*
X119087923Y114025950D01*
X119091259Y114009721D01*
X119103872Y114000089D01*
X119111027Y114000815D01*
X119139028Y114004297D01*
X119186263Y114010436D01*
X119250895Y114018984D01*
X119331086Y114029696D01*
X119424997Y114042323D01*
X119530791Y114056620D01*
X119646629Y114072340D01*
X119770674Y114089236D01*
X119901087Y114107062D01*
X119994059Y114119759D01*
X120119544Y114136788D01*
X120237094Y114152614D01*
X120344907Y114167003D01*
X120441184Y114179717D01*
X120524122Y114190523D01*
X120591919Y114199183D01*
X120642776Y114205461D01*
X120674890Y114209122D01*
X120686460Y114209929D01*
X120686533Y114209757D01*
X120688877Y114196066D01*
X120694039Y114161613D01*
X120701817Y114107840D01*
X120712010Y114036190D01*
X120724417Y113948104D01*
X120738837Y113845025D01*
X120755067Y113728396D01*
X120772908Y113599660D01*
X120792157Y113460258D01*
X120812613Y113311634D01*
X120834076Y113155230D01*
X120856343Y112992488D01*
X120858926Y112973590D01*
X120881117Y112811800D01*
X120902527Y112656705D01*
X120922951Y112509726D01*
X120942187Y112372289D01*
X120960030Y112245817D01*
X120976277Y112131732D01*
X120990723Y112031460D01*
X121003166Y111946424D01*
X121013402Y111878048D01*
X121021226Y111827754D01*
X121026435Y111796968D01*
X121028826Y111787112D01*
X121029934Y111793818D01*
X121031032Y111804545D01*
X121289829Y111804545D01*
X121289838Y111763063D01*
X121290439Y111729464D01*
X121291608Y111702263D01*
X121293323Y111679979D01*
X121295559Y111661127D01*
X121298292Y111644226D01*
X121301499Y111627792D01*
X121321443Y111550358D01*
X121365646Y111442251D01*
X121428422Y111342237D01*
X121438616Y111330552D01*
X121511753Y111246721D01*
X121531194Y111227554D01*
X121592870Y111172373D01*
X121652313Y111130080D01*
X121717047Y111095834D01*
X121794596Y111064796D01*
X121819007Y111057529D01*
X121880014Y111046319D01*
X121952998Y111039179D01*
X122031178Y111036271D01*
X122107773Y111037755D01*
X122176003Y111043790D01*
X122229086Y111054537D01*
X122280885Y111071224D01*
X122335359Y111092460D01*
X122377459Y111114701D01*
X122412862Y111140607D01*
X122436325Y111163576D01*
X122472101Y111218529D01*
X122491336Y111280252D01*
X122494129Y111344219D01*
X122480580Y111405905D01*
X122450788Y111460784D01*
X122404853Y111504331D01*
X122352259Y111532686D01*
X122287548Y111547813D01*
X122219181Y111542022D01*
X122144495Y111515426D01*
X122079170Y111494984D01*
X122006230Y111492294D01*
X121934664Y111508051D01*
X121868786Y111540694D01*
X121812910Y111588661D01*
X121771349Y111650394D01*
X121770333Y111652478D01*
X121765551Y111662187D01*
X121761345Y111671542D01*
X121757731Y111681890D01*
X121754721Y111694579D01*
X121752330Y111710955D01*
X121750571Y111732366D01*
X121749457Y111760157D01*
X121749003Y111795676D01*
X121749222Y111840269D01*
X121750128Y111895285D01*
X121751734Y111962068D01*
X121754053Y112041967D01*
X121757101Y112136328D01*
X121760889Y112246497D01*
X121765433Y112373823D01*
X121770745Y112519651D01*
X121776839Y112685329D01*
X121783729Y112872203D01*
X121785741Y112927107D01*
X121792364Y113112614D01*
X121797893Y113276019D01*
X121802338Y113417658D01*
X121805706Y113537868D01*
X121808005Y113636985D01*
X121809244Y113715344D01*
X121809431Y113773283D01*
X121808573Y113811138D01*
X121806679Y113829245D01*
X121798803Y113852014D01*
X121766018Y113907202D01*
X121720823Y113948039D01*
X121666925Y113974511D01*
X121608033Y113986606D01*
X121547855Y113984307D01*
X121490099Y113967602D01*
X121438473Y113936476D01*
X121396686Y113890916D01*
X121368446Y113830906D01*
X121368372Y113830643D01*
X121366193Y113812809D01*
X121363341Y113774123D01*
X121359889Y113716208D01*
X121355911Y113640690D01*
X121351481Y113549193D01*
X121346673Y113443344D01*
X121341562Y113324767D01*
X121336220Y113195087D01*
X121330722Y113055928D01*
X121325142Y112908917D01*
X121319553Y112755678D01*
X121313934Y112598113D01*
X121308349Y112440187D01*
X121303546Y112302007D01*
X121299502Y112182090D01*
X121296193Y112078953D01*
X121293595Y111991113D01*
X121291684Y111917087D01*
X121290437Y111855392D01*
X121289829Y111804545D01*
X121031032Y111804545D01*
X121032758Y111821401D01*
X121036987Y111868882D01*
X121042501Y111934757D01*
X121049185Y112017520D01*
X121056921Y112115668D01*
X121065592Y112227696D01*
X121075081Y112352098D01*
X121085270Y112487371D01*
X121096042Y112632009D01*
X121107281Y112784509D01*
X121118868Y112943364D01*
X121127304Y113059139D01*
X121138671Y113213689D01*
X121149617Y113360856D01*
X121160022Y113499128D01*
X121169769Y113626993D01*
X121178740Y113742940D01*
X121186816Y113845457D01*
X121193879Y113933032D01*
X121199810Y114004153D01*
X121204492Y114057309D01*
X121207806Y114090988D01*
X121209634Y114103678D01*
X121210640Y114104317D01*
X121225780Y114105787D01*
X121259166Y114105596D01*
X121311328Y114103715D01*
X121382794Y114100112D01*
X121474092Y114094758D01*
X121585753Y114087622D01*
X121718304Y114078672D01*
X121872275Y114067880D01*
X122048194Y114055213D01*
X122179470Y114045590D01*
X122307995Y114036027D01*
X122428270Y114026936D01*
X122538513Y114018459D01*
X122636943Y114010737D01*
X122721778Y114003912D01*
X122791238Y113998125D01*
X122843541Y113993518D01*
X122876906Y113990231D01*
X122889551Y113988407D01*
X122889596Y113988357D01*
X122889750Y113975768D01*
X122888329Y113942301D01*
X122885444Y113889502D01*
X122881208Y113818920D01*
X122875730Y113732102D01*
X122869122Y113630596D01*
X122861496Y113515951D01*
X122852961Y113389712D01*
X122843630Y113253429D01*
X122833612Y113108650D01*
X122823021Y112956920D01*
X122811966Y112799790D01*
X122800559Y112638805D01*
X122788910Y112475515D01*
X122777132Y112311466D01*
X122765334Y112148206D01*
X122753629Y111987284D01*
X122742126Y111830246D01*
X122730939Y111678641D01*
X122720176Y111534017D01*
X122709950Y111397920D01*
X122705869Y111344219D01*
X122700372Y111271899D01*
G37*
%TD*%
D14*
%TO.C,J4*%
X112032000Y61238000D03*
X112032000Y26762000D03*
%TD*%
D15*
%TO.C,SW1*%
X48250000Y114510000D03*
X55260000Y114510000D03*
D16*
X49500000Y117000000D03*
X54000000Y117000000D03*
%TD*%
D14*
%TO.C,J3*%
X42032000Y61238000D03*
X42032000Y26762000D03*
%TD*%
D17*
%TO.C,SW4*%
X127500000Y93550000D03*
D18*
X127500000Y88550000D03*
X127500000Y91050000D03*
X142000000Y93550000D03*
X142000000Y88550000D03*
D19*
X135000000Y96650000D03*
X135000000Y85450000D03*
%TD*%
D20*
%TO.C,H6*%
X135000000Y15000000D03*
%TD*%
%TO.C,H7*%
X15000000Y15000000D03*
%TD*%
D21*
%TO.C,TP13*%
X90400000Y110700000D03*
%TD*%
D20*
%TO.C,H1*%
X4000000Y4000000D03*
%TD*%
D22*
%TO.C,SW3*%
X130460000Y107000000D03*
D23*
X133000000Y107000000D03*
X135540000Y107000000D03*
X130460000Y112080000D03*
X135540000Y112080000D03*
%TD*%
D20*
%TO.C,H2*%
X4000000Y116000000D03*
%TD*%
D24*
%TO.C,J5*%
X25000000Y107600000D03*
D25*
X28800000Y115400000D03*
X21200000Y115400000D03*
%TD*%
D20*
%TO.C,H3*%
X146000000Y116000000D03*
%TD*%
D21*
%TO.C,TP11*%
X95600000Y110700000D03*
%TD*%
D20*
%TO.C,H8*%
X135000000Y75000000D03*
%TD*%
D26*
%TO.C,J6*%
X77890000Y114685000D03*
X72110000Y114685000D03*
D27*
X79320000Y114185000D03*
D28*
X79320000Y118365000D03*
D27*
X70680000Y114185000D03*
D28*
X70680000Y118365000D03*
%TD*%
D20*
%TO.C,H4*%
X146000000Y4000000D03*
%TD*%
D29*
%TO.C,R68*%
X32670000Y32400000D03*
X33690000Y32400000D03*
%TD*%
%TO.C,R190*%
X102670000Y34000000D03*
X103690000Y34000000D03*
%TD*%
D30*
%TO.C,C84*%
X124020000Y44635001D03*
X124980000Y44635001D03*
%TD*%
D29*
%TO.C,R162*%
X100670000Y48400000D03*
X101690000Y48400000D03*
%TD*%
D31*
%TO.C,R79*%
X49330000Y58000000D03*
X48310000Y58000000D03*
%TD*%
%TO.C,R239*%
X119330000Y43575000D03*
X118310000Y43575000D03*
%TD*%
%TO.C,R237*%
X117330000Y42000000D03*
X116310000Y42000000D03*
%TD*%
D30*
%TO.C,C44*%
X54020000Y44635001D03*
X54980000Y44635001D03*
%TD*%
D31*
%TO.C,R117*%
X47330000Y38800000D03*
X46310000Y38800000D03*
%TD*%
%TO.C,R249*%
X119330000Y38775000D03*
X118310000Y38775000D03*
%TD*%
D32*
%TO.C,C56*%
X95980000Y58500000D03*
X95020000Y58500000D03*
%TD*%
D31*
%TO.C,R225*%
X119340000Y49175000D03*
X118320000Y49175000D03*
%TD*%
D30*
%TO.C,C37*%
X54020000Y55460000D03*
X54980000Y55460000D03*
%TD*%
D33*
%TO.C,J8*%
X102950000Y102750000D03*
X103450000Y102750000D03*
X103950000Y102750000D03*
X104450000Y102750000D03*
X104950000Y102750000D03*
X105450000Y102750000D03*
X105950000Y102750000D03*
X106450000Y102750000D03*
X106950000Y102750000D03*
X107450000Y102750000D03*
X107950000Y102750000D03*
X108450000Y102750000D03*
X108950000Y102750000D03*
X109450000Y102750000D03*
X109950000Y102750000D03*
X110450000Y102750000D03*
D34*
X101050000Y106000000D03*
X112350000Y106000000D03*
%TD*%
D31*
%TO.C,R251*%
X117330000Y36400000D03*
X116310000Y36400000D03*
%TD*%
%TO.C,R109*%
X47330000Y42000000D03*
X46310000Y42000000D03*
%TD*%
D29*
%TO.C,R48*%
X30670000Y42800000D03*
X31690000Y42800000D03*
%TD*%
%TO.C,R184*%
X100670000Y39600000D03*
X101690000Y39600000D03*
%TD*%
D31*
%TO.C,R113*%
X49340000Y42000000D03*
X48320000Y42000000D03*
%TD*%
%TO.C,R205*%
X117330000Y56400000D03*
X116310000Y56400000D03*
%TD*%
D29*
%TO.C,R28*%
X32670000Y50000000D03*
X33690000Y50000000D03*
%TD*%
D31*
%TO.C,R247*%
X119330000Y40375000D03*
X118310000Y40375000D03*
%TD*%
%TO.C,R257*%
X119340000Y34775000D03*
X118320000Y34775000D03*
%TD*%
D32*
%TO.C,C62*%
X98580000Y51275000D03*
X97620000Y51275000D03*
%TD*%
%TO.C,C73*%
X95980000Y33275000D03*
X95020000Y33275000D03*
%TD*%
D29*
%TO.C,R142*%
X102670000Y55600000D03*
X103690000Y55600000D03*
%TD*%
D32*
%TO.C,C61*%
X95980000Y51275000D03*
X95020000Y51275000D03*
%TD*%
D30*
%TO.C,C43*%
X51420000Y44635001D03*
X52380000Y44635001D03*
%TD*%
D31*
%TO.C,R103*%
X49330000Y47600000D03*
X48310000Y47600000D03*
%TD*%
%TO.C,R91*%
X47330000Y50800000D03*
X46310000Y50800000D03*
%TD*%
D29*
%TO.C,R72*%
X30670000Y32400000D03*
X31690000Y32400000D03*
%TD*%
D31*
%TO.C,R89*%
X49330000Y53200000D03*
X48310000Y53200000D03*
%TD*%
D29*
%TO.C,R194*%
X100670000Y34000000D03*
X101690000Y34000000D03*
%TD*%
%TO.C,R144*%
X100670000Y57200000D03*
X101690000Y57200000D03*
%TD*%
D32*
%TO.C,C32*%
X28580000Y33275000D03*
X27620000Y33275000D03*
%TD*%
D31*
%TO.C,R107*%
X47330000Y43600000D03*
X46310000Y43600000D03*
%TD*%
D30*
%TO.C,C83*%
X121420000Y44635001D03*
X122380000Y44635001D03*
%TD*%
D31*
%TO.C,R129*%
X49340000Y34800000D03*
X48320000Y34800000D03*
%TD*%
D32*
%TO.C,C16*%
X25980000Y58500000D03*
X25020000Y58500000D03*
%TD*%
D31*
%TO.C,R241*%
X119340000Y41975000D03*
X118320000Y41975000D03*
%TD*%
D30*
%TO.C,C82*%
X124020000Y48235001D03*
X124980000Y48235001D03*
%TD*%
%TO.C,C46*%
X51420000Y41035001D03*
X52380000Y41035001D03*
%TD*%
%TO.C,C54*%
X54020000Y30235001D03*
X54980000Y30235001D03*
%TD*%
D31*
%TO.C,R223*%
X119330000Y50775000D03*
X118310000Y50775000D03*
%TD*%
D32*
%TO.C,C17*%
X28580000Y58500000D03*
X27620000Y58500000D03*
%TD*%
D31*
%TO.C,R133*%
X47330000Y31600000D03*
X46310000Y31600000D03*
%TD*%
D32*
%TO.C,C22*%
X28580000Y51275000D03*
X27620000Y51275000D03*
%TD*%
D29*
%TO.C,R50*%
X30670000Y41200000D03*
X31690000Y41200000D03*
%TD*%
D30*
%TO.C,C92*%
X124020000Y33835001D03*
X124980000Y33835001D03*
%TD*%
D31*
%TO.C,R93*%
X47330000Y49200000D03*
X46310000Y49200000D03*
%TD*%
%TO.C,R121*%
X49330000Y38800000D03*
X48310000Y38800000D03*
%TD*%
%TO.C,R99*%
X47330000Y47600000D03*
X46310000Y47600000D03*
%TD*%
D30*
%TO.C,C49*%
X54020000Y37435001D03*
X54980000Y37435001D03*
%TD*%
%TO.C,C88*%
X121420000Y37435001D03*
X122380000Y37435001D03*
%TD*%
D29*
%TO.C,R160*%
X100670000Y50000000D03*
X101690000Y50000000D03*
%TD*%
D31*
%TO.C,R221*%
X117330000Y49200000D03*
X116310000Y49200000D03*
%TD*%
D32*
%TO.C,C58*%
X95980000Y54900000D03*
X95020000Y54900000D03*
%TD*%
D29*
%TO.C,R186*%
X100670000Y38000000D03*
X101690000Y38000000D03*
%TD*%
D30*
%TO.C,C36*%
X51420000Y55460000D03*
X52380000Y55460000D03*
%TD*%
D31*
%TO.C,R255*%
X119330000Y36375000D03*
X118310000Y36375000D03*
%TD*%
%TO.C,R97*%
X49340000Y49200000D03*
X48320000Y49200000D03*
%TD*%
D29*
%TO.C,R152*%
X100670000Y54000000D03*
X101690000Y54000000D03*
%TD*%
D30*
%TO.C,C52*%
X54020000Y33835001D03*
X54980000Y33835001D03*
%TD*%
D31*
%TO.C,R227*%
X117330000Y47600000D03*
X116310000Y47600000D03*
%TD*%
D32*
%TO.C,C26*%
X25980000Y40475000D03*
X25020000Y40475000D03*
%TD*%
D31*
%TO.C,R85*%
X47330000Y53200000D03*
X46310000Y53200000D03*
%TD*%
%TO.C,R243*%
X117330000Y40400000D03*
X116310000Y40400000D03*
%TD*%
D29*
%TO.C,R64*%
X30670000Y35600000D03*
X31690000Y35600000D03*
%TD*%
%TO.C,R178*%
X100670000Y41200000D03*
X101690000Y41200000D03*
%TD*%
D32*
%TO.C,C19*%
X28580000Y54900000D03*
X27620000Y54900000D03*
%TD*%
%TO.C,C27*%
X28580000Y40475000D03*
X27620000Y40475000D03*
%TD*%
D29*
%TO.C,R26*%
X30670000Y52400000D03*
X31690000Y52400000D03*
%TD*%
D30*
%TO.C,C39*%
X54020000Y51860000D03*
X54980000Y51860000D03*
%TD*%
D29*
%TO.C,R180*%
X102670000Y39600000D03*
X103690000Y39600000D03*
%TD*%
D32*
%TO.C,C18*%
X25980000Y54900000D03*
X25020000Y54900000D03*
%TD*%
D30*
%TO.C,C81*%
X121420000Y48235001D03*
X122380000Y48235001D03*
%TD*%
D29*
%TO.C,R74*%
X30670000Y30800000D03*
X31690000Y30800000D03*
%TD*%
D31*
%TO.C,R233*%
X119330000Y45975000D03*
X118310000Y45975000D03*
%TD*%
D32*
%TO.C,C23*%
X25980000Y47675000D03*
X25020000Y47675000D03*
%TD*%
D31*
%TO.C,R203*%
X117330000Y58000000D03*
X116310000Y58000000D03*
%TD*%
D32*
%TO.C,C71*%
X95980000Y36875000D03*
X95020000Y36875000D03*
%TD*%
D30*
%TO.C,C51*%
X51420000Y33835001D03*
X52380000Y33835001D03*
%TD*%
D32*
%TO.C,C31*%
X25980000Y33275000D03*
X25020000Y33275000D03*
%TD*%
D31*
%TO.C,R81*%
X49340000Y56400000D03*
X48320000Y56400000D03*
%TD*%
D29*
%TO.C,R172*%
X102670000Y42800000D03*
X103690000Y42800000D03*
%TD*%
D30*
%TO.C,C79*%
X124020000Y51860000D03*
X124980000Y51860000D03*
%TD*%
D29*
%TO.C,R30*%
X32670000Y48400000D03*
X33690000Y48400000D03*
%TD*%
%TO.C,R62*%
X32670000Y34000000D03*
X33690000Y34000000D03*
%TD*%
%TO.C,R200*%
X100670000Y32400000D03*
X101690000Y32400000D03*
%TD*%
D32*
%TO.C,C59*%
X98580000Y54900000D03*
X97620000Y54900000D03*
%TD*%
D29*
%TO.C,R150*%
X102670000Y52400000D03*
X103690000Y52400000D03*
%TD*%
D32*
%TO.C,C34*%
X28580000Y36875000D03*
X27620000Y36875000D03*
%TD*%
D29*
%TO.C,R70*%
X32670000Y30800000D03*
X33690000Y30800000D03*
%TD*%
%TO.C,R44*%
X32670000Y42800000D03*
X33690000Y42800000D03*
%TD*%
%TO.C,R32*%
X30670000Y50000000D03*
X31690000Y50000000D03*
%TD*%
%TO.C,R202*%
X100670000Y30800000D03*
X101690000Y30800000D03*
%TD*%
D32*
%TO.C,C63*%
X95980000Y47675000D03*
X95020000Y47675000D03*
%TD*%
D30*
%TO.C,C94*%
X124020000Y30235001D03*
X124980000Y30235001D03*
%TD*%
D31*
%TO.C,R265*%
X119330000Y31575000D03*
X118310000Y31575000D03*
%TD*%
D32*
%TO.C,C67*%
X98580000Y44075000D03*
X97620000Y44075000D03*
%TD*%
D31*
%TO.C,R235*%
X117330000Y43600000D03*
X116310000Y43600000D03*
%TD*%
D32*
%TO.C,C68*%
X95980000Y40475000D03*
X95020000Y40475000D03*
%TD*%
D30*
%TO.C,C89*%
X124020000Y37435001D03*
X124980000Y37435001D03*
%TD*%
D29*
%TO.C,R66*%
X30670000Y34000000D03*
X31690000Y34000000D03*
%TD*%
D30*
%TO.C,C91*%
X121420000Y33835001D03*
X122380000Y33835001D03*
%TD*%
D29*
%TO.C,R166*%
X102670000Y45200000D03*
X103690000Y45200000D03*
%TD*%
D32*
%TO.C,C57*%
X98580000Y58500000D03*
X97620000Y58500000D03*
%TD*%
D30*
%TO.C,C86*%
X121420000Y41035001D03*
X122380000Y41035001D03*
%TD*%
D29*
%TO.C,R20*%
X32670000Y54000000D03*
X33690000Y54000000D03*
%TD*%
D30*
%TO.C,C41*%
X51420000Y48235000D03*
X52380000Y48235000D03*
%TD*%
D31*
%TO.C,R127*%
X49330000Y36400000D03*
X48310000Y36400000D03*
%TD*%
D32*
%TO.C,C29*%
X28580000Y44075000D03*
X27620000Y44075000D03*
%TD*%
D31*
%TO.C,R125*%
X47330000Y34800000D03*
X46310000Y34800000D03*
%TD*%
D30*
%TO.C,C48*%
X51420000Y37435001D03*
X52380000Y37435001D03*
%TD*%
D29*
%TO.C,R158*%
X102670000Y48400000D03*
X103690000Y48400000D03*
%TD*%
D32*
%TO.C,C74*%
X98580000Y33275000D03*
X97620000Y33275000D03*
%TD*%
D29*
%TO.C,R58*%
X30670000Y38000000D03*
X31690000Y38000000D03*
%TD*%
%TO.C,R16*%
X30670000Y57200000D03*
X31690000Y57200000D03*
%TD*%
D31*
%TO.C,R75*%
X47330000Y58000000D03*
X46310000Y58000000D03*
%TD*%
%TO.C,R137*%
X49330000Y31600000D03*
X48310000Y31600000D03*
%TD*%
%TO.C,R87*%
X49330000Y54800000D03*
X48310000Y54800000D03*
%TD*%
D29*
%TO.C,R14*%
X32670000Y55600000D03*
X33690000Y55600000D03*
%TD*%
%TO.C,R42*%
X30670000Y45200000D03*
X31690000Y45200000D03*
%TD*%
%TO.C,R182*%
X102670000Y38000000D03*
X103690000Y38000000D03*
%TD*%
D31*
%TO.C,R253*%
X117330000Y34800000D03*
X116310000Y34800000D03*
%TD*%
D29*
%TO.C,R188*%
X102670000Y35600000D03*
X103690000Y35600000D03*
%TD*%
D31*
%TO.C,R207*%
X119330000Y57975000D03*
X118310000Y57975000D03*
%TD*%
%TO.C,R83*%
X47330000Y54800000D03*
X46310000Y54800000D03*
%TD*%
D32*
%TO.C,C64*%
X98580000Y47675000D03*
X97620000Y47675000D03*
%TD*%
D31*
%TO.C,R111*%
X49330000Y43600000D03*
X48310000Y43600000D03*
%TD*%
%TO.C,R229*%
X117330000Y46000000D03*
X116310000Y46000000D03*
%TD*%
D29*
%TO.C,R12*%
X32670000Y57200000D03*
X33690000Y57200000D03*
%TD*%
D32*
%TO.C,C28*%
X25980000Y44075000D03*
X25020000Y44075000D03*
%TD*%
D31*
%TO.C,R135*%
X49330000Y33200000D03*
X48310000Y33200000D03*
%TD*%
D30*
%TO.C,C42*%
X54020000Y48235000D03*
X54980000Y48235000D03*
%TD*%
%TO.C,C38*%
X51420000Y51860000D03*
X52380000Y51860000D03*
%TD*%
D29*
%TO.C,R164*%
X102670000Y46800000D03*
X103690000Y46800000D03*
%TD*%
%TO.C,R156*%
X102670000Y50000000D03*
X103690000Y50000000D03*
%TD*%
D31*
%TO.C,R77*%
X47330000Y56400000D03*
X46310000Y56400000D03*
%TD*%
D30*
%TO.C,C53*%
X51420000Y30235001D03*
X52380000Y30235001D03*
%TD*%
D29*
%TO.C,R148*%
X102670000Y54000000D03*
X103690000Y54000000D03*
%TD*%
D30*
%TO.C,C93*%
X121420000Y30235001D03*
X122380000Y30235001D03*
%TD*%
D32*
%TO.C,C21*%
X25980000Y51275000D03*
X25020000Y51275000D03*
%TD*%
D29*
%TO.C,R174*%
X102670000Y41200000D03*
X103690000Y41200000D03*
%TD*%
D31*
%TO.C,R131*%
X47330000Y33200000D03*
X46310000Y33200000D03*
%TD*%
D29*
%TO.C,R170*%
X100670000Y45200000D03*
X101690000Y45200000D03*
%TD*%
%TO.C,R40*%
X30670000Y46800000D03*
X31690000Y46800000D03*
%TD*%
D31*
%TO.C,R211*%
X117330000Y54800000D03*
X116310000Y54800000D03*
%TD*%
%TO.C,R209*%
X119340000Y56375000D03*
X118320000Y56375000D03*
%TD*%
D29*
%TO.C,R198*%
X102670000Y30800000D03*
X103690000Y30800000D03*
%TD*%
D31*
%TO.C,R261*%
X117330000Y31600000D03*
X116310000Y31600000D03*
%TD*%
D30*
%TO.C,C47*%
X54020000Y41035001D03*
X54980000Y41035001D03*
%TD*%
D29*
%TO.C,R146*%
X100670000Y55600000D03*
X101690000Y55600000D03*
%TD*%
D31*
%TO.C,R105*%
X49330000Y46000000D03*
X48310000Y46000000D03*
%TD*%
D29*
%TO.C,R54*%
X32670000Y38000000D03*
X33690000Y38000000D03*
%TD*%
%TO.C,R22*%
X32670000Y52400000D03*
X33690000Y52400000D03*
%TD*%
D31*
%TO.C,R217*%
X119330000Y53175000D03*
X118310000Y53175000D03*
%TD*%
D29*
%TO.C,R24*%
X30670000Y54000000D03*
X31690000Y54000000D03*
%TD*%
D31*
%TO.C,R95*%
X49330000Y50800000D03*
X48310000Y50800000D03*
%TD*%
D29*
%TO.C,R46*%
X32670000Y41200000D03*
X33690000Y41200000D03*
%TD*%
%TO.C,R154*%
X100670000Y52400000D03*
X101690000Y52400000D03*
%TD*%
D31*
%TO.C,R219*%
X117330000Y50800000D03*
X116310000Y50800000D03*
%TD*%
D29*
%TO.C,R192*%
X100670000Y35600000D03*
X101690000Y35600000D03*
%TD*%
D32*
%TO.C,C72*%
X98580000Y36875000D03*
X97620000Y36875000D03*
%TD*%
D29*
%TO.C,R140*%
X102670000Y57200000D03*
X103690000Y57200000D03*
%TD*%
%TO.C,R38*%
X32670000Y45200000D03*
X33690000Y45200000D03*
%TD*%
%TO.C,R52*%
X32670000Y39600000D03*
X33690000Y39600000D03*
%TD*%
%TO.C,R168*%
X100670000Y46800000D03*
X101690000Y46800000D03*
%TD*%
D30*
%TO.C,C78*%
X121420000Y51860000D03*
X122380000Y51860000D03*
%TD*%
D29*
%TO.C,R34*%
X30670000Y48400000D03*
X31690000Y48400000D03*
%TD*%
D32*
%TO.C,C33*%
X25980000Y36875000D03*
X25020000Y36875000D03*
%TD*%
D30*
%TO.C,C87*%
X124020000Y41035001D03*
X124980000Y41035001D03*
%TD*%
D32*
%TO.C,C66*%
X95980000Y44075000D03*
X95020000Y44075000D03*
%TD*%
D29*
%TO.C,R60*%
X32670000Y35600000D03*
X33690000Y35600000D03*
%TD*%
D31*
%TO.C,R119*%
X49330000Y40400000D03*
X48310000Y40400000D03*
%TD*%
D29*
%TO.C,R56*%
X30670000Y39600000D03*
X31690000Y39600000D03*
%TD*%
D31*
%TO.C,R123*%
X47330000Y36400000D03*
X46310000Y36400000D03*
%TD*%
D32*
%TO.C,C24*%
X28580000Y47675000D03*
X27620000Y47675000D03*
%TD*%
D31*
%TO.C,R101*%
X47330000Y46000000D03*
X46310000Y46000000D03*
%TD*%
%TO.C,R215*%
X119330000Y54775000D03*
X118310000Y54775000D03*
%TD*%
%TO.C,R245*%
X117330000Y38800000D03*
X116310000Y38800000D03*
%TD*%
%TO.C,R213*%
X117330000Y53200000D03*
X116310000Y53200000D03*
%TD*%
D29*
%TO.C,R176*%
X100670000Y42800000D03*
X101690000Y42800000D03*
%TD*%
%TO.C,R18*%
X30670000Y55600000D03*
X31690000Y55600000D03*
%TD*%
D30*
%TO.C,C77*%
X124020000Y55460000D03*
X124980000Y55460000D03*
%TD*%
D35*
%TO.C,J7*%
X94000000Y106250000D03*
X92000000Y106250000D03*
D36*
X96350000Y100500000D03*
X89650000Y100500000D03*
%TD*%
D30*
%TO.C,C76*%
X121420000Y55460000D03*
X122380000Y55460000D03*
%TD*%
D31*
%TO.C,R115*%
X47330000Y40400000D03*
X46310000Y40400000D03*
%TD*%
D29*
%TO.C,R196*%
X102670000Y32400000D03*
X103690000Y32400000D03*
%TD*%
D32*
%TO.C,C69*%
X98580000Y40475000D03*
X97620000Y40475000D03*
%TD*%
D31*
%TO.C,R263*%
X119330000Y33175000D03*
X118310000Y33175000D03*
%TD*%
D29*
%TO.C,R36*%
X32670000Y46800000D03*
X33690000Y46800000D03*
%TD*%
D31*
%TO.C,R231*%
X119330000Y47575000D03*
X118310000Y47575000D03*
%TD*%
%TO.C,R259*%
X117330000Y33200000D03*
X116310000Y33200000D03*
%TD*%
%LPD*%
M02*
