M48
; DRILL file {KiCad 9.0.3} date 2026-03-16T19:04:37-0400
; FORMAT={-:-/ absolute / inch / decimal}
; #@! TF.CreationDate,2026-03-16T19:04:37-04:00
; #@! TF.GenerationSoftware,Kicad,Pcbnew,9.0.3
; #@! TF.FileFunction,Plated,1,4,PTH
FMAT,2
INCH
; #@! TA.AperFunction,Plated,PTH,ViaDrill
T1C0.0098
; #@! TA.AperFunction,Plated,PTH,ViaDrill
T2C0.0118
; #@! TA.AperFunction,Plated,PTH,ViaDrill
T3C0.0197
; #@! TA.AperFunction,Plated,PTH,ComponentDrill
T4C0.0236
; #@! TA.AperFunction,Plated,PTH,ComponentDrill
T5C0.0362
; #@! TA.AperFunction,Plated,PTH,ComponentDrill
T6C0.0390
; #@! TA.AperFunction,Plated,PTH,ComponentDrill
T7C0.0394
; #@! TA.AperFunction,Plated,PTH,ComponentDrill
T8C0.0429
; #@! TA.AperFunction,Plated,PTH,ComponentDrill
T9C0.0512
; #@! TA.AperFunction,Plated,PTH,ComponentDrill
T10C0.0591
; #@! TA.AperFunction,Plated,PTH,ComponentDrill
T11C0.0709
; #@! TA.AperFunction,Plated,PTH,ComponentDrill
T12C0.0787
; #@! TA.AperFunction,Plated,PTH,ComponentDrill
T13C0.1260
%
G90
G05
T1
X0.4902Y3.5512
X0.4921Y3.5984
X0.5591Y3.4685
X0.5906Y3.5768
T2
X0.252Y2.4409
X0.2559Y1.4921
X0.311Y1.6732
X0.315Y2.5669
X0.3626Y2.887
X0.378Y1.4921
X0.3819Y2.4134
X0.4055Y3.9654
X0.4103Y1.3856
X0.4209Y2.7764
X0.4409Y3.9654
X0.4497Y2.2626
X0.4497Y2.2114
X0.4497Y1.9791
X0.4497Y1.928
X0.4497Y1.6957
X0.4497Y1.6445
X0.4497Y1.4122
X0.4497Y1.361
X0.465Y2.9028
X0.4744Y3.6516
X0.4783Y3.7461
X0.489Y2.2626
X0.489Y2.1858
X0.489Y1.9791
X0.489Y1.9024
X0.489Y1.6957
X0.489Y1.6189
X0.489Y1.4122
X0.489Y1.3354
X0.4894Y2.6854
X0.5107Y1.4506
X0.5127Y2.0195
X0.5127Y1.738
X0.513Y2.7882
X0.5213Y2.6094
X0.5284Y2.2626
X0.5284Y2.1652
X0.5284Y1.9791
X0.5284Y1.8817
X0.5284Y1.6957
X0.5284Y1.5982
X0.5304Y2.3719
X0.5363Y1.4122
X0.5374Y3.063
X0.5583Y1.2524
X0.5599Y2.303
X0.5658Y2.1455
X0.5825Y2.6102
X0.5965Y1.7555
X0.5969Y2.0429
X0.5972Y2.7937
X0.5984Y1.0039
X0.5988Y1.1917
X0.5989Y2.9247
X0.5992Y1.472
X0.6122Y2.4213
X0.6358Y3.4429
X0.6634Y3.987
X0.6634Y3.8846
X0.6803Y1.8909
X0.6803Y1.6075
X0.6803Y1.324
X0.6839Y2.36
X0.686Y2.1624
X0.689Y3.5512
X0.689Y2.5433
X0.6939Y2.2608
X0.7206Y1.6937
X0.7264Y2.7559
X0.728Y1.9772
X0.728Y1.4102
X0.7323Y2.9961
X0.7372Y2.06
X0.7372Y1.7756
X0.7372Y1.4921
X0.7372Y1.2087
X0.75Y2.8681
X0.75Y1.1161
X0.7638Y0.815
X0.7953Y3.7264
X0.7972Y3.8748
X0.7992Y3.8374
X0.8071Y2.1496
X0.8071Y1.8652
X0.8071Y1.5817
X0.8071Y1.2982
X0.8081Y2.2608
X0.8081Y1.9764
X0.8081Y1.6929
X0.8081Y1.4094
X0.815Y2.4567
X0.8307Y3.0571
X0.8346Y1.0197
X0.8366Y3.7992
X0.8388Y2.0459
X0.8388Y1.7614
X0.8388Y1.478
X0.8388Y1.1945
X0.874Y2.4815
X0.9016Y0.8819
X0.9032Y2.2382
X0.9032Y1.9537
X0.9032Y1.6703
X0.9032Y1.3868
X0.9034Y2.1871
X0.9034Y1.9027
X0.9034Y1.3358
X0.9035Y1.624
X0.9114Y1.8701
X0.9134Y2.1535
X0.9134Y1.5896
X0.9134Y1.3031
X0.9173Y2.1102
X0.9173Y1.8258
X0.9173Y1.5423
X0.9173Y1.2589
X0.9252Y2.998
X0.9291Y2.2126
X0.9291Y1.9281
X0.9291Y1.6447
X0.9291Y1.3612
X0.9449Y4.0
X0.9449Y2.8701
X0.9528Y2.1851
X0.9528Y1.9007
X0.9528Y1.6172
X0.9528Y1.3337
X0.9567Y2.2992
X0.9567Y2.0148
X0.9567Y1.7313
X0.9567Y1.4478
X0.9685Y2.2677
X0.9685Y1.9833
X0.9685Y1.6998
X0.9685Y1.4163
X0.9685Y1.126
X0.9722Y2.1189
X0.9722Y1.8344
X0.9722Y1.5509
X0.9722Y1.2675
X0.9961Y2.9587
X0.9993Y2.2117
X0.9993Y1.9273
X0.9993Y1.6438
X0.9993Y1.3603
X1.0079Y3.6358
X1.0107Y2.1406
X1.0107Y1.8561
X1.0107Y1.5727
X1.0107Y1.2892
X1.0119Y2.2791
X1.0119Y1.9947
X1.0119Y1.7112
X1.0119Y1.4277
X1.0276Y3.9606
X1.0354Y3.6831
X1.0354Y2.0787
X1.0354Y1.7953
X1.0413Y1.5098
X1.0413Y1.2264
X1.0528Y1.4705
X1.0531Y1.7496
X1.0551Y2.037
X1.0555Y1.1823
X1.063Y2.252
X1.063Y1.9675
X1.063Y1.6841
X1.063Y1.4006
X1.065Y2.8799
X1.0669Y3.9547
X1.0669Y2.1102
X1.0669Y2.0787
X1.0669Y1.8258
X1.0669Y1.7943
X1.0728Y1.5106
X1.0728Y1.2271
X1.0731Y1.546
X1.0731Y1.2626
X1.0748Y3.8996
X1.0748Y2.1969
X1.0748Y1.9124
X1.0748Y1.6289
X1.0748Y1.3455
X1.0846Y2.8031
X1.0866Y2.3346
X1.111Y2.1347
X1.111Y1.8503
X1.111Y1.5668
X1.111Y1.2834
X1.1142Y2.2795
X1.1142Y1.9951
X1.1142Y1.7116
X1.1142Y1.4281
X1.122Y2.2008
X1.122Y2.0591
X1.122Y1.9163
X1.122Y1.7746
X1.122Y1.6329
X1.122Y1.4911
X1.122Y1.3494
X1.122Y1.2077
X1.1535Y2.0709
X1.1535Y1.7864
X1.1535Y1.503
X1.1535Y1.2195
X1.1555Y2.1929
X1.1555Y1.9085
X1.1555Y1.625
X1.1555Y1.3415
X1.1575Y2.2756
X1.1575Y2.1457
X1.1575Y1.9911
X1.1575Y1.8612
X1.1575Y1.7077
X1.1575Y1.5778
X1.1575Y1.4242
X1.1575Y1.2943
X1.1594Y3.311
X1.1831Y3.7402
X1.185Y1.1181
X1.1969Y3.185
X1.2047Y0.9488
X1.2104Y2.9169
X1.2165Y3.5906
X1.2167Y3.8122
X1.2185Y3.1555
X1.2244Y2.4016
X1.2283Y3.4567
X1.2429Y3.2746
X1.2598Y2.8406
X1.3118Y1.1543
X1.3248Y3.0728
X1.3327Y2.7106
X1.3535Y2.2677
X1.3535Y2.2047
X1.3535Y2.1417
X1.3535Y2.0787
X1.3535Y1.9833
X1.3535Y1.9203
X1.3535Y1.8573
X1.3535Y1.7943
X1.3535Y1.6998
X1.3535Y1.6368
X1.3535Y1.5738
X1.3535Y1.5108
X1.3535Y1.4163
X1.3535Y1.3533
X1.3535Y1.2904
X1.3535Y1.2274
X1.3602Y3.0453
X1.372Y3.1063
X1.3839Y3.4449
X1.3858Y1.0157
X1.3913Y1.7429
X1.3917Y3.1457
X1.3937Y3.5984
X1.3937Y3.0256
X1.3972Y2.0248
X1.3976Y2.252
X1.3976Y2.189
X1.3976Y2.126
X1.3976Y2.063
X1.3976Y1.9675
X1.3976Y1.9045
X1.3976Y1.8415
X1.3976Y1.7785
X1.3976Y1.6841
X1.3976Y1.6211
X1.3976Y1.5581
X1.3976Y1.4951
X1.3976Y1.4006
X1.3976Y1.3376
X1.3976Y1.2746
X1.3976Y1.2116
X1.398Y1.4567
X1.3984Y2.3291
X1.4004Y1.176
X1.4055Y1.1161
X1.4114Y3.3622
X1.4213Y3.0039
X1.4705Y3.0906
X1.4783Y3.2205
X1.4803Y1.0807
X1.4902Y2.8957
X1.4961Y3.1772
X1.4961Y3.1142
X1.5335Y3.0236
X1.5335Y2.7933
X1.5469Y3.3362
X1.5551Y2.2539
X1.5591Y1.7441
X1.563Y3.0436
X1.563Y1.2894
X1.5689Y3.4449
X1.5728Y3.2323
X1.5807Y2.8612
X1.5965Y3.0315
X1.6043Y3.4449
X1.6083Y3.2323
X1.6161Y2.8622
X1.6398Y3.0551
X1.6555Y3.1575
X1.6555Y3.122
X1.6634Y3.315
X1.6654Y3.1929
X1.6673Y3.2323
X1.6713Y3.0906
X1.6732Y3.0512
X1.6955Y3.2604
X1.6988Y3.002
X1.7146Y2.9665
X1.7165Y3.4291
X1.7213Y3.2858
X1.7441Y2.0335
X1.7441Y1.4685
X1.7441Y1.1811
X1.7447Y1.936
X1.7455Y1.6526
X1.7455Y1.3691
X1.7484Y2.0937
X1.749Y2.2825
X1.749Y2.2195
X1.749Y2.1567
X1.749Y1.999
X1.749Y1.81
X1.7491Y3.1885
X1.7498Y1.7156
X1.7498Y1.5266
X1.7498Y1.4321
X1.7498Y1.2431
X1.75Y1.8732
X1.7508Y1.5898
X1.7508Y1.3063
X1.752Y2.8622
X1.752Y2.3307
X1.752Y1.748
X1.7539Y2.9016
X1.7579Y2.9705
X1.7599Y3.0738
X1.7638Y3.4291
X1.7931Y2.2628
X1.7931Y2.1998
X1.7931Y2.1368
X1.7931Y2.0738
X1.7931Y1.9793
X1.7931Y1.9163
X1.7931Y1.8533
X1.7931Y1.7904
X1.7931Y1.6959
X1.7931Y1.6329
X1.7931Y1.5699
X1.7931Y1.5069
X1.7931Y1.4124
X1.7931Y1.3494
X1.7931Y1.2864
X1.7931Y1.2234
X1.8209Y3.2677
X1.8209Y3.2323
X1.8287Y3.4016
X1.8563Y3.252
X1.8642Y3.0807
X1.8642Y1.0728
X1.8701Y3.0118
X1.8772Y3.1927
X1.8787Y1.748
X1.8819Y2.4291
X1.8827Y1.4646
X1.8835Y2.0315
X1.8839Y3.1181
X1.9043Y3.3843
X1.9114Y3.1339
X1.9193Y3.1654
X1.9429Y3.1909
X1.9567Y3.1516
X1.9744Y2.1638
X1.9744Y1.8793
X1.9744Y1.5959
X1.9744Y1.3124
X1.9768Y2.1016
X1.9768Y1.8171
X1.9768Y1.5337
X1.9768Y1.2502
X1.9783Y3.1929
X1.9945Y2.2209
X1.9945Y1.9364
X1.9945Y1.653
X1.9945Y1.3695
X1.9961Y3.1457
X2.0039Y3.5197
X2.004Y1.9796
X2.004Y1.6961
X2.004Y1.4127
X2.004Y2.2641
X2.0161Y2.1421
X2.0161Y1.8577
X2.0161Y1.5742
X2.0161Y1.2907
X2.0362Y2.0088
X2.0362Y1.7253
X2.0362Y1.4419
X2.0362Y2.2932
X2.0392Y2.069
X2.0392Y1.7845
X2.0392Y1.5011
X2.0392Y1.2176
X2.0417Y2.2079
X2.0417Y1.9234
X2.0417Y1.64
X2.0417Y1.3565
X2.0512Y3.3661
X2.0543Y2.1449
X2.0543Y1.8604
X2.0543Y1.577
X2.0543Y1.2935
X2.0722Y2.0785
X2.0722Y1.7941
X2.0722Y1.5106
X2.0722Y1.2272
X2.0827Y2.8622
X2.0839Y2.2283
X2.0839Y1.9439
X2.0839Y1.6604
X2.0839Y1.377
X2.0866Y1.9961
X2.0866Y1.7146
X2.0866Y1.4311
X2.0906Y2.2835
X2.0921Y2.1839
X2.0921Y1.8994
X2.0921Y1.6159
X2.0921Y1.3325
X2.1Y2.1185
X2.1Y1.8341
X2.1Y1.5506
X2.1Y1.2671
X2.1042Y2.2534
X2.1042Y1.969
X2.1042Y1.6855
X2.1042Y1.402
X2.1142Y2.072
X2.1142Y1.7876
X2.1142Y1.5041
X2.1142Y1.2207
X2.1457Y0.9409
X2.147Y2.0706
X2.147Y1.7862
X2.147Y1.5027
X2.147Y1.2192
X2.1474Y2.2121
X2.1474Y1.9276
X2.1474Y1.6441
X2.1474Y1.3607
X2.1486Y2.3181
X2.1614Y0.8189
X2.1763Y1.0639
X2.183Y3.5079
X2.1915Y2.2278
X2.1915Y1.9433
X2.1915Y1.6598
X2.1915Y1.3764
X2.1933Y2.085
X2.1933Y1.8006
X2.1933Y1.5171
X2.1933Y1.2337
X2.1945Y2.1614
X2.1945Y1.877
X2.1945Y1.5935
X2.1945Y1.31
X2.1946Y2.0418
X2.1946Y1.7583
X2.1946Y1.4749
X2.1969Y2.3799
X2.2043Y2.0112
X2.2043Y1.7278
X2.2043Y1.4443
X2.2044Y2.2957
X2.228Y2.1134
X2.228Y1.8289
X2.228Y1.5455
X2.228Y1.262
X2.237Y2.2984
X2.237Y2.014
X2.237Y1.7305
X2.237Y1.447
X2.2488Y3.3906
X2.2685Y2.4815
X2.2724Y3.5142
X2.2874Y2.9016
X2.3071Y2.9311
X2.339Y2.1618
X2.339Y1.8774
X2.339Y1.5939
X2.339Y1.3104
X2.3406Y1.5181
X2.3429Y1.2346
X2.3445Y2.085
X2.3445Y1.8012
X2.3457Y2.2165
X2.3457Y1.9321
X2.3457Y1.6486
X2.3457Y1.3652
X2.3484Y3.3563
X2.3661Y0.8819
X2.374Y3.5315
X2.3996Y2.8268
X2.4038Y3.8356
X2.4343Y1.7441
X2.4374Y2.3114
X2.439Y2.0311
X2.4413Y1.4591
X2.4433Y1.1307
X2.461Y2.1878
X2.465Y1.9024
X2.4669Y1.3354
X2.4689Y1.6209
X2.4724Y4.0354
X2.5472Y2.312
X2.5472Y2.0285
X2.5472Y1.7451
X2.5472Y1.4616
X2.563Y3.748
X2.5822Y2.2087
X2.5945Y3.6024
X2.6103Y3.7999
X2.6196Y1.313
X2.6215Y2.1604
X2.6215Y2.0709
X2.6215Y1.877
X2.6215Y1.7992
X2.6215Y1.5935
X2.6215Y1.5157
X2.6299Y2.378
X2.6331Y3.8346
X2.6343Y3.7425
X2.6457Y3.9646
X2.6496Y3.6535
X2.6609Y2.1348
X2.6609Y2.0827
X2.6609Y1.8514
X2.6609Y1.7992
X2.6609Y1.5679
X2.6609Y1.5157
X2.6609Y1.2913
X2.6845Y1.6693
X2.6845Y1.3898
X2.689Y3.6535
X2.6898Y2.0043
X2.7008Y1.1457
X2.7024Y2.0724
X2.7106Y2.2067
X2.7425Y2.0815
X2.7436Y1.2638
X2.7441Y3.7835
X2.7953Y1.9783
X2.8484Y2.0118
X2.8583Y3.4075
X2.8583Y2.9941
X2.8583Y2.9173
X2.8602Y3.9165
X2.872Y3.3169
X2.9409Y4.1535
X2.9449Y3.2638
X2.9469Y4.4193
X2.9469Y4.3307
X2.9531Y3.8331
X3.0669Y3.9685
X3.0866Y2.1476
X3.126Y3.9291
X3.1378Y2.0276
X3.1702Y2.1791
X3.1702Y1.2333
X3.1732Y3.6516
X3.1772Y3.9291
X3.1785Y3.9808
X3.1909Y3.3445
X3.1949Y2.3976
X3.2057Y2.2126
X3.2057Y1.9803
X3.2057Y1.9291
X3.2057Y1.6968
X3.2057Y1.6457
X3.2057Y1.4134
X3.2057Y1.3622
X3.2244Y3.7244
X3.2283Y3.8465
X3.2402Y3.2795
X3.245Y2.187
X3.245Y1.9803
X3.245Y1.9035
X3.245Y1.6968
X3.245Y1.6201
X3.245Y1.4134
X3.245Y1.3366
X3.2687Y2.0148
X3.2706Y1.7352
X3.2726Y1.4537
X3.2795Y3.9213
X3.2795Y3.8819
X3.2844Y2.2638
X3.2844Y2.1663
X3.2844Y1.9803
X3.2844Y1.8829
X3.2844Y1.6968
X3.2844Y1.5994
X3.2844Y1.4134
X3.3198Y1.5325
X3.3218Y2.0758
X3.3218Y1.2628
X3.3238Y1.8238
X3.3248Y2.1358
X3.3504Y4.1654
X3.3524Y1.7555
X3.3528Y2.0429
X3.3547Y1.1917
X3.3551Y1.4721
X3.4193Y3.6575
X3.4213Y1.0748
X3.4362Y1.891
X3.4362Y1.6075
X3.4362Y1.324
X3.438Y1.938
X3.438Y1.6545
X3.438Y1.3691
X3.4398Y2.3601
X3.4419Y2.1624
X3.4498Y2.2608
X3.4765Y1.6937
X3.4839Y1.9772
X3.4839Y1.4102
X3.4931Y2.0601
X3.4931Y1.7756
X3.4931Y1.4921
X3.4931Y1.2087
X3.563Y2.1496
X3.563Y1.8652
X3.563Y1.5817
X3.563Y1.2982
X3.564Y2.2608
X3.564Y1.9764
X3.564Y1.6929
X3.564Y1.4095
X3.5947Y2.0459
X3.5947Y1.7614
X3.5947Y1.478
X3.5947Y1.1945
X3.622Y3.2756
X3.6307Y2.4815
X3.6591Y2.2382
X3.6591Y1.9538
X3.6591Y1.6703
X3.6591Y1.3868
X3.6593Y2.1872
X3.6593Y1.9027
X3.6593Y1.6192
X3.6593Y1.3358
X3.6693Y2.1535
X3.6693Y1.8701
X3.6693Y0.9528
X3.6713Y1.5866
X3.6732Y2.1102
X3.6732Y1.8258
X3.6732Y1.5423
X3.6732Y1.2589
X3.6732Y1.3031
X3.6791Y3.3346
X3.685Y2.2126
X3.685Y1.9282
X3.685Y1.6447
X3.685Y1.3612
X3.7087Y2.1851
X3.7087Y1.9007
X3.7087Y1.6172
X3.7087Y1.3338
X3.7126Y2.2992
X3.7126Y2.0148
X3.7126Y1.7313
X3.7126Y1.4478
X3.7244Y2.2677
X3.7244Y1.9833
X3.7244Y1.6998
X3.7244Y1.4164
X3.7281Y2.1189
X3.7281Y1.8344
X3.7281Y1.551
X3.7281Y1.2675
X3.7343Y3.6516
X3.7382Y3.7205
X3.748Y1.0965
X3.7552Y2.2117
X3.7552Y1.9273
X3.7552Y1.6438
X3.7552Y1.3604
X3.7667Y2.1406
X3.7667Y1.8561
X3.7667Y1.5727
X3.7667Y1.2892
X3.7678Y2.2791
X3.7678Y1.9947
X3.7678Y1.7112
X3.7678Y1.4277
X3.7913Y2.0817
X3.7913Y1.7973
X3.7913Y1.5138
X3.7953Y1.2264
X3.8071Y0.8386
X3.8087Y1.4705
X3.8102Y1.7551
X3.811Y2.037
X3.8114Y1.1823
X3.8189Y2.252
X3.8189Y1.9675
X3.8189Y1.6841
X3.8189Y1.4006
X3.8228Y2.1102
X3.8228Y2.0788
X3.8228Y1.8258
X3.8228Y1.7943
X3.8228Y1.5423
X3.8228Y1.5108
X3.8285Y1.2267
X3.8307Y2.1969
X3.8307Y1.9124
X3.8307Y1.6289
X3.8307Y1.3455
X3.8307Y1.2629
X3.8425Y2.3347
X3.8669Y2.1347
X3.8669Y1.8503
X3.8669Y1.5668
X3.8669Y1.2834
X3.8701Y2.2795
X3.8701Y1.9951
X3.8701Y1.7116
X3.8701Y1.4282
X3.878Y2.2008
X3.878Y2.0591
X3.878Y1.9164
X3.878Y1.7746
X3.878Y1.6329
X3.878Y1.4912
X3.878Y1.3494
X3.878Y1.2077
X3.8976Y4.2717
X3.9016Y4.128
X3.9094Y2.0709
X3.9094Y1.7864
X3.9094Y1.503
X3.9094Y1.2195
X3.9114Y2.1929
X3.9114Y1.9085
X3.9114Y1.625
X3.9114Y1.3415
X3.9134Y2.2756
X3.9134Y2.1457
X3.9134Y1.9912
X3.9134Y1.8612
X3.9134Y1.7077
X3.9134Y1.5778
X3.9134Y1.4242
X3.9134Y1.2943
X3.9409Y3.8917
X3.9469Y4.2677
X3.9587Y4.0669
X3.9724Y0.8976
X4.0Y3.998
X4.0354Y1.0906
X4.0551Y4.2657
X4.061Y4.0906
X4.0925Y3.998
X4.0965Y4.0846
X4.1094Y2.2677
X4.1094Y2.2047
X4.1094Y2.1417
X4.1094Y2.0788
X4.1094Y1.9833
X4.1094Y1.9203
X4.1094Y1.8573
X4.1094Y1.7943
X4.1094Y1.6998
X4.1094Y1.6368
X4.1094Y1.5738
X4.1094Y1.5108
X4.1094Y1.4164
X4.1094Y1.3534
X4.1094Y1.2904
X4.1094Y1.2274
X4.122Y4.1949
X4.128Y3.9803
X4.1516Y4.0059
X4.1516Y3.7224
X4.1531Y2.0248
X4.1535Y2.252
X4.1535Y2.189
X4.1535Y2.126
X4.1535Y2.063
X4.1535Y1.9675
X4.1535Y1.9045
X4.1535Y1.8415
X4.1535Y1.7786
X4.1535Y1.6841
X4.1535Y1.6211
X4.1535Y1.5581
X4.1535Y1.4951
X4.1535Y1.4006
X4.1535Y1.3376
X4.1535Y1.2746
X4.1535Y1.2116
X4.1539Y1.4567
X4.1543Y2.3291
X4.1543Y1.7414
X4.1563Y1.176
X4.1713Y3.9803
X4.1909Y4.0059
X4.2165Y4.0886
X4.2224Y3.9488
X4.2303Y3.6673
X4.2618Y4.1673
X4.2638Y4.2579
X4.2677Y4.2067
X4.2697Y3.9764
X4.3002Y3.9882
X4.311Y2.2539
X4.315Y1.7441
X4.3189Y1.2894
X4.3386Y3.7323
X4.3465Y4.1437
X4.3524Y3.8937
X4.3602Y4.0984
X4.372Y4.2362
X4.3819Y4.0669
X4.3858Y4.0276
X4.4134Y3.5768
X4.4528Y0.8386
X4.5Y2.0335
X4.5Y1.1811
X4.5006Y1.936
X4.5014Y1.6526
X4.5014Y1.3691
X4.5039Y1.748
X4.5043Y2.0937
X4.5049Y2.2825
X4.5049Y2.2195
X4.5049Y2.1567
X4.5049Y1.999
X4.5049Y1.8101
X4.5057Y1.7156
X4.5057Y1.5266
X4.5057Y1.4321
X4.5057Y1.2431
X4.5059Y1.8732
X4.5067Y1.5898
X4.5067Y1.3063
X4.5079Y2.3307
X4.5079Y1.4665
X4.5197Y0.9488
X4.549Y2.2628
X4.549Y2.1998
X4.549Y2.1368
X4.549Y2.0738
X4.549Y1.9793
X4.549Y1.9164
X4.549Y1.8534
X4.549Y1.7904
X4.549Y1.6959
X4.549Y1.6329
X4.549Y1.5699
X4.549Y1.5069
X4.549Y1.4124
X4.549Y1.3494
X4.549Y1.2864
X4.549Y1.2234
X4.5866Y3.3996
X4.6346Y1.748
X4.6386Y1.4646
X4.6394Y2.0315
X4.6425Y3.4802
X4.674Y3.3916
X4.6811Y3.5571
X4.7047Y1.0827
X4.7303Y2.1638
X4.7303Y1.8793
X4.7303Y1.5959
X4.7303Y1.3124
X4.7327Y2.1016
X4.7327Y1.8171
X4.7327Y1.5337
X4.7327Y1.2502
X4.735Y3.3562
X4.7402Y3.4035
X4.7488Y3.6239
X4.7504Y2.2209
X4.7504Y1.9364
X4.7504Y1.653
X4.7504Y1.3695
X4.7559Y3.9311
X4.7599Y1.9796
X4.7599Y1.6962
X4.7599Y1.4127
X4.7599Y2.2641
X4.772Y2.1421
X4.772Y1.8577
X4.772Y1.5742
X4.772Y1.2908
X4.7803Y3.4743
X4.7921Y2.0088
X4.7921Y1.7253
X4.7921Y1.4419
X4.7921Y2.2932
X4.7951Y2.069
X4.7951Y1.7845
X4.7951Y1.5011
X4.7951Y1.2176
X4.7976Y2.2079
X4.7976Y1.9234
X4.7976Y1.64
X4.7976Y1.3565
X4.8102Y2.1449
X4.8102Y1.8604
X4.8102Y1.577
X4.8102Y1.2935
X4.8281Y2.0785
X4.8281Y1.7941
X4.8281Y1.5106
X4.8281Y1.2272
X4.8366Y1.7085
X4.8366Y1.425
X4.8386Y1.9921
X4.8398Y2.2284
X4.8398Y1.9439
X4.8398Y1.6604
X4.8398Y1.377
X4.8425Y2.2815
X4.848Y2.1839
X4.848Y1.8994
X4.848Y1.616
X4.848Y1.3325
X4.8504Y4.2677
X4.8559Y2.1185
X4.8559Y1.8341
X4.8559Y1.5506
X4.8559Y1.2671
X4.8601Y2.2534
X4.8601Y1.969
X4.8601Y1.6855
X4.8601Y1.4021
X4.861Y3.6691
X4.8701Y2.0721
X4.8701Y1.7876
X4.8701Y1.5041
X4.8701Y1.2207
X4.9029Y2.0706
X4.9029Y1.7862
X4.9029Y1.5027
X4.9029Y1.2192
X4.9033Y2.2121
X4.9033Y1.9276
X4.9033Y1.6442
X4.9033Y1.3607
X4.9045Y2.3181
X4.9474Y2.2278
X4.9474Y1.9433
X4.9474Y1.6599
X4.9474Y1.3764
X4.9492Y2.0851
X4.9492Y1.8006
X4.9492Y1.5171
X4.9492Y1.2337
X4.9504Y2.1614
X4.9504Y1.877
X4.9504Y1.5935
X4.9504Y1.3101
X4.9505Y2.0418
X4.9505Y1.7584
X4.9505Y1.4749
X4.9528Y2.3799
X4.9602Y2.0112
X4.9602Y1.7278
X4.9602Y1.4443
X4.9603Y2.2957
X4.9839Y2.1134
X4.9839Y1.8289
X4.9839Y1.5455
X4.9839Y1.262
X4.9921Y3.9606
X4.9929Y2.2984
X4.9929Y2.014
X4.9929Y1.7305
X4.9929Y1.4471
X5.024Y2.4488
X5.0917Y1.8016
X5.0945Y0.8937
X5.0949Y2.1618
X5.0949Y1.8774
X5.0949Y1.5939
X5.0949Y1.3104
X5.0996Y1.0803
X5.1004Y2.0843
X5.1012Y1.2343
X5.1016Y2.2165
X5.1016Y1.9321
X5.1016Y1.6486
X5.1016Y1.3652
X5.1043Y1.5177
X5.1886Y2.0205
X5.1925Y1.7429
X5.1929Y2.3169
X5.1969Y1.4614
X5.2205Y2.1843
X5.2205Y1.8992
X5.2217Y1.3366
X5.2244Y1.6201
X5.3031Y2.312
X5.3031Y2.0286
X5.3031Y1.7451
X5.3031Y1.4616
X5.3381Y2.2136
X5.3775Y2.1614
X5.3775Y2.0837
X5.3775Y1.878
X5.3775Y1.8002
X5.3775Y1.5945
X5.3775Y1.5167
X5.3775Y1.3159
X5.4166Y1.2921
X5.4168Y2.1358
X5.4168Y2.0837
X5.4168Y1.8524
X5.4168Y1.8002
X5.4168Y1.5689
X5.4168Y1.5167
X5.4562Y1.2608
T3
X0.0984Y4.0295
X0.126Y3.3858
X0.1339Y1.3701
X0.1378Y2.8504
X0.1417Y2.1299
X0.2087Y0.8701
X0.3996Y3.5453
X0.4882Y3.1299
X0.5413Y4.4724
X0.5689Y4.0039
X0.6713Y3.7185
X0.7087Y0.1969
X0.7638Y3.252
X0.8031Y2.6575
X0.8622Y3.685
X0.937Y3.1713
X0.9567Y3.5394
X0.9567Y3.2953
X1.0256Y2.6437
X1.0945Y3.4803
X1.1063Y3.7717
X1.1594Y2.5945
X1.185Y4.1378
X1.3346Y4.4213
X1.4193Y3.8976
X1.4409Y0.5531
X1.5433Y3.5827
X1.563Y2.6358
X1.7441Y4.4606
X1.8248Y3.8799
X1.8327Y3.6319
X1.8484Y4.2323
X1.9075Y2.6496
X2.0138Y3.8346
X2.2087Y4.277
X2.2146Y3.7864
X2.2323Y4.0807
X2.2441Y0.2087
X2.2838Y3.8967
X2.3789Y4.1821
X2.3917Y2.6594
X2.4409Y3.0118
X2.4843Y4.1801
X2.5315Y3.9075
X2.5433Y4.5906
X2.5579Y3.9858
X2.5657Y3.7937
X2.5709Y4.3071
X2.5807Y3.3386
X2.6142Y4.0748
X2.689Y3.4252
X2.6976Y4.2051
X2.7717Y4.315
X2.7795Y3.5689
X2.8071Y0.5984
X2.8283Y4.0854
X2.8937Y2.6654
X2.9331Y2.3189
X2.937Y1.1024
X2.9528Y1.6339
X2.9902Y4.2382
X3.0039Y2.9626
X3.1634Y3.1752
X3.1949Y3.4469
X3.248Y4.1378
X3.252Y4.2795
X3.3051Y2.6713
X3.4154Y3.4587
X3.4213Y4.185
X3.5197Y3.8366
X3.5374Y3.1752
X3.5433Y4.5945
X3.5591Y2.8976
X3.6102Y4.0118
X3.6654Y4.3031
X3.687Y4.0728
X3.7657Y3.8425
X3.7776Y3.4567
X3.7874Y4.0669
X3.9114Y2.687
X3.9154Y3.1909
X3.9409Y0.1969
X3.9902Y3.6457
X4.0079Y0.7165
X4.2087Y3.437
X4.2992Y3.2244
X4.4108Y3.6917
X4.4173Y3.1772
X4.4665Y3.8898
X4.4882Y2.7087
X4.5098Y4.0335
X4.5492Y4.248
X4.6752Y3.6614
X4.6811Y4.6378
X4.6811Y3.1024
X4.8366Y3.7362
X4.8701Y2.7087
X4.8996Y3.5059
X4.9075Y3.2874
X4.9921Y4.3701
X5.4016Y0.1417
X5.4626Y4.0098
X5.7283Y0.6693
X5.7559Y4.2835
X5.7559Y3.3268
X5.7598Y3.9626
X5.7697Y2.7677
X5.7717Y2.2579
X5.7992Y1.6024
T5
X0.9843Y4.2362
T6
X1.9488Y4.6063
X2.126Y4.6063
T7
X5.0197Y3.6831
X5.0197Y3.5846
X5.0197Y3.4862
X5.5906Y3.6831
X5.5906Y3.4862
T8
X5.1362Y4.4126
X5.1362Y4.2126
X5.2362Y4.2126
X5.3362Y4.4126
X5.3362Y4.2126
T9
X1.8996Y4.5083
X2.1756Y4.5083
T10
X3.5591Y4.3583
X3.7638Y4.3583
T11
X0.8346Y4.5433
X1.1339Y4.5433
T13
X0.1575Y4.5669
X0.1575Y0.1575
X0.5906Y0.5906
X5.315Y2.9528
X5.315Y0.5906
X5.748Y4.5669
X5.748Y0.1575
T4
G00X2.7827Y4.6443
M15
G01X2.7827Y4.6758
M16
G05
G00X2.7827Y4.4738
M15
G01X2.7827Y4.5171
M16
G05
G00X3.1228Y4.6443
M15
G01X3.1228Y4.6758
M16
G05
G00X3.1228Y4.4738
M15
G01X3.1228Y4.5171
M16
G05
T12
G00X5.2933Y3.8051
M15
G01X5.3366Y3.8051
M16
G05
G00X5.2933Y3.3642
M15
G01X5.3366Y3.3642
M16
G05
M30
