%TF.GenerationSoftware,KiCad,Pcbnew,9.0.0-rc1*%
%TF.CreationDate,2025-02-06T15:05:50-05:00*%
%TF.ProjectId,ephys-test-board,65706879-732d-4746-9573-742d626f6172,B*%
%TF.SameCoordinates,Original*%
%TF.FileFunction,Paste,Top*%
%TF.FilePolarity,Positive*%
%FSLAX46Y46*%
G04 Gerber Fmt 4.6, Leading zero omitted, Abs format (unit mm)*
G04 Created by KiCad (PCBNEW 9.0.0-rc1) date 2025-02-06 15:05:50*
%MOMM*%
%LPD*%
G01*
G04 APERTURE LIST*
G04 Aperture macros list*
%AMRoundRect*
0 Rectangle with rounded corners*
0 $1 Rounding radius*
0 $2 $3 $4 $5 $6 $7 $8 $9 X,Y pos of 4 corners*
0 Add a 4 corners polygon primitive as box body*
4,1,4,$2,$3,$4,$5,$6,$7,$8,$9,$2,$3,0*
0 Add four circle primitives for the rounded corners*
1,1,$1+$1,$2,$3*
1,1,$1+$1,$4,$5*
1,1,$1+$1,$6,$7*
1,1,$1+$1,$8,$9*
0 Add four rect primitives between the rounded corners*
20,1,$1+$1,$2,$3,$4,$5,0*
20,1,$1+$1,$4,$5,$6,$7,0*
20,1,$1+$1,$6,$7,$8,$9,0*
20,1,$1+$1,$8,$9,$2,$3,0*%
G04 Aperture macros list end*
%ADD10RoundRect,0.150000X0.150000X-0.650000X0.150000X0.650000X-0.150000X0.650000X-0.150000X-0.650000X0*%
%ADD11RoundRect,0.150000X0.150000X0.425000X-0.150000X0.425000X-0.150000X-0.425000X0.150000X-0.425000X0*%
%ADD12RoundRect,0.075000X0.075000X0.500000X-0.075000X0.500000X-0.075000X-0.500000X0.075000X-0.500000X0*%
%ADD13O,1.000000X2.100000*%
%ADD14O,1.000000X1.800000*%
%ADD15RoundRect,0.135000X0.135000X0.185000X-0.135000X0.185000X-0.135000X-0.185000X0.135000X-0.185000X0*%
%ADD16RoundRect,0.135000X-0.135000X-0.185000X0.135000X-0.185000X0.135000X0.185000X-0.135000X0.185000X0*%
%ADD17RoundRect,0.140000X-0.140000X-0.170000X0.140000X-0.170000X0.140000X0.170000X-0.140000X0.170000X0*%
%ADD18RoundRect,0.140000X0.140000X0.170000X-0.140000X0.170000X-0.140000X-0.170000X0.140000X-0.170000X0*%
%ADD19RoundRect,0.100000X0.225000X0.100000X-0.225000X0.100000X-0.225000X-0.100000X0.225000X-0.100000X0*%
%ADD20RoundRect,0.135000X-0.185000X0.135000X-0.185000X-0.135000X0.185000X-0.135000X0.185000X0.135000X0*%
%ADD21RoundRect,0.140000X-0.170000X0.140000X-0.170000X-0.140000X0.170000X-0.140000X0.170000X0.140000X0*%
%ADD22RoundRect,0.100000X-0.637500X-0.100000X0.637500X-0.100000X0.637500X0.100000X-0.637500X0.100000X0*%
%ADD23RoundRect,0.100000X-0.225000X-0.100000X0.225000X-0.100000X0.225000X0.100000X-0.225000X0.100000X0*%
%ADD24RoundRect,0.200000X-0.200000X-0.275000X0.200000X-0.275000X0.200000X0.275000X-0.200000X0.275000X0*%
%ADD25RoundRect,0.225000X-0.225000X-0.375000X0.225000X-0.375000X0.225000X0.375000X-0.225000X0.375000X0*%
%ADD26RoundRect,0.140000X0.170000X-0.140000X0.170000X0.140000X-0.170000X0.140000X-0.170000X-0.140000X0*%
%ADD27RoundRect,0.250000X0.650000X-0.325000X0.650000X0.325000X-0.650000X0.325000X-0.650000X-0.325000X0*%
%ADD28RoundRect,0.225000X-0.250000X0.225000X-0.250000X-0.225000X0.250000X-0.225000X0.250000X0.225000X0*%
%ADD29RoundRect,0.250000X-0.650000X0.325000X-0.650000X-0.325000X0.650000X-0.325000X0.650000X0.325000X0*%
%ADD30R,1.450000X0.457000*%
%ADD31RoundRect,0.150000X-0.150000X0.587500X-0.150000X-0.587500X0.150000X-0.587500X0.150000X0.587500X0*%
%ADD32RoundRect,0.225000X0.250000X-0.225000X0.250000X0.225000X-0.250000X0.225000X-0.250000X-0.225000X0*%
%ADD33RoundRect,0.250000X-0.325000X-0.650000X0.325000X-0.650000X0.325000X0.650000X-0.325000X0.650000X0*%
%ADD34RoundRect,0.150000X0.625000X-0.150000X0.625000X0.150000X-0.625000X0.150000X-0.625000X-0.150000X0*%
%ADD35RoundRect,0.250000X0.650000X-0.350000X0.650000X0.350000X-0.650000X0.350000X-0.650000X-0.350000X0*%
%ADD36RoundRect,0.100000X0.637500X0.100000X-0.637500X0.100000X-0.637500X-0.100000X0.637500X-0.100000X0*%
%ADD37RoundRect,0.150000X0.150000X-0.587500X0.150000X0.587500X-0.150000X0.587500X-0.150000X-0.587500X0*%
%ADD38RoundRect,0.135000X0.185000X-0.135000X0.185000X0.135000X-0.185000X0.135000X-0.185000X-0.135000X0*%
%ADD39R,2.100000X1.400000*%
%ADD40RoundRect,0.150000X0.512500X0.150000X-0.512500X0.150000X-0.512500X-0.150000X0.512500X-0.150000X0*%
%ADD41RoundRect,0.070000X-0.355000X0.070000X-0.355000X-0.070000X0.355000X-0.070000X0.355000X0.070000X0*%
%ADD42RoundRect,0.070000X-0.305000X0.070000X-0.305000X-0.070000X0.305000X-0.070000X0.305000X0.070000X0*%
%ADD43RoundRect,0.250000X-0.625000X0.312500X-0.625000X-0.312500X0.625000X-0.312500X0.625000X0.312500X0*%
%ADD44RoundRect,0.225000X0.225000X0.250000X-0.225000X0.250000X-0.225000X-0.250000X0.225000X-0.250000X0*%
%ADD45R,1.200000X1.400000*%
%ADD46RoundRect,0.087500X0.725000X0.087500X-0.725000X0.087500X-0.725000X-0.087500X0.725000X-0.087500X0*%
%ADD47RoundRect,0.249999X-0.395001X-0.395001X0.395001X-0.395001X0.395001X0.395001X-0.395001X0.395001X0*%
%ADD48RoundRect,0.050000X-0.387500X-0.050000X0.387500X-0.050000X0.387500X0.050000X-0.387500X0.050000X0*%
%ADD49RoundRect,0.050000X-0.050000X-0.387500X0.050000X-0.387500X0.050000X0.387500X-0.050000X0.387500X0*%
%ADD50RoundRect,0.100000X-0.100000X0.225000X-0.100000X-0.225000X0.100000X-0.225000X0.100000X0.225000X0*%
%ADD51RoundRect,0.150000X-0.512500X-0.150000X0.512500X-0.150000X0.512500X0.150000X-0.512500X0.150000X0*%
%ADD52RoundRect,0.150000X-0.150000X0.512500X-0.150000X-0.512500X0.150000X-0.512500X0.150000X0.512500X0*%
%ADD53RoundRect,0.087500X0.537500X0.087500X-0.537500X0.087500X-0.537500X-0.087500X0.537500X-0.087500X0*%
%ADD54RoundRect,0.218750X-0.256250X0.218750X-0.256250X-0.218750X0.256250X-0.218750X0.256250X0.218750X0*%
%ADD55RoundRect,0.250000X0.325000X0.650000X-0.325000X0.650000X-0.325000X-0.650000X0.325000X-0.650000X0*%
%ADD56RoundRect,0.225000X-0.225000X-0.250000X0.225000X-0.250000X0.225000X0.250000X-0.225000X0.250000X0*%
%ADD57R,1.000000X3.150000*%
%ADD58RoundRect,0.150000X0.587500X0.150000X-0.587500X0.150000X-0.587500X-0.150000X0.587500X-0.150000X0*%
G04 APERTURE END LIST*
D10*
%TO.C,U1*%
X156025000Y-89100000D03*
X157295000Y-89100000D03*
X158565000Y-89100000D03*
X159835000Y-89100000D03*
X159835000Y-81900000D03*
X158565000Y-81900000D03*
X157295000Y-81900000D03*
X156025000Y-81900000D03*
%TD*%
D11*
%TO.C,J6*%
X203200000Y-61390000D03*
X202400000Y-61390000D03*
D12*
X201250000Y-61390000D03*
X200250000Y-61390000D03*
X199750000Y-61390000D03*
X198750000Y-61390000D03*
D11*
X197600000Y-61390000D03*
X196800000Y-61390000D03*
X196800000Y-61390000D03*
X197600000Y-61390000D03*
D12*
X198250000Y-61390000D03*
X199250000Y-61390000D03*
X200750000Y-61390000D03*
X201750000Y-61390000D03*
D11*
X202400000Y-61390000D03*
X203200000Y-61390000D03*
D13*
X204320000Y-60815000D03*
D14*
X204320000Y-56635000D03*
D13*
X195680000Y-60815000D03*
D14*
X195680000Y-56635000D03*
%TD*%
D15*
%TO.C,R101*%
X173635000Y-129825000D03*
X172615000Y-129825000D03*
%TD*%
D16*
%TO.C,R127*%
X170115000Y-142625000D03*
X171135000Y-142625000D03*
%TD*%
D17*
%TO.C,C272*%
X244645000Y-139425000D03*
X245605000Y-139425000D03*
%TD*%
D15*
%TO.C,R38*%
X159910000Y-131400000D03*
X158890000Y-131400000D03*
%TD*%
D18*
%TO.C,C253*%
X264367500Y-123200000D03*
X263407500Y-123200000D03*
%TD*%
D19*
%TO.C,U130*%
X255175000Y-133175000D03*
X255175000Y-132525000D03*
X255175000Y-131875000D03*
X253275000Y-131875000D03*
X253275000Y-132525000D03*
X253275000Y-133175000D03*
%TD*%
D20*
%TO.C,R266*%
X201400000Y-62990000D03*
X201400000Y-64010000D03*
%TD*%
D16*
%TO.C,R215*%
X240115000Y-125025000D03*
X241135000Y-125025000D03*
%TD*%
D17*
%TO.C,C185*%
X205620000Y-130400000D03*
X206580000Y-130400000D03*
%TD*%
D21*
%TO.C,C3*%
X161800000Y-104020000D03*
X161800000Y-104980000D03*
%TD*%
%TO.C,C106*%
X177025000Y-125645000D03*
X177025000Y-126605000D03*
%TD*%
D15*
%TO.C,R93*%
X173645000Y-126625000D03*
X172625000Y-126625000D03*
%TD*%
D22*
%TO.C,U128*%
X258625000Y-124425000D03*
X258625000Y-125075000D03*
X258625000Y-125725000D03*
X258625000Y-126375000D03*
X258625000Y-127025000D03*
X258625000Y-127675000D03*
X258625000Y-128325000D03*
X258625000Y-128975000D03*
X264350000Y-128975000D03*
X264350000Y-128325000D03*
X264350000Y-127675000D03*
X264350000Y-127025000D03*
X264350000Y-126375000D03*
X264350000Y-125725000D03*
X264350000Y-125075000D03*
X264350000Y-124425000D03*
%TD*%
D15*
%TO.C,R22*%
X159910000Y-124200000D03*
X158890000Y-124200000D03*
%TD*%
D16*
%TO.C,R119*%
X170115000Y-139425000D03*
X171135000Y-139425000D03*
%TD*%
D18*
%TO.C,C196*%
X225480000Y-136200000D03*
X224520000Y-136200000D03*
%TD*%
D21*
%TO.C,C131*%
X177025000Y-135845000D03*
X177025000Y-136805000D03*
%TD*%
D15*
%TO.C,R251*%
X243635000Y-139425000D03*
X242615000Y-139425000D03*
%TD*%
D16*
%TO.C,R42*%
X156490000Y-131400000D03*
X157510000Y-131400000D03*
%TD*%
D20*
%TO.C,R267*%
X198500000Y-62990000D03*
X198500000Y-64010000D03*
%TD*%
D23*
%TO.C,U7*%
X149550000Y-120550000D03*
X149550000Y-121200000D03*
X149550000Y-121850000D03*
X151450000Y-121850000D03*
X151450000Y-121200000D03*
X151450000Y-120550000D03*
%TD*%
D15*
%TO.C,R219*%
X243635000Y-125025000D03*
X242615000Y-125025000D03*
%TD*%
D23*
%TO.C,U77*%
X214800000Y-117350000D03*
X214800000Y-118000000D03*
X214800000Y-118650000D03*
X216700000Y-118650000D03*
X216700000Y-118000000D03*
X216700000Y-117350000D03*
%TD*%
D16*
%TO.C,R170*%
X226490000Y-131400000D03*
X227510000Y-131400000D03*
%TD*%
D20*
%TO.C,R278*%
X239000000Y-84490000D03*
X239000000Y-85510000D03*
%TD*%
D15*
%TO.C,R107*%
X173635000Y-132225000D03*
X172615000Y-132225000D03*
%TD*%
%TO.C,R205*%
X243645000Y-119425000D03*
X242625000Y-119425000D03*
%TD*%
D19*
%TO.C,U112*%
X255175000Y-118775000D03*
X255175000Y-118125000D03*
X255175000Y-117475000D03*
X253275000Y-117475000D03*
X253275000Y-118125000D03*
X253275000Y-118775000D03*
%TD*%
D24*
%TO.C,R270*%
X202162500Y-80175000D03*
X203812500Y-80175000D03*
%TD*%
D25*
%TO.C,D1*%
X144350000Y-73000000D03*
X147650000Y-73000000D03*
%TD*%
D22*
%TO.C,U56*%
X188625000Y-124425000D03*
X188625000Y-125075000D03*
X188625000Y-125725000D03*
X188625000Y-126375000D03*
X188625000Y-127025000D03*
X188625000Y-127675000D03*
X188625000Y-128325000D03*
X188625000Y-128975000D03*
X194350000Y-128975000D03*
X194350000Y-128325000D03*
X194350000Y-127675000D03*
X194350000Y-127025000D03*
X194350000Y-126375000D03*
X194350000Y-125725000D03*
X194350000Y-125075000D03*
X194350000Y-124425000D03*
%TD*%
D26*
%TO.C,C156*%
X223000000Y-118000000D03*
X223000000Y-117040000D03*
%TD*%
D15*
%TO.C,R160*%
X229910000Y-129000000D03*
X228890000Y-129000000D03*
%TD*%
D27*
%TO.C,C289*%
X209400000Y-74075000D03*
X209400000Y-71125000D03*
%TD*%
D23*
%TO.C,U16*%
X149550000Y-127750000D03*
X149550000Y-128400000D03*
X149550000Y-129050000D03*
X151450000Y-129050000D03*
X151450000Y-128400000D03*
X151450000Y-127750000D03*
%TD*%
D18*
%TO.C,C18*%
X155480000Y-118600000D03*
X154520000Y-118600000D03*
%TD*%
D20*
%TO.C,R285*%
X154750000Y-97490000D03*
X154750000Y-98510000D03*
%TD*%
D21*
%TO.C,C235*%
X251725000Y-121145000D03*
X251725000Y-122105000D03*
%TD*%
D18*
%TO.C,C134*%
X194367500Y-130400000D03*
X193407500Y-130400000D03*
%TD*%
D16*
%TO.C,R217*%
X240115000Y-126625000D03*
X241135000Y-126625000D03*
%TD*%
D17*
%TO.C,C136*%
X174645000Y-139425000D03*
X175605000Y-139425000D03*
%TD*%
%TO.C,C129*%
X174645000Y-137025000D03*
X175605000Y-137025000D03*
%TD*%
D15*
%TO.C,R131*%
X173635000Y-142625000D03*
X172615000Y-142625000D03*
%TD*%
D17*
%TO.C,C95*%
X174645000Y-122625000D03*
X175605000Y-122625000D03*
%TD*%
%TO.C,C138*%
X174655000Y-141025000D03*
X175615000Y-141025000D03*
%TD*%
D15*
%TO.C,R253*%
X243645000Y-141025000D03*
X242625000Y-141025000D03*
%TD*%
D28*
%TO.C,C300*%
X228400000Y-71125000D03*
X228400000Y-72675000D03*
%TD*%
D17*
%TO.C,C246*%
X244645000Y-128225000D03*
X245605000Y-128225000D03*
%TD*%
D18*
%TO.C,C194*%
X225480000Y-134600000D03*
X224520000Y-134600000D03*
%TD*%
D23*
%TO.C,U93*%
X219550000Y-131750000D03*
X219550000Y-132400000D03*
X219550000Y-133050000D03*
X221450000Y-133050000D03*
X221450000Y-132400000D03*
X221450000Y-131750000D03*
%TD*%
D29*
%TO.C,C290*%
X153250000Y-81325000D03*
X153250000Y-84275000D03*
%TD*%
D26*
%TO.C,C14*%
X164849999Y-89480000D03*
X164849999Y-88520000D03*
%TD*%
%TO.C,C175*%
X218250000Y-125200000D03*
X218250000Y-124240000D03*
%TD*%
D17*
%TO.C,C104*%
X174655000Y-126625000D03*
X175615000Y-126625000D03*
%TD*%
D20*
%TO.C,R283*%
X210200000Y-63590000D03*
X210200000Y-64610000D03*
%TD*%
D18*
%TO.C,C203*%
X225480000Y-138600000D03*
X224520000Y-138600000D03*
%TD*%
D21*
%TO.C,C5*%
X166050000Y-100520000D03*
X166050000Y-101480000D03*
%TD*%
D16*
%TO.C,R71*%
X170115000Y-117825000D03*
X171135000Y-117825000D03*
%TD*%
D19*
%TO.C,U42*%
X180525000Y-119075000D03*
X180525000Y-118425000D03*
X180525000Y-117775000D03*
X178625000Y-117775000D03*
X178625000Y-118425000D03*
X178625000Y-119075000D03*
%TD*%
D16*
%TO.C,R58*%
X156490000Y-138600000D03*
X157510000Y-138600000D03*
%TD*%
D30*
%TO.C,J3*%
X238086000Y-115400000D03*
X231914000Y-115400000D03*
X238086000Y-116200000D03*
X231914000Y-116200000D03*
X238086000Y-117000000D03*
X231914000Y-117000000D03*
X238086000Y-117800000D03*
X231914000Y-117800000D03*
X238086000Y-118600000D03*
X231914000Y-118600000D03*
X238086000Y-119400000D03*
X231914000Y-119400000D03*
X238086000Y-120200000D03*
X231914000Y-120200000D03*
X238086000Y-121000000D03*
X231914000Y-121000000D03*
X238086000Y-121800000D03*
X231914000Y-121800000D03*
X238086000Y-122600000D03*
X231914000Y-122600000D03*
X238086000Y-123400000D03*
X231914000Y-123400000D03*
X238086000Y-124200000D03*
X231914000Y-124200000D03*
X238086000Y-125000000D03*
X231914000Y-125000000D03*
X238086000Y-125800000D03*
X231914000Y-125800000D03*
X238086000Y-126600000D03*
X231914000Y-126600000D03*
X238086000Y-127400000D03*
X231914000Y-127400000D03*
X238086000Y-128200000D03*
X231914000Y-128200000D03*
X238086000Y-129000000D03*
X231914000Y-129000000D03*
X238086000Y-129800000D03*
X231914000Y-129800000D03*
X238086000Y-130600000D03*
X231914000Y-130600000D03*
X238086000Y-131400000D03*
X231914000Y-131400000D03*
X238086000Y-132200000D03*
X231914000Y-132200000D03*
X238086000Y-133000000D03*
X231914000Y-133000000D03*
X238086000Y-133800000D03*
X231914000Y-133800000D03*
X238086000Y-134600000D03*
X231914000Y-134600000D03*
X238086000Y-135400000D03*
X231914000Y-135400000D03*
X238086000Y-136200000D03*
X231914000Y-136200000D03*
X238086000Y-137000000D03*
X231914000Y-137000000D03*
X238086000Y-137800000D03*
X231914000Y-137800000D03*
X238086000Y-138600000D03*
X231914000Y-138600000D03*
X238086000Y-139400000D03*
X231914000Y-139400000D03*
X238086000Y-140200000D03*
X231914000Y-140200000D03*
X238086000Y-141000000D03*
X231914000Y-141000000D03*
X238086000Y-141800000D03*
X231914000Y-141800000D03*
X238086000Y-142600000D03*
X231914000Y-142600000D03*
X238086000Y-143400000D03*
X231914000Y-143400000D03*
X238086000Y-144200000D03*
X231914000Y-144200000D03*
X238086000Y-145000000D03*
X231914000Y-145000000D03*
X238086000Y-145800000D03*
X231914000Y-145800000D03*
X238086000Y-146600000D03*
X231914000Y-146600000D03*
%TD*%
D26*
%TO.C,C215*%
X223000000Y-142780000D03*
X223000000Y-141820000D03*
%TD*%
D21*
%TO.C,C116*%
X181725000Y-128345000D03*
X181725000Y-129305000D03*
%TD*%
D19*
%TO.C,U139*%
X255175000Y-140375000D03*
X255175000Y-139725000D03*
X255175000Y-139075000D03*
X253275000Y-139075000D03*
X253275000Y-139725000D03*
X253275000Y-140375000D03*
%TD*%
D15*
%TO.C,R46*%
X159910000Y-134600000D03*
X158890000Y-134600000D03*
%TD*%
%TO.C,R237*%
X243645000Y-133825000D03*
X242625000Y-133825000D03*
%TD*%
D21*
%TO.C,C291*%
X149400000Y-91020000D03*
X149400000Y-91980000D03*
%TD*%
D16*
%TO.C,R209*%
X240115000Y-122625000D03*
X241135000Y-122625000D03*
%TD*%
D31*
%TO.C,Q1*%
X201350000Y-74662500D03*
X199450000Y-74662500D03*
X200400000Y-76537500D03*
%TD*%
D16*
%TO.C,R268*%
X244590000Y-71850000D03*
X245610000Y-71850000D03*
%TD*%
D19*
%TO.C,U73*%
X180525000Y-143675000D03*
X180525000Y-143025000D03*
X180525000Y-142375000D03*
X178625000Y-142375000D03*
X178625000Y-143025000D03*
X178625000Y-143675000D03*
%TD*%
D20*
%TO.C,R277*%
X234350000Y-74940000D03*
X234350000Y-75960000D03*
%TD*%
D32*
%TO.C,C15*%
X170299999Y-90675000D03*
X170299999Y-89125000D03*
%TD*%
D26*
%TO.C,C173*%
X223000000Y-125200000D03*
X223000000Y-124240000D03*
%TD*%
D17*
%TO.C,C296*%
X246490000Y-81803750D03*
X247450000Y-81803750D03*
%TD*%
D15*
%TO.C,R32*%
X159910000Y-129000000D03*
X158890000Y-129000000D03*
%TD*%
D19*
%TO.C,U71*%
X185175000Y-143375000D03*
X185175000Y-142725000D03*
X185175000Y-142075000D03*
X183275000Y-142075000D03*
X183275000Y-142725000D03*
X183275000Y-143375000D03*
%TD*%
D21*
%TO.C,C286*%
X251725000Y-142745000D03*
X251725000Y-143705000D03*
%TD*%
D17*
%TO.C,C11*%
X169490000Y-92900000D03*
X170450000Y-92900000D03*
%TD*%
D16*
%TO.C,R129*%
X170115000Y-144225000D03*
X171135000Y-144225000D03*
%TD*%
D15*
%TO.C,R227*%
X243635000Y-128225000D03*
X242615000Y-128225000D03*
%TD*%
D16*
%TO.C,R199*%
X240115000Y-117825000D03*
X241135000Y-117825000D03*
%TD*%
D21*
%TO.C,C227*%
X251725000Y-118145000D03*
X251725000Y-119105000D03*
%TD*%
D23*
%TO.C,U108*%
X214800000Y-142150000D03*
X214800000Y-142800000D03*
X214800000Y-143450000D03*
X216700000Y-143450000D03*
X216700000Y-142800000D03*
X216700000Y-142150000D03*
%TD*%
D17*
%TO.C,C303*%
X246490000Y-91203750D03*
X247450000Y-91203750D03*
%TD*%
D23*
%TO.C,U18*%
X144800000Y-127750000D03*
X144800000Y-128400000D03*
X144800000Y-129050000D03*
X146700000Y-129050000D03*
X146700000Y-128400000D03*
X146700000Y-127750000D03*
%TD*%
D15*
%TO.C,R62*%
X159910000Y-141800000D03*
X158890000Y-141800000D03*
%TD*%
D17*
%TO.C,C288*%
X138320000Y-94500000D03*
X139280000Y-94500000D03*
%TD*%
D19*
%TO.C,U121*%
X255175000Y-125975000D03*
X255175000Y-125325000D03*
X255175000Y-124675000D03*
X253275000Y-124675000D03*
X253275000Y-125325000D03*
X253275000Y-125975000D03*
%TD*%
D17*
%TO.C,C202*%
X205620000Y-137600000D03*
X206580000Y-137600000D03*
%TD*%
D27*
%TO.C,C309*%
X233500000Y-70525000D03*
X233500000Y-67575000D03*
%TD*%
D15*
%TO.C,R75*%
X173635000Y-117825000D03*
X172615000Y-117825000D03*
%TD*%
D19*
%TO.C,U114*%
X250525000Y-119075000D03*
X250525000Y-118425000D03*
X250525000Y-117775000D03*
X248625000Y-117775000D03*
X248625000Y-118425000D03*
X248625000Y-119075000D03*
%TD*%
%TO.C,U51*%
X180525000Y-126275000D03*
X180525000Y-125625000D03*
X180525000Y-124975000D03*
X178625000Y-124975000D03*
X178625000Y-125625000D03*
X178625000Y-126275000D03*
%TD*%
D33*
%TO.C,C306*%
X235625000Y-68400000D03*
X238575000Y-68400000D03*
%TD*%
D19*
%TO.C,U134*%
X255175000Y-136175000D03*
X255175000Y-135525000D03*
X255175000Y-134875000D03*
X253275000Y-134875000D03*
X253275000Y-135525000D03*
X253275000Y-136175000D03*
%TD*%
D15*
%TO.C,R30*%
X159910000Y-127400000D03*
X158890000Y-127400000D03*
%TD*%
D18*
%TO.C,C67*%
X155480000Y-138600000D03*
X154520000Y-138600000D03*
%TD*%
D34*
%TO.C,J8*%
X199075000Y-100900000D03*
X199075000Y-99900000D03*
X199075000Y-98900000D03*
D35*
X196550000Y-102200000D03*
X196550000Y-97600000D03*
%TD*%
D16*
%TO.C,R156*%
X226490000Y-125800000D03*
X227510000Y-125800000D03*
%TD*%
D17*
%TO.C,C10*%
X170370000Y-96300000D03*
X171330000Y-96300000D03*
%TD*%
D16*
%TO.C,R280*%
X246400000Y-88553750D03*
X247420000Y-88553750D03*
%TD*%
D36*
%TO.C,U29*%
X141362500Y-136475000D03*
X141362500Y-135825000D03*
X141362500Y-135175000D03*
X141362500Y-134525000D03*
X141362500Y-133875000D03*
X141362500Y-133225000D03*
X141362500Y-132575000D03*
X141362500Y-131925000D03*
X135637500Y-131925000D03*
X135637500Y-132575000D03*
X135637500Y-133225000D03*
X135637500Y-133875000D03*
X135637500Y-134525000D03*
X135637500Y-135175000D03*
X135637500Y-135825000D03*
X135637500Y-136475000D03*
%TD*%
D21*
%TO.C,C89*%
X177025000Y-118445000D03*
X177025000Y-119405000D03*
%TD*%
D16*
%TO.C,R275*%
X157240000Y-92700000D03*
X158260000Y-92700000D03*
%TD*%
D21*
%TO.C,C125*%
X181725000Y-132545000D03*
X181725000Y-133505000D03*
%TD*%
D37*
%TO.C,Q6*%
X230150000Y-76737500D03*
X232050000Y-76737500D03*
X231100000Y-74862500D03*
%TD*%
D19*
%TO.C,U49*%
X185175000Y-125975000D03*
X185175000Y-125325000D03*
X185175000Y-124675000D03*
X183275000Y-124675000D03*
X183275000Y-125325000D03*
X183275000Y-125975000D03*
%TD*%
D38*
%TO.C,R1*%
X154150000Y-90110000D03*
X154150000Y-89090000D03*
%TD*%
D16*
%TO.C,R111*%
X170115000Y-135425000D03*
X171135000Y-135425000D03*
%TD*%
D26*
%TO.C,C73*%
X148250000Y-139600000D03*
X148250000Y-138640000D03*
%TD*%
%TO.C,C6*%
X163930000Y-89480000D03*
X163930000Y-88520000D03*
%TD*%
D22*
%TO.C,U65*%
X188625000Y-131625000D03*
X188625000Y-132275000D03*
X188625000Y-132925000D03*
X188625000Y-133575000D03*
X188625000Y-134225000D03*
X188625000Y-134875000D03*
X188625000Y-135525000D03*
X188625000Y-136175000D03*
X194350000Y-136175000D03*
X194350000Y-135525000D03*
X194350000Y-134875000D03*
X194350000Y-134225000D03*
X194350000Y-133575000D03*
X194350000Y-132925000D03*
X194350000Y-132275000D03*
X194350000Y-131625000D03*
%TD*%
D18*
%TO.C,C169*%
X225480000Y-124200000D03*
X224520000Y-124200000D03*
%TD*%
D16*
%TO.C,R223*%
X240115000Y-128225000D03*
X241135000Y-128225000D03*
%TD*%
%TO.C,R18*%
X156490000Y-120200000D03*
X157510000Y-120200000D03*
%TD*%
D30*
%TO.C,J2*%
X168086000Y-115400000D03*
X161914000Y-115400000D03*
X168086000Y-116200000D03*
X161914000Y-116200000D03*
X168086000Y-117000000D03*
X161914000Y-117000000D03*
X168086000Y-117800000D03*
X161914000Y-117800000D03*
X168086000Y-118600000D03*
X161914000Y-118600000D03*
X168086000Y-119400000D03*
X161914000Y-119400000D03*
X168086000Y-120200000D03*
X161914000Y-120200000D03*
X168086000Y-121000000D03*
X161914000Y-121000000D03*
X168086000Y-121800000D03*
X161914000Y-121800000D03*
X168086000Y-122600000D03*
X161914000Y-122600000D03*
X168086000Y-123400000D03*
X161914000Y-123400000D03*
X168086000Y-124200000D03*
X161914000Y-124200000D03*
X168086000Y-125000000D03*
X161914000Y-125000000D03*
X168086000Y-125800000D03*
X161914000Y-125800000D03*
X168086000Y-126600000D03*
X161914000Y-126600000D03*
X168086000Y-127400000D03*
X161914000Y-127400000D03*
X168086000Y-128200000D03*
X161914000Y-128200000D03*
X168086000Y-129000000D03*
X161914000Y-129000000D03*
X168086000Y-129800000D03*
X161914000Y-129800000D03*
X168086000Y-130600000D03*
X161914000Y-130600000D03*
X168086000Y-131400000D03*
X161914000Y-131400000D03*
X168086000Y-132200000D03*
X161914000Y-132200000D03*
X168086000Y-133000000D03*
X161914000Y-133000000D03*
X168086000Y-133800000D03*
X161914000Y-133800000D03*
X168086000Y-134600000D03*
X161914000Y-134600000D03*
X168086000Y-135400000D03*
X161914000Y-135400000D03*
X168086000Y-136200000D03*
X161914000Y-136200000D03*
X168086000Y-137000000D03*
X161914000Y-137000000D03*
X168086000Y-137800000D03*
X161914000Y-137800000D03*
X168086000Y-138600000D03*
X161914000Y-138600000D03*
X168086000Y-139400000D03*
X161914000Y-139400000D03*
X168086000Y-140200000D03*
X161914000Y-140200000D03*
X168086000Y-141000000D03*
X161914000Y-141000000D03*
X168086000Y-141800000D03*
X161914000Y-141800000D03*
X168086000Y-142600000D03*
X161914000Y-142600000D03*
X168086000Y-143400000D03*
X161914000Y-143400000D03*
X168086000Y-144200000D03*
X161914000Y-144200000D03*
X168086000Y-145000000D03*
X161914000Y-145000000D03*
X168086000Y-145800000D03*
X161914000Y-145800000D03*
X168086000Y-146600000D03*
X161914000Y-146600000D03*
%TD*%
D18*
%TO.C,C270*%
X264367500Y-130400000D03*
X263407500Y-130400000D03*
%TD*%
D26*
%TO.C,C20*%
X153000000Y-118000000D03*
X153000000Y-117040000D03*
%TD*%
D16*
%TO.C,R154*%
X226490000Y-124200000D03*
X227510000Y-124200000D03*
%TD*%
D36*
%TO.C,U11*%
X141362500Y-122075000D03*
X141362500Y-121425000D03*
X141362500Y-120775000D03*
X141362500Y-120125000D03*
X141362500Y-119475000D03*
X141362500Y-118825000D03*
X141362500Y-118175000D03*
X141362500Y-117525000D03*
X135637500Y-117525000D03*
X135637500Y-118175000D03*
X135637500Y-118825000D03*
X135637500Y-119475000D03*
X135637500Y-120125000D03*
X135637500Y-120775000D03*
X135637500Y-121425000D03*
X135637500Y-122075000D03*
%TD*%
D15*
%TO.C,R144*%
X229910000Y-121800000D03*
X228890000Y-121800000D03*
%TD*%
D18*
%TO.C,C188*%
X225480000Y-133000000D03*
X224520000Y-133000000D03*
%TD*%
D15*
%TO.C,R264*%
X201510000Y-69500000D03*
X200490000Y-69500000D03*
%TD*%
%TO.C,R6*%
X159910000Y-117000000D03*
X158890000Y-117000000D03*
%TD*%
D21*
%TO.C,C269*%
X251725000Y-135545000D03*
X251725000Y-136505000D03*
%TD*%
D16*
%TO.C,R257*%
X240115000Y-144225000D03*
X241135000Y-144225000D03*
%TD*%
D22*
%TO.C,U74*%
X188625000Y-138825000D03*
X188625000Y-139475000D03*
X188625000Y-140125000D03*
X188625000Y-140775000D03*
X188625000Y-141425000D03*
X188625000Y-142075000D03*
X188625000Y-142725000D03*
X188625000Y-143375000D03*
X194350000Y-143375000D03*
X194350000Y-142725000D03*
X194350000Y-142075000D03*
X194350000Y-141425000D03*
X194350000Y-140775000D03*
X194350000Y-140125000D03*
X194350000Y-139475000D03*
X194350000Y-138825000D03*
%TD*%
D26*
%TO.C,C1*%
X155910000Y-79980000D03*
X155910000Y-79020000D03*
%TD*%
%TO.C,C22*%
X148250000Y-118000000D03*
X148250000Y-117040000D03*
%TD*%
%TO.C,C39*%
X148250000Y-125200000D03*
X148250000Y-124240000D03*
%TD*%
D39*
%TO.C,SW3*%
X141050000Y-80450000D03*
X150150000Y-80450000D03*
X141050000Y-84950000D03*
X150150000Y-84950000D03*
%TD*%
D15*
%TO.C,R64*%
X159910000Y-143400000D03*
X158890000Y-143400000D03*
%TD*%
D19*
%TO.C,U55*%
X180525000Y-129275000D03*
X180525000Y-128625000D03*
X180525000Y-127975000D03*
X178625000Y-127975000D03*
X178625000Y-128625000D03*
X178625000Y-129275000D03*
%TD*%
D15*
%TO.C,R16*%
X159910000Y-121800000D03*
X158890000Y-121800000D03*
%TD*%
%TO.C,R273*%
X168460000Y-102600000D03*
X167440000Y-102600000D03*
%TD*%
D21*
%TO.C,C123*%
X177025000Y-132845000D03*
X177025000Y-133805000D03*
%TD*%
D23*
%TO.C,U25*%
X149550000Y-134950000D03*
X149550000Y-135600000D03*
X149550000Y-136250000D03*
X151450000Y-136250000D03*
X151450000Y-135600000D03*
X151450000Y-134950000D03*
%TD*%
D16*
%TO.C,R172*%
X226490000Y-133000000D03*
X227510000Y-133000000D03*
%TD*%
D36*
%TO.C,U101*%
X211362500Y-136475000D03*
X211362500Y-135825000D03*
X211362500Y-135175000D03*
X211362500Y-134525000D03*
X211362500Y-133875000D03*
X211362500Y-133225000D03*
X211362500Y-132575000D03*
X211362500Y-131925000D03*
X205637500Y-131925000D03*
X205637500Y-132575000D03*
X205637500Y-133225000D03*
X205637500Y-133875000D03*
X205637500Y-134525000D03*
X205637500Y-135175000D03*
X205637500Y-135825000D03*
X205637500Y-136475000D03*
%TD*%
D32*
%TO.C,C297*%
X195600000Y-82912500D03*
X195600000Y-81362500D03*
%TD*%
D23*
%TO.C,U97*%
X219550000Y-134950000D03*
X219550000Y-135600000D03*
X219550000Y-136250000D03*
X221450000Y-136250000D03*
X221450000Y-135600000D03*
X221450000Y-134950000D03*
%TD*%
D40*
%TO.C,U153*%
X206997500Y-76175000D03*
X206997500Y-75225000D03*
X206997500Y-74275000D03*
X204722500Y-74275000D03*
X204722500Y-76175000D03*
%TD*%
D36*
%TO.C,U92*%
X211362500Y-129275000D03*
X211362500Y-128625000D03*
X211362500Y-127975000D03*
X211362500Y-127325000D03*
X211362500Y-126675000D03*
X211362500Y-126025000D03*
X211362500Y-125375000D03*
X211362500Y-124725000D03*
X205637500Y-124725000D03*
X205637500Y-125375000D03*
X205637500Y-126025000D03*
X205637500Y-126675000D03*
X205637500Y-127325000D03*
X205637500Y-127975000D03*
X205637500Y-128625000D03*
X205637500Y-129275000D03*
%TD*%
D20*
%TO.C,R271*%
X203000000Y-75190000D03*
X203000000Y-76210000D03*
%TD*%
D23*
%TO.C,U81*%
X214800000Y-120550000D03*
X214800000Y-121200000D03*
X214800000Y-121850000D03*
X216700000Y-121850000D03*
X216700000Y-121200000D03*
X216700000Y-120550000D03*
%TD*%
D17*
%TO.C,C32*%
X135620000Y-123200000D03*
X136580000Y-123200000D03*
%TD*%
D36*
%TO.C,U20*%
X141362500Y-129275000D03*
X141362500Y-128625000D03*
X141362500Y-127975000D03*
X141362500Y-127325000D03*
X141362500Y-126675000D03*
X141362500Y-126025000D03*
X141362500Y-125375000D03*
X141362500Y-124725000D03*
X135637500Y-124725000D03*
X135637500Y-125375000D03*
X135637500Y-126025000D03*
X135637500Y-126675000D03*
X135637500Y-127325000D03*
X135637500Y-127975000D03*
X135637500Y-128625000D03*
X135637500Y-129275000D03*
%TD*%
D16*
%TO.C,R164*%
X226490000Y-129000000D03*
X227510000Y-129000000D03*
%TD*%
D17*
%TO.C,C255*%
X244645000Y-132225000D03*
X245605000Y-132225000D03*
%TD*%
%TO.C,C248*%
X244645000Y-129825000D03*
X245605000Y-129825000D03*
%TD*%
D15*
%TO.C,R174*%
X229910000Y-134600000D03*
X228890000Y-134600000D03*
%TD*%
D26*
%TO.C,C164*%
X223000000Y-121180000D03*
X223000000Y-120220000D03*
%TD*%
D15*
%TO.C,R166*%
X229910000Y-131400000D03*
X228890000Y-131400000D03*
%TD*%
%TO.C,R40*%
X159910000Y-133000000D03*
X158890000Y-133000000D03*
%TD*%
D18*
%TO.C,C60*%
X155480000Y-136200000D03*
X154520000Y-136200000D03*
%TD*%
D23*
%TO.C,U5*%
X144800000Y-117350000D03*
X144800000Y-118000000D03*
X144800000Y-118650000D03*
X146700000Y-118650000D03*
X146700000Y-118000000D03*
X146700000Y-117350000D03*
%TD*%
D15*
%TO.C,R91*%
X173635000Y-125025000D03*
X172615000Y-125025000D03*
%TD*%
%TO.C,R123*%
X173635000Y-139425000D03*
X172615000Y-139425000D03*
%TD*%
D16*
%TO.C,R148*%
X226490000Y-121800000D03*
X227510000Y-121800000D03*
%TD*%
D15*
%TO.C,R211*%
X243635000Y-121025000D03*
X242615000Y-121025000D03*
%TD*%
D18*
%TO.C,C33*%
X155480000Y-124200000D03*
X154520000Y-124200000D03*
%TD*%
D23*
%TO.C,U34*%
X149550000Y-142150000D03*
X149550000Y-142800000D03*
X149550000Y-143450000D03*
X151450000Y-143450000D03*
X151450000Y-142800000D03*
X151450000Y-142150000D03*
%TD*%
D16*
%TO.C,R121*%
X170115000Y-141025000D03*
X171135000Y-141025000D03*
%TD*%
%TO.C,R233*%
X240115000Y-133825000D03*
X241135000Y-133825000D03*
%TD*%
D15*
%TO.C,R259*%
X243635000Y-142625000D03*
X242615000Y-142625000D03*
%TD*%
D41*
%TO.C,U152*%
X201675000Y-82800000D03*
D42*
X201625000Y-83300000D03*
X201625000Y-83800000D03*
X202775000Y-83800000D03*
X202775000Y-83300000D03*
X202775000Y-82800000D03*
%TD*%
D26*
%TO.C,C54*%
X153000000Y-132400000D03*
X153000000Y-131440000D03*
%TD*%
D23*
%TO.C,U23*%
X144800000Y-131750000D03*
X144800000Y-132400000D03*
X144800000Y-133050000D03*
X146700000Y-133050000D03*
X146700000Y-132400000D03*
X146700000Y-131750000D03*
%TD*%
D16*
%TO.C,R231*%
X240115000Y-132225000D03*
X241135000Y-132225000D03*
%TD*%
D19*
%TO.C,U69*%
X180525000Y-140675000D03*
X180525000Y-140025000D03*
X180525000Y-139375000D03*
X178625000Y-139375000D03*
X178625000Y-140025000D03*
X178625000Y-140675000D03*
%TD*%
D15*
%TO.C,R24*%
X159910000Y-125800000D03*
X158890000Y-125800000D03*
%TD*%
D18*
%TO.C,C293*%
X243130000Y-84500000D03*
X242170000Y-84500000D03*
%TD*%
D16*
%TO.C,R36*%
X156490000Y-129000000D03*
X157510000Y-129000000D03*
%TD*%
D18*
%TO.C,C152*%
X225480000Y-117000000D03*
X224520000Y-117000000D03*
%TD*%
D23*
%TO.C,U106*%
X219550000Y-142150000D03*
X219550000Y-142800000D03*
X219550000Y-143450000D03*
X221450000Y-143450000D03*
X221450000Y-142800000D03*
X221450000Y-142150000D03*
%TD*%
D22*
%TO.C,U137*%
X258625000Y-131625000D03*
X258625000Y-132275000D03*
X258625000Y-132925000D03*
X258625000Y-133575000D03*
X258625000Y-134225000D03*
X258625000Y-134875000D03*
X258625000Y-135525000D03*
X258625000Y-136175000D03*
X264350000Y-136175000D03*
X264350000Y-135525000D03*
X264350000Y-134875000D03*
X264350000Y-134225000D03*
X264350000Y-133575000D03*
X264350000Y-132925000D03*
X264350000Y-132275000D03*
X264350000Y-131625000D03*
%TD*%
D19*
%TO.C,U40*%
X185175000Y-118775000D03*
X185175000Y-118125000D03*
X185175000Y-117475000D03*
X183275000Y-117475000D03*
X183275000Y-118125000D03*
X183275000Y-118775000D03*
%TD*%
D43*
%TO.C,R262*%
X150000000Y-70037500D03*
X150000000Y-72962500D03*
%TD*%
D23*
%TO.C,U88*%
X219550000Y-127750000D03*
X219550000Y-128400000D03*
X219550000Y-129050000D03*
X221450000Y-129050000D03*
X221450000Y-128400000D03*
X221450000Y-127750000D03*
%TD*%
D19*
%TO.C,U44*%
X185175000Y-121775000D03*
X185175000Y-121125000D03*
X185175000Y-120475000D03*
X183275000Y-120475000D03*
X183275000Y-121125000D03*
X183275000Y-121775000D03*
%TD*%
D17*
%TO.C,C93*%
X174645000Y-121025000D03*
X175605000Y-121025000D03*
%TD*%
D15*
%TO.C,R261*%
X243635000Y-144225000D03*
X242615000Y-144225000D03*
%TD*%
D23*
%TO.C,U30*%
X149550000Y-138950000D03*
X149550000Y-139600000D03*
X149550000Y-140250000D03*
X151450000Y-140250000D03*
X151450000Y-139600000D03*
X151450000Y-138950000D03*
%TD*%
D26*
%TO.C,C30*%
X148263500Y-121200000D03*
X148263500Y-120240000D03*
%TD*%
%TO.C,C56*%
X148250000Y-132400000D03*
X148250000Y-131440000D03*
%TD*%
D15*
%TO.C,R168*%
X229910000Y-133000000D03*
X228890000Y-133000000D03*
%TD*%
D20*
%TO.C,R284*%
X153450000Y-95990000D03*
X153450000Y-97010000D03*
%TD*%
D36*
%TO.C,U38*%
X141362500Y-143675000D03*
X141362500Y-143025000D03*
X141362500Y-142375000D03*
X141362500Y-141725000D03*
X141362500Y-141075000D03*
X141362500Y-140425000D03*
X141362500Y-139775000D03*
X141362500Y-139125000D03*
X135637500Y-139125000D03*
X135637500Y-139775000D03*
X135637500Y-140425000D03*
X135637500Y-141075000D03*
X135637500Y-141725000D03*
X135637500Y-142375000D03*
X135637500Y-143025000D03*
X135637500Y-143675000D03*
%TD*%
D16*
%TO.C,R95*%
X170115000Y-128225000D03*
X171135000Y-128225000D03*
%TD*%
D19*
%TO.C,U123*%
X250525000Y-126275000D03*
X250525000Y-125625000D03*
X250525000Y-124975000D03*
X248625000Y-124975000D03*
X248625000Y-125625000D03*
X248625000Y-126275000D03*
%TD*%
D37*
%TO.C,Q2*%
X198250000Y-86437500D03*
X200150000Y-86437500D03*
X199200000Y-84562500D03*
%TD*%
D17*
%TO.C,C231*%
X244645000Y-122625000D03*
X245605000Y-122625000D03*
%TD*%
D15*
%TO.C,R152*%
X229910000Y-125800000D03*
X228890000Y-125800000D03*
%TD*%
D26*
%TO.C,C28*%
X153000000Y-121180000D03*
X153000000Y-120220000D03*
%TD*%
D38*
%TO.C,R3*%
X166699999Y-89510000D03*
X166699999Y-88490000D03*
%TD*%
D16*
%TO.C,R60*%
X156490000Y-140200000D03*
X157510000Y-140200000D03*
%TD*%
D17*
%TO.C,C274*%
X244655000Y-141025000D03*
X245615000Y-141025000D03*
%TD*%
%TO.C,C229*%
X244645000Y-121025000D03*
X245605000Y-121025000D03*
%TD*%
D21*
%TO.C,C9*%
X165130000Y-100520000D03*
X165130000Y-101480000D03*
%TD*%
D26*
%TO.C,C45*%
X153000000Y-128380000D03*
X153000000Y-127420000D03*
%TD*%
D17*
%TO.C,C144*%
X174645000Y-142625000D03*
X175605000Y-142625000D03*
%TD*%
D21*
%TO.C,C140*%
X177025000Y-140045000D03*
X177025000Y-141005000D03*
%TD*%
D17*
%TO.C,C87*%
X174655000Y-119425000D03*
X175615000Y-119425000D03*
%TD*%
%TO.C,C221*%
X244645000Y-117825000D03*
X245605000Y-117825000D03*
%TD*%
D22*
%TO.C,U47*%
X188625000Y-117225000D03*
X188625000Y-117875000D03*
X188625000Y-118525000D03*
X188625000Y-119175000D03*
X188625000Y-119825000D03*
X188625000Y-120475000D03*
X188625000Y-121125000D03*
X188625000Y-121775000D03*
X194350000Y-121775000D03*
X194350000Y-121125000D03*
X194350000Y-120475000D03*
X194350000Y-119825000D03*
X194350000Y-119175000D03*
X194350000Y-118525000D03*
X194350000Y-117875000D03*
X194350000Y-117225000D03*
%TD*%
D17*
%TO.C,C280*%
X244645000Y-142625000D03*
X245605000Y-142625000D03*
%TD*%
D26*
%TO.C,C207*%
X223000000Y-139600000D03*
X223000000Y-138640000D03*
%TD*%
D23*
%TO.C,U95*%
X214800000Y-131750000D03*
X214800000Y-132400000D03*
X214800000Y-133050000D03*
X216700000Y-133050000D03*
X216700000Y-132400000D03*
X216700000Y-131750000D03*
%TD*%
D19*
%TO.C,U141*%
X250525000Y-140675000D03*
X250525000Y-140025000D03*
X250525000Y-139375000D03*
X248625000Y-139375000D03*
X248625000Y-140025000D03*
X248625000Y-140675000D03*
%TD*%
D15*
%TO.C,R235*%
X243635000Y-132225000D03*
X242615000Y-132225000D03*
%TD*%
D16*
%TO.C,R73*%
X170115000Y-119425000D03*
X171135000Y-119425000D03*
%TD*%
%TO.C,R194*%
X226490000Y-141800000D03*
X227510000Y-141800000D03*
%TD*%
D17*
%TO.C,C263*%
X244645000Y-135425000D03*
X245605000Y-135425000D03*
%TD*%
D18*
%TO.C,C16*%
X155480000Y-117000000D03*
X154520000Y-117000000D03*
%TD*%
D23*
%TO.C,U21*%
X149550000Y-131750000D03*
X149550000Y-132400000D03*
X149550000Y-133050000D03*
X151450000Y-133050000D03*
X151450000Y-132400000D03*
X151450000Y-131750000D03*
%TD*%
D18*
%TO.C,C100*%
X194367500Y-116000000D03*
X193407500Y-116000000D03*
%TD*%
D26*
%TO.C,C71*%
X153000000Y-139600000D03*
X153000000Y-138640000D03*
%TD*%
D18*
%TO.C,C24*%
X155480000Y-120200000D03*
X154520000Y-120200000D03*
%TD*%
D19*
%TO.C,U143*%
X255175000Y-143375000D03*
X255175000Y-142725000D03*
X255175000Y-142075000D03*
X253275000Y-142075000D03*
X253275000Y-142725000D03*
X253275000Y-143375000D03*
%TD*%
D18*
%TO.C,C26*%
X155480000Y-121800000D03*
X154520000Y-121800000D03*
%TD*%
%TO.C,C117*%
X194367500Y-123200000D03*
X193407500Y-123200000D03*
%TD*%
D17*
%TO.C,C112*%
X174645000Y-129825000D03*
X175605000Y-129825000D03*
%TD*%
D15*
%TO.C,R203*%
X243635000Y-117825000D03*
X242615000Y-117825000D03*
%TD*%
D16*
%TO.C,R66*%
X156490000Y-141800000D03*
X157510000Y-141800000D03*
%TD*%
D17*
%TO.C,C127*%
X174645000Y-135425000D03*
X175605000Y-135425000D03*
%TD*%
D18*
%TO.C,C8*%
X160230000Y-96500000D03*
X159270000Y-96500000D03*
%TD*%
D16*
%TO.C,R81*%
X170115000Y-122625000D03*
X171135000Y-122625000D03*
%TD*%
D23*
%TO.C,U9*%
X144800000Y-120550000D03*
X144800000Y-121200000D03*
X144800000Y-121850000D03*
X146700000Y-121850000D03*
X146700000Y-121200000D03*
X146700000Y-120550000D03*
%TD*%
D17*
%TO.C,C257*%
X244655000Y-133825000D03*
X245615000Y-133825000D03*
%TD*%
D19*
%TO.C,U136*%
X250525000Y-136475000D03*
X250525000Y-135825000D03*
X250525000Y-135175000D03*
X248625000Y-135175000D03*
X248625000Y-135825000D03*
X248625000Y-136475000D03*
%TD*%
D16*
%TO.C,R279*%
X246400000Y-84153750D03*
X247420000Y-84153750D03*
%TD*%
D15*
%TO.C,R192*%
X229910000Y-143400000D03*
X228890000Y-143400000D03*
%TD*%
D18*
%TO.C,C205*%
X225480000Y-140200000D03*
X224520000Y-140200000D03*
%TD*%
D23*
%TO.C,U75*%
X219550000Y-117350000D03*
X219550000Y-118000000D03*
X219550000Y-118650000D03*
X221450000Y-118650000D03*
X221450000Y-118000000D03*
X221450000Y-117350000D03*
%TD*%
D15*
%TO.C,R48*%
X159910000Y-136200000D03*
X158890000Y-136200000D03*
%TD*%
D18*
%TO.C,C154*%
X225480000Y-118600000D03*
X224520000Y-118600000D03*
%TD*%
D16*
%TO.C,R28*%
X156490000Y-125800000D03*
X157510000Y-125800000D03*
%TD*%
D18*
%TO.C,C287*%
X264367500Y-137600000D03*
X263407500Y-137600000D03*
%TD*%
D36*
%TO.C,U110*%
X211362500Y-143675000D03*
X211362500Y-143025000D03*
X211362500Y-142375000D03*
X211362500Y-141725000D03*
X211362500Y-141075000D03*
X211362500Y-140425000D03*
X211362500Y-139775000D03*
X211362500Y-139125000D03*
X205637500Y-139125000D03*
X205637500Y-139775000D03*
X205637500Y-140425000D03*
X205637500Y-141075000D03*
X205637500Y-141725000D03*
X205637500Y-142375000D03*
X205637500Y-143025000D03*
X205637500Y-143675000D03*
%TD*%
D23*
%TO.C,U3*%
X149550000Y-117350000D03*
X149550000Y-118000000D03*
X149550000Y-118650000D03*
X151450000Y-118650000D03*
X151450000Y-118000000D03*
X151450000Y-117350000D03*
%TD*%
D15*
%TO.C,R282*%
X247430000Y-89853750D03*
X246410000Y-89853750D03*
%TD*%
D19*
%TO.C,U125*%
X255175000Y-128975000D03*
X255175000Y-128325000D03*
X255175000Y-127675000D03*
X253275000Y-127675000D03*
X253275000Y-128325000D03*
X253275000Y-128975000D03*
%TD*%
D16*
%TO.C,R207*%
X240115000Y-121025000D03*
X241135000Y-121025000D03*
%TD*%
D17*
%TO.C,C238*%
X244645000Y-125025000D03*
X245605000Y-125025000D03*
%TD*%
D21*
%TO.C,C150*%
X181725000Y-142745000D03*
X181725000Y-143705000D03*
%TD*%
D16*
%TO.C,R201*%
X240115000Y-119425000D03*
X241135000Y-119425000D03*
%TD*%
D26*
%TO.C,C166*%
X218263500Y-121200000D03*
X218263500Y-120240000D03*
%TD*%
D19*
%TO.C,U58*%
X185175000Y-133175000D03*
X185175000Y-132525000D03*
X185175000Y-131875000D03*
X183275000Y-131875000D03*
X183275000Y-132525000D03*
X183275000Y-133175000D03*
%TD*%
D44*
%TO.C,C295*%
X193775000Y-78937500D03*
X192225000Y-78937500D03*
%TD*%
D26*
%TO.C,C81*%
X148263500Y-142800000D03*
X148263500Y-141840000D03*
%TD*%
D22*
%TO.C,U119*%
X258625000Y-117225000D03*
X258625000Y-117875000D03*
X258625000Y-118525000D03*
X258625000Y-119175000D03*
X258625000Y-119825000D03*
X258625000Y-120475000D03*
X258625000Y-121125000D03*
X258625000Y-121775000D03*
X264350000Y-121775000D03*
X264350000Y-121125000D03*
X264350000Y-120475000D03*
X264350000Y-119825000D03*
X264350000Y-119175000D03*
X264350000Y-118525000D03*
X264350000Y-117875000D03*
X264350000Y-117225000D03*
%TD*%
D16*
%TO.C,R263*%
X247290000Y-74250000D03*
X248310000Y-74250000D03*
%TD*%
%TO.C,R239*%
X240115000Y-135425000D03*
X241135000Y-135425000D03*
%TD*%
%TO.C,R97*%
X170115000Y-129825000D03*
X171135000Y-129825000D03*
%TD*%
D32*
%TO.C,C4*%
X168839999Y-90665000D03*
X168839999Y-89115000D03*
%TD*%
D17*
%TO.C,C85*%
X174645000Y-117825000D03*
X175605000Y-117825000D03*
%TD*%
D26*
%TO.C,C181*%
X223000000Y-128380000D03*
X223000000Y-127420000D03*
%TD*%
D18*
%TO.C,C41*%
X155480000Y-127400000D03*
X154520000Y-127400000D03*
%TD*%
D23*
%TO.C,U12*%
X149550000Y-124550000D03*
X149550000Y-125200000D03*
X149550000Y-125850000D03*
X151450000Y-125850000D03*
X151450000Y-125200000D03*
X151450000Y-124550000D03*
%TD*%
D17*
%TO.C,C219*%
X205620000Y-144800000D03*
X206580000Y-144800000D03*
%TD*%
D19*
%TO.C,U116*%
X255175000Y-121775000D03*
X255175000Y-121125000D03*
X255175000Y-120475000D03*
X253275000Y-120475000D03*
X253275000Y-121125000D03*
X253275000Y-121775000D03*
%TD*%
D18*
%TO.C,C177*%
X225480000Y-127400000D03*
X224520000Y-127400000D03*
%TD*%
%TO.C,C151*%
X194367500Y-137600000D03*
X193407500Y-137600000D03*
%TD*%
D16*
%TO.C,R12*%
X156490000Y-118600000D03*
X157510000Y-118600000D03*
%TD*%
D26*
%TO.C,C192*%
X218250000Y-132400000D03*
X218250000Y-131440000D03*
%TD*%
D16*
%TO.C,R225*%
X240115000Y-129825000D03*
X241135000Y-129825000D03*
%TD*%
D19*
%TO.C,U118*%
X250525000Y-122075000D03*
X250525000Y-121425000D03*
X250525000Y-120775000D03*
X248625000Y-120775000D03*
X248625000Y-121425000D03*
X248625000Y-122075000D03*
%TD*%
D21*
%TO.C,C108*%
X181725000Y-125345000D03*
X181725000Y-126305000D03*
%TD*%
D17*
%TO.C,C110*%
X174645000Y-128225000D03*
X175605000Y-128225000D03*
%TD*%
D15*
%TO.C,R2*%
X171460000Y-99250000D03*
X170440000Y-99250000D03*
%TD*%
D26*
%TO.C,C198*%
X223000000Y-135580000D03*
X223000000Y-134620000D03*
%TD*%
D16*
%TO.C,R162*%
X226490000Y-127400000D03*
X227510000Y-127400000D03*
%TD*%
D26*
%TO.C,C158*%
X218250000Y-118000000D03*
X218250000Y-117040000D03*
%TD*%
D16*
%TO.C,R87*%
X170115000Y-125025000D03*
X171135000Y-125025000D03*
%TD*%
D36*
%TO.C,U83*%
X211362500Y-122075000D03*
X211362500Y-121425000D03*
X211362500Y-120775000D03*
X211362500Y-120125000D03*
X211362500Y-119475000D03*
X211362500Y-118825000D03*
X211362500Y-118175000D03*
X211362500Y-117525000D03*
X205637500Y-117525000D03*
X205637500Y-118175000D03*
X205637500Y-118825000D03*
X205637500Y-119475000D03*
X205637500Y-120125000D03*
X205637500Y-120775000D03*
X205637500Y-121425000D03*
X205637500Y-122075000D03*
%TD*%
D16*
%TO.C,R274*%
X167640000Y-101300000D03*
X168660000Y-101300000D03*
%TD*%
D21*
%TO.C,C91*%
X181725000Y-118145000D03*
X181725000Y-119105000D03*
%TD*%
D45*
%TO.C,Y1*%
X160340000Y-104420000D03*
X160340000Y-102220000D03*
X158740000Y-102220000D03*
X158740000Y-104420000D03*
%TD*%
D16*
%TO.C,R186*%
X226490000Y-138600000D03*
X227510000Y-138600000D03*
%TD*%
D21*
%TO.C,C133*%
X181725000Y-135545000D03*
X181725000Y-136505000D03*
%TD*%
%TO.C,C259*%
X247025000Y-132845000D03*
X247025000Y-133805000D03*
%TD*%
%TO.C,C250*%
X247025000Y-128645000D03*
X247025000Y-129605000D03*
%TD*%
D16*
%TO.C,R20*%
X156490000Y-121800000D03*
X157510000Y-121800000D03*
%TD*%
D15*
%TO.C,R54*%
X159910000Y-138600000D03*
X158890000Y-138600000D03*
%TD*%
%TO.C,R176*%
X229910000Y-136200000D03*
X228890000Y-136200000D03*
%TD*%
D46*
%TO.C,U148*%
X147600000Y-91000000D03*
X147600000Y-90500000D03*
X147600000Y-90000000D03*
X147600000Y-89500000D03*
X147600000Y-89000000D03*
X143375000Y-89000000D03*
X143375000Y-89500000D03*
X143375000Y-90000000D03*
X143375000Y-90500000D03*
X143375000Y-91000000D03*
%TD*%
D15*
%TO.C,R265*%
X201510000Y-68400000D03*
X200490000Y-68400000D03*
%TD*%
D19*
%TO.C,U62*%
X185175000Y-136175000D03*
X185175000Y-135525000D03*
X185175000Y-134875000D03*
X183275000Y-134875000D03*
X183275000Y-135525000D03*
X183275000Y-136175000D03*
%TD*%
D26*
%TO.C,C64*%
X148263500Y-135600000D03*
X148263500Y-134640000D03*
%TD*%
%TO.C,C13*%
X165769999Y-89480000D03*
X165769999Y-88520000D03*
%TD*%
D17*
%TO.C,C12*%
X169490000Y-91980000D03*
X170450000Y-91980000D03*
%TD*%
D15*
%TO.C,R229*%
X243635000Y-129825000D03*
X242615000Y-129825000D03*
%TD*%
D16*
%TO.C,R138*%
X226490000Y-117000000D03*
X227510000Y-117000000D03*
%TD*%
D15*
%TO.C,R115*%
X173635000Y-135425000D03*
X172615000Y-135425000D03*
%TD*%
D21*
%TO.C,C99*%
X181725000Y-121145000D03*
X181725000Y-122105000D03*
%TD*%
D20*
%TO.C,R269*%
X237950000Y-84540000D03*
X237950000Y-85560000D03*
%TD*%
D21*
%TO.C,C284*%
X247025000Y-143045000D03*
X247025000Y-144005000D03*
%TD*%
D26*
%TO.C,C217*%
X218263500Y-142800000D03*
X218263500Y-141840000D03*
%TD*%
D21*
%TO.C,C225*%
X247025000Y-118445000D03*
X247025000Y-119405000D03*
%TD*%
D23*
%TO.C,U99*%
X214800000Y-134950000D03*
X214800000Y-135600000D03*
X214800000Y-136250000D03*
X216700000Y-136250000D03*
X216700000Y-135600000D03*
X216700000Y-134950000D03*
%TD*%
%TO.C,U27*%
X144800000Y-134950000D03*
X144800000Y-135600000D03*
X144800000Y-136250000D03*
X146700000Y-136250000D03*
X146700000Y-135600000D03*
X146700000Y-134950000D03*
%TD*%
D15*
%TO.C,R136*%
X229910000Y-118600000D03*
X228890000Y-118600000D03*
%TD*%
%TO.C,R133*%
X173635000Y-144225000D03*
X172615000Y-144225000D03*
%TD*%
D20*
%TO.C,R5*%
X164200000Y-100490000D03*
X164200000Y-101510000D03*
%TD*%
D17*
%TO.C,C223*%
X244655000Y-119425000D03*
X245615000Y-119425000D03*
%TD*%
D28*
%TO.C,C305*%
X226250000Y-68025000D03*
X226250000Y-69575000D03*
%TD*%
D26*
%TO.C,C294*%
X240070000Y-85483750D03*
X240070000Y-84523750D03*
%TD*%
D21*
%TO.C,C267*%
X247025000Y-135845000D03*
X247025000Y-136805000D03*
%TD*%
D19*
%TO.C,U60*%
X180525000Y-133475000D03*
X180525000Y-132825000D03*
X180525000Y-132175000D03*
X178625000Y-132175000D03*
X178625000Y-132825000D03*
X178625000Y-133475000D03*
%TD*%
D21*
%TO.C,C244*%
X251725000Y-125345000D03*
X251725000Y-126305000D03*
%TD*%
D19*
%TO.C,U64*%
X180525000Y-136475000D03*
X180525000Y-135825000D03*
X180525000Y-135175000D03*
X178625000Y-135175000D03*
X178625000Y-135825000D03*
X178625000Y-136475000D03*
%TD*%
D16*
%TO.C,R287*%
X230490000Y-78600000D03*
X231510000Y-78600000D03*
%TD*%
D23*
%TO.C,U102*%
X219550000Y-138950000D03*
X219550000Y-139600000D03*
X219550000Y-140250000D03*
X221450000Y-140250000D03*
X221450000Y-139600000D03*
X221450000Y-138950000D03*
%TD*%
D17*
%TO.C,C119*%
X174645000Y-132225000D03*
X175605000Y-132225000D03*
%TD*%
D15*
%TO.C,R8*%
X159910000Y-118600000D03*
X158890000Y-118600000D03*
%TD*%
D21*
%TO.C,C252*%
X251725000Y-128345000D03*
X251725000Y-129305000D03*
%TD*%
D18*
%TO.C,C179*%
X225480000Y-129000000D03*
X224520000Y-129000000D03*
%TD*%
D21*
%TO.C,C261*%
X251725000Y-132545000D03*
X251725000Y-133505000D03*
%TD*%
D16*
%TO.C,R140*%
X226490000Y-118600000D03*
X227510000Y-118600000D03*
%TD*%
D18*
%TO.C,C35*%
X155480000Y-125800000D03*
X154520000Y-125800000D03*
%TD*%
D17*
%TO.C,C282*%
X244645000Y-144225000D03*
X245605000Y-144225000D03*
%TD*%
D21*
%TO.C,C242*%
X247025000Y-125645000D03*
X247025000Y-126605000D03*
%TD*%
D25*
%TO.C,D3*%
X199050000Y-72400000D03*
X202350000Y-72400000D03*
%TD*%
D21*
%TO.C,C298*%
X204000000Y-82820000D03*
X204000000Y-83780000D03*
%TD*%
D18*
%TO.C,C186*%
X225480000Y-131400000D03*
X224520000Y-131400000D03*
%TD*%
D19*
%TO.C,U127*%
X250525000Y-129275000D03*
X250525000Y-128625000D03*
X250525000Y-127975000D03*
X248625000Y-127975000D03*
X248625000Y-128625000D03*
X248625000Y-129275000D03*
%TD*%
D15*
%TO.C,R221*%
X243645000Y-126625000D03*
X242625000Y-126625000D03*
%TD*%
D16*
%TO.C,R52*%
X156490000Y-136200000D03*
X157510000Y-136200000D03*
%TD*%
D18*
%TO.C,C236*%
X264367500Y-116000000D03*
X263407500Y-116000000D03*
%TD*%
D47*
%TO.C,U2*%
X164130000Y-94700000D03*
X164130000Y-96300000D03*
X165730000Y-94700000D03*
X165730000Y-96300000D03*
D48*
X161492500Y-92900000D03*
X161492500Y-93300000D03*
X161492500Y-93700000D03*
X161492500Y-94100000D03*
X161492500Y-94500000D03*
X161492500Y-94900000D03*
X161492500Y-95300000D03*
X161492500Y-95700000D03*
X161492500Y-96100000D03*
X161492500Y-96500000D03*
X161492500Y-96900000D03*
X161492500Y-97300000D03*
X161492500Y-97700000D03*
X161492500Y-98100000D03*
D49*
X162330000Y-98937500D03*
X162730000Y-98937500D03*
X163130000Y-98937500D03*
X163530000Y-98937500D03*
X163930000Y-98937500D03*
X164330000Y-98937500D03*
X164730000Y-98937500D03*
X165130000Y-98937500D03*
X165530000Y-98937500D03*
X165930000Y-98937500D03*
X166330000Y-98937500D03*
X166730000Y-98937500D03*
X167130000Y-98937500D03*
X167530000Y-98937500D03*
D48*
X168367500Y-98100000D03*
X168367500Y-97700000D03*
X168367500Y-97300000D03*
X168367500Y-96900000D03*
X168367500Y-96500000D03*
X168367500Y-96100000D03*
X168367500Y-95700000D03*
X168367500Y-95300000D03*
X168367500Y-94900000D03*
X168367500Y-94500000D03*
X168367500Y-94100000D03*
X168367500Y-93700000D03*
X168367500Y-93300000D03*
X168367500Y-92900000D03*
D49*
X167530000Y-92062500D03*
X167130000Y-92062500D03*
X166730000Y-92062500D03*
X166330000Y-92062500D03*
X165930000Y-92062500D03*
X165530000Y-92062500D03*
X165130000Y-92062500D03*
X164730000Y-92062500D03*
X164330000Y-92062500D03*
X163930000Y-92062500D03*
X163530000Y-92062500D03*
X163130000Y-92062500D03*
X162730000Y-92062500D03*
X162330000Y-92062500D03*
%TD*%
D26*
%TO.C,C2*%
X161800000Y-102580000D03*
X161800000Y-101620000D03*
%TD*%
D16*
%TO.C,R286*%
X227040000Y-78450000D03*
X228060000Y-78450000D03*
%TD*%
D26*
%TO.C,C183*%
X218263500Y-128400000D03*
X218263500Y-127440000D03*
%TD*%
D18*
%TO.C,C43*%
X155480000Y-129000000D03*
X154520000Y-129000000D03*
%TD*%
D17*
%TO.C,C66*%
X135620000Y-137600000D03*
X136580000Y-137600000D03*
%TD*%
%TO.C,C49*%
X135620000Y-130400000D03*
X136580000Y-130400000D03*
%TD*%
D18*
%TO.C,C211*%
X225480000Y-141800000D03*
X224520000Y-141800000D03*
%TD*%
D26*
%TO.C,C62*%
X153000000Y-135580000D03*
X153000000Y-134620000D03*
%TD*%
D21*
%TO.C,C114*%
X177025000Y-128645000D03*
X177025000Y-129605000D03*
%TD*%
D19*
%TO.C,U53*%
X185175000Y-128975000D03*
X185175000Y-128325000D03*
X185175000Y-127675000D03*
X183275000Y-127675000D03*
X183275000Y-128325000D03*
X183275000Y-128975000D03*
%TD*%
D17*
%TO.C,C168*%
X205620000Y-123200000D03*
X206580000Y-123200000D03*
%TD*%
D21*
%TO.C,C142*%
X181725000Y-139745000D03*
X181725000Y-140705000D03*
%TD*%
D15*
%TO.C,R190*%
X229910000Y-141800000D03*
X228890000Y-141800000D03*
%TD*%
D17*
%TO.C,C83*%
X135620000Y-144800000D03*
X136580000Y-144800000D03*
%TD*%
D16*
%TO.C,R196*%
X226490000Y-143400000D03*
X227510000Y-143400000D03*
%TD*%
D15*
%TO.C,R184*%
X229910000Y-140200000D03*
X228890000Y-140200000D03*
%TD*%
%TO.C,R213*%
X243635000Y-122625000D03*
X242615000Y-122625000D03*
%TD*%
D21*
%TO.C,C292*%
X245700000Y-73270000D03*
X245700000Y-74230000D03*
%TD*%
%TO.C,C276*%
X247025000Y-140045000D03*
X247025000Y-141005000D03*
%TD*%
D19*
%TO.C,U46*%
X180525000Y-122075000D03*
X180525000Y-121425000D03*
X180525000Y-120775000D03*
X178625000Y-120775000D03*
X178625000Y-121425000D03*
X178625000Y-122075000D03*
%TD*%
D26*
%TO.C,C37*%
X153000000Y-125200000D03*
X153000000Y-124240000D03*
%TD*%
D44*
%TO.C,C308*%
X237075000Y-70500000D03*
X235525000Y-70500000D03*
%TD*%
D19*
%TO.C,U145*%
X250525000Y-143675000D03*
X250525000Y-143025000D03*
X250525000Y-142375000D03*
X248625000Y-142375000D03*
X248625000Y-143025000D03*
X248625000Y-143675000D03*
%TD*%
D32*
%TO.C,C304*%
X226250000Y-73025000D03*
X226250000Y-71475000D03*
%TD*%
D16*
%TO.C,R89*%
X170115000Y-126625000D03*
X171135000Y-126625000D03*
%TD*%
D18*
%TO.C,C162*%
X225480000Y-121800000D03*
X224520000Y-121800000D03*
%TD*%
D21*
%TO.C,C278*%
X251725000Y-139745000D03*
X251725000Y-140705000D03*
%TD*%
D18*
%TO.C,C160*%
X225480000Y-120200000D03*
X224520000Y-120200000D03*
%TD*%
%TO.C,C213*%
X225480000Y-143400000D03*
X224520000Y-143400000D03*
%TD*%
D16*
%TO.C,R26*%
X156490000Y-124200000D03*
X157510000Y-124200000D03*
%TD*%
D18*
%TO.C,C50*%
X155480000Y-131400000D03*
X154520000Y-131400000D03*
%TD*%
D21*
%TO.C,C97*%
X177025000Y-121445000D03*
X177025000Y-122405000D03*
%TD*%
D23*
%TO.C,U86*%
X214800000Y-124550000D03*
X214800000Y-125200000D03*
X214800000Y-125850000D03*
X216700000Y-125850000D03*
X216700000Y-125200000D03*
X216700000Y-124550000D03*
%TD*%
D17*
%TO.C,C102*%
X174645000Y-125025000D03*
X175605000Y-125025000D03*
%TD*%
D50*
%TO.C,U147*%
X138550000Y-90750000D03*
X137900000Y-90750000D03*
X137250000Y-90750000D03*
X137250000Y-92650000D03*
X137900000Y-92650000D03*
X138550000Y-92650000D03*
%TD*%
D51*
%TO.C,U150*%
X241682500Y-85903750D03*
X241682500Y-86853750D03*
X241682500Y-87803750D03*
X243957500Y-87803750D03*
X243957500Y-85903750D03*
%TD*%
D23*
%TO.C,U32*%
X144800000Y-138950000D03*
X144800000Y-139600000D03*
X144800000Y-140250000D03*
X146700000Y-140250000D03*
X146700000Y-139600000D03*
X146700000Y-138950000D03*
%TD*%
D38*
%TO.C,R4*%
X167639999Y-89510000D03*
X167639999Y-88490000D03*
%TD*%
D18*
%TO.C,C69*%
X155480000Y-140200000D03*
X154520000Y-140200000D03*
%TD*%
D15*
%TO.C,R56*%
X159910000Y-140200000D03*
X158890000Y-140200000D03*
%TD*%
D23*
%TO.C,U84*%
X219550000Y-124550000D03*
X219550000Y-125200000D03*
X219550000Y-125850000D03*
X221450000Y-125850000D03*
X221450000Y-125200000D03*
X221450000Y-124550000D03*
%TD*%
D25*
%TO.C,D2*%
X153000000Y-73000000D03*
X156300000Y-73000000D03*
%TD*%
D15*
%TO.C,R281*%
X247430000Y-82953750D03*
X246410000Y-82953750D03*
%TD*%
D26*
%TO.C,C209*%
X218250000Y-139600000D03*
X218250000Y-138640000D03*
%TD*%
D15*
%TO.C,R77*%
X173645000Y-119425000D03*
X172625000Y-119425000D03*
%TD*%
D18*
%TO.C,C75*%
X155480000Y-141800000D03*
X154520000Y-141800000D03*
%TD*%
D52*
%TO.C,U151*%
X193750000Y-81000000D03*
X192800000Y-81000000D03*
X191850000Y-81000000D03*
X191850000Y-83275000D03*
X193750000Y-83275000D03*
%TD*%
D15*
%TO.C,R182*%
X229910000Y-138600000D03*
X228890000Y-138600000D03*
%TD*%
%TO.C,R245*%
X243635000Y-137025000D03*
X242615000Y-137025000D03*
%TD*%
%TO.C,R150*%
X229910000Y-124200000D03*
X228890000Y-124200000D03*
%TD*%
D53*
%TO.C,U149*%
X250100000Y-73000000D03*
X250100000Y-72500000D03*
X250100000Y-72000000D03*
X250100000Y-71500000D03*
X247300000Y-71500000D03*
X247300000Y-72000000D03*
X247300000Y-72500000D03*
X247300000Y-73000000D03*
%TD*%
D23*
%TO.C,U36*%
X144800000Y-142150000D03*
X144800000Y-142800000D03*
X144800000Y-143450000D03*
X146700000Y-143450000D03*
X146700000Y-142800000D03*
X146700000Y-142150000D03*
%TD*%
D16*
%TO.C,R180*%
X226490000Y-136200000D03*
X227510000Y-136200000D03*
%TD*%
D15*
%TO.C,R158*%
X229910000Y-127400000D03*
X228890000Y-127400000D03*
%TD*%
%TO.C,R117*%
X173635000Y-137025000D03*
X172615000Y-137025000D03*
%TD*%
D17*
%TO.C,C240*%
X244655000Y-126625000D03*
X245615000Y-126625000D03*
%TD*%
%TO.C,C265*%
X244645000Y-137025000D03*
X245605000Y-137025000D03*
%TD*%
D15*
%TO.C,R134*%
X229910000Y-117000000D03*
X228890000Y-117000000D03*
%TD*%
D54*
%TO.C,D4*%
X208300000Y-57612500D03*
X208300000Y-59187500D03*
%TD*%
D15*
%TO.C,R109*%
X173645000Y-133825000D03*
X172625000Y-133825000D03*
%TD*%
D16*
%TO.C,R272*%
X201690000Y-81700000D03*
X202710000Y-81700000D03*
%TD*%
%TO.C,R79*%
X170115000Y-121025000D03*
X171135000Y-121025000D03*
%TD*%
D21*
%TO.C,C233*%
X247025000Y-121445000D03*
X247025000Y-122405000D03*
%TD*%
D26*
%TO.C,C79*%
X153000000Y-142780000D03*
X153000000Y-141820000D03*
%TD*%
D55*
%TO.C,C301*%
X231275000Y-67900000D03*
X228325000Y-67900000D03*
%TD*%
D26*
%TO.C,C190*%
X223000000Y-132400000D03*
X223000000Y-131440000D03*
%TD*%
D16*
%TO.C,R146*%
X226490000Y-120200000D03*
X227510000Y-120200000D03*
%TD*%
%TO.C,R10*%
X156490000Y-117000000D03*
X157510000Y-117000000D03*
%TD*%
%TO.C,R105*%
X170115000Y-133825000D03*
X171135000Y-133825000D03*
%TD*%
D15*
%TO.C,R14*%
X159910000Y-120200000D03*
X158890000Y-120200000D03*
%TD*%
D16*
%TO.C,R249*%
X240115000Y-141025000D03*
X241135000Y-141025000D03*
%TD*%
D15*
%TO.C,R85*%
X173635000Y-122625000D03*
X172615000Y-122625000D03*
%TD*%
%TO.C,R142*%
X229910000Y-120200000D03*
X228890000Y-120200000D03*
%TD*%
D18*
%TO.C,C77*%
X155480000Y-143400000D03*
X154520000Y-143400000D03*
%TD*%
D26*
%TO.C,C47*%
X148263500Y-128400000D03*
X148263500Y-127440000D03*
%TD*%
D19*
%TO.C,U132*%
X250525000Y-133475000D03*
X250525000Y-132825000D03*
X250525000Y-132175000D03*
X248625000Y-132175000D03*
X248625000Y-132825000D03*
X248625000Y-133475000D03*
%TD*%
D16*
%TO.C,R103*%
X170115000Y-132225000D03*
X171135000Y-132225000D03*
%TD*%
%TO.C,R178*%
X226490000Y-134600000D03*
X227510000Y-134600000D03*
%TD*%
D23*
%TO.C,U104*%
X214800000Y-138950000D03*
X214800000Y-139600000D03*
X214800000Y-140250000D03*
X216700000Y-140250000D03*
X216700000Y-139600000D03*
X216700000Y-138950000D03*
%TD*%
D19*
%TO.C,U67*%
X185175000Y-140375000D03*
X185175000Y-139725000D03*
X185175000Y-139075000D03*
X183275000Y-139075000D03*
X183275000Y-139725000D03*
X183275000Y-140375000D03*
%TD*%
D56*
%TO.C,C302*%
X229925000Y-70050000D03*
X231475000Y-70050000D03*
%TD*%
D16*
%TO.C,R34*%
X156490000Y-127400000D03*
X157510000Y-127400000D03*
%TD*%
D57*
%TO.C,J1*%
X180630000Y-100900000D03*
X180630000Y-95850000D03*
X183170000Y-100900000D03*
X183170000Y-95850000D03*
X185710000Y-100900000D03*
X185710000Y-95850000D03*
X188250000Y-100900000D03*
X188250000Y-95850000D03*
X190790000Y-100900000D03*
X190790000Y-95850000D03*
%TD*%
D16*
%TO.C,R68*%
X156490000Y-143400000D03*
X157510000Y-143400000D03*
%TD*%
D17*
%TO.C,C121*%
X174655000Y-133825000D03*
X175615000Y-133825000D03*
%TD*%
D16*
%TO.C,R255*%
X240115000Y-142625000D03*
X241135000Y-142625000D03*
%TD*%
D15*
%TO.C,R125*%
X173645000Y-141025000D03*
X172625000Y-141025000D03*
%TD*%
%TO.C,R99*%
X173635000Y-128225000D03*
X172615000Y-128225000D03*
%TD*%
D33*
%TO.C,C299*%
X204325000Y-72300000D03*
X207275000Y-72300000D03*
%TD*%
D16*
%TO.C,R44*%
X156490000Y-133000000D03*
X157510000Y-133000000D03*
%TD*%
D18*
%TO.C,C52*%
X155480000Y-133000000D03*
X154520000Y-133000000D03*
%TD*%
D15*
%TO.C,R83*%
X173635000Y-121025000D03*
X172615000Y-121025000D03*
%TD*%
D21*
%TO.C,C148*%
X177025000Y-143045000D03*
X177025000Y-144005000D03*
%TD*%
D23*
%TO.C,U79*%
X219550000Y-120550000D03*
X219550000Y-121200000D03*
X219550000Y-121850000D03*
X221450000Y-121850000D03*
X221450000Y-121200000D03*
X221450000Y-120550000D03*
%TD*%
D37*
%TO.C,Q4*%
X226550000Y-76725000D03*
X228450000Y-76725000D03*
X227500000Y-74850000D03*
%TD*%
D23*
%TO.C,U90*%
X214800000Y-127750000D03*
X214800000Y-128400000D03*
X214800000Y-129050000D03*
X216700000Y-129050000D03*
X216700000Y-128400000D03*
X216700000Y-127750000D03*
%TD*%
D16*
%TO.C,R241*%
X240115000Y-137025000D03*
X241135000Y-137025000D03*
%TD*%
D17*
%TO.C,C146*%
X174645000Y-144225000D03*
X175605000Y-144225000D03*
%TD*%
D15*
%TO.C,R243*%
X243635000Y-135425000D03*
X242615000Y-135425000D03*
%TD*%
D18*
%TO.C,C7*%
X160330000Y-92500000D03*
X159370000Y-92500000D03*
%TD*%
D16*
%TO.C,R276*%
X157240000Y-93800000D03*
X158260000Y-93800000D03*
%TD*%
%TO.C,R113*%
X170115000Y-137025000D03*
X171135000Y-137025000D03*
%TD*%
D23*
%TO.C,U14*%
X144800000Y-124550000D03*
X144800000Y-125200000D03*
X144800000Y-125850000D03*
X146700000Y-125850000D03*
X146700000Y-125200000D03*
X146700000Y-124550000D03*
%TD*%
D16*
%TO.C,R50*%
X156490000Y-134600000D03*
X157510000Y-134600000D03*
%TD*%
%TO.C,R188*%
X226490000Y-140200000D03*
X227510000Y-140200000D03*
%TD*%
D26*
%TO.C,C200*%
X218263500Y-135600000D03*
X218263500Y-134640000D03*
%TD*%
D22*
%TO.C,U146*%
X258625000Y-138825000D03*
X258625000Y-139475000D03*
X258625000Y-140125000D03*
X258625000Y-140775000D03*
X258625000Y-141425000D03*
X258625000Y-142075000D03*
X258625000Y-142725000D03*
X258625000Y-143375000D03*
X264350000Y-143375000D03*
X264350000Y-142725000D03*
X264350000Y-142075000D03*
X264350000Y-141425000D03*
X264350000Y-140775000D03*
X264350000Y-140125000D03*
X264350000Y-139475000D03*
X264350000Y-138825000D03*
%TD*%
D58*
%TO.C,Q3*%
X199925000Y-82025000D03*
X199925000Y-80125000D03*
X198050000Y-81075000D03*
%TD*%
D18*
%TO.C,C171*%
X225480000Y-125800000D03*
X224520000Y-125800000D03*
%TD*%
D16*
%TO.C,R247*%
X240115000Y-139425000D03*
X241135000Y-139425000D03*
%TD*%
D18*
%TO.C,C58*%
X155480000Y-134600000D03*
X154520000Y-134600000D03*
%TD*%
M02*
