%TF.GenerationSoftware,KiCad,Pcbnew,9.0.6*%
%TF.CreationDate,2026-02-25T16:21:40-05:00*%
%TF.ProjectId,ephys-test-board,65706879-732d-4746-9573-742d626f6172,G*%
%TF.SameCoordinates,PX7735940PYa6e49c0*%
%TF.FileFunction,Paste,Bot*%
%TF.FilePolarity,Positive*%
%FSLAX46Y46*%
G04 Gerber Fmt 4.6, Leading zero omitted, Abs format (unit mm)*
G04 Created by KiCad (PCBNEW 9.0.6) date 2026-02-25 16:21:40*
%MOMM*%
%LPD*%
G01*
G04 APERTURE LIST*
G04 Aperture macros list*
%AMRoundRect*
0 Rectangle with rounded corners*
0 $1 Rounding radius*
0 $2 $3 $4 $5 $6 $7 $8 $9 X,Y pos of 4 corners*
0 Add a 4 corners polygon primitive as box body*
4,1,4,$2,$3,$4,$5,$6,$7,$8,$9,$2,$3,0*
0 Add four circle primitives for the rounded corners*
1,1,$1+$1,$2,$3*
1,1,$1+$1,$4,$5*
1,1,$1+$1,$6,$7*
1,1,$1+$1,$8,$9*
0 Add four rect primitives between the rounded corners*
20,1,$1+$1,$2,$3,$4,$5,0*
20,1,$1+$1,$4,$5,$6,$7,0*
20,1,$1+$1,$6,$7,$8,$9,0*
20,1,$1+$1,$8,$9,$2,$3,0*%
G04 Aperture macros list end*
%ADD10RoundRect,0.135000X-0.135000X-0.185000X0.135000X-0.185000X0.135000X0.185000X-0.135000X0.185000X0*%
%ADD11RoundRect,0.140000X-0.140000X-0.170000X0.140000X-0.170000X0.140000X0.170000X-0.140000X0.170000X0*%
%ADD12RoundRect,0.135000X0.135000X0.185000X-0.135000X0.185000X-0.135000X-0.185000X0.135000X-0.185000X0*%
%ADD13RoundRect,0.140000X0.140000X0.170000X-0.140000X0.170000X-0.140000X-0.170000X0.140000X-0.170000X0*%
%ADD14R,0.300000X1.300000*%
%ADD15R,1.800000X2.200000*%
%ADD16RoundRect,0.250000X0.250000X1.500000X-0.250000X1.500000X-0.250000X-1.500000X0.250000X-1.500000X0*%
%ADD17RoundRect,0.250001X0.499999X1.449999X-0.499999X1.449999X-0.499999X-1.449999X0.499999X-1.449999X0*%
G04 APERTURE END LIST*
D10*
%TO.C,R68*%
X32670000Y32400000D03*
X33690000Y32400000D03*
%TD*%
%TO.C,R190*%
X102670000Y34000000D03*
X103690000Y34000000D03*
%TD*%
D11*
%TO.C,C84*%
X124020000Y44635001D03*
X124980000Y44635001D03*
%TD*%
D10*
%TO.C,R162*%
X100670000Y48400000D03*
X101690000Y48400000D03*
%TD*%
D12*
%TO.C,R79*%
X49330000Y58000000D03*
X48310000Y58000000D03*
%TD*%
%TO.C,R239*%
X119330000Y43575000D03*
X118310000Y43575000D03*
%TD*%
%TO.C,R237*%
X117330000Y42000000D03*
X116310000Y42000000D03*
%TD*%
D11*
%TO.C,C44*%
X54020000Y44635001D03*
X54980000Y44635001D03*
%TD*%
D12*
%TO.C,R117*%
X47330000Y38800000D03*
X46310000Y38800000D03*
%TD*%
%TO.C,R249*%
X119330000Y38775000D03*
X118310000Y38775000D03*
%TD*%
D13*
%TO.C,C56*%
X95980000Y58500000D03*
X95020000Y58500000D03*
%TD*%
D12*
%TO.C,R225*%
X119340000Y49175000D03*
X118320000Y49175000D03*
%TD*%
D11*
%TO.C,C37*%
X54020000Y55460000D03*
X54980000Y55460000D03*
%TD*%
D14*
%TO.C,J8*%
X102950000Y102750000D03*
X103450000Y102750000D03*
X103950000Y102750000D03*
X104450000Y102750000D03*
X104950000Y102750000D03*
X105450000Y102750000D03*
X105950000Y102750000D03*
X106450000Y102750000D03*
X106950000Y102750000D03*
X107450000Y102750000D03*
X107950000Y102750000D03*
X108450000Y102750000D03*
X108950000Y102750000D03*
X109450000Y102750000D03*
X109950000Y102750000D03*
X110450000Y102750000D03*
D15*
X101050000Y106000000D03*
X112350000Y106000000D03*
%TD*%
D12*
%TO.C,R251*%
X117330000Y36400000D03*
X116310000Y36400000D03*
%TD*%
%TO.C,R109*%
X47330000Y42000000D03*
X46310000Y42000000D03*
%TD*%
D10*
%TO.C,R48*%
X30670000Y42800000D03*
X31690000Y42800000D03*
%TD*%
%TO.C,R184*%
X100670000Y39600000D03*
X101690000Y39600000D03*
%TD*%
D12*
%TO.C,R113*%
X49340000Y42000000D03*
X48320000Y42000000D03*
%TD*%
%TO.C,R205*%
X117330000Y56400000D03*
X116310000Y56400000D03*
%TD*%
D10*
%TO.C,R28*%
X32670000Y50000000D03*
X33690000Y50000000D03*
%TD*%
D12*
%TO.C,R247*%
X119330000Y40375000D03*
X118310000Y40375000D03*
%TD*%
%TO.C,R257*%
X119340000Y34775000D03*
X118320000Y34775000D03*
%TD*%
D13*
%TO.C,C62*%
X98580000Y51275000D03*
X97620000Y51275000D03*
%TD*%
%TO.C,C73*%
X95980000Y33275000D03*
X95020000Y33275000D03*
%TD*%
D10*
%TO.C,R142*%
X102670000Y55600000D03*
X103690000Y55600000D03*
%TD*%
D13*
%TO.C,C61*%
X95980000Y51275000D03*
X95020000Y51275000D03*
%TD*%
D11*
%TO.C,C43*%
X51420000Y44635001D03*
X52380000Y44635001D03*
%TD*%
D12*
%TO.C,R103*%
X49330000Y47600000D03*
X48310000Y47600000D03*
%TD*%
%TO.C,R91*%
X47330000Y50800000D03*
X46310000Y50800000D03*
%TD*%
D10*
%TO.C,R72*%
X30670000Y32400000D03*
X31690000Y32400000D03*
%TD*%
D12*
%TO.C,R89*%
X49330000Y53200000D03*
X48310000Y53200000D03*
%TD*%
D10*
%TO.C,R194*%
X100670000Y34000000D03*
X101690000Y34000000D03*
%TD*%
%TO.C,R144*%
X100670000Y57200000D03*
X101690000Y57200000D03*
%TD*%
D13*
%TO.C,C32*%
X28580000Y33275000D03*
X27620000Y33275000D03*
%TD*%
D12*
%TO.C,R107*%
X47330000Y43600000D03*
X46310000Y43600000D03*
%TD*%
D11*
%TO.C,C83*%
X121420000Y44635001D03*
X122380000Y44635001D03*
%TD*%
D12*
%TO.C,R129*%
X49340000Y34800000D03*
X48320000Y34800000D03*
%TD*%
D13*
%TO.C,C16*%
X25980000Y58500000D03*
X25020000Y58500000D03*
%TD*%
D12*
%TO.C,R241*%
X119340000Y41975000D03*
X118320000Y41975000D03*
%TD*%
D11*
%TO.C,C82*%
X124020000Y48235001D03*
X124980000Y48235001D03*
%TD*%
%TO.C,C46*%
X51420000Y41035001D03*
X52380000Y41035001D03*
%TD*%
%TO.C,C54*%
X54020000Y30235001D03*
X54980000Y30235001D03*
%TD*%
D12*
%TO.C,R223*%
X119330000Y50775000D03*
X118310000Y50775000D03*
%TD*%
D13*
%TO.C,C17*%
X28580000Y58500000D03*
X27620000Y58500000D03*
%TD*%
D12*
%TO.C,R133*%
X47330000Y31600000D03*
X46310000Y31600000D03*
%TD*%
D13*
%TO.C,C22*%
X28580000Y51275000D03*
X27620000Y51275000D03*
%TD*%
D10*
%TO.C,R50*%
X30670000Y41200000D03*
X31690000Y41200000D03*
%TD*%
D11*
%TO.C,C92*%
X124020000Y33835001D03*
X124980000Y33835001D03*
%TD*%
D12*
%TO.C,R93*%
X47330000Y49200000D03*
X46310000Y49200000D03*
%TD*%
%TO.C,R121*%
X49330000Y38800000D03*
X48310000Y38800000D03*
%TD*%
%TO.C,R99*%
X47330000Y47600000D03*
X46310000Y47600000D03*
%TD*%
D11*
%TO.C,C49*%
X54020000Y37435001D03*
X54980000Y37435001D03*
%TD*%
%TO.C,C88*%
X121420000Y37435001D03*
X122380000Y37435001D03*
%TD*%
D10*
%TO.C,R160*%
X100670000Y50000000D03*
X101690000Y50000000D03*
%TD*%
D12*
%TO.C,R221*%
X117330000Y49200000D03*
X116310000Y49200000D03*
%TD*%
D13*
%TO.C,C58*%
X95980000Y54900000D03*
X95020000Y54900000D03*
%TD*%
D10*
%TO.C,R186*%
X100670000Y38000000D03*
X101690000Y38000000D03*
%TD*%
D11*
%TO.C,C36*%
X51420000Y55460000D03*
X52380000Y55460000D03*
%TD*%
D12*
%TO.C,R255*%
X119330000Y36375000D03*
X118310000Y36375000D03*
%TD*%
%TO.C,R97*%
X49340000Y49200000D03*
X48320000Y49200000D03*
%TD*%
D10*
%TO.C,R152*%
X100670000Y54000000D03*
X101690000Y54000000D03*
%TD*%
D11*
%TO.C,C52*%
X54020000Y33835001D03*
X54980000Y33835001D03*
%TD*%
D12*
%TO.C,R227*%
X117330000Y47600000D03*
X116310000Y47600000D03*
%TD*%
D13*
%TO.C,C26*%
X25980000Y40475000D03*
X25020000Y40475000D03*
%TD*%
D12*
%TO.C,R85*%
X47330000Y53200000D03*
X46310000Y53200000D03*
%TD*%
%TO.C,R243*%
X117330000Y40400000D03*
X116310000Y40400000D03*
%TD*%
D10*
%TO.C,R64*%
X30670000Y35600000D03*
X31690000Y35600000D03*
%TD*%
%TO.C,R178*%
X100670000Y41200000D03*
X101690000Y41200000D03*
%TD*%
D13*
%TO.C,C19*%
X28580000Y54900000D03*
X27620000Y54900000D03*
%TD*%
%TO.C,C27*%
X28580000Y40475000D03*
X27620000Y40475000D03*
%TD*%
D10*
%TO.C,R26*%
X30670000Y52400000D03*
X31690000Y52400000D03*
%TD*%
D11*
%TO.C,C39*%
X54020000Y51860000D03*
X54980000Y51860000D03*
%TD*%
D10*
%TO.C,R180*%
X102670000Y39600000D03*
X103690000Y39600000D03*
%TD*%
D13*
%TO.C,C18*%
X25980000Y54900000D03*
X25020000Y54900000D03*
%TD*%
D11*
%TO.C,C81*%
X121420000Y48235001D03*
X122380000Y48235001D03*
%TD*%
D10*
%TO.C,R74*%
X30670000Y30800000D03*
X31690000Y30800000D03*
%TD*%
D12*
%TO.C,R233*%
X119330000Y45975000D03*
X118310000Y45975000D03*
%TD*%
D13*
%TO.C,C23*%
X25980000Y47675000D03*
X25020000Y47675000D03*
%TD*%
D12*
%TO.C,R203*%
X117330000Y58000000D03*
X116310000Y58000000D03*
%TD*%
D13*
%TO.C,C71*%
X95980000Y36875000D03*
X95020000Y36875000D03*
%TD*%
D11*
%TO.C,C51*%
X51420000Y33835001D03*
X52380000Y33835001D03*
%TD*%
D13*
%TO.C,C31*%
X25980000Y33275000D03*
X25020000Y33275000D03*
%TD*%
D12*
%TO.C,R81*%
X49340000Y56400000D03*
X48320000Y56400000D03*
%TD*%
D10*
%TO.C,R172*%
X102670000Y42800000D03*
X103690000Y42800000D03*
%TD*%
D11*
%TO.C,C79*%
X124020000Y51860000D03*
X124980000Y51860000D03*
%TD*%
D10*
%TO.C,R30*%
X32670000Y48400000D03*
X33690000Y48400000D03*
%TD*%
%TO.C,R62*%
X32670000Y34000000D03*
X33690000Y34000000D03*
%TD*%
%TO.C,R200*%
X100670000Y32400000D03*
X101690000Y32400000D03*
%TD*%
D13*
%TO.C,C59*%
X98580000Y54900000D03*
X97620000Y54900000D03*
%TD*%
D10*
%TO.C,R150*%
X102670000Y52400000D03*
X103690000Y52400000D03*
%TD*%
D13*
%TO.C,C34*%
X28580000Y36875000D03*
X27620000Y36875000D03*
%TD*%
D10*
%TO.C,R70*%
X32670000Y30800000D03*
X33690000Y30800000D03*
%TD*%
%TO.C,R44*%
X32670000Y42800000D03*
X33690000Y42800000D03*
%TD*%
%TO.C,R32*%
X30670000Y50000000D03*
X31690000Y50000000D03*
%TD*%
%TO.C,R202*%
X100670000Y30800000D03*
X101690000Y30800000D03*
%TD*%
D13*
%TO.C,C63*%
X95980000Y47675000D03*
X95020000Y47675000D03*
%TD*%
D11*
%TO.C,C94*%
X124020000Y30235001D03*
X124980000Y30235001D03*
%TD*%
D12*
%TO.C,R265*%
X119330000Y31575000D03*
X118310000Y31575000D03*
%TD*%
D13*
%TO.C,C67*%
X98580000Y44075000D03*
X97620000Y44075000D03*
%TD*%
D12*
%TO.C,R235*%
X117330000Y43600000D03*
X116310000Y43600000D03*
%TD*%
D13*
%TO.C,C68*%
X95980000Y40475000D03*
X95020000Y40475000D03*
%TD*%
D11*
%TO.C,C89*%
X124020000Y37435001D03*
X124980000Y37435001D03*
%TD*%
D10*
%TO.C,R66*%
X30670000Y34000000D03*
X31690000Y34000000D03*
%TD*%
D11*
%TO.C,C91*%
X121420000Y33835001D03*
X122380000Y33835001D03*
%TD*%
D10*
%TO.C,R166*%
X102670000Y45200000D03*
X103690000Y45200000D03*
%TD*%
D13*
%TO.C,C57*%
X98580000Y58500000D03*
X97620000Y58500000D03*
%TD*%
D11*
%TO.C,C86*%
X121420000Y41035001D03*
X122380000Y41035001D03*
%TD*%
D10*
%TO.C,R20*%
X32670000Y54000000D03*
X33690000Y54000000D03*
%TD*%
D11*
%TO.C,C41*%
X51420000Y48235000D03*
X52380000Y48235000D03*
%TD*%
D12*
%TO.C,R127*%
X49330000Y36400000D03*
X48310000Y36400000D03*
%TD*%
D13*
%TO.C,C29*%
X28580000Y44075000D03*
X27620000Y44075000D03*
%TD*%
D12*
%TO.C,R125*%
X47330000Y34800000D03*
X46310000Y34800000D03*
%TD*%
D11*
%TO.C,C48*%
X51420000Y37435001D03*
X52380000Y37435001D03*
%TD*%
D10*
%TO.C,R158*%
X102670000Y48400000D03*
X103690000Y48400000D03*
%TD*%
D13*
%TO.C,C74*%
X98580000Y33275000D03*
X97620000Y33275000D03*
%TD*%
D10*
%TO.C,R58*%
X30670000Y38000000D03*
X31690000Y38000000D03*
%TD*%
%TO.C,R16*%
X30670000Y57200000D03*
X31690000Y57200000D03*
%TD*%
D12*
%TO.C,R75*%
X47330000Y58000000D03*
X46310000Y58000000D03*
%TD*%
%TO.C,R137*%
X49330000Y31600000D03*
X48310000Y31600000D03*
%TD*%
%TO.C,R87*%
X49330000Y54800000D03*
X48310000Y54800000D03*
%TD*%
D10*
%TO.C,R14*%
X32670000Y55600000D03*
X33690000Y55600000D03*
%TD*%
%TO.C,R42*%
X30670000Y45200000D03*
X31690000Y45200000D03*
%TD*%
%TO.C,R182*%
X102670000Y38000000D03*
X103690000Y38000000D03*
%TD*%
D12*
%TO.C,R253*%
X117330000Y34800000D03*
X116310000Y34800000D03*
%TD*%
D10*
%TO.C,R188*%
X102670000Y35600000D03*
X103690000Y35600000D03*
%TD*%
D12*
%TO.C,R207*%
X119330000Y57975000D03*
X118310000Y57975000D03*
%TD*%
%TO.C,R83*%
X47330000Y54800000D03*
X46310000Y54800000D03*
%TD*%
D13*
%TO.C,C64*%
X98580000Y47675000D03*
X97620000Y47675000D03*
%TD*%
D12*
%TO.C,R111*%
X49330000Y43600000D03*
X48310000Y43600000D03*
%TD*%
%TO.C,R229*%
X117330000Y46000000D03*
X116310000Y46000000D03*
%TD*%
D10*
%TO.C,R12*%
X32670000Y57200000D03*
X33690000Y57200000D03*
%TD*%
D13*
%TO.C,C28*%
X25980000Y44075000D03*
X25020000Y44075000D03*
%TD*%
D12*
%TO.C,R135*%
X49330000Y33200000D03*
X48310000Y33200000D03*
%TD*%
D11*
%TO.C,C42*%
X54020000Y48235000D03*
X54980000Y48235000D03*
%TD*%
%TO.C,C38*%
X51420000Y51860000D03*
X52380000Y51860000D03*
%TD*%
D10*
%TO.C,R164*%
X102670000Y46800000D03*
X103690000Y46800000D03*
%TD*%
%TO.C,R156*%
X102670000Y50000000D03*
X103690000Y50000000D03*
%TD*%
D12*
%TO.C,R77*%
X47330000Y56400000D03*
X46310000Y56400000D03*
%TD*%
D11*
%TO.C,C53*%
X51420000Y30235001D03*
X52380000Y30235001D03*
%TD*%
D10*
%TO.C,R148*%
X102670000Y54000000D03*
X103690000Y54000000D03*
%TD*%
D11*
%TO.C,C93*%
X121420000Y30235001D03*
X122380000Y30235001D03*
%TD*%
D13*
%TO.C,C21*%
X25980000Y51275000D03*
X25020000Y51275000D03*
%TD*%
D10*
%TO.C,R174*%
X102670000Y41200000D03*
X103690000Y41200000D03*
%TD*%
D12*
%TO.C,R131*%
X47330000Y33200000D03*
X46310000Y33200000D03*
%TD*%
D10*
%TO.C,R170*%
X100670000Y45200000D03*
X101690000Y45200000D03*
%TD*%
%TO.C,R40*%
X30670000Y46800000D03*
X31690000Y46800000D03*
%TD*%
D12*
%TO.C,R211*%
X117330000Y54800000D03*
X116310000Y54800000D03*
%TD*%
%TO.C,R209*%
X119340000Y56375000D03*
X118320000Y56375000D03*
%TD*%
D10*
%TO.C,R198*%
X102670000Y30800000D03*
X103690000Y30800000D03*
%TD*%
D12*
%TO.C,R261*%
X117330000Y31600000D03*
X116310000Y31600000D03*
%TD*%
D11*
%TO.C,C47*%
X54020000Y41035001D03*
X54980000Y41035001D03*
%TD*%
D10*
%TO.C,R146*%
X100670000Y55600000D03*
X101690000Y55600000D03*
%TD*%
D12*
%TO.C,R105*%
X49330000Y46000000D03*
X48310000Y46000000D03*
%TD*%
D10*
%TO.C,R54*%
X32670000Y38000000D03*
X33690000Y38000000D03*
%TD*%
%TO.C,R22*%
X32670000Y52400000D03*
X33690000Y52400000D03*
%TD*%
D12*
%TO.C,R217*%
X119330000Y53175000D03*
X118310000Y53175000D03*
%TD*%
D10*
%TO.C,R24*%
X30670000Y54000000D03*
X31690000Y54000000D03*
%TD*%
D12*
%TO.C,R95*%
X49330000Y50800000D03*
X48310000Y50800000D03*
%TD*%
D10*
%TO.C,R46*%
X32670000Y41200000D03*
X33690000Y41200000D03*
%TD*%
%TO.C,R154*%
X100670000Y52400000D03*
X101690000Y52400000D03*
%TD*%
D12*
%TO.C,R219*%
X117330000Y50800000D03*
X116310000Y50800000D03*
%TD*%
D10*
%TO.C,R192*%
X100670000Y35600000D03*
X101690000Y35600000D03*
%TD*%
D13*
%TO.C,C72*%
X98580000Y36875000D03*
X97620000Y36875000D03*
%TD*%
D10*
%TO.C,R140*%
X102670000Y57200000D03*
X103690000Y57200000D03*
%TD*%
%TO.C,R38*%
X32670000Y45200000D03*
X33690000Y45200000D03*
%TD*%
%TO.C,R52*%
X32670000Y39600000D03*
X33690000Y39600000D03*
%TD*%
%TO.C,R168*%
X100670000Y46800000D03*
X101690000Y46800000D03*
%TD*%
D11*
%TO.C,C78*%
X121420000Y51860000D03*
X122380000Y51860000D03*
%TD*%
D10*
%TO.C,R34*%
X30670000Y48400000D03*
X31690000Y48400000D03*
%TD*%
D13*
%TO.C,C33*%
X25980000Y36875000D03*
X25020000Y36875000D03*
%TD*%
D11*
%TO.C,C87*%
X124020000Y41035001D03*
X124980000Y41035001D03*
%TD*%
D13*
%TO.C,C66*%
X95980000Y44075000D03*
X95020000Y44075000D03*
%TD*%
D10*
%TO.C,R60*%
X32670000Y35600000D03*
X33690000Y35600000D03*
%TD*%
D12*
%TO.C,R119*%
X49330000Y40400000D03*
X48310000Y40400000D03*
%TD*%
D10*
%TO.C,R56*%
X30670000Y39600000D03*
X31690000Y39600000D03*
%TD*%
D12*
%TO.C,R123*%
X47330000Y36400000D03*
X46310000Y36400000D03*
%TD*%
D13*
%TO.C,C24*%
X28580000Y47675000D03*
X27620000Y47675000D03*
%TD*%
D12*
%TO.C,R101*%
X47330000Y46000000D03*
X46310000Y46000000D03*
%TD*%
%TO.C,R215*%
X119330000Y54775000D03*
X118310000Y54775000D03*
%TD*%
%TO.C,R245*%
X117330000Y38800000D03*
X116310000Y38800000D03*
%TD*%
%TO.C,R213*%
X117330000Y53200000D03*
X116310000Y53200000D03*
%TD*%
D10*
%TO.C,R176*%
X100670000Y42800000D03*
X101690000Y42800000D03*
%TD*%
%TO.C,R18*%
X30670000Y55600000D03*
X31690000Y55600000D03*
%TD*%
D11*
%TO.C,C77*%
X124020000Y55460000D03*
X124980000Y55460000D03*
%TD*%
D16*
%TO.C,J7*%
X94000000Y106250000D03*
X92000000Y106250000D03*
D17*
X96350000Y100500000D03*
X89650000Y100500000D03*
%TD*%
D11*
%TO.C,C76*%
X121420000Y55460000D03*
X122380000Y55460000D03*
%TD*%
D12*
%TO.C,R115*%
X47330000Y40400000D03*
X46310000Y40400000D03*
%TD*%
D10*
%TO.C,R196*%
X102670000Y32400000D03*
X103690000Y32400000D03*
%TD*%
D13*
%TO.C,C69*%
X98580000Y40475000D03*
X97620000Y40475000D03*
%TD*%
D12*
%TO.C,R263*%
X119330000Y33175000D03*
X118310000Y33175000D03*
%TD*%
D10*
%TO.C,R36*%
X32670000Y46800000D03*
X33690000Y46800000D03*
%TD*%
D12*
%TO.C,R231*%
X119330000Y47575000D03*
X118310000Y47575000D03*
%TD*%
%TO.C,R259*%
X117330000Y33200000D03*
X116310000Y33200000D03*
%TD*%
M02*
