M48
; DRILL file {KiCad 8.0.1} date 2024-11-14T18:54:35-0500
; FORMAT={-:-/ absolute / inch / decimal}
; #@! TF.CreationDate,2024-11-14T18:54:35-05:00
; #@! TF.GenerationSoftware,Kicad,Pcbnew,8.0.1
; #@! TF.FileFunction,Plated,1,4,PTH
FMAT,2
INCH
; #@! TA.AperFunction,Plated,PTH,ViaDrill
T1C0.0098
; #@! TA.AperFunction,Plated,PTH,ViaDrill
T2C0.0197
; #@! TA.AperFunction,Plated,PTH,ComponentDrill
T3C0.0236
; #@! TA.AperFunction,Plated,PTH,ComponentDrill
T4C0.0354
; #@! TA.AperFunction,Plated,PTH,ComponentDrill
T5C0.0362
; #@! TA.AperFunction,Plated,PTH,ComponentDrill
T6C0.0394
; #@! TA.AperFunction,Plated,PTH,ComponentDrill
T7C0.0433
; #@! TA.AperFunction,Plated,PTH,ComponentDrill
T8C0.0512
; #@! TA.AperFunction,Plated,PTH,ComponentDrill
T9C0.0709
; #@! TA.AperFunction,Plated,PTH,ComponentDrill
T10C0.0787
; #@! TA.AperFunction,Plated,PTH,ComponentDrill
T11C0.1260
%
G90
G05
T1
X5.1181Y-6.252
X5.1575Y-5.375
X5.1575Y-5.4262
X5.1575Y-5.6585
X5.1575Y-5.7096
X5.1575Y-5.9419
X5.1575Y-5.9931
X5.1575Y-6.2254
X5.1575Y-6.2766
X5.1969Y-3.7657
X5.1969Y-5.375
X5.1969Y-5.4518
X5.1969Y-5.6585
X5.1969Y-5.7352
X5.1969Y-5.9419
X5.1969Y-6.0187
X5.1969Y-6.2254
X5.1969Y-6.3022
X5.2047Y-4.8819
X5.2185Y-6.187
X5.2205Y-5.6181
X5.2205Y-5.8996
X5.2362Y-4.9843
X5.2362Y-5.375
X5.2362Y-5.4724
X5.2362Y-5.6585
X5.2362Y-5.7559
X5.2362Y-5.9419
X5.2362Y-6.0394
X5.2362Y-6.2254
X5.248Y-3.7992
X5.248Y-3.8465
X5.2677Y-5.3346
X5.2736Y-5.4921
X5.3071Y-3.8346
X5.311Y-5.5984
X5.311Y-5.8819
X5.311Y-6.1654
X5.311Y-6.4488
X5.3898Y-5.689
X5.3898Y-5.9843
X5.3898Y-6.2756
X5.3917Y-5.2776
X5.4016Y-5.378
X5.4016Y-5.4764
X5.4449Y-5.5787
X5.4469Y-5.8622
X5.4508Y-6.1437
X5.4665Y-6.4843
X5.4803Y-4.6142
X5.5079Y-3.7795
X5.5079Y-5.4518
X5.5079Y-5.7352
X5.5079Y-6.0187
X5.5079Y-6.3022
X5.5118Y-5.3937
X5.5118Y-5.6772
X5.5118Y-5.9606
X5.5118Y-6.2441
X5.5156Y-3.7273
X5.5315Y-3.8937
X5.5433Y-5.2323
X5.6102Y-4.6181
X5.6102Y-5.5541
X5.6102Y-5.8376
X5.6102Y-6.1211
X5.6102Y-6.4045
X5.6112Y-5.4006
X5.6112Y-5.6841
X5.6112Y-5.9675
X5.6112Y-6.251
X5.6201Y-5.5906
X5.6299Y-5.374
X5.6299Y-5.4843
X5.6299Y-5.6575
X5.6299Y-5.7677
X5.6299Y-5.9409
X5.6299Y-6.0512
X5.6299Y-6.2244
X5.6299Y-6.3346
X5.6339Y-5.8681
X5.6378Y-6.1535
X5.6457Y-3.7795
X5.6496Y-3.8228
X5.6693Y-5.4193
X5.6693Y-5.4941
X5.6693Y-5.7028
X5.6693Y-5.7776
X5.6693Y-5.9862
X5.6693Y-6.061
X5.6693Y-6.2697
X5.6693Y-6.3445
X5.6713Y-6.5217
X5.6772Y-3.7402
X5.689Y-3.8031
X5.6969Y-5.4606
X5.6969Y-5.7441
X5.6969Y-6.0276
X5.6969Y-6.311
X5.7087Y-3.7126
X5.7382Y-5.3937
X5.7382Y-5.6772
X5.7382Y-5.9606
X5.7382Y-6.2441
X5.7387Y-5.5197
X5.7387Y-5.8031
X5.7387Y-6.0866
X5.7387Y-6.3701
X5.7402Y-5.4843
X5.7402Y-5.7677
X5.7402Y-6.0512
X5.7402Y-6.3346
X5.7795Y-4.8858
X5.7972Y-5.1732
X5.8071Y-3.7323
X5.8071Y-5.3559
X5.8071Y-5.3937
X5.8071Y-5.4819
X5.8071Y-5.5197
X5.8071Y-5.6394
X5.8071Y-5.6772
X5.8071Y-5.7654
X5.8071Y-5.8031
X5.8071Y-5.9228
X5.8071Y-5.9606
X5.8071Y-6.0488
X5.8071Y-6.0866
X5.8071Y-6.2063
X5.8071Y-6.2441
X5.8071Y-6.3323
X5.8071Y-6.3701
X5.8189Y-3.8937
X5.8268Y-3.7598
X5.8465Y-5.5492
X5.8465Y-5.8327
X5.8465Y-6.1161
X5.8465Y-6.3996
X5.8543Y-3.9921
X5.8701Y-5.3465
X5.8701Y-5.6299
X5.8701Y-5.9134
X5.8701Y-6.1969
X5.8878Y-5.4685
X5.8878Y-5.752
X5.8878Y-6.0354
X5.8878Y-6.3189
X5.8898Y-6.5118
X5.8937Y-3.7913
X5.8976Y-3.9921
X5.9252Y-5.3543
X5.9252Y-5.3937
X5.9252Y-5.4291
X5.9252Y-5.5315
X5.9252Y-5.6378
X5.9252Y-5.6772
X5.9252Y-5.7126
X5.9252Y-5.815
X5.9252Y-5.9213
X5.9252Y-5.9606
X5.9252Y-5.9961
X5.9252Y-6.0984
X5.9252Y-6.2047
X5.9252Y-6.2441
X5.9252Y-6.2795
X5.9252Y-6.374
X5.9291Y-5.4941
X5.9291Y-5.7776
X5.9291Y-6.061
X5.9291Y-6.3445
X5.9409Y-4.2047
X5.9409Y-4.4055
X5.9488Y-5.2638
X5.9646Y-3.7323
X5.9665Y-6.1614
X5.9724Y-3.7756
X5.9882Y-4.3346
X5.9921Y-4.0551
X5.9946Y-5.4811
X5.9946Y-5.5197
X5.9946Y-5.7646
X5.9946Y-5.8031
X5.9946Y-6.048
X5.9946Y-6.0866
X5.9946Y-6.3315
X5.9946Y-6.3701
X5.9961Y-5.3559
X5.9961Y-5.3937
X5.9961Y-5.6394
X5.9961Y-5.6772
X5.9961Y-5.9228
X5.9961Y-5.9606
X5.9961Y-6.2063
X5.9961Y-6.2441
X6.0079Y-4.3661
X6.0261Y-5.5748
X6.0261Y-5.8583
X6.0261Y-6.1417
X6.0261Y-6.4252
X6.0551Y-5.4488
X6.0551Y-5.5551
X6.0551Y-5.7323
X6.0551Y-5.8386
X6.0551Y-6.0157
X6.0551Y-6.122
X6.0551Y-6.2992
X6.0551Y-6.4055
X6.0748Y-4.874
X6.0984Y-4.4882
X6.1063Y-4.437
X6.1063Y-6.5197
X6.126Y-4.4685
X6.1496Y-4.3898
X6.1654Y-4.0709
X6.1654Y-4.4567
X6.1732Y-4.3701
X6.1732Y-4.7756
X6.1791Y-5.6063
X6.1811Y-5.8898
X6.1811Y-6.1752
X6.1929Y-4.1535
X6.2087Y-4.7244
X6.2283Y-5.3701
X6.2283Y-5.4331
X6.2283Y-5.4961
X6.2283Y-5.5591
X6.2283Y-5.6535
X6.2283Y-5.7165
X6.2283Y-5.7795
X6.2283Y-5.8425
X6.2283Y-5.937
X6.2283Y-6.0
X6.2283Y-6.063
X6.2283Y-6.126
X6.2283Y-6.2205
X6.2283Y-6.2835
X6.2283Y-6.3465
X6.2283Y-6.4094
X6.2297Y-5.2691
X6.252Y-4.4252
X6.2598Y-4.2953
X6.2776Y-4.3386
X6.2776Y-4.4016
X6.2972Y-5.6063
X6.3031Y-4.6654
X6.3051Y-5.8898
X6.3071Y-6.5217
X6.311Y-4.0709
X6.311Y-6.1752
X6.315Y-4.4921
X6.3189Y-5.3858
X6.3189Y-5.4488
X6.3189Y-5.5118
X6.3189Y-5.5748
X6.3189Y-5.6693
X6.3189Y-5.7323
X6.3189Y-5.7953
X6.3189Y-5.8583
X6.3189Y-5.9528
X6.3189Y-6.0157
X6.3189Y-6.0787
X6.3189Y-6.1417
X6.3189Y-6.2362
X6.3189Y-6.2992
X6.3189Y-6.3622
X6.3189Y-6.4252
X6.3283Y-4.1795
X6.3307Y-4.8976
X6.3445Y-4.4722
X6.3504Y-4.0709
X6.3543Y-4.2835
X6.3622Y-4.6546
X6.378Y-4.4843
X6.3858Y-4.0709
X6.3858Y-4.8465
X6.3898Y-4.2835
X6.3976Y-4.6535
X6.3976Y-4.7283
X6.4213Y-4.4606
X6.437Y-4.3583
X6.437Y-4.3937
X6.4372Y-4.4919
X6.4449Y-4.2008
X6.4449Y-4.3268
X6.4488Y-4.2835
X6.4528Y-4.4252
X6.4764Y-5.3839
X6.4803Y-5.8937
X6.4843Y-4.2465
X6.4843Y-6.3484
X6.5079Y-4.0827
X6.5197Y-4.5315
X6.5197Y-4.6654
X6.5354Y-4.6142
X6.5413Y-4.442
X6.5551Y-4.0866
X6.6024Y-4.248
X6.6024Y-4.2835
X6.6378Y-4.4213
X6.6417Y-4.1496
X6.6575Y-4.3071
X6.6654Y-4.3976
X6.6703Y-5.3553
X6.6703Y-5.4183
X6.6703Y-5.4813
X6.6703Y-5.5443
X6.6703Y-5.6388
X6.6703Y-5.7018
X6.6703Y-5.7648
X6.6703Y-5.8278
X6.6703Y-5.9222
X6.6703Y-5.9852
X6.6703Y-6.0482
X6.6703Y-6.1112
X6.6703Y-6.2057
X6.6703Y-6.2687
X6.6703Y-6.3317
X6.6703Y-6.3947
X6.6791Y-6.1713
X6.6811Y-5.6043
X6.6831Y-5.8937
X6.6929Y-4.3819
X6.7008Y-4.3346
X6.7441Y-4.3583
X6.7461Y-5.2717
X6.7648Y-5.375
X6.7648Y-5.438
X6.7648Y-5.501
X6.7648Y-5.564
X6.7648Y-5.6585
X6.7648Y-5.7215
X6.7648Y-5.7844
X6.7648Y-5.8474
X6.7648Y-5.9419
X6.7648Y-6.0049
X6.7648Y-6.0679
X6.7648Y-6.1309
X6.7648Y-6.2254
X6.7648Y-6.2884
X6.7648Y-6.3514
X6.7648Y-6.4144
X6.7732Y-4.6063
X6.7854Y-6.565
X6.7992Y-4.2756
X6.815Y-4.7638
X6.815Y-4.874
X6.815Y-6.1732
X6.8189Y-5.8898
X6.8425Y-4.7087
X6.9055Y-4.1811
X6.9291Y-5.6102
X6.9331Y-6.1772
X6.9384Y-5.4771
X6.9384Y-5.7606
X6.9384Y-6.044
X6.9384Y-6.3275
X6.9409Y-5.8937
X6.9443Y-5.3773
X6.9443Y-5.6608
X6.9443Y-5.9443
X6.9443Y-6.2277
X6.9606Y-4.0039
X6.9656Y-5.3553
X6.9656Y-5.6388
X6.9656Y-5.9222
X6.9656Y-6.2057
X6.997Y-5.4104
X6.997Y-5.4498
X6.997Y-5.5285
X6.997Y-5.6939
X6.997Y-5.7333
X6.997Y-5.812
X6.997Y-5.9774
X6.997Y-6.0167
X6.997Y-6.0955
X6.997Y-6.2608
X6.997Y-6.3002
X6.997Y-6.3789
X7.001Y-5.5679
X7.001Y-5.8514
X7.001Y-6.1348
X7.001Y-6.4183
X7.0522Y-5.4813
X7.0522Y-5.7648
X7.0522Y-6.0482
X7.0522Y-6.3317
X7.0679Y-5.4026
X7.0679Y-5.4341
X7.0679Y-5.686
X7.0679Y-5.7175
X7.0679Y-5.9695
X7.0679Y-6.001
X7.0679Y-6.253
X7.0679Y-6.2844
X7.0699Y-5.5699
X7.0699Y-5.8533
X7.0699Y-6.1368
X7.0699Y-6.4203
X7.0719Y-5.5404
X7.0719Y-5.8238
X7.0719Y-6.1073
X7.0719Y-6.3907
X7.0976Y-6.5739
X7.1063Y-3.815
X7.1073Y-5.4596
X7.1073Y-5.7431
X7.1073Y-6.0266
X7.1073Y-6.31
X7.1181Y-5.2579
X7.127Y-5.5768
X7.127Y-5.8602
X7.127Y-6.1437
X7.127Y-6.4272
X7.1318Y-5.5382
X7.1324Y-5.8213
X7.1334Y-6.1057
X7.1334Y-6.3892
X7.1604Y-5.4892
X7.1604Y-5.7726
X7.1604Y-6.0561
X7.1604Y-6.3396
X7.1821Y-5.3671
X7.1821Y-5.3986
X7.1821Y-5.438
X7.1821Y-5.5167
X7.1821Y-5.564
X7.1821Y-5.6506
X7.1821Y-5.6821
X7.1821Y-5.7215
X7.1821Y-5.8002
X7.1821Y-5.8474
X7.1821Y-5.9341
X7.1821Y-5.9656
X7.1821Y-6.0049
X7.1821Y-6.0837
X7.1821Y-6.1309
X7.1821Y-6.2175
X7.1821Y-6.249
X7.1821Y-6.2884
X7.1821Y-6.3671
X7.1821Y-6.4144
X7.249Y-5.4262
X7.249Y-5.5167
X7.249Y-5.7096
X7.249Y-5.8002
X7.249Y-5.9931
X7.249Y-6.0837
X7.249Y-6.2766
X7.249Y-6.3671
X7.253Y-5.3711
X7.253Y-5.6545
X7.253Y-5.938
X7.253Y-6.2215
X7.3278Y-5.3986
X7.3278Y-5.4892
X7.3278Y-5.6821
X7.3278Y-5.7726
X7.3278Y-5.9656
X7.3278Y-6.0561
X7.3278Y-6.249
X7.3278Y-6.3396
X7.3396Y-5.3671
X7.3396Y-5.6506
X7.3396Y-5.9341
X7.3396Y-6.2175
X7.3504Y-5.5118
X7.3504Y-5.7953
X7.3504Y-6.0787
X7.3504Y-6.3622
X7.3632Y-5.4301
X7.3632Y-5.7136
X7.3632Y-5.997
X7.3632Y-6.2805
X7.3657Y-5.4641
X7.3657Y-5.7476
X7.3657Y-6.0311
X7.3657Y-6.3145
X7.3711Y-5.3907
X7.3711Y-5.6742
X7.3711Y-5.9577
X7.3711Y-6.2411
X7.3839Y-5.1752
X7.3898Y-6.1437
X7.4803Y-5.5315
X7.4803Y-5.815
X7.4803Y-6.0984
X7.4803Y-6.3819
X7.4813Y-5.4892
X7.4813Y-5.7726
X7.4813Y-6.0561
X7.4813Y-6.3396
X7.5118Y-2.9764
X7.5404Y-6.4988
X7.5492Y-6.1911
X7.5512Y-5.2598
X7.565Y-5.8031
X7.5768Y-5.9016
X7.5984Y-5.4331
X7.5984Y-5.4724
X7.5984Y-5.7165
X7.5984Y-5.7559
X7.5984Y-6.0
X7.5984Y-6.0394
X7.5984Y-6.2835
X7.5984Y-6.3228
X7.6811Y-5.315
X7.6811Y-5.5984
X7.6811Y-5.8819
X7.6811Y-6.1654
X7.7165Y-5.4173
X7.7539Y-6.313
X7.7559Y-5.4656
X7.7559Y-5.5433
X7.7559Y-5.749
X7.7559Y-5.8268
X7.7559Y-6.0325
X7.7559Y-6.1102
X7.7953Y-5.4911
X7.7953Y-5.5433
X7.7953Y-5.7746
X7.7953Y-5.8268
X7.7953Y-6.0581
X7.7953Y-6.1102
X7.7953Y-6.3346
X7.7992Y-6.687
X7.8189Y-5.9567
X7.8189Y-6.2362
X7.8228Y-5.6614
X7.8346Y-6.3927
X7.8465Y-5.2913
X7.8622Y-2.7362
X7.878Y-6.4055
X7.9134Y-5.4262
X7.9134Y-5.6585
X7.9134Y-5.7096
X7.9134Y-5.9419
X7.9134Y-5.9931
X7.9134Y-6.2254
X7.9134Y-6.2766
X7.9528Y-5.4518
X7.9528Y-5.6585
X7.9528Y-5.7352
X7.9528Y-5.9419
X7.9528Y-6.0187
X7.9528Y-6.2254
X7.9528Y-6.3022
X7.9606Y-6.7067
X7.9764Y-5.624
X7.9783Y-5.9035
X7.9803Y-6.185
X7.9882Y-2.9213
X7.9921Y-5.375
X7.9921Y-5.4724
X7.9921Y-5.6585
X7.9921Y-5.7559
X7.9921Y-5.9419
X7.9921Y-6.0394
X7.9921Y-6.2254
X8.0079Y-3.3228
X8.0276Y-6.1063
X8.0295Y-5.563
X8.0295Y-6.376
X8.0315Y-5.5079
X8.0315Y-5.815
X8.0669Y-5.5984
X8.0669Y-5.8819
X8.0669Y-6.1654
X8.0669Y-6.4488
X8.0998Y-2.9089
X8.1457Y-5.7008
X8.1457Y-5.9843
X8.1457Y-6.2697
X8.1516Y-5.2677
X8.1594Y-5.4429
X8.1969Y-5.872
X8.2047Y-2.9685
X8.2052Y-6.1441
X8.2067Y-5.5709
X8.2165Y-6.4587
X8.2244Y-2.748
X8.2638Y-5.4518
X8.2638Y-5.7352
X8.2638Y-6.0187
X8.2638Y-6.3022
X8.2677Y-5.3937
X8.2677Y-5.6772
X8.2677Y-5.9606
X8.2677Y-6.2441
X8.2717Y-2.7244
X8.3425Y-6.563
X8.3661Y-5.5541
X8.3661Y-5.8376
X8.3661Y-6.1211
X8.3661Y-6.4045
X8.3671Y-5.4006
X8.3671Y-5.6841
X8.3671Y-5.9675
X8.3671Y-6.251
X8.3858Y-5.374
X8.3858Y-5.4843
X8.3858Y-5.6575
X8.3858Y-5.7677
X8.3858Y-5.9409
X8.3858Y-6.0512
X8.3858Y-6.2244
X8.3858Y-6.3346
X8.388Y-5.8697
X8.3917Y-6.1516
X8.4252Y-5.4193
X8.4252Y-5.4941
X8.4252Y-5.7028
X8.4252Y-5.7776
X8.4252Y-5.9862
X8.4252Y-6.061
X8.4252Y-6.2697
X8.4252Y-6.3445
X8.4508Y-5.248
X8.4528Y-5.4606
X8.4528Y-5.7441
X8.4528Y-6.0276
X8.4528Y-6.311
X8.4941Y-5.3937
X8.4941Y-5.6772
X8.4941Y-5.9606
X8.4941Y-6.2441
X8.4946Y-5.5197
X8.4946Y-5.8031
X8.4946Y-6.0866
X8.4946Y-6.3701
X8.4961Y-5.4843
X8.4961Y-5.7677
X8.4961Y-6.0512
X8.4961Y-6.3346
X8.563Y-5.3559
X8.563Y-5.3937
X8.563Y-5.4819
X8.563Y-5.5197
X8.563Y-5.6394
X8.563Y-5.6772
X8.563Y-5.7654
X8.563Y-5.8031
X8.563Y-5.9228
X8.563Y-5.9606
X8.563Y-6.0488
X8.563Y-6.0866
X8.563Y-6.2063
X8.563Y-6.2441
X8.563Y-6.3323
X8.563Y-6.3701
X8.565Y-5.1732
X8.6024Y-5.5492
X8.6024Y-5.8327
X8.6024Y-6.1161
X8.6024Y-6.3996
X8.626Y-5.3465
X8.626Y-5.6299
X8.626Y-5.9134
X8.626Y-6.1969
X8.6437Y-5.4685
X8.6437Y-5.752
X8.6437Y-6.0354
X8.6437Y-6.3189
X8.6693Y-6.5413
X8.6811Y-5.3543
X8.6811Y-5.3937
X8.6811Y-5.4291
X8.6811Y-5.5276
X8.6811Y-5.6378
X8.6811Y-5.6772
X8.6811Y-5.7126
X8.6811Y-5.811
X8.6811Y-5.9213
X8.6811Y-5.9606
X8.6811Y-5.9961
X8.6811Y-6.2047
X8.6811Y-6.2441
X8.6811Y-6.2795
X8.685Y-5.4941
X8.685Y-5.7776
X8.685Y-6.061
X8.685Y-6.0945
X8.685Y-6.3445
X8.685Y-6.378
X8.7205Y-6.1654
X8.7224Y-5.8799
X8.7505Y-5.4811
X8.7505Y-5.5197
X8.7505Y-5.7646
X8.7505Y-5.8031
X8.7505Y-6.048
X8.7505Y-6.0866
X8.7505Y-6.3315
X8.7505Y-6.3701
X8.752Y-5.3559
X8.752Y-5.3937
X8.752Y-5.6394
X8.752Y-5.6772
X8.752Y-5.9228
X8.752Y-5.9606
X8.752Y-6.2063
X8.752Y-6.2441
X8.7579Y-5.2559
X8.782Y-5.5748
X8.782Y-5.8583
X8.782Y-6.1417
X8.782Y-6.4252
X8.811Y-5.4488
X8.811Y-5.5551
X8.811Y-5.7323
X8.811Y-5.8386
X8.811Y-6.0157
X8.811Y-6.122
X8.811Y-6.2992
X8.811Y-6.4055
X8.9016Y-5.8898
X8.939Y-6.1732
X8.9705Y-6.5354
X8.9783Y-5.2559
X8.9843Y-5.3701
X8.9843Y-5.4331
X8.9843Y-5.4961
X8.9843Y-5.5591
X8.9843Y-5.6535
X8.9843Y-5.7165
X8.9843Y-5.7795
X8.9843Y-5.8425
X8.9843Y-5.937
X8.9843Y-6.0
X8.9843Y-6.063
X8.9843Y-6.126
X8.9843Y-6.2205
X8.9843Y-6.2835
X8.9843Y-6.3465
X8.9843Y-6.4094
X9.063Y-5.8898
X9.065Y-6.1752
X9.0748Y-5.3858
X9.0748Y-5.4488
X9.0748Y-5.5118
X9.0748Y-5.5748
X9.0748Y-5.6693
X9.0748Y-5.7323
X9.0748Y-5.7953
X9.0748Y-5.8583
X9.0748Y-5.9528
X9.0748Y-6.0157
X9.0748Y-6.0787
X9.0748Y-6.1417
X9.0748Y-6.2362
X9.0748Y-6.2992
X9.0748Y-6.3622
X9.0748Y-6.4252
X9.0976Y-3.502
X9.1013Y-3.4587
X9.1722Y-3.5413
X9.1744Y-3.2106
X9.1901Y-3.3878
X9.1949Y-2.7205
X9.2312Y-3.3169
X9.2334Y-3.2579
X9.2461Y-6.3661
X9.2492Y-3.2224
X9.2539Y-5.4193
X9.2549Y-3.2933
X9.2549Y-3.3406
X9.257Y-3.0925
X9.2627Y-3.1831
X9.2638Y-5.7953
X9.2657Y-2.5551
X9.31Y-3.1988
X9.3179Y-3.4075
X9.3346Y-2.5925
X9.3386Y-3.0591
X9.3494Y-3.1988
X9.3494Y-3.3287
X9.3572Y-3.2697
X9.3612Y-3.3012
X9.3701Y-2.6772
X9.4016Y-2.7657
X9.4045Y-3.5374
X9.4126Y-2.5029
X9.4224Y-3.1358
X9.4262Y-5.3553
X9.4262Y-5.4183
X9.4262Y-5.4813
X9.4262Y-5.5443
X9.4262Y-5.6388
X9.4262Y-5.7018
X9.4262Y-5.7648
X9.4262Y-5.8278
X9.4262Y-5.9222
X9.4262Y-5.9852
X9.4262Y-6.0482
X9.4262Y-6.1112
X9.4262Y-6.2057
X9.4262Y-6.2687
X9.4262Y-6.3317
X9.4262Y-6.3947
X9.432Y-3.4035
X9.4331Y-5.8878
X9.4342Y-3.187
X9.435Y-5.6063
X9.435Y-6.1732
X9.4421Y-3.3366
X9.4488Y-2.7697
X9.4499Y-3.1043
X9.4626Y-2.8012
X9.4753Y-3.4665
X9.4753Y-3.5059
X9.4764Y-2.5335
X9.4972Y-3.1043
X9.5051Y-3.3878
X9.5051Y-3.4941
X9.5207Y-5.375
X9.5207Y-5.438
X9.5207Y-5.501
X9.5207Y-5.564
X9.5207Y-5.6585
X9.5207Y-5.7215
X9.5207Y-5.7844
X9.5207Y-5.8474
X9.5207Y-5.9419
X9.5207Y-6.0049
X9.5207Y-6.0679
X9.5207Y-6.1309
X9.5207Y-6.2254
X9.5207Y-6.2884
X9.5207Y-6.3514
X9.5207Y-6.4144
X9.5256Y-5.2677
X9.5315Y-2.9055
X9.5709Y-5.6083
X9.5728Y-5.8898
X9.5728Y-6.1732
X9.5886Y-2.4882
X9.5984Y-2.8583
X9.6909Y-5.8937
X9.6929Y-6.1772
X9.6944Y-5.4771
X9.6944Y-5.7606
X9.6944Y-6.044
X9.6944Y-6.3275
X9.6949Y-5.6102
X9.7002Y-5.3773
X9.7002Y-5.6608
X9.7002Y-5.9443
X9.7002Y-6.2277
X9.7215Y-5.3553
X9.7215Y-5.6388
X9.7215Y-5.9222
X9.7215Y-6.2057
X9.753Y-5.4104
X9.753Y-5.4498
X9.753Y-5.5285
X9.753Y-5.6939
X9.753Y-5.7333
X9.753Y-5.812
X9.753Y-5.9774
X9.753Y-6.0167
X9.753Y-6.0955
X9.753Y-6.2608
X9.753Y-6.3002
X9.753Y-6.3789
X9.7569Y-5.5679
X9.7569Y-5.8514
X9.7569Y-6.1348
X9.7569Y-6.4183
X9.7717Y-2.5827
X9.7953Y-5.2697
X9.7992Y-2.5354
X9.8081Y-5.4813
X9.8081Y-5.7648
X9.8081Y-6.0482
X9.8081Y-6.3317
X9.8238Y-5.4026
X9.8238Y-5.4341
X9.8238Y-5.686
X9.8238Y-5.7175
X9.8238Y-5.9695
X9.8238Y-6.001
X9.8238Y-6.253
X9.8238Y-6.2844
X9.8258Y-5.5699
X9.8258Y-5.8533
X9.8258Y-6.1368
X9.8258Y-6.4203
X9.8278Y-5.5404
X9.8278Y-5.8238
X9.8278Y-6.1073
X9.8278Y-6.3907
X9.8465Y-2.5315
X9.8632Y-5.4596
X9.8632Y-5.7431
X9.8632Y-6.0266
X9.8632Y-6.31
X9.874Y-2.6732
X9.8829Y-5.5768
X9.8829Y-5.8602
X9.8829Y-6.1437
X9.8829Y-6.4272
X9.8875Y-6.3873
X9.8877Y-6.104
X9.8877Y-5.5382
X9.8898Y-5.8228
X9.9163Y-5.4892
X9.9163Y-5.7726
X9.9163Y-6.0561
X9.9163Y-6.3396
X9.9173Y-2.8031
X9.9193Y-5.1732
X9.938Y-5.3671
X9.938Y-5.3986
X9.938Y-5.438
X9.938Y-5.5167
X9.938Y-5.564
X9.938Y-5.6506
X9.938Y-5.6821
X9.938Y-5.7215
X9.938Y-5.8002
X9.938Y-5.8474
X9.938Y-5.9341
X9.938Y-5.9656
X9.938Y-6.0049
X9.938Y-6.0837
X9.938Y-6.1309
X9.938Y-6.2175
X9.938Y-6.249
X9.938Y-6.2884
X9.938Y-6.3671
X9.938Y-6.4144
X10.0049Y-5.4262
X10.0049Y-5.5167
X10.0049Y-5.7096
X10.0049Y-5.8002
X10.0049Y-5.9931
X10.0049Y-6.0837
X10.0049Y-6.2766
X10.0049Y-6.3671
X10.0089Y-5.3711
X10.0089Y-5.6545
X10.0089Y-5.938
X10.0089Y-6.2215
X10.0315Y-2.7559
X10.0837Y-5.3986
X10.0837Y-5.4892
X10.0837Y-5.6821
X10.0837Y-5.7726
X10.0837Y-5.9656
X10.0837Y-6.0561
X10.0837Y-6.249
X10.0837Y-6.3396
X10.0955Y-5.3671
X10.0955Y-5.6506
X10.0955Y-5.9341
X10.0955Y-6.2175
X10.1063Y-5.5118
X10.1063Y-5.7953
X10.1063Y-6.0787
X10.1063Y-6.3622
X10.1191Y-5.4301
X10.1191Y-5.7136
X10.1191Y-5.997
X10.1191Y-6.2805
X10.1216Y-5.4641
X10.1216Y-5.7476
X10.1216Y-6.0311
X10.1216Y-6.3145
X10.127Y-5.3907
X10.127Y-5.6742
X10.127Y-5.9577
X10.127Y-6.2411
X10.1457Y-5.5728
X10.2067Y-5.1909
X10.2362Y-5.5315
X10.2362Y-5.815
X10.2362Y-6.0984
X10.2362Y-6.3819
X10.2372Y-5.4892
X10.2372Y-5.7726
X10.2372Y-6.0561
X10.2372Y-6.3396
X10.311Y-5.3445
X10.3307Y-5.9055
X10.3327Y-5.5571
X10.3346Y-6.1988
X10.3386Y-5.8091
X10.3504Y-5.2677
X10.3543Y-5.4331
X10.3543Y-5.4724
X10.3543Y-5.7165
X10.3543Y-5.7559
X10.3543Y-6.0
X10.3543Y-6.0394
X10.3543Y-6.2835
X10.3543Y-6.3228
X10.437Y-5.315
X10.437Y-5.5984
X10.437Y-5.8819
X10.437Y-6.1654
X10.4724Y-5.4134
X10.5118Y-5.4656
X10.5118Y-5.5433
X10.5118Y-5.749
X10.5118Y-5.8268
X10.5118Y-6.0325
X10.5118Y-6.1102
X10.5118Y-6.311
X10.551Y-6.3348
X10.5512Y-5.4911
X10.5512Y-5.5433
X10.5512Y-5.7746
X10.5512Y-5.8268
X10.5512Y-6.0581
X10.5512Y-6.1102
X10.5906Y-6.3661
T2
X4.9744Y-5.6555
X5.0315Y-4.1949
X5.0669Y-4.7559
X5.0709Y-3.2795
X5.1299Y-6.7677
X5.3031Y-4.5394
X5.3228Y-4.1575
X5.4626Y-2.4173
X5.5394Y-3.4449
X5.6299Y-7.874
X5.6378Y-2.7677
X5.7047Y-3.1969
X5.752Y-3.6063
X5.9409Y-4.9764
X5.9843Y-3.4902
X6.2047Y-3.002
X6.2402Y-2.6496
X6.3425Y-3.7913
X6.3622Y-7.0846
X6.435Y-2.4016
X6.5906Y-3.8543
X6.622Y-2.9134
X6.7717Y-3.4843
X6.9685Y-3.2087
X6.9724Y-2.4252
X7.1654Y-7.8622
X7.2165Y-4.9213
X7.248Y-2.9331
X7.4094Y-2.3563
X7.5433Y-2.8071
X7.5709Y-3.6063
X7.6142Y-3.4173
X7.7008Y-3.3504
X7.7126Y-4.9173
X7.8622Y-2.7913
X7.9213Y-2.6299
X7.9803Y-4.0236
X8.0689Y-7.1299
X8.1339Y-3.2323
X8.2165Y-3.8425
X8.2323Y-2.8386
X8.3406Y-4.6732
X8.3504Y-2.3268
X8.4764Y-2.8898
X8.6693Y-3.7795
X8.7441Y-2.5787
X8.7756Y-4.1024
X8.8366Y-2.3012
X8.8622Y-7.874
X9.0709Y-2.8425
X9.315Y-4.1988
X9.3169Y-2.8937
X9.3386Y-4.7992
X9.5079Y-2.6831
X9.5276Y-3.2835
X9.5287Y-3.2146
X9.622Y-2.2677
X9.6919Y-2.9739
X9.8091Y-7.0768
X9.9724Y-3.9094
X9.9764Y-4.6024
X10.2224Y-2.8209
X10.2618Y-2.3091
X10.3228Y-7.9291
X10.3425Y-2.9843
X10.3543Y-3.9055
X10.5551Y-3.5079
X10.5617Y-4.7154
X10.6378Y-3.0039
X10.6496Y-6.9685
X10.6673Y-5.25
X10.6772Y-2.752
X10.7205Y-6.0354
T4
X10.0984Y-2.5472
X10.0984Y-2.6457
X10.0984Y-2.7441
X10.374Y-2.5472
X10.374Y-2.6457
X10.374Y-2.7441
T5
X5.9055Y-2.6535
T6
X6.6244Y-4.5551
X6.6244Y-4.6551
X6.7244Y-4.5551
X6.7244Y-4.6551
X6.8244Y-4.5551
X6.8244Y-4.6551
X6.9244Y-4.5551
X6.9244Y-4.6551
X7.0244Y-4.5551
X7.0244Y-4.6551
X7.1244Y-4.5551
X7.1244Y-4.6551
X7.2244Y-4.5551
X7.2244Y-4.6551
X7.3244Y-4.5551
X7.3244Y-4.6551
X7.4244Y-4.5551
X7.4244Y-4.6551
X7.5244Y-4.5551
X7.5244Y-4.6551
X9.9409Y-3.2067
X9.9409Y-3.3051
X9.9409Y-3.4035
X10.5118Y-3.2067
X10.5118Y-3.4035
T7
X5.6083Y-4.0886
X5.6083Y-4.3445
X5.7854Y-4.0886
X5.7854Y-4.3445
T8
X10.0315Y-2.4488
X10.4409Y-2.8425
T9
X5.7559Y-2.3465
X6.0551Y-2.3465
T11
X5.0787Y-2.3228
X5.0787Y-7.9134
X10.6693Y-2.3228
X10.6693Y-7.9134
T3
G00X7.7039Y-2.2455
M15
G01X7.7039Y-2.214
M16
G05
G00X7.7039Y-2.4159
M15
G01X7.7039Y-2.3726
M16
G05
G00X8.0441Y-2.2455
M15
G01X8.0441Y-2.214
M16
G05
G00X8.0441Y-2.4159
M15
G01X8.0441Y-2.3726
M16
G05
T10
G00X10.2146Y-3.0846
M15
G01X10.2579Y-3.0846
M16
G05
G00X10.2146Y-3.5256
M15
G01X10.2579Y-3.5256
M16
G05
M30
