M48
; DRILL file {KiCad 9.0.3} date 2025-09-29T12:22:07-0400
; FORMAT={-:-/ absolute / metric / decimal}
; #@! TF.CreationDate,2025-09-29T12:22:07-04:00
; #@! TF.GenerationSoftware,Kicad,Pcbnew,9.0.3
; #@! TF.FileFunction,Plated,1,4,PTH
FMAT,2
METRIC
; #@! TA.AperFunction,Plated,PTH,ViaDrill
T1C0.250
; #@! TA.AperFunction,Plated,PTH,ViaDrill
T2C0.500
; #@! TA.AperFunction,Plated,PTH,ComponentDrill
T3C0.600
; #@! TA.AperFunction,Plated,PTH,ComponentDrill
T4C0.920
; #@! TA.AperFunction,Plated,PTH,ComponentDrill
T5C0.990
; #@! TA.AperFunction,Plated,PTH,ComponentDrill
T6C1.000
; #@! TA.AperFunction,Plated,PTH,ComponentDrill
T7C1.090
; #@! TA.AperFunction,Plated,PTH,ComponentDrill
T8C1.300
; #@! TA.AperFunction,Plated,PTH,ComponentDrill
T9C1.500
; #@! TA.AperFunction,Plated,PTH,ComponentDrill
T10C1.800
; #@! TA.AperFunction,Plated,PTH,ComponentDrill
T11C2.000
; #@! TA.AperFunction,Plated,PTH,ComponentDrill
T12C3.200
%
G90
G05
T1
X130.0Y-139.8
X130.2Y-106.55
X131.0Y-117.525
X131.0Y-118.825
X131.0Y-124.725
X131.0Y-126.025
X131.0Y-131.925
X131.0Y-133.225
X131.0Y-139.125
X131.0Y-140.425
X131.75Y-108.4
X132.0Y-117.525
X132.0Y-119.475
X132.0Y-124.725
X132.0Y-126.675
X132.0Y-131.925
X132.0Y-133.875
X132.0Y-139.125
X132.0Y-141.075
X132.3Y-102.8
X132.55Y-138.15
X132.6Y-123.7
X132.6Y-130.85
X133.0Y-117.525
X133.0Y-120.0
X133.0Y-124.725
X133.0Y-127.2
X133.0Y-131.925
X133.0Y-134.4
X133.05Y-114.75
X133.2Y-139.125
X133.35Y-111.0
X133.4Y-105.05
X133.8Y-116.5
X133.95Y-120.5
X134.75Y-107.35
X134.9Y-123.2
X134.9Y-130.4
X134.9Y-137.6
X134.9Y-144.8
X135.37Y-111.489
X135.95Y-100.85
X136.25Y-103.85
X136.595Y-89.994
X136.9Y-125.5
X136.9Y-133.0
X136.9Y-140.4
X136.95Y-115.05
X137.2Y-117.6
X137.2Y-120.1
X137.55Y-106.75
X137.596Y-83.094
X137.635Y-85.651
X138.3Y-122.7
X138.343Y-144.295
X138.35Y-129.9
X138.45Y-137.05
X138.65Y-97.2
X138.85Y-145.7
X139.35Y-108.7
X139.6Y-95.45
X139.892Y-133.87
X139.893Y-141.07
X139.9Y-119.475
X139.9Y-126.675
X139.992Y-132.395
X139.993Y-139.595
X140.0Y-100.5
X140.0Y-118.0
X140.0Y-125.2
X140.123Y-86.808
X140.123Y-103.572
X140.8Y-113.9
X140.872Y-130.255
X140.873Y-137.455
X140.88Y-123.06
X142.109Y-91.517
X142.492Y-136.47
X142.493Y-143.67
X142.5Y-129.275
X142.517Y-132.57
X142.518Y-139.77
X142.52Y-122.08
X142.525Y-118.175
X142.525Y-125.375
X142.69Y-117.43
X143.288Y-134.56
X143.29Y-141.76
X143.29Y-120.16
X143.296Y-127.365
X143.319Y-135.56
X143.32Y-142.76
X143.32Y-121.16
X143.326Y-128.365
X143.337Y-90.117
X143.45Y-105.0
X143.617Y-131.792
X143.618Y-138.992
X143.619Y-117.392
X143.625Y-124.597
X143.782Y-130.355
X143.783Y-137.555
X143.79Y-123.16
X144.05Y-102.15
X144.05Y-146.65
X144.058Y-125.223
X144.07Y-128.231
X144.073Y-132.395
X144.073Y-135.533
X144.075Y-139.595
X144.075Y-142.733
X144.075Y-117.995
X144.075Y-121.133
X144.273Y-90.061
X144.297Y-87.125
X144.698Y-134.1
X144.7Y-141.3
X144.7Y-119.7
X144.707Y-126.905
X144.781Y-82.377
X144.935Y-84.268
X145.502Y-89.882
X145.567Y-132.96
X145.568Y-140.16
X145.568Y-118.56
X145.575Y-125.765
X145.698Y-136.028
X145.7Y-143.228
X145.7Y-121.628
X145.707Y-128.833
X145.71Y-115.14
X145.999Y-134.65
X145.999Y-141.85
X146.0Y-120.25
X146.006Y-127.455
X146.1Y-97.35
X146.1Y-99.1
X146.587Y-84.264
X146.84Y-92.65
X147.2Y-111.6
X147.328Y-82.514
X147.499Y-131.44
X147.499Y-132.4
X147.499Y-134.64
X147.499Y-135.6
X147.499Y-138.64
X147.499Y-139.6
X147.499Y-141.84
X147.499Y-142.8
X147.5Y-117.04
X147.5Y-118.0
X147.5Y-120.24
X147.5Y-121.2
X147.506Y-124.245
X147.506Y-125.205
X147.506Y-127.445
X147.506Y-128.405
X148.499Y-136.35
X148.499Y-143.55
X148.5Y-121.95
X148.506Y-129.155
X148.721Y-91.6
X148.818Y-130.933
X148.819Y-138.133
X148.82Y-116.533
X148.826Y-123.738
X148.978Y-134.29
X148.98Y-141.49
X148.98Y-119.89
X148.987Y-127.095
X149.321Y-85.803
X149.425Y-84.28
X149.492Y-88.984
X149.547Y-131.15
X149.548Y-138.35
X149.548Y-116.75
X149.55Y-112.45
X149.566Y-123.941
X149.6Y-102.0
X149.6Y-146.4
X149.673Y-90.295
X149.825Y-84.952
X149.978Y-134.34
X149.98Y-141.54
X149.98Y-119.94
X149.987Y-127.145
X150.0Y-99.8
X150.119Y-132.51
X150.12Y-139.71
X150.121Y-118.11
X150.127Y-125.315
X150.238Y-135.63
X150.239Y-142.83
X150.24Y-121.23
X150.246Y-128.435
X150.671Y-131.672
X150.672Y-138.872
X150.672Y-117.272
X150.679Y-124.477
X150.728Y-133.3
X150.73Y-140.5
X150.73Y-118.9
X150.737Y-126.105
X150.826Y-123.133
X150.838Y-134.51
X150.839Y-141.71
X150.84Y-120.11
X150.846Y-127.315
X151.055Y-137.612
X151.057Y-130.36
X152.05Y-101.85
X152.25Y-85.5
X152.262Y-134.62
X152.262Y-135.6
X152.263Y-141.82
X152.263Y-142.8
X152.263Y-120.22
X152.263Y-121.2
X152.27Y-127.425
X152.27Y-128.405
X152.298Y-131.44
X152.298Y-132.4
X152.299Y-138.64
X152.299Y-139.6
X152.3Y-117.04
X152.3Y-118.0
X152.306Y-124.245
X152.306Y-125.205
X152.55Y-103.8
X153.062Y-137.0
X153.063Y-144.2
X153.064Y-122.6
X153.07Y-129.805
X153.25Y-80.4
X153.27Y-115.03
X153.35Y-85.5
X153.798Y-133.8
X153.798Y-136.5
X153.799Y-141.0
X153.799Y-143.7
X153.8Y-119.4
X153.8Y-122.1
X153.806Y-126.605
X153.806Y-129.305
X154.45Y-90.9
X155.1Y-146.6
X155.25Y-80.0
X155.65Y-93.85
X155.744Y-100.91
X155.903Y-78.17
X156.0Y-123.3
X156.0Y-130.5
X156.0Y-137.8
X156.186Y-94.461
X156.4Y-84.7
X156.569Y-91.824
X157.0Y-102.85
X158.2Y-117.4
X158.2Y-119.0
X158.2Y-120.6
X158.2Y-122.2
X158.2Y-124.6
X158.2Y-126.2
X158.2Y-127.8
X158.2Y-129.4
X158.2Y-131.8
X158.2Y-133.4
X158.2Y-135.0
X158.2Y-136.6
X158.2Y-139.0
X158.2Y-140.6
X158.2Y-142.2
X158.2Y-143.8
X158.25Y-112.45
X158.65Y-96.95
X158.7Y-145.7
X158.85Y-106.15
X159.55Y-97.65
X159.85Y-96.1
X159.95Y-123.4
X159.98Y-115.17
X160.15Y-87.5
X160.15Y-130.6
X160.3Y-137.85
X160.35Y-95.1
X160.4Y-98.15
X160.5Y-117.8
X160.5Y-119.4
X160.5Y-121.0
X160.5Y-122.6
X160.5Y-125.0
X160.5Y-126.6
X160.5Y-128.2
X160.5Y-129.8
X160.5Y-132.2
X160.5Y-133.8
X160.5Y-135.4
X160.5Y-137.0
X160.5Y-139.4
X160.5Y-141.0
X160.5Y-142.6
X160.5Y-144.2
X160.7Y-146.65
X160.85Y-89.6
X161.1Y-98.7
X162.35Y-96.5
X162.55Y-93.2
X162.6Y-147.55
X162.85Y-101.45
X163.0Y-94.3
X163.0Y-95.9
X163.95Y-98.2
X163.95Y-104.05
X164.29Y-90.26
X164.5Y-117.75
X164.6Y-130.7
X164.7Y-97.693
X164.7Y-142.25
X164.85Y-87.5
X164.95Y-92.9
X165.15Y-102.326
X165.55Y-98.0
X165.75Y-87.5
X165.85Y-92.9
X166.05Y-102.3
X166.65Y-97.4
X167.05Y-94.8
X167.05Y-95.7
X167.055Y-98.193
X167.25Y-90.8
X167.3Y-93.9
X167.35Y-92.9
X167.45Y-96.5
X168.25Y-91.96
X168.85Y-87.8
X169.15Y-99.2
X169.425Y-117.025
X169.425Y-118.625
X169.425Y-120.225
X169.425Y-121.825
X169.425Y-124.225
X169.425Y-125.825
X169.425Y-127.425
X169.425Y-129.025
X169.425Y-131.425
X169.425Y-133.025
X169.425Y-134.625
X169.425Y-136.225
X169.425Y-138.625
X169.425Y-140.225
X169.425Y-141.825
X169.425Y-143.425
X169.427Y-94.011
X169.45Y-103.0
X169.55Y-101.3
X169.65Y-137.75
X169.7Y-123.35
X169.7Y-96.926
X169.75Y-130.7
X170.4Y-87.9
X170.407Y-114.918
X171.25Y-92.0
X171.25Y-92.9
X171.825Y-117.525
X171.825Y-119.125
X171.825Y-120.725
X171.825Y-122.325
X171.825Y-124.725
X171.825Y-126.325
X171.825Y-127.925
X171.825Y-129.525
X171.825Y-131.925
X171.825Y-133.525
X171.825Y-135.125
X171.825Y-136.725
X171.825Y-139.125
X171.825Y-140.725
X171.825Y-142.325
X171.825Y-143.925
X171.831Y-112.45
X171.97Y-92.61
X172.35Y-147.75
X172.45Y-96.45
X172.5Y-98.5
X172.681Y-93.905
X172.85Y-95.8
X173.4Y-94.6
X173.55Y-95.4
X173.8Y-89.5
X174.0Y-130.6
X174.1Y-137.8
X174.12Y-123.4
X174.4Y-94.4
X174.55Y-95.25
X175.2Y-86.9
X175.25Y-93.9
X175.7Y-95.1
X176.237Y-120.118
X176.237Y-127.318
X176.237Y-134.518
X176.237Y-141.718
X176.384Y-117.584
X176.384Y-124.784
X176.384Y-131.984
X176.384Y-139.184
X176.925Y-117.025
X176.925Y-124.225
X176.925Y-131.425
X176.925Y-138.625
X177.1Y-89.5
X177.725Y-118.425
X177.725Y-119.425
X177.725Y-121.425
X177.725Y-125.625
X177.725Y-126.625
X177.725Y-128.625
X177.725Y-132.825
X177.725Y-133.825
X177.725Y-135.825
X177.725Y-140.025
X177.725Y-141.025
X177.725Y-143.025
X177.825Y-122.425
X177.825Y-129.625
X177.825Y-136.825
X177.825Y-144.025
X177.9Y-102.3
X178.497Y-123.325
X178.497Y-130.525
X178.497Y-137.725
X178.755Y-120.166
X178.755Y-127.366
X178.755Y-134.566
X178.755Y-141.766
X179.302Y-121.743
X179.302Y-128.943
X179.302Y-136.143
X179.302Y-143.343
X179.32Y-122.5
X179.32Y-129.7
X179.32Y-136.9
X179.32Y-144.1
X179.408Y-119.509
X179.408Y-126.709
X179.408Y-133.909
X179.408Y-141.109
X179.636Y-120.641
X179.636Y-127.841
X179.636Y-135.041
X179.636Y-142.241
X179.79Y-112.45
X179.795Y-118.45
X179.795Y-125.65
X179.795Y-132.85
X179.795Y-140.05
X179.807Y-117.592
X179.807Y-124.792
X179.807Y-131.992
X179.807Y-139.192
X179.976Y-122.987
X179.976Y-130.187
X179.976Y-137.387
X180.278Y-147.976
X180.449Y-85.899
X180.525Y-119.675
X180.525Y-126.875
X180.525Y-134.075
X180.525Y-141.275
X180.8Y-114.55
X181.025Y-122.65
X181.025Y-129.85
X181.025Y-137.05
X181.025Y-144.25
X181.148Y-121.671
X181.148Y-128.871
X181.148Y-136.071
X181.148Y-143.271
X181.8Y-88.8
X181.975Y-120.3
X181.975Y-127.5
X181.975Y-134.7
X181.975Y-141.9
X182.425Y-117.325
X182.425Y-118.125
X182.425Y-119.125
X182.425Y-122.325
X182.425Y-124.525
X182.425Y-125.325
X182.425Y-126.325
X182.425Y-129.525
X182.425Y-131.725
X182.425Y-132.525
X182.425Y-133.525
X182.425Y-136.725
X182.425Y-138.925
X182.425Y-139.725
X182.425Y-140.725
X182.425Y-143.925
X182.446Y-121.375
X182.446Y-128.575
X182.446Y-135.775
X182.446Y-142.975
X183.1Y-101.3
X183.4Y-99.9
X183.933Y-119.127
X183.933Y-126.327
X183.933Y-133.527
X183.933Y-140.727
X184.12Y-120.4
X184.12Y-127.6
X184.12Y-134.8
X184.12Y-142.0
X184.432Y-112.45
X184.45Y-117.4
X184.45Y-121.13
X184.45Y-124.6
X184.45Y-128.33
X184.45Y-131.8
X184.45Y-135.53
X184.45Y-139.0
X184.45Y-142.73
X184.455Y-118.15
X184.455Y-125.35
X184.455Y-132.55
X184.455Y-139.75
X184.65Y-89.75
X185.3Y-85.3
X185.9Y-103.3
X186.125Y-118.125
X186.125Y-120.425
X186.125Y-125.325
X186.125Y-127.625
X186.125Y-132.525
X186.125Y-134.825
X186.125Y-139.725
X186.125Y-142.025
X186.425Y-117.325
X186.425Y-124.525
X186.425Y-131.725
X186.425Y-138.925
X186.7Y-121.0
X186.7Y-128.2
X186.7Y-135.4
X186.7Y-142.6
X187.025Y-118.925
X187.025Y-126.125
X187.025Y-133.325
X187.025Y-140.525
X187.089Y-119.789
X187.089Y-126.989
X187.089Y-134.189
X187.089Y-141.389
X187.225Y-117.925
X187.225Y-125.125
X187.225Y-132.325
X187.225Y-139.525
X187.5Y-111.608
X190.0Y-121.5
X190.0Y-128.7
X190.0Y-135.9
X190.0Y-143.1
X190.025Y-120.425
X190.025Y-127.625
X190.025Y-134.825
X190.025Y-142.025
X190.1Y-79.8
X190.9Y-83.5
X191.525Y-146.068
X191.75Y-138.253
X191.8Y-114.6
X191.889Y-79.889
X192.15Y-128.4
X192.3Y-82.2
X192.45Y-130.9
X193.0Y-119.0
X193.0Y-120.0
X193.0Y-126.2
X193.0Y-127.2
X193.0Y-133.4
X193.0Y-134.4
X193.0Y-140.6
X193.0Y-141.6
X193.3Y-82.2
X193.8Y-75.9
X194.5Y-77.6
X194.7Y-78.9
X195.1Y-116.0
X195.1Y-123.2
X195.1Y-130.4
X195.1Y-137.6
X196.0Y-118.6
X196.95Y-141.35
X197.0Y-119.825
X197.0Y-121.8
X197.0Y-127.025
X197.0Y-129.0
X197.0Y-134.225
X197.0Y-136.2
X197.6Y-76.2
X197.6Y-88.45
X197.6Y-98.95
X197.6Y-100.9
X197.95Y-90.75
X198.0Y-120.475
X198.0Y-121.8
X198.0Y-127.675
X198.0Y-129.0
X198.0Y-134.875
X198.0Y-136.2
X198.0Y-141.9
X198.1Y-150.85
X198.6Y-132.3
X198.6Y-139.4
X198.7Y-124.8
X198.943Y-115.757
X199.0Y-143.375
X199.7Y-69.5
X199.7Y-76.6
X199.8Y-92.1
X199.85Y-62.75
X199.85Y-65.0
X200.1Y-143.7
X201.0Y-118.825
X201.0Y-124.725
X201.0Y-126.025
X201.0Y-131.925
X201.0Y-133.225
X201.0Y-139.125
X201.0Y-140.425
X202.0Y-119.475
X202.0Y-124.725
X202.0Y-126.675
X202.0Y-131.925
X202.0Y-133.875
X202.0Y-139.125
X202.0Y-141.075
X202.2Y-151.35
X202.6Y-123.85
X202.65Y-130.95
X202.7Y-138.1
X202.9Y-74.2
X203.0Y-117.525
X203.0Y-120.0
X203.0Y-124.725
X203.0Y-127.2
X203.0Y-131.925
X203.0Y-134.4
X203.0Y-139.125
X203.9Y-136.1
X203.95Y-122.3
X203.95Y-142.95
X204.0Y-120.9
X204.0Y-128.7
X204.4Y-75.2
X204.9Y-123.2
X204.9Y-130.4
X204.9Y-137.6
X204.9Y-144.8
X205.6Y-82.25
X205.7Y-75.2
X205.734Y-73.887
X206.05Y-90.05
X206.9Y-80.4
X206.9Y-125.8
X206.9Y-133.0
X206.9Y-140.25
X207.0Y-77.3
X207.05Y-114.8
X207.25Y-119.25
X207.3Y-91.7
X208.298Y-122.7
X208.3Y-75.4
X208.3Y-76.4
X208.341Y-144.295
X208.349Y-129.9
X208.448Y-137.05
X209.891Y-133.87
X209.891Y-141.07
X209.898Y-119.475
X209.898Y-126.675
X209.99Y-132.395
X209.992Y-139.595
X209.998Y-118.0
X209.998Y-125.2
X210.1Y-69.2
X210.87Y-130.255
X210.871Y-137.455
X210.879Y-123.06
X211.85Y-82.1
X211.9Y-147.7
X212.49Y-136.47
X212.492Y-143.67
X212.498Y-129.275
X212.516Y-132.57
X212.516Y-139.77
X212.518Y-122.08
X212.523Y-118.175
X212.523Y-125.375
X212.688Y-117.43
X213.287Y-134.56
X213.288Y-141.76
X213.288Y-120.16
X213.295Y-127.365
X213.317Y-135.56
X213.318Y-142.76
X213.319Y-121.16
X213.325Y-128.365
X213.616Y-131.792
X213.617Y-138.992
X213.617Y-117.392
X213.624Y-124.597
X213.78Y-130.355
X213.781Y-137.555
X213.788Y-123.16
X214.064Y-125.209
X214.072Y-132.395
X214.072Y-135.533
X214.073Y-139.595
X214.073Y-142.733
X214.073Y-117.995
X214.073Y-121.133
X214.075Y-128.36
X214.65Y-114.3
X214.697Y-134.1
X214.698Y-141.3
X214.698Y-119.7
X214.705Y-126.905
X215.565Y-132.96
X215.566Y-140.16
X215.567Y-118.56
X215.573Y-125.765
X215.697Y-136.028
X215.698Y-143.228
X215.698Y-121.628
X215.705Y-128.833
X215.997Y-134.65
X215.998Y-141.85
X215.998Y-120.25
X216.005Y-127.455
X217.0Y-91.8
X217.3Y-111.608
X217.497Y-131.44
X217.497Y-132.4
X217.497Y-134.64
X217.497Y-135.6
X217.498Y-138.64
X217.498Y-139.6
X217.498Y-141.84
X217.498Y-142.8
X217.498Y-117.04
X217.498Y-118.0
X217.498Y-120.24
X217.498Y-121.2
X217.505Y-124.245
X217.505Y-125.205
X217.505Y-127.445
X217.505Y-128.405
X218.45Y-90.3
X218.497Y-136.35
X218.498Y-143.55
X218.498Y-121.95
X218.505Y-129.155
X218.817Y-130.933
X218.818Y-138.133
X218.818Y-116.533
X218.825Y-123.738
X218.977Y-134.29
X218.978Y-141.49
X218.978Y-119.89
X218.985Y-127.095
X219.547Y-116.75
X219.548Y-131.14
X219.549Y-112.45
X219.561Y-123.94
X219.595Y-138.251
X219.85Y-82.25
X219.95Y-80.5
X219.977Y-134.34
X219.978Y-141.54
X219.978Y-119.94
X219.985Y-127.145
X220.118Y-132.51
X220.119Y-139.71
X220.119Y-118.11
X220.126Y-125.315
X220.2Y-147.15
X220.237Y-135.63
X220.238Y-142.83
X220.238Y-121.23
X220.245Y-128.435
X220.669Y-131.672
X220.67Y-138.872
X220.671Y-117.272
X220.677Y-124.477
X220.727Y-133.3
X220.728Y-140.5
X220.728Y-118.9
X220.735Y-126.105
X220.825Y-123.133
X220.837Y-134.51
X220.838Y-141.71
X220.838Y-120.11
X220.845Y-127.315
X221.053Y-137.612
X221.055Y-130.36
X222.26Y-134.62
X222.26Y-135.6
X222.261Y-141.82
X222.261Y-142.8
X222.262Y-120.22
X222.262Y-121.2
X222.268Y-127.425
X222.268Y-128.405
X222.297Y-131.44
X222.297Y-132.4
X222.298Y-138.64
X222.298Y-139.6
X222.298Y-117.04
X222.298Y-118.0
X222.305Y-124.245
X222.305Y-125.205
X222.45Y-114.5
X223.06Y-137.0
X223.061Y-144.2
X223.062Y-122.6
X223.069Y-129.805
X223.797Y-133.8
X223.797Y-136.5
X223.798Y-141.0
X223.798Y-143.7
X223.798Y-119.4
X223.798Y-122.1
X223.805Y-126.605
X223.805Y-129.305
X224.0Y-66.5
X224.1Y-70.15
X225.1Y-76.15
X225.25Y-66.6
X225.55Y-71.7
X226.0Y-123.4
X226.0Y-137.8
X226.1Y-130.6
X226.6Y-73.45
X227.85Y-147.0
X228.0Y-66.65
X228.15Y-71.1
X228.189Y-112.45
X228.2Y-117.4
X228.2Y-119.0
X228.2Y-120.6
X228.2Y-122.2
X228.2Y-124.6
X228.2Y-126.2
X228.2Y-127.8
X228.2Y-129.4
X228.2Y-131.8
X228.2Y-133.4
X228.2Y-135.0
X228.2Y-136.6
X228.2Y-139.0
X228.2Y-140.6
X228.2Y-142.2
X228.2Y-143.8
X229.05Y-71.25
X229.3Y-73.35
X229.632Y-114.429
X229.7Y-68.45
X229.85Y-73.9
X230.2Y-130.6
X230.25Y-137.85
X230.45Y-73.25
X230.45Y-80.45
X230.5Y-117.8
X230.5Y-119.4
X230.5Y-121.0
X230.5Y-122.6
X230.5Y-125.0
X230.5Y-126.6
X230.5Y-128.2
X230.5Y-129.8
X230.5Y-132.2
X230.5Y-133.8
X230.5Y-135.4
X230.5Y-137.0
X230.5Y-139.4
X230.5Y-141.0
X230.5Y-142.6
X230.5Y-144.2
X230.95Y-73.9
X231.45Y-73.25
X232.1Y-71.15
X232.25Y-74.7
X232.45Y-81.85
X233.25Y-69.15
X233.3Y-66.85
X233.4Y-68.15
X233.45Y-74.0
X234.225Y-73.7
X234.85Y-142.7
X235.05Y-118.65
X235.2Y-80.2
X235.3Y-128.2
X235.4Y-69.75
X235.55Y-76.1
X235.75Y-70.9
X236.05Y-67.4
X236.3Y-71.7
X236.4Y-72.7
X237.1Y-84.15
X239.425Y-117.025
X239.425Y-118.625
X239.425Y-120.225
X239.425Y-121.825
X239.425Y-124.225
X239.425Y-125.825
X239.425Y-127.425
X239.425Y-129.025
X239.425Y-131.425
X239.425Y-133.025
X239.425Y-134.625
X239.425Y-136.225
X239.425Y-138.625
X239.425Y-140.225
X239.425Y-141.825
X239.425Y-143.425
X239.6Y-130.55
X239.65Y-123.4
X239.65Y-137.8
X240.671Y-114.874
X241.5Y-88.65
X241.815Y-112.45
X241.825Y-117.525
X241.825Y-119.125
X241.825Y-120.725
X241.825Y-122.325
X241.825Y-124.725
X241.825Y-126.325
X241.825Y-127.925
X241.825Y-129.525
X241.825Y-131.925
X241.825Y-133.525
X241.825Y-135.125
X241.825Y-136.725
X241.825Y-139.125
X241.825Y-140.725
X241.825Y-142.325
X241.825Y-143.925
X242.92Y-86.604
X243.72Y-88.854
X243.9Y-84.65
X245.27Y-89.754
X245.4Y-88.55
X245.62Y-82.954
X245.8Y-75.15
X246.237Y-120.118
X246.237Y-127.318
X246.237Y-134.518
X246.237Y-141.718
X246.384Y-117.584
X246.384Y-124.784
X246.384Y-131.984
X246.384Y-139.184
X246.42Y-86.754
X246.597Y-114.894
X246.925Y-117.025
X246.925Y-124.225
X246.925Y-131.425
X246.925Y-138.625
X247.725Y-118.425
X247.725Y-119.425
X247.725Y-121.425
X247.725Y-125.625
X247.725Y-126.625
X247.725Y-128.625
X247.725Y-132.825
X247.725Y-133.825
X247.725Y-135.825
X247.725Y-140.025
X247.725Y-141.025
X247.725Y-143.025
X247.825Y-122.425
X247.825Y-129.625
X247.825Y-136.825
X247.825Y-144.025
X248.2Y-66.6
X248.47Y-81.804
X248.497Y-123.325
X248.497Y-130.525
X248.497Y-137.725
X248.755Y-120.166
X248.755Y-127.366
X248.755Y-134.566
X248.755Y-141.766
X248.779Y-112.45
X249.302Y-121.743
X249.302Y-128.943
X249.302Y-136.143
X249.302Y-143.343
X249.32Y-122.5
X249.32Y-129.7
X249.32Y-136.9
X249.32Y-144.1
X249.408Y-119.509
X249.408Y-126.709
X249.408Y-133.909
X249.408Y-141.109
X249.636Y-120.641
X249.636Y-127.841
X249.636Y-135.041
X249.636Y-142.241
X249.795Y-118.45
X249.795Y-125.65
X249.795Y-132.85
X249.795Y-140.05
X249.807Y-117.592
X249.807Y-124.792
X249.807Y-131.992
X249.807Y-139.192
X249.976Y-122.987
X249.976Y-130.187
X249.976Y-137.387
X250.525Y-119.675
X250.525Y-126.875
X250.525Y-134.075
X250.525Y-141.275
X251.025Y-122.65
X251.025Y-129.85
X251.025Y-137.05
X251.025Y-144.25
X251.148Y-121.671
X251.148Y-128.871
X251.148Y-136.071
X251.148Y-143.271
X251.328Y-114.474
X251.8Y-74.4
X251.892Y-111.608
X251.975Y-120.3
X251.975Y-127.5
X251.975Y-134.7
X251.975Y-141.9
X252.425Y-117.325
X252.425Y-118.125
X252.425Y-119.125
X252.425Y-122.325
X252.425Y-124.525
X252.425Y-125.325
X252.425Y-126.325
X252.425Y-129.525
X252.425Y-131.725
X252.425Y-132.525
X252.425Y-133.525
X252.425Y-136.725
X252.425Y-138.925
X252.425Y-139.725
X252.425Y-140.725
X252.425Y-143.925
X252.446Y-121.375
X252.446Y-128.575
X252.446Y-135.775
X252.446Y-142.975
X253.933Y-119.127
X253.933Y-126.327
X253.933Y-133.527
X253.933Y-140.727
X254.12Y-120.4
X254.12Y-127.6
X254.12Y-134.8
X254.12Y-142.0
X254.45Y-117.4
X254.45Y-121.13
X254.45Y-124.6
X254.45Y-128.33
X254.45Y-131.8
X254.45Y-135.53
X254.45Y-139.0
X254.45Y-142.73
X254.455Y-118.15
X254.455Y-125.35
X254.455Y-132.55
X254.455Y-139.75
X256.125Y-118.125
X256.125Y-120.425
X256.125Y-125.325
X256.125Y-127.625
X256.125Y-132.525
X256.125Y-134.825
X256.125Y-139.725
X256.125Y-142.025
X256.425Y-117.325
X256.425Y-124.525
X256.425Y-131.725
X256.425Y-138.925
X256.7Y-121.0
X256.7Y-128.2
X256.7Y-135.4
X256.7Y-142.6
X257.025Y-118.925
X257.025Y-126.125
X257.025Y-133.325
X257.025Y-140.525
X257.089Y-119.789
X257.089Y-126.989
X257.089Y-134.189
X257.089Y-141.389
X257.225Y-117.925
X257.225Y-125.125
X257.225Y-132.325
X257.225Y-139.525
X259.25Y-112.85
X260.0Y-121.5
X260.0Y-128.7
X260.0Y-135.9
X260.0Y-143.1
X260.025Y-120.425
X260.025Y-127.625
X260.025Y-134.825
X260.025Y-142.025
X261.9Y-116.75
X262.4Y-131.0
X262.45Y-122.15
X262.5Y-138.45
X262.6Y-128.55
X262.9Y-114.8
X263.0Y-119.0
X263.0Y-120.0
X263.0Y-126.2
X263.0Y-127.2
X263.0Y-133.4
X263.0Y-134.4
X263.0Y-140.6
X263.0Y-141.6
X265.1Y-116.0
X265.1Y-123.2
X265.1Y-130.4
X265.1Y-137.6
X266.0Y-118.5
X267.0Y-119.825
X267.0Y-121.8
X267.0Y-127.025
X267.0Y-129.0
X267.0Y-134.225
X267.0Y-136.2
X267.0Y-141.3
X267.995Y-141.905
X268.0Y-120.475
X268.0Y-121.8
X268.0Y-127.675
X268.0Y-129.0
X268.0Y-134.875
X268.0Y-136.2
X269.0Y-142.7
T2
X126.6Y-120.15
X126.65Y-138.2
X126.85Y-105.3
X130.3Y-152.9
X132.661Y-91.348
X133.291Y-79.339
X133.45Y-97.8
X135.771Y-82.788
X138.309Y-92.772
X138.75Y-61.4
X138.97Y-68.765
X142.938Y-76.919
X143.0Y-73.0
X143.0Y-170.0
X144.049Y-94.694
X144.75Y-107.9
X148.727Y-95.123
X150.044Y-81.438
X151.05Y-107.85
X152.869Y-95.086
X152.9Y-75.9
X154.45Y-109.1
X155.1Y-69.9
X158.0Y-73.0
X161.6Y-160.95
X163.45Y-61.0
X164.65Y-80.4
X164.7Y-108.05
X169.556Y-66.242
X172.0Y-74.3
X172.75Y-84.95
X173.45Y-107.7
X176.389Y-81.561
X177.1Y-61.6
X181.1Y-67.1
X182.0Y-169.7
X182.2Y-82.4
X184.1Y-74.5
X185.75Y-107.45
X186.7Y-77.3
X187.0Y-98.5
X188.0Y-69.1
X190.2Y-61.3
X190.3Y-65.6
X190.55Y-90.2
X190.7Y-78.9
X191.4Y-71.5
X193.3Y-88.0
X193.52Y-68.19
X195.4Y-65.4
X195.6Y-71.6
X195.6Y-86.1
X198.5Y-107.3
X200.95Y-67.35
X201.3Y-99.75
X204.95Y-162.1
X205.35Y-94.35
X206.15Y-87.45
X206.8Y-69.4
X208.9Y-69.3
X208.95Y-107.15
X211.75Y-87.15
X211.9Y-68.7
X212.1Y-59.1
X212.53Y-76.235
X214.85Y-94.35
X215.4Y-101.4
X216.7Y-73.1
X218.1Y-65.7
X218.625Y-77.97
X218.65Y-71.55
X219.3Y-75.4
X220.4Y-86.45
X224.35Y-106.75
X224.45Y-93.95
X225.1Y-170.0
X226.35Y-82.4
X230.15Y-89.65
X234.25Y-86.85
X236.6Y-106.65
X237.035Y-81.23
X238.45Y-76.2
X239.55Y-72.55
X240.55Y-67.1
X242.65Y-96.5
X243.75Y-82.0
X243.9Y-57.2
X247.85Y-80.1
X249.15Y-160.75
X249.45Y-85.95
X249.65Y-91.5
X251.8Y-64.0
X252.75Y-96.35
X255.25Y-106.35
X258.4Y-73.6
X262.2Y-171.4
X265.8Y-70.6
X268.05Y-107.35
X268.1Y-89.1
X268.1Y-94.9
X270.2Y-76.3
X270.5Y-158.0
X271.2Y-66.2
X271.6Y-117.65
X272.3Y-134.3
T4
X150.0Y-67.4
T5
X174.5Y-58.0
X179.0Y-58.0
T6
X252.5Y-81.45
X252.5Y-83.95
X252.5Y-86.45
X267.0Y-81.45
X267.0Y-86.45
T7
X255.46Y-62.92
X255.46Y-68.0
X258.0Y-68.0
X260.54Y-62.92
X260.54Y-68.0
T8
X173.25Y-60.49
X180.26Y-60.49
T9
X215.4Y-64.3
X220.6Y-64.3
T10
X146.2Y-59.6
X153.8Y-59.6
T12
X129.0Y-59.0
X129.0Y-171.0
X271.0Y-59.0
X271.0Y-171.0
T3
G00X195.68Y-57.035
M15
G01X195.68Y-56.235
M16
G05
G00X195.68Y-61.365
M15
G01X195.68Y-60.265
M16
G05
G00X204.32Y-57.035
M15
G01X204.32Y-56.235
M16
G05
G00X204.32Y-61.365
M15
G01X204.32Y-60.265
M16
G05
T11
G00X259.45Y-78.35
M15
G01X260.55Y-78.35
M16
G05
G00X259.45Y-89.55
M15
G01X260.55Y-89.55
M16
G05
M30
