%TF.GenerationSoftware,KiCad,Pcbnew,9.0.0-rc1*%
%TF.CreationDate,2025-02-06T15:05:50-05:00*%
%TF.ProjectId,ephys-test-board,65706879-732d-4746-9573-742d626f6172,B*%
%TF.SameCoordinates,Original*%
%TF.FileFunction,Legend,Bot*%
%TF.FilePolarity,Positive*%
%FSLAX46Y46*%
G04 Gerber Fmt 4.6, Leading zero omitted, Abs format (unit mm)*
G04 Created by KiCad (PCBNEW 9.0.0-rc1) date 2025-02-06 15:05:50*
%MOMM*%
%LPD*%
G01*
G04 APERTURE LIST*
%ADD10C,0.150000*%
%ADD11C,0.120000*%
G04 APERTURE END LIST*
D10*
X132800000Y-70100000D02*
X206100000Y-70100000D01*
X206100000Y-105000000D01*
X132800000Y-105000000D01*
X132800000Y-70100000D01*
X238983333Y-70754819D02*
X238983333Y-71469104D01*
X238983333Y-71469104D02*
X239030952Y-71611961D01*
X239030952Y-71611961D02*
X239126190Y-71707200D01*
X239126190Y-71707200D02*
X239269047Y-71754819D01*
X239269047Y-71754819D02*
X239364285Y-71754819D01*
X238078571Y-71088152D02*
X238078571Y-71754819D01*
X238316666Y-70707200D02*
X238554761Y-71421485D01*
X238554761Y-71421485D02*
X237935714Y-71421485D01*
X218499999Y-66058557D02*
X218499999Y-66701414D01*
X218499999Y-66701414D02*
X218542856Y-66829985D01*
X218542856Y-66829985D02*
X218628570Y-66915700D01*
X218628570Y-66915700D02*
X218757142Y-66958557D01*
X218757142Y-66958557D02*
X218842856Y-66958557D01*
X218157142Y-66058557D02*
X217557142Y-66058557D01*
X217557142Y-66058557D02*
X217942856Y-66958557D01*
D11*
%TO.C,U140*%
X248875000Y-138865000D02*
X250285000Y-138865000D01*
X248875000Y-141185000D02*
X250275000Y-141185000D01*
X250655000Y-138915000D02*
X250415000Y-138585000D01*
X250895000Y-138585000D01*
X250655000Y-138915000D01*
G36*
X250655000Y-138915000D02*
G01*
X250415000Y-138585000D01*
X250895000Y-138585000D01*
X250655000Y-138915000D01*
G37*
%TO.C,R63*%
X159246359Y-142220000D02*
X159553641Y-142220000D01*
X159246359Y-142980000D02*
X159553641Y-142980000D01*
%TO.C,R185*%
X229246359Y-140620000D02*
X229553641Y-140620000D01*
X229246359Y-141380000D02*
X229553641Y-141380000D01*
%TO.C,C251*%
X251365000Y-128932836D02*
X251365000Y-128717164D01*
X252085000Y-128932836D02*
X252085000Y-128717164D01*
%TO.C,R157*%
X227153641Y-126220000D02*
X226846359Y-126220000D01*
X227153641Y-126980000D02*
X226846359Y-126980000D01*
%TO.C,R74*%
X172971359Y-116645000D02*
X173278641Y-116645000D01*
X172971359Y-117405000D02*
X173278641Y-117405000D01*
%TO.C,R234*%
X242971359Y-131045000D02*
X243278641Y-131045000D01*
X242971359Y-131805000D02*
X243278641Y-131805000D01*
%TO.C,U28*%
X146450000Y-134440000D02*
X145050000Y-134440000D01*
X146450000Y-136760000D02*
X145040000Y-136760000D01*
X144910000Y-137040000D02*
X144430000Y-137040000D01*
X144670000Y-136710000D01*
X144910000Y-137040000D01*
G36*
X144910000Y-137040000D02*
G01*
X144430000Y-137040000D01*
X144670000Y-136710000D01*
X144910000Y-137040000D01*
G37*
%TO.C,C44*%
X154892164Y-129440000D02*
X155107836Y-129440000D01*
X154892164Y-130160000D02*
X155107836Y-130160000D01*
%TO.C,R232*%
X240778641Y-132645000D02*
X240471359Y-132645000D01*
X240778641Y-133405000D02*
X240471359Y-133405000D01*
%TO.C,C115*%
X181365000Y-128932836D02*
X181365000Y-128717164D01*
X182085000Y-128932836D02*
X182085000Y-128717164D01*
%TO.C,U129*%
X253525000Y-131365000D02*
X254935000Y-131365000D01*
X253525000Y-133685000D02*
X254925000Y-133685000D01*
X255305000Y-131415000D02*
X255065000Y-131085000D01*
X255545000Y-131085000D01*
X255305000Y-131415000D01*
G36*
X255305000Y-131415000D02*
G01*
X255065000Y-131085000D01*
X255545000Y-131085000D01*
X255305000Y-131415000D01*
G37*
%TO.C,C103*%
X175242836Y-125465000D02*
X175027164Y-125465000D01*
X175242836Y-126185000D02*
X175027164Y-126185000D01*
%TO.C,R112*%
X170778641Y-135845000D02*
X170471359Y-135845000D01*
X170778641Y-136605000D02*
X170471359Y-136605000D01*
%TO.C,R244*%
X242971359Y-135845000D02*
X243278641Y-135845000D01*
X242971359Y-136605000D02*
X243278641Y-136605000D01*
%TO.C,C165*%
X222640000Y-120592164D02*
X222640000Y-120807836D01*
X223360000Y-120592164D02*
X223360000Y-120807836D01*
%TO.C,R220*%
X242981359Y-125445000D02*
X243288641Y-125445000D01*
X242981359Y-126205000D02*
X243288641Y-126205000D01*
%TO.C,C25*%
X154892164Y-120640000D02*
X155107836Y-120640000D01*
X154892164Y-121360000D02*
X155107836Y-121360000D01*
%TO.C,C90*%
X181365000Y-118732836D02*
X181365000Y-118517164D01*
X182085000Y-118732836D02*
X182085000Y-118517164D01*
%TO.C,J4*%
X226050000Y-65900000D02*
X226050000Y-67640000D01*
X226050000Y-70360000D02*
X226050000Y-71700000D01*
X226050000Y-71700000D02*
X227540000Y-71700000D01*
X227540000Y-72900000D02*
X227540000Y-71700000D01*
X237350000Y-65900000D02*
X226050000Y-65900000D01*
X237350000Y-67640000D02*
X237350000Y-65900000D01*
X237350000Y-70360000D02*
X237350000Y-71700000D01*
X237350000Y-71700000D02*
X235860000Y-71700000D01*
%TO.C,C174*%
X222640000Y-124612164D02*
X222640000Y-124827836D01*
X223360000Y-124612164D02*
X223360000Y-124827836D01*
%TO.C,U22*%
X151200000Y-131240000D02*
X149800000Y-131240000D01*
X151200000Y-133560000D02*
X149790000Y-133560000D01*
X149660000Y-133840000D02*
X149180000Y-133840000D01*
X149420000Y-133510000D01*
X149660000Y-133840000D01*
G36*
X149660000Y-133840000D02*
G01*
X149180000Y-133840000D01*
X149420000Y-133510000D01*
X149660000Y-133840000D01*
G37*
%TO.C,R246*%
X240778641Y-138245000D02*
X240471359Y-138245000D01*
X240778641Y-139005000D02*
X240471359Y-139005000D01*
%TO.C,C204*%
X224892164Y-139040000D02*
X225107836Y-139040000D01*
X224892164Y-139760000D02*
X225107836Y-139760000D01*
%TO.C,C153*%
X224892164Y-117440000D02*
X225107836Y-117440000D01*
X224892164Y-118160000D02*
X225107836Y-118160000D01*
%TO.C,R104*%
X170778641Y-132645000D02*
X170471359Y-132645000D01*
X170778641Y-133405000D02*
X170471359Y-133405000D01*
%TO.C,U78*%
X216450000Y-116840000D02*
X215050000Y-116840000D01*
X216450000Y-119160000D02*
X215040000Y-119160000D01*
X214910000Y-119440000D02*
X214430000Y-119440000D01*
X214670000Y-119110000D01*
X214910000Y-119440000D01*
G36*
X214910000Y-119440000D02*
G01*
X214430000Y-119440000D01*
X214670000Y-119110000D01*
X214910000Y-119440000D01*
G37*
%TO.C,R43*%
X157153641Y-131820000D02*
X156846359Y-131820000D01*
X157153641Y-132580000D02*
X156846359Y-132580000D01*
%TO.C,R179*%
X227153641Y-135020000D02*
X226846359Y-135020000D01*
X227153641Y-135780000D02*
X226846359Y-135780000D01*
%TO.C,C27*%
X154892164Y-122240000D02*
X155107836Y-122240000D01*
X154892164Y-122960000D02*
X155107836Y-122960000D01*
%TO.C,R108*%
X172981359Y-132645000D02*
X173288641Y-132645000D01*
X172981359Y-133405000D02*
X173288641Y-133405000D01*
%TO.C,R200*%
X240778641Y-118245000D02*
X240471359Y-118245000D01*
X240778641Y-119005000D02*
X240471359Y-119005000D01*
%TO.C,R23*%
X159246359Y-124620000D02*
X159553641Y-124620000D01*
X159246359Y-125380000D02*
X159553641Y-125380000D01*
%TO.C,R242*%
X242971359Y-134245000D02*
X243278641Y-134245000D01*
X242971359Y-135005000D02*
X243278641Y-135005000D01*
%TO.C,R252*%
X242981359Y-139845000D02*
X243288641Y-139845000D01*
X242981359Y-140605000D02*
X243288641Y-140605000D01*
%TO.C,C157*%
X222640000Y-117412164D02*
X222640000Y-117627836D01*
X223360000Y-117412164D02*
X223360000Y-117627836D01*
%TO.C,U85*%
X221200000Y-124040000D02*
X219800000Y-124040000D01*
X221200000Y-126360000D02*
X219790000Y-126360000D01*
X219660000Y-126640000D02*
X219180000Y-126640000D01*
X219420000Y-126310000D01*
X219660000Y-126640000D01*
G36*
X219660000Y-126640000D02*
G01*
X219180000Y-126640000D01*
X219420000Y-126310000D01*
X219660000Y-126640000D01*
G37*
%TO.C,C19*%
X154892164Y-119040000D02*
X155107836Y-119040000D01*
X154892164Y-119760000D02*
X155107836Y-119760000D01*
%TO.C,C76*%
X154892164Y-142240000D02*
X155107836Y-142240000D01*
X154892164Y-142960000D02*
X155107836Y-142960000D01*
%TO.C,R137*%
X229246359Y-119020000D02*
X229553641Y-119020000D01*
X229246359Y-119780000D02*
X229553641Y-119780000D01*
%TO.C,C21*%
X152640000Y-117412164D02*
X152640000Y-117627836D01*
X153360000Y-117412164D02*
X153360000Y-117627836D01*
%TO.C,C230*%
X245232836Y-121465000D02*
X245017164Y-121465000D01*
X245232836Y-122185000D02*
X245017164Y-122185000D01*
%TO.C,U54*%
X178875000Y-127465000D02*
X180285000Y-127465000D01*
X178875000Y-129785000D02*
X180275000Y-129785000D01*
X180655000Y-127515000D02*
X180415000Y-127185000D01*
X180895000Y-127185000D01*
X180655000Y-127515000D01*
G36*
X180655000Y-127515000D02*
G01*
X180415000Y-127185000D01*
X180895000Y-127185000D01*
X180655000Y-127515000D01*
G37*
%TO.C,C82*%
X147903500Y-142212164D02*
X147903500Y-142427836D01*
X148623500Y-142212164D02*
X148623500Y-142427836D01*
%TO.C,C113*%
X176665000Y-129232836D02*
X176665000Y-129017164D01*
X177385000Y-129232836D02*
X177385000Y-129017164D01*
%TO.C,R98*%
X172971359Y-127045000D02*
X173278641Y-127045000D01*
X172971359Y-127805000D02*
X173278641Y-127805000D01*
%TO.C,R86*%
X170778641Y-123845000D02*
X170471359Y-123845000D01*
X170778641Y-124605000D02*
X170471359Y-124605000D01*
%TO.C,C161*%
X224892164Y-120640000D02*
X225107836Y-120640000D01*
X224892164Y-121360000D02*
X225107836Y-121360000D01*
%TO.C,R67*%
X157153641Y-142220000D02*
X156846359Y-142220000D01*
X157153641Y-142980000D02*
X156846359Y-142980000D01*
%TO.C,U39*%
X183525000Y-116965000D02*
X184935000Y-116965000D01*
X183525000Y-119285000D02*
X184925000Y-119285000D01*
X185305000Y-117015000D02*
X185065000Y-116685000D01*
X185545000Y-116685000D01*
X185305000Y-117015000D01*
G36*
X185305000Y-117015000D02*
G01*
X185065000Y-116685000D01*
X185545000Y-116685000D01*
X185305000Y-117015000D01*
G37*
%TO.C,R84*%
X172971359Y-121445000D02*
X173278641Y-121445000D01*
X172971359Y-122205000D02*
X173278641Y-122205000D01*
%TO.C,R189*%
X227153641Y-140620000D02*
X226846359Y-140620000D01*
X227153641Y-141380000D02*
X226846359Y-141380000D01*
%TO.C,C57*%
X147890000Y-131812164D02*
X147890000Y-132027836D01*
X148610000Y-131812164D02*
X148610000Y-132027836D01*
%TO.C,C29*%
X152640000Y-120592164D02*
X152640000Y-120807836D01*
X153360000Y-120592164D02*
X153360000Y-120807836D01*
%TO.C,C53*%
X154892164Y-133440000D02*
X155107836Y-133440000D01*
X154892164Y-134160000D02*
X155107836Y-134160000D01*
%TO.C,R139*%
X227153641Y-117420000D02*
X226846359Y-117420000D01*
X227153641Y-118180000D02*
X226846359Y-118180000D01*
%TO.C,R102*%
X170778641Y-131045000D02*
X170471359Y-131045000D01*
X170778641Y-131805000D02*
X170471359Y-131805000D01*
%TO.C,C249*%
X246665000Y-129232836D02*
X246665000Y-129017164D01*
X247385000Y-129232836D02*
X247385000Y-129017164D01*
%TO.C,C38*%
X152640000Y-124612164D02*
X152640000Y-124827836D01*
X153360000Y-124612164D02*
X153360000Y-124827836D01*
%TO.C,R124*%
X172981359Y-139845000D02*
X173288641Y-139845000D01*
X172981359Y-140605000D02*
X173288641Y-140605000D01*
%TO.C,R236*%
X242981359Y-132645000D02*
X243288641Y-132645000D01*
X242981359Y-133405000D02*
X243288641Y-133405000D01*
%TO.C,C243*%
X251365000Y-125932836D02*
X251365000Y-125717164D01*
X252085000Y-125932836D02*
X252085000Y-125717164D01*
%TO.C,U144*%
X248875000Y-141865000D02*
X250285000Y-141865000D01*
X248875000Y-144185000D02*
X250275000Y-144185000D01*
X250655000Y-141915000D02*
X250415000Y-141585000D01*
X250895000Y-141585000D01*
X250655000Y-141915000D01*
G36*
X250655000Y-141915000D02*
G01*
X250415000Y-141585000D01*
X250895000Y-141585000D01*
X250655000Y-141915000D01*
G37*
%TO.C,C122*%
X176665000Y-133432836D02*
X176665000Y-133217164D01*
X177385000Y-133432836D02*
X177385000Y-133217164D01*
%TO.C,C149*%
X181365000Y-143332836D02*
X181365000Y-143117164D01*
X182085000Y-143332836D02*
X182085000Y-143117164D01*
%TO.C,C279*%
X245232836Y-141465000D02*
X245017164Y-141465000D01*
X245232836Y-142185000D02*
X245017164Y-142185000D01*
%TO.C,R218*%
X242971359Y-123845000D02*
X243278641Y-123845000D01*
X242971359Y-124605000D02*
X243278641Y-124605000D01*
%TO.C,U10*%
X146450000Y-120040000D02*
X145050000Y-120040000D01*
X146450000Y-122360000D02*
X145040000Y-122360000D01*
X144910000Y-122640000D02*
X144430000Y-122640000D01*
X144670000Y-122310000D01*
X144910000Y-122640000D01*
G36*
X144910000Y-122640000D02*
G01*
X144430000Y-122640000D01*
X144670000Y-122310000D01*
X144910000Y-122640000D01*
G37*
%TO.C,R128*%
X170778641Y-143045000D02*
X170471359Y-143045000D01*
X170778641Y-143805000D02*
X170471359Y-143805000D01*
%TO.C,R45*%
X157153641Y-133420000D02*
X156846359Y-133420000D01*
X157153641Y-134180000D02*
X156846359Y-134180000D01*
%TO.C,C216*%
X222640000Y-142192164D02*
X222640000Y-142407836D01*
X223360000Y-142192164D02*
X223360000Y-142407836D01*
%TO.C,C277*%
X251365000Y-140332836D02*
X251365000Y-140117164D01*
X252085000Y-140332836D02*
X252085000Y-140117164D01*
%TO.C,C145*%
X175232836Y-143065000D02*
X175017164Y-143065000D01*
X175232836Y-143785000D02*
X175017164Y-143785000D01*
%TO.C,C36*%
X154892164Y-126240000D02*
X155107836Y-126240000D01*
X154892164Y-126960000D02*
X155107836Y-126960000D01*
%TO.C,R88*%
X170778641Y-125445000D02*
X170471359Y-125445000D01*
X170778641Y-126205000D02*
X170471359Y-126205000D01*
%TO.C,C72*%
X152640000Y-139012164D02*
X152640000Y-139227836D01*
X153360000Y-139012164D02*
X153360000Y-139227836D01*
%TO.C,C212*%
X224892164Y-142240000D02*
X225107836Y-142240000D01*
X224892164Y-142960000D02*
X225107836Y-142960000D01*
%TO.C,R116*%
X172971359Y-135845000D02*
X173278641Y-135845000D01*
X172971359Y-136605000D02*
X173278641Y-136605000D01*
%TO.C,R94*%
X170778641Y-127045000D02*
X170471359Y-127045000D01*
X170778641Y-127805000D02*
X170471359Y-127805000D01*
%TO.C,C155*%
X224892164Y-119040000D02*
X225107836Y-119040000D01*
X224892164Y-119760000D02*
X225107836Y-119760000D01*
%TO.C,C132*%
X181365000Y-136132836D02*
X181365000Y-135917164D01*
X182085000Y-136132836D02*
X182085000Y-135917164D01*
%TO.C,C189*%
X224892164Y-133440000D02*
X225107836Y-133440000D01*
X224892164Y-134160000D02*
X225107836Y-134160000D01*
%TO.C,C266*%
X246665000Y-136432836D02*
X246665000Y-136217164D01*
X247385000Y-136432836D02*
X247385000Y-136217164D01*
%TO.C,U117*%
X248875000Y-120265000D02*
X250285000Y-120265000D01*
X248875000Y-122585000D02*
X250275000Y-122585000D01*
X250655000Y-120315000D02*
X250415000Y-119985000D01*
X250895000Y-119985000D01*
X250655000Y-120315000D01*
G36*
X250655000Y-120315000D02*
G01*
X250415000Y-119985000D01*
X250895000Y-119985000D01*
X250655000Y-120315000D01*
G37*
%TO.C,C40*%
X147890000Y-124612164D02*
X147890000Y-124827836D01*
X148610000Y-124612164D02*
X148610000Y-124827836D01*
%TO.C,R155*%
X227153641Y-124620000D02*
X226846359Y-124620000D01*
X227153641Y-125380000D02*
X226846359Y-125380000D01*
%TO.C,R216*%
X240778641Y-125445000D02*
X240471359Y-125445000D01*
X240778641Y-126205000D02*
X240471359Y-126205000D01*
%TO.C,U52*%
X183525000Y-127165000D02*
X184935000Y-127165000D01*
X183525000Y-129485000D02*
X184925000Y-129485000D01*
X185305000Y-127215000D02*
X185065000Y-126885000D01*
X185545000Y-126885000D01*
X185305000Y-127215000D01*
G36*
X185305000Y-127215000D02*
G01*
X185065000Y-126885000D01*
X185545000Y-126885000D01*
X185305000Y-127215000D01*
G37*
%TO.C,R181*%
X227153641Y-136620000D02*
X226846359Y-136620000D01*
X227153641Y-137380000D02*
X226846359Y-137380000D01*
%TO.C,U133*%
X253525000Y-134365000D02*
X254935000Y-134365000D01*
X253525000Y-136685000D02*
X254925000Y-136685000D01*
X255305000Y-134415000D02*
X255065000Y-134085000D01*
X255545000Y-134085000D01*
X255305000Y-134415000D01*
G36*
X255305000Y-134415000D02*
G01*
X255065000Y-134085000D01*
X255545000Y-134085000D01*
X255305000Y-134415000D01*
G37*
%TO.C,C88*%
X176665000Y-119032836D02*
X176665000Y-118817164D01*
X177385000Y-119032836D02*
X177385000Y-118817164D01*
%TO.C,U76*%
X221200000Y-116840000D02*
X219800000Y-116840000D01*
X221200000Y-119160000D02*
X219790000Y-119160000D01*
X219660000Y-119440000D02*
X219180000Y-119440000D01*
X219420000Y-119110000D01*
X219660000Y-119440000D01*
G36*
X219660000Y-119440000D02*
G01*
X219180000Y-119440000D01*
X219420000Y-119110000D01*
X219660000Y-119440000D01*
G37*
%TO.C,R250*%
X242971359Y-138245000D02*
X243278641Y-138245000D01*
X242971359Y-139005000D02*
X243278641Y-139005000D01*
%TO.C,U113*%
X248875000Y-117265000D02*
X250285000Y-117265000D01*
X248875000Y-119585000D02*
X250275000Y-119585000D01*
X250655000Y-117315000D02*
X250415000Y-116985000D01*
X250895000Y-116985000D01*
X250655000Y-117315000D01*
G36*
X250655000Y-117315000D02*
G01*
X250415000Y-116985000D01*
X250895000Y-116985000D01*
X250655000Y-117315000D01*
G37*
%TO.C,C206*%
X224892164Y-140640000D02*
X225107836Y-140640000D01*
X224892164Y-141360000D02*
X225107836Y-141360000D01*
%TO.C,U89*%
X221200000Y-127240000D02*
X219800000Y-127240000D01*
X221200000Y-129560000D02*
X219790000Y-129560000D01*
X219660000Y-129840000D02*
X219180000Y-129840000D01*
X219420000Y-129510000D01*
X219660000Y-129840000D01*
G36*
X219660000Y-129840000D02*
G01*
X219180000Y-129840000D01*
X219420000Y-129510000D01*
X219660000Y-129840000D01*
G37*
%TO.C,U24*%
X146450000Y-131240000D02*
X145050000Y-131240000D01*
X146450000Y-133560000D02*
X145040000Y-133560000D01*
X144910000Y-133840000D02*
X144430000Y-133840000D01*
X144670000Y-133510000D01*
X144910000Y-133840000D01*
G36*
X144910000Y-133840000D02*
G01*
X144430000Y-133840000D01*
X144670000Y-133510000D01*
X144910000Y-133840000D01*
G37*
%TO.C,R92*%
X172981359Y-125445000D02*
X173288641Y-125445000D01*
X172981359Y-126205000D02*
X173288641Y-126205000D01*
%TO.C,R147*%
X227153641Y-120620000D02*
X226846359Y-120620000D01*
X227153641Y-121380000D02*
X226846359Y-121380000D01*
%TO.C,U80*%
X221200000Y-120040000D02*
X219800000Y-120040000D01*
X221200000Y-122360000D02*
X219790000Y-122360000D01*
X219660000Y-122640000D02*
X219180000Y-122640000D01*
X219420000Y-122310000D01*
X219660000Y-122640000D01*
G36*
X219660000Y-122640000D02*
G01*
X219180000Y-122640000D01*
X219420000Y-122310000D01*
X219660000Y-122640000D01*
G37*
%TO.C,C42*%
X154892164Y-127840000D02*
X155107836Y-127840000D01*
X154892164Y-128560000D02*
X155107836Y-128560000D01*
%TO.C,U72*%
X178875000Y-141865000D02*
X180285000Y-141865000D01*
X178875000Y-144185000D02*
X180275000Y-144185000D01*
X180655000Y-141915000D02*
X180415000Y-141585000D01*
X180895000Y-141585000D01*
X180655000Y-141915000D01*
G36*
X180655000Y-141915000D02*
G01*
X180415000Y-141585000D01*
X180895000Y-141585000D01*
X180655000Y-141915000D01*
G37*
%TO.C,U122*%
X248875000Y-124465000D02*
X250285000Y-124465000D01*
X248875000Y-126785000D02*
X250275000Y-126785000D01*
X250655000Y-124515000D02*
X250415000Y-124185000D01*
X250895000Y-124185000D01*
X250655000Y-124515000D01*
G36*
X250655000Y-124515000D02*
G01*
X250415000Y-124185000D01*
X250895000Y-124185000D01*
X250655000Y-124515000D01*
G37*
%TO.C,C141*%
X181365000Y-140332836D02*
X181365000Y-140117164D01*
X182085000Y-140332836D02*
X182085000Y-140117164D01*
%TO.C,U26*%
X151200000Y-134440000D02*
X149800000Y-134440000D01*
X151200000Y-136760000D02*
X149790000Y-136760000D01*
X149660000Y-137040000D02*
X149180000Y-137040000D01*
X149420000Y-136710000D01*
X149660000Y-137040000D01*
G36*
X149660000Y-137040000D02*
G01*
X149180000Y-137040000D01*
X149420000Y-136710000D01*
X149660000Y-137040000D01*
G37*
%TO.C,R222*%
X240778641Y-127045000D02*
X240471359Y-127045000D01*
X240778641Y-127805000D02*
X240471359Y-127805000D01*
%TO.C,R80*%
X170778641Y-121445000D02*
X170471359Y-121445000D01*
X170778641Y-122205000D02*
X170471359Y-122205000D01*
%TO.C,R238*%
X240778641Y-134245000D02*
X240471359Y-134245000D01*
X240778641Y-135005000D02*
X240471359Y-135005000D01*
%TO.C,R59*%
X157153641Y-139020000D02*
X156846359Y-139020000D01*
X157153641Y-139780000D02*
X156846359Y-139780000D01*
%TO.C,C247*%
X245232836Y-128665000D02*
X245017164Y-128665000D01*
X245232836Y-129385000D02*
X245017164Y-129385000D01*
%TO.C,U82*%
X216450000Y-120040000D02*
X215050000Y-120040000D01*
X216450000Y-122360000D02*
X215040000Y-122360000D01*
X214910000Y-122640000D02*
X214430000Y-122640000D01*
X214670000Y-122310000D01*
X214910000Y-122640000D01*
G36*
X214910000Y-122640000D02*
G01*
X214430000Y-122640000D01*
X214670000Y-122310000D01*
X214910000Y-122640000D01*
G37*
%TO.C,C178*%
X224892164Y-127840000D02*
X225107836Y-127840000D01*
X224892164Y-128560000D02*
X225107836Y-128560000D01*
%TO.C,R173*%
X227153641Y-133420000D02*
X226846359Y-133420000D01*
X227153641Y-134180000D02*
X226846359Y-134180000D01*
%TO.C,C222*%
X245242836Y-118265000D02*
X245027164Y-118265000D01*
X245242836Y-118985000D02*
X245027164Y-118985000D01*
%TO.C,C92*%
X175232836Y-119865000D02*
X175017164Y-119865000D01*
X175232836Y-120585000D02*
X175017164Y-120585000D01*
%TO.C,U35*%
X151200000Y-141640000D02*
X149800000Y-141640000D01*
X151200000Y-143960000D02*
X149790000Y-143960000D01*
X149660000Y-144240000D02*
X149180000Y-144240000D01*
X149420000Y-143910000D01*
X149660000Y-144240000D01*
G36*
X149660000Y-144240000D02*
G01*
X149180000Y-144240000D01*
X149420000Y-143910000D01*
X149660000Y-144240000D01*
G37*
%TO.C,C65*%
X147903500Y-135012164D02*
X147903500Y-135227836D01*
X148623500Y-135012164D02*
X148623500Y-135227836D01*
%TO.C,R21*%
X157153641Y-122220000D02*
X156846359Y-122220000D01*
X157153641Y-122980000D02*
X156846359Y-122980000D01*
%TO.C,C98*%
X181365000Y-121732836D02*
X181365000Y-121517164D01*
X182085000Y-121732836D02*
X182085000Y-121517164D01*
%TO.C,C74*%
X147890000Y-139012164D02*
X147890000Y-139227836D01*
X148610000Y-139012164D02*
X148610000Y-139227836D01*
%TO.C,C51*%
X154892164Y-131840000D02*
X155107836Y-131840000D01*
X154892164Y-132560000D02*
X155107836Y-132560000D01*
%TO.C,R175*%
X229246359Y-135020000D02*
X229553641Y-135020000D01*
X229246359Y-135780000D02*
X229553641Y-135780000D01*
%TO.C,C241*%
X246665000Y-126232836D02*
X246665000Y-126017164D01*
X247385000Y-126232836D02*
X247385000Y-126017164D01*
%TO.C,C191*%
X222640000Y-131812164D02*
X222640000Y-132027836D01*
X223360000Y-131812164D02*
X223360000Y-132027836D01*
%TO.C,R69*%
X157153641Y-143820000D02*
X156846359Y-143820000D01*
X157153641Y-144580000D02*
X156846359Y-144580000D01*
%TO.C,U138*%
X253525000Y-138565000D02*
X254935000Y-138565000D01*
X253525000Y-140885000D02*
X254925000Y-140885000D01*
X255305000Y-138615000D02*
X255065000Y-138285000D01*
X255545000Y-138285000D01*
X255305000Y-138615000D01*
G36*
X255305000Y-138615000D02*
G01*
X255065000Y-138285000D01*
X255545000Y-138285000D01*
X255305000Y-138615000D01*
G37*
%TO.C,C55*%
X152640000Y-131812164D02*
X152640000Y-132027836D01*
X153360000Y-131812164D02*
X153360000Y-132027836D01*
%TO.C,R228*%
X242971359Y-128645000D02*
X243278641Y-128645000D01*
X242971359Y-129405000D02*
X243278641Y-129405000D01*
%TO.C,C128*%
X175232836Y-135865000D02*
X175017164Y-135865000D01*
X175232836Y-136585000D02*
X175017164Y-136585000D01*
%TO.C,C210*%
X217890000Y-139012164D02*
X217890000Y-139227836D01*
X218610000Y-139012164D02*
X218610000Y-139227836D01*
%TO.C,U109*%
X216450000Y-141640000D02*
X215050000Y-141640000D01*
X216450000Y-143960000D02*
X215040000Y-143960000D01*
X214910000Y-144240000D02*
X214430000Y-144240000D01*
X214670000Y-143910000D01*
X214910000Y-144240000D01*
G36*
X214910000Y-144240000D02*
G01*
X214430000Y-144240000D01*
X214670000Y-143910000D01*
X214910000Y-144240000D01*
G37*
%TO.C,R198*%
X240778641Y-116645000D02*
X240471359Y-116645000D01*
X240778641Y-117405000D02*
X240471359Y-117405000D01*
%TO.C,C262*%
X245232836Y-134265000D02*
X245017164Y-134265000D01*
X245232836Y-134985000D02*
X245017164Y-134985000D01*
%TO.C,C273*%
X245242836Y-139865000D02*
X245027164Y-139865000D01*
X245242836Y-140585000D02*
X245027164Y-140585000D01*
%TO.C,C139*%
X176665000Y-140632836D02*
X176665000Y-140417164D01*
X177385000Y-140632836D02*
X177385000Y-140417164D01*
%TO.C,R76*%
X172981359Y-118245000D02*
X173288641Y-118245000D01*
X172981359Y-119005000D02*
X173288641Y-119005000D01*
%TO.C,R167*%
X229246359Y-131820000D02*
X229553641Y-131820000D01*
X229246359Y-132580000D02*
X229553641Y-132580000D01*
%TO.C,U70*%
X183525000Y-141565000D02*
X184935000Y-141565000D01*
X183525000Y-143885000D02*
X184925000Y-143885000D01*
X185305000Y-141615000D02*
X185065000Y-141285000D01*
X185545000Y-141285000D01*
X185305000Y-141615000D01*
G36*
X185305000Y-141615000D02*
G01*
X185065000Y-141285000D01*
X185545000Y-141285000D01*
X185305000Y-141615000D01*
G37*
%TO.C,C234*%
X251365000Y-121732836D02*
X251365000Y-121517164D01*
X252085000Y-121732836D02*
X252085000Y-121517164D01*
%TO.C,C208*%
X222640000Y-139012164D02*
X222640000Y-139227836D01*
X223360000Y-139012164D02*
X223360000Y-139227836D01*
%TO.C,U87*%
X216450000Y-124040000D02*
X215050000Y-124040000D01*
X216450000Y-126360000D02*
X215040000Y-126360000D01*
X214910000Y-126640000D02*
X214430000Y-126640000D01*
X214670000Y-126310000D01*
X214910000Y-126640000D01*
G36*
X214910000Y-126640000D02*
G01*
X214430000Y-126640000D01*
X214670000Y-126310000D01*
X214910000Y-126640000D01*
G37*
%TO.C,U120*%
X253525000Y-124165000D02*
X254935000Y-124165000D01*
X253525000Y-126485000D02*
X254925000Y-126485000D01*
X255305000Y-124215000D02*
X255065000Y-123885000D01*
X255545000Y-123885000D01*
X255305000Y-124215000D01*
G36*
X255305000Y-124215000D02*
G01*
X255065000Y-123885000D01*
X255545000Y-123885000D01*
X255305000Y-124215000D01*
G37*
%TO.C,R25*%
X159246359Y-126220000D02*
X159553641Y-126220000D01*
X159246359Y-126980000D02*
X159553641Y-126980000D01*
%TO.C,C197*%
X224892164Y-136640000D02*
X225107836Y-136640000D01*
X224892164Y-137360000D02*
X225107836Y-137360000D01*
%TO.C,C120*%
X175242836Y-132665000D02*
X175027164Y-132665000D01*
X175242836Y-133385000D02*
X175027164Y-133385000D01*
%TO.C,C271*%
X245232836Y-138265000D02*
X245017164Y-138265000D01*
X245232836Y-138985000D02*
X245017164Y-138985000D01*
%TO.C,C170*%
X224892164Y-124640000D02*
X225107836Y-124640000D01*
X224892164Y-125360000D02*
X225107836Y-125360000D01*
%TO.C,U98*%
X221200000Y-134440000D02*
X219800000Y-134440000D01*
X221200000Y-136760000D02*
X219790000Y-136760000D01*
X219660000Y-137040000D02*
X219180000Y-137040000D01*
X219420000Y-136710000D01*
X219660000Y-137040000D01*
G36*
X219660000Y-137040000D02*
G01*
X219180000Y-137040000D01*
X219420000Y-136710000D01*
X219660000Y-137040000D01*
G37*
%TO.C,U100*%
X216450000Y-134440000D02*
X215050000Y-134440000D01*
X216450000Y-136760000D02*
X215040000Y-136760000D01*
X214910000Y-137040000D02*
X214430000Y-137040000D01*
X214670000Y-136710000D01*
X214910000Y-137040000D01*
G36*
X214910000Y-137040000D02*
G01*
X214430000Y-137040000D01*
X214670000Y-136710000D01*
X214910000Y-137040000D01*
G37*
%TO.C,U41*%
X178875000Y-117265000D02*
X180285000Y-117265000D01*
X178875000Y-119585000D02*
X180275000Y-119585000D01*
X180655000Y-117315000D02*
X180415000Y-116985000D01*
X180895000Y-116985000D01*
X180655000Y-117315000D01*
G36*
X180655000Y-117315000D02*
G01*
X180415000Y-116985000D01*
X180895000Y-116985000D01*
X180655000Y-117315000D01*
G37*
%TO.C,C59*%
X154892164Y-135040000D02*
X155107836Y-135040000D01*
X154892164Y-135760000D02*
X155107836Y-135760000D01*
%TO.C,R57*%
X159246359Y-140620000D02*
X159553641Y-140620000D01*
X159246359Y-141380000D02*
X159553641Y-141380000D01*
%TO.C,R195*%
X227153641Y-142220000D02*
X226846359Y-142220000D01*
X227153641Y-142980000D02*
X226846359Y-142980000D01*
%TO.C,R145*%
X229246359Y-122220000D02*
X229553641Y-122220000D01*
X229246359Y-122980000D02*
X229553641Y-122980000D01*
%TO.C,C135*%
X175232836Y-138265000D02*
X175017164Y-138265000D01*
X175232836Y-138985000D02*
X175017164Y-138985000D01*
%TO.C,C193*%
X217890000Y-131812164D02*
X217890000Y-132027836D01*
X218610000Y-131812164D02*
X218610000Y-132027836D01*
%TO.C,R65*%
X159246359Y-143820000D02*
X159553641Y-143820000D01*
X159246359Y-144580000D02*
X159553641Y-144580000D01*
%TO.C,R39*%
X159246359Y-131820000D02*
X159553641Y-131820000D01*
X159246359Y-132580000D02*
X159553641Y-132580000D01*
%TO.C,R27*%
X157153641Y-124620000D02*
X156846359Y-124620000D01*
X157153641Y-125380000D02*
X156846359Y-125380000D01*
%TO.C,R197*%
X227153641Y-143820000D02*
X226846359Y-143820000D01*
X227153641Y-144580000D02*
X226846359Y-144580000D01*
%TO.C,C281*%
X245232836Y-143065000D02*
X245017164Y-143065000D01*
X245232836Y-143785000D02*
X245017164Y-143785000D01*
%TO.C,U33*%
X146450000Y-138440000D02*
X145050000Y-138440000D01*
X146450000Y-140760000D02*
X145040000Y-140760000D01*
X144910000Y-141040000D02*
X144430000Y-141040000D01*
X144670000Y-140710000D01*
X144910000Y-141040000D01*
G36*
X144910000Y-141040000D02*
G01*
X144430000Y-141040000D01*
X144670000Y-140710000D01*
X144910000Y-141040000D01*
G37*
%TO.C,C285*%
X251365000Y-143332836D02*
X251365000Y-143117164D01*
X252085000Y-143332836D02*
X252085000Y-143117164D01*
%TO.C,U6*%
X146450000Y-116840000D02*
X145050000Y-116840000D01*
X146450000Y-119160000D02*
X145040000Y-119160000D01*
X144910000Y-119440000D02*
X144430000Y-119440000D01*
X144670000Y-119110000D01*
X144910000Y-119440000D01*
G36*
X144910000Y-119440000D02*
G01*
X144430000Y-119440000D01*
X144670000Y-119110000D01*
X144910000Y-119440000D01*
G37*
%TO.C,U57*%
X183525000Y-131365000D02*
X184935000Y-131365000D01*
X183525000Y-133685000D02*
X184925000Y-133685000D01*
X185305000Y-131415000D02*
X185065000Y-131085000D01*
X185545000Y-131085000D01*
X185305000Y-131415000D01*
G36*
X185305000Y-131415000D02*
G01*
X185065000Y-131085000D01*
X185545000Y-131085000D01*
X185305000Y-131415000D01*
G37*
%TO.C,R260*%
X242971359Y-143045000D02*
X243278641Y-143045000D01*
X242971359Y-143805000D02*
X243278641Y-143805000D01*
%TO.C,R230*%
X240778641Y-131045000D02*
X240471359Y-131045000D01*
X240778641Y-131805000D02*
X240471359Y-131805000D01*
%TO.C,C182*%
X222640000Y-127792164D02*
X222640000Y-128007836D01*
X223360000Y-127792164D02*
X223360000Y-128007836D01*
%TO.C,C137*%
X175242836Y-139865000D02*
X175027164Y-139865000D01*
X175242836Y-140585000D02*
X175027164Y-140585000D01*
%TO.C,C268*%
X251365000Y-136132836D02*
X251365000Y-135917164D01*
X252085000Y-136132836D02*
X252085000Y-135917164D01*
%TO.C,R61*%
X157153641Y-140620000D02*
X156846359Y-140620000D01*
X157153641Y-141380000D02*
X156846359Y-141380000D01*
%TO.C,C275*%
X246665000Y-140632836D02*
X246665000Y-140417164D01*
X247385000Y-140632836D02*
X247385000Y-140417164D01*
%TO.C,R161*%
X229246359Y-129420000D02*
X229553641Y-129420000D01*
X229246359Y-130180000D02*
X229553641Y-130180000D01*
%TO.C,C258*%
X246665000Y-133432836D02*
X246665000Y-133217164D01*
X247385000Y-133432836D02*
X247385000Y-133217164D01*
%TO.C,U61*%
X183525000Y-134365000D02*
X184935000Y-134365000D01*
X183525000Y-136685000D02*
X184925000Y-136685000D01*
X185305000Y-134415000D02*
X185065000Y-134085000D01*
X185545000Y-134085000D01*
X185305000Y-134415000D01*
G36*
X185305000Y-134415000D02*
G01*
X185065000Y-134085000D01*
X185545000Y-134085000D01*
X185305000Y-134415000D01*
G37*
%TO.C,R15*%
X159246359Y-120620000D02*
X159553641Y-120620000D01*
X159246359Y-121380000D02*
X159553641Y-121380000D01*
%TO.C,C105*%
X176665000Y-126232836D02*
X176665000Y-126017164D01*
X177385000Y-126232836D02*
X177385000Y-126017164D01*
%TO.C,C214*%
X224892164Y-143840000D02*
X225107836Y-143840000D01*
X224892164Y-144560000D02*
X225107836Y-144560000D01*
%TO.C,U13*%
X151200000Y-124040000D02*
X149800000Y-124040000D01*
X151200000Y-126360000D02*
X149790000Y-126360000D01*
X149660000Y-126640000D02*
X149180000Y-126640000D01*
X149420000Y-126310000D01*
X149660000Y-126640000D01*
G36*
X149660000Y-126640000D02*
G01*
X149180000Y-126640000D01*
X149420000Y-126310000D01*
X149660000Y-126640000D01*
G37*
%TO.C,U8*%
X151200000Y-120040000D02*
X149800000Y-120040000D01*
X151200000Y-122360000D02*
X149790000Y-122360000D01*
X149660000Y-122640000D02*
X149180000Y-122640000D01*
X149420000Y-122310000D01*
X149660000Y-122640000D01*
G36*
X149660000Y-122640000D02*
G01*
X149180000Y-122640000D01*
X149420000Y-122310000D01*
X149660000Y-122640000D01*
G37*
%TO.C,C254*%
X245232836Y-131065000D02*
X245017164Y-131065000D01*
X245232836Y-131785000D02*
X245017164Y-131785000D01*
%TO.C,U31*%
X151200000Y-138440000D02*
X149800000Y-138440000D01*
X151200000Y-140760000D02*
X149790000Y-140760000D01*
X149660000Y-141040000D02*
X149180000Y-141040000D01*
X149420000Y-140710000D01*
X149660000Y-141040000D01*
G36*
X149660000Y-141040000D02*
G01*
X149180000Y-141040000D01*
X149420000Y-140710000D01*
X149660000Y-141040000D01*
G37*
%TO.C,R122*%
X172971359Y-138245000D02*
X173278641Y-138245000D01*
X172971359Y-139005000D02*
X173278641Y-139005000D01*
%TO.C,U4*%
X151200000Y-116840000D02*
X149800000Y-116840000D01*
X151200000Y-119160000D02*
X149790000Y-119160000D01*
X149660000Y-119440000D02*
X149180000Y-119440000D01*
X149420000Y-119110000D01*
X149660000Y-119440000D01*
G36*
X149660000Y-119440000D02*
G01*
X149180000Y-119440000D01*
X149420000Y-119110000D01*
X149660000Y-119440000D01*
G37*
%TO.C,C167*%
X217903500Y-120612164D02*
X217903500Y-120827836D01*
X218623500Y-120612164D02*
X218623500Y-120827836D01*
%TO.C,R120*%
X170778641Y-139845000D02*
X170471359Y-139845000D01*
X170778641Y-140605000D02*
X170471359Y-140605000D01*
%TO.C,C130*%
X176665000Y-136432836D02*
X176665000Y-136217164D01*
X177385000Y-136432836D02*
X177385000Y-136217164D01*
%TO.C,R153*%
X229246359Y-126220000D02*
X229553641Y-126220000D01*
X229246359Y-126980000D02*
X229553641Y-126980000D01*
%TO.C,U50*%
X178875000Y-124465000D02*
X180285000Y-124465000D01*
X178875000Y-126785000D02*
X180275000Y-126785000D01*
X180655000Y-124515000D02*
X180415000Y-124185000D01*
X180895000Y-124185000D01*
X180655000Y-124515000D01*
G36*
X180655000Y-124515000D02*
G01*
X180415000Y-124185000D01*
X180895000Y-124185000D01*
X180655000Y-124515000D01*
G37*
%TO.C,U43*%
X183525000Y-119965000D02*
X184935000Y-119965000D01*
X183525000Y-122285000D02*
X184925000Y-122285000D01*
X185305000Y-120015000D02*
X185065000Y-119685000D01*
X185545000Y-119685000D01*
X185305000Y-120015000D01*
G36*
X185305000Y-120015000D02*
G01*
X185065000Y-119685000D01*
X185545000Y-119685000D01*
X185305000Y-120015000D01*
G37*
%TO.C,U15*%
X146450000Y-124040000D02*
X145050000Y-124040000D01*
X146450000Y-126360000D02*
X145040000Y-126360000D01*
X144910000Y-126640000D02*
X144430000Y-126640000D01*
X144670000Y-126310000D01*
X144910000Y-126640000D01*
G36*
X144910000Y-126640000D02*
G01*
X144430000Y-126640000D01*
X144670000Y-126310000D01*
X144910000Y-126640000D01*
G37*
%TO.C,R53*%
X157153641Y-136620000D02*
X156846359Y-136620000D01*
X157153641Y-137380000D02*
X156846359Y-137380000D01*
%TO.C,C245*%
X245232836Y-127065000D02*
X245017164Y-127065000D01*
X245232836Y-127785000D02*
X245017164Y-127785000D01*
%TO.C,R11*%
X157153641Y-117420000D02*
X156846359Y-117420000D01*
X157153641Y-118180000D02*
X156846359Y-118180000D01*
%TO.C,C237*%
X245232836Y-123865000D02*
X245017164Y-123865000D01*
X245232836Y-124585000D02*
X245017164Y-124585000D01*
%TO.C,R70*%
X170778641Y-116645000D02*
X170471359Y-116645000D01*
X170778641Y-117405000D02*
X170471359Y-117405000D01*
%TO.C,R132*%
X172971359Y-143045000D02*
X173278641Y-143045000D01*
X172971359Y-143805000D02*
X173278641Y-143805000D01*
%TO.C,C126*%
X175232836Y-134265000D02*
X175017164Y-134265000D01*
X175232836Y-134985000D02*
X175017164Y-134985000D01*
%TO.C,C17*%
X154892164Y-117440000D02*
X155107836Y-117440000D01*
X154892164Y-118160000D02*
X155107836Y-118160000D01*
%TO.C,R82*%
X172971359Y-119845000D02*
X173278641Y-119845000D01*
X172971359Y-120605000D02*
X173278641Y-120605000D01*
%TO.C,C180*%
X224892164Y-129440000D02*
X225107836Y-129440000D01*
X224892164Y-130160000D02*
X225107836Y-130160000D01*
%TO.C,R9*%
X159246359Y-119020000D02*
X159553641Y-119020000D01*
X159246359Y-119780000D02*
X159553641Y-119780000D01*
%TO.C,R37*%
X157153641Y-129420000D02*
X156846359Y-129420000D01*
X157153641Y-130180000D02*
X156846359Y-130180000D01*
%TO.C,U111*%
X253525000Y-116965000D02*
X254935000Y-116965000D01*
X253525000Y-119285000D02*
X254925000Y-119285000D01*
X255305000Y-117015000D02*
X255065000Y-116685000D01*
X255545000Y-116685000D01*
X255305000Y-117015000D01*
G36*
X255305000Y-117015000D02*
G01*
X255065000Y-116685000D01*
X255545000Y-116685000D01*
X255305000Y-117015000D01*
G37*
%TO.C,R177*%
X229246359Y-136620000D02*
X229553641Y-136620000D01*
X229246359Y-137380000D02*
X229553641Y-137380000D01*
%TO.C,R248*%
X240778641Y-139845000D02*
X240471359Y-139845000D01*
X240778641Y-140605000D02*
X240471359Y-140605000D01*
%TO.C,R183*%
X229246359Y-139020000D02*
X229553641Y-139020000D01*
X229246359Y-139780000D02*
X229553641Y-139780000D01*
%TO.C,U68*%
X178875000Y-138865000D02*
X180285000Y-138865000D01*
X178875000Y-141185000D02*
X180275000Y-141185000D01*
X180655000Y-138915000D02*
X180415000Y-138585000D01*
X180895000Y-138585000D01*
X180655000Y-138915000D01*
G36*
X180655000Y-138915000D02*
G01*
X180415000Y-138585000D01*
X180895000Y-138585000D01*
X180655000Y-138915000D01*
G37*
%TO.C,C78*%
X154892164Y-143840000D02*
X155107836Y-143840000D01*
X154892164Y-144560000D02*
X155107836Y-144560000D01*
%TO.C,U96*%
X216450000Y-131240000D02*
X215050000Y-131240000D01*
X216450000Y-133560000D02*
X215040000Y-133560000D01*
X214910000Y-133840000D02*
X214430000Y-133840000D01*
X214670000Y-133510000D01*
X214910000Y-133840000D01*
G36*
X214910000Y-133840000D02*
G01*
X214430000Y-133840000D01*
X214670000Y-133510000D01*
X214910000Y-133840000D01*
G37*
%TO.C,R202*%
X242971359Y-116645000D02*
X243278641Y-116645000D01*
X242971359Y-117405000D02*
X243278641Y-117405000D01*
%TO.C,R78*%
X170778641Y-119845000D02*
X170471359Y-119845000D01*
X170778641Y-120605000D02*
X170471359Y-120605000D01*
%TO.C,C199*%
X222640000Y-134992164D02*
X222640000Y-135207836D01*
X223360000Y-134992164D02*
X223360000Y-135207836D01*
%TO.C,R106*%
X172971359Y-131045000D02*
X173278641Y-131045000D01*
X172971359Y-131805000D02*
X173278641Y-131805000D01*
%TO.C,C218*%
X217903500Y-142212164D02*
X217903500Y-142427836D01*
X218623500Y-142212164D02*
X218623500Y-142427836D01*
%TO.C,C163*%
X224892164Y-122240000D02*
X225107836Y-122240000D01*
X224892164Y-122960000D02*
X225107836Y-122960000D01*
%TO.C,R224*%
X240778641Y-128645000D02*
X240471359Y-128645000D01*
X240778641Y-129405000D02*
X240471359Y-129405000D01*
%TO.C,R7*%
X159246359Y-117420000D02*
X159553641Y-117420000D01*
X159246359Y-118180000D02*
X159553641Y-118180000D01*
%TO.C,C34*%
X154892164Y-124640000D02*
X155107836Y-124640000D01*
X154892164Y-125360000D02*
X155107836Y-125360000D01*
%TO.C,R130*%
X172971359Y-141445000D02*
X173278641Y-141445000D01*
X172971359Y-142205000D02*
X173278641Y-142205000D01*
%TO.C,C94*%
X175232836Y-121465000D02*
X175017164Y-121465000D01*
X175232836Y-122185000D02*
X175017164Y-122185000D01*
%TO.C,C109*%
X175232836Y-127065000D02*
X175017164Y-127065000D01*
X175232836Y-127785000D02*
X175017164Y-127785000D01*
%TO.C,C107*%
X181365000Y-125932836D02*
X181365000Y-125717164D01*
X182085000Y-125932836D02*
X182085000Y-125717164D01*
%TO.C,C96*%
X176665000Y-122032836D02*
X176665000Y-121817164D01*
X177385000Y-122032836D02*
X177385000Y-121817164D01*
%TO.C,U135*%
X248875000Y-134665000D02*
X250285000Y-134665000D01*
X248875000Y-136985000D02*
X250275000Y-136985000D01*
X250655000Y-134715000D02*
X250415000Y-134385000D01*
X250895000Y-134385000D01*
X250655000Y-134715000D01*
G36*
X250655000Y-134715000D02*
G01*
X250415000Y-134385000D01*
X250895000Y-134385000D01*
X250655000Y-134715000D01*
G37*
%TO.C,R159*%
X229246359Y-127820000D02*
X229553641Y-127820000D01*
X229246359Y-128580000D02*
X229553641Y-128580000D01*
%TO.C,R151*%
X229246359Y-124620000D02*
X229553641Y-124620000D01*
X229246359Y-125380000D02*
X229553641Y-125380000D01*
%TO.C,C184*%
X217903500Y-127812164D02*
X217903500Y-128027836D01*
X218623500Y-127812164D02*
X218623500Y-128027836D01*
%TO.C,R72*%
X170778641Y-118245000D02*
X170471359Y-118245000D01*
X170778641Y-119005000D02*
X170471359Y-119005000D01*
%TO.C,C147*%
X176665000Y-143632836D02*
X176665000Y-143417164D01*
X177385000Y-143632836D02*
X177385000Y-143417164D01*
%TO.C,U45*%
X178875000Y-120265000D02*
X180285000Y-120265000D01*
X178875000Y-122585000D02*
X180275000Y-122585000D01*
X180655000Y-120315000D02*
X180415000Y-119985000D01*
X180895000Y-119985000D01*
X180655000Y-120315000D01*
G36*
X180655000Y-120315000D02*
G01*
X180415000Y-119985000D01*
X180895000Y-119985000D01*
X180655000Y-120315000D01*
G37*
%TO.C,R143*%
X229246359Y-120620000D02*
X229553641Y-120620000D01*
X229246359Y-121380000D02*
X229553641Y-121380000D01*
%TO.C,C283*%
X246665000Y-143632836D02*
X246665000Y-143417164D01*
X247385000Y-143632836D02*
X247385000Y-143417164D01*
%TO.C,U142*%
X253525000Y-141565000D02*
X254935000Y-141565000D01*
X253525000Y-143885000D02*
X254925000Y-143885000D01*
X255305000Y-141615000D02*
X255065000Y-141285000D01*
X255545000Y-141285000D01*
X255305000Y-141615000D01*
G36*
X255305000Y-141615000D02*
G01*
X255065000Y-141285000D01*
X255545000Y-141285000D01*
X255305000Y-141615000D01*
G37*
%TO.C,R169*%
X229246359Y-133420000D02*
X229553641Y-133420000D01*
X229246359Y-134180000D02*
X229553641Y-134180000D01*
%TO.C,R126*%
X170778641Y-141445000D02*
X170471359Y-141445000D01*
X170778641Y-142205000D02*
X170471359Y-142205000D01*
%TO.C,R165*%
X227153641Y-129420000D02*
X226846359Y-129420000D01*
X227153641Y-130180000D02*
X226846359Y-130180000D01*
%TO.C,R35*%
X157153641Y-127820000D02*
X156846359Y-127820000D01*
X157153641Y-128580000D02*
X156846359Y-128580000D01*
%TO.C,U91*%
X216450000Y-127240000D02*
X215050000Y-127240000D01*
X216450000Y-129560000D02*
X215040000Y-129560000D01*
X214910000Y-129840000D02*
X214430000Y-129840000D01*
X214670000Y-129510000D01*
X214910000Y-129840000D01*
G36*
X214910000Y-129840000D02*
G01*
X214430000Y-129840000D01*
X214670000Y-129510000D01*
X214910000Y-129840000D01*
G37*
%TO.C,U19*%
X146450000Y-127240000D02*
X145050000Y-127240000D01*
X146450000Y-129560000D02*
X145040000Y-129560000D01*
X144910000Y-129840000D02*
X144430000Y-129840000D01*
X144670000Y-129510000D01*
X144910000Y-129840000D01*
G36*
X144910000Y-129840000D02*
G01*
X144430000Y-129840000D01*
X144670000Y-129510000D01*
X144910000Y-129840000D01*
G37*
%TO.C,U48*%
X183525000Y-124165000D02*
X184935000Y-124165000D01*
X183525000Y-126485000D02*
X184925000Y-126485000D01*
X185305000Y-124215000D02*
X185065000Y-123885000D01*
X185545000Y-123885000D01*
X185305000Y-124215000D01*
G36*
X185305000Y-124215000D02*
G01*
X185065000Y-123885000D01*
X185545000Y-123885000D01*
X185305000Y-124215000D01*
G37*
%TO.C,R206*%
X240778641Y-119845000D02*
X240471359Y-119845000D01*
X240778641Y-120605000D02*
X240471359Y-120605000D01*
%TO.C,C84*%
X175232836Y-116665000D02*
X175017164Y-116665000D01*
X175232836Y-117385000D02*
X175017164Y-117385000D01*
%TO.C,C101*%
X175232836Y-123865000D02*
X175017164Y-123865000D01*
X175232836Y-124585000D02*
X175017164Y-124585000D01*
%TO.C,C256*%
X245242836Y-132665000D02*
X245027164Y-132665000D01*
X245242836Y-133385000D02*
X245027164Y-133385000D01*
%TO.C,C23*%
X147890000Y-117412164D02*
X147890000Y-117627836D01*
X148610000Y-117412164D02*
X148610000Y-117627836D01*
%TO.C,R204*%
X242981359Y-118245000D02*
X243288641Y-118245000D01*
X242981359Y-119005000D02*
X243288641Y-119005000D01*
%TO.C,R193*%
X229246359Y-143820000D02*
X229553641Y-143820000D01*
X229246359Y-144580000D02*
X229553641Y-144580000D01*
%TO.C,C239*%
X245242836Y-125465000D02*
X245027164Y-125465000D01*
X245242836Y-126185000D02*
X245027164Y-126185000D01*
%TO.C,R256*%
X240778641Y-143045000D02*
X240471359Y-143045000D01*
X240778641Y-143805000D02*
X240471359Y-143805000D01*
%TO.C,C86*%
X175242836Y-118265000D02*
X175027164Y-118265000D01*
X175242836Y-118985000D02*
X175027164Y-118985000D01*
%TO.C,C124*%
X181365000Y-133132836D02*
X181365000Y-132917164D01*
X182085000Y-133132836D02*
X182085000Y-132917164D01*
%TO.C,C46*%
X152640000Y-127792164D02*
X152640000Y-128007836D01*
X153360000Y-127792164D02*
X153360000Y-128007836D01*
%TO.C,R141*%
X227153641Y-119020000D02*
X226846359Y-119020000D01*
X227153641Y-119780000D02*
X226846359Y-119780000D01*
%TO.C,U63*%
X178875000Y-134665000D02*
X180285000Y-134665000D01*
X178875000Y-136985000D02*
X180275000Y-136985000D01*
X180655000Y-134715000D02*
X180415000Y-134385000D01*
X180895000Y-134385000D01*
X180655000Y-134715000D01*
G36*
X180655000Y-134715000D02*
G01*
X180415000Y-134385000D01*
X180895000Y-134385000D01*
X180655000Y-134715000D01*
G37*
%TO.C,R100*%
X172971359Y-128645000D02*
X173278641Y-128645000D01*
X172971359Y-129405000D02*
X173278641Y-129405000D01*
%TO.C,U37*%
X146450000Y-141640000D02*
X145050000Y-141640000D01*
X146450000Y-143960000D02*
X145040000Y-143960000D01*
X144910000Y-144240000D02*
X144430000Y-144240000D01*
X144670000Y-143910000D01*
X144910000Y-144240000D01*
G36*
X144910000Y-144240000D02*
G01*
X144430000Y-144240000D01*
X144670000Y-143910000D01*
X144910000Y-144240000D01*
G37*
%TO.C,R49*%
X159246359Y-136620000D02*
X159553641Y-136620000D01*
X159246359Y-137380000D02*
X159553641Y-137380000D01*
%TO.C,C264*%
X245232836Y-135865000D02*
X245017164Y-135865000D01*
X245232836Y-136585000D02*
X245017164Y-136585000D01*
%TO.C,R17*%
X159246359Y-122220000D02*
X159553641Y-122220000D01*
X159246359Y-122980000D02*
X159553641Y-122980000D01*
%TO.C,U115*%
X253525000Y-119965000D02*
X254935000Y-119965000D01*
X253525000Y-122285000D02*
X254925000Y-122285000D01*
X255305000Y-120015000D02*
X255065000Y-119685000D01*
X255545000Y-119685000D01*
X255305000Y-120015000D01*
G36*
X255305000Y-120015000D02*
G01*
X255065000Y-119685000D01*
X255545000Y-119685000D01*
X255305000Y-120015000D01*
G37*
%TO.C,R212*%
X242971359Y-121445000D02*
X243278641Y-121445000D01*
X242971359Y-122205000D02*
X243278641Y-122205000D01*
%TO.C,R19*%
X157153641Y-120620000D02*
X156846359Y-120620000D01*
X157153641Y-121380000D02*
X156846359Y-121380000D01*
%TO.C,R90*%
X172971359Y-123845000D02*
X173278641Y-123845000D01*
X172971359Y-124605000D02*
X173278641Y-124605000D01*
%TO.C,R41*%
X159246359Y-133420000D02*
X159553641Y-133420000D01*
X159246359Y-134180000D02*
X159553641Y-134180000D01*
%TO.C,C159*%
X217890000Y-117412164D02*
X217890000Y-117627836D01*
X218610000Y-117412164D02*
X218610000Y-117627836D01*
%TO.C,R149*%
X227153641Y-122220000D02*
X226846359Y-122220000D01*
X227153641Y-122980000D02*
X226846359Y-122980000D01*
%TO.C,U105*%
X216450000Y-138440000D02*
X215050000Y-138440000D01*
X216450000Y-140760000D02*
X215040000Y-140760000D01*
X214910000Y-141040000D02*
X214430000Y-141040000D01*
X214670000Y-140710000D01*
X214910000Y-141040000D01*
G36*
X214910000Y-141040000D02*
G01*
X214430000Y-141040000D01*
X214670000Y-140710000D01*
X214910000Y-141040000D01*
G37*
%TO.C,C118*%
X175232836Y-131065000D02*
X175017164Y-131065000D01*
X175232836Y-131785000D02*
X175017164Y-131785000D01*
%TO.C,C31*%
X147903500Y-120612164D02*
X147903500Y-120827836D01*
X148623500Y-120612164D02*
X148623500Y-120827836D01*
%TO.C,R214*%
X240778641Y-123845000D02*
X240471359Y-123845000D01*
X240778641Y-124605000D02*
X240471359Y-124605000D01*
%TO.C,R187*%
X227153641Y-139020000D02*
X226846359Y-139020000D01*
X227153641Y-139780000D02*
X226846359Y-139780000D01*
%TO.C,C176*%
X217890000Y-124612164D02*
X217890000Y-124827836D01*
X218610000Y-124612164D02*
X218610000Y-124827836D01*
%TO.C,U126*%
X248875000Y-127465000D02*
X250285000Y-127465000D01*
X248875000Y-129785000D02*
X250275000Y-129785000D01*
X250655000Y-127515000D02*
X250415000Y-127185000D01*
X250895000Y-127185000D01*
X250655000Y-127515000D01*
G36*
X250655000Y-127515000D02*
G01*
X250415000Y-127185000D01*
X250895000Y-127185000D01*
X250655000Y-127515000D01*
G37*
%TO.C,C63*%
X152640000Y-134992164D02*
X152640000Y-135207836D01*
X153360000Y-134992164D02*
X153360000Y-135207836D01*
%TO.C,C187*%
X224892164Y-131840000D02*
X225107836Y-131840000D01*
X224892164Y-132560000D02*
X225107836Y-132560000D01*
%TO.C,U59*%
X178875000Y-131665000D02*
X180285000Y-131665000D01*
X178875000Y-133985000D02*
X180275000Y-133985000D01*
X180655000Y-131715000D02*
X180415000Y-131385000D01*
X180895000Y-131385000D01*
X180655000Y-131715000D01*
G36*
X180655000Y-131715000D02*
G01*
X180415000Y-131385000D01*
X180895000Y-131385000D01*
X180655000Y-131715000D01*
G37*
%TO.C,C61*%
X154892164Y-136640000D02*
X155107836Y-136640000D01*
X154892164Y-137360000D02*
X155107836Y-137360000D01*
%TO.C,R135*%
X229246359Y-117420000D02*
X229553641Y-117420000D01*
X229246359Y-118180000D02*
X229553641Y-118180000D01*
%TO.C,R33*%
X159246359Y-129420000D02*
X159553641Y-129420000D01*
X159246359Y-130180000D02*
X159553641Y-130180000D01*
%TO.C,R47*%
X159246359Y-135020000D02*
X159553641Y-135020000D01*
X159246359Y-135780000D02*
X159553641Y-135780000D01*
%TO.C,R163*%
X227153641Y-127820000D02*
X226846359Y-127820000D01*
X227153641Y-128580000D02*
X226846359Y-128580000D01*
%TO.C,C232*%
X246665000Y-122032836D02*
X246665000Y-121817164D01*
X247385000Y-122032836D02*
X247385000Y-121817164D01*
%TO.C,R29*%
X157153641Y-126220000D02*
X156846359Y-126220000D01*
X157153641Y-126980000D02*
X156846359Y-126980000D01*
%TO.C,C260*%
X251365000Y-133132836D02*
X251365000Y-132917164D01*
X252085000Y-133132836D02*
X252085000Y-132917164D01*
%TO.C,C195*%
X224892164Y-135040000D02*
X225107836Y-135040000D01*
X224892164Y-135760000D02*
X225107836Y-135760000D01*
%TO.C,R55*%
X159246359Y-139020000D02*
X159553641Y-139020000D01*
X159246359Y-139780000D02*
X159553641Y-139780000D01*
%TO.C,U107*%
X221200000Y-141640000D02*
X219800000Y-141640000D01*
X221200000Y-143960000D02*
X219790000Y-143960000D01*
X219660000Y-144240000D02*
X219180000Y-144240000D01*
X219420000Y-143910000D01*
X219660000Y-144240000D01*
G36*
X219660000Y-144240000D02*
G01*
X219180000Y-144240000D01*
X219420000Y-143910000D01*
X219660000Y-144240000D01*
G37*
%TO.C,R114*%
X172971359Y-134245000D02*
X173278641Y-134245000D01*
X172971359Y-135005000D02*
X173278641Y-135005000D01*
%TO.C,C228*%
X245232836Y-119865000D02*
X245017164Y-119865000D01*
X245232836Y-120585000D02*
X245017164Y-120585000D01*
%TO.C,C172*%
X224892164Y-126240000D02*
X225107836Y-126240000D01*
X224892164Y-126960000D02*
X225107836Y-126960000D01*
%TO.C,R51*%
X157153641Y-135020000D02*
X156846359Y-135020000D01*
X157153641Y-135780000D02*
X156846359Y-135780000D01*
%TO.C,R118*%
X170778641Y-138245000D02*
X170471359Y-138245000D01*
X170778641Y-139005000D02*
X170471359Y-139005000D01*
%TO.C,R96*%
X170778641Y-128645000D02*
X170471359Y-128645000D01*
X170778641Y-129405000D02*
X170471359Y-129405000D01*
%TO.C,R210*%
X242971359Y-119845000D02*
X243278641Y-119845000D01*
X242971359Y-120605000D02*
X243278641Y-120605000D01*
%TO.C,C70*%
X154892164Y-140640000D02*
X155107836Y-140640000D01*
X154892164Y-141360000D02*
X155107836Y-141360000D01*
%TO.C,R240*%
X240778641Y-135845000D02*
X240471359Y-135845000D01*
X240778641Y-136605000D02*
X240471359Y-136605000D01*
%TO.C,R208*%
X240778641Y-121445000D02*
X240471359Y-121445000D01*
X240778641Y-122205000D02*
X240471359Y-122205000D01*
%TO.C,R171*%
X227153641Y-131820000D02*
X226846359Y-131820000D01*
X227153641Y-132580000D02*
X226846359Y-132580000D01*
%TO.C,C143*%
X175232836Y-141465000D02*
X175017164Y-141465000D01*
X175232836Y-142185000D02*
X175017164Y-142185000D01*
%TO.C,U17*%
X151200000Y-127240000D02*
X149800000Y-127240000D01*
X151200000Y-129560000D02*
X149790000Y-129560000D01*
X149660000Y-129840000D02*
X149180000Y-129840000D01*
X149420000Y-129510000D01*
X149660000Y-129840000D01*
G36*
X149660000Y-129840000D02*
G01*
X149180000Y-129840000D01*
X149420000Y-129510000D01*
X149660000Y-129840000D01*
G37*
%TO.C,R13*%
X157153641Y-119020000D02*
X156846359Y-119020000D01*
X157153641Y-119780000D02*
X156846359Y-119780000D01*
%TO.C,U66*%
X183525000Y-138565000D02*
X184935000Y-138565000D01*
X183525000Y-140885000D02*
X184925000Y-140885000D01*
X185305000Y-138615000D02*
X185065000Y-138285000D01*
X185545000Y-138285000D01*
X185305000Y-138615000D01*
G36*
X185305000Y-138615000D02*
G01*
X185065000Y-138285000D01*
X185545000Y-138285000D01*
X185305000Y-138615000D01*
G37*
%TO.C,C80*%
X152640000Y-142192164D02*
X152640000Y-142407836D01*
X153360000Y-142192164D02*
X153360000Y-142407836D01*
%TO.C,C226*%
X251365000Y-118732836D02*
X251365000Y-118517164D01*
X252085000Y-118732836D02*
X252085000Y-118517164D01*
%TO.C,C220*%
X245232836Y-116665000D02*
X245017164Y-116665000D01*
X245232836Y-117385000D02*
X245017164Y-117385000D01*
%TO.C,J7*%
X213490000Y-69260000D02*
X213490000Y-73940000D01*
X219710000Y-68560000D02*
X221310000Y-68560000D01*
X219710000Y-69840000D02*
X219710000Y-68560000D01*
X219710000Y-73360000D02*
X219710000Y-74640000D01*
X219710000Y-74640000D02*
X221310000Y-74640000D01*
X221310000Y-67540000D02*
X217060000Y-67540000D01*
X221310000Y-68560000D02*
X221310000Y-67540000D01*
X221310000Y-74640000D02*
X221310000Y-75660000D01*
X221310000Y-75660000D02*
X217060000Y-75660000D01*
X222600000Y-73360000D02*
X219710000Y-73360000D01*
%TO.C,C111*%
X175232836Y-128665000D02*
X175017164Y-128665000D01*
X175232836Y-129385000D02*
X175017164Y-129385000D01*
%TO.C,C224*%
X246665000Y-119032836D02*
X246665000Y-118817164D01*
X247385000Y-119032836D02*
X247385000Y-118817164D01*
%TO.C,C201*%
X217903500Y-135012164D02*
X217903500Y-135227836D01*
X218623500Y-135012164D02*
X218623500Y-135227836D01*
%TO.C,R110*%
X170778641Y-134245000D02*
X170471359Y-134245000D01*
X170778641Y-135005000D02*
X170471359Y-135005000D01*
%TO.C,U131*%
X248875000Y-131665000D02*
X250285000Y-131665000D01*
X248875000Y-133985000D02*
X250275000Y-133985000D01*
X250655000Y-131715000D02*
X250415000Y-131385000D01*
X250895000Y-131385000D01*
X250655000Y-131715000D01*
G36*
X250655000Y-131715000D02*
G01*
X250415000Y-131385000D01*
X250895000Y-131385000D01*
X250655000Y-131715000D01*
G37*
%TO.C,C68*%
X154892164Y-139040000D02*
X155107836Y-139040000D01*
X154892164Y-139760000D02*
X155107836Y-139760000D01*
%TO.C,R191*%
X229246359Y-142220000D02*
X229553641Y-142220000D01*
X229246359Y-142980000D02*
X229553641Y-142980000D01*
%TO.C,U94*%
X221200000Y-131240000D02*
X219800000Y-131240000D01*
X221200000Y-133560000D02*
X219790000Y-133560000D01*
X219660000Y-133840000D02*
X219180000Y-133840000D01*
X219420000Y-133510000D01*
X219660000Y-133840000D01*
G36*
X219660000Y-133840000D02*
G01*
X219180000Y-133840000D01*
X219420000Y-133510000D01*
X219660000Y-133840000D01*
G37*
%TO.C,U124*%
X253525000Y-127165000D02*
X254935000Y-127165000D01*
X253525000Y-129485000D02*
X254925000Y-129485000D01*
X255305000Y-127215000D02*
X255065000Y-126885000D01*
X255545000Y-126885000D01*
X255305000Y-127215000D01*
G36*
X255305000Y-127215000D02*
G01*
X255065000Y-126885000D01*
X255545000Y-126885000D01*
X255305000Y-127215000D01*
G37*
%TO.C,U103*%
X221200000Y-138440000D02*
X219800000Y-138440000D01*
X221200000Y-140760000D02*
X219790000Y-140760000D01*
X219660000Y-141040000D02*
X219180000Y-141040000D01*
X219420000Y-140710000D01*
X219660000Y-141040000D01*
G36*
X219660000Y-141040000D02*
G01*
X219180000Y-141040000D01*
X219420000Y-140710000D01*
X219660000Y-141040000D01*
G37*
%TO.C,R258*%
X242971359Y-141445000D02*
X243278641Y-141445000D01*
X242971359Y-142205000D02*
X243278641Y-142205000D01*
%TO.C,R31*%
X159246359Y-127820000D02*
X159553641Y-127820000D01*
X159246359Y-128580000D02*
X159553641Y-128580000D01*
%TO.C,C48*%
X147903500Y-127812164D02*
X147903500Y-128027836D01*
X148623500Y-127812164D02*
X148623500Y-128027836D01*
%TO.C,R226*%
X242971359Y-127045000D02*
X243278641Y-127045000D01*
X242971359Y-127805000D02*
X243278641Y-127805000D01*
%TO.C,R254*%
X240778641Y-141445000D02*
X240471359Y-141445000D01*
X240778641Y-142205000D02*
X240471359Y-142205000D01*
%TD*%
M02*
