M48
; DRILL file {KiCad 9.0.6} date 2026-02-25T16:21:37-0500
; FORMAT={-:-/ absolute / metric / decimal}
; #@! TF.CreationDate,2026-02-25T16:21:37-05:00
; #@! TF.GenerationSoftware,Kicad,Pcbnew,9.0.6
; #@! TF.FileFunction,Plated,1,4,PTH
FMAT,2
METRIC
; #@! TA.AperFunction,Plated,PTH,ViaDrill
T1C0.250
; #@! TA.AperFunction,Plated,PTH,ViaDrill
T2C0.300
; #@! TA.AperFunction,Plated,PTH,ViaDrill
T3C0.500
; #@! TA.AperFunction,Plated,PTH,ComponentDrill
T4C0.600
; #@! TA.AperFunction,Plated,PTH,ComponentDrill
T5C0.920
; #@! TA.AperFunction,Plated,PTH,ComponentDrill
T6C0.990
; #@! TA.AperFunction,Plated,PTH,ComponentDrill
T7C1.000
; #@! TA.AperFunction,Plated,PTH,ComponentDrill
T8C1.090
; #@! TA.AperFunction,Plated,PTH,ComponentDrill
T9C1.300
; #@! TA.AperFunction,Plated,PTH,ComponentDrill
T10C1.500
; #@! TA.AperFunction,Plated,PTH,ComponentDrill
T11C1.800
; #@! TA.AperFunction,Plated,PTH,ComponentDrill
T12C2.000
; #@! TA.AperFunction,Plated,PTH,ComponentDrill
T13C3.200
%
G90
G05
T1
X12.45Y90.2
X12.5Y91.4
X14.2Y88.1
X15.0Y90.85
T2
X6.4Y62.0
X6.5Y37.9
X7.9Y42.5
X8.0Y65.2
X9.21Y73.33
X9.6Y37.9
X9.7Y61.3
X10.3Y100.72
X10.421Y35.195
X10.69Y70.52
X11.2Y100.72
X11.421Y57.47
X11.421Y56.17
X11.421Y50.27
X11.421Y48.97
X11.421Y43.07
X11.421Y41.77
X11.421Y35.87
X11.421Y34.57
X11.81Y73.73
X12.05Y92.75
X12.15Y95.15
X12.421Y57.47
X12.421Y55.52
X12.421Y50.27
X12.421Y48.32
X12.421Y43.07
X12.421Y41.12
X12.421Y35.87
X12.421Y33.92
X12.431Y68.209
X12.971Y36.845
X13.021Y51.295
X13.021Y44.145
X13.03Y70.82
X13.24Y66.28
X13.421Y57.47
X13.421Y54.995
X13.421Y50.27
X13.421Y47.795
X13.421Y43.07
X13.421Y40.595
X13.471Y60.245
X13.621Y35.87
X13.65Y77.8
X14.18Y31.81
X14.221Y58.495
X14.371Y54.495
X14.796Y66.3
X15.15Y44.59
X15.16Y51.89
X15.17Y70.96
X15.2Y25.5
X15.21Y30.27
X15.212Y74.288
X15.22Y37.39
X15.55Y61.5
X16.15Y87.45
X16.85Y101.27
X16.85Y98.67
X17.28Y48.03
X17.28Y40.83
X17.28Y33.63
X17.371Y59.945
X17.425Y54.925
X17.5Y90.2
X17.5Y64.6
X17.625Y57.425
X18.302Y43.02
X18.45Y70.0
X18.49Y50.22
X18.49Y35.82
X18.6Y76.1
X18.725Y52.325
X18.725Y45.1
X18.725Y37.9
X18.725Y30.7
X19.05Y72.85
X19.05Y28.35
X19.4Y20.7
X20.2Y94.65
X20.25Y98.42
X20.3Y97.47
X20.5Y54.6
X20.5Y47.375
X20.5Y40.175
X20.5Y32.975
X20.525Y57.425
X20.525Y50.2
X20.525Y43.0
X20.525Y35.8
X20.7Y62.4
X21.1Y77.65
X21.2Y25.9
X21.25Y96.5
X21.305Y51.965
X21.305Y44.74
X21.305Y37.54
X21.305Y30.34
X22.2Y63.03
X22.9Y22.4
X22.94Y56.85
X22.94Y49.625
X22.94Y42.425
X22.94Y35.225
X22.946Y55.554
X22.946Y48.329
X22.946Y33.929
X22.95Y41.25
X23.15Y47.5
X23.2Y54.7
X23.2Y40.375
X23.2Y33.1
X23.3Y53.6
X23.3Y46.375
X23.3Y39.175
X23.3Y31.975
X23.5Y76.15
X23.6Y56.2
X23.6Y48.975
X23.6Y41.775
X23.6Y34.575
X24.0Y101.6
X24.0Y72.9
X24.2Y55.502
X24.2Y48.277
X24.2Y41.077
X24.2Y33.877
X24.3Y58.4
X24.3Y51.175
X24.3Y43.975
X24.3Y36.775
X24.6Y57.6
X24.6Y50.375
X24.6Y43.175
X24.6Y35.975
X24.6Y28.6
X24.694Y53.819
X24.694Y46.594
X24.694Y39.394
X24.694Y32.194
X25.3Y75.15
X25.382Y56.178
X25.382Y48.953
X25.382Y41.753
X25.382Y34.553
X25.6Y92.35
X25.673Y54.37
X25.673Y47.145
X25.673Y39.945
X25.673Y32.745
X25.702Y57.889
X25.702Y50.664
X25.702Y43.464
X25.702Y36.264
X26.1Y100.6
X26.3Y93.55
X26.3Y52.8
X26.3Y45.6
X26.45Y38.35
X26.45Y31.15
X26.74Y37.35
X26.75Y44.44
X26.8Y51.74
X26.81Y30.03
X27.0Y57.2
X27.0Y49.975
X27.0Y42.775
X27.0Y35.575
X27.05Y73.15
X27.1Y100.45
X27.1Y53.6
X27.1Y52.8
X27.1Y46.375
X27.1Y45.575
X27.249Y38.369
X27.249Y31.169
X27.257Y39.269
X27.257Y32.069
X27.3Y99.05
X27.3Y55.8
X27.3Y48.575
X27.3Y41.375
X27.3Y34.175
X27.55Y71.2
X27.6Y59.3
X28.218Y54.222
X28.218Y46.997
X28.218Y39.797
X28.218Y32.597
X28.3Y57.9
X28.3Y50.675
X28.3Y43.475
X28.3Y36.275
X28.5Y55.9
X28.5Y52.3
X28.5Y48.675
X28.5Y45.075
X28.5Y41.475
X28.5Y37.875
X28.5Y34.275
X28.5Y30.675
X29.3Y52.6
X29.3Y45.375
X29.3Y38.175
X29.3Y30.975
X29.35Y55.7
X29.35Y48.475
X29.35Y41.275
X29.35Y34.075
X29.4Y57.8
X29.4Y54.5
X29.4Y50.575
X29.4Y47.275
X29.4Y43.375
X29.4Y40.075
X29.4Y36.175
X29.4Y32.875
X29.45Y84.1
X30.05Y95.0
X30.1Y28.4
X30.4Y80.9
X30.6Y24.1
X30.744Y74.09
X30.9Y91.2
X30.903Y96.83
X30.95Y80.15
X31.1Y61.0
X31.2Y87.8
X31.569Y83.176
X32.0Y72.15
X33.32Y29.32
X33.65Y78.05
X33.85Y68.85
X34.38Y57.6
X34.38Y56.0
X34.38Y54.4
X34.38Y52.8
X34.38Y50.375
X34.38Y48.775
X34.38Y47.175
X34.38Y45.575
X34.38Y43.175
X34.38Y41.575
X34.38Y39.975
X34.38Y38.375
X34.38Y35.975
X34.38Y34.375
X34.38Y32.775
X34.38Y31.175
X34.55Y77.35
X34.85Y78.9
X35.15Y87.5
X35.2Y25.8
X35.34Y44.27
X35.35Y79.9
X35.4Y91.4
X35.4Y76.85
X35.49Y51.43
X35.5Y57.2
X35.5Y55.6
X35.5Y54.0
X35.5Y52.4
X35.5Y49.975
X35.5Y48.375
X35.5Y46.775
X35.5Y45.175
X35.5Y42.775
X35.5Y41.175
X35.5Y39.575
X35.5Y37.975
X35.5Y35.575
X35.5Y33.975
X35.5Y32.375
X35.5Y30.775
X35.51Y37.0
X35.52Y59.16
X35.57Y29.87
X35.7Y28.35
X35.85Y85.4
X36.1Y76.3
X37.35Y78.5
X37.55Y81.8
X37.6Y27.45
X37.85Y73.55
X38.0Y80.7
X38.0Y79.1
X38.95Y76.8
X38.95Y70.95
X39.29Y84.74
X39.5Y57.25
X39.6Y44.3
X39.7Y77.307
X39.7Y32.75
X39.85Y87.5
X39.95Y82.1
X40.15Y72.674
X40.55Y77.0
X40.75Y87.5
X40.85Y82.1
X41.05Y72.7
X41.65Y77.6
X42.05Y80.2
X42.05Y79.3
X42.25Y84.2
X42.3Y81.1
X42.35Y82.1
X42.45Y78.5
X42.5Y77.5
X43.065Y82.815
X43.15Y76.25
X43.55Y75.35
X43.6Y87.1
X43.72Y83.46
X44.3Y51.65
X44.3Y37.3
X44.3Y30.0
X44.315Y49.175
X44.335Y41.975
X44.335Y34.775
X44.41Y53.18
X44.425Y57.975
X44.425Y56.375
X44.425Y54.78
X44.425Y50.775
X44.425Y45.975
X44.427Y80.989
X44.445Y43.575
X44.445Y38.775
X44.445Y36.375
X44.445Y31.575
X44.45Y47.58
X44.47Y40.38
X44.47Y33.18
X44.5Y72.7
X44.5Y59.2
X44.5Y44.4
X44.55Y73.7
X44.65Y75.45
X44.7Y78.074
X44.8Y87.1
X45.545Y57.475
X45.545Y55.875
X45.545Y54.275
X45.545Y52.675
X45.545Y50.275
X45.545Y48.675
X45.545Y47.075
X45.545Y45.475
X45.545Y43.075
X45.545Y41.475
X45.545Y39.875
X45.545Y38.275
X45.545Y35.875
X45.545Y34.275
X45.545Y32.675
X45.545Y31.075
X46.25Y83.0
X46.25Y82.1
X46.45Y86.4
X47.15Y82.6
X47.35Y78.25
X47.35Y27.25
X47.5Y76.5
X47.681Y81.095
X47.72Y44.4
X47.8Y61.7
X47.82Y37.2
X47.84Y51.6
X47.85Y79.2
X48.37Y85.96
X48.55Y79.6
X48.75Y80.4
X49.35Y81.05
X49.7Y80.05
X50.15Y54.96
X50.15Y47.735
X50.15Y40.535
X50.15Y33.335
X50.21Y53.38
X50.21Y46.155
X50.21Y38.955
X50.21Y31.755
X50.25Y81.1
X50.66Y56.41
X50.66Y49.185
X50.66Y41.985
X50.66Y34.785
X50.7Y79.9
X50.9Y89.4
X50.902Y50.282
X50.902Y43.082
X50.902Y35.882
X50.902Y57.507
X51.21Y54.41
X51.21Y47.185
X51.21Y39.985
X51.21Y32.785
X51.72Y51.023
X51.72Y43.823
X51.72Y36.623
X51.72Y58.248
X51.795Y52.552
X51.795Y45.327
X51.795Y38.127
X51.795Y30.927
X51.86Y56.08
X51.86Y48.855
X51.86Y41.655
X51.86Y34.455
X52.1Y85.5
X52.18Y54.48
X52.18Y47.255
X52.18Y40.055
X52.18Y32.855
X52.633Y52.795
X52.633Y45.57
X52.633Y38.37
X52.633Y31.17
X52.9Y72.7
X52.93Y56.6
X52.93Y49.375
X52.93Y42.175
X52.93Y34.975
X53.0Y50.7
X53.0Y43.55
X53.0Y36.35
X53.1Y58.0
X53.14Y55.47
X53.14Y48.245
X53.14Y41.045
X53.14Y33.845
X53.34Y53.81
X53.34Y46.585
X53.34Y39.385
X53.34Y32.185
X53.447Y57.237
X53.447Y50.012
X53.447Y42.812
X53.447Y35.612
X53.7Y52.63
X53.7Y45.405
X53.7Y38.205
X53.7Y31.005
X54.5Y23.9
X54.533Y52.594
X54.533Y45.369
X54.533Y38.169
X54.533Y30.969
X54.545Y56.186
X54.545Y48.961
X54.545Y41.761
X54.545Y34.561
X54.574Y58.879
X54.9Y20.8
X55.278Y27.024
X55.449Y89.101
X55.665Y56.585
X55.665Y49.36
X55.665Y42.16
X55.665Y34.96
X55.71Y52.96
X55.71Y45.735
X55.71Y38.535
X55.71Y31.335
X55.74Y54.9
X55.74Y47.675
X55.74Y40.475
X55.74Y33.275
X55.743Y51.862
X55.743Y44.662
X55.743Y37.462
X55.8Y60.45
X55.99Y51.085
X55.99Y43.885
X55.99Y36.685
X55.99Y58.31
X56.59Y53.68
X56.59Y46.455
X56.59Y39.255
X56.59Y32.055
X56.82Y58.38
X56.82Y51.155
X56.82Y43.955
X56.82Y36.755
X57.12Y86.12
X57.62Y63.03
X57.72Y89.26
X58.1Y73.7
X58.6Y74.45
X59.41Y54.91
X59.41Y47.685
X59.41Y40.485
X59.41Y33.285
X59.45Y38.56
X59.51Y31.36
X59.55Y52.96
X59.55Y45.75
X59.58Y56.3
X59.58Y49.075
X59.58Y41.875
X59.58Y34.675
X59.65Y85.25
X60.1Y22.4
X60.3Y89.7
X60.95Y71.8
X61.056Y97.425
X61.83Y44.3
X61.91Y58.71
X61.95Y51.59
X62.01Y37.06
X62.06Y28.72
X62.51Y55.57
X62.61Y48.32
X62.66Y33.92
X62.71Y41.17
X62.8Y102.5
X64.7Y58.725
X64.7Y51.525
X64.7Y44.325
X64.7Y37.125
X65.1Y95.2
X65.587Y56.1
X65.9Y91.5
X66.302Y96.518
X66.537Y33.35
X66.587Y54.875
X66.587Y52.6
X66.587Y47.675
X66.587Y45.7
X66.587Y40.475
X66.587Y38.5
X66.8Y60.4
X66.88Y97.4
X66.91Y95.06
X67.2Y100.7
X67.3Y92.8
X67.587Y54.225
X67.587Y52.9
X67.587Y47.025
X67.587Y45.7
X67.587Y39.825
X67.587Y38.5
X67.587Y32.8
X68.187Y42.4
X68.187Y35.3
X68.3Y92.8
X68.32Y50.91
X68.6Y29.1
X68.64Y52.64
X68.85Y56.05
X69.66Y52.87
X69.687Y32.1
X69.7Y96.1
X71.0Y50.25
X72.35Y51.1
X72.6Y86.55
X72.6Y76.05
X72.6Y74.1
X72.65Y99.48
X72.95Y84.25
X74.7Y105.5
X74.8Y82.9
X74.85Y112.25
X74.85Y110.0
X75.01Y97.36
X77.9Y100.8
X78.4Y54.55
X79.4Y99.8
X79.7Y51.5
X80.524Y55.35
X80.524Y31.325
X80.6Y92.75
X80.7Y99.8
X80.734Y101.113
X81.05Y84.95
X81.15Y60.9
X81.424Y56.2
X81.424Y50.3
X81.424Y49.0
X81.424Y43.1
X81.424Y41.8
X81.424Y35.9
X81.424Y34.6
X81.9Y94.6
X82.0Y97.7
X82.3Y83.3
X82.424Y55.55
X82.424Y50.3
X82.424Y48.35
X82.424Y43.1
X82.424Y41.15
X82.424Y35.9
X82.424Y33.95
X83.024Y51.175
X83.074Y44.075
X83.124Y36.925
X83.3Y99.6
X83.3Y98.6
X83.424Y57.5
X83.424Y55.025
X83.424Y50.3
X83.424Y47.825
X83.424Y43.1
X83.424Y40.625
X83.424Y35.9
X84.324Y38.925
X84.374Y52.725
X84.374Y32.075
X84.424Y46.325
X84.45Y54.25
X85.1Y105.8
X85.15Y44.59
X85.16Y51.89
X85.21Y30.27
X85.22Y37.39
X86.85Y92.9
X86.9Y27.3
X87.28Y48.03
X87.28Y40.83
X87.28Y33.63
X87.325Y49.225
X87.325Y42.025
X87.325Y34.775
X87.371Y59.945
X87.425Y54.925
X87.625Y57.425
X88.302Y43.02
X88.49Y50.22
X88.49Y35.82
X88.725Y52.325
X88.725Y45.1
X88.725Y37.9
X88.725Y30.7
X90.5Y54.6
X90.5Y47.375
X90.5Y40.175
X90.5Y32.975
X90.525Y57.425
X90.525Y50.2
X90.525Y43.0
X90.525Y35.8
X91.305Y51.965
X91.305Y44.74
X91.305Y37.54
X91.305Y30.34
X92.0Y83.2
X92.22Y63.03
X92.94Y56.85
X92.94Y49.625
X92.94Y42.425
X92.94Y35.225
X92.946Y55.554
X92.946Y48.329
X92.946Y41.129
X92.946Y33.929
X93.2Y54.7
X93.2Y47.5
X93.2Y24.2
X93.25Y40.3
X93.3Y53.6
X93.3Y46.375
X93.3Y39.175
X93.3Y31.975
X93.3Y33.1
X93.45Y84.7
X93.6Y56.2
X93.6Y48.975
X93.6Y41.775
X93.6Y34.575
X94.2Y55.502
X94.2Y48.277
X94.2Y41.077
X94.2Y33.877
X94.3Y58.4
X94.3Y51.175
X94.3Y43.975
X94.3Y36.775
X94.6Y57.6
X94.6Y50.375
X94.6Y43.175
X94.6Y35.975
X94.694Y53.819
X94.694Y46.594
X94.694Y39.394
X94.694Y32.194
X94.85Y92.75
X94.95Y94.5
X95.2Y27.85
X95.382Y56.178
X95.382Y48.953
X95.382Y41.753
X95.382Y34.553
X95.673Y54.371
X95.673Y47.146
X95.673Y39.946
X95.673Y32.746
X95.702Y57.89
X95.702Y50.665
X95.702Y43.465
X95.702Y36.265
X96.3Y52.875
X96.3Y45.65
X96.3Y38.45
X96.4Y31.15
X96.7Y21.3
X96.74Y37.35
X96.78Y44.58
X96.8Y51.74
X96.81Y30.03
X97.0Y57.2
X97.0Y49.975
X97.0Y42.775
X97.0Y35.575
X97.1Y53.6
X97.1Y52.8
X97.1Y46.375
X97.1Y45.575
X97.1Y39.175
X97.1Y38.375
X97.244Y31.157
X97.3Y55.8
X97.3Y48.575
X97.3Y41.375
X97.3Y34.175
X97.3Y32.076
X97.6Y59.3
X98.218Y54.223
X98.218Y46.998
X98.218Y39.798
X98.218Y32.598
X98.3Y57.9
X98.3Y50.675
X98.3Y43.475
X98.3Y36.275
X98.5Y55.9
X98.5Y52.3
X98.5Y48.675
X98.5Y45.075
X98.5Y41.475
X98.5Y37.875
X98.5Y34.275
X98.5Y30.675
X99.0Y108.5
X99.1Y104.85
X99.3Y52.6
X99.3Y45.375
X99.3Y38.175
X99.3Y30.975
X99.35Y55.7
X99.35Y48.475
X99.35Y41.275
X99.35Y34.075
X99.4Y57.8
X99.4Y54.5
X99.4Y50.575
X99.4Y47.275
X99.4Y43.375
X99.4Y40.075
X99.4Y36.175
X99.4Y32.875
X100.1Y98.85
X100.25Y108.4
X100.55Y103.3
X100.9Y22.8
X101.6Y101.55
X102.5Y27.7
X103.0Y108.35
X103.15Y103.9
X103.95Y101.55
X104.05Y103.75
X104.38Y57.6
X104.38Y56.0
X104.38Y54.4
X104.38Y52.8
X104.38Y50.375
X104.38Y48.775
X104.38Y47.175
X104.38Y45.575
X104.38Y43.175
X104.38Y41.575
X104.38Y39.975
X104.38Y38.375
X104.38Y35.975
X104.38Y34.375
X104.38Y32.775
X104.38Y31.175
X104.7Y106.55
X104.85Y101.1
X105.45Y101.75
X105.45Y94.55
X105.49Y51.43
X105.5Y57.2
X105.5Y55.6
X105.5Y54.0
X105.5Y52.4
X105.5Y49.975
X105.5Y48.375
X105.5Y46.775
X105.5Y45.175
X105.5Y42.775
X105.5Y41.175
X105.5Y39.575
X105.5Y37.975
X105.5Y35.575
X105.5Y33.975
X105.5Y32.375
X105.5Y30.775
X105.51Y37.0
X105.52Y59.16
X105.52Y44.23
X105.57Y29.87
X105.95Y101.1
X106.45Y101.75
X107.1Y103.85
X107.25Y100.3
X107.45Y93.15
X108.25Y105.85
X108.3Y108.15
X108.4Y106.85
X108.45Y101.0
X109.225Y101.3
X109.5Y57.25
X109.6Y44.3
X109.7Y32.75
X110.2Y94.8
X110.4Y105.25
X110.55Y98.9
X110.75Y104.1
X111.05Y107.6
X111.3Y103.3
X111.4Y102.3
X112.1Y90.85
X113.1Y21.3
X114.3Y51.65
X114.3Y30.0
X114.315Y49.175
X114.335Y41.975
X114.335Y34.775
X114.4Y44.4
X114.41Y53.18
X114.425Y57.975
X114.425Y56.375
X114.425Y54.78
X114.425Y50.775
X114.425Y45.975
X114.445Y43.575
X114.445Y38.775
X114.445Y36.375
X114.445Y31.575
X114.45Y47.58
X114.47Y40.38
X114.47Y33.18
X114.5Y59.2
X114.5Y37.25
X114.8Y24.1
X115.545Y57.475
X115.545Y55.875
X115.545Y54.275
X115.545Y52.675
X115.545Y50.275
X115.545Y48.675
X115.545Y47.075
X115.545Y45.475
X115.545Y43.075
X115.545Y41.475
X115.545Y39.875
X115.545Y38.275
X115.545Y35.875
X115.545Y34.275
X115.545Y32.675
X115.545Y31.075
X116.5Y86.35
X117.72Y44.4
X117.82Y37.2
X117.84Y51.6
X117.92Y88.396
X118.72Y86.146
X118.9Y90.35
X119.5Y27.5
X120.15Y54.96
X120.15Y47.735
X120.15Y40.535
X120.15Y33.335
X120.21Y53.38
X120.21Y46.155
X120.21Y38.955
X120.21Y31.755
X120.27Y85.246
X120.4Y86.45
X120.62Y92.046
X120.66Y56.41
X120.66Y49.185
X120.66Y41.985
X120.66Y34.785
X120.8Y99.85
X120.902Y50.282
X120.902Y43.082
X120.902Y35.882
X120.902Y57.507
X121.21Y54.41
X121.21Y47.185
X121.21Y39.985
X121.21Y32.785
X121.42Y88.246
X121.72Y51.023
X121.72Y43.823
X121.72Y36.623
X121.72Y58.248
X121.795Y52.552
X121.795Y45.327
X121.795Y38.127
X121.795Y30.927
X121.86Y56.08
X121.86Y48.855
X121.86Y41.655
X121.86Y34.455
X122.18Y54.48
X122.18Y47.255
X122.18Y40.055
X122.18Y32.855
X122.633Y52.795
X122.633Y45.57
X122.633Y38.37
X122.633Y31.17
X122.85Y43.395
X122.85Y36.195
X122.9Y50.6
X122.93Y56.6
X122.93Y49.375
X122.93Y42.175
X122.93Y34.975
X123.0Y57.95
X123.14Y55.47
X123.14Y48.245
X123.14Y41.045
X123.14Y33.845
X123.2Y108.4
X123.34Y53.81
X123.34Y46.585
X123.34Y39.385
X123.34Y32.185
X123.447Y57.237
X123.447Y50.012
X123.447Y42.812
X123.447Y35.612
X123.47Y93.196
X123.7Y52.63
X123.7Y45.405
X123.7Y38.205
X123.7Y31.005
X124.533Y52.594
X124.533Y45.369
X124.533Y38.169
X124.533Y30.969
X124.545Y56.186
X124.545Y48.961
X124.545Y41.761
X124.545Y34.561
X124.574Y58.879
X125.665Y56.585
X125.665Y49.36
X125.665Y42.16
X125.665Y34.96
X125.71Y52.96
X125.71Y45.735
X125.71Y38.535
X125.71Y31.335
X125.74Y54.9
X125.74Y47.675
X125.74Y40.475
X125.74Y33.275
X125.743Y51.862
X125.743Y44.662
X125.743Y37.462
X125.8Y60.45
X125.99Y51.085
X125.99Y43.885
X125.99Y36.685
X125.99Y58.31
X126.59Y53.68
X126.59Y46.455
X126.59Y39.255
X126.59Y32.055
X126.8Y100.6
X126.82Y58.38
X126.82Y51.155
X126.82Y43.955
X126.82Y36.755
X127.61Y62.2
X129.33Y45.76
X129.4Y22.7
X129.41Y54.91
X129.41Y47.685
X129.41Y40.485
X129.41Y33.285
X129.53Y27.44
X129.55Y52.94
X129.57Y31.35
X129.58Y56.3
X129.58Y49.075
X129.58Y41.875
X129.58Y34.675
X129.65Y38.55
X131.79Y51.32
X131.89Y44.27
X131.9Y58.85
X132.0Y37.12
X132.6Y55.48
X132.6Y48.24
X132.63Y33.95
X132.7Y41.15
X134.7Y58.725
X134.7Y51.525
X134.7Y44.325
X134.7Y37.125
X135.588Y56.225
X136.588Y54.9
X136.588Y52.925
X136.588Y47.7
X136.588Y45.725
X136.588Y40.5
X136.588Y38.525
X136.588Y33.425
X137.583Y32.82
X137.588Y54.25
X137.588Y52.925
X137.588Y47.05
X137.588Y45.725
X137.588Y39.85
X137.588Y38.525
X138.588Y32.025
T3
X2.5Y102.35
X3.2Y86.0
X3.4Y34.8
X3.5Y72.4
X3.6Y54.1
X5.3Y22.1
X10.15Y90.05
X12.4Y79.5
X13.75Y113.6
X14.45Y101.7
X17.05Y94.45
X18.0Y5.0
X19.4Y82.6
X20.4Y67.5
X21.9Y93.6
X23.8Y80.55
X24.3Y89.9
X24.3Y83.7
X26.05Y67.15
X27.8Y88.4
X28.1Y95.8
X29.45Y65.9
X30.1Y105.1
X33.9Y112.3
X36.05Y99.0
X36.6Y14.05
X39.2Y91.0
X39.7Y66.95
X44.3Y113.3
X46.35Y98.55
X46.55Y92.25
X46.95Y107.5
X48.45Y67.3
X51.15Y97.4
X56.1Y108.636
X56.25Y96.175
X56.7Y103.65
X57.0Y5.3
X58.007Y98.976
X60.425Y106.225
X60.75Y67.55
X62.0Y76.5
X63.1Y106.175
X64.3Y99.25
X64.6Y116.6
X64.97Y101.24
X65.17Y96.36
X65.3Y109.4
X65.55Y84.8
X66.4Y103.5
X68.3Y87.0
X68.52Y106.81
X70.4Y109.6
X70.6Y90.65
X71.3Y15.2
X71.84Y103.77
X73.5Y67.7
X74.5Y58.9
X74.6Y28.0
X75.0Y41.5
X75.95Y107.65
X76.3Y75.25
X80.35Y80.65
X81.15Y87.55
X82.5Y105.1
X82.6Y108.7
X83.95Y67.85
X86.75Y87.85
X86.9Y106.3
X89.4Y97.45
X89.85Y80.65
X90.0Y116.7
X90.4Y73.6
X91.7Y101.9
X93.1Y109.3
X93.65Y103.45
X95.65Y97.6
X95.95Y87.8
X96.2Y103.3
X99.35Y68.25
X99.45Y81.05
X100.1Y5.0
X101.35Y92.6
X101.8Y18.2
X106.9Y87.3
X109.2Y81.9
X112.035Y93.77
X112.2Y80.7
X113.45Y98.8
X114.0Y68.8
X114.55Y102.45
X115.55Y107.9
X118.75Y93.0
X118.9Y117.8
X118.9Y78.8
X122.85Y94.9
X123.7Y68.8
X124.45Y89.05
X124.65Y83.5
X126.8Y111.0
X137.2Y3.6
X138.75Y101.85
X145.5Y17.0
X146.2Y108.8
X146.2Y84.5
X146.3Y100.65
X146.55Y70.3
X146.6Y57.35
X147.3Y40.7
T5
X25.0Y107.6
T6
X49.5Y117.0
X54.0Y117.0
T7
X127.5Y93.55
X127.5Y91.05
X127.5Y88.55
X142.0Y93.55
X142.0Y88.55
T8
X130.46Y112.08
X130.46Y107.0
X133.0Y107.0
X135.54Y112.08
X135.54Y107.0
T9
X48.25Y114.51
X55.26Y114.51
T10
X90.4Y110.7
X95.6Y110.7
T11
X21.2Y115.4
X28.8Y115.4
T13
X4.0Y116.0
X4.0Y4.0
X15.0Y15.0
X135.0Y75.0
X135.0Y15.0
X146.0Y116.0
X146.0Y4.0
T4
G00X70.68Y117.965
M15
G01X70.68Y118.765
M16
G05
G00X70.68Y113.635
M15
G01X70.68Y114.735
M16
G05
G00X79.32Y117.965
M15
G01X79.32Y118.765
M16
G05
G00X79.32Y113.635
M15
G01X79.32Y114.735
M16
G05
T12
G00X134.45Y96.65
M15
G01X135.55Y96.65
M16
G05
G00X134.45Y85.45
M15
G01X135.55Y85.45
M16
G05
M30
