M48
; DRILL file {KiCad 9.0.0} date 2025-03-21T15:20:41-0400
; FORMAT={-:-/ absolute / metric / decimal}
; #@! TF.CreationDate,2025-03-21T15:20:41-04:00
; #@! TF.GenerationSoftware,Kicad,Pcbnew,9.0.0
; #@! TF.FileFunction,Plated,1,4,PTH
FMAT,2
METRIC
; #@! TA.AperFunction,Plated,PTH,ViaDrill
T1C0.250
; #@! TA.AperFunction,Plated,PTH,ViaDrill
T2C0.500
; #@! TA.AperFunction,Plated,PTH,ComponentDrill
T3C0.600
; #@! TA.AperFunction,Plated,PTH,ComponentDrill
T4C0.920
; #@! TA.AperFunction,Plated,PTH,ComponentDrill
T5C0.990
; #@! TA.AperFunction,Plated,PTH,ComponentDrill
T6C1.000
; #@! TA.AperFunction,Plated,PTH,ComponentDrill
T7C1.090
; #@! TA.AperFunction,Plated,PTH,ComponentDrill
T8C1.300
; #@! TA.AperFunction,Plated,PTH,ComponentDrill
T9C1.800
; #@! TA.AperFunction,Plated,PTH,ComponentDrill
T10C2.000
; #@! TA.AperFunction,Plated,PTH,ComponentDrill
T11C3.200
%
G90
G05
T1
X130.0Y-139.8
X130.2Y-106.55
X131.0Y-117.525
X131.0Y-118.825
X131.0Y-124.725
X131.0Y-126.025
X131.0Y-131.925
X131.0Y-133.225
X131.0Y-139.125
X131.0Y-140.425
X131.75Y-108.4
X132.0Y-117.525
X132.0Y-119.475
X132.0Y-124.725
X132.0Y-126.675
X132.0Y-131.925
X132.0Y-133.875
X132.0Y-139.125
X132.0Y-141.075
X132.3Y-102.8
X132.55Y-138.15
X132.6Y-123.7
X132.6Y-130.85
X133.0Y-117.525
X133.0Y-120.0
X133.0Y-124.725
X133.0Y-127.2
X133.0Y-131.925
X133.0Y-134.4
X133.0Y-139.125
X133.05Y-114.75
X133.35Y-111.0
X133.4Y-105.05
X133.8Y-116.5
X133.95Y-120.5
X134.75Y-107.35
X134.9Y-123.2
X134.9Y-130.4
X134.9Y-137.6
X134.9Y-144.8
X135.37Y-111.489
X135.95Y-100.85
X136.25Y-103.85
X136.9Y-125.5
X136.9Y-133.0
X136.9Y-140.4
X136.95Y-115.05
X137.2Y-117.6
X137.2Y-120.1
X137.25Y-94.9
X137.55Y-106.75
X138.1Y-93.6
X138.3Y-122.7
X138.35Y-129.9
X138.45Y-137.05
X138.65Y-97.2
X138.85Y-145.7
X139.3Y-92.5
X139.35Y-108.7
X139.6Y-95.45
X139.9Y-93.35
X139.9Y-119.475
X139.9Y-126.675
X139.9Y-133.875
X139.9Y-141.075
X140.0Y-100.5
X140.0Y-118.0
X140.0Y-125.2
X140.0Y-132.4
X140.0Y-139.6
X140.8Y-113.9
X141.45Y-103.55
X141.5Y-90.0
X141.696Y-88.674
X142.5Y-122.075
X142.5Y-129.275
X142.5Y-136.475
X142.5Y-143.675
X142.525Y-118.175
X142.525Y-125.375
X142.525Y-132.575
X142.525Y-139.775
X142.75Y-123.0
X143.0Y-117.5
X143.0Y-120.3
X143.0Y-124.7
X143.0Y-127.5
X143.0Y-131.9
X143.0Y-134.7
X143.0Y-139.1
X143.0Y-141.9
X143.1Y-130.05
X143.2Y-137.3
X143.45Y-105.0
X144.0Y-118.65
X144.0Y-120.55
X144.0Y-125.85
X144.0Y-127.75
X144.0Y-133.05
X144.0Y-134.95
X144.0Y-140.25
X144.0Y-142.15
X144.05Y-102.15
X144.05Y-146.65
X144.7Y-119.7
X144.7Y-126.9
X144.7Y-134.1
X144.7Y-141.3
X145.0Y-90.0
X145.1Y-91.1
X145.75Y-118.0
X145.75Y-125.2
X145.75Y-132.4
X145.75Y-139.6
X145.763Y-121.2
X145.763Y-128.4
X145.763Y-135.6
X145.763Y-142.8
X145.8Y-89.0
X145.95Y-127.5
X146.0Y-120.25
X146.0Y-134.65
X146.002Y-141.884
X146.1Y-90.6
X146.1Y-97.35
X146.1Y-99.1
X146.6Y-88.3
X147.25Y-112.4
X147.5Y-117.04
X147.5Y-118.0
X147.5Y-120.24
X147.5Y-121.2
X147.5Y-124.24
X147.5Y-125.2
X147.5Y-127.44
X147.5Y-128.4
X147.5Y-131.44
X147.5Y-132.4
X147.5Y-134.64
X147.5Y-135.6
X147.5Y-138.64
X147.5Y-139.6
X147.5Y-141.84
X147.5Y-142.8
X148.5Y-121.95
X148.5Y-129.15
X148.5Y-136.35
X148.5Y-143.55
X149.1Y-88.8
X149.1Y-116.8
X149.1Y-124.0
X149.1Y-131.2
X149.1Y-138.4
X149.4Y-92.9
X149.55Y-119.9
X149.55Y-127.1
X149.55Y-134.3
X149.55Y-141.5
X149.6Y-89.5
X149.6Y-102.0
X149.6Y-146.4
X150.0Y-99.8
X150.5Y-117.0
X150.5Y-118.0
X150.5Y-118.9
X150.5Y-121.5
X150.5Y-124.2
X150.5Y-125.2
X150.5Y-126.1
X150.5Y-128.7
X150.5Y-131.4
X150.5Y-132.4
X150.5Y-133.3
X150.5Y-135.9
X150.5Y-138.6
X150.5Y-139.6
X150.5Y-140.5
X150.5Y-142.9
X150.65Y-90.95
X150.7Y-120.55
X150.7Y-127.75
X150.7Y-142.15
X150.725Y-134.952
X151.1Y-114.7
X151.55Y-137.5
X152.05Y-101.85
X152.25Y-85.5
X152.263Y-120.22
X152.263Y-121.2
X152.263Y-127.42
X152.263Y-128.4
X152.263Y-134.62
X152.263Y-135.6
X152.263Y-141.82
X152.263Y-142.8
X152.3Y-117.04
X152.3Y-118.0
X152.3Y-124.24
X152.3Y-125.2
X152.3Y-131.44
X152.3Y-132.4
X152.3Y-138.64
X152.3Y-139.6
X152.55Y-103.8
X153.064Y-122.6
X153.064Y-129.8
X153.064Y-137.0
X153.064Y-144.2
X153.25Y-80.4
X153.35Y-85.5
X153.8Y-119.4
X153.8Y-122.1
X153.8Y-126.6
X153.8Y-129.3
X153.8Y-133.8
X153.8Y-136.5
X153.8Y-141.0
X153.8Y-143.7
X154.45Y-90.9
X155.05Y-78.9
X155.1Y-146.6
X155.25Y-80.0
X155.65Y-93.85
X156.0Y-123.3
X156.0Y-130.5
X156.0Y-137.8
X156.186Y-94.461
X156.4Y-84.7
X157.0Y-102.85
X158.2Y-117.4
X158.2Y-119.0
X158.2Y-120.6
X158.2Y-122.2
X158.2Y-124.6
X158.2Y-126.2
X158.2Y-127.8
X158.2Y-129.4
X158.2Y-131.8
X158.2Y-133.4
X158.2Y-135.0
X158.2Y-136.6
X158.2Y-139.0
X158.2Y-140.6
X158.2Y-142.2
X158.2Y-143.8
X158.235Y-114.835
X158.65Y-96.95
X158.85Y-106.15
X159.55Y-97.65
X159.85Y-96.1
X159.95Y-123.4
X160.15Y-87.5
X160.15Y-130.6
X160.3Y-137.85
X160.35Y-95.1
X160.4Y-98.15
X160.5Y-117.8
X160.5Y-119.4
X160.5Y-121.0
X160.5Y-122.6
X160.5Y-125.0
X160.5Y-126.6
X160.5Y-128.2
X160.5Y-129.8
X160.5Y-132.2
X160.5Y-133.8
X160.5Y-135.4
X160.5Y-137.0
X160.5Y-139.4
X160.5Y-141.0
X160.5Y-142.6
X160.5Y-144.2
X160.7Y-146.65
X160.85Y-89.6
X161.1Y-98.7
X162.35Y-96.5
X162.55Y-93.2
X162.6Y-147.55
X162.85Y-101.45
X163.0Y-94.3
X163.0Y-95.9
X163.95Y-98.2
X163.95Y-104.05
X164.29Y-90.26
X164.5Y-117.75
X164.6Y-130.7
X164.7Y-97.693
X164.7Y-142.25
X164.85Y-87.5
X164.95Y-92.9
X165.15Y-102.326
X165.55Y-98.0
X165.75Y-87.5
X165.85Y-92.9
X166.05Y-102.3
X166.65Y-97.4
X167.05Y-94.8
X167.05Y-95.7
X167.055Y-98.193
X167.13Y-93.91
X167.25Y-90.8
X167.35Y-92.9
X167.45Y-96.5
X168.25Y-91.96
X168.85Y-87.8
X169.15Y-99.2
X169.425Y-117.025
X169.425Y-118.625
X169.425Y-120.225
X169.425Y-121.825
X169.425Y-124.225
X169.425Y-125.825
X169.425Y-127.425
X169.425Y-129.025
X169.425Y-131.425
X169.425Y-133.025
X169.425Y-134.625
X169.425Y-136.225
X169.425Y-138.625
X169.425Y-140.225
X169.425Y-141.825
X169.425Y-143.425
X169.45Y-103.0
X169.55Y-101.3
X169.65Y-137.75
X169.7Y-123.35
X169.7Y-96.926
X169.75Y-130.7
X170.05Y-87.9
X171.25Y-92.0
X171.25Y-92.9
X171.3Y-87.85
X171.35Y-114.9
X171.825Y-117.525
X171.825Y-119.125
X171.825Y-120.725
X171.825Y-122.325
X171.825Y-124.725
X171.825Y-126.325
X171.825Y-127.925
X171.825Y-129.525
X171.825Y-131.925
X171.825Y-133.525
X171.825Y-135.125
X171.825Y-136.725
X171.825Y-139.125
X171.825Y-140.725
X171.825Y-142.325
X171.825Y-143.925
X171.97Y-92.61
X172.35Y-147.75
X172.45Y-96.45
X172.5Y-98.5
X172.681Y-93.905
X172.85Y-95.8
X173.4Y-94.6
X173.55Y-95.4
X174.0Y-130.6
X174.1Y-137.8
X174.4Y-94.4
X174.55Y-95.25
X175.25Y-93.9
X175.3Y-88.15
X175.7Y-95.1
X176.0Y-123.5
X176.1Y-137.9
X176.237Y-120.118
X176.237Y-127.318
X176.237Y-134.518
X176.237Y-141.718
X176.3Y-130.7
X176.384Y-117.584
X176.384Y-124.784
X176.384Y-131.984
X176.384Y-139.184
X176.925Y-117.025
X176.925Y-124.225
X176.925Y-131.425
X176.925Y-138.625
X177.725Y-118.425
X177.725Y-119.425
X177.725Y-121.425
X177.725Y-125.625
X177.725Y-126.625
X177.725Y-128.625
X177.725Y-132.825
X177.725Y-133.825
X177.725Y-135.825
X177.725Y-140.025
X177.725Y-141.025
X177.725Y-143.025
X177.825Y-122.425
X177.825Y-129.625
X177.825Y-136.825
X177.825Y-144.025
X179.125Y-120.225
X179.125Y-127.425
X179.125Y-134.625
X179.125Y-141.825
X179.525Y-118.225
X179.525Y-119.025
X179.525Y-125.425
X179.525Y-126.225
X179.525Y-132.625
X179.525Y-133.425
X179.525Y-139.825
X179.525Y-140.625
X179.575Y-122.475
X179.575Y-129.675
X179.575Y-136.875
X179.575Y-144.075
X179.625Y-121.725
X179.625Y-128.925
X179.625Y-136.125
X179.625Y-143.325
X180.278Y-147.976
X180.35Y-85.8
X180.525Y-119.675
X180.525Y-126.875
X180.525Y-134.075
X180.525Y-141.275
X180.8Y-114.55
X181.025Y-122.65
X181.025Y-129.85
X181.025Y-137.05
X181.025Y-144.25
X181.148Y-121.671
X181.15Y-88.36
X181.164Y-128.861
X181.189Y-136.086
X181.189Y-143.286
X181.875Y-120.425
X181.875Y-127.625
X181.875Y-134.825
X181.875Y-142.025
X182.425Y-117.325
X182.425Y-118.125
X182.425Y-119.125
X182.425Y-121.125
X182.425Y-122.325
X182.425Y-124.525
X182.425Y-125.325
X182.425Y-126.325
X182.425Y-128.325
X182.425Y-129.525
X182.425Y-131.725
X182.425Y-132.525
X182.425Y-133.525
X182.425Y-135.525
X182.425Y-136.725
X182.425Y-138.925
X182.425Y-139.725
X182.425Y-140.725
X182.425Y-142.725
X182.425Y-143.925
X183.15Y-103.15
X184.05Y-81.0
X184.125Y-118.825
X184.125Y-121.125
X184.125Y-126.025
X184.125Y-128.325
X184.125Y-133.225
X184.125Y-135.525
X184.125Y-140.425
X184.125Y-142.725
X184.225Y-117.425
X184.225Y-124.625
X184.225Y-131.825
X184.225Y-139.025
X184.3Y-101.3
X184.65Y-89.75
X185.3Y-85.3
X186.125Y-118.125
X186.125Y-120.425
X186.125Y-125.325
X186.125Y-127.625
X186.125Y-132.525
X186.125Y-134.825
X186.125Y-139.725
X186.125Y-142.025
X186.425Y-117.325
X186.425Y-124.525
X186.425Y-131.725
X186.425Y-138.925
X186.7Y-121.0
X186.7Y-128.2
X186.7Y-135.4
X186.7Y-142.6
X187.025Y-118.925
X187.025Y-126.125
X187.025Y-133.325
X187.025Y-140.525
X187.089Y-119.789
X187.089Y-126.989
X187.089Y-134.189
X187.089Y-141.389
X187.1Y-100.95
X187.225Y-117.925
X187.225Y-125.125
X187.225Y-132.325
X187.225Y-139.525
X187.55Y-112.45
X187.7Y-137.05
X188.05Y-86.25
X190.0Y-79.85
X190.0Y-81.05
X190.0Y-121.5
X190.0Y-128.7
X190.0Y-135.9
X190.0Y-143.1
X190.025Y-120.425
X190.025Y-127.625
X190.025Y-134.825
X190.025Y-142.025
X190.8Y-104.05
X190.9Y-83.5
X191.525Y-146.068
X191.75Y-138.253
X191.8Y-114.6
X192.15Y-128.4
X192.2Y-77.7
X192.3Y-82.2
X192.45Y-130.9
X193.0Y-119.0
X193.0Y-120.0
X193.0Y-126.2
X193.0Y-127.2
X193.0Y-133.4
X193.0Y-134.4
X193.0Y-140.6
X193.0Y-141.6
X193.3Y-82.2
X195.1Y-116.0
X195.1Y-123.2
X195.1Y-130.4
X195.1Y-137.6
X196.0Y-118.6
X196.95Y-141.35
X197.0Y-119.825
X197.0Y-121.8
X197.0Y-127.025
X197.0Y-129.0
X197.0Y-134.225
X197.0Y-136.2
X197.6Y-88.45
X197.6Y-98.95
X197.6Y-100.9
X197.95Y-90.75
X198.0Y-120.475
X198.0Y-121.8
X198.0Y-127.675
X198.0Y-129.0
X198.0Y-134.875
X198.0Y-136.2
X198.0Y-141.9
X198.1Y-150.85
X198.6Y-132.3
X198.6Y-139.4
X198.7Y-124.8
X199.0Y-143.375
X199.3Y-115.4
X199.7Y-69.5
X199.8Y-92.1
X200.1Y-143.7
X201.0Y-118.825
X201.0Y-124.725
X201.0Y-126.025
X201.0Y-131.925
X201.0Y-133.225
X201.0Y-139.125
X201.0Y-140.425
X202.0Y-119.475
X202.0Y-124.725
X202.0Y-126.675
X202.0Y-131.925
X202.0Y-133.875
X202.0Y-139.125
X202.0Y-141.075
X202.2Y-151.35
X202.6Y-123.85
X202.65Y-130.95
X202.7Y-138.1
X202.9Y-74.2
X203.0Y-117.525
X203.0Y-120.0
X203.0Y-124.725
X203.0Y-127.2
X203.0Y-131.925
X203.0Y-134.4
X203.0Y-139.125
X203.9Y-136.1
X203.95Y-122.3
X203.95Y-142.95
X204.0Y-120.9
X204.0Y-128.7
X204.4Y-75.2
X204.9Y-123.2
X204.9Y-130.4
X204.9Y-137.6
X204.9Y-144.8
X205.6Y-82.25
X205.7Y-75.2
X205.734Y-73.887
X206.05Y-90.05
X206.9Y-80.4
X206.9Y-125.8
X206.9Y-133.0
X206.9Y-140.25
X207.0Y-77.3
X207.05Y-114.8
X207.25Y-119.25
X207.3Y-91.7
X208.2Y-130.15
X208.3Y-75.4
X208.3Y-76.4
X208.411Y-137.061
X208.45Y-122.5
X208.7Y-145.05
X209.9Y-119.475
X209.9Y-126.675
X209.9Y-133.875
X209.9Y-141.075
X210.0Y-118.0
X210.0Y-125.2
X210.0Y-132.4
X210.0Y-139.6
X210.1Y-69.2
X211.85Y-82.1
X211.9Y-147.7
X212.5Y-122.075
X212.5Y-129.275
X212.5Y-136.475
X212.5Y-143.675
X212.525Y-118.175
X212.525Y-125.375
X212.525Y-132.575
X212.525Y-139.775
X213.0Y-117.5
X213.0Y-120.3
X213.0Y-124.7
X213.0Y-127.5
X213.0Y-131.9
X213.0Y-134.7
X213.0Y-139.1
X213.0Y-141.9
X213.056Y-130.091
X213.15Y-137.25
X214.0Y-118.65
X214.0Y-120.55
X214.0Y-125.85
X214.0Y-127.75
X214.0Y-133.05
X214.0Y-134.95
X214.0Y-140.25
X214.0Y-142.15
X214.65Y-114.3
X214.7Y-119.7
X214.7Y-126.9
X214.7Y-134.1
X214.7Y-141.3
X215.2Y-78.3
X215.75Y-118.0
X215.75Y-125.2
X215.75Y-132.4
X215.75Y-139.6
X215.763Y-121.2
X215.763Y-128.4
X215.763Y-135.6
X215.763Y-142.8
X215.997Y-120.299
X216.0Y-134.6
X216.02Y-127.438
X216.057Y-141.775
X217.0Y-91.8
X217.5Y-117.04
X217.5Y-118.0
X217.5Y-120.24
X217.5Y-121.2
X217.5Y-124.24
X217.5Y-125.2
X217.5Y-127.44
X217.5Y-128.4
X217.5Y-131.44
X217.5Y-132.4
X217.5Y-134.64
X217.5Y-135.6
X217.5Y-138.64
X217.5Y-139.6
X217.5Y-141.84
X217.5Y-142.8
X217.55Y-112.4
X218.45Y-90.3
X218.5Y-121.95
X218.5Y-129.15
X218.5Y-136.35
X218.5Y-143.55
X219.1Y-116.8
X219.1Y-124.0
X219.1Y-131.2
X219.1Y-138.4
X219.55Y-119.9
X219.55Y-127.1
X219.55Y-134.3
X219.55Y-141.5
X219.85Y-82.25
X219.95Y-80.5
X220.2Y-147.15
X220.5Y-117.0
X220.5Y-118.0
X220.5Y-118.9
X220.5Y-121.4
X220.5Y-124.2
X220.5Y-125.2
X220.5Y-126.1
X220.5Y-128.6
X220.5Y-131.4
X220.5Y-132.4
X220.5Y-133.3
X220.5Y-138.6
X220.5Y-139.6
X220.5Y-140.5
X220.6Y-135.8
X220.6Y-143.0
X220.7Y-120.55
X220.7Y-127.75
X220.7Y-134.95
X220.725Y-142.152
X221.5Y-137.6
X221.55Y-130.35
X222.263Y-120.22
X222.263Y-121.2
X222.263Y-127.42
X222.263Y-128.4
X222.263Y-134.62
X222.263Y-135.6
X222.263Y-141.82
X222.263Y-142.8
X222.3Y-117.04
X222.3Y-118.0
X222.3Y-124.24
X222.3Y-125.2
X222.3Y-131.44
X222.3Y-132.4
X222.3Y-138.64
X222.3Y-139.6
X222.45Y-114.5
X223.063Y-122.6
X223.063Y-129.8
X223.063Y-137.0
X223.063Y-144.2
X223.5Y-65.95
X223.8Y-119.4
X223.8Y-122.1
X223.8Y-126.6
X223.8Y-129.3
X223.8Y-133.8
X223.8Y-136.5
X223.8Y-141.0
X223.8Y-143.7
X224.1Y-70.15
X225.1Y-76.15
X225.25Y-66.6
X225.55Y-71.7
X226.0Y-123.4
X226.0Y-137.8
X226.1Y-130.6
X226.6Y-73.45
X227.85Y-147.0
X228.0Y-66.65
X228.05Y-114.5
X228.15Y-71.1
X228.2Y-117.4
X228.2Y-119.0
X228.2Y-120.6
X228.2Y-122.2
X228.2Y-124.6
X228.2Y-126.2
X228.2Y-127.8
X228.2Y-129.4
X228.2Y-131.8
X228.2Y-133.4
X228.2Y-135.0
X228.2Y-136.6
X228.2Y-139.0
X228.2Y-140.6
X228.2Y-142.2
X228.2Y-143.8
X229.05Y-71.25
X229.3Y-73.35
X229.7Y-68.45
X229.85Y-73.9
X230.2Y-130.6
X230.25Y-137.85
X230.45Y-73.25
X230.45Y-80.45
X230.5Y-117.8
X230.5Y-119.4
X230.5Y-121.0
X230.5Y-122.6
X230.5Y-125.0
X230.5Y-126.6
X230.5Y-128.2
X230.5Y-129.8
X230.5Y-132.2
X230.5Y-133.8
X230.5Y-135.4
X230.5Y-137.0
X230.5Y-139.4
X230.5Y-141.0
X230.5Y-142.6
X230.5Y-144.2
X230.95Y-73.9
X231.45Y-73.25
X232.1Y-71.15
X232.25Y-74.7
X232.45Y-81.85
X233.25Y-69.15
X233.3Y-66.85
X233.4Y-68.15
X233.45Y-74.0
X234.225Y-73.7
X234.85Y-142.7
X235.05Y-118.65
X235.2Y-80.2
X235.3Y-128.2
X235.4Y-69.75
X235.55Y-76.1
X235.75Y-70.9
X236.05Y-67.4
X236.3Y-71.7
X236.4Y-72.7
X237.1Y-84.15
X239.425Y-117.025
X239.425Y-118.625
X239.425Y-120.225
X239.425Y-121.825
X239.425Y-124.225
X239.425Y-125.825
X239.425Y-127.425
X239.425Y-129.025
X239.425Y-131.425
X239.425Y-133.025
X239.425Y-134.625
X239.425Y-136.225
X239.425Y-138.625
X239.425Y-140.225
X239.425Y-141.825
X239.425Y-143.425
X239.6Y-130.55
X239.65Y-123.4
X239.65Y-137.8
X241.5Y-88.65
X241.825Y-117.525
X241.825Y-119.125
X241.825Y-120.725
X241.825Y-122.325
X241.825Y-124.725
X241.825Y-126.325
X241.825Y-127.925
X241.825Y-129.525
X241.825Y-131.925
X241.825Y-133.525
X241.825Y-135.125
X241.825Y-136.725
X241.825Y-139.125
X241.825Y-140.725
X241.825Y-142.325
X241.825Y-143.925
X241.95Y-114.8
X242.92Y-86.604
X243.72Y-88.854
X243.9Y-84.65
X244.5Y-73.25
X245.27Y-89.754
X245.4Y-88.55
X245.62Y-82.954
X245.8Y-75.15
X246.15Y-130.7
X246.2Y-137.9
X246.237Y-120.118
X246.237Y-127.318
X246.237Y-134.518
X246.237Y-141.718
X246.25Y-123.5
X246.384Y-117.584
X246.384Y-124.784
X246.384Y-131.984
X246.384Y-139.184
X246.42Y-86.754
X246.925Y-117.025
X246.925Y-124.225
X246.925Y-131.425
X246.925Y-138.625
X247.725Y-118.425
X247.725Y-119.425
X247.725Y-121.425
X247.725Y-125.625
X247.725Y-126.625
X247.725Y-128.625
X247.725Y-132.825
X247.725Y-133.825
X247.725Y-135.825
X247.725Y-140.025
X247.725Y-141.025
X247.725Y-143.025
X247.825Y-122.425
X247.825Y-129.625
X247.825Y-136.825
X247.825Y-144.025
X247.9Y-70.4
X248.47Y-81.804
X248.8Y-114.85
X249.125Y-120.225
X249.125Y-127.425
X249.125Y-134.625
X249.125Y-141.825
X249.525Y-118.225
X249.525Y-119.025
X249.525Y-125.425
X249.525Y-126.225
X249.525Y-132.625
X249.525Y-133.425
X249.525Y-139.825
X249.525Y-140.625
X249.575Y-122.475
X249.575Y-129.675
X249.575Y-136.875
X249.575Y-144.075
X249.625Y-121.725
X249.625Y-128.925
X249.625Y-136.125
X249.625Y-143.325
X250.2Y-69.2
X250.525Y-119.675
X250.525Y-126.875
X250.525Y-134.075
X250.525Y-141.275
X251.025Y-122.65
X251.025Y-129.85
X251.025Y-137.05
X251.025Y-144.25
X251.142Y-143.237
X251.146Y-136.042
X251.148Y-121.671
X251.2Y-128.9
X251.4Y-71.45
X251.875Y-120.425
X251.875Y-127.625
X251.875Y-134.825
X251.875Y-142.025
X251.95Y-112.4
X252.425Y-117.325
X252.425Y-118.125
X252.425Y-119.125
X252.425Y-121.125
X252.425Y-122.325
X252.425Y-124.525
X252.425Y-125.325
X252.425Y-126.325
X252.425Y-128.325
X252.425Y-129.525
X252.425Y-131.725
X252.425Y-132.525
X252.425Y-133.525
X252.425Y-135.525
X252.425Y-136.725
X252.425Y-138.925
X252.425Y-139.725
X252.425Y-140.725
X252.425Y-142.725
X252.425Y-143.925
X254.125Y-118.825
X254.125Y-121.125
X254.125Y-126.025
X254.125Y-128.325
X254.125Y-133.225
X254.125Y-135.525
X254.125Y-140.425
X254.125Y-142.725
X254.225Y-117.425
X254.225Y-124.625
X254.225Y-131.825
X254.225Y-139.025
X256.125Y-118.125
X256.125Y-120.425
X256.125Y-125.325
X256.125Y-127.625
X256.125Y-132.525
X256.125Y-134.825
X256.125Y-139.725
X256.125Y-142.025
X256.425Y-117.325
X256.425Y-124.525
X256.425Y-131.725
X256.425Y-138.925
X256.7Y-121.0
X256.7Y-128.2
X256.7Y-135.4
X256.7Y-142.6
X257.025Y-118.925
X257.025Y-126.125
X257.025Y-133.325
X257.025Y-140.525
X257.089Y-119.789
X257.089Y-126.989
X257.089Y-134.189
X257.089Y-141.389
X257.225Y-117.925
X257.225Y-125.125
X257.225Y-132.325
X257.225Y-139.525
X257.7Y-122.55
X259.25Y-112.85
X260.0Y-121.5
X260.0Y-128.7
X260.0Y-135.9
X260.0Y-143.1
X260.025Y-120.425
X260.025Y-127.625
X260.025Y-134.825
X260.025Y-142.025
X261.9Y-116.75
X262.4Y-131.0
X262.45Y-122.15
X262.5Y-138.45
X262.6Y-128.55
X262.9Y-114.8
X263.0Y-119.0
X263.0Y-120.0
X263.0Y-126.2
X263.0Y-127.2
X263.0Y-133.4
X263.0Y-134.4
X263.0Y-140.6
X263.0Y-141.6
X265.1Y-116.0
X265.1Y-123.2
X265.1Y-130.4
X265.1Y-137.6
X266.0Y-118.5
X267.0Y-119.825
X267.0Y-121.8
X267.0Y-127.025
X267.0Y-129.0
X267.0Y-134.225
X267.0Y-136.2
X267.0Y-141.3
X267.995Y-141.905
X268.0Y-120.475
X268.0Y-121.8
X268.0Y-127.675
X268.0Y-129.0
X268.0Y-134.875
X268.0Y-136.2
X269.0Y-142.7
T2
X126.6Y-120.15
X126.65Y-138.2
X126.85Y-105.3
X128.8Y-83.3
X130.3Y-152.9
X133.45Y-97.8
X136.4Y-74.95
X138.5Y-89.3
X138.75Y-61.4
X138.95Y-83.15
X143.0Y-73.0
X143.0Y-170.0
X143.3Y-93.35
X143.5Y-78.15
X144.1Y-86.95
X144.75Y-107.9
X145.95Y-82.55
X147.4Y-94.9
X147.95Y-78.35
X151.05Y-107.85
X151.1Y-94.6
X152.9Y-75.9
X154.45Y-110.5
X155.1Y-69.9
X158.0Y-73.0
X161.6Y-160.95
X163.45Y-61.0
X164.65Y-80.4
X164.7Y-108.05
X168.2Y-74.0
X172.75Y-84.95
X173.45Y-107.7
X174.6Y-67.75
X177.0Y-81.5
X177.1Y-61.6
X180.6Y-98.55
X182.0Y-169.7
X184.1Y-74.5
X185.75Y-107.45
X188.2Y-59.85
X190.55Y-90.2
X191.6Y-71.3
X193.3Y-88.0
X195.2Y-78.9
X195.6Y-86.1
X197.0Y-73.1
X198.0Y-74.662
X198.5Y-107.3
X199.8Y-78.5
X201.2Y-66.8
X201.3Y-99.75
X204.95Y-162.1
X205.35Y-94.35
X206.15Y-87.45
X206.8Y-69.4
X208.9Y-69.3
X208.95Y-107.15
X211.75Y-87.15
X211.9Y-68.7
X212.1Y-59.1
X212.8Y-76.6
X214.85Y-94.35
X215.4Y-101.4
X216.15Y-64.25
X216.7Y-73.1
X216.7Y-76.2
X218.65Y-71.55
X219.3Y-75.4
X220.4Y-86.45
X224.35Y-106.75
X224.45Y-93.95
X225.1Y-170.0
X226.35Y-82.4
X230.15Y-89.65
X234.25Y-86.85
X236.6Y-106.65
X237.035Y-81.23
X238.45Y-76.2
X239.55Y-72.55
X240.55Y-67.1
X242.2Y-58.8
X242.65Y-96.5
X243.75Y-82.0
X247.85Y-80.1
X249.15Y-160.75
X249.45Y-85.95
X249.65Y-91.5
X251.8Y-64.0
X252.75Y-96.35
X255.25Y-106.35
X258.4Y-73.6
X262.2Y-171.4
X265.8Y-70.6
X268.05Y-107.35
X268.1Y-89.1
X268.1Y-94.9
X270.2Y-76.3
X270.5Y-158.0
X271.2Y-66.2
X271.6Y-117.65
X272.3Y-134.3
T4
X150.0Y-67.4
T5
X174.5Y-58.0
X179.0Y-58.0
T6
X252.5Y-81.45
X252.5Y-83.95
X252.5Y-86.45
X267.0Y-81.45
X267.0Y-86.45
T7
X255.46Y-62.92
X255.46Y-68.0
X258.0Y-68.0
X260.54Y-62.92
X260.54Y-68.0
T8
X173.25Y-60.49
X180.26Y-60.49
T9
X146.2Y-59.6
X153.8Y-59.6
T11
X129.0Y-59.0
X129.0Y-171.0
X271.0Y-59.0
X271.0Y-171.0
T3
G00X195.68Y-57.035
M15
G01X195.68Y-56.235
M16
G05
G00X195.68Y-61.365
M15
G01X195.68Y-60.265
M16
G05
G00X204.32Y-57.035
M15
G01X204.32Y-56.235
M16
G05
G00X204.32Y-61.365
M15
G01X204.32Y-60.265
M16
G05
T10
G00X259.45Y-78.35
M15
G01X260.55Y-78.35
M16
G05
G00X259.45Y-89.55
M15
G01X260.55Y-89.55
M16
G05
M30
