%TF.GenerationSoftware,KiCad,Pcbnew,(7.0.0)*%
%TF.CreationDate,2023-12-14T15:04:28-05:00*%
%TF.ProjectId,singal-path-test-board,73696e67-616c-42d7-9061-74682d746573,rev?*%
%TF.SameCoordinates,Original*%
%TF.FileFunction,Soldermask,Top*%
%TF.FilePolarity,Negative*%
%FSLAX46Y46*%
G04 Gerber Fmt 4.6, Leading zero omitted, Abs format (unit mm)*
G04 Created by KiCad (PCBNEW (7.0.0)) date 2023-12-14 15:04:28*
%MOMM*%
%LPD*%
G01*
G04 APERTURE LIST*
G04 Aperture macros list*
%AMRoundRect*
0 Rectangle with rounded corners*
0 $1 Rounding radius*
0 $2 $3 $4 $5 $6 $7 $8 $9 X,Y pos of 4 corners*
0 Add a 4 corners polygon primitive as box body*
4,1,4,$2,$3,$4,$5,$6,$7,$8,$9,$2,$3,0*
0 Add four circle primitives for the rounded corners*
1,1,$1+$1,$2,$3*
1,1,$1+$1,$4,$5*
1,1,$1+$1,$6,$7*
1,1,$1+$1,$8,$9*
0 Add four rect primitives between the rounded corners*
20,1,$1+$1,$2,$3,$4,$5,0*
20,1,$1+$1,$4,$5,$6,$7,0*
20,1,$1+$1,$6,$7,$8,$9,0*
20,1,$1+$1,$8,$9,$2,$3,0*%
G04 Aperture macros list end*
%ADD10C,5.700000*%
%ADD11R,0.650000X0.400000*%
%ADD12R,3.000000X3.000000*%
%ADD13RoundRect,0.135000X-0.135000X-0.185000X0.135000X-0.185000X0.135000X0.185000X-0.135000X0.185000X0*%
%ADD14RoundRect,0.250000X-0.450000X0.262500X-0.450000X-0.262500X0.450000X-0.262500X0.450000X0.262500X0*%
%ADD15RoundRect,0.250000X-0.262500X-0.450000X0.262500X-0.450000X0.262500X0.450000X-0.262500X0.450000X0*%
%ADD16R,1.700000X1.700000*%
%ADD17O,1.700000X1.700000*%
%ADD18RoundRect,0.010000X-0.340000X0.090000X-0.340000X-0.090000X0.340000X-0.090000X0.340000X0.090000X0*%
%ADD19O,2.500000X1.600000*%
%ADD20O,7.000000X3.500000*%
%ADD21RoundRect,0.150000X0.512500X0.150000X-0.512500X0.150000X-0.512500X-0.150000X0.512500X-0.150000X0*%
%ADD22RoundRect,0.140000X-0.140000X-0.170000X0.140000X-0.170000X0.140000X0.170000X-0.140000X0.170000X0*%
G04 APERTURE END LIST*
%TO.C,J2*%
G36*
X146810000Y-111900000D02*
G01*
X146110000Y-111900000D01*
X146110000Y-112100000D01*
X146810000Y-112100000D01*
X146810000Y-111900000D01*
G37*
G36*
X149190000Y-116500000D02*
G01*
X149890000Y-116500000D01*
X149890000Y-116300000D01*
X149190000Y-116300000D01*
X149190000Y-116500000D01*
G37*
G36*
X146810000Y-112700000D02*
G01*
X146110000Y-112700000D01*
X146110000Y-112900000D01*
X146810000Y-112900000D01*
X146810000Y-112700000D01*
G37*
G36*
X149190000Y-109700000D02*
G01*
X149890000Y-109700000D01*
X149890000Y-109500000D01*
X149190000Y-109500000D01*
X149190000Y-109700000D01*
G37*
G36*
X149190000Y-107300000D02*
G01*
X149890000Y-107300000D01*
X149890000Y-107100000D01*
X149190000Y-107100000D01*
X149190000Y-107300000D01*
G37*
G36*
X146810000Y-103900000D02*
G01*
X146110000Y-103900000D01*
X146110000Y-104100000D01*
X146810000Y-104100000D01*
X146810000Y-103900000D01*
G37*
G36*
X146810000Y-112300000D02*
G01*
X146110000Y-112300000D01*
X146110000Y-112500000D01*
X146810000Y-112500000D01*
X146810000Y-112300000D01*
G37*
G36*
X146810000Y-107500000D02*
G01*
X146110000Y-107500000D01*
X146110000Y-107700000D01*
X146810000Y-107700000D01*
X146810000Y-107500000D01*
G37*
G36*
X149190000Y-108900000D02*
G01*
X149890000Y-108900000D01*
X149890000Y-108700000D01*
X149190000Y-108700000D01*
X149190000Y-108900000D01*
G37*
G36*
X149190000Y-104900000D02*
G01*
X149890000Y-104900000D01*
X149890000Y-104700000D01*
X149190000Y-104700000D01*
X149190000Y-104900000D01*
G37*
G36*
X149190000Y-113700000D02*
G01*
X149890000Y-113700000D01*
X149890000Y-113500000D01*
X149190000Y-113500000D01*
X149190000Y-113700000D01*
G37*
G36*
X149190000Y-106900000D02*
G01*
X149890000Y-106900000D01*
X149890000Y-106700000D01*
X149190000Y-106700000D01*
X149190000Y-106900000D01*
G37*
G36*
X149190000Y-114100000D02*
G01*
X149890000Y-114100000D01*
X149890000Y-113900000D01*
X149190000Y-113900000D01*
X149190000Y-114100000D01*
G37*
G36*
X146810000Y-111100000D02*
G01*
X146110000Y-111100000D01*
X146110000Y-111300000D01*
X146810000Y-111300000D01*
X146810000Y-111100000D01*
G37*
G36*
X149190000Y-110100000D02*
G01*
X149890000Y-110100000D01*
X149890000Y-109900000D01*
X149190000Y-109900000D01*
X149190000Y-110100000D01*
G37*
G36*
X146810000Y-115500000D02*
G01*
X146110000Y-115500000D01*
X146110000Y-115700000D01*
X146810000Y-115700000D01*
X146810000Y-115500000D01*
G37*
G36*
X149190000Y-106500000D02*
G01*
X149890000Y-106500000D01*
X149890000Y-106300000D01*
X149190000Y-106300000D01*
X149190000Y-106500000D01*
G37*
G36*
X146810000Y-104700000D02*
G01*
X146110000Y-104700000D01*
X146110000Y-104900000D01*
X146810000Y-104900000D01*
X146810000Y-104700000D01*
G37*
G36*
X149190000Y-110500000D02*
G01*
X149890000Y-110500000D01*
X149890000Y-110300000D01*
X149190000Y-110300000D01*
X149190000Y-110500000D01*
G37*
G36*
X149190000Y-104500000D02*
G01*
X149890000Y-104500000D01*
X149890000Y-104300000D01*
X149190000Y-104300000D01*
X149190000Y-104500000D01*
G37*
G36*
X146810000Y-109100000D02*
G01*
X146110000Y-109100000D01*
X146110000Y-109300000D01*
X146810000Y-109300000D01*
X146810000Y-109100000D01*
G37*
G36*
X146810000Y-106300000D02*
G01*
X146110000Y-106300000D01*
X146110000Y-106500000D01*
X146810000Y-106500000D01*
X146810000Y-106300000D01*
G37*
G36*
X146810000Y-114700000D02*
G01*
X146110000Y-114700000D01*
X146110000Y-114900000D01*
X146810000Y-114900000D01*
X146810000Y-114700000D01*
G37*
G36*
X149190000Y-112100000D02*
G01*
X149890000Y-112100000D01*
X149890000Y-111900000D01*
X149190000Y-111900000D01*
X149190000Y-112100000D01*
G37*
G36*
X146810000Y-104300000D02*
G01*
X146110000Y-104300000D01*
X146110000Y-104500000D01*
X146810000Y-104500000D01*
X146810000Y-104300000D01*
G37*
G36*
X149190000Y-104100000D02*
G01*
X149890000Y-104100000D01*
X149890000Y-103900000D01*
X149190000Y-103900000D01*
X149190000Y-104100000D01*
G37*
G36*
X149190000Y-114500000D02*
G01*
X149890000Y-114500000D01*
X149890000Y-114300000D01*
X149190000Y-114300000D01*
X149190000Y-114500000D01*
G37*
G36*
X146810000Y-111500000D02*
G01*
X146110000Y-111500000D01*
X146110000Y-111700000D01*
X146810000Y-111700000D01*
X146810000Y-111500000D01*
G37*
G36*
X146810000Y-115100000D02*
G01*
X146110000Y-115100000D01*
X146110000Y-115300000D01*
X146810000Y-115300000D01*
X146810000Y-115100000D01*
G37*
G36*
X146810000Y-106700000D02*
G01*
X146110000Y-106700000D01*
X146110000Y-106900000D01*
X146810000Y-106900000D01*
X146810000Y-106700000D01*
G37*
G36*
X146810000Y-115900000D02*
G01*
X146110000Y-115900000D01*
X146110000Y-116100000D01*
X146810000Y-116100000D01*
X146810000Y-115900000D01*
G37*
G36*
X149190000Y-107700000D02*
G01*
X149890000Y-107700000D01*
X149890000Y-107500000D01*
X149190000Y-107500000D01*
X149190000Y-107700000D01*
G37*
G36*
X149190000Y-109300000D02*
G01*
X149890000Y-109300000D01*
X149890000Y-109100000D01*
X149190000Y-109100000D01*
X149190000Y-109300000D01*
G37*
G36*
X146810000Y-109500000D02*
G01*
X146110000Y-109500000D01*
X146110000Y-109700000D01*
X146810000Y-109700000D01*
X146810000Y-109500000D01*
G37*
G36*
X149190000Y-116100000D02*
G01*
X149890000Y-116100000D01*
X149890000Y-115900000D01*
X149190000Y-115900000D01*
X149190000Y-116100000D01*
G37*
G36*
X146810000Y-103500000D02*
G01*
X146110000Y-103500000D01*
X146110000Y-103700000D01*
X146810000Y-103700000D01*
X146810000Y-103500000D01*
G37*
G36*
X149190000Y-113300000D02*
G01*
X149890000Y-113300000D01*
X149890000Y-113100000D01*
X149190000Y-113100000D01*
X149190000Y-113300000D01*
G37*
G36*
X146810000Y-113100000D02*
G01*
X146110000Y-113100000D01*
X146110000Y-113300000D01*
X146810000Y-113300000D01*
X146810000Y-113100000D01*
G37*
G36*
X146810000Y-116700000D02*
G01*
X146110000Y-116700000D01*
X146110000Y-116900000D01*
X146810000Y-116900000D01*
X146810000Y-116700000D01*
G37*
G36*
X149190000Y-105700000D02*
G01*
X149890000Y-105700000D01*
X149890000Y-105500000D01*
X149190000Y-105500000D01*
X149190000Y-105700000D01*
G37*
G36*
X146810000Y-109900000D02*
G01*
X146110000Y-109900000D01*
X146110000Y-110100000D01*
X146810000Y-110100000D01*
X146810000Y-109900000D01*
G37*
G36*
X146810000Y-105900000D02*
G01*
X146110000Y-105900000D01*
X146110000Y-106100000D01*
X146810000Y-106100000D01*
X146810000Y-105900000D01*
G37*
G36*
X149190000Y-112900000D02*
G01*
X149890000Y-112900000D01*
X149890000Y-112700000D01*
X149190000Y-112700000D01*
X149190000Y-112900000D01*
G37*
G36*
X149190000Y-103700000D02*
G01*
X149890000Y-103700000D01*
X149890000Y-103500000D01*
X149190000Y-103500000D01*
X149190000Y-103700000D01*
G37*
G36*
X149190000Y-108500000D02*
G01*
X149890000Y-108500000D01*
X149890000Y-108300000D01*
X149190000Y-108300000D01*
X149190000Y-108500000D01*
G37*
G36*
X146810000Y-113500000D02*
G01*
X146110000Y-113500000D01*
X146110000Y-113700000D01*
X146810000Y-113700000D01*
X146810000Y-113500000D01*
G37*
G36*
X146810000Y-103100000D02*
G01*
X146110000Y-103100000D01*
X146110000Y-103300000D01*
X146810000Y-103300000D01*
X146810000Y-103100000D01*
G37*
G36*
X146810000Y-105100000D02*
G01*
X146110000Y-105100000D01*
X146110000Y-105300000D01*
X146810000Y-105300000D01*
X146810000Y-105100000D01*
G37*
G36*
X149190000Y-108100000D02*
G01*
X149890000Y-108100000D01*
X149890000Y-107900000D01*
X149190000Y-107900000D01*
X149190000Y-108100000D01*
G37*
G36*
X146810000Y-116300000D02*
G01*
X146110000Y-116300000D01*
X146110000Y-116500000D01*
X146810000Y-116500000D01*
X146810000Y-116300000D01*
G37*
G36*
X149190000Y-110900000D02*
G01*
X149890000Y-110900000D01*
X149890000Y-110700000D01*
X149190000Y-110700000D01*
X149190000Y-110900000D01*
G37*
G36*
X146810000Y-108700000D02*
G01*
X146110000Y-108700000D01*
X146110000Y-108900000D01*
X146810000Y-108900000D01*
X146810000Y-108700000D01*
G37*
G36*
X149190000Y-115700000D02*
G01*
X149890000Y-115700000D01*
X149890000Y-115500000D01*
X149190000Y-115500000D01*
X149190000Y-115700000D01*
G37*
G36*
X149190000Y-116900000D02*
G01*
X149890000Y-116900000D01*
X149890000Y-116700000D01*
X149190000Y-116700000D01*
X149190000Y-116900000D01*
G37*
G36*
X146810000Y-113900000D02*
G01*
X146110000Y-113900000D01*
X146110000Y-114100000D01*
X146810000Y-114100000D01*
X146810000Y-113900000D01*
G37*
G36*
X146810000Y-114300000D02*
G01*
X146110000Y-114300000D01*
X146110000Y-114500000D01*
X146810000Y-114500000D01*
X146810000Y-114300000D01*
G37*
G36*
X149190000Y-105300000D02*
G01*
X149890000Y-105300000D01*
X149890000Y-105100000D01*
X149190000Y-105100000D01*
X149190000Y-105300000D01*
G37*
G36*
X149190000Y-111300000D02*
G01*
X149890000Y-111300000D01*
X149890000Y-111100000D01*
X149190000Y-111100000D01*
X149190000Y-111300000D01*
G37*
G36*
X146810000Y-107100000D02*
G01*
X146110000Y-107100000D01*
X146110000Y-107300000D01*
X146810000Y-107300000D01*
X146810000Y-107100000D01*
G37*
G36*
X149190000Y-115300000D02*
G01*
X149890000Y-115300000D01*
X149890000Y-115100000D01*
X149190000Y-115100000D01*
X149190000Y-115300000D01*
G37*
G36*
X146810000Y-110700000D02*
G01*
X146110000Y-110700000D01*
X146110000Y-110900000D01*
X146810000Y-110900000D01*
X146810000Y-110700000D01*
G37*
G36*
X146810000Y-105500000D02*
G01*
X146110000Y-105500000D01*
X146110000Y-105700000D01*
X146810000Y-105700000D01*
X146810000Y-105500000D01*
G37*
G36*
X149190000Y-114900000D02*
G01*
X149890000Y-114900000D01*
X149890000Y-114700000D01*
X149190000Y-114700000D01*
X149190000Y-114900000D01*
G37*
G36*
X149190000Y-111700000D02*
G01*
X149890000Y-111700000D01*
X149890000Y-111500000D01*
X149190000Y-111500000D01*
X149190000Y-111700000D01*
G37*
G36*
X146810000Y-108300000D02*
G01*
X146110000Y-108300000D01*
X146110000Y-108500000D01*
X146810000Y-108500000D01*
X146810000Y-108300000D01*
G37*
G36*
X146810000Y-107900000D02*
G01*
X146110000Y-107900000D01*
X146110000Y-108100000D01*
X146810000Y-108100000D01*
X146810000Y-107900000D01*
G37*
G36*
X146810000Y-110300000D02*
G01*
X146110000Y-110300000D01*
X146110000Y-110500000D01*
X146810000Y-110500000D01*
X146810000Y-110300000D01*
G37*
G36*
X149190000Y-112500000D02*
G01*
X149890000Y-112500000D01*
X149890000Y-112300000D01*
X149190000Y-112300000D01*
X149190000Y-112500000D01*
G37*
G36*
X149190000Y-106100000D02*
G01*
X149890000Y-106100000D01*
X149890000Y-105900000D01*
X149190000Y-105900000D01*
X149190000Y-106100000D01*
G37*
%TD*%
D10*
%TO.C,TP10*%
X80000000Y-160000000D03*
%TD*%
%TO.C,TP3*%
X170000000Y-160000000D03*
%TD*%
%TO.C,TP1*%
X170000000Y-70000000D03*
%TD*%
%TO.C,TP2*%
X80000000Y-70000000D03*
%TD*%
D11*
%TO.C,U5*%
X128149999Y-125149999D03*
X128149999Y-125799999D03*
X128149999Y-126449999D03*
X130049999Y-126449999D03*
X130049999Y-125799999D03*
X130049999Y-125149999D03*
%TD*%
%TO.C,U4*%
X128149999Y-109049999D03*
X128149999Y-109699999D03*
X128149999Y-110349999D03*
X130049999Y-110349999D03*
X130049999Y-109699999D03*
X130049999Y-109049999D03*
%TD*%
%TO.C,U3*%
X128149999Y-117149999D03*
X128149999Y-117799999D03*
X128149999Y-118449999D03*
X130049999Y-118449999D03*
X130049999Y-117799999D03*
X130049999Y-117149999D03*
%TD*%
%TO.C,U2*%
X127999999Y-101249999D03*
X127999999Y-101899999D03*
X127999999Y-102549999D03*
X129899999Y-102549999D03*
X129899999Y-101899999D03*
X129899999Y-101249999D03*
%TD*%
%TO.C,U1*%
X117049999Y-109349999D03*
X117049999Y-109999999D03*
X117049999Y-110649999D03*
X118949999Y-110649999D03*
X118949999Y-109999999D03*
X118949999Y-109349999D03*
%TD*%
D12*
%TO.C,TP9*%
X108599999Y-105799999D03*
%TD*%
%TO.C,TP8*%
X117999999Y-105799999D03*
%TD*%
%TO.C,TP7*%
X101999999Y-87499999D03*
%TD*%
%TO.C,TP6*%
X129099999Y-89899999D03*
%TD*%
%TO.C,TP5*%
X131799999Y-139499999D03*
%TD*%
%TO.C,TP4*%
X113299999Y-105799999D03*
%TD*%
D13*
%TO.C,R9*%
X132390000Y-127900000D03*
X133410000Y-127900000D03*
%TD*%
%TO.C,R8*%
X133310000Y-111700000D03*
X132290000Y-111700000D03*
%TD*%
%TO.C,R7*%
X132390000Y-119900000D03*
X133410000Y-119900000D03*
%TD*%
%TO.C,R6*%
X132190000Y-104000000D03*
X133210000Y-104000000D03*
%TD*%
D14*
%TO.C,R5*%
X110000000Y-113412500D03*
X110000000Y-111587500D03*
%TD*%
%TO.C,R4*%
X113100000Y-111587500D03*
X113100000Y-113412500D03*
%TD*%
D15*
%TO.C,R3*%
X98087500Y-110000000D03*
X99912500Y-110000000D03*
%TD*%
D13*
%TO.C,R2*%
X109000000Y-110000000D03*
X110020000Y-110000000D03*
%TD*%
%TO.C,R1*%
X112000000Y-110000000D03*
X113020000Y-110000000D03*
%TD*%
D16*
%TO.C,JP1*%
X147799999Y-92524999D03*
D17*
X147799999Y-95064999D03*
%TD*%
D16*
%TO.C,J3*%
X84999999Y-124839999D03*
D17*
X87539999Y-124839999D03*
X84999999Y-127379999D03*
X87539999Y-127379999D03*
X84999999Y-129919999D03*
X87539999Y-129919999D03*
X84999999Y-132459999D03*
X87539999Y-132459999D03*
X84999999Y-134999999D03*
X87539999Y-134999999D03*
X84999999Y-137539999D03*
X87539999Y-137539999D03*
X84999999Y-140079999D03*
X87539999Y-140079999D03*
X84999999Y-142619999D03*
X87539999Y-142619999D03*
X84999999Y-145159999D03*
X87539999Y-145159999D03*
X84999999Y-147699999D03*
X87539999Y-147699999D03*
%TD*%
D18*
%TO.C,J2*%
X149540000Y-103200000D03*
X146460000Y-103200000D03*
X149540000Y-103600000D03*
X146460000Y-103600000D03*
X149540000Y-104000000D03*
X146460000Y-104000000D03*
X149540000Y-104400000D03*
X146460000Y-104400000D03*
X149540000Y-104800000D03*
X146460000Y-104800000D03*
X149540000Y-105200000D03*
X146460000Y-105200000D03*
X149540000Y-105600000D03*
X146460000Y-105600000D03*
X149540000Y-106000000D03*
X146460000Y-106000000D03*
X149540000Y-106400000D03*
X146460000Y-106400000D03*
X149540000Y-106800000D03*
X146460000Y-106800000D03*
X149540000Y-107200000D03*
X146460000Y-107200000D03*
X149540000Y-107600000D03*
X146460000Y-107600000D03*
X149540000Y-108000000D03*
X146460000Y-108000000D03*
X149540000Y-108400000D03*
X146460000Y-108400000D03*
X149540000Y-108800000D03*
X146460000Y-108800000D03*
X149540000Y-109200000D03*
X146460000Y-109200000D03*
X149540000Y-109600000D03*
X146460000Y-109600000D03*
X149540000Y-110000000D03*
X146460000Y-110000000D03*
X149540000Y-110400000D03*
X146460000Y-110400000D03*
X149540000Y-110800000D03*
X146460000Y-110800000D03*
X149540000Y-111200000D03*
X146460000Y-111200000D03*
X149540000Y-111600000D03*
X146460000Y-111600000D03*
X149540000Y-112000000D03*
X146460000Y-112000000D03*
X149540000Y-112400000D03*
X146460000Y-112400000D03*
X149540000Y-112800000D03*
X146460000Y-112800000D03*
X149540000Y-113200000D03*
X146460000Y-113200000D03*
X149540000Y-113600000D03*
X146460000Y-113600000D03*
X149540000Y-114000000D03*
X146460000Y-114000000D03*
X149540000Y-114400000D03*
X146460000Y-114400000D03*
X149540000Y-114800000D03*
X146460000Y-114800000D03*
X149540000Y-115200000D03*
X146460000Y-115200000D03*
X149540000Y-115600000D03*
X146460000Y-115600000D03*
X149540000Y-116000000D03*
X146460000Y-116000000D03*
X149540000Y-116400000D03*
X146460000Y-116400000D03*
X149540000Y-116800000D03*
X146460000Y-116800000D03*
%TD*%
D19*
%TO.C,J1*%
X90549999Y-112619999D03*
D20*
X85469999Y-115159999D03*
X85469999Y-104999999D03*
D19*
X90549999Y-110079999D03*
%TD*%
D21*
%TO.C,D1*%
X103862500Y-110000000D03*
X106137500Y-109050000D03*
X106137500Y-110950000D03*
%TD*%
D22*
%TO.C,C9*%
X130200000Y-127900000D03*
X131160000Y-127900000D03*
%TD*%
%TO.C,C8*%
X130120000Y-111700000D03*
X131080000Y-111700000D03*
%TD*%
%TO.C,C7*%
X131420000Y-125800000D03*
X132380000Y-125800000D03*
%TD*%
%TO.C,C6*%
X132280000Y-109700000D03*
X131320000Y-109700000D03*
%TD*%
%TO.C,C5*%
X130120000Y-119900000D03*
X131080000Y-119900000D03*
%TD*%
%TO.C,C4*%
X130020000Y-104000000D03*
X130980000Y-104000000D03*
%TD*%
%TO.C,C3*%
X131320000Y-117800000D03*
X132280000Y-117800000D03*
%TD*%
%TO.C,C2*%
X131220000Y-101900000D03*
X132180000Y-101900000D03*
%TD*%
%TO.C,C1*%
X120220000Y-110000000D03*
X121180000Y-110000000D03*
%TD*%
M02*
