%TF.GenerationSoftware,KiCad,Pcbnew,(7.0.0)*%
%TF.CreationDate,2023-12-14T15:04:28-05:00*%
%TF.ProjectId,singal-path-test-board,73696e67-616c-42d7-9061-74682d746573,rev?*%
%TF.SameCoordinates,Original*%
%TF.FileFunction,Copper,L2,Inr*%
%TF.FilePolarity,Positive*%
%FSLAX46Y46*%
G04 Gerber Fmt 4.6, Leading zero omitted, Abs format (unit mm)*
G04 Created by KiCad (PCBNEW (7.0.0)) date 2023-12-14 15:04:28*
%MOMM*%
%LPD*%
G01*
G04 APERTURE LIST*
%TA.AperFunction,ComponentPad*%
%ADD10C,5.700000*%
%TD*%
%TA.AperFunction,ComponentPad*%
%ADD11R,1.700000X1.700000*%
%TD*%
%TA.AperFunction,ComponentPad*%
%ADD12O,1.700000X1.700000*%
%TD*%
%TA.AperFunction,ComponentPad*%
%ADD13O,2.500000X1.600000*%
%TD*%
%TA.AperFunction,ComponentPad*%
%ADD14O,7.000000X3.500000*%
%TD*%
%TA.AperFunction,ViaPad*%
%ADD15C,0.800000*%
%TD*%
G04 APERTURE END LIST*
D10*
%TO.N,GND*%
%TO.C,TP10*%
X80000000Y-160000000D03*
%TD*%
%TO.N,GND*%
%TO.C,TP3*%
X170000000Y-160000000D03*
%TD*%
%TO.N,GND*%
%TO.C,TP1*%
X170000000Y-70000000D03*
%TD*%
%TO.N,GND*%
%TO.C,TP2*%
X80000000Y-70000000D03*
%TD*%
D11*
%TO.N,GND*%
%TO.C,JP1*%
X147799999Y-92524999D03*
D12*
%TO.N,/REF*%
X147799999Y-95064999D03*
%TD*%
D11*
%TO.N,VCC*%
%TO.C,J3*%
X84999999Y-124839999D03*
D12*
X87539999Y-124839999D03*
%TO.N,GND*%
X84999999Y-127379999D03*
X87539999Y-127379999D03*
X84999999Y-129919999D03*
X87539999Y-129919999D03*
%TO.N,/ATTEN_{SEL}*%
X84999999Y-132459999D03*
%TO.N,GND*%
X87539999Y-132459999D03*
%TO.N,/S_{0}*%
X84999999Y-134999999D03*
%TO.N,/S_{1}*%
X87539999Y-134999999D03*
%TO.N,/S_{2}*%
X84999999Y-137539999D03*
%TO.N,/S_{3}*%
X87539999Y-137539999D03*
%TO.N,GND*%
X84999999Y-140079999D03*
X87539999Y-140079999D03*
%TO.N,/TEST_{-0dBV}*%
X84999999Y-142619999D03*
X87539999Y-142619999D03*
%TO.N,GND*%
X84999999Y-145159999D03*
X87539999Y-145159999D03*
X84999999Y-147699999D03*
X87539999Y-147699999D03*
%TD*%
D13*
%TO.N,GND*%
%TO.C,J1*%
X90549999Y-112619999D03*
D14*
X85469999Y-115159999D03*
X85469999Y-104999999D03*
D13*
%TO.N,Net-(J1-In)*%
X90549999Y-110079999D03*
%TD*%
D15*
%TO.N,/S_{3}*%
X129500000Y-123500000D03*
%TO.N,GND*%
X138500000Y-99000000D03*
X131000000Y-96500000D03*
X121500000Y-99500000D03*
X127000000Y-99000000D03*
X132500000Y-99500000D03*
X152500000Y-110000000D03*
X155500000Y-110000000D03*
X152500000Y-103500000D03*
X152500000Y-116000000D03*
X144000000Y-114500000D03*
X140000000Y-108500000D03*
X142500000Y-100500000D03*
X144000000Y-108000000D03*
X97500000Y-115500000D03*
X105018448Y-121101710D03*
X134500000Y-124000000D03*
X136500000Y-102000000D03*
X126000000Y-134500000D03*
X126000000Y-102000000D03*
X121251493Y-72694313D03*
X96300000Y-160500000D03*
X127400000Y-158600000D03*
X78000000Y-109500000D03*
X78200000Y-124300000D03*
X77500000Y-143300000D03*
X96300000Y-122600000D03*
X101500000Y-104400000D03*
X116500000Y-97500000D03*
X92900000Y-70700000D03*
X84066042Y-92171048D03*
X103700000Y-78300000D03*
X150800000Y-71700000D03*
X159700000Y-82600000D03*
X158700000Y-117300000D03*
X161500000Y-105600000D03*
X159300000Y-130800000D03*
X166100000Y-143500000D03*
X145400000Y-154100000D03*
X119200000Y-142500000D03*
X107700000Y-144600000D03*
X93900000Y-143800000D03*
X92000000Y-129500000D03*
X102100000Y-132200000D03*
X111900000Y-122600000D03*
X121400000Y-119600000D03*
X126309583Y-123482696D03*
X120200000Y-129700000D03*
X119000000Y-126100000D03*
X110000000Y-131100000D03*
X111600000Y-133400000D03*
X116300000Y-124100000D03*
X116000000Y-117700000D03*
X107200000Y-126900000D03*
X114700000Y-135200000D03*
X128300000Y-121700000D03*
X128100000Y-114100000D03*
X127800000Y-106100000D03*
X135500000Y-107400000D03*
X135300000Y-113800000D03*
X139900000Y-129800000D03*
X122100000Y-105400000D03*
X118200000Y-113100000D03*
%TO.N,/S_{2}*%
X130500000Y-115500000D03*
%TO.N,/S_{1}*%
X130300000Y-107500000D03*
%TO.N,VCC*%
X131700000Y-100900000D03*
X131600000Y-124700000D03*
X131600000Y-116500000D03*
X131500000Y-108700000D03*
%TO.N,/S_{0}*%
X130700000Y-100300000D03*
%TO.N,VCC*%
X105700000Y-108000000D03*
%TO.N,GND*%
X106200000Y-112200000D03*
X110000000Y-115000000D03*
X113100000Y-115000000D03*
X122300000Y-110000000D03*
%TO.N,VCC*%
X120900000Y-109000000D03*
%TO.N,GND*%
X115700000Y-110400000D03*
%TO.N,/ATTEN_{SEL}*%
X119600000Y-108500000D03*
%TD*%
%TA.AperFunction,Conductor*%
%TO.N,GND*%
G36*
X173950000Y-66013763D02*
G01*
X173986237Y-66050000D01*
X173999500Y-66099500D01*
X173999500Y-163900500D01*
X173986237Y-163950000D01*
X173950000Y-163986237D01*
X173900500Y-163999500D01*
X76099500Y-163999500D01*
X76050000Y-163986237D01*
X76013763Y-163950000D01*
X76000500Y-163900500D01*
X76000500Y-162297516D01*
X77848005Y-162297516D01*
X77853853Y-162306632D01*
X78030848Y-162464803D01*
X78035173Y-162468252D01*
X78319187Y-162669773D01*
X78323894Y-162672730D01*
X78628675Y-162841176D01*
X78633683Y-162843587D01*
X78955411Y-162976852D01*
X78960653Y-162978686D01*
X79295286Y-163075092D01*
X79300697Y-163076326D01*
X79644005Y-163134657D01*
X79649541Y-163135281D01*
X79997222Y-163154807D01*
X80002778Y-163154807D01*
X80350458Y-163135281D01*
X80355994Y-163134657D01*
X80699302Y-163076326D01*
X80704713Y-163075092D01*
X81039346Y-162978686D01*
X81044588Y-162976852D01*
X81366316Y-162843587D01*
X81371324Y-162841176D01*
X81676105Y-162672730D01*
X81680812Y-162669773D01*
X81964826Y-162468252D01*
X81969151Y-162464803D01*
X82146145Y-162306632D01*
X82151993Y-162297516D01*
X167848005Y-162297516D01*
X167853853Y-162306632D01*
X168030848Y-162464803D01*
X168035173Y-162468252D01*
X168319187Y-162669773D01*
X168323894Y-162672730D01*
X168628675Y-162841176D01*
X168633683Y-162843587D01*
X168955411Y-162976852D01*
X168960653Y-162978686D01*
X169295286Y-163075092D01*
X169300697Y-163076326D01*
X169644005Y-163134657D01*
X169649541Y-163135281D01*
X169997222Y-163154807D01*
X170002778Y-163154807D01*
X170350458Y-163135281D01*
X170355994Y-163134657D01*
X170699302Y-163076326D01*
X170704713Y-163075092D01*
X171039346Y-162978686D01*
X171044588Y-162976852D01*
X171366316Y-162843587D01*
X171371324Y-162841176D01*
X171676105Y-162672730D01*
X171680812Y-162669773D01*
X171964826Y-162468252D01*
X171969151Y-162464803D01*
X172146145Y-162306632D01*
X172151993Y-162297516D01*
X172146666Y-162288087D01*
X170009214Y-160150635D01*
X170000000Y-160145315D01*
X169990785Y-160150635D01*
X167853332Y-162288087D01*
X167848005Y-162297516D01*
X82151993Y-162297516D01*
X82146666Y-162288087D01*
X80009214Y-160150635D01*
X80000000Y-160145315D01*
X79990785Y-160150635D01*
X77853332Y-162288087D01*
X77848005Y-162297516D01*
X76000500Y-162297516D01*
X76000500Y-160002778D01*
X76845193Y-160002778D01*
X76864718Y-160350458D01*
X76865342Y-160355994D01*
X76923673Y-160699302D01*
X76924907Y-160704713D01*
X77021313Y-161039346D01*
X77023147Y-161044588D01*
X77156412Y-161366316D01*
X77158823Y-161371324D01*
X77327269Y-161676105D01*
X77330226Y-161680812D01*
X77531747Y-161964826D01*
X77535196Y-161969151D01*
X77693366Y-162146145D01*
X77702482Y-162151993D01*
X77711911Y-162146666D01*
X79849364Y-160009214D01*
X79854684Y-159999999D01*
X80145315Y-159999999D01*
X80150635Y-160009214D01*
X82288087Y-162146666D01*
X82297516Y-162151993D01*
X82306632Y-162146145D01*
X82464803Y-161969151D01*
X82468252Y-161964826D01*
X82669773Y-161680812D01*
X82672730Y-161676105D01*
X82841176Y-161371324D01*
X82843587Y-161366316D01*
X82976852Y-161044588D01*
X82978686Y-161039346D01*
X83075092Y-160704713D01*
X83076326Y-160699302D01*
X83134657Y-160355994D01*
X83135281Y-160350458D01*
X83154807Y-160002778D01*
X166845193Y-160002778D01*
X166864718Y-160350458D01*
X166865342Y-160355994D01*
X166923673Y-160699302D01*
X166924907Y-160704713D01*
X167021313Y-161039346D01*
X167023147Y-161044588D01*
X167156412Y-161366316D01*
X167158823Y-161371324D01*
X167327269Y-161676105D01*
X167330226Y-161680812D01*
X167531747Y-161964826D01*
X167535196Y-161969151D01*
X167693366Y-162146145D01*
X167702482Y-162151993D01*
X167711911Y-162146666D01*
X169849364Y-160009214D01*
X169854684Y-159999999D01*
X170145315Y-159999999D01*
X170150635Y-160009214D01*
X172288087Y-162146666D01*
X172297516Y-162151993D01*
X172306632Y-162146145D01*
X172464803Y-161969151D01*
X172468252Y-161964826D01*
X172669773Y-161680812D01*
X172672730Y-161676105D01*
X172841176Y-161371324D01*
X172843587Y-161366316D01*
X172976852Y-161044588D01*
X172978686Y-161039346D01*
X173075092Y-160704713D01*
X173076326Y-160699302D01*
X173134657Y-160355994D01*
X173135281Y-160350458D01*
X173154807Y-160002778D01*
X173154807Y-159997222D01*
X173135281Y-159649541D01*
X173134657Y-159644005D01*
X173076326Y-159300697D01*
X173075092Y-159295286D01*
X172978686Y-158960653D01*
X172976852Y-158955411D01*
X172843587Y-158633683D01*
X172841176Y-158628675D01*
X172672730Y-158323894D01*
X172669773Y-158319187D01*
X172468252Y-158035173D01*
X172464803Y-158030848D01*
X172306632Y-157853853D01*
X172297516Y-157848005D01*
X172288087Y-157853332D01*
X170150635Y-159990785D01*
X170145315Y-159999999D01*
X169854684Y-159999999D01*
X169849364Y-159990785D01*
X167711911Y-157853332D01*
X167702482Y-157848005D01*
X167693366Y-157853853D01*
X167535196Y-158030848D01*
X167531747Y-158035173D01*
X167330226Y-158319187D01*
X167327269Y-158323894D01*
X167158823Y-158628675D01*
X167156412Y-158633683D01*
X167023147Y-158955411D01*
X167021313Y-158960653D01*
X166924907Y-159295286D01*
X166923673Y-159300697D01*
X166865342Y-159644005D01*
X166864718Y-159649541D01*
X166845193Y-159997222D01*
X166845193Y-160002778D01*
X83154807Y-160002778D01*
X83154807Y-159997222D01*
X83135281Y-159649541D01*
X83134657Y-159644005D01*
X83076326Y-159300697D01*
X83075092Y-159295286D01*
X82978686Y-158960653D01*
X82976852Y-158955411D01*
X82843587Y-158633683D01*
X82841176Y-158628675D01*
X82672730Y-158323894D01*
X82669773Y-158319187D01*
X82468252Y-158035173D01*
X82464803Y-158030848D01*
X82306632Y-157853853D01*
X82297516Y-157848005D01*
X82288087Y-157853332D01*
X80150635Y-159990785D01*
X80145315Y-159999999D01*
X79854684Y-159999999D01*
X79849364Y-159990785D01*
X77711911Y-157853332D01*
X77702482Y-157848005D01*
X77693366Y-157853853D01*
X77535196Y-158030848D01*
X77531747Y-158035173D01*
X77330226Y-158319187D01*
X77327269Y-158323894D01*
X77158823Y-158628675D01*
X77156412Y-158633683D01*
X77023147Y-158955411D01*
X77021313Y-158960653D01*
X76924907Y-159295286D01*
X76923673Y-159300697D01*
X76865342Y-159644005D01*
X76864718Y-159649541D01*
X76845193Y-159997222D01*
X76845193Y-160002778D01*
X76000500Y-160002778D01*
X76000500Y-157702482D01*
X77848005Y-157702482D01*
X77853332Y-157711911D01*
X79990785Y-159849364D01*
X80000000Y-159854684D01*
X80009214Y-159849364D01*
X82146666Y-157711911D01*
X82151993Y-157702482D01*
X167848005Y-157702482D01*
X167853332Y-157711911D01*
X169990785Y-159849364D01*
X170000000Y-159854684D01*
X170009214Y-159849364D01*
X172146666Y-157711911D01*
X172151993Y-157702482D01*
X172146145Y-157693366D01*
X171969151Y-157535196D01*
X171964826Y-157531747D01*
X171680812Y-157330226D01*
X171676105Y-157327269D01*
X171371324Y-157158823D01*
X171366316Y-157156412D01*
X171044588Y-157023147D01*
X171039346Y-157021313D01*
X170704713Y-156924907D01*
X170699302Y-156923673D01*
X170355994Y-156865342D01*
X170350458Y-156864718D01*
X170002778Y-156845193D01*
X169997222Y-156845193D01*
X169649541Y-156864718D01*
X169644005Y-156865342D01*
X169300697Y-156923673D01*
X169295286Y-156924907D01*
X168960653Y-157021313D01*
X168955411Y-157023147D01*
X168633683Y-157156412D01*
X168628675Y-157158823D01*
X168323894Y-157327269D01*
X168319187Y-157330226D01*
X168035173Y-157531747D01*
X168030848Y-157535196D01*
X167853853Y-157693366D01*
X167848005Y-157702482D01*
X82151993Y-157702482D01*
X82146145Y-157693366D01*
X81969151Y-157535196D01*
X81964826Y-157531747D01*
X81680812Y-157330226D01*
X81676105Y-157327269D01*
X81371324Y-157158823D01*
X81366316Y-157156412D01*
X81044588Y-157023147D01*
X81039346Y-157021313D01*
X80704713Y-156924907D01*
X80699302Y-156923673D01*
X80355994Y-156865342D01*
X80350458Y-156864718D01*
X80002778Y-156845193D01*
X79997222Y-156845193D01*
X79649541Y-156864718D01*
X79644005Y-156865342D01*
X79300697Y-156923673D01*
X79295286Y-156924907D01*
X78960653Y-157021313D01*
X78955411Y-157023147D01*
X78633683Y-157156412D01*
X78628675Y-157158823D01*
X78323894Y-157327269D01*
X78319187Y-157330226D01*
X78035173Y-157531747D01*
X78030848Y-157535196D01*
X77853853Y-157693366D01*
X77848005Y-157702482D01*
X76000500Y-157702482D01*
X76000500Y-147813749D01*
X83855613Y-147813749D01*
X83864316Y-147907665D01*
X83865989Y-147916613D01*
X83921809Y-148112803D01*
X83925105Y-148121309D01*
X84016018Y-148303889D01*
X84020823Y-148311649D01*
X84143736Y-148474411D01*
X84149883Y-148481154D01*
X84300619Y-148618569D01*
X84307889Y-148624059D01*
X84481315Y-148731439D01*
X84489472Y-148735501D01*
X84679669Y-148809184D01*
X84688442Y-148811679D01*
X84888930Y-148849157D01*
X84889807Y-148849238D01*
X84897245Y-148847245D01*
X84900000Y-148836967D01*
X85100000Y-148836967D01*
X85102754Y-148847245D01*
X85110192Y-148849238D01*
X85111069Y-148849157D01*
X85311557Y-148811679D01*
X85320330Y-148809184D01*
X85510527Y-148735501D01*
X85518684Y-148731439D01*
X85692110Y-148624059D01*
X85699380Y-148618569D01*
X85850116Y-148481154D01*
X85856263Y-148474411D01*
X85979176Y-148311649D01*
X85983981Y-148303889D01*
X86074894Y-148121309D01*
X86078190Y-148112803D01*
X86134010Y-147916613D01*
X86135683Y-147907665D01*
X86144386Y-147813749D01*
X86395613Y-147813749D01*
X86404316Y-147907665D01*
X86405989Y-147916613D01*
X86461809Y-148112803D01*
X86465105Y-148121309D01*
X86556018Y-148303889D01*
X86560823Y-148311649D01*
X86683736Y-148474411D01*
X86689883Y-148481154D01*
X86840619Y-148618569D01*
X86847889Y-148624059D01*
X87021315Y-148731439D01*
X87029472Y-148735501D01*
X87219669Y-148809184D01*
X87228442Y-148811679D01*
X87428930Y-148849157D01*
X87429807Y-148849238D01*
X87437245Y-148847245D01*
X87440000Y-148836967D01*
X87640000Y-148836967D01*
X87642754Y-148847245D01*
X87650192Y-148849238D01*
X87651069Y-148849157D01*
X87851557Y-148811679D01*
X87860330Y-148809184D01*
X88050527Y-148735501D01*
X88058684Y-148731439D01*
X88232110Y-148624059D01*
X88239380Y-148618569D01*
X88390116Y-148481154D01*
X88396263Y-148474411D01*
X88519176Y-148311649D01*
X88523981Y-148303889D01*
X88614894Y-148121309D01*
X88618190Y-148112803D01*
X88674010Y-147916613D01*
X88675683Y-147907665D01*
X88684386Y-147813749D01*
X88682376Y-147802995D01*
X88671849Y-147800000D01*
X87653033Y-147800000D01*
X87642754Y-147802754D01*
X87640000Y-147813033D01*
X87640000Y-148836967D01*
X87440000Y-148836967D01*
X87440000Y-147813033D01*
X87437245Y-147802754D01*
X87426967Y-147800000D01*
X86408151Y-147800000D01*
X86397623Y-147802995D01*
X86395613Y-147813749D01*
X86144386Y-147813749D01*
X86142376Y-147802995D01*
X86131849Y-147800000D01*
X85113033Y-147800000D01*
X85102754Y-147802754D01*
X85100000Y-147813033D01*
X85100000Y-148836967D01*
X84900000Y-148836967D01*
X84900000Y-147813033D01*
X84897245Y-147802754D01*
X84886967Y-147800000D01*
X83868151Y-147800000D01*
X83857623Y-147802995D01*
X83855613Y-147813749D01*
X76000500Y-147813749D01*
X76000500Y-147586250D01*
X83855613Y-147586250D01*
X83857623Y-147597004D01*
X83868151Y-147600000D01*
X84886967Y-147600000D01*
X84897245Y-147597245D01*
X84900000Y-147586967D01*
X85100000Y-147586967D01*
X85102754Y-147597245D01*
X85113033Y-147600000D01*
X86131849Y-147600000D01*
X86142376Y-147597004D01*
X86144386Y-147586250D01*
X86395613Y-147586250D01*
X86397623Y-147597004D01*
X86408151Y-147600000D01*
X87426967Y-147600000D01*
X87437245Y-147597245D01*
X87440000Y-147586967D01*
X87640000Y-147586967D01*
X87642754Y-147597245D01*
X87653033Y-147600000D01*
X88671849Y-147600000D01*
X88682376Y-147597004D01*
X88684386Y-147586250D01*
X88675683Y-147492334D01*
X88674010Y-147483386D01*
X88618190Y-147287196D01*
X88614894Y-147278690D01*
X88523981Y-147096110D01*
X88519176Y-147088350D01*
X88396263Y-146925588D01*
X88390116Y-146918845D01*
X88239380Y-146781430D01*
X88232110Y-146775940D01*
X88058684Y-146668560D01*
X88050527Y-146664498D01*
X87860330Y-146590815D01*
X87851557Y-146588320D01*
X87651069Y-146550842D01*
X87650192Y-146550761D01*
X87642754Y-146552754D01*
X87640000Y-146563033D01*
X87640000Y-147586967D01*
X87440000Y-147586967D01*
X87440000Y-146563033D01*
X87437245Y-146552754D01*
X87429807Y-146550761D01*
X87428930Y-146550842D01*
X87228442Y-146588320D01*
X87219669Y-146590815D01*
X87029472Y-146664498D01*
X87021315Y-146668560D01*
X86847889Y-146775940D01*
X86840619Y-146781430D01*
X86689883Y-146918845D01*
X86683736Y-146925588D01*
X86560823Y-147088350D01*
X86556018Y-147096110D01*
X86465105Y-147278690D01*
X86461809Y-147287196D01*
X86405989Y-147483386D01*
X86404316Y-147492334D01*
X86395613Y-147586250D01*
X86144386Y-147586250D01*
X86135683Y-147492334D01*
X86134010Y-147483386D01*
X86078190Y-147287196D01*
X86074894Y-147278690D01*
X85983981Y-147096110D01*
X85979176Y-147088350D01*
X85856263Y-146925588D01*
X85850116Y-146918845D01*
X85699380Y-146781430D01*
X85692110Y-146775940D01*
X85518684Y-146668560D01*
X85510527Y-146664498D01*
X85320330Y-146590815D01*
X85311557Y-146588320D01*
X85111069Y-146550842D01*
X85110192Y-146550761D01*
X85102754Y-146552754D01*
X85100000Y-146563033D01*
X85100000Y-147586967D01*
X84900000Y-147586967D01*
X84900000Y-146563033D01*
X84897245Y-146552754D01*
X84889807Y-146550761D01*
X84888930Y-146550842D01*
X84688442Y-146588320D01*
X84679669Y-146590815D01*
X84489472Y-146664498D01*
X84481315Y-146668560D01*
X84307889Y-146775940D01*
X84300619Y-146781430D01*
X84149883Y-146918845D01*
X84143736Y-146925588D01*
X84020823Y-147088350D01*
X84016018Y-147096110D01*
X83925105Y-147278690D01*
X83921809Y-147287196D01*
X83865989Y-147483386D01*
X83864316Y-147492334D01*
X83855613Y-147586250D01*
X76000500Y-147586250D01*
X76000500Y-145273749D01*
X83855613Y-145273749D01*
X83864316Y-145367665D01*
X83865989Y-145376613D01*
X83921809Y-145572803D01*
X83925105Y-145581309D01*
X84016018Y-145763889D01*
X84020823Y-145771649D01*
X84143736Y-145934411D01*
X84149883Y-145941154D01*
X84300619Y-146078569D01*
X84307889Y-146084059D01*
X84481315Y-146191439D01*
X84489472Y-146195501D01*
X84679669Y-146269184D01*
X84688442Y-146271679D01*
X84888930Y-146309157D01*
X84889807Y-146309238D01*
X84897245Y-146307245D01*
X84900000Y-146296967D01*
X85100000Y-146296967D01*
X85102754Y-146307245D01*
X85110192Y-146309238D01*
X85111069Y-146309157D01*
X85311557Y-146271679D01*
X85320330Y-146269184D01*
X85510527Y-146195501D01*
X85518684Y-146191439D01*
X85692110Y-146084059D01*
X85699380Y-146078569D01*
X85850116Y-145941154D01*
X85856263Y-145934411D01*
X85979176Y-145771649D01*
X85983981Y-145763889D01*
X86074894Y-145581309D01*
X86078190Y-145572803D01*
X86134010Y-145376613D01*
X86135683Y-145367665D01*
X86144386Y-145273749D01*
X86395613Y-145273749D01*
X86404316Y-145367665D01*
X86405989Y-145376613D01*
X86461809Y-145572803D01*
X86465105Y-145581309D01*
X86556018Y-145763889D01*
X86560823Y-145771649D01*
X86683736Y-145934411D01*
X86689883Y-145941154D01*
X86840619Y-146078569D01*
X86847889Y-146084059D01*
X87021315Y-146191439D01*
X87029472Y-146195501D01*
X87219669Y-146269184D01*
X87228442Y-146271679D01*
X87428930Y-146309157D01*
X87429807Y-146309238D01*
X87437245Y-146307245D01*
X87440000Y-146296967D01*
X87640000Y-146296967D01*
X87642754Y-146307245D01*
X87650192Y-146309238D01*
X87651069Y-146309157D01*
X87851557Y-146271679D01*
X87860330Y-146269184D01*
X88050527Y-146195501D01*
X88058684Y-146191439D01*
X88232110Y-146084059D01*
X88239380Y-146078569D01*
X88390116Y-145941154D01*
X88396263Y-145934411D01*
X88519176Y-145771649D01*
X88523981Y-145763889D01*
X88614894Y-145581309D01*
X88618190Y-145572803D01*
X88674010Y-145376613D01*
X88675683Y-145367665D01*
X88684386Y-145273749D01*
X88682376Y-145262995D01*
X88671849Y-145260000D01*
X87653033Y-145260000D01*
X87642754Y-145262754D01*
X87640000Y-145273033D01*
X87640000Y-146296967D01*
X87440000Y-146296967D01*
X87440000Y-145273033D01*
X87437245Y-145262754D01*
X87426967Y-145260000D01*
X86408151Y-145260000D01*
X86397623Y-145262995D01*
X86395613Y-145273749D01*
X86144386Y-145273749D01*
X86142376Y-145262995D01*
X86131849Y-145260000D01*
X85113033Y-145260000D01*
X85102754Y-145262754D01*
X85100000Y-145273033D01*
X85100000Y-146296967D01*
X84900000Y-146296967D01*
X84900000Y-145273033D01*
X84897245Y-145262754D01*
X84886967Y-145260000D01*
X83868151Y-145260000D01*
X83857623Y-145262995D01*
X83855613Y-145273749D01*
X76000500Y-145273749D01*
X76000500Y-145046250D01*
X83855613Y-145046250D01*
X83857623Y-145057004D01*
X83868151Y-145060000D01*
X84886967Y-145060000D01*
X84897245Y-145057245D01*
X84900000Y-145046967D01*
X85100000Y-145046967D01*
X85102754Y-145057245D01*
X85113033Y-145060000D01*
X86131849Y-145060000D01*
X86142376Y-145057004D01*
X86144386Y-145046250D01*
X86395613Y-145046250D01*
X86397623Y-145057004D01*
X86408151Y-145060000D01*
X87426967Y-145060000D01*
X87437245Y-145057245D01*
X87440000Y-145046967D01*
X87640000Y-145046967D01*
X87642754Y-145057245D01*
X87653033Y-145060000D01*
X88671849Y-145060000D01*
X88682376Y-145057004D01*
X88684386Y-145046250D01*
X88675683Y-144952334D01*
X88674010Y-144943386D01*
X88618190Y-144747196D01*
X88614894Y-144738690D01*
X88523981Y-144556110D01*
X88519176Y-144548350D01*
X88396263Y-144385588D01*
X88390116Y-144378845D01*
X88239380Y-144241430D01*
X88232110Y-144235940D01*
X88058684Y-144128560D01*
X88050527Y-144124498D01*
X87860330Y-144050815D01*
X87851557Y-144048320D01*
X87651069Y-144010842D01*
X87650192Y-144010761D01*
X87642754Y-144012754D01*
X87640000Y-144023033D01*
X87640000Y-145046967D01*
X87440000Y-145046967D01*
X87440000Y-144023033D01*
X87437245Y-144012754D01*
X87429807Y-144010761D01*
X87428930Y-144010842D01*
X87228442Y-144048320D01*
X87219669Y-144050815D01*
X87029472Y-144124498D01*
X87021315Y-144128560D01*
X86847889Y-144235940D01*
X86840619Y-144241430D01*
X86689883Y-144378845D01*
X86683736Y-144385588D01*
X86560823Y-144548350D01*
X86556018Y-144556110D01*
X86465105Y-144738690D01*
X86461809Y-144747196D01*
X86405989Y-144943386D01*
X86404316Y-144952334D01*
X86395613Y-145046250D01*
X86144386Y-145046250D01*
X86135683Y-144952334D01*
X86134010Y-144943386D01*
X86078190Y-144747196D01*
X86074894Y-144738690D01*
X85983981Y-144556110D01*
X85979176Y-144548350D01*
X85856263Y-144385588D01*
X85850116Y-144378845D01*
X85699380Y-144241430D01*
X85692110Y-144235940D01*
X85518684Y-144128560D01*
X85510527Y-144124498D01*
X85320330Y-144050815D01*
X85311557Y-144048320D01*
X85111069Y-144010842D01*
X85110192Y-144010761D01*
X85102754Y-144012754D01*
X85100000Y-144023033D01*
X85100000Y-145046967D01*
X84900000Y-145046967D01*
X84900000Y-144023033D01*
X84897245Y-144012754D01*
X84889807Y-144010761D01*
X84888930Y-144010842D01*
X84688442Y-144048320D01*
X84679669Y-144050815D01*
X84489472Y-144124498D01*
X84481315Y-144128560D01*
X84307889Y-144235940D01*
X84300619Y-144241430D01*
X84149883Y-144378845D01*
X84143736Y-144385588D01*
X84020823Y-144548350D01*
X84016018Y-144556110D01*
X83925105Y-144738690D01*
X83921809Y-144747196D01*
X83865989Y-144943386D01*
X83864316Y-144952334D01*
X83855613Y-145046250D01*
X76000500Y-145046250D01*
X76000500Y-142620000D01*
X83844571Y-142620000D01*
X83864244Y-142832310D01*
X83865493Y-142836699D01*
X83865494Y-142836705D01*
X83921341Y-143032984D01*
X83921343Y-143032990D01*
X83922595Y-143037389D01*
X84017634Y-143228255D01*
X84020396Y-143231912D01*
X84143365Y-143394749D01*
X84143368Y-143394752D01*
X84146128Y-143398407D01*
X84303698Y-143542052D01*
X84484981Y-143654298D01*
X84683802Y-143731321D01*
X84893390Y-143770500D01*
X85102027Y-143770500D01*
X85106610Y-143770500D01*
X85316198Y-143731321D01*
X85515019Y-143654298D01*
X85696302Y-143542052D01*
X85853872Y-143398407D01*
X85982366Y-143228255D01*
X86077405Y-143037389D01*
X86135756Y-142832310D01*
X86155429Y-142620000D01*
X86384571Y-142620000D01*
X86404244Y-142832310D01*
X86405493Y-142836699D01*
X86405494Y-142836705D01*
X86461341Y-143032984D01*
X86461343Y-143032990D01*
X86462595Y-143037389D01*
X86557634Y-143228255D01*
X86560396Y-143231912D01*
X86683365Y-143394749D01*
X86683368Y-143394752D01*
X86686128Y-143398407D01*
X86843698Y-143542052D01*
X87024981Y-143654298D01*
X87223802Y-143731321D01*
X87433390Y-143770500D01*
X87642027Y-143770500D01*
X87646610Y-143770500D01*
X87856198Y-143731321D01*
X88055019Y-143654298D01*
X88236302Y-143542052D01*
X88393872Y-143398407D01*
X88522366Y-143228255D01*
X88617405Y-143037389D01*
X88675756Y-142832310D01*
X88695429Y-142620000D01*
X88675756Y-142407690D01*
X88617405Y-142202611D01*
X88522366Y-142011745D01*
X88393872Y-141841593D01*
X88236302Y-141697948D01*
X88232413Y-141695540D01*
X88232409Y-141695537D01*
X88121643Y-141626954D01*
X88055019Y-141585702D01*
X88014029Y-141569822D01*
X87860467Y-141510332D01*
X87860459Y-141510329D01*
X87856198Y-141508679D01*
X87851694Y-141507837D01*
X87651116Y-141470342D01*
X87651112Y-141470341D01*
X87646610Y-141469500D01*
X87433390Y-141469500D01*
X87428888Y-141470341D01*
X87428883Y-141470342D01*
X87228305Y-141507837D01*
X87228302Y-141507837D01*
X87223802Y-141508679D01*
X87219543Y-141510328D01*
X87219532Y-141510332D01*
X87029250Y-141584048D01*
X87029248Y-141584048D01*
X87024981Y-141585702D01*
X87021087Y-141588112D01*
X87021085Y-141588114D01*
X86847590Y-141695537D01*
X86847581Y-141695543D01*
X86843698Y-141697948D01*
X86840323Y-141701024D01*
X86840316Y-141701030D01*
X86689512Y-141838507D01*
X86689506Y-141838513D01*
X86686128Y-141841593D01*
X86683372Y-141845241D01*
X86683365Y-141845250D01*
X86560396Y-142008087D01*
X86557634Y-142011745D01*
X86555595Y-142015838D01*
X86555591Y-142015846D01*
X86464637Y-142198509D01*
X86464635Y-142198513D01*
X86462595Y-142202611D01*
X86461344Y-142207005D01*
X86461341Y-142207015D01*
X86405494Y-142403294D01*
X86405492Y-142403302D01*
X86404244Y-142407690D01*
X86384571Y-142620000D01*
X86155429Y-142620000D01*
X86135756Y-142407690D01*
X86077405Y-142202611D01*
X85982366Y-142011745D01*
X85853872Y-141841593D01*
X85696302Y-141697948D01*
X85692413Y-141695540D01*
X85692409Y-141695537D01*
X85581643Y-141626954D01*
X85515019Y-141585702D01*
X85474029Y-141569822D01*
X85320467Y-141510332D01*
X85320459Y-141510329D01*
X85316198Y-141508679D01*
X85311694Y-141507837D01*
X85111116Y-141470342D01*
X85111112Y-141470341D01*
X85106610Y-141469500D01*
X84893390Y-141469500D01*
X84888888Y-141470341D01*
X84888883Y-141470342D01*
X84688305Y-141507837D01*
X84688302Y-141507837D01*
X84683802Y-141508679D01*
X84679543Y-141510328D01*
X84679532Y-141510332D01*
X84489250Y-141584048D01*
X84489248Y-141584048D01*
X84484981Y-141585702D01*
X84481087Y-141588112D01*
X84481085Y-141588114D01*
X84307590Y-141695537D01*
X84307581Y-141695543D01*
X84303698Y-141697948D01*
X84300323Y-141701024D01*
X84300316Y-141701030D01*
X84149512Y-141838507D01*
X84149506Y-141838513D01*
X84146128Y-141841593D01*
X84143372Y-141845241D01*
X84143365Y-141845250D01*
X84020396Y-142008087D01*
X84017634Y-142011745D01*
X84015595Y-142015838D01*
X84015591Y-142015846D01*
X83924637Y-142198509D01*
X83924635Y-142198513D01*
X83922595Y-142202611D01*
X83921344Y-142207005D01*
X83921341Y-142207015D01*
X83865494Y-142403294D01*
X83865492Y-142403302D01*
X83864244Y-142407690D01*
X83844571Y-142620000D01*
X76000500Y-142620000D01*
X76000500Y-140193749D01*
X83855613Y-140193749D01*
X83864316Y-140287665D01*
X83865989Y-140296613D01*
X83921809Y-140492803D01*
X83925105Y-140501309D01*
X84016018Y-140683889D01*
X84020823Y-140691649D01*
X84143736Y-140854411D01*
X84149883Y-140861154D01*
X84300619Y-140998569D01*
X84307889Y-141004059D01*
X84481315Y-141111439D01*
X84489472Y-141115501D01*
X84679669Y-141189184D01*
X84688442Y-141191679D01*
X84888930Y-141229157D01*
X84889807Y-141229238D01*
X84897245Y-141227245D01*
X84900000Y-141216967D01*
X85100000Y-141216967D01*
X85102754Y-141227245D01*
X85110192Y-141229238D01*
X85111069Y-141229157D01*
X85311557Y-141191679D01*
X85320330Y-141189184D01*
X85510527Y-141115501D01*
X85518684Y-141111439D01*
X85692110Y-141004059D01*
X85699380Y-140998569D01*
X85850116Y-140861154D01*
X85856263Y-140854411D01*
X85979176Y-140691649D01*
X85983981Y-140683889D01*
X86074894Y-140501309D01*
X86078190Y-140492803D01*
X86134010Y-140296613D01*
X86135683Y-140287665D01*
X86144386Y-140193749D01*
X86395613Y-140193749D01*
X86404316Y-140287665D01*
X86405989Y-140296613D01*
X86461809Y-140492803D01*
X86465105Y-140501309D01*
X86556018Y-140683889D01*
X86560823Y-140691649D01*
X86683736Y-140854411D01*
X86689883Y-140861154D01*
X86840619Y-140998569D01*
X86847889Y-141004059D01*
X87021315Y-141111439D01*
X87029472Y-141115501D01*
X87219669Y-141189184D01*
X87228442Y-141191679D01*
X87428930Y-141229157D01*
X87429807Y-141229238D01*
X87437245Y-141227245D01*
X87440000Y-141216967D01*
X87640000Y-141216967D01*
X87642754Y-141227245D01*
X87650192Y-141229238D01*
X87651069Y-141229157D01*
X87851557Y-141191679D01*
X87860330Y-141189184D01*
X88050527Y-141115501D01*
X88058684Y-141111439D01*
X88232110Y-141004059D01*
X88239380Y-140998569D01*
X88390116Y-140861154D01*
X88396263Y-140854411D01*
X88519176Y-140691649D01*
X88523981Y-140683889D01*
X88614894Y-140501309D01*
X88618190Y-140492803D01*
X88674010Y-140296613D01*
X88675683Y-140287665D01*
X88684386Y-140193749D01*
X88682376Y-140182995D01*
X88671849Y-140180000D01*
X87653033Y-140180000D01*
X87642754Y-140182754D01*
X87640000Y-140193033D01*
X87640000Y-141216967D01*
X87440000Y-141216967D01*
X87440000Y-140193033D01*
X87437245Y-140182754D01*
X87426967Y-140180000D01*
X86408151Y-140180000D01*
X86397623Y-140182995D01*
X86395613Y-140193749D01*
X86144386Y-140193749D01*
X86142376Y-140182995D01*
X86131849Y-140180000D01*
X85113033Y-140180000D01*
X85102754Y-140182754D01*
X85100000Y-140193033D01*
X85100000Y-141216967D01*
X84900000Y-141216967D01*
X84900000Y-140193033D01*
X84897245Y-140182754D01*
X84886967Y-140180000D01*
X83868151Y-140180000D01*
X83857623Y-140182995D01*
X83855613Y-140193749D01*
X76000500Y-140193749D01*
X76000500Y-139966250D01*
X83855613Y-139966250D01*
X83857623Y-139977004D01*
X83868151Y-139980000D01*
X84886967Y-139980000D01*
X84897245Y-139977245D01*
X84900000Y-139966967D01*
X85100000Y-139966967D01*
X85102754Y-139977245D01*
X85113033Y-139980000D01*
X86131849Y-139980000D01*
X86142376Y-139977004D01*
X86144386Y-139966250D01*
X86395613Y-139966250D01*
X86397623Y-139977004D01*
X86408151Y-139980000D01*
X87426967Y-139980000D01*
X87437245Y-139977245D01*
X87440000Y-139966967D01*
X87640000Y-139966967D01*
X87642754Y-139977245D01*
X87653033Y-139980000D01*
X88671849Y-139980000D01*
X88682376Y-139977004D01*
X88684386Y-139966250D01*
X88675683Y-139872334D01*
X88674010Y-139863386D01*
X88618190Y-139667196D01*
X88614894Y-139658690D01*
X88523981Y-139476110D01*
X88519176Y-139468350D01*
X88396263Y-139305588D01*
X88390116Y-139298845D01*
X88239380Y-139161430D01*
X88232110Y-139155940D01*
X88058684Y-139048560D01*
X88050527Y-139044498D01*
X87860330Y-138970815D01*
X87851557Y-138968320D01*
X87651069Y-138930842D01*
X87650192Y-138930761D01*
X87642754Y-138932754D01*
X87640000Y-138943033D01*
X87640000Y-139966967D01*
X87440000Y-139966967D01*
X87440000Y-138943033D01*
X87437245Y-138932754D01*
X87429807Y-138930761D01*
X87428930Y-138930842D01*
X87228442Y-138968320D01*
X87219669Y-138970815D01*
X87029472Y-139044498D01*
X87021315Y-139048560D01*
X86847889Y-139155940D01*
X86840619Y-139161430D01*
X86689883Y-139298845D01*
X86683736Y-139305588D01*
X86560823Y-139468350D01*
X86556018Y-139476110D01*
X86465105Y-139658690D01*
X86461809Y-139667196D01*
X86405989Y-139863386D01*
X86404316Y-139872334D01*
X86395613Y-139966250D01*
X86144386Y-139966250D01*
X86135683Y-139872334D01*
X86134010Y-139863386D01*
X86078190Y-139667196D01*
X86074894Y-139658690D01*
X85983981Y-139476110D01*
X85979176Y-139468350D01*
X85856263Y-139305588D01*
X85850116Y-139298845D01*
X85699380Y-139161430D01*
X85692110Y-139155940D01*
X85518684Y-139048560D01*
X85510527Y-139044498D01*
X85320330Y-138970815D01*
X85311557Y-138968320D01*
X85111069Y-138930842D01*
X85110192Y-138930761D01*
X85102754Y-138932754D01*
X85100000Y-138943033D01*
X85100000Y-139966967D01*
X84900000Y-139966967D01*
X84900000Y-138943033D01*
X84897245Y-138932754D01*
X84889807Y-138930761D01*
X84888930Y-138930842D01*
X84688442Y-138968320D01*
X84679669Y-138970815D01*
X84489472Y-139044498D01*
X84481315Y-139048560D01*
X84307889Y-139155940D01*
X84300619Y-139161430D01*
X84149883Y-139298845D01*
X84143736Y-139305588D01*
X84020823Y-139468350D01*
X84016018Y-139476110D01*
X83925105Y-139658690D01*
X83921809Y-139667196D01*
X83865989Y-139863386D01*
X83864316Y-139872334D01*
X83855613Y-139966250D01*
X76000500Y-139966250D01*
X76000500Y-137540000D01*
X83844571Y-137540000D01*
X83864244Y-137752310D01*
X83865493Y-137756699D01*
X83865494Y-137756705D01*
X83921341Y-137952984D01*
X83921343Y-137952990D01*
X83922595Y-137957389D01*
X84017634Y-138148255D01*
X84020396Y-138151912D01*
X84143365Y-138314749D01*
X84143368Y-138314752D01*
X84146128Y-138318407D01*
X84303698Y-138462052D01*
X84484981Y-138574298D01*
X84683802Y-138651321D01*
X84893390Y-138690500D01*
X85102027Y-138690500D01*
X85106610Y-138690500D01*
X85316198Y-138651321D01*
X85515019Y-138574298D01*
X85696302Y-138462052D01*
X85853872Y-138318407D01*
X85982366Y-138148255D01*
X86077405Y-137957389D01*
X86135756Y-137752310D01*
X86155429Y-137540000D01*
X86384571Y-137540000D01*
X86404244Y-137752310D01*
X86405493Y-137756699D01*
X86405494Y-137756705D01*
X86461341Y-137952984D01*
X86461343Y-137952990D01*
X86462595Y-137957389D01*
X86557634Y-138148255D01*
X86560396Y-138151912D01*
X86683365Y-138314749D01*
X86683368Y-138314752D01*
X86686128Y-138318407D01*
X86843698Y-138462052D01*
X87024981Y-138574298D01*
X87223802Y-138651321D01*
X87433390Y-138690500D01*
X87642027Y-138690500D01*
X87646610Y-138690500D01*
X87856198Y-138651321D01*
X88055019Y-138574298D01*
X88236302Y-138462052D01*
X88393872Y-138318407D01*
X88522366Y-138148255D01*
X88617405Y-137957389D01*
X88675756Y-137752310D01*
X88695429Y-137540000D01*
X88675756Y-137327690D01*
X88617405Y-137122611D01*
X88522366Y-136931745D01*
X88393872Y-136761593D01*
X88236302Y-136617948D01*
X88232413Y-136615540D01*
X88232409Y-136615537D01*
X88121643Y-136546954D01*
X88055019Y-136505702D01*
X88014029Y-136489822D01*
X87860467Y-136430332D01*
X87860459Y-136430329D01*
X87856198Y-136428679D01*
X87851694Y-136427837D01*
X87651116Y-136390342D01*
X87651112Y-136390341D01*
X87646610Y-136389500D01*
X87433390Y-136389500D01*
X87428888Y-136390341D01*
X87428883Y-136390342D01*
X87228305Y-136427837D01*
X87228302Y-136427837D01*
X87223802Y-136428679D01*
X87219543Y-136430328D01*
X87219532Y-136430332D01*
X87029250Y-136504048D01*
X87029248Y-136504048D01*
X87024981Y-136505702D01*
X87021087Y-136508112D01*
X87021085Y-136508114D01*
X86847590Y-136615537D01*
X86847581Y-136615543D01*
X86843698Y-136617948D01*
X86840323Y-136621024D01*
X86840316Y-136621030D01*
X86689512Y-136758507D01*
X86689506Y-136758513D01*
X86686128Y-136761593D01*
X86683372Y-136765241D01*
X86683365Y-136765250D01*
X86560396Y-136928087D01*
X86557634Y-136931745D01*
X86555595Y-136935838D01*
X86555591Y-136935846D01*
X86464637Y-137118509D01*
X86464635Y-137118513D01*
X86462595Y-137122611D01*
X86461344Y-137127005D01*
X86461341Y-137127015D01*
X86405494Y-137323294D01*
X86405492Y-137323302D01*
X86404244Y-137327690D01*
X86384571Y-137540000D01*
X86155429Y-137540000D01*
X86135756Y-137327690D01*
X86077405Y-137122611D01*
X85982366Y-136931745D01*
X85853872Y-136761593D01*
X85696302Y-136617948D01*
X85692413Y-136615540D01*
X85692409Y-136615537D01*
X85581643Y-136546954D01*
X85515019Y-136505702D01*
X85474029Y-136489822D01*
X85320467Y-136430332D01*
X85320459Y-136430329D01*
X85316198Y-136428679D01*
X85311694Y-136427837D01*
X85111116Y-136390342D01*
X85111112Y-136390341D01*
X85106610Y-136389500D01*
X84893390Y-136389500D01*
X84888888Y-136390341D01*
X84888883Y-136390342D01*
X84688305Y-136427837D01*
X84688302Y-136427837D01*
X84683802Y-136428679D01*
X84679543Y-136430328D01*
X84679532Y-136430332D01*
X84489250Y-136504048D01*
X84489248Y-136504048D01*
X84484981Y-136505702D01*
X84481087Y-136508112D01*
X84481085Y-136508114D01*
X84307590Y-136615537D01*
X84307581Y-136615543D01*
X84303698Y-136617948D01*
X84300323Y-136621024D01*
X84300316Y-136621030D01*
X84149512Y-136758507D01*
X84149506Y-136758513D01*
X84146128Y-136761593D01*
X84143372Y-136765241D01*
X84143365Y-136765250D01*
X84020396Y-136928087D01*
X84017634Y-136931745D01*
X84015595Y-136935838D01*
X84015591Y-136935846D01*
X83924637Y-137118509D01*
X83924635Y-137118513D01*
X83922595Y-137122611D01*
X83921344Y-137127005D01*
X83921341Y-137127015D01*
X83865494Y-137323294D01*
X83865492Y-137323302D01*
X83864244Y-137327690D01*
X83844571Y-137540000D01*
X76000500Y-137540000D01*
X76000500Y-135000000D01*
X83844571Y-135000000D01*
X83864244Y-135212310D01*
X83865493Y-135216699D01*
X83865494Y-135216705D01*
X83921341Y-135412984D01*
X83921343Y-135412990D01*
X83922595Y-135417389D01*
X84017634Y-135608255D01*
X84020396Y-135611912D01*
X84143365Y-135774749D01*
X84143368Y-135774752D01*
X84146128Y-135778407D01*
X84303698Y-135922052D01*
X84484981Y-136034298D01*
X84683802Y-136111321D01*
X84893390Y-136150500D01*
X85102027Y-136150500D01*
X85106610Y-136150500D01*
X85316198Y-136111321D01*
X85515019Y-136034298D01*
X85696302Y-135922052D01*
X85853872Y-135778407D01*
X85982366Y-135608255D01*
X86077405Y-135417389D01*
X86135756Y-135212310D01*
X86155429Y-135000000D01*
X86384571Y-135000000D01*
X86404244Y-135212310D01*
X86405493Y-135216699D01*
X86405494Y-135216705D01*
X86461341Y-135412984D01*
X86461343Y-135412990D01*
X86462595Y-135417389D01*
X86557634Y-135608255D01*
X86560396Y-135611912D01*
X86683365Y-135774749D01*
X86683368Y-135774752D01*
X86686128Y-135778407D01*
X86843698Y-135922052D01*
X87024981Y-136034298D01*
X87223802Y-136111321D01*
X87433390Y-136150500D01*
X87642027Y-136150500D01*
X87646610Y-136150500D01*
X87856198Y-136111321D01*
X88055019Y-136034298D01*
X88236302Y-135922052D01*
X88393872Y-135778407D01*
X88522366Y-135608255D01*
X88617405Y-135417389D01*
X88675756Y-135212310D01*
X88695429Y-135000000D01*
X88675756Y-134787690D01*
X88617405Y-134582611D01*
X88522366Y-134391745D01*
X88393872Y-134221593D01*
X88236302Y-134077948D01*
X88232413Y-134075540D01*
X88232409Y-134075537D01*
X88121643Y-134006954D01*
X88055019Y-133965702D01*
X88014029Y-133949822D01*
X87860467Y-133890332D01*
X87860459Y-133890329D01*
X87856198Y-133888679D01*
X87851694Y-133887837D01*
X87651116Y-133850342D01*
X87651112Y-133850341D01*
X87646610Y-133849500D01*
X87433390Y-133849500D01*
X87428888Y-133850341D01*
X87428883Y-133850342D01*
X87228305Y-133887837D01*
X87228302Y-133887837D01*
X87223802Y-133888679D01*
X87219543Y-133890328D01*
X87219532Y-133890332D01*
X87029250Y-133964048D01*
X87029248Y-133964048D01*
X87024981Y-133965702D01*
X87021087Y-133968112D01*
X87021085Y-133968114D01*
X86847590Y-134075537D01*
X86847581Y-134075543D01*
X86843698Y-134077948D01*
X86840323Y-134081024D01*
X86840316Y-134081030D01*
X86689512Y-134218507D01*
X86689506Y-134218513D01*
X86686128Y-134221593D01*
X86683372Y-134225241D01*
X86683365Y-134225250D01*
X86560396Y-134388087D01*
X86557634Y-134391745D01*
X86555595Y-134395838D01*
X86555591Y-134395846D01*
X86464637Y-134578509D01*
X86464635Y-134578513D01*
X86462595Y-134582611D01*
X86461344Y-134587005D01*
X86461341Y-134587015D01*
X86405494Y-134783294D01*
X86405492Y-134783302D01*
X86404244Y-134787690D01*
X86384571Y-135000000D01*
X86155429Y-135000000D01*
X86135756Y-134787690D01*
X86077405Y-134582611D01*
X85982366Y-134391745D01*
X85853872Y-134221593D01*
X85696302Y-134077948D01*
X85692413Y-134075540D01*
X85692409Y-134075537D01*
X85581643Y-134006954D01*
X85515019Y-133965702D01*
X85474029Y-133949822D01*
X85320467Y-133890332D01*
X85320459Y-133890329D01*
X85316198Y-133888679D01*
X85311694Y-133887837D01*
X85111116Y-133850342D01*
X85111112Y-133850341D01*
X85106610Y-133849500D01*
X84893390Y-133849500D01*
X84888888Y-133850341D01*
X84888883Y-133850342D01*
X84688305Y-133887837D01*
X84688302Y-133887837D01*
X84683802Y-133888679D01*
X84679543Y-133890328D01*
X84679532Y-133890332D01*
X84489250Y-133964048D01*
X84489248Y-133964048D01*
X84484981Y-133965702D01*
X84481087Y-133968112D01*
X84481085Y-133968114D01*
X84307590Y-134075537D01*
X84307581Y-134075543D01*
X84303698Y-134077948D01*
X84300323Y-134081024D01*
X84300316Y-134081030D01*
X84149512Y-134218507D01*
X84149506Y-134218513D01*
X84146128Y-134221593D01*
X84143372Y-134225241D01*
X84143365Y-134225250D01*
X84020396Y-134388087D01*
X84017634Y-134391745D01*
X84015595Y-134395838D01*
X84015591Y-134395846D01*
X83924637Y-134578509D01*
X83924635Y-134578513D01*
X83922595Y-134582611D01*
X83921344Y-134587005D01*
X83921341Y-134587015D01*
X83865494Y-134783294D01*
X83865492Y-134783302D01*
X83864244Y-134787690D01*
X83844571Y-135000000D01*
X76000500Y-135000000D01*
X76000500Y-132460000D01*
X83844571Y-132460000D01*
X83844993Y-132464554D01*
X83863813Y-132667665D01*
X83864244Y-132672310D01*
X83865493Y-132676699D01*
X83865494Y-132676705D01*
X83921341Y-132872984D01*
X83921343Y-132872990D01*
X83922595Y-132877389D01*
X84017634Y-133068255D01*
X84020396Y-133071912D01*
X84143365Y-133234749D01*
X84143368Y-133234752D01*
X84146128Y-133238407D01*
X84303698Y-133382052D01*
X84484981Y-133494298D01*
X84642812Y-133555441D01*
X84678285Y-133569184D01*
X84683802Y-133571321D01*
X84893390Y-133610500D01*
X85102027Y-133610500D01*
X85106610Y-133610500D01*
X85316198Y-133571321D01*
X85515019Y-133494298D01*
X85696302Y-133382052D01*
X85853872Y-133238407D01*
X85982366Y-133068255D01*
X86077405Y-132877389D01*
X86135756Y-132672310D01*
X86144889Y-132573749D01*
X86395613Y-132573749D01*
X86404316Y-132667665D01*
X86405989Y-132676613D01*
X86461809Y-132872803D01*
X86465105Y-132881309D01*
X86556018Y-133063889D01*
X86560823Y-133071649D01*
X86683736Y-133234411D01*
X86689883Y-133241154D01*
X86840619Y-133378569D01*
X86847889Y-133384059D01*
X87021315Y-133491439D01*
X87029472Y-133495501D01*
X87219669Y-133569184D01*
X87228442Y-133571679D01*
X87428930Y-133609157D01*
X87429807Y-133609238D01*
X87437245Y-133607245D01*
X87440000Y-133596967D01*
X87640000Y-133596967D01*
X87642754Y-133607245D01*
X87650192Y-133609238D01*
X87651069Y-133609157D01*
X87851557Y-133571679D01*
X87860330Y-133569184D01*
X88050527Y-133495501D01*
X88058684Y-133491439D01*
X88232110Y-133384059D01*
X88239380Y-133378569D01*
X88390116Y-133241154D01*
X88396263Y-133234411D01*
X88519176Y-133071649D01*
X88523981Y-133063889D01*
X88614894Y-132881309D01*
X88618190Y-132872803D01*
X88674010Y-132676613D01*
X88675683Y-132667665D01*
X88684386Y-132573749D01*
X88682376Y-132562995D01*
X88671849Y-132560000D01*
X87653033Y-132560000D01*
X87642754Y-132562754D01*
X87640000Y-132573033D01*
X87640000Y-133596967D01*
X87440000Y-133596967D01*
X87440000Y-132573033D01*
X87437245Y-132562754D01*
X87426967Y-132560000D01*
X86408151Y-132560000D01*
X86397623Y-132562995D01*
X86395613Y-132573749D01*
X86144889Y-132573749D01*
X86155429Y-132460000D01*
X86144889Y-132346250D01*
X86395613Y-132346250D01*
X86397623Y-132357004D01*
X86408151Y-132360000D01*
X87426967Y-132360000D01*
X87437245Y-132357245D01*
X87440000Y-132346967D01*
X87640000Y-132346967D01*
X87642754Y-132357245D01*
X87653033Y-132360000D01*
X88671849Y-132360000D01*
X88682376Y-132357004D01*
X88684386Y-132346250D01*
X88675683Y-132252334D01*
X88674010Y-132243386D01*
X88618190Y-132047196D01*
X88614894Y-132038690D01*
X88523981Y-131856110D01*
X88519176Y-131848350D01*
X88396263Y-131685588D01*
X88390116Y-131678845D01*
X88239380Y-131541430D01*
X88232110Y-131535940D01*
X88058684Y-131428560D01*
X88050527Y-131424498D01*
X87860330Y-131350815D01*
X87851557Y-131348320D01*
X87651069Y-131310842D01*
X87650192Y-131310761D01*
X87642754Y-131312754D01*
X87640000Y-131323033D01*
X87640000Y-132346967D01*
X87440000Y-132346967D01*
X87440000Y-131323033D01*
X87437245Y-131312754D01*
X87429807Y-131310761D01*
X87428930Y-131310842D01*
X87228442Y-131348320D01*
X87219669Y-131350815D01*
X87029472Y-131424498D01*
X87021315Y-131428560D01*
X86847889Y-131535940D01*
X86840619Y-131541430D01*
X86689883Y-131678845D01*
X86683736Y-131685588D01*
X86560823Y-131848350D01*
X86556018Y-131856110D01*
X86465105Y-132038690D01*
X86461809Y-132047196D01*
X86405989Y-132243386D01*
X86404316Y-132252334D01*
X86395613Y-132346250D01*
X86144889Y-132346250D01*
X86135756Y-132247690D01*
X86077405Y-132042611D01*
X85982366Y-131851745D01*
X85853872Y-131681593D01*
X85696302Y-131537948D01*
X85692413Y-131535540D01*
X85692409Y-131535537D01*
X85581643Y-131466954D01*
X85515019Y-131425702D01*
X85474029Y-131409822D01*
X85320467Y-131350332D01*
X85320459Y-131350329D01*
X85316198Y-131348679D01*
X85311694Y-131347837D01*
X85111116Y-131310342D01*
X85111112Y-131310341D01*
X85106610Y-131309500D01*
X84893390Y-131309500D01*
X84888888Y-131310341D01*
X84888883Y-131310342D01*
X84688305Y-131347837D01*
X84688302Y-131347837D01*
X84683802Y-131348679D01*
X84679543Y-131350328D01*
X84679532Y-131350332D01*
X84489250Y-131424048D01*
X84489248Y-131424048D01*
X84484981Y-131425702D01*
X84481087Y-131428112D01*
X84481085Y-131428114D01*
X84307590Y-131535537D01*
X84307581Y-131535543D01*
X84303698Y-131537948D01*
X84300323Y-131541024D01*
X84300316Y-131541030D01*
X84149512Y-131678507D01*
X84149506Y-131678513D01*
X84146128Y-131681593D01*
X84143372Y-131685241D01*
X84143365Y-131685250D01*
X84020396Y-131848087D01*
X84017634Y-131851745D01*
X84015595Y-131855838D01*
X84015591Y-131855846D01*
X83924637Y-132038509D01*
X83924635Y-132038513D01*
X83922595Y-132042611D01*
X83921344Y-132047005D01*
X83921341Y-132047015D01*
X83865494Y-132243294D01*
X83865492Y-132243302D01*
X83864244Y-132247690D01*
X83863822Y-132252235D01*
X83863822Y-132252240D01*
X83855111Y-132346250D01*
X83844571Y-132460000D01*
X76000500Y-132460000D01*
X76000500Y-130033749D01*
X83855613Y-130033749D01*
X83864316Y-130127665D01*
X83865989Y-130136613D01*
X83921809Y-130332803D01*
X83925105Y-130341309D01*
X84016018Y-130523889D01*
X84020823Y-130531649D01*
X84143736Y-130694411D01*
X84149883Y-130701154D01*
X84300619Y-130838569D01*
X84307889Y-130844059D01*
X84481315Y-130951439D01*
X84489472Y-130955501D01*
X84679669Y-131029184D01*
X84688442Y-131031679D01*
X84888930Y-131069157D01*
X84889807Y-131069238D01*
X84897245Y-131067245D01*
X84900000Y-131056967D01*
X85100000Y-131056967D01*
X85102754Y-131067245D01*
X85110192Y-131069238D01*
X85111069Y-131069157D01*
X85311557Y-131031679D01*
X85320330Y-131029184D01*
X85510527Y-130955501D01*
X85518684Y-130951439D01*
X85692110Y-130844059D01*
X85699380Y-130838569D01*
X85850116Y-130701154D01*
X85856263Y-130694411D01*
X85979176Y-130531649D01*
X85983981Y-130523889D01*
X86074894Y-130341309D01*
X86078190Y-130332803D01*
X86134010Y-130136613D01*
X86135683Y-130127665D01*
X86144386Y-130033749D01*
X86395613Y-130033749D01*
X86404316Y-130127665D01*
X86405989Y-130136613D01*
X86461809Y-130332803D01*
X86465105Y-130341309D01*
X86556018Y-130523889D01*
X86560823Y-130531649D01*
X86683736Y-130694411D01*
X86689883Y-130701154D01*
X86840619Y-130838569D01*
X86847889Y-130844059D01*
X87021315Y-130951439D01*
X87029472Y-130955501D01*
X87219669Y-131029184D01*
X87228442Y-131031679D01*
X87428930Y-131069157D01*
X87429807Y-131069238D01*
X87437245Y-131067245D01*
X87440000Y-131056967D01*
X87640000Y-131056967D01*
X87642754Y-131067245D01*
X87650192Y-131069238D01*
X87651069Y-131069157D01*
X87851557Y-131031679D01*
X87860330Y-131029184D01*
X88050527Y-130955501D01*
X88058684Y-130951439D01*
X88232110Y-130844059D01*
X88239380Y-130838569D01*
X88390116Y-130701154D01*
X88396263Y-130694411D01*
X88519176Y-130531649D01*
X88523981Y-130523889D01*
X88614894Y-130341309D01*
X88618190Y-130332803D01*
X88674010Y-130136613D01*
X88675683Y-130127665D01*
X88684386Y-130033749D01*
X88682376Y-130022995D01*
X88671849Y-130020000D01*
X87653033Y-130020000D01*
X87642754Y-130022754D01*
X87640000Y-130033033D01*
X87640000Y-131056967D01*
X87440000Y-131056967D01*
X87440000Y-130033033D01*
X87437245Y-130022754D01*
X87426967Y-130020000D01*
X86408151Y-130020000D01*
X86397623Y-130022995D01*
X86395613Y-130033749D01*
X86144386Y-130033749D01*
X86142376Y-130022995D01*
X86131849Y-130020000D01*
X85113033Y-130020000D01*
X85102754Y-130022754D01*
X85100000Y-130033033D01*
X85100000Y-131056967D01*
X84900000Y-131056967D01*
X84900000Y-130033033D01*
X84897245Y-130022754D01*
X84886967Y-130020000D01*
X83868151Y-130020000D01*
X83857623Y-130022995D01*
X83855613Y-130033749D01*
X76000500Y-130033749D01*
X76000500Y-129806250D01*
X83855613Y-129806250D01*
X83857623Y-129817004D01*
X83868151Y-129820000D01*
X84886967Y-129820000D01*
X84897245Y-129817245D01*
X84900000Y-129806967D01*
X85100000Y-129806967D01*
X85102754Y-129817245D01*
X85113033Y-129820000D01*
X86131849Y-129820000D01*
X86142376Y-129817004D01*
X86144386Y-129806250D01*
X86395613Y-129806250D01*
X86397623Y-129817004D01*
X86408151Y-129820000D01*
X87426967Y-129820000D01*
X87437245Y-129817245D01*
X87440000Y-129806967D01*
X87640000Y-129806967D01*
X87642754Y-129817245D01*
X87653033Y-129820000D01*
X88671849Y-129820000D01*
X88682376Y-129817004D01*
X88684386Y-129806250D01*
X88675683Y-129712334D01*
X88674010Y-129703386D01*
X88618190Y-129507196D01*
X88614894Y-129498690D01*
X88523981Y-129316110D01*
X88519176Y-129308350D01*
X88396263Y-129145588D01*
X88390116Y-129138845D01*
X88239380Y-129001430D01*
X88232110Y-128995940D01*
X88058684Y-128888560D01*
X88050527Y-128884498D01*
X87860330Y-128810815D01*
X87851557Y-128808320D01*
X87651069Y-128770842D01*
X87650192Y-128770761D01*
X87642754Y-128772754D01*
X87640000Y-128783033D01*
X87640000Y-129806967D01*
X87440000Y-129806967D01*
X87440000Y-128783033D01*
X87437245Y-128772754D01*
X87429807Y-128770761D01*
X87428930Y-128770842D01*
X87228442Y-128808320D01*
X87219669Y-128810815D01*
X87029472Y-128884498D01*
X87021315Y-128888560D01*
X86847889Y-128995940D01*
X86840619Y-129001430D01*
X86689883Y-129138845D01*
X86683736Y-129145588D01*
X86560823Y-129308350D01*
X86556018Y-129316110D01*
X86465105Y-129498690D01*
X86461809Y-129507196D01*
X86405989Y-129703386D01*
X86404316Y-129712334D01*
X86395613Y-129806250D01*
X86144386Y-129806250D01*
X86135683Y-129712334D01*
X86134010Y-129703386D01*
X86078190Y-129507196D01*
X86074894Y-129498690D01*
X85983981Y-129316110D01*
X85979176Y-129308350D01*
X85856263Y-129145588D01*
X85850116Y-129138845D01*
X85699380Y-129001430D01*
X85692110Y-128995940D01*
X85518684Y-128888560D01*
X85510527Y-128884498D01*
X85320330Y-128810815D01*
X85311557Y-128808320D01*
X85111069Y-128770842D01*
X85110192Y-128770761D01*
X85102754Y-128772754D01*
X85100000Y-128783033D01*
X85100000Y-129806967D01*
X84900000Y-129806967D01*
X84900000Y-128783033D01*
X84897245Y-128772754D01*
X84889807Y-128770761D01*
X84888930Y-128770842D01*
X84688442Y-128808320D01*
X84679669Y-128810815D01*
X84489472Y-128884498D01*
X84481315Y-128888560D01*
X84307889Y-128995940D01*
X84300619Y-129001430D01*
X84149883Y-129138845D01*
X84143736Y-129145588D01*
X84020823Y-129308350D01*
X84016018Y-129316110D01*
X83925105Y-129498690D01*
X83921809Y-129507196D01*
X83865989Y-129703386D01*
X83864316Y-129712334D01*
X83855613Y-129806250D01*
X76000500Y-129806250D01*
X76000500Y-127493749D01*
X83855613Y-127493749D01*
X83864316Y-127587665D01*
X83865989Y-127596613D01*
X83921809Y-127792803D01*
X83925105Y-127801309D01*
X84016018Y-127983889D01*
X84020823Y-127991649D01*
X84143736Y-128154411D01*
X84149883Y-128161154D01*
X84300619Y-128298569D01*
X84307889Y-128304059D01*
X84481315Y-128411439D01*
X84489472Y-128415501D01*
X84679669Y-128489184D01*
X84688442Y-128491679D01*
X84888930Y-128529157D01*
X84889807Y-128529238D01*
X84897245Y-128527245D01*
X84900000Y-128516967D01*
X85100000Y-128516967D01*
X85102754Y-128527245D01*
X85110192Y-128529238D01*
X85111069Y-128529157D01*
X85311557Y-128491679D01*
X85320330Y-128489184D01*
X85510527Y-128415501D01*
X85518684Y-128411439D01*
X85692110Y-128304059D01*
X85699380Y-128298569D01*
X85850116Y-128161154D01*
X85856263Y-128154411D01*
X85979176Y-127991649D01*
X85983981Y-127983889D01*
X86074894Y-127801309D01*
X86078190Y-127792803D01*
X86134010Y-127596613D01*
X86135683Y-127587665D01*
X86144386Y-127493749D01*
X86395613Y-127493749D01*
X86404316Y-127587665D01*
X86405989Y-127596613D01*
X86461809Y-127792803D01*
X86465105Y-127801309D01*
X86556018Y-127983889D01*
X86560823Y-127991649D01*
X86683736Y-128154411D01*
X86689883Y-128161154D01*
X86840619Y-128298569D01*
X86847889Y-128304059D01*
X87021315Y-128411439D01*
X87029472Y-128415501D01*
X87219669Y-128489184D01*
X87228442Y-128491679D01*
X87428930Y-128529157D01*
X87429807Y-128529238D01*
X87437245Y-128527245D01*
X87440000Y-128516967D01*
X87640000Y-128516967D01*
X87642754Y-128527245D01*
X87650192Y-128529238D01*
X87651069Y-128529157D01*
X87851557Y-128491679D01*
X87860330Y-128489184D01*
X88050527Y-128415501D01*
X88058684Y-128411439D01*
X88232110Y-128304059D01*
X88239380Y-128298569D01*
X88390116Y-128161154D01*
X88396263Y-128154411D01*
X88519176Y-127991649D01*
X88523981Y-127983889D01*
X88614894Y-127801309D01*
X88618190Y-127792803D01*
X88674010Y-127596613D01*
X88675683Y-127587665D01*
X88684386Y-127493749D01*
X88682376Y-127482995D01*
X88671849Y-127480000D01*
X87653033Y-127480000D01*
X87642754Y-127482754D01*
X87640000Y-127493033D01*
X87640000Y-128516967D01*
X87440000Y-128516967D01*
X87440000Y-127493033D01*
X87437245Y-127482754D01*
X87426967Y-127480000D01*
X86408151Y-127480000D01*
X86397623Y-127482995D01*
X86395613Y-127493749D01*
X86144386Y-127493749D01*
X86142376Y-127482995D01*
X86131849Y-127480000D01*
X85113033Y-127480000D01*
X85102754Y-127482754D01*
X85100000Y-127493033D01*
X85100000Y-128516967D01*
X84900000Y-128516967D01*
X84900000Y-127493033D01*
X84897245Y-127482754D01*
X84886967Y-127480000D01*
X83868151Y-127480000D01*
X83857623Y-127482995D01*
X83855613Y-127493749D01*
X76000500Y-127493749D01*
X76000500Y-127266250D01*
X83855613Y-127266250D01*
X83857623Y-127277004D01*
X83868151Y-127280000D01*
X84886967Y-127280000D01*
X84897245Y-127277245D01*
X84900000Y-127266967D01*
X85100000Y-127266967D01*
X85102754Y-127277245D01*
X85113033Y-127280000D01*
X86131849Y-127280000D01*
X86142376Y-127277004D01*
X86144386Y-127266250D01*
X86395613Y-127266250D01*
X86397623Y-127277004D01*
X86408151Y-127280000D01*
X87426967Y-127280000D01*
X87437245Y-127277245D01*
X87440000Y-127266967D01*
X87640000Y-127266967D01*
X87642754Y-127277245D01*
X87653033Y-127280000D01*
X88671849Y-127280000D01*
X88682376Y-127277004D01*
X88684386Y-127266250D01*
X88675683Y-127172334D01*
X88674010Y-127163386D01*
X88618190Y-126967196D01*
X88614894Y-126958690D01*
X88523981Y-126776110D01*
X88519176Y-126768350D01*
X88396263Y-126605588D01*
X88390116Y-126598845D01*
X88239380Y-126461430D01*
X88232110Y-126455940D01*
X88058684Y-126348560D01*
X88050527Y-126344498D01*
X87860330Y-126270815D01*
X87851557Y-126268320D01*
X87651069Y-126230842D01*
X87650192Y-126230761D01*
X87642754Y-126232754D01*
X87640000Y-126243033D01*
X87640000Y-127266967D01*
X87440000Y-127266967D01*
X87440000Y-126243033D01*
X87437245Y-126232754D01*
X87429807Y-126230761D01*
X87428930Y-126230842D01*
X87228442Y-126268320D01*
X87219669Y-126270815D01*
X87029472Y-126344498D01*
X87021315Y-126348560D01*
X86847889Y-126455940D01*
X86840619Y-126461430D01*
X86689883Y-126598845D01*
X86683736Y-126605588D01*
X86560823Y-126768350D01*
X86556018Y-126776110D01*
X86465105Y-126958690D01*
X86461809Y-126967196D01*
X86405989Y-127163386D01*
X86404316Y-127172334D01*
X86395613Y-127266250D01*
X86144386Y-127266250D01*
X86135683Y-127172334D01*
X86134010Y-127163386D01*
X86078190Y-126967196D01*
X86074894Y-126958690D01*
X85983981Y-126776110D01*
X85979176Y-126768350D01*
X85856263Y-126605588D01*
X85850116Y-126598845D01*
X85699380Y-126461430D01*
X85692110Y-126455940D01*
X85518684Y-126348560D01*
X85510527Y-126344498D01*
X85320330Y-126270815D01*
X85311557Y-126268320D01*
X85111069Y-126230842D01*
X85110192Y-126230761D01*
X85102754Y-126232754D01*
X85100000Y-126243033D01*
X85100000Y-127266967D01*
X84900000Y-127266967D01*
X84900000Y-126243033D01*
X84897245Y-126232754D01*
X84889807Y-126230761D01*
X84888930Y-126230842D01*
X84688442Y-126268320D01*
X84679669Y-126270815D01*
X84489472Y-126344498D01*
X84481315Y-126348560D01*
X84307889Y-126455940D01*
X84300619Y-126461430D01*
X84149883Y-126598845D01*
X84143736Y-126605588D01*
X84020823Y-126768350D01*
X84016018Y-126776110D01*
X83925105Y-126958690D01*
X83921809Y-126967196D01*
X83865989Y-127163386D01*
X83864316Y-127172334D01*
X83855613Y-127266250D01*
X76000500Y-127266250D01*
X76000500Y-125732025D01*
X83849500Y-125732025D01*
X83849501Y-125734864D01*
X83849828Y-125737685D01*
X83849829Y-125737699D01*
X83851557Y-125752591D01*
X83852415Y-125759991D01*
X83897794Y-125862765D01*
X83977235Y-125942206D01*
X84080009Y-125987585D01*
X84105135Y-125990500D01*
X85894864Y-125990499D01*
X85919991Y-125987585D01*
X86022765Y-125942206D01*
X86102206Y-125862765D01*
X86147585Y-125759991D01*
X86150500Y-125734865D01*
X86150499Y-124840000D01*
X86384571Y-124840000D01*
X86404244Y-125052310D01*
X86405493Y-125056699D01*
X86405494Y-125056705D01*
X86461341Y-125252984D01*
X86461343Y-125252990D01*
X86462595Y-125257389D01*
X86464636Y-125261489D01*
X86464637Y-125261490D01*
X86514297Y-125361223D01*
X86557634Y-125448255D01*
X86560396Y-125451912D01*
X86683365Y-125614749D01*
X86683368Y-125614752D01*
X86686128Y-125618407D01*
X86689511Y-125621491D01*
X86689512Y-125621492D01*
X86810741Y-125732008D01*
X86843698Y-125762052D01*
X87024981Y-125874298D01*
X87223802Y-125951321D01*
X87433390Y-125990500D01*
X87642027Y-125990500D01*
X87646610Y-125990500D01*
X87856198Y-125951321D01*
X88055019Y-125874298D01*
X88236302Y-125762052D01*
X88393872Y-125618407D01*
X88522366Y-125448255D01*
X88617405Y-125257389D01*
X88675756Y-125052310D01*
X88695429Y-124840000D01*
X88682456Y-124700000D01*
X130894355Y-124700000D01*
X130895077Y-124705946D01*
X130914137Y-124862925D01*
X130914138Y-124862932D01*
X130914860Y-124868872D01*
X130975182Y-125027930D01*
X130978579Y-125032851D01*
X130978581Y-125032855D01*
X130988869Y-125047759D01*
X131071817Y-125167929D01*
X131199148Y-125280734D01*
X131349775Y-125359790D01*
X131514944Y-125400500D01*
X131679068Y-125400500D01*
X131685056Y-125400500D01*
X131850225Y-125359790D01*
X132000852Y-125280734D01*
X132128183Y-125167929D01*
X132224818Y-125027930D01*
X132285140Y-124868872D01*
X132305645Y-124700000D01*
X132285140Y-124531128D01*
X132224818Y-124372070D01*
X132128183Y-124232071D01*
X132000852Y-124119266D01*
X131932739Y-124083517D01*
X131855528Y-124042993D01*
X131855526Y-124042992D01*
X131850225Y-124040210D01*
X131844409Y-124038776D01*
X131844408Y-124038776D01*
X131690871Y-124000933D01*
X131690868Y-124000932D01*
X131685056Y-123999500D01*
X131514944Y-123999500D01*
X131509131Y-124000932D01*
X131509128Y-124000933D01*
X131355591Y-124038776D01*
X131355587Y-124038777D01*
X131349775Y-124040210D01*
X131344476Y-124042990D01*
X131344471Y-124042993D01*
X131204451Y-124116482D01*
X131204446Y-124116485D01*
X131199148Y-124119266D01*
X131194667Y-124123234D01*
X131194665Y-124123237D01*
X131076299Y-124228099D01*
X131076293Y-124228105D01*
X131071817Y-124232071D01*
X131068417Y-124236996D01*
X131068414Y-124237000D01*
X130978581Y-124367144D01*
X130978577Y-124367151D01*
X130975182Y-124372070D01*
X130973061Y-124377660D01*
X130973060Y-124377664D01*
X130916983Y-124525528D01*
X130916981Y-124525533D01*
X130914860Y-124531128D01*
X130914139Y-124537065D01*
X130914137Y-124537074D01*
X130895388Y-124691487D01*
X130894355Y-124700000D01*
X88682456Y-124700000D01*
X88675756Y-124627690D01*
X88617405Y-124422611D01*
X88522366Y-124231745D01*
X88435323Y-124116482D01*
X88396634Y-124065250D01*
X88396632Y-124065247D01*
X88393872Y-124061593D01*
X88269266Y-123947999D01*
X88239683Y-123921030D01*
X88239681Y-123921028D01*
X88236302Y-123917948D01*
X88232413Y-123915540D01*
X88232409Y-123915537D01*
X88073645Y-123817235D01*
X88055019Y-123805702D01*
X88014029Y-123789822D01*
X87860467Y-123730332D01*
X87860459Y-123730329D01*
X87856198Y-123728679D01*
X87851694Y-123727837D01*
X87651116Y-123690342D01*
X87651112Y-123690341D01*
X87646610Y-123689500D01*
X87433390Y-123689500D01*
X87428888Y-123690341D01*
X87428883Y-123690342D01*
X87228305Y-123727837D01*
X87228302Y-123727837D01*
X87223802Y-123728679D01*
X87219543Y-123730328D01*
X87219532Y-123730332D01*
X87029250Y-123804048D01*
X87029248Y-123804048D01*
X87024981Y-123805702D01*
X87021087Y-123808112D01*
X87021085Y-123808114D01*
X86847590Y-123915537D01*
X86847581Y-123915543D01*
X86843698Y-123917948D01*
X86840323Y-123921024D01*
X86840316Y-123921030D01*
X86689512Y-124058507D01*
X86689506Y-124058513D01*
X86686128Y-124061593D01*
X86683372Y-124065241D01*
X86683365Y-124065250D01*
X86582312Y-124199066D01*
X86557634Y-124231745D01*
X86555595Y-124235838D01*
X86555591Y-124235846D01*
X86464637Y-124418509D01*
X86464635Y-124418513D01*
X86462595Y-124422611D01*
X86461344Y-124427005D01*
X86461341Y-124427015D01*
X86405494Y-124623294D01*
X86405492Y-124623302D01*
X86404244Y-124627690D01*
X86403822Y-124632235D01*
X86403822Y-124632240D01*
X86385857Y-124826116D01*
X86384571Y-124840000D01*
X86150499Y-124840000D01*
X86150499Y-123945136D01*
X86147585Y-123920009D01*
X86102206Y-123817235D01*
X86022765Y-123737794D01*
X86014376Y-123734090D01*
X86014375Y-123734089D01*
X85926802Y-123695422D01*
X85926799Y-123695421D01*
X85919991Y-123692415D01*
X85912594Y-123691556D01*
X85912591Y-123691556D01*
X85897714Y-123689830D01*
X85897704Y-123689829D01*
X85894865Y-123689500D01*
X85892000Y-123689500D01*
X84107991Y-123689500D01*
X84107973Y-123689500D01*
X84105136Y-123689501D01*
X84102315Y-123689828D01*
X84102300Y-123689829D01*
X84087404Y-123691557D01*
X84087401Y-123691557D01*
X84080009Y-123692415D01*
X84073200Y-123695421D01*
X84073198Y-123695422D01*
X83985624Y-123734089D01*
X83985620Y-123734091D01*
X83977235Y-123737794D01*
X83970753Y-123744275D01*
X83970750Y-123744278D01*
X83904278Y-123810750D01*
X83904275Y-123810753D01*
X83897794Y-123817235D01*
X83894091Y-123825620D01*
X83894089Y-123825624D01*
X83855422Y-123913197D01*
X83855422Y-123913198D01*
X83852415Y-123920009D01*
X83851557Y-123927404D01*
X83851556Y-123927408D01*
X83849830Y-123942285D01*
X83849829Y-123942296D01*
X83849500Y-123945135D01*
X83849500Y-123947991D01*
X83849500Y-123947999D01*
X83849500Y-125732008D01*
X83849500Y-125732025D01*
X76000500Y-125732025D01*
X76000500Y-123500000D01*
X128794355Y-123500000D01*
X128795077Y-123505946D01*
X128814137Y-123662925D01*
X128814138Y-123662932D01*
X128814860Y-123668872D01*
X128816982Y-123674468D01*
X128816983Y-123674471D01*
X128871126Y-123817235D01*
X128875182Y-123827930D01*
X128878579Y-123832851D01*
X128878581Y-123832855D01*
X128935653Y-123915537D01*
X128971817Y-123967929D01*
X129099148Y-124080734D01*
X129249775Y-124159790D01*
X129414944Y-124200500D01*
X129579068Y-124200500D01*
X129585056Y-124200500D01*
X129750225Y-124159790D01*
X129900852Y-124080734D01*
X130028183Y-123967929D01*
X130124818Y-123827930D01*
X130185140Y-123668872D01*
X130205645Y-123500000D01*
X130185140Y-123331128D01*
X130124818Y-123172070D01*
X130028183Y-123032071D01*
X129900852Y-122919266D01*
X129750225Y-122840210D01*
X129744409Y-122838776D01*
X129744408Y-122838776D01*
X129590871Y-122800933D01*
X129590868Y-122800932D01*
X129585056Y-122799500D01*
X129414944Y-122799500D01*
X129409131Y-122800932D01*
X129409128Y-122800933D01*
X129255591Y-122838776D01*
X129255587Y-122838777D01*
X129249775Y-122840210D01*
X129244476Y-122842990D01*
X129244471Y-122842993D01*
X129104451Y-122916482D01*
X129104446Y-122916485D01*
X129099148Y-122919266D01*
X129094667Y-122923234D01*
X129094665Y-122923237D01*
X128976299Y-123028099D01*
X128976293Y-123028105D01*
X128971817Y-123032071D01*
X128968417Y-123036996D01*
X128968414Y-123037000D01*
X128878581Y-123167144D01*
X128878577Y-123167151D01*
X128875182Y-123172070D01*
X128873061Y-123177660D01*
X128873060Y-123177664D01*
X128816983Y-123325528D01*
X128816981Y-123325533D01*
X128814860Y-123331128D01*
X128814139Y-123337065D01*
X128814137Y-123337074D01*
X128795388Y-123491487D01*
X128794355Y-123500000D01*
X76000500Y-123500000D01*
X76000500Y-115273317D01*
X81672708Y-115273317D01*
X81676131Y-115371362D01*
X81676850Y-115378203D01*
X81725436Y-115653749D01*
X81727102Y-115660432D01*
X81813566Y-115926540D01*
X81816143Y-115932917D01*
X81938796Y-116184393D01*
X81942248Y-116190372D01*
X82098700Y-116422323D01*
X82102946Y-116427757D01*
X82290156Y-116635675D01*
X82295125Y-116640473D01*
X82509441Y-116820305D01*
X82515035Y-116824370D01*
X82752305Y-116972633D01*
X82758388Y-116975867D01*
X83013996Y-117089671D01*
X83020462Y-117092024D01*
X83289419Y-117169146D01*
X83296158Y-117170579D01*
X83573231Y-117209519D01*
X83580105Y-117210000D01*
X85356967Y-117210000D01*
X85367245Y-117207245D01*
X85370000Y-117196967D01*
X85570000Y-117196967D01*
X85572754Y-117207245D01*
X85583033Y-117210000D01*
X87289856Y-117210000D01*
X87293317Y-117209879D01*
X87502552Y-117195248D01*
X87509383Y-117194288D01*
X87783058Y-117136116D01*
X87789686Y-117134215D01*
X88052595Y-117038524D01*
X88058895Y-117035719D01*
X88305936Y-116904366D01*
X88311781Y-116900713D01*
X88538143Y-116736251D01*
X88543412Y-116731830D01*
X88744684Y-116537464D01*
X88749290Y-116532348D01*
X88921551Y-116311865D01*
X88925402Y-116306156D01*
X89065296Y-116063851D01*
X89068325Y-116057642D01*
X89173129Y-115798242D01*
X89175265Y-115791670D01*
X89242950Y-115520200D01*
X89244146Y-115513415D01*
X89245556Y-115500000D01*
X129794355Y-115500000D01*
X129795077Y-115505946D01*
X129814137Y-115662925D01*
X129814138Y-115662932D01*
X129814860Y-115668872D01*
X129816982Y-115674468D01*
X129816983Y-115674471D01*
X129866633Y-115805389D01*
X129875182Y-115827930D01*
X129878579Y-115832851D01*
X129878581Y-115832855D01*
X129883658Y-115840210D01*
X129971817Y-115967929D01*
X130099148Y-116080734D01*
X130249775Y-116159790D01*
X130414944Y-116200500D01*
X130579068Y-116200500D01*
X130585056Y-116200500D01*
X130750225Y-116159790D01*
X130805760Y-116130642D01*
X130863698Y-116120024D01*
X130917415Y-116144198D01*
X130947890Y-116194608D01*
X130944334Y-116253407D01*
X130916984Y-116325525D01*
X130916982Y-116325531D01*
X130914860Y-116331128D01*
X130914139Y-116337065D01*
X130914137Y-116337074D01*
X130903127Y-116427757D01*
X130894355Y-116500000D01*
X130895077Y-116505946D01*
X130914137Y-116662925D01*
X130914138Y-116662932D01*
X130914860Y-116668872D01*
X130916982Y-116674468D01*
X130916983Y-116674471D01*
X130940413Y-116736251D01*
X130975182Y-116827930D01*
X130978579Y-116832851D01*
X130978581Y-116832855D01*
X131025421Y-116900713D01*
X131071817Y-116967929D01*
X131076297Y-116971898D01*
X131076299Y-116971900D01*
X131080777Y-116975867D01*
X131199148Y-117080734D01*
X131349775Y-117159790D01*
X131514944Y-117200500D01*
X131679068Y-117200500D01*
X131685056Y-117200500D01*
X131850225Y-117159790D01*
X132000852Y-117080734D01*
X132128183Y-116967929D01*
X132224818Y-116827930D01*
X132285140Y-116668872D01*
X132305645Y-116500000D01*
X132285140Y-116331128D01*
X132224818Y-116172070D01*
X132128183Y-116032071D01*
X132000852Y-115919266D01*
X131995548Y-115916482D01*
X131855528Y-115842993D01*
X131855526Y-115842992D01*
X131850225Y-115840210D01*
X131844409Y-115838776D01*
X131844408Y-115838776D01*
X131690871Y-115800933D01*
X131690868Y-115800932D01*
X131685056Y-115799500D01*
X131514944Y-115799500D01*
X131509131Y-115800932D01*
X131509128Y-115800933D01*
X131355591Y-115838776D01*
X131355587Y-115838777D01*
X131349775Y-115840210D01*
X131344476Y-115842990D01*
X131344471Y-115842993D01*
X131294240Y-115869357D01*
X131236299Y-115879975D01*
X131182583Y-115855800D01*
X131152109Y-115805389D01*
X131155665Y-115746591D01*
X131185140Y-115668872D01*
X131205645Y-115500000D01*
X131185140Y-115331128D01*
X131124818Y-115172070D01*
X131028183Y-115032071D01*
X130900852Y-114919266D01*
X130750225Y-114840210D01*
X130744409Y-114838776D01*
X130744408Y-114838776D01*
X130590871Y-114800933D01*
X130590868Y-114800932D01*
X130585056Y-114799500D01*
X130414944Y-114799500D01*
X130409131Y-114800932D01*
X130409128Y-114800933D01*
X130255591Y-114838776D01*
X130255587Y-114838777D01*
X130249775Y-114840210D01*
X130244476Y-114842990D01*
X130244471Y-114842993D01*
X130104451Y-114916482D01*
X130104446Y-114916485D01*
X130099148Y-114919266D01*
X130094667Y-114923234D01*
X130094665Y-114923237D01*
X129976299Y-115028099D01*
X129976293Y-115028105D01*
X129971817Y-115032071D01*
X129968417Y-115036996D01*
X129968414Y-115037000D01*
X129878581Y-115167144D01*
X129878577Y-115167151D01*
X129875182Y-115172070D01*
X129873061Y-115177660D01*
X129873060Y-115177664D01*
X129816983Y-115325528D01*
X129816981Y-115325533D01*
X129814860Y-115331128D01*
X129814139Y-115337065D01*
X129814137Y-115337074D01*
X129795388Y-115491487D01*
X129794355Y-115500000D01*
X89245556Y-115500000D01*
X89269327Y-115273835D01*
X89267421Y-115263026D01*
X89256868Y-115260000D01*
X85583033Y-115260000D01*
X85572754Y-115262754D01*
X85570000Y-115273033D01*
X85570000Y-117196967D01*
X85370000Y-117196967D01*
X85370000Y-115273033D01*
X85367245Y-115262754D01*
X85356967Y-115260000D01*
X81685570Y-115260000D01*
X81675189Y-115262846D01*
X81672708Y-115273317D01*
X76000500Y-115273317D01*
X76000500Y-115046164D01*
X81670672Y-115046164D01*
X81672578Y-115056973D01*
X81683132Y-115060000D01*
X85356967Y-115060000D01*
X85367245Y-115057245D01*
X85370000Y-115046967D01*
X85570000Y-115046967D01*
X85572754Y-115057245D01*
X85583033Y-115060000D01*
X89254430Y-115060000D01*
X89264810Y-115057153D01*
X89267291Y-115046682D01*
X89263868Y-114948637D01*
X89263149Y-114941796D01*
X89214563Y-114666250D01*
X89212897Y-114659567D01*
X89126433Y-114393459D01*
X89123856Y-114387082D01*
X89001203Y-114135606D01*
X88997751Y-114129627D01*
X88841299Y-113897676D01*
X88837053Y-113892242D01*
X88649843Y-113684324D01*
X88644874Y-113679526D01*
X88430558Y-113499694D01*
X88424964Y-113495629D01*
X88187694Y-113347366D01*
X88181611Y-113344132D01*
X87926003Y-113230328D01*
X87919537Y-113227975D01*
X87650580Y-113150853D01*
X87643841Y-113149420D01*
X87366768Y-113110480D01*
X87359895Y-113110000D01*
X85583033Y-113110000D01*
X85572754Y-113112754D01*
X85570000Y-113123033D01*
X85570000Y-115046967D01*
X85370000Y-115046967D01*
X85370000Y-113123033D01*
X85367245Y-113112754D01*
X85356967Y-113110000D01*
X83650144Y-113110000D01*
X83646682Y-113110120D01*
X83437447Y-113124751D01*
X83430616Y-113125711D01*
X83156941Y-113183883D01*
X83150313Y-113185784D01*
X82887404Y-113281475D01*
X82881104Y-113284280D01*
X82634063Y-113415633D01*
X82628218Y-113419286D01*
X82401856Y-113583748D01*
X82396587Y-113588169D01*
X82195315Y-113782535D01*
X82190709Y-113787651D01*
X82018448Y-114008134D01*
X82014597Y-114013843D01*
X81874703Y-114256148D01*
X81871674Y-114262357D01*
X81766870Y-114521757D01*
X81764734Y-114528329D01*
X81697049Y-114799799D01*
X81695853Y-114806584D01*
X81670672Y-115046164D01*
X76000500Y-115046164D01*
X76000500Y-112733419D01*
X89004155Y-112733419D01*
X89006018Y-112772547D01*
X89007355Y-112781843D01*
X89054658Y-112976829D01*
X89057726Y-112985695D01*
X89141079Y-113168214D01*
X89145772Y-113176342D01*
X89262157Y-113339780D01*
X89268308Y-113346879D01*
X89413516Y-113485335D01*
X89420904Y-113491145D01*
X89589691Y-113599617D01*
X89598034Y-113603919D01*
X89784300Y-113678488D01*
X89793320Y-113681137D01*
X89990328Y-113719106D01*
X89999682Y-113720000D01*
X90436967Y-113720000D01*
X90447245Y-113717245D01*
X90450000Y-113706967D01*
X90650000Y-113706967D01*
X90652754Y-113717245D01*
X90663033Y-113720000D01*
X91050050Y-113720000D01*
X91054744Y-113719776D01*
X91204428Y-113705483D01*
X91213649Y-113703706D01*
X91406161Y-113647179D01*
X91414882Y-113643687D01*
X91593216Y-113551751D01*
X91601119Y-113546672D01*
X91758829Y-113422646D01*
X91765632Y-113416160D01*
X91897018Y-113264532D01*
X91902468Y-113256880D01*
X92002793Y-113083111D01*
X92006687Y-113074584D01*
X92072312Y-112884973D01*
X92074527Y-112875843D01*
X92094908Y-112734089D01*
X92093331Y-112723122D01*
X92082699Y-112720000D01*
X90663033Y-112720000D01*
X90652754Y-112722754D01*
X90650000Y-112733033D01*
X90650000Y-113706967D01*
X90450000Y-113706967D01*
X90450000Y-112733033D01*
X90447245Y-112722754D01*
X90436967Y-112720000D01*
X89016950Y-112720000D01*
X89006535Y-112722879D01*
X89004155Y-112733419D01*
X76000500Y-112733419D01*
X76000500Y-112505910D01*
X89005091Y-112505910D01*
X89006668Y-112516877D01*
X89017301Y-112520000D01*
X90436967Y-112520000D01*
X90447245Y-112517245D01*
X90450000Y-112506967D01*
X90650000Y-112506967D01*
X90652754Y-112517245D01*
X90663033Y-112520000D01*
X92083050Y-112520000D01*
X92093464Y-112517120D01*
X92095844Y-112506580D01*
X92093981Y-112467452D01*
X92092644Y-112458156D01*
X92045341Y-112263170D01*
X92042273Y-112254304D01*
X91958920Y-112071785D01*
X91954227Y-112063657D01*
X91837842Y-111900219D01*
X91831691Y-111893120D01*
X91686483Y-111754664D01*
X91679095Y-111748854D01*
X91510308Y-111640382D01*
X91501965Y-111636080D01*
X91315699Y-111561511D01*
X91306679Y-111558862D01*
X91109671Y-111520893D01*
X91100318Y-111520000D01*
X90663033Y-111520000D01*
X90652754Y-111522754D01*
X90650000Y-111533033D01*
X90650000Y-112506967D01*
X90450000Y-112506967D01*
X90450000Y-111533033D01*
X90447245Y-111522754D01*
X90436967Y-111520000D01*
X90049950Y-111520000D01*
X90045255Y-111520223D01*
X89895571Y-111534516D01*
X89886350Y-111536293D01*
X89693838Y-111592820D01*
X89685117Y-111596312D01*
X89506783Y-111688248D01*
X89498880Y-111693327D01*
X89341170Y-111817353D01*
X89334367Y-111823839D01*
X89202981Y-111975467D01*
X89197531Y-111983119D01*
X89097206Y-112156888D01*
X89093312Y-112165415D01*
X89027687Y-112355026D01*
X89025472Y-112364156D01*
X89005091Y-112505910D01*
X76000500Y-112505910D01*
X76000500Y-110027398D01*
X88995746Y-110027398D01*
X88995970Y-110032105D01*
X88995970Y-110032110D01*
X89005521Y-110232619D01*
X89005521Y-110232625D01*
X89005746Y-110237330D01*
X89006857Y-110241913D01*
X89006858Y-110241914D01*
X89029673Y-110335960D01*
X89055296Y-110441576D01*
X89142604Y-110632753D01*
X89264514Y-110803952D01*
X89416622Y-110948986D01*
X89593428Y-111062613D01*
X89788543Y-111140725D01*
X89994915Y-111180500D01*
X91050071Y-111180500D01*
X91052425Y-111180500D01*
X91209218Y-111165528D01*
X91410875Y-111106316D01*
X91597682Y-111010011D01*
X91762886Y-110880092D01*
X91900519Y-110721256D01*
X92005604Y-110539244D01*
X92074344Y-110340633D01*
X92104254Y-110132602D01*
X92094254Y-109922670D01*
X92044704Y-109718424D01*
X91957396Y-109527247D01*
X91835486Y-109356048D01*
X91683378Y-109211014D01*
X91626516Y-109174471D01*
X91510543Y-109099939D01*
X91510542Y-109099938D01*
X91506572Y-109097387D01*
X91502191Y-109095633D01*
X91502185Y-109095630D01*
X91315841Y-109021030D01*
X91315840Y-109021029D01*
X91311457Y-109019275D01*
X91306831Y-109018383D01*
X91306823Y-109018381D01*
X91109717Y-108980392D01*
X91109709Y-108980391D01*
X91105085Y-108979500D01*
X90047575Y-108979500D01*
X90045245Y-108979722D01*
X90045234Y-108979723D01*
X89895473Y-108994023D01*
X89895462Y-108994025D01*
X89890782Y-108994472D01*
X89886269Y-108995796D01*
X89886259Y-108995799D01*
X89693648Y-109052355D01*
X89693639Y-109052358D01*
X89689125Y-109053684D01*
X89684942Y-109055840D01*
X89684933Y-109055844D01*
X89506511Y-109147827D01*
X89506508Y-109147828D01*
X89502318Y-109149989D01*
X89498619Y-109152897D01*
X89498608Y-109152905D01*
X89340824Y-109276990D01*
X89340821Y-109276992D01*
X89337114Y-109279908D01*
X89334028Y-109283468D01*
X89334021Y-109283476D01*
X89202568Y-109435180D01*
X89202562Y-109435188D01*
X89199481Y-109438744D01*
X89197127Y-109442819D01*
X89197122Y-109442828D01*
X89096754Y-109616670D01*
X89096749Y-109616678D01*
X89094396Y-109620756D01*
X89092857Y-109625200D01*
X89092853Y-109625211D01*
X89027199Y-109814908D01*
X89025656Y-109819367D01*
X89024984Y-109824036D01*
X89024984Y-109824039D01*
X88996417Y-110022725D01*
X88996416Y-110022734D01*
X88995746Y-110027398D01*
X76000500Y-110027398D01*
X76000500Y-108000000D01*
X104994355Y-108000000D01*
X104995077Y-108005946D01*
X105014137Y-108162925D01*
X105014138Y-108162932D01*
X105014860Y-108168872D01*
X105016982Y-108174468D01*
X105016983Y-108174471D01*
X105073060Y-108322335D01*
X105075182Y-108327930D01*
X105078579Y-108332851D01*
X105078581Y-108332855D01*
X105136305Y-108416482D01*
X105171817Y-108467929D01*
X105176297Y-108471898D01*
X105176299Y-108471900D01*
X105185530Y-108480078D01*
X105299148Y-108580734D01*
X105449775Y-108659790D01*
X105614944Y-108700500D01*
X105779068Y-108700500D01*
X105785056Y-108700500D01*
X105950225Y-108659790D01*
X106100852Y-108580734D01*
X106191982Y-108500000D01*
X118894355Y-108500000D01*
X118895077Y-108505946D01*
X118914137Y-108662925D01*
X118914138Y-108662932D01*
X118914860Y-108668872D01*
X118916982Y-108674468D01*
X118916983Y-108674471D01*
X118928920Y-108705946D01*
X118975182Y-108827930D01*
X118978579Y-108832851D01*
X118978581Y-108832855D01*
X118986794Y-108844753D01*
X119071817Y-108967929D01*
X119076297Y-108971898D01*
X119076299Y-108971900D01*
X119085885Y-108980392D01*
X119199148Y-109080734D01*
X119349775Y-109159790D01*
X119514944Y-109200500D01*
X119679068Y-109200500D01*
X119685056Y-109200500D01*
X119850225Y-109159790D01*
X120000852Y-109080734D01*
X120043222Y-109043197D01*
X120091025Y-109019922D01*
X120143977Y-109024733D01*
X120186802Y-109056245D01*
X120207149Y-109105367D01*
X120214137Y-109162925D01*
X120214138Y-109162932D01*
X120214860Y-109168872D01*
X120216982Y-109174468D01*
X120216983Y-109174471D01*
X120273060Y-109322335D01*
X120275182Y-109327930D01*
X120278579Y-109332851D01*
X120278581Y-109332855D01*
X120324284Y-109399066D01*
X120371817Y-109467929D01*
X120499148Y-109580734D01*
X120649775Y-109659790D01*
X120814944Y-109700500D01*
X120979068Y-109700500D01*
X120985056Y-109700500D01*
X121150225Y-109659790D01*
X121300852Y-109580734D01*
X121428183Y-109467929D01*
X121524818Y-109327930D01*
X121585140Y-109168872D01*
X121605645Y-109000000D01*
X121585140Y-108831128D01*
X121535410Y-108700000D01*
X130794355Y-108700000D01*
X130795077Y-108705946D01*
X130814137Y-108862925D01*
X130814138Y-108862932D01*
X130814860Y-108868872D01*
X130816982Y-108874468D01*
X130816983Y-108874471D01*
X130871900Y-109019275D01*
X130875182Y-109027930D01*
X130878579Y-109032851D01*
X130878581Y-109032855D01*
X130928633Y-109105367D01*
X130971817Y-109167929D01*
X130976297Y-109171898D01*
X130976299Y-109171900D01*
X131008582Y-109200500D01*
X131099148Y-109280734D01*
X131249775Y-109359790D01*
X131414944Y-109400500D01*
X131579068Y-109400500D01*
X131585056Y-109400500D01*
X131750225Y-109359790D01*
X131900852Y-109280734D01*
X132028183Y-109167929D01*
X132124818Y-109027930D01*
X132185140Y-108868872D01*
X132205645Y-108700000D01*
X132185140Y-108531128D01*
X132124818Y-108372070D01*
X132104747Y-108342993D01*
X132031585Y-108237000D01*
X132028183Y-108232071D01*
X131900852Y-108119266D01*
X131832739Y-108083517D01*
X131755528Y-108042993D01*
X131755526Y-108042992D01*
X131750225Y-108040210D01*
X131744409Y-108038776D01*
X131744408Y-108038776D01*
X131590871Y-108000933D01*
X131590868Y-108000932D01*
X131585056Y-107999500D01*
X131414944Y-107999500D01*
X131409131Y-108000932D01*
X131409128Y-108000933D01*
X131255591Y-108038776D01*
X131255587Y-108038777D01*
X131249775Y-108040210D01*
X131244476Y-108042990D01*
X131244471Y-108042993D01*
X131104451Y-108116482D01*
X131104446Y-108116485D01*
X131099148Y-108119266D01*
X131094667Y-108123234D01*
X131094665Y-108123237D01*
X130976299Y-108228099D01*
X130976293Y-108228105D01*
X130971817Y-108232071D01*
X130968417Y-108236996D01*
X130968414Y-108237000D01*
X130878581Y-108367144D01*
X130878577Y-108367151D01*
X130875182Y-108372070D01*
X130873061Y-108377660D01*
X130873060Y-108377664D01*
X130816983Y-108525528D01*
X130816981Y-108525533D01*
X130814860Y-108531128D01*
X130814139Y-108537065D01*
X130814137Y-108537074D01*
X130799789Y-108655246D01*
X130794355Y-108700000D01*
X121535410Y-108700000D01*
X121524818Y-108672070D01*
X121428183Y-108532071D01*
X121420797Y-108525528D01*
X121305334Y-108423237D01*
X121300852Y-108419266D01*
X121295548Y-108416482D01*
X121155528Y-108342993D01*
X121155526Y-108342992D01*
X121150225Y-108340210D01*
X121144409Y-108338776D01*
X121144408Y-108338776D01*
X120990871Y-108300933D01*
X120990868Y-108300932D01*
X120985056Y-108299500D01*
X120814944Y-108299500D01*
X120809131Y-108300932D01*
X120809128Y-108300933D01*
X120655591Y-108338776D01*
X120655587Y-108338777D01*
X120649775Y-108340210D01*
X120644476Y-108342990D01*
X120644471Y-108342993D01*
X120504451Y-108416482D01*
X120504446Y-108416485D01*
X120499148Y-108419266D01*
X120494667Y-108423234D01*
X120494665Y-108423237D01*
X120456776Y-108456803D01*
X120408972Y-108480078D01*
X120356021Y-108475265D01*
X120313196Y-108443753D01*
X120292851Y-108394633D01*
X120285140Y-108331128D01*
X120224818Y-108172070D01*
X120128183Y-108032071D01*
X120093035Y-108000933D01*
X120005334Y-107923237D01*
X120000852Y-107919266D01*
X119850225Y-107840210D01*
X119844409Y-107838776D01*
X119844408Y-107838776D01*
X119690871Y-107800933D01*
X119690868Y-107800932D01*
X119685056Y-107799500D01*
X119514944Y-107799500D01*
X119509131Y-107800932D01*
X119509128Y-107800933D01*
X119355591Y-107838776D01*
X119355587Y-107838777D01*
X119349775Y-107840210D01*
X119344476Y-107842990D01*
X119344471Y-107842993D01*
X119204451Y-107916482D01*
X119204446Y-107916485D01*
X119199148Y-107919266D01*
X119194667Y-107923234D01*
X119194665Y-107923237D01*
X119076299Y-108028099D01*
X119076293Y-108028105D01*
X119071817Y-108032071D01*
X119068417Y-108036996D01*
X119068414Y-108037000D01*
X118978581Y-108167144D01*
X118978577Y-108167151D01*
X118975182Y-108172070D01*
X118973061Y-108177660D01*
X118973060Y-108177664D01*
X118916983Y-108325528D01*
X118916981Y-108325533D01*
X118914860Y-108331128D01*
X118914139Y-108337065D01*
X118914137Y-108337074D01*
X118899600Y-108456803D01*
X118894355Y-108500000D01*
X106191982Y-108500000D01*
X106228183Y-108467929D01*
X106324818Y-108327930D01*
X106385140Y-108168872D01*
X106405645Y-108000000D01*
X106385140Y-107831128D01*
X106324818Y-107672070D01*
X106228183Y-107532071D01*
X106191982Y-107500000D01*
X129594355Y-107500000D01*
X129595077Y-107505946D01*
X129614137Y-107662925D01*
X129614138Y-107662932D01*
X129614860Y-107668872D01*
X129616982Y-107674468D01*
X129616983Y-107674471D01*
X129673060Y-107822335D01*
X129675182Y-107827930D01*
X129678579Y-107832851D01*
X129678581Y-107832855D01*
X129683658Y-107840210D01*
X129771817Y-107967929D01*
X129899148Y-108080734D01*
X130049775Y-108159790D01*
X130214944Y-108200500D01*
X130379068Y-108200500D01*
X130385056Y-108200500D01*
X130550225Y-108159790D01*
X130700852Y-108080734D01*
X130828183Y-107967929D01*
X130924818Y-107827930D01*
X130985140Y-107668872D01*
X131005645Y-107500000D01*
X130985140Y-107331128D01*
X130924818Y-107172070D01*
X130828183Y-107032071D01*
X130803923Y-107010579D01*
X130705334Y-106923237D01*
X130700852Y-106919266D01*
X130695548Y-106916482D01*
X130555528Y-106842993D01*
X130555526Y-106842992D01*
X130550225Y-106840210D01*
X130544409Y-106838776D01*
X130544408Y-106838776D01*
X130390871Y-106800933D01*
X130390868Y-106800932D01*
X130385056Y-106799500D01*
X130214944Y-106799500D01*
X130209131Y-106800932D01*
X130209128Y-106800933D01*
X130055591Y-106838776D01*
X130055587Y-106838777D01*
X130049775Y-106840210D01*
X130044476Y-106842990D01*
X130044471Y-106842993D01*
X129904451Y-106916482D01*
X129904446Y-106916485D01*
X129899148Y-106919266D01*
X129894667Y-106923234D01*
X129894665Y-106923237D01*
X129776299Y-107028099D01*
X129776293Y-107028105D01*
X129771817Y-107032071D01*
X129768417Y-107036996D01*
X129768414Y-107037000D01*
X129678581Y-107167144D01*
X129678577Y-107167151D01*
X129675182Y-107172070D01*
X129673061Y-107177660D01*
X129673060Y-107177664D01*
X129616983Y-107325528D01*
X129616981Y-107325533D01*
X129614860Y-107331128D01*
X129614139Y-107337065D01*
X129614137Y-107337074D01*
X129595388Y-107491487D01*
X129594355Y-107500000D01*
X106191982Y-107500000D01*
X106100852Y-107419266D01*
X105950225Y-107340210D01*
X105944409Y-107338776D01*
X105944408Y-107338776D01*
X105790871Y-107300933D01*
X105790868Y-107300932D01*
X105785056Y-107299500D01*
X105614944Y-107299500D01*
X105609131Y-107300932D01*
X105609128Y-107300933D01*
X105455591Y-107338776D01*
X105455587Y-107338777D01*
X105449775Y-107340210D01*
X105444476Y-107342990D01*
X105444471Y-107342993D01*
X105304451Y-107416482D01*
X105304446Y-107416485D01*
X105299148Y-107419266D01*
X105294667Y-107423234D01*
X105294665Y-107423237D01*
X105176299Y-107528099D01*
X105176293Y-107528105D01*
X105171817Y-107532071D01*
X105168417Y-107536996D01*
X105168414Y-107537000D01*
X105078581Y-107667144D01*
X105078577Y-107667151D01*
X105075182Y-107672070D01*
X105073061Y-107677660D01*
X105073060Y-107677664D01*
X105016983Y-107825528D01*
X105016981Y-107825533D01*
X105014860Y-107831128D01*
X105014139Y-107837065D01*
X105014137Y-107837074D01*
X104998848Y-107962999D01*
X104994355Y-108000000D01*
X76000500Y-108000000D01*
X76000500Y-105113317D01*
X81672708Y-105113317D01*
X81676131Y-105211362D01*
X81676850Y-105218203D01*
X81725436Y-105493749D01*
X81727102Y-105500432D01*
X81813566Y-105766540D01*
X81816143Y-105772917D01*
X81938796Y-106024393D01*
X81942248Y-106030372D01*
X82098700Y-106262323D01*
X82102946Y-106267757D01*
X82290156Y-106475675D01*
X82295125Y-106480473D01*
X82509441Y-106660305D01*
X82515035Y-106664370D01*
X82752305Y-106812633D01*
X82758388Y-106815867D01*
X83013996Y-106929671D01*
X83020462Y-106932024D01*
X83289419Y-107009146D01*
X83296158Y-107010579D01*
X83573231Y-107049519D01*
X83580105Y-107050000D01*
X85356967Y-107050000D01*
X85367245Y-107047245D01*
X85370000Y-107036967D01*
X85570000Y-107036967D01*
X85572754Y-107047245D01*
X85583033Y-107050000D01*
X87289856Y-107050000D01*
X87293317Y-107049879D01*
X87502552Y-107035248D01*
X87509383Y-107034288D01*
X87783058Y-106976116D01*
X87789686Y-106974215D01*
X88052595Y-106878524D01*
X88058895Y-106875719D01*
X88305936Y-106744366D01*
X88311781Y-106740713D01*
X88538143Y-106576251D01*
X88543412Y-106571830D01*
X88744684Y-106377464D01*
X88749290Y-106372348D01*
X88921551Y-106151865D01*
X88925402Y-106146156D01*
X89065296Y-105903851D01*
X89068325Y-105897642D01*
X89173129Y-105638242D01*
X89175265Y-105631670D01*
X89242950Y-105360200D01*
X89244146Y-105353415D01*
X89269327Y-105113835D01*
X89267421Y-105103026D01*
X89256868Y-105100000D01*
X85583033Y-105100000D01*
X85572754Y-105102754D01*
X85570000Y-105113033D01*
X85570000Y-107036967D01*
X85370000Y-107036967D01*
X85370000Y-105113033D01*
X85367245Y-105102754D01*
X85356967Y-105100000D01*
X81685570Y-105100000D01*
X81675189Y-105102846D01*
X81672708Y-105113317D01*
X76000500Y-105113317D01*
X76000500Y-104886164D01*
X81670672Y-104886164D01*
X81672578Y-104896973D01*
X81683132Y-104900000D01*
X85356967Y-104900000D01*
X85367245Y-104897245D01*
X85370000Y-104886967D01*
X85570000Y-104886967D01*
X85572754Y-104897245D01*
X85583033Y-104900000D01*
X89254430Y-104900000D01*
X89264810Y-104897153D01*
X89267291Y-104886682D01*
X89263868Y-104788637D01*
X89263149Y-104781796D01*
X89214563Y-104506250D01*
X89212897Y-104499567D01*
X89126433Y-104233459D01*
X89123856Y-104227082D01*
X89001203Y-103975606D01*
X88997751Y-103969627D01*
X88841299Y-103737676D01*
X88837053Y-103732242D01*
X88649843Y-103524324D01*
X88644874Y-103519526D01*
X88430558Y-103339694D01*
X88424964Y-103335629D01*
X88187694Y-103187366D01*
X88181611Y-103184132D01*
X87926003Y-103070328D01*
X87919537Y-103067975D01*
X87650580Y-102990853D01*
X87643841Y-102989420D01*
X87366768Y-102950480D01*
X87359895Y-102950000D01*
X85583033Y-102950000D01*
X85572754Y-102952754D01*
X85570000Y-102963033D01*
X85570000Y-104886967D01*
X85370000Y-104886967D01*
X85370000Y-102963033D01*
X85367245Y-102952754D01*
X85356967Y-102950000D01*
X83650144Y-102950000D01*
X83646682Y-102950120D01*
X83437447Y-102964751D01*
X83430616Y-102965711D01*
X83156941Y-103023883D01*
X83150313Y-103025784D01*
X82887404Y-103121475D01*
X82881104Y-103124280D01*
X82634063Y-103255633D01*
X82628218Y-103259286D01*
X82401856Y-103423748D01*
X82396587Y-103428169D01*
X82195315Y-103622535D01*
X82190709Y-103627651D01*
X82018448Y-103848134D01*
X82014597Y-103853843D01*
X81874703Y-104096148D01*
X81871674Y-104102357D01*
X81766870Y-104361757D01*
X81764734Y-104368329D01*
X81697049Y-104639799D01*
X81695853Y-104646584D01*
X81670672Y-104886164D01*
X76000500Y-104886164D01*
X76000500Y-100300000D01*
X129994355Y-100300000D01*
X129995077Y-100305946D01*
X130014137Y-100462925D01*
X130014138Y-100462932D01*
X130014860Y-100468872D01*
X130075182Y-100627930D01*
X130078579Y-100632851D01*
X130078581Y-100632855D01*
X130146415Y-100731128D01*
X130171817Y-100767929D01*
X130299148Y-100880734D01*
X130449775Y-100959790D01*
X130614944Y-101000500D01*
X130779068Y-101000500D01*
X130785056Y-101000500D01*
X130891622Y-100974234D01*
X130946662Y-100976451D01*
X130991997Y-101007743D01*
X131013590Y-101058419D01*
X131014860Y-101068872D01*
X131075182Y-101227930D01*
X131078579Y-101232851D01*
X131078581Y-101232855D01*
X131168414Y-101362999D01*
X131171817Y-101367929D01*
X131299148Y-101480734D01*
X131449775Y-101559790D01*
X131614944Y-101600500D01*
X131779068Y-101600500D01*
X131785056Y-101600500D01*
X131950225Y-101559790D01*
X132100852Y-101480734D01*
X132228183Y-101367929D01*
X132324818Y-101227930D01*
X132385140Y-101068872D01*
X132405645Y-100900000D01*
X132390091Y-100771900D01*
X132385862Y-100737074D01*
X132385861Y-100737073D01*
X132385140Y-100731128D01*
X132324818Y-100572070D01*
X132228183Y-100432071D01*
X132100852Y-100319266D01*
X132095548Y-100316482D01*
X131955528Y-100242993D01*
X131955526Y-100242992D01*
X131950225Y-100240210D01*
X131944409Y-100238776D01*
X131944408Y-100238776D01*
X131790871Y-100200933D01*
X131790868Y-100200932D01*
X131785056Y-100199500D01*
X131614944Y-100199500D01*
X131609133Y-100200932D01*
X131609126Y-100200933D01*
X131508377Y-100225765D01*
X131453334Y-100223546D01*
X131407998Y-100192251D01*
X131386408Y-100141574D01*
X131385140Y-100131128D01*
X131324818Y-99972070D01*
X131228183Y-99832071D01*
X131100852Y-99719266D01*
X130950225Y-99640210D01*
X130944409Y-99638776D01*
X130944408Y-99638776D01*
X130790871Y-99600933D01*
X130790868Y-99600932D01*
X130785056Y-99599500D01*
X130614944Y-99599500D01*
X130609131Y-99600932D01*
X130609128Y-99600933D01*
X130455591Y-99638776D01*
X130455587Y-99638777D01*
X130449775Y-99640210D01*
X130444476Y-99642990D01*
X130444471Y-99642993D01*
X130304451Y-99716482D01*
X130304446Y-99716485D01*
X130299148Y-99719266D01*
X130294667Y-99723234D01*
X130294665Y-99723237D01*
X130176299Y-99828099D01*
X130176293Y-99828105D01*
X130171817Y-99832071D01*
X130168417Y-99836996D01*
X130168414Y-99837000D01*
X130078581Y-99967144D01*
X130078577Y-99967151D01*
X130075182Y-99972070D01*
X130073061Y-99977660D01*
X130073060Y-99977664D01*
X130016983Y-100125528D01*
X130016981Y-100125533D01*
X130014860Y-100131128D01*
X130014139Y-100137065D01*
X130014137Y-100137074D01*
X130001789Y-100238776D01*
X129994355Y-100300000D01*
X76000500Y-100300000D01*
X76000500Y-95065000D01*
X146644571Y-95065000D01*
X146664244Y-95277310D01*
X146665493Y-95281699D01*
X146665494Y-95281705D01*
X146721341Y-95477984D01*
X146721343Y-95477990D01*
X146722595Y-95482389D01*
X146817634Y-95673255D01*
X146820396Y-95676912D01*
X146943365Y-95839749D01*
X146943368Y-95839752D01*
X146946128Y-95843407D01*
X147103698Y-95987052D01*
X147284981Y-96099298D01*
X147483802Y-96176321D01*
X147693390Y-96215500D01*
X147902027Y-96215500D01*
X147906610Y-96215500D01*
X148116198Y-96176321D01*
X148315019Y-96099298D01*
X148496302Y-95987052D01*
X148653872Y-95843407D01*
X148782366Y-95673255D01*
X148877405Y-95482389D01*
X148935756Y-95277310D01*
X148955429Y-95065000D01*
X148935756Y-94852690D01*
X148877405Y-94647611D01*
X148782366Y-94456745D01*
X148653872Y-94286593D01*
X148496302Y-94142948D01*
X148492413Y-94140540D01*
X148492409Y-94140537D01*
X148381643Y-94071954D01*
X148315019Y-94030702D01*
X148274029Y-94014822D01*
X148120467Y-93955332D01*
X148120459Y-93955329D01*
X148116198Y-93953679D01*
X148111694Y-93952837D01*
X147911116Y-93915342D01*
X147911112Y-93915341D01*
X147906610Y-93914500D01*
X147693390Y-93914500D01*
X147688888Y-93915341D01*
X147688883Y-93915342D01*
X147488305Y-93952837D01*
X147488302Y-93952837D01*
X147483802Y-93953679D01*
X147479543Y-93955328D01*
X147479532Y-93955332D01*
X147289250Y-94029048D01*
X147289248Y-94029048D01*
X147284981Y-94030702D01*
X147281087Y-94033112D01*
X147281085Y-94033114D01*
X147107590Y-94140537D01*
X147107581Y-94140543D01*
X147103698Y-94142948D01*
X147100323Y-94146024D01*
X147100316Y-94146030D01*
X146949512Y-94283507D01*
X146949506Y-94283513D01*
X146946128Y-94286593D01*
X146943372Y-94290241D01*
X146943365Y-94290250D01*
X146820396Y-94453087D01*
X146817634Y-94456745D01*
X146815595Y-94460838D01*
X146815591Y-94460846D01*
X146724637Y-94643509D01*
X146724635Y-94643513D01*
X146722595Y-94647611D01*
X146721344Y-94652005D01*
X146721341Y-94652015D01*
X146665494Y-94848294D01*
X146665492Y-94848302D01*
X146664244Y-94852690D01*
X146644571Y-95065000D01*
X76000500Y-95065000D01*
X76000500Y-93416937D01*
X146650001Y-93416937D01*
X146650329Y-93422627D01*
X146652052Y-93437479D01*
X146655917Y-93451685D01*
X146694508Y-93539088D01*
X146704697Y-93553962D01*
X146771037Y-93620302D01*
X146785911Y-93630491D01*
X146873312Y-93669082D01*
X146887524Y-93672948D01*
X146902358Y-93674669D01*
X146908072Y-93675000D01*
X147686967Y-93675000D01*
X147697245Y-93672245D01*
X147700000Y-93661967D01*
X147700000Y-93661966D01*
X147900000Y-93661966D01*
X147902754Y-93672244D01*
X147913033Y-93674999D01*
X148691937Y-93674999D01*
X148697627Y-93674670D01*
X148712479Y-93672947D01*
X148726685Y-93669082D01*
X148814088Y-93630491D01*
X148828962Y-93620302D01*
X148895302Y-93553962D01*
X148905491Y-93539088D01*
X148944082Y-93451687D01*
X148947948Y-93437475D01*
X148949669Y-93422641D01*
X148950000Y-93416928D01*
X148950000Y-92638033D01*
X148947245Y-92627754D01*
X148936967Y-92625000D01*
X147913033Y-92625000D01*
X147902754Y-92627754D01*
X147900000Y-92638033D01*
X147900000Y-93661966D01*
X147700000Y-93661966D01*
X147700000Y-92638033D01*
X147697245Y-92627754D01*
X147686967Y-92625000D01*
X146663034Y-92625000D01*
X146652755Y-92627754D01*
X146650001Y-92638033D01*
X146650001Y-93416937D01*
X76000500Y-93416937D01*
X76000500Y-92411967D01*
X146650000Y-92411967D01*
X146652754Y-92422245D01*
X146663033Y-92425000D01*
X147686967Y-92425000D01*
X147697245Y-92422245D01*
X147700000Y-92411967D01*
X147900000Y-92411967D01*
X147902754Y-92422245D01*
X147913033Y-92425000D01*
X148936966Y-92425000D01*
X148947244Y-92422245D01*
X148949999Y-92411967D01*
X148949999Y-91633063D01*
X148949670Y-91627372D01*
X148947947Y-91612520D01*
X148944082Y-91598314D01*
X148905491Y-91510911D01*
X148895302Y-91496037D01*
X148828962Y-91429697D01*
X148814088Y-91419508D01*
X148726687Y-91380917D01*
X148712475Y-91377051D01*
X148697641Y-91375330D01*
X148691928Y-91375000D01*
X147913033Y-91375000D01*
X147902754Y-91377754D01*
X147900000Y-91388033D01*
X147900000Y-92411967D01*
X147700000Y-92411967D01*
X147700000Y-91388034D01*
X147697245Y-91377755D01*
X147686967Y-91375001D01*
X146908063Y-91375001D01*
X146902372Y-91375329D01*
X146887520Y-91377052D01*
X146873314Y-91380917D01*
X146785911Y-91419508D01*
X146771037Y-91429697D01*
X146704697Y-91496037D01*
X146694508Y-91510911D01*
X146655917Y-91598312D01*
X146652051Y-91612524D01*
X146650330Y-91627358D01*
X146650000Y-91633072D01*
X146650000Y-92411967D01*
X76000500Y-92411967D01*
X76000500Y-72297516D01*
X77848005Y-72297516D01*
X77853853Y-72306632D01*
X78030848Y-72464803D01*
X78035173Y-72468252D01*
X78319187Y-72669773D01*
X78323894Y-72672730D01*
X78628675Y-72841176D01*
X78633683Y-72843587D01*
X78955411Y-72976852D01*
X78960653Y-72978686D01*
X79295286Y-73075092D01*
X79300697Y-73076326D01*
X79644005Y-73134657D01*
X79649541Y-73135281D01*
X79997222Y-73154807D01*
X80002778Y-73154807D01*
X80350458Y-73135281D01*
X80355994Y-73134657D01*
X80699302Y-73076326D01*
X80704713Y-73075092D01*
X81039346Y-72978686D01*
X81044588Y-72976852D01*
X81366316Y-72843587D01*
X81371324Y-72841176D01*
X81676105Y-72672730D01*
X81680812Y-72669773D01*
X81964826Y-72468252D01*
X81969151Y-72464803D01*
X82146145Y-72306632D01*
X82151993Y-72297516D01*
X167848005Y-72297516D01*
X167853853Y-72306632D01*
X168030848Y-72464803D01*
X168035173Y-72468252D01*
X168319187Y-72669773D01*
X168323894Y-72672730D01*
X168628675Y-72841176D01*
X168633683Y-72843587D01*
X168955411Y-72976852D01*
X168960653Y-72978686D01*
X169295286Y-73075092D01*
X169300697Y-73076326D01*
X169644005Y-73134657D01*
X169649541Y-73135281D01*
X169997222Y-73154807D01*
X170002778Y-73154807D01*
X170350458Y-73135281D01*
X170355994Y-73134657D01*
X170699302Y-73076326D01*
X170704713Y-73075092D01*
X171039346Y-72978686D01*
X171044588Y-72976852D01*
X171366316Y-72843587D01*
X171371324Y-72841176D01*
X171676105Y-72672730D01*
X171680812Y-72669773D01*
X171964826Y-72468252D01*
X171969151Y-72464803D01*
X172146145Y-72306632D01*
X172151993Y-72297516D01*
X172146666Y-72288087D01*
X170009214Y-70150635D01*
X170000000Y-70145315D01*
X169990785Y-70150635D01*
X167853332Y-72288087D01*
X167848005Y-72297516D01*
X82151993Y-72297516D01*
X82146666Y-72288087D01*
X80009214Y-70150635D01*
X79999999Y-70145315D01*
X79990785Y-70150635D01*
X77853332Y-72288087D01*
X77848005Y-72297516D01*
X76000500Y-72297516D01*
X76000500Y-70002778D01*
X76845193Y-70002778D01*
X76864718Y-70350458D01*
X76865342Y-70355994D01*
X76923673Y-70699302D01*
X76924907Y-70704713D01*
X77021313Y-71039346D01*
X77023147Y-71044588D01*
X77156412Y-71366316D01*
X77158823Y-71371324D01*
X77327269Y-71676105D01*
X77330226Y-71680812D01*
X77531747Y-71964826D01*
X77535196Y-71969151D01*
X77693366Y-72146145D01*
X77702482Y-72151993D01*
X77711911Y-72146666D01*
X79849364Y-70009214D01*
X79854684Y-70000000D01*
X80145315Y-70000000D01*
X80150635Y-70009214D01*
X82288087Y-72146666D01*
X82297516Y-72151993D01*
X82306632Y-72146145D01*
X82464803Y-71969151D01*
X82468252Y-71964826D01*
X82669773Y-71680812D01*
X82672730Y-71676105D01*
X82841176Y-71371324D01*
X82843587Y-71366316D01*
X82976852Y-71044588D01*
X82978686Y-71039346D01*
X83075092Y-70704713D01*
X83076326Y-70699302D01*
X83134657Y-70355994D01*
X83135281Y-70350458D01*
X83154807Y-70002778D01*
X166845193Y-70002778D01*
X166864718Y-70350458D01*
X166865342Y-70355994D01*
X166923673Y-70699302D01*
X166924907Y-70704713D01*
X167021313Y-71039346D01*
X167023147Y-71044588D01*
X167156412Y-71366316D01*
X167158823Y-71371324D01*
X167327269Y-71676105D01*
X167330226Y-71680812D01*
X167531747Y-71964826D01*
X167535196Y-71969151D01*
X167693366Y-72146145D01*
X167702482Y-72151993D01*
X167711911Y-72146666D01*
X169849364Y-70009214D01*
X169854684Y-70000000D01*
X169854683Y-69999999D01*
X170145315Y-69999999D01*
X170150635Y-70009214D01*
X172288087Y-72146666D01*
X172297516Y-72151993D01*
X172306632Y-72146145D01*
X172464803Y-71969151D01*
X172468252Y-71964826D01*
X172669773Y-71680812D01*
X172672730Y-71676105D01*
X172841176Y-71371324D01*
X172843587Y-71366316D01*
X172976852Y-71044588D01*
X172978686Y-71039346D01*
X173075092Y-70704713D01*
X173076326Y-70699302D01*
X173134657Y-70355994D01*
X173135281Y-70350458D01*
X173154807Y-70002778D01*
X173154807Y-69997222D01*
X173135281Y-69649541D01*
X173134657Y-69644005D01*
X173076326Y-69300697D01*
X173075092Y-69295286D01*
X172978686Y-68960653D01*
X172976852Y-68955411D01*
X172843587Y-68633683D01*
X172841176Y-68628675D01*
X172672730Y-68323894D01*
X172669773Y-68319187D01*
X172468252Y-68035173D01*
X172464803Y-68030848D01*
X172306632Y-67853853D01*
X172297516Y-67848005D01*
X172288087Y-67853332D01*
X170150635Y-69990785D01*
X170145315Y-69999999D01*
X169854683Y-69999999D01*
X169849364Y-69990785D01*
X167711911Y-67853332D01*
X167702482Y-67848005D01*
X167693366Y-67853853D01*
X167535196Y-68030848D01*
X167531747Y-68035173D01*
X167330226Y-68319187D01*
X167327269Y-68323894D01*
X167158823Y-68628675D01*
X167156412Y-68633683D01*
X167023147Y-68955411D01*
X167021313Y-68960653D01*
X166924907Y-69295286D01*
X166923673Y-69300697D01*
X166865342Y-69644005D01*
X166864718Y-69649541D01*
X166845193Y-69997222D01*
X166845193Y-70002778D01*
X83154807Y-70002778D01*
X83154807Y-69997222D01*
X83135281Y-69649541D01*
X83134657Y-69644005D01*
X83076326Y-69300697D01*
X83075092Y-69295286D01*
X82978686Y-68960653D01*
X82976852Y-68955411D01*
X82843587Y-68633683D01*
X82841176Y-68628675D01*
X82672730Y-68323894D01*
X82669773Y-68319187D01*
X82468252Y-68035173D01*
X82464803Y-68030848D01*
X82306632Y-67853853D01*
X82297516Y-67848005D01*
X82288087Y-67853332D01*
X80150635Y-69990785D01*
X80145315Y-70000000D01*
X79854684Y-70000000D01*
X79849364Y-69990785D01*
X77711911Y-67853332D01*
X77702482Y-67848005D01*
X77693366Y-67853853D01*
X77535196Y-68030848D01*
X77531747Y-68035173D01*
X77330226Y-68319187D01*
X77327269Y-68323894D01*
X77158823Y-68628675D01*
X77156412Y-68633683D01*
X77023147Y-68955411D01*
X77021313Y-68960653D01*
X76924907Y-69295286D01*
X76923673Y-69300697D01*
X76865342Y-69644005D01*
X76864718Y-69649541D01*
X76845193Y-69997222D01*
X76845193Y-70002778D01*
X76000500Y-70002778D01*
X76000500Y-67702482D01*
X77848005Y-67702482D01*
X77853332Y-67711911D01*
X79990785Y-69849364D01*
X80000000Y-69854684D01*
X80009214Y-69849364D01*
X82146666Y-67711911D01*
X82151993Y-67702482D01*
X167848005Y-67702482D01*
X167853332Y-67711911D01*
X169990785Y-69849364D01*
X170000000Y-69854684D01*
X170009214Y-69849364D01*
X172146666Y-67711911D01*
X172151993Y-67702482D01*
X172146145Y-67693366D01*
X171969151Y-67535196D01*
X171964826Y-67531747D01*
X171680812Y-67330226D01*
X171676105Y-67327269D01*
X171371324Y-67158823D01*
X171366316Y-67156412D01*
X171044588Y-67023147D01*
X171039346Y-67021313D01*
X170704713Y-66924907D01*
X170699302Y-66923673D01*
X170355994Y-66865342D01*
X170350458Y-66864718D01*
X170002778Y-66845193D01*
X169997222Y-66845193D01*
X169649541Y-66864718D01*
X169644005Y-66865342D01*
X169300697Y-66923673D01*
X169295286Y-66924907D01*
X168960653Y-67021313D01*
X168955411Y-67023147D01*
X168633683Y-67156412D01*
X168628675Y-67158823D01*
X168323894Y-67327269D01*
X168319187Y-67330226D01*
X168035173Y-67531747D01*
X168030848Y-67535196D01*
X167853853Y-67693366D01*
X167848005Y-67702482D01*
X82151993Y-67702482D01*
X82146145Y-67693366D01*
X81969151Y-67535196D01*
X81964826Y-67531747D01*
X81680812Y-67330226D01*
X81676105Y-67327269D01*
X81371324Y-67158823D01*
X81366316Y-67156412D01*
X81044588Y-67023147D01*
X81039346Y-67021313D01*
X80704713Y-66924907D01*
X80699302Y-66923673D01*
X80355994Y-66865342D01*
X80350458Y-66864718D01*
X80002778Y-66845193D01*
X79997222Y-66845193D01*
X79649541Y-66864718D01*
X79644005Y-66865342D01*
X79300697Y-66923673D01*
X79295286Y-66924907D01*
X78960653Y-67021313D01*
X78955411Y-67023147D01*
X78633683Y-67156412D01*
X78628675Y-67158823D01*
X78323894Y-67327269D01*
X78319187Y-67330226D01*
X78035173Y-67531747D01*
X78030848Y-67535196D01*
X77853853Y-67693366D01*
X77848005Y-67702482D01*
X76000500Y-67702482D01*
X76000500Y-66099500D01*
X76013763Y-66050000D01*
X76050000Y-66013763D01*
X76099500Y-66000500D01*
X173900500Y-66000500D01*
X173950000Y-66013763D01*
G37*
%TD.AperFunction*%
%TD*%
M02*
