M48
; DRILL file {KiCad (7.0.0)} date Thu Dec 14 15:04:26 2023
; FORMAT={-:-/ absolute / metric / decimal}
; #@! TF.CreationDate,2023-12-14T15:04:26-05:00
; #@! TF.GenerationSoftware,Kicad,Pcbnew,(7.0.0)
; #@! TF.FileFunction,Plated,1,4,PTH
FMAT,2
METRIC
; #@! TA.AperFunction,Plated,PTH,ViaDrill
T1C0.400
; #@! TA.AperFunction,Plated,PTH,ComponentDrill
T2C0.890
; #@! TA.AperFunction,Plated,PTH,ComponentDrill
T3C1.000
; #@! TA.AperFunction,Plated,PTH,ComponentDrill
T4C2.010
; #@! TA.AperFunction,Plated,PTH,ComponentDrill
T5C3.200
%
G90
G05
T1
X77.5Y-143.3
X78.0Y-109.5
X78.2Y-124.3
X84.066Y-92.171
X92.0Y-129.5
X92.9Y-70.7
X93.9Y-143.8
X96.3Y-122.6
X96.3Y-160.5
X97.5Y-115.5
X101.5Y-104.4
X102.1Y-132.2
X103.7Y-78.3
X105.018Y-121.102
X105.7Y-108.0
X106.2Y-112.2
X107.2Y-126.9
X107.7Y-144.6
X110.0Y-115.0
X110.0Y-131.1
X111.6Y-133.4
X111.9Y-122.6
X113.1Y-115.0
X114.7Y-135.2
X115.7Y-110.4
X116.0Y-117.7
X116.3Y-124.1
X116.5Y-97.5
X118.2Y-113.1
X119.0Y-126.1
X119.2Y-142.5
X119.6Y-108.5
X120.2Y-129.7
X120.9Y-109.0
X121.251Y-72.694
X121.4Y-119.6
X121.5Y-99.5
X122.1Y-105.4
X122.3Y-110.0
X126.0Y-102.0
X126.0Y-134.5
X126.31Y-123.483
X127.0Y-99.0
X127.4Y-158.6
X127.8Y-106.1
X128.1Y-114.1
X128.3Y-121.7
X129.5Y-123.5
X130.3Y-107.5
X130.5Y-115.5
X130.7Y-100.3
X131.0Y-96.5
X131.5Y-108.7
X131.6Y-116.5
X131.6Y-124.7
X131.7Y-100.9
X132.5Y-99.5
X134.5Y-124.0
X135.3Y-113.8
X135.5Y-107.4
X136.5Y-102.0
X138.5Y-99.0
X139.9Y-129.8
X140.0Y-108.5
X142.5Y-100.5
X144.0Y-108.0
X144.0Y-114.5
X145.4Y-154.1
X150.8Y-71.7
X152.5Y-103.5
X152.5Y-110.0
X152.5Y-116.0
X155.5Y-110.0
X158.7Y-117.3
X159.3Y-130.8
X159.7Y-82.6
X161.5Y-105.6
X166.1Y-143.5
T2
X90.55Y-110.08
X90.55Y-112.62
T3
X85.0Y-124.84
X85.0Y-127.38
X85.0Y-129.92
X85.0Y-132.46
X85.0Y-135.0
X85.0Y-137.54
X85.0Y-140.08
X85.0Y-142.62
X85.0Y-145.16
X85.0Y-147.7
X87.54Y-124.84
X87.54Y-127.38
X87.54Y-129.92
X87.54Y-132.46
X87.54Y-135.0
X87.54Y-137.54
X87.54Y-140.08
X87.54Y-142.62
X87.54Y-145.16
X87.54Y-147.7
X147.8Y-92.525
X147.8Y-95.065
T4
X85.47Y-105.0
X85.47Y-115.16
T5
X80.0Y-70.0
X80.0Y-160.0
X170.0Y-70.0
X170.0Y-160.0
T0
M30
