%TF.GenerationSoftware,KiCad,Pcbnew,(7.0.0)*%
%TF.CreationDate,2023-12-14T15:04:28-05:00*%
%TF.ProjectId,singal-path-test-board,73696e67-616c-42d7-9061-74682d746573,rev?*%
%TF.SameCoordinates,Original*%
%TF.FileFunction,Legend,Top*%
%TF.FilePolarity,Positive*%
%FSLAX46Y46*%
G04 Gerber Fmt 4.6, Leading zero omitted, Abs format (unit mm)*
G04 Created by KiCad (PCBNEW (7.0.0)) date 2023-12-14 15:04:28*
%MOMM*%
%LPD*%
G01*
G04 APERTURE LIST*
%ADD10C,0.300000*%
%ADD11C,0.200000*%
%ADD12C,0.150000*%
%ADD13C,0.120000*%
G04 APERTURE END LIST*
D10*
X78642857Y-124106631D02*
X79142857Y-125606631D01*
X79142857Y-125606631D02*
X79642857Y-124106631D01*
X80999999Y-125463774D02*
X80928571Y-125535202D01*
X80928571Y-125535202D02*
X80714285Y-125606631D01*
X80714285Y-125606631D02*
X80571428Y-125606631D01*
X80571428Y-125606631D02*
X80357142Y-125535202D01*
X80357142Y-125535202D02*
X80214285Y-125392345D01*
X80214285Y-125392345D02*
X80142856Y-125249488D01*
X80142856Y-125249488D02*
X80071428Y-124963774D01*
X80071428Y-124963774D02*
X80071428Y-124749488D01*
X80071428Y-124749488D02*
X80142856Y-124463774D01*
X80142856Y-124463774D02*
X80214285Y-124320917D01*
X80214285Y-124320917D02*
X80357142Y-124178060D01*
X80357142Y-124178060D02*
X80571428Y-124106631D01*
X80571428Y-124106631D02*
X80714285Y-124106631D01*
X80714285Y-124106631D02*
X80928571Y-124178060D01*
X80928571Y-124178060D02*
X80999999Y-124249488D01*
X82499999Y-125463774D02*
X82428571Y-125535202D01*
X82428571Y-125535202D02*
X82214285Y-125606631D01*
X82214285Y-125606631D02*
X82071428Y-125606631D01*
X82071428Y-125606631D02*
X81857142Y-125535202D01*
X81857142Y-125535202D02*
X81714285Y-125392345D01*
X81714285Y-125392345D02*
X81642856Y-125249488D01*
X81642856Y-125249488D02*
X81571428Y-124963774D01*
X81571428Y-124963774D02*
X81571428Y-124749488D01*
X81571428Y-124749488D02*
X81642856Y-124463774D01*
X81642856Y-124463774D02*
X81714285Y-124320917D01*
X81714285Y-124320917D02*
X81857142Y-124178060D01*
X81857142Y-124178060D02*
X82071428Y-124106631D01*
X82071428Y-124106631D02*
X82214285Y-124106631D01*
X82214285Y-124106631D02*
X82428571Y-124178060D01*
X82428571Y-124178060D02*
X82499999Y-124249488D01*
X79642857Y-129289170D02*
X79500000Y-129217741D01*
X79500000Y-129217741D02*
X79285714Y-129217741D01*
X79285714Y-129217741D02*
X79071428Y-129289170D01*
X79071428Y-129289170D02*
X78928571Y-129432027D01*
X78928571Y-129432027D02*
X78857142Y-129574884D01*
X78857142Y-129574884D02*
X78785714Y-129860598D01*
X78785714Y-129860598D02*
X78785714Y-130074884D01*
X78785714Y-130074884D02*
X78857142Y-130360598D01*
X78857142Y-130360598D02*
X78928571Y-130503455D01*
X78928571Y-130503455D02*
X79071428Y-130646312D01*
X79071428Y-130646312D02*
X79285714Y-130717741D01*
X79285714Y-130717741D02*
X79428571Y-130717741D01*
X79428571Y-130717741D02*
X79642857Y-130646312D01*
X79642857Y-130646312D02*
X79714285Y-130574884D01*
X79714285Y-130574884D02*
X79714285Y-130074884D01*
X79714285Y-130074884D02*
X79428571Y-130074884D01*
X80357142Y-130717741D02*
X80357142Y-129217741D01*
X80357142Y-129217741D02*
X81214285Y-130717741D01*
X81214285Y-130717741D02*
X81214285Y-129217741D01*
X81928571Y-130717741D02*
X81928571Y-129217741D01*
X81928571Y-129217741D02*
X82285714Y-129217741D01*
X82285714Y-129217741D02*
X82500000Y-129289170D01*
X82500000Y-129289170D02*
X82642857Y-129432027D01*
X82642857Y-129432027D02*
X82714286Y-129574884D01*
X82714286Y-129574884D02*
X82785714Y-129860598D01*
X82785714Y-129860598D02*
X82785714Y-130074884D01*
X82785714Y-130074884D02*
X82714286Y-130360598D01*
X82714286Y-130360598D02*
X82642857Y-130503455D01*
X82642857Y-130503455D02*
X82500000Y-130646312D01*
X82500000Y-130646312D02*
X82285714Y-130717741D01*
X82285714Y-130717741D02*
X81928571Y-130717741D01*
X79642857Y-126733615D02*
X79500000Y-126662186D01*
X79500000Y-126662186D02*
X79285714Y-126662186D01*
X79285714Y-126662186D02*
X79071428Y-126733615D01*
X79071428Y-126733615D02*
X78928571Y-126876472D01*
X78928571Y-126876472D02*
X78857142Y-127019329D01*
X78857142Y-127019329D02*
X78785714Y-127305043D01*
X78785714Y-127305043D02*
X78785714Y-127519329D01*
X78785714Y-127519329D02*
X78857142Y-127805043D01*
X78857142Y-127805043D02*
X78928571Y-127947900D01*
X78928571Y-127947900D02*
X79071428Y-128090757D01*
X79071428Y-128090757D02*
X79285714Y-128162186D01*
X79285714Y-128162186D02*
X79428571Y-128162186D01*
X79428571Y-128162186D02*
X79642857Y-128090757D01*
X79642857Y-128090757D02*
X79714285Y-128019329D01*
X79714285Y-128019329D02*
X79714285Y-127519329D01*
X79714285Y-127519329D02*
X79428571Y-127519329D01*
X80357142Y-128162186D02*
X80357142Y-126662186D01*
X80357142Y-126662186D02*
X81214285Y-128162186D01*
X81214285Y-128162186D02*
X81214285Y-126662186D01*
X81928571Y-128162186D02*
X81928571Y-126662186D01*
X81928571Y-126662186D02*
X82285714Y-126662186D01*
X82285714Y-126662186D02*
X82500000Y-126733615D01*
X82500000Y-126733615D02*
X82642857Y-126876472D01*
X82642857Y-126876472D02*
X82714286Y-127019329D01*
X82714286Y-127019329D02*
X82785714Y-127305043D01*
X82785714Y-127305043D02*
X82785714Y-127519329D01*
X82785714Y-127519329D02*
X82714286Y-127805043D01*
X82714286Y-127805043D02*
X82642857Y-127947900D01*
X82642857Y-127947900D02*
X82500000Y-128090757D01*
X82500000Y-128090757D02*
X82285714Y-128162186D01*
X82285714Y-128162186D02*
X81928571Y-128162186D01*
X79642857Y-144622500D02*
X79500000Y-144551071D01*
X79500000Y-144551071D02*
X79285714Y-144551071D01*
X79285714Y-144551071D02*
X79071428Y-144622500D01*
X79071428Y-144622500D02*
X78928571Y-144765357D01*
X78928571Y-144765357D02*
X78857142Y-144908214D01*
X78857142Y-144908214D02*
X78785714Y-145193928D01*
X78785714Y-145193928D02*
X78785714Y-145408214D01*
X78785714Y-145408214D02*
X78857142Y-145693928D01*
X78857142Y-145693928D02*
X78928571Y-145836785D01*
X78928571Y-145836785D02*
X79071428Y-145979642D01*
X79071428Y-145979642D02*
X79285714Y-146051071D01*
X79285714Y-146051071D02*
X79428571Y-146051071D01*
X79428571Y-146051071D02*
X79642857Y-145979642D01*
X79642857Y-145979642D02*
X79714285Y-145908214D01*
X79714285Y-145908214D02*
X79714285Y-145408214D01*
X79714285Y-145408214D02*
X79428571Y-145408214D01*
X80357142Y-146051071D02*
X80357142Y-144551071D01*
X80357142Y-144551071D02*
X81214285Y-146051071D01*
X81214285Y-146051071D02*
X81214285Y-144551071D01*
X81928571Y-146051071D02*
X81928571Y-144551071D01*
X81928571Y-144551071D02*
X82285714Y-144551071D01*
X82285714Y-144551071D02*
X82500000Y-144622500D01*
X82500000Y-144622500D02*
X82642857Y-144765357D01*
X82642857Y-144765357D02*
X82714286Y-144908214D01*
X82714286Y-144908214D02*
X82785714Y-145193928D01*
X82785714Y-145193928D02*
X82785714Y-145408214D01*
X82785714Y-145408214D02*
X82714286Y-145693928D01*
X82714286Y-145693928D02*
X82642857Y-145836785D01*
X82642857Y-145836785D02*
X82500000Y-145979642D01*
X82500000Y-145979642D02*
X82285714Y-146051071D01*
X82285714Y-146051071D02*
X81928571Y-146051071D01*
X78785714Y-135757422D02*
X79000000Y-135828851D01*
X79000000Y-135828851D02*
X79357142Y-135828851D01*
X79357142Y-135828851D02*
X79500000Y-135757422D01*
X79500000Y-135757422D02*
X79571428Y-135685994D01*
X79571428Y-135685994D02*
X79642857Y-135543137D01*
X79642857Y-135543137D02*
X79642857Y-135400280D01*
X79642857Y-135400280D02*
X79571428Y-135257422D01*
X79571428Y-135257422D02*
X79500000Y-135185994D01*
X79500000Y-135185994D02*
X79357142Y-135114565D01*
X79357142Y-135114565D02*
X79071428Y-135043137D01*
X79071428Y-135043137D02*
X78928571Y-134971708D01*
X78928571Y-134971708D02*
X78857142Y-134900280D01*
X78857142Y-134900280D02*
X78785714Y-134757422D01*
X78785714Y-134757422D02*
X78785714Y-134614565D01*
X78785714Y-134614565D02*
X78857142Y-134471708D01*
X78857142Y-134471708D02*
X78928571Y-134400280D01*
X78928571Y-134400280D02*
X79071428Y-134328851D01*
X79071428Y-134328851D02*
X79428571Y-134328851D01*
X79428571Y-134328851D02*
X79642857Y-134400280D01*
X80571428Y-134328851D02*
X80714285Y-134328851D01*
X80714285Y-134328851D02*
X80857142Y-134400280D01*
X80857142Y-134400280D02*
X80928571Y-134471708D01*
X80928571Y-134471708D02*
X80999999Y-134614565D01*
X80999999Y-134614565D02*
X81071428Y-134900280D01*
X81071428Y-134900280D02*
X81071428Y-135257422D01*
X81071428Y-135257422D02*
X80999999Y-135543137D01*
X80999999Y-135543137D02*
X80928571Y-135685994D01*
X80928571Y-135685994D02*
X80857142Y-135757422D01*
X80857142Y-135757422D02*
X80714285Y-135828851D01*
X80714285Y-135828851D02*
X80571428Y-135828851D01*
X80571428Y-135828851D02*
X80428571Y-135757422D01*
X80428571Y-135757422D02*
X80357142Y-135685994D01*
X80357142Y-135685994D02*
X80285713Y-135543137D01*
X80285713Y-135543137D02*
X80214285Y-135257422D01*
X80214285Y-135257422D02*
X80214285Y-134900280D01*
X80214285Y-134900280D02*
X80285713Y-134614565D01*
X80285713Y-134614565D02*
X80357142Y-134471708D01*
X80357142Y-134471708D02*
X80428571Y-134400280D01*
X80428571Y-134400280D02*
X80571428Y-134328851D01*
X77714286Y-141995516D02*
X77857143Y-141995516D01*
X77857143Y-141995516D02*
X78000000Y-142066945D01*
X78000000Y-142066945D02*
X78071429Y-142138373D01*
X78071429Y-142138373D02*
X78142857Y-142281230D01*
X78142857Y-142281230D02*
X78214286Y-142566945D01*
X78214286Y-142566945D02*
X78214286Y-142924087D01*
X78214286Y-142924087D02*
X78142857Y-143209802D01*
X78142857Y-143209802D02*
X78071429Y-143352659D01*
X78071429Y-143352659D02*
X78000000Y-143424087D01*
X78000000Y-143424087D02*
X77857143Y-143495516D01*
X77857143Y-143495516D02*
X77714286Y-143495516D01*
X77714286Y-143495516D02*
X77571429Y-143424087D01*
X77571429Y-143424087D02*
X77500000Y-143352659D01*
X77500000Y-143352659D02*
X77428571Y-143209802D01*
X77428571Y-143209802D02*
X77357143Y-142924087D01*
X77357143Y-142924087D02*
X77357143Y-142566945D01*
X77357143Y-142566945D02*
X77428571Y-142281230D01*
X77428571Y-142281230D02*
X77500000Y-142138373D01*
X77500000Y-142138373D02*
X77571429Y-142066945D01*
X77571429Y-142066945D02*
X77714286Y-141995516D01*
X79500000Y-143495516D02*
X79500000Y-141995516D01*
X79500000Y-143424087D02*
X79357142Y-143495516D01*
X79357142Y-143495516D02*
X79071428Y-143495516D01*
X79071428Y-143495516D02*
X78928571Y-143424087D01*
X78928571Y-143424087D02*
X78857142Y-143352659D01*
X78857142Y-143352659D02*
X78785714Y-143209802D01*
X78785714Y-143209802D02*
X78785714Y-142781230D01*
X78785714Y-142781230D02*
X78857142Y-142638373D01*
X78857142Y-142638373D02*
X78928571Y-142566945D01*
X78928571Y-142566945D02*
X79071428Y-142495516D01*
X79071428Y-142495516D02*
X79357142Y-142495516D01*
X79357142Y-142495516D02*
X79500000Y-142566945D01*
X80214285Y-143495516D02*
X80214285Y-141995516D01*
X80214285Y-142566945D02*
X80357143Y-142495516D01*
X80357143Y-142495516D02*
X80642857Y-142495516D01*
X80642857Y-142495516D02*
X80785714Y-142566945D01*
X80785714Y-142566945D02*
X80857143Y-142638373D01*
X80857143Y-142638373D02*
X80928571Y-142781230D01*
X80928571Y-142781230D02*
X80928571Y-143209802D01*
X80928571Y-143209802D02*
X80857143Y-143352659D01*
X80857143Y-143352659D02*
X80785714Y-143424087D01*
X80785714Y-143424087D02*
X80642857Y-143495516D01*
X80642857Y-143495516D02*
X80357143Y-143495516D01*
X80357143Y-143495516D02*
X80214285Y-143424087D01*
X81357143Y-141995516D02*
X81857143Y-143495516D01*
X81857143Y-143495516D02*
X82357143Y-141995516D01*
X76785714Y-132844725D02*
X77500000Y-132844725D01*
X76642857Y-133273296D02*
X77142857Y-131773296D01*
X77142857Y-131773296D02*
X77642857Y-133273296D01*
X77928571Y-131773296D02*
X78785714Y-131773296D01*
X78357142Y-133273296D02*
X78357142Y-131773296D01*
X79071428Y-131773296D02*
X79928571Y-131773296D01*
X79499999Y-133273296D02*
X79499999Y-131773296D01*
X80428570Y-132487582D02*
X80928570Y-132487582D01*
X81142856Y-133273296D02*
X80428570Y-133273296D01*
X80428570Y-133273296D02*
X80428570Y-131773296D01*
X80428570Y-131773296D02*
X81142856Y-131773296D01*
X81785713Y-133273296D02*
X81785713Y-131773296D01*
X81785713Y-131773296D02*
X82642856Y-133273296D01*
X82642856Y-133273296D02*
X82642856Y-131773296D01*
X79642857Y-139511390D02*
X79500000Y-139439961D01*
X79500000Y-139439961D02*
X79285714Y-139439961D01*
X79285714Y-139439961D02*
X79071428Y-139511390D01*
X79071428Y-139511390D02*
X78928571Y-139654247D01*
X78928571Y-139654247D02*
X78857142Y-139797104D01*
X78857142Y-139797104D02*
X78785714Y-140082818D01*
X78785714Y-140082818D02*
X78785714Y-140297104D01*
X78785714Y-140297104D02*
X78857142Y-140582818D01*
X78857142Y-140582818D02*
X78928571Y-140725675D01*
X78928571Y-140725675D02*
X79071428Y-140868532D01*
X79071428Y-140868532D02*
X79285714Y-140939961D01*
X79285714Y-140939961D02*
X79428571Y-140939961D01*
X79428571Y-140939961D02*
X79642857Y-140868532D01*
X79642857Y-140868532D02*
X79714285Y-140797104D01*
X79714285Y-140797104D02*
X79714285Y-140297104D01*
X79714285Y-140297104D02*
X79428571Y-140297104D01*
X80357142Y-140939961D02*
X80357142Y-139439961D01*
X80357142Y-139439961D02*
X81214285Y-140939961D01*
X81214285Y-140939961D02*
X81214285Y-139439961D01*
X81928571Y-140939961D02*
X81928571Y-139439961D01*
X81928571Y-139439961D02*
X82285714Y-139439961D01*
X82285714Y-139439961D02*
X82500000Y-139511390D01*
X82500000Y-139511390D02*
X82642857Y-139654247D01*
X82642857Y-139654247D02*
X82714286Y-139797104D01*
X82714286Y-139797104D02*
X82785714Y-140082818D01*
X82785714Y-140082818D02*
X82785714Y-140297104D01*
X82785714Y-140297104D02*
X82714286Y-140582818D01*
X82714286Y-140582818D02*
X82642857Y-140725675D01*
X82642857Y-140725675D02*
X82500000Y-140868532D01*
X82500000Y-140868532D02*
X82285714Y-140939961D01*
X82285714Y-140939961D02*
X81928571Y-140939961D01*
X78785714Y-138312977D02*
X79000000Y-138384406D01*
X79000000Y-138384406D02*
X79357142Y-138384406D01*
X79357142Y-138384406D02*
X79500000Y-138312977D01*
X79500000Y-138312977D02*
X79571428Y-138241549D01*
X79571428Y-138241549D02*
X79642857Y-138098692D01*
X79642857Y-138098692D02*
X79642857Y-137955835D01*
X79642857Y-137955835D02*
X79571428Y-137812977D01*
X79571428Y-137812977D02*
X79500000Y-137741549D01*
X79500000Y-137741549D02*
X79357142Y-137670120D01*
X79357142Y-137670120D02*
X79071428Y-137598692D01*
X79071428Y-137598692D02*
X78928571Y-137527263D01*
X78928571Y-137527263D02*
X78857142Y-137455835D01*
X78857142Y-137455835D02*
X78785714Y-137312977D01*
X78785714Y-137312977D02*
X78785714Y-137170120D01*
X78785714Y-137170120D02*
X78857142Y-137027263D01*
X78857142Y-137027263D02*
X78928571Y-136955835D01*
X78928571Y-136955835D02*
X79071428Y-136884406D01*
X79071428Y-136884406D02*
X79428571Y-136884406D01*
X79428571Y-136884406D02*
X79642857Y-136955835D01*
X80214285Y-137027263D02*
X80285713Y-136955835D01*
X80285713Y-136955835D02*
X80428571Y-136884406D01*
X80428571Y-136884406D02*
X80785713Y-136884406D01*
X80785713Y-136884406D02*
X80928571Y-136955835D01*
X80928571Y-136955835D02*
X80999999Y-137027263D01*
X80999999Y-137027263D02*
X81071428Y-137170120D01*
X81071428Y-137170120D02*
X81071428Y-137312977D01*
X81071428Y-137312977D02*
X80999999Y-137527263D01*
X80999999Y-137527263D02*
X80142856Y-138384406D01*
X80142856Y-138384406D02*
X81071428Y-138384406D01*
X79642857Y-147178060D02*
X79500000Y-147106631D01*
X79500000Y-147106631D02*
X79285714Y-147106631D01*
X79285714Y-147106631D02*
X79071428Y-147178060D01*
X79071428Y-147178060D02*
X78928571Y-147320917D01*
X78928571Y-147320917D02*
X78857142Y-147463774D01*
X78857142Y-147463774D02*
X78785714Y-147749488D01*
X78785714Y-147749488D02*
X78785714Y-147963774D01*
X78785714Y-147963774D02*
X78857142Y-148249488D01*
X78857142Y-148249488D02*
X78928571Y-148392345D01*
X78928571Y-148392345D02*
X79071428Y-148535202D01*
X79071428Y-148535202D02*
X79285714Y-148606631D01*
X79285714Y-148606631D02*
X79428571Y-148606631D01*
X79428571Y-148606631D02*
X79642857Y-148535202D01*
X79642857Y-148535202D02*
X79714285Y-148463774D01*
X79714285Y-148463774D02*
X79714285Y-147963774D01*
X79714285Y-147963774D02*
X79428571Y-147963774D01*
X80357142Y-148606631D02*
X80357142Y-147106631D01*
X80357142Y-147106631D02*
X81214285Y-148606631D01*
X81214285Y-148606631D02*
X81214285Y-147106631D01*
X81928571Y-148606631D02*
X81928571Y-147106631D01*
X81928571Y-147106631D02*
X82285714Y-147106631D01*
X82285714Y-147106631D02*
X82500000Y-147178060D01*
X82500000Y-147178060D02*
X82642857Y-147320917D01*
X82642857Y-147320917D02*
X82714286Y-147463774D01*
X82714286Y-147463774D02*
X82785714Y-147749488D01*
X82785714Y-147749488D02*
X82785714Y-147963774D01*
X82785714Y-147963774D02*
X82714286Y-148249488D01*
X82714286Y-148249488D02*
X82642857Y-148392345D01*
X82642857Y-148392345D02*
X82500000Y-148535202D01*
X82500000Y-148535202D02*
X82285714Y-148606631D01*
X82285714Y-148606631D02*
X81928571Y-148606631D01*
X90642857Y-124051071D02*
X91142857Y-125551071D01*
X91142857Y-125551071D02*
X91642857Y-124051071D01*
X92999999Y-125408214D02*
X92928571Y-125479642D01*
X92928571Y-125479642D02*
X92714285Y-125551071D01*
X92714285Y-125551071D02*
X92571428Y-125551071D01*
X92571428Y-125551071D02*
X92357142Y-125479642D01*
X92357142Y-125479642D02*
X92214285Y-125336785D01*
X92214285Y-125336785D02*
X92142856Y-125193928D01*
X92142856Y-125193928D02*
X92071428Y-124908214D01*
X92071428Y-124908214D02*
X92071428Y-124693928D01*
X92071428Y-124693928D02*
X92142856Y-124408214D01*
X92142856Y-124408214D02*
X92214285Y-124265357D01*
X92214285Y-124265357D02*
X92357142Y-124122500D01*
X92357142Y-124122500D02*
X92571428Y-124051071D01*
X92571428Y-124051071D02*
X92714285Y-124051071D01*
X92714285Y-124051071D02*
X92928571Y-124122500D01*
X92928571Y-124122500D02*
X92999999Y-124193928D01*
X94499999Y-125408214D02*
X94428571Y-125479642D01*
X94428571Y-125479642D02*
X94214285Y-125551071D01*
X94214285Y-125551071D02*
X94071428Y-125551071D01*
X94071428Y-125551071D02*
X93857142Y-125479642D01*
X93857142Y-125479642D02*
X93714285Y-125336785D01*
X93714285Y-125336785D02*
X93642856Y-125193928D01*
X93642856Y-125193928D02*
X93571428Y-124908214D01*
X93571428Y-124908214D02*
X93571428Y-124693928D01*
X93571428Y-124693928D02*
X93642856Y-124408214D01*
X93642856Y-124408214D02*
X93714285Y-124265357D01*
X93714285Y-124265357D02*
X93857142Y-124122500D01*
X93857142Y-124122500D02*
X94071428Y-124051071D01*
X94071428Y-124051071D02*
X94214285Y-124051071D01*
X94214285Y-124051071D02*
X94428571Y-124122500D01*
X94428571Y-124122500D02*
X94499999Y-124193928D01*
X91642857Y-126678055D02*
X91500000Y-126606626D01*
X91500000Y-126606626D02*
X91285714Y-126606626D01*
X91285714Y-126606626D02*
X91071428Y-126678055D01*
X91071428Y-126678055D02*
X90928571Y-126820912D01*
X90928571Y-126820912D02*
X90857142Y-126963769D01*
X90857142Y-126963769D02*
X90785714Y-127249483D01*
X90785714Y-127249483D02*
X90785714Y-127463769D01*
X90785714Y-127463769D02*
X90857142Y-127749483D01*
X90857142Y-127749483D02*
X90928571Y-127892340D01*
X90928571Y-127892340D02*
X91071428Y-128035197D01*
X91071428Y-128035197D02*
X91285714Y-128106626D01*
X91285714Y-128106626D02*
X91428571Y-128106626D01*
X91428571Y-128106626D02*
X91642857Y-128035197D01*
X91642857Y-128035197D02*
X91714285Y-127963769D01*
X91714285Y-127963769D02*
X91714285Y-127463769D01*
X91714285Y-127463769D02*
X91428571Y-127463769D01*
X92357142Y-128106626D02*
X92357142Y-126606626D01*
X92357142Y-126606626D02*
X93214285Y-128106626D01*
X93214285Y-128106626D02*
X93214285Y-126606626D01*
X93928571Y-128106626D02*
X93928571Y-126606626D01*
X93928571Y-126606626D02*
X94285714Y-126606626D01*
X94285714Y-126606626D02*
X94500000Y-126678055D01*
X94500000Y-126678055D02*
X94642857Y-126820912D01*
X94642857Y-126820912D02*
X94714286Y-126963769D01*
X94714286Y-126963769D02*
X94785714Y-127249483D01*
X94785714Y-127249483D02*
X94785714Y-127463769D01*
X94785714Y-127463769D02*
X94714286Y-127749483D01*
X94714286Y-127749483D02*
X94642857Y-127892340D01*
X94642857Y-127892340D02*
X94500000Y-128035197D01*
X94500000Y-128035197D02*
X94285714Y-128106626D01*
X94285714Y-128106626D02*
X93928571Y-128106626D01*
X91642857Y-129233610D02*
X91500000Y-129162181D01*
X91500000Y-129162181D02*
X91285714Y-129162181D01*
X91285714Y-129162181D02*
X91071428Y-129233610D01*
X91071428Y-129233610D02*
X90928571Y-129376467D01*
X90928571Y-129376467D02*
X90857142Y-129519324D01*
X90857142Y-129519324D02*
X90785714Y-129805038D01*
X90785714Y-129805038D02*
X90785714Y-130019324D01*
X90785714Y-130019324D02*
X90857142Y-130305038D01*
X90857142Y-130305038D02*
X90928571Y-130447895D01*
X90928571Y-130447895D02*
X91071428Y-130590752D01*
X91071428Y-130590752D02*
X91285714Y-130662181D01*
X91285714Y-130662181D02*
X91428571Y-130662181D01*
X91428571Y-130662181D02*
X91642857Y-130590752D01*
X91642857Y-130590752D02*
X91714285Y-130519324D01*
X91714285Y-130519324D02*
X91714285Y-130019324D01*
X91714285Y-130019324D02*
X91428571Y-130019324D01*
X92357142Y-130662181D02*
X92357142Y-129162181D01*
X92357142Y-129162181D02*
X93214285Y-130662181D01*
X93214285Y-130662181D02*
X93214285Y-129162181D01*
X93928571Y-130662181D02*
X93928571Y-129162181D01*
X93928571Y-129162181D02*
X94285714Y-129162181D01*
X94285714Y-129162181D02*
X94500000Y-129233610D01*
X94500000Y-129233610D02*
X94642857Y-129376467D01*
X94642857Y-129376467D02*
X94714286Y-129519324D01*
X94714286Y-129519324D02*
X94785714Y-129805038D01*
X94785714Y-129805038D02*
X94785714Y-130019324D01*
X94785714Y-130019324D02*
X94714286Y-130305038D01*
X94714286Y-130305038D02*
X94642857Y-130447895D01*
X94642857Y-130447895D02*
X94500000Y-130590752D01*
X94500000Y-130590752D02*
X94285714Y-130662181D01*
X94285714Y-130662181D02*
X93928571Y-130662181D01*
X91642857Y-131789165D02*
X91500000Y-131717736D01*
X91500000Y-131717736D02*
X91285714Y-131717736D01*
X91285714Y-131717736D02*
X91071428Y-131789165D01*
X91071428Y-131789165D02*
X90928571Y-131932022D01*
X90928571Y-131932022D02*
X90857142Y-132074879D01*
X90857142Y-132074879D02*
X90785714Y-132360593D01*
X90785714Y-132360593D02*
X90785714Y-132574879D01*
X90785714Y-132574879D02*
X90857142Y-132860593D01*
X90857142Y-132860593D02*
X90928571Y-133003450D01*
X90928571Y-133003450D02*
X91071428Y-133146307D01*
X91071428Y-133146307D02*
X91285714Y-133217736D01*
X91285714Y-133217736D02*
X91428571Y-133217736D01*
X91428571Y-133217736D02*
X91642857Y-133146307D01*
X91642857Y-133146307D02*
X91714285Y-133074879D01*
X91714285Y-133074879D02*
X91714285Y-132574879D01*
X91714285Y-132574879D02*
X91428571Y-132574879D01*
X92357142Y-133217736D02*
X92357142Y-131717736D01*
X92357142Y-131717736D02*
X93214285Y-133217736D01*
X93214285Y-133217736D02*
X93214285Y-131717736D01*
X93928571Y-133217736D02*
X93928571Y-131717736D01*
X93928571Y-131717736D02*
X94285714Y-131717736D01*
X94285714Y-131717736D02*
X94500000Y-131789165D01*
X94500000Y-131789165D02*
X94642857Y-131932022D01*
X94642857Y-131932022D02*
X94714286Y-132074879D01*
X94714286Y-132074879D02*
X94785714Y-132360593D01*
X94785714Y-132360593D02*
X94785714Y-132574879D01*
X94785714Y-132574879D02*
X94714286Y-132860593D01*
X94714286Y-132860593D02*
X94642857Y-133003450D01*
X94642857Y-133003450D02*
X94500000Y-133146307D01*
X94500000Y-133146307D02*
X94285714Y-133217736D01*
X94285714Y-133217736D02*
X93928571Y-133217736D01*
X90785714Y-135701862D02*
X91000000Y-135773291D01*
X91000000Y-135773291D02*
X91357142Y-135773291D01*
X91357142Y-135773291D02*
X91500000Y-135701862D01*
X91500000Y-135701862D02*
X91571428Y-135630434D01*
X91571428Y-135630434D02*
X91642857Y-135487577D01*
X91642857Y-135487577D02*
X91642857Y-135344720D01*
X91642857Y-135344720D02*
X91571428Y-135201862D01*
X91571428Y-135201862D02*
X91500000Y-135130434D01*
X91500000Y-135130434D02*
X91357142Y-135059005D01*
X91357142Y-135059005D02*
X91071428Y-134987577D01*
X91071428Y-134987577D02*
X90928571Y-134916148D01*
X90928571Y-134916148D02*
X90857142Y-134844720D01*
X90857142Y-134844720D02*
X90785714Y-134701862D01*
X90785714Y-134701862D02*
X90785714Y-134559005D01*
X90785714Y-134559005D02*
X90857142Y-134416148D01*
X90857142Y-134416148D02*
X90928571Y-134344720D01*
X90928571Y-134344720D02*
X91071428Y-134273291D01*
X91071428Y-134273291D02*
X91428571Y-134273291D01*
X91428571Y-134273291D02*
X91642857Y-134344720D01*
X93071428Y-135773291D02*
X92214285Y-135773291D01*
X92642856Y-135773291D02*
X92642856Y-134273291D01*
X92642856Y-134273291D02*
X92499999Y-134487577D01*
X92499999Y-134487577D02*
X92357142Y-134630434D01*
X92357142Y-134630434D02*
X92214285Y-134701862D01*
X90785714Y-138257417D02*
X91000000Y-138328846D01*
X91000000Y-138328846D02*
X91357142Y-138328846D01*
X91357142Y-138328846D02*
X91500000Y-138257417D01*
X91500000Y-138257417D02*
X91571428Y-138185989D01*
X91571428Y-138185989D02*
X91642857Y-138043132D01*
X91642857Y-138043132D02*
X91642857Y-137900275D01*
X91642857Y-137900275D02*
X91571428Y-137757417D01*
X91571428Y-137757417D02*
X91500000Y-137685989D01*
X91500000Y-137685989D02*
X91357142Y-137614560D01*
X91357142Y-137614560D02*
X91071428Y-137543132D01*
X91071428Y-137543132D02*
X90928571Y-137471703D01*
X90928571Y-137471703D02*
X90857142Y-137400275D01*
X90857142Y-137400275D02*
X90785714Y-137257417D01*
X90785714Y-137257417D02*
X90785714Y-137114560D01*
X90785714Y-137114560D02*
X90857142Y-136971703D01*
X90857142Y-136971703D02*
X90928571Y-136900275D01*
X90928571Y-136900275D02*
X91071428Y-136828846D01*
X91071428Y-136828846D02*
X91428571Y-136828846D01*
X91428571Y-136828846D02*
X91642857Y-136900275D01*
X92142856Y-136828846D02*
X93071428Y-136828846D01*
X93071428Y-136828846D02*
X92571428Y-137400275D01*
X92571428Y-137400275D02*
X92785713Y-137400275D01*
X92785713Y-137400275D02*
X92928571Y-137471703D01*
X92928571Y-137471703D02*
X92999999Y-137543132D01*
X92999999Y-137543132D02*
X93071428Y-137685989D01*
X93071428Y-137685989D02*
X93071428Y-138043132D01*
X93071428Y-138043132D02*
X92999999Y-138185989D01*
X92999999Y-138185989D02*
X92928571Y-138257417D01*
X92928571Y-138257417D02*
X92785713Y-138328846D01*
X92785713Y-138328846D02*
X92357142Y-138328846D01*
X92357142Y-138328846D02*
X92214285Y-138257417D01*
X92214285Y-138257417D02*
X92142856Y-138185989D01*
X91642857Y-139455830D02*
X91500000Y-139384401D01*
X91500000Y-139384401D02*
X91285714Y-139384401D01*
X91285714Y-139384401D02*
X91071428Y-139455830D01*
X91071428Y-139455830D02*
X90928571Y-139598687D01*
X90928571Y-139598687D02*
X90857142Y-139741544D01*
X90857142Y-139741544D02*
X90785714Y-140027258D01*
X90785714Y-140027258D02*
X90785714Y-140241544D01*
X90785714Y-140241544D02*
X90857142Y-140527258D01*
X90857142Y-140527258D02*
X90928571Y-140670115D01*
X90928571Y-140670115D02*
X91071428Y-140812972D01*
X91071428Y-140812972D02*
X91285714Y-140884401D01*
X91285714Y-140884401D02*
X91428571Y-140884401D01*
X91428571Y-140884401D02*
X91642857Y-140812972D01*
X91642857Y-140812972D02*
X91714285Y-140741544D01*
X91714285Y-140741544D02*
X91714285Y-140241544D01*
X91714285Y-140241544D02*
X91428571Y-140241544D01*
X92357142Y-140884401D02*
X92357142Y-139384401D01*
X92357142Y-139384401D02*
X93214285Y-140884401D01*
X93214285Y-140884401D02*
X93214285Y-139384401D01*
X93928571Y-140884401D02*
X93928571Y-139384401D01*
X93928571Y-139384401D02*
X94285714Y-139384401D01*
X94285714Y-139384401D02*
X94500000Y-139455830D01*
X94500000Y-139455830D02*
X94642857Y-139598687D01*
X94642857Y-139598687D02*
X94714286Y-139741544D01*
X94714286Y-139741544D02*
X94785714Y-140027258D01*
X94785714Y-140027258D02*
X94785714Y-140241544D01*
X94785714Y-140241544D02*
X94714286Y-140527258D01*
X94714286Y-140527258D02*
X94642857Y-140670115D01*
X94642857Y-140670115D02*
X94500000Y-140812972D01*
X94500000Y-140812972D02*
X94285714Y-140884401D01*
X94285714Y-140884401D02*
X93928571Y-140884401D01*
X91142857Y-141939956D02*
X91285714Y-141939956D01*
X91285714Y-141939956D02*
X91428571Y-142011385D01*
X91428571Y-142011385D02*
X91500000Y-142082813D01*
X91500000Y-142082813D02*
X91571428Y-142225670D01*
X91571428Y-142225670D02*
X91642857Y-142511385D01*
X91642857Y-142511385D02*
X91642857Y-142868527D01*
X91642857Y-142868527D02*
X91571428Y-143154242D01*
X91571428Y-143154242D02*
X91500000Y-143297099D01*
X91500000Y-143297099D02*
X91428571Y-143368527D01*
X91428571Y-143368527D02*
X91285714Y-143439956D01*
X91285714Y-143439956D02*
X91142857Y-143439956D01*
X91142857Y-143439956D02*
X91000000Y-143368527D01*
X91000000Y-143368527D02*
X90928571Y-143297099D01*
X90928571Y-143297099D02*
X90857142Y-143154242D01*
X90857142Y-143154242D02*
X90785714Y-142868527D01*
X90785714Y-142868527D02*
X90785714Y-142511385D01*
X90785714Y-142511385D02*
X90857142Y-142225670D01*
X90857142Y-142225670D02*
X90928571Y-142082813D01*
X90928571Y-142082813D02*
X91000000Y-142011385D01*
X91000000Y-142011385D02*
X91142857Y-141939956D01*
X92928571Y-143439956D02*
X92928571Y-141939956D01*
X92928571Y-143368527D02*
X92785713Y-143439956D01*
X92785713Y-143439956D02*
X92499999Y-143439956D01*
X92499999Y-143439956D02*
X92357142Y-143368527D01*
X92357142Y-143368527D02*
X92285713Y-143297099D01*
X92285713Y-143297099D02*
X92214285Y-143154242D01*
X92214285Y-143154242D02*
X92214285Y-142725670D01*
X92214285Y-142725670D02*
X92285713Y-142582813D01*
X92285713Y-142582813D02*
X92357142Y-142511385D01*
X92357142Y-142511385D02*
X92499999Y-142439956D01*
X92499999Y-142439956D02*
X92785713Y-142439956D01*
X92785713Y-142439956D02*
X92928571Y-142511385D01*
X93642856Y-143439956D02*
X93642856Y-141939956D01*
X93642856Y-142511385D02*
X93785714Y-142439956D01*
X93785714Y-142439956D02*
X94071428Y-142439956D01*
X94071428Y-142439956D02*
X94214285Y-142511385D01*
X94214285Y-142511385D02*
X94285714Y-142582813D01*
X94285714Y-142582813D02*
X94357142Y-142725670D01*
X94357142Y-142725670D02*
X94357142Y-143154242D01*
X94357142Y-143154242D02*
X94285714Y-143297099D01*
X94285714Y-143297099D02*
X94214285Y-143368527D01*
X94214285Y-143368527D02*
X94071428Y-143439956D01*
X94071428Y-143439956D02*
X93785714Y-143439956D01*
X93785714Y-143439956D02*
X93642856Y-143368527D01*
X94785714Y-141939956D02*
X95285714Y-143439956D01*
X95285714Y-143439956D02*
X95785714Y-141939956D01*
X91642857Y-144566940D02*
X91500000Y-144495511D01*
X91500000Y-144495511D02*
X91285714Y-144495511D01*
X91285714Y-144495511D02*
X91071428Y-144566940D01*
X91071428Y-144566940D02*
X90928571Y-144709797D01*
X90928571Y-144709797D02*
X90857142Y-144852654D01*
X90857142Y-144852654D02*
X90785714Y-145138368D01*
X90785714Y-145138368D02*
X90785714Y-145352654D01*
X90785714Y-145352654D02*
X90857142Y-145638368D01*
X90857142Y-145638368D02*
X90928571Y-145781225D01*
X90928571Y-145781225D02*
X91071428Y-145924082D01*
X91071428Y-145924082D02*
X91285714Y-145995511D01*
X91285714Y-145995511D02*
X91428571Y-145995511D01*
X91428571Y-145995511D02*
X91642857Y-145924082D01*
X91642857Y-145924082D02*
X91714285Y-145852654D01*
X91714285Y-145852654D02*
X91714285Y-145352654D01*
X91714285Y-145352654D02*
X91428571Y-145352654D01*
X92357142Y-145995511D02*
X92357142Y-144495511D01*
X92357142Y-144495511D02*
X93214285Y-145995511D01*
X93214285Y-145995511D02*
X93214285Y-144495511D01*
X93928571Y-145995511D02*
X93928571Y-144495511D01*
X93928571Y-144495511D02*
X94285714Y-144495511D01*
X94285714Y-144495511D02*
X94500000Y-144566940D01*
X94500000Y-144566940D02*
X94642857Y-144709797D01*
X94642857Y-144709797D02*
X94714286Y-144852654D01*
X94714286Y-144852654D02*
X94785714Y-145138368D01*
X94785714Y-145138368D02*
X94785714Y-145352654D01*
X94785714Y-145352654D02*
X94714286Y-145638368D01*
X94714286Y-145638368D02*
X94642857Y-145781225D01*
X94642857Y-145781225D02*
X94500000Y-145924082D01*
X94500000Y-145924082D02*
X94285714Y-145995511D01*
X94285714Y-145995511D02*
X93928571Y-145995511D01*
X91642857Y-147122500D02*
X91500000Y-147051071D01*
X91500000Y-147051071D02*
X91285714Y-147051071D01*
X91285714Y-147051071D02*
X91071428Y-147122500D01*
X91071428Y-147122500D02*
X90928571Y-147265357D01*
X90928571Y-147265357D02*
X90857142Y-147408214D01*
X90857142Y-147408214D02*
X90785714Y-147693928D01*
X90785714Y-147693928D02*
X90785714Y-147908214D01*
X90785714Y-147908214D02*
X90857142Y-148193928D01*
X90857142Y-148193928D02*
X90928571Y-148336785D01*
X90928571Y-148336785D02*
X91071428Y-148479642D01*
X91071428Y-148479642D02*
X91285714Y-148551071D01*
X91285714Y-148551071D02*
X91428571Y-148551071D01*
X91428571Y-148551071D02*
X91642857Y-148479642D01*
X91642857Y-148479642D02*
X91714285Y-148408214D01*
X91714285Y-148408214D02*
X91714285Y-147908214D01*
X91714285Y-147908214D02*
X91428571Y-147908214D01*
X92357142Y-148551071D02*
X92357142Y-147051071D01*
X92357142Y-147051071D02*
X93214285Y-148551071D01*
X93214285Y-148551071D02*
X93214285Y-147051071D01*
X93928571Y-148551071D02*
X93928571Y-147051071D01*
X93928571Y-147051071D02*
X94285714Y-147051071D01*
X94285714Y-147051071D02*
X94500000Y-147122500D01*
X94500000Y-147122500D02*
X94642857Y-147265357D01*
X94642857Y-147265357D02*
X94714286Y-147408214D01*
X94714286Y-147408214D02*
X94785714Y-147693928D01*
X94785714Y-147693928D02*
X94785714Y-147908214D01*
X94785714Y-147908214D02*
X94714286Y-148193928D01*
X94714286Y-148193928D02*
X94642857Y-148336785D01*
X94642857Y-148336785D02*
X94500000Y-148479642D01*
X94500000Y-148479642D02*
X94285714Y-148551071D01*
X94285714Y-148551071D02*
X93928571Y-148551071D01*
D11*
X144180952Y-144624595D02*
X144180952Y-145553166D01*
X144180952Y-145553166D02*
X144119047Y-145738880D01*
X144119047Y-145738880D02*
X143995238Y-145862690D01*
X143995238Y-145862690D02*
X143809523Y-145924595D01*
X143809523Y-145924595D02*
X143685714Y-145924595D01*
X144799999Y-145924595D02*
X144799999Y-144624595D01*
X144799999Y-144624595D02*
X145295237Y-144624595D01*
X145295237Y-144624595D02*
X145419047Y-144686500D01*
X145419047Y-144686500D02*
X145480952Y-144748404D01*
X145480952Y-144748404D02*
X145542856Y-144872214D01*
X145542856Y-144872214D02*
X145542856Y-145057928D01*
X145542856Y-145057928D02*
X145480952Y-145181738D01*
X145480952Y-145181738D02*
X145419047Y-145243642D01*
X145419047Y-145243642D02*
X145295237Y-145305547D01*
X145295237Y-145305547D02*
X144799999Y-145305547D01*
X146099999Y-145924595D02*
X146099999Y-144624595D01*
X146099999Y-144624595D02*
X146842856Y-145924595D01*
X146842856Y-145924595D02*
X146842856Y-144624595D01*
X149294285Y-145924595D02*
X149232381Y-145924595D01*
X149232381Y-145924595D02*
X149108571Y-145862690D01*
X149108571Y-145862690D02*
X148922857Y-145676976D01*
X148922857Y-145676976D02*
X148613333Y-145305547D01*
X148613333Y-145305547D02*
X148489523Y-145119833D01*
X148489523Y-145119833D02*
X148427619Y-144934119D01*
X148427619Y-144934119D02*
X148427619Y-144810309D01*
X148427619Y-144810309D02*
X148489523Y-144686500D01*
X148489523Y-144686500D02*
X148613333Y-144624595D01*
X148613333Y-144624595D02*
X148675238Y-144624595D01*
X148675238Y-144624595D02*
X148799047Y-144686500D01*
X148799047Y-144686500D02*
X148860952Y-144810309D01*
X148860952Y-144810309D02*
X148860952Y-144872214D01*
X148860952Y-144872214D02*
X148799047Y-144996023D01*
X148799047Y-144996023D02*
X148737142Y-145057928D01*
X148737142Y-145057928D02*
X148365714Y-145305547D01*
X148365714Y-145305547D02*
X148303809Y-145367452D01*
X148303809Y-145367452D02*
X148241904Y-145491261D01*
X148241904Y-145491261D02*
X148241904Y-145676976D01*
X148241904Y-145676976D02*
X148303809Y-145800785D01*
X148303809Y-145800785D02*
X148365714Y-145862690D01*
X148365714Y-145862690D02*
X148489523Y-145924595D01*
X148489523Y-145924595D02*
X148675238Y-145924595D01*
X148675238Y-145924595D02*
X148799047Y-145862690D01*
X148799047Y-145862690D02*
X148860952Y-145800785D01*
X148860952Y-145800785D02*
X149046666Y-145553166D01*
X149046666Y-145553166D02*
X149108571Y-145367452D01*
X149108571Y-145367452D02*
X149108571Y-145243642D01*
X151374285Y-145800785D02*
X151312381Y-145862690D01*
X151312381Y-145862690D02*
X151126666Y-145924595D01*
X151126666Y-145924595D02*
X151002857Y-145924595D01*
X151002857Y-145924595D02*
X150817143Y-145862690D01*
X150817143Y-145862690D02*
X150693333Y-145738880D01*
X150693333Y-145738880D02*
X150631428Y-145615071D01*
X150631428Y-145615071D02*
X150569524Y-145367452D01*
X150569524Y-145367452D02*
X150569524Y-145181738D01*
X150569524Y-145181738D02*
X150631428Y-144934119D01*
X150631428Y-144934119D02*
X150693333Y-144810309D01*
X150693333Y-144810309D02*
X150817143Y-144686500D01*
X150817143Y-144686500D02*
X151002857Y-144624595D01*
X151002857Y-144624595D02*
X151126666Y-144624595D01*
X151126666Y-144624595D02*
X151312381Y-144686500D01*
X151312381Y-144686500D02*
X151374285Y-144748404D01*
X151869524Y-145862690D02*
X152055238Y-145924595D01*
X152055238Y-145924595D02*
X152364762Y-145924595D01*
X152364762Y-145924595D02*
X152488571Y-145862690D01*
X152488571Y-145862690D02*
X152550476Y-145800785D01*
X152550476Y-145800785D02*
X152612381Y-145676976D01*
X152612381Y-145676976D02*
X152612381Y-145553166D01*
X152612381Y-145553166D02*
X152550476Y-145429357D01*
X152550476Y-145429357D02*
X152488571Y-145367452D01*
X152488571Y-145367452D02*
X152364762Y-145305547D01*
X152364762Y-145305547D02*
X152117143Y-145243642D01*
X152117143Y-145243642D02*
X151993333Y-145181738D01*
X151993333Y-145181738D02*
X151931428Y-145119833D01*
X151931428Y-145119833D02*
X151869524Y-144996023D01*
X151869524Y-144996023D02*
X151869524Y-144872214D01*
X151869524Y-144872214D02*
X151931428Y-144748404D01*
X151931428Y-144748404D02*
X151993333Y-144686500D01*
X151993333Y-144686500D02*
X152117143Y-144624595D01*
X152117143Y-144624595D02*
X152426666Y-144624595D01*
X152426666Y-144624595D02*
X152612381Y-144686500D01*
X153231428Y-145862690D02*
X153231428Y-145924595D01*
X153231428Y-145924595D02*
X153169523Y-146048404D01*
X153169523Y-146048404D02*
X153107619Y-146110309D01*
X154630476Y-144624595D02*
X154506667Y-144872214D01*
X155125715Y-144748404D02*
X155187619Y-144686500D01*
X155187619Y-144686500D02*
X155311429Y-144624595D01*
X155311429Y-144624595D02*
X155620953Y-144624595D01*
X155620953Y-144624595D02*
X155744762Y-144686500D01*
X155744762Y-144686500D02*
X155806667Y-144748404D01*
X155806667Y-144748404D02*
X155868572Y-144872214D01*
X155868572Y-144872214D02*
X155868572Y-144996023D01*
X155868572Y-144996023D02*
X155806667Y-145181738D01*
X155806667Y-145181738D02*
X155063810Y-145924595D01*
X155063810Y-145924595D02*
X155868572Y-145924595D01*
X156301905Y-144624595D02*
X157106667Y-144624595D01*
X157106667Y-144624595D02*
X156673333Y-145119833D01*
X156673333Y-145119833D02*
X156859048Y-145119833D01*
X156859048Y-145119833D02*
X156982857Y-145181738D01*
X156982857Y-145181738D02*
X157044762Y-145243642D01*
X157044762Y-145243642D02*
X157106667Y-145367452D01*
X157106667Y-145367452D02*
X157106667Y-145676976D01*
X157106667Y-145676976D02*
X157044762Y-145800785D01*
X157044762Y-145800785D02*
X156982857Y-145862690D01*
X156982857Y-145862690D02*
X156859048Y-145924595D01*
X156859048Y-145924595D02*
X156487619Y-145924595D01*
X156487619Y-145924595D02*
X156363810Y-145862690D01*
X156363810Y-145862690D02*
X156301905Y-145800785D01*
X144057142Y-146730595D02*
X144304761Y-146730595D01*
X144304761Y-146730595D02*
X144428571Y-146792500D01*
X144428571Y-146792500D02*
X144552380Y-146916309D01*
X144552380Y-146916309D02*
X144614285Y-147163928D01*
X144614285Y-147163928D02*
X144614285Y-147597261D01*
X144614285Y-147597261D02*
X144552380Y-147844880D01*
X144552380Y-147844880D02*
X144428571Y-147968690D01*
X144428571Y-147968690D02*
X144304761Y-148030595D01*
X144304761Y-148030595D02*
X144057142Y-148030595D01*
X144057142Y-148030595D02*
X143933333Y-147968690D01*
X143933333Y-147968690D02*
X143809523Y-147844880D01*
X143809523Y-147844880D02*
X143747619Y-147597261D01*
X143747619Y-147597261D02*
X143747619Y-147163928D01*
X143747619Y-147163928D02*
X143809523Y-146916309D01*
X143809523Y-146916309D02*
X143933333Y-146792500D01*
X143933333Y-146792500D02*
X144057142Y-146730595D01*
X145171428Y-147163928D02*
X145171428Y-148463928D01*
X145171428Y-147225833D02*
X145295238Y-147163928D01*
X145295238Y-147163928D02*
X145542857Y-147163928D01*
X145542857Y-147163928D02*
X145666666Y-147225833D01*
X145666666Y-147225833D02*
X145728571Y-147287738D01*
X145728571Y-147287738D02*
X145790476Y-147411547D01*
X145790476Y-147411547D02*
X145790476Y-147782976D01*
X145790476Y-147782976D02*
X145728571Y-147906785D01*
X145728571Y-147906785D02*
X145666666Y-147968690D01*
X145666666Y-147968690D02*
X145542857Y-148030595D01*
X145542857Y-148030595D02*
X145295238Y-148030595D01*
X145295238Y-148030595D02*
X145171428Y-147968690D01*
X146842856Y-147968690D02*
X146719047Y-148030595D01*
X146719047Y-148030595D02*
X146471428Y-148030595D01*
X146471428Y-148030595D02*
X146347618Y-147968690D01*
X146347618Y-147968690D02*
X146285714Y-147844880D01*
X146285714Y-147844880D02*
X146285714Y-147349642D01*
X146285714Y-147349642D02*
X146347618Y-147225833D01*
X146347618Y-147225833D02*
X146471428Y-147163928D01*
X146471428Y-147163928D02*
X146719047Y-147163928D01*
X146719047Y-147163928D02*
X146842856Y-147225833D01*
X146842856Y-147225833D02*
X146904761Y-147349642D01*
X146904761Y-147349642D02*
X146904761Y-147473452D01*
X146904761Y-147473452D02*
X146285714Y-147597261D01*
X147461904Y-147163928D02*
X147461904Y-148030595D01*
X147461904Y-147287738D02*
X147523809Y-147225833D01*
X147523809Y-147225833D02*
X147647619Y-147163928D01*
X147647619Y-147163928D02*
X147833333Y-147163928D01*
X147833333Y-147163928D02*
X147957142Y-147225833D01*
X147957142Y-147225833D02*
X148019047Y-147349642D01*
X148019047Y-147349642D02*
X148019047Y-148030595D01*
X149418094Y-147349642D02*
X149851428Y-147349642D01*
X150037142Y-148030595D02*
X149418094Y-148030595D01*
X149418094Y-148030595D02*
X149418094Y-146730595D01*
X149418094Y-146730595D02*
X150037142Y-146730595D01*
X150594284Y-147163928D02*
X150594284Y-148463928D01*
X150594284Y-147225833D02*
X150718094Y-147163928D01*
X150718094Y-147163928D02*
X150965713Y-147163928D01*
X150965713Y-147163928D02*
X151089522Y-147225833D01*
X151089522Y-147225833D02*
X151151427Y-147287738D01*
X151151427Y-147287738D02*
X151213332Y-147411547D01*
X151213332Y-147411547D02*
X151213332Y-147782976D01*
X151213332Y-147782976D02*
X151151427Y-147906785D01*
X151151427Y-147906785D02*
X151089522Y-147968690D01*
X151089522Y-147968690D02*
X150965713Y-148030595D01*
X150965713Y-148030595D02*
X150718094Y-148030595D01*
X150718094Y-148030595D02*
X150594284Y-147968690D01*
X151770474Y-148030595D02*
X151770474Y-146730595D01*
X152327617Y-148030595D02*
X152327617Y-147349642D01*
X152327617Y-147349642D02*
X152265712Y-147225833D01*
X152265712Y-147225833D02*
X152141903Y-147163928D01*
X152141903Y-147163928D02*
X151956189Y-147163928D01*
X151956189Y-147163928D02*
X151832379Y-147225833D01*
X151832379Y-147225833D02*
X151770474Y-147287738D01*
X152822855Y-147163928D02*
X153132379Y-148030595D01*
X153441902Y-147163928D02*
X153132379Y-148030595D01*
X153132379Y-148030595D02*
X153008569Y-148340119D01*
X153008569Y-148340119D02*
X152946664Y-148402023D01*
X152946664Y-148402023D02*
X152822855Y-148463928D01*
X153875236Y-147968690D02*
X153999045Y-148030595D01*
X153999045Y-148030595D02*
X154246664Y-148030595D01*
X154246664Y-148030595D02*
X154370474Y-147968690D01*
X154370474Y-147968690D02*
X154432378Y-147844880D01*
X154432378Y-147844880D02*
X154432378Y-147782976D01*
X154432378Y-147782976D02*
X154370474Y-147659166D01*
X154370474Y-147659166D02*
X154246664Y-147597261D01*
X154246664Y-147597261D02*
X154060950Y-147597261D01*
X154060950Y-147597261D02*
X153937140Y-147535357D01*
X153937140Y-147535357D02*
X153875236Y-147411547D01*
X153875236Y-147411547D02*
X153875236Y-147349642D01*
X153875236Y-147349642D02*
X153937140Y-147225833D01*
X153937140Y-147225833D02*
X154060950Y-147163928D01*
X154060950Y-147163928D02*
X154246664Y-147163928D01*
X154246664Y-147163928D02*
X154370474Y-147225833D01*
X155769521Y-148030595D02*
X155769521Y-146730595D01*
X156388569Y-147163928D02*
X156388569Y-148030595D01*
X156388569Y-147287738D02*
X156450474Y-147225833D01*
X156450474Y-147225833D02*
X156574284Y-147163928D01*
X156574284Y-147163928D02*
X156759998Y-147163928D01*
X156759998Y-147163928D02*
X156883807Y-147225833D01*
X156883807Y-147225833D02*
X156945712Y-147349642D01*
X156945712Y-147349642D02*
X156945712Y-148030595D01*
X158121902Y-147968690D02*
X157998093Y-148030595D01*
X157998093Y-148030595D02*
X157750474Y-148030595D01*
X157750474Y-148030595D02*
X157626664Y-147968690D01*
X157626664Y-147968690D02*
X157564759Y-147906785D01*
X157564759Y-147906785D02*
X157502855Y-147782976D01*
X157502855Y-147782976D02*
X157502855Y-147411547D01*
X157502855Y-147411547D02*
X157564759Y-147287738D01*
X157564759Y-147287738D02*
X157626664Y-147225833D01*
X157626664Y-147225833D02*
X157750474Y-147163928D01*
X157750474Y-147163928D02*
X157998093Y-147163928D01*
X157998093Y-147163928D02*
X158121902Y-147225833D01*
X158679045Y-147906785D02*
X158740950Y-147968690D01*
X158740950Y-147968690D02*
X158679045Y-148030595D01*
X158679045Y-148030595D02*
X158617141Y-147968690D01*
X158617141Y-147968690D02*
X158679045Y-147906785D01*
X158679045Y-147906785D02*
X158679045Y-148030595D01*
D10*
X143904761Y-139357072D02*
X144471428Y-139357072D01*
X144714285Y-140247548D02*
X143904761Y-140247548D01*
X143904761Y-140247548D02*
X143904761Y-138547548D01*
X143904761Y-138547548D02*
X144714285Y-138547548D01*
X145442856Y-139114215D02*
X145442856Y-140814215D01*
X145442856Y-139195167D02*
X145604761Y-139114215D01*
X145604761Y-139114215D02*
X145928571Y-139114215D01*
X145928571Y-139114215D02*
X146090475Y-139195167D01*
X146090475Y-139195167D02*
X146171428Y-139276120D01*
X146171428Y-139276120D02*
X146252380Y-139438024D01*
X146252380Y-139438024D02*
X146252380Y-139923739D01*
X146252380Y-139923739D02*
X146171428Y-140085643D01*
X146171428Y-140085643D02*
X146090475Y-140166596D01*
X146090475Y-140166596D02*
X145928571Y-140247548D01*
X145928571Y-140247548D02*
X145604761Y-140247548D01*
X145604761Y-140247548D02*
X145442856Y-140166596D01*
X146980951Y-140247548D02*
X146980951Y-138547548D01*
X147709523Y-140247548D02*
X147709523Y-139357072D01*
X147709523Y-139357072D02*
X147628570Y-139195167D01*
X147628570Y-139195167D02*
X147466666Y-139114215D01*
X147466666Y-139114215D02*
X147223809Y-139114215D01*
X147223809Y-139114215D02*
X147061904Y-139195167D01*
X147061904Y-139195167D02*
X146980951Y-139276120D01*
X148357142Y-139114215D02*
X148761904Y-140247548D01*
X149166665Y-139114215D02*
X148761904Y-140247548D01*
X148761904Y-140247548D02*
X148599999Y-140652310D01*
X148599999Y-140652310D02*
X148519046Y-140733262D01*
X148519046Y-140733262D02*
X148357142Y-140814215D01*
X149733332Y-140166596D02*
X149895237Y-140247548D01*
X149895237Y-140247548D02*
X150219046Y-140247548D01*
X150219046Y-140247548D02*
X150380951Y-140166596D01*
X150380951Y-140166596D02*
X150461903Y-140004691D01*
X150461903Y-140004691D02*
X150461903Y-139923739D01*
X150461903Y-139923739D02*
X150380951Y-139761834D01*
X150380951Y-139761834D02*
X150219046Y-139680881D01*
X150219046Y-139680881D02*
X149976189Y-139680881D01*
X149976189Y-139680881D02*
X149814284Y-139599929D01*
X149814284Y-139599929D02*
X149733332Y-139438024D01*
X149733332Y-139438024D02*
X149733332Y-139357072D01*
X149733332Y-139357072D02*
X149814284Y-139195167D01*
X149814284Y-139195167D02*
X149976189Y-139114215D01*
X149976189Y-139114215D02*
X150219046Y-139114215D01*
X150219046Y-139114215D02*
X150380951Y-139195167D01*
X151967617Y-138547548D02*
X152939046Y-138547548D01*
X152453332Y-140247548D02*
X152453332Y-138547548D01*
X154153331Y-140166596D02*
X153991427Y-140247548D01*
X153991427Y-140247548D02*
X153667617Y-140247548D01*
X153667617Y-140247548D02*
X153505712Y-140166596D01*
X153505712Y-140166596D02*
X153424760Y-140004691D01*
X153424760Y-140004691D02*
X153424760Y-139357072D01*
X153424760Y-139357072D02*
X153505712Y-139195167D01*
X153505712Y-139195167D02*
X153667617Y-139114215D01*
X153667617Y-139114215D02*
X153991427Y-139114215D01*
X153991427Y-139114215D02*
X154153331Y-139195167D01*
X154153331Y-139195167D02*
X154234284Y-139357072D01*
X154234284Y-139357072D02*
X154234284Y-139518977D01*
X154234284Y-139518977D02*
X153424760Y-139680881D01*
X154881903Y-140166596D02*
X155043808Y-140247548D01*
X155043808Y-140247548D02*
X155367617Y-140247548D01*
X155367617Y-140247548D02*
X155529522Y-140166596D01*
X155529522Y-140166596D02*
X155610474Y-140004691D01*
X155610474Y-140004691D02*
X155610474Y-139923739D01*
X155610474Y-139923739D02*
X155529522Y-139761834D01*
X155529522Y-139761834D02*
X155367617Y-139680881D01*
X155367617Y-139680881D02*
X155124760Y-139680881D01*
X155124760Y-139680881D02*
X154962855Y-139599929D01*
X154962855Y-139599929D02*
X154881903Y-139438024D01*
X154881903Y-139438024D02*
X154881903Y-139357072D01*
X154881903Y-139357072D02*
X154962855Y-139195167D01*
X154962855Y-139195167D02*
X155124760Y-139114215D01*
X155124760Y-139114215D02*
X155367617Y-139114215D01*
X155367617Y-139114215D02*
X155529522Y-139195167D01*
X156096188Y-139114215D02*
X156743807Y-139114215D01*
X156339045Y-138547548D02*
X156339045Y-140004691D01*
X156339045Y-140004691D02*
X156419998Y-140166596D01*
X156419998Y-140166596D02*
X156581903Y-140247548D01*
X156581903Y-140247548D02*
X156743807Y-140247548D01*
X158897141Y-139357072D02*
X159139998Y-139438024D01*
X159139998Y-139438024D02*
X159220951Y-139518977D01*
X159220951Y-139518977D02*
X159301903Y-139680881D01*
X159301903Y-139680881D02*
X159301903Y-139923739D01*
X159301903Y-139923739D02*
X159220951Y-140085643D01*
X159220951Y-140085643D02*
X159139998Y-140166596D01*
X159139998Y-140166596D02*
X158978093Y-140247548D01*
X158978093Y-140247548D02*
X158330474Y-140247548D01*
X158330474Y-140247548D02*
X158330474Y-138547548D01*
X158330474Y-138547548D02*
X158897141Y-138547548D01*
X158897141Y-138547548D02*
X159059046Y-138628501D01*
X159059046Y-138628501D02*
X159139998Y-138709453D01*
X159139998Y-138709453D02*
X159220951Y-138871358D01*
X159220951Y-138871358D02*
X159220951Y-139033262D01*
X159220951Y-139033262D02*
X159139998Y-139195167D01*
X159139998Y-139195167D02*
X159059046Y-139276120D01*
X159059046Y-139276120D02*
X158897141Y-139357072D01*
X158897141Y-139357072D02*
X158330474Y-139357072D01*
X160273332Y-140247548D02*
X160111427Y-140166596D01*
X160111427Y-140166596D02*
X160030474Y-140085643D01*
X160030474Y-140085643D02*
X159949522Y-139923739D01*
X159949522Y-139923739D02*
X159949522Y-139438024D01*
X159949522Y-139438024D02*
X160030474Y-139276120D01*
X160030474Y-139276120D02*
X160111427Y-139195167D01*
X160111427Y-139195167D02*
X160273332Y-139114215D01*
X160273332Y-139114215D02*
X160516189Y-139114215D01*
X160516189Y-139114215D02*
X160678093Y-139195167D01*
X160678093Y-139195167D02*
X160759046Y-139276120D01*
X160759046Y-139276120D02*
X160839998Y-139438024D01*
X160839998Y-139438024D02*
X160839998Y-139923739D01*
X160839998Y-139923739D02*
X160759046Y-140085643D01*
X160759046Y-140085643D02*
X160678093Y-140166596D01*
X160678093Y-140166596D02*
X160516189Y-140247548D01*
X160516189Y-140247548D02*
X160273332Y-140247548D01*
X162297141Y-140247548D02*
X162297141Y-139357072D01*
X162297141Y-139357072D02*
X162216188Y-139195167D01*
X162216188Y-139195167D02*
X162054284Y-139114215D01*
X162054284Y-139114215D02*
X161730474Y-139114215D01*
X161730474Y-139114215D02*
X161568569Y-139195167D01*
X162297141Y-140166596D02*
X162135236Y-140247548D01*
X162135236Y-140247548D02*
X161730474Y-140247548D01*
X161730474Y-140247548D02*
X161568569Y-140166596D01*
X161568569Y-140166596D02*
X161487617Y-140004691D01*
X161487617Y-140004691D02*
X161487617Y-139842786D01*
X161487617Y-139842786D02*
X161568569Y-139680881D01*
X161568569Y-139680881D02*
X161730474Y-139599929D01*
X161730474Y-139599929D02*
X162135236Y-139599929D01*
X162135236Y-139599929D02*
X162297141Y-139518977D01*
X163106664Y-140247548D02*
X163106664Y-139114215D01*
X163106664Y-139438024D02*
X163187617Y-139276120D01*
X163187617Y-139276120D02*
X163268569Y-139195167D01*
X163268569Y-139195167D02*
X163430474Y-139114215D01*
X163430474Y-139114215D02*
X163592379Y-139114215D01*
X164887617Y-140247548D02*
X164887617Y-138547548D01*
X164887617Y-140166596D02*
X164725712Y-140247548D01*
X164725712Y-140247548D02*
X164401903Y-140247548D01*
X164401903Y-140247548D02*
X164239998Y-140166596D01*
X164239998Y-140166596D02*
X164159045Y-140085643D01*
X164159045Y-140085643D02*
X164078093Y-139923739D01*
X164078093Y-139923739D02*
X164078093Y-139438024D01*
X164078093Y-139438024D02*
X164159045Y-139276120D01*
X164159045Y-139276120D02*
X164239998Y-139195167D01*
X164239998Y-139195167D02*
X164401903Y-139114215D01*
X164401903Y-139114215D02*
X164725712Y-139114215D01*
X164725712Y-139114215D02*
X164887617Y-139195167D01*
X143661904Y-141301548D02*
X144633333Y-141301548D01*
X144147619Y-143001548D02*
X144147619Y-141301548D01*
X145847618Y-142920596D02*
X145685714Y-143001548D01*
X145685714Y-143001548D02*
X145361904Y-143001548D01*
X145361904Y-143001548D02*
X145199999Y-142920596D01*
X145199999Y-142920596D02*
X145119047Y-142758691D01*
X145119047Y-142758691D02*
X145119047Y-142111072D01*
X145119047Y-142111072D02*
X145199999Y-141949167D01*
X145199999Y-141949167D02*
X145361904Y-141868215D01*
X145361904Y-141868215D02*
X145685714Y-141868215D01*
X145685714Y-141868215D02*
X145847618Y-141949167D01*
X145847618Y-141949167D02*
X145928571Y-142111072D01*
X145928571Y-142111072D02*
X145928571Y-142272977D01*
X145928571Y-142272977D02*
X145119047Y-142434881D01*
X146576190Y-142920596D02*
X146738095Y-143001548D01*
X146738095Y-143001548D02*
X147061904Y-143001548D01*
X147061904Y-143001548D02*
X147223809Y-142920596D01*
X147223809Y-142920596D02*
X147304761Y-142758691D01*
X147304761Y-142758691D02*
X147304761Y-142677739D01*
X147304761Y-142677739D02*
X147223809Y-142515834D01*
X147223809Y-142515834D02*
X147061904Y-142434881D01*
X147061904Y-142434881D02*
X146819047Y-142434881D01*
X146819047Y-142434881D02*
X146657142Y-142353929D01*
X146657142Y-142353929D02*
X146576190Y-142192024D01*
X146576190Y-142192024D02*
X146576190Y-142111072D01*
X146576190Y-142111072D02*
X146657142Y-141949167D01*
X146657142Y-141949167D02*
X146819047Y-141868215D01*
X146819047Y-141868215D02*
X147061904Y-141868215D01*
X147061904Y-141868215D02*
X147223809Y-141949167D01*
X147790475Y-141868215D02*
X148438094Y-141868215D01*
X148033332Y-141301548D02*
X148033332Y-142758691D01*
X148033332Y-142758691D02*
X148114285Y-142920596D01*
X148114285Y-142920596D02*
X148276190Y-143001548D01*
X148276190Y-143001548D02*
X148438094Y-143001548D01*
X150591428Y-142111072D02*
X150834285Y-142192024D01*
X150834285Y-142192024D02*
X150915238Y-142272977D01*
X150915238Y-142272977D02*
X150996190Y-142434881D01*
X150996190Y-142434881D02*
X150996190Y-142677739D01*
X150996190Y-142677739D02*
X150915238Y-142839643D01*
X150915238Y-142839643D02*
X150834285Y-142920596D01*
X150834285Y-142920596D02*
X150672380Y-143001548D01*
X150672380Y-143001548D02*
X150024761Y-143001548D01*
X150024761Y-143001548D02*
X150024761Y-141301548D01*
X150024761Y-141301548D02*
X150591428Y-141301548D01*
X150591428Y-141301548D02*
X150753333Y-141382501D01*
X150753333Y-141382501D02*
X150834285Y-141463453D01*
X150834285Y-141463453D02*
X150915238Y-141625358D01*
X150915238Y-141625358D02*
X150915238Y-141787262D01*
X150915238Y-141787262D02*
X150834285Y-141949167D01*
X150834285Y-141949167D02*
X150753333Y-142030120D01*
X150753333Y-142030120D02*
X150591428Y-142111072D01*
X150591428Y-142111072D02*
X150024761Y-142111072D01*
X151967619Y-143001548D02*
X151805714Y-142920596D01*
X151805714Y-142920596D02*
X151724761Y-142839643D01*
X151724761Y-142839643D02*
X151643809Y-142677739D01*
X151643809Y-142677739D02*
X151643809Y-142192024D01*
X151643809Y-142192024D02*
X151724761Y-142030120D01*
X151724761Y-142030120D02*
X151805714Y-141949167D01*
X151805714Y-141949167D02*
X151967619Y-141868215D01*
X151967619Y-141868215D02*
X152210476Y-141868215D01*
X152210476Y-141868215D02*
X152372380Y-141949167D01*
X152372380Y-141949167D02*
X152453333Y-142030120D01*
X152453333Y-142030120D02*
X152534285Y-142192024D01*
X152534285Y-142192024D02*
X152534285Y-142677739D01*
X152534285Y-142677739D02*
X152453333Y-142839643D01*
X152453333Y-142839643D02*
X152372380Y-142920596D01*
X152372380Y-142920596D02*
X152210476Y-143001548D01*
X152210476Y-143001548D02*
X151967619Y-143001548D01*
X153991428Y-143001548D02*
X153991428Y-142111072D01*
X153991428Y-142111072D02*
X153910475Y-141949167D01*
X153910475Y-141949167D02*
X153748571Y-141868215D01*
X153748571Y-141868215D02*
X153424761Y-141868215D01*
X153424761Y-141868215D02*
X153262856Y-141949167D01*
X153991428Y-142920596D02*
X153829523Y-143001548D01*
X153829523Y-143001548D02*
X153424761Y-143001548D01*
X153424761Y-143001548D02*
X153262856Y-142920596D01*
X153262856Y-142920596D02*
X153181904Y-142758691D01*
X153181904Y-142758691D02*
X153181904Y-142596786D01*
X153181904Y-142596786D02*
X153262856Y-142434881D01*
X153262856Y-142434881D02*
X153424761Y-142353929D01*
X153424761Y-142353929D02*
X153829523Y-142353929D01*
X153829523Y-142353929D02*
X153991428Y-142272977D01*
X154800951Y-143001548D02*
X154800951Y-141868215D01*
X154800951Y-142192024D02*
X154881904Y-142030120D01*
X154881904Y-142030120D02*
X154962856Y-141949167D01*
X154962856Y-141949167D02*
X155124761Y-141868215D01*
X155124761Y-141868215D02*
X155286666Y-141868215D01*
X156581904Y-143001548D02*
X156581904Y-141301548D01*
X156581904Y-142920596D02*
X156419999Y-143001548D01*
X156419999Y-143001548D02*
X156096190Y-143001548D01*
X156096190Y-143001548D02*
X155934285Y-142920596D01*
X155934285Y-142920596D02*
X155853332Y-142839643D01*
X155853332Y-142839643D02*
X155772380Y-142677739D01*
X155772380Y-142677739D02*
X155772380Y-142192024D01*
X155772380Y-142192024D02*
X155853332Y-142030120D01*
X155853332Y-142030120D02*
X155934285Y-141949167D01*
X155934285Y-141949167D02*
X156096190Y-141868215D01*
X156096190Y-141868215D02*
X156419999Y-141868215D01*
X156419999Y-141868215D02*
X156581904Y-141949167D01*
X169142857Y-74245000D02*
X169000000Y-74173571D01*
X169000000Y-74173571D02*
X168785714Y-74173571D01*
X168785714Y-74173571D02*
X168571428Y-74245000D01*
X168571428Y-74245000D02*
X168428571Y-74387857D01*
X168428571Y-74387857D02*
X168357142Y-74530714D01*
X168357142Y-74530714D02*
X168285714Y-74816428D01*
X168285714Y-74816428D02*
X168285714Y-75030714D01*
X168285714Y-75030714D02*
X168357142Y-75316428D01*
X168357142Y-75316428D02*
X168428571Y-75459285D01*
X168428571Y-75459285D02*
X168571428Y-75602142D01*
X168571428Y-75602142D02*
X168785714Y-75673571D01*
X168785714Y-75673571D02*
X168928571Y-75673571D01*
X168928571Y-75673571D02*
X169142857Y-75602142D01*
X169142857Y-75602142D02*
X169214285Y-75530714D01*
X169214285Y-75530714D02*
X169214285Y-75030714D01*
X169214285Y-75030714D02*
X168928571Y-75030714D01*
X169857142Y-75673571D02*
X169857142Y-74173571D01*
X169857142Y-74173571D02*
X170714285Y-75673571D01*
X170714285Y-75673571D02*
X170714285Y-74173571D01*
X171428571Y-75673571D02*
X171428571Y-74173571D01*
X171428571Y-74173571D02*
X171785714Y-74173571D01*
X171785714Y-74173571D02*
X172000000Y-74245000D01*
X172000000Y-74245000D02*
X172142857Y-74387857D01*
X172142857Y-74387857D02*
X172214286Y-74530714D01*
X172214286Y-74530714D02*
X172285714Y-74816428D01*
X172285714Y-74816428D02*
X172285714Y-75030714D01*
X172285714Y-75030714D02*
X172214286Y-75316428D01*
X172214286Y-75316428D02*
X172142857Y-75459285D01*
X172142857Y-75459285D02*
X172000000Y-75602142D01*
X172000000Y-75602142D02*
X171785714Y-75673571D01*
X171785714Y-75673571D02*
X171428571Y-75673571D01*
X79642857Y-74245000D02*
X79500000Y-74173571D01*
X79500000Y-74173571D02*
X79285714Y-74173571D01*
X79285714Y-74173571D02*
X79071428Y-74245000D01*
X79071428Y-74245000D02*
X78928571Y-74387857D01*
X78928571Y-74387857D02*
X78857142Y-74530714D01*
X78857142Y-74530714D02*
X78785714Y-74816428D01*
X78785714Y-74816428D02*
X78785714Y-75030714D01*
X78785714Y-75030714D02*
X78857142Y-75316428D01*
X78857142Y-75316428D02*
X78928571Y-75459285D01*
X78928571Y-75459285D02*
X79071428Y-75602142D01*
X79071428Y-75602142D02*
X79285714Y-75673571D01*
X79285714Y-75673571D02*
X79428571Y-75673571D01*
X79428571Y-75673571D02*
X79642857Y-75602142D01*
X79642857Y-75602142D02*
X79714285Y-75530714D01*
X79714285Y-75530714D02*
X79714285Y-75030714D01*
X79714285Y-75030714D02*
X79428571Y-75030714D01*
X80357142Y-75673571D02*
X80357142Y-74173571D01*
X80357142Y-74173571D02*
X81214285Y-75673571D01*
X81214285Y-75673571D02*
X81214285Y-74173571D01*
X81928571Y-75673571D02*
X81928571Y-74173571D01*
X81928571Y-74173571D02*
X82285714Y-74173571D01*
X82285714Y-74173571D02*
X82500000Y-74245000D01*
X82500000Y-74245000D02*
X82642857Y-74387857D01*
X82642857Y-74387857D02*
X82714286Y-74530714D01*
X82714286Y-74530714D02*
X82785714Y-74816428D01*
X82785714Y-74816428D02*
X82785714Y-75030714D01*
X82785714Y-75030714D02*
X82714286Y-75316428D01*
X82714286Y-75316428D02*
X82642857Y-75459285D01*
X82642857Y-75459285D02*
X82500000Y-75602142D01*
X82500000Y-75602142D02*
X82285714Y-75673571D01*
X82285714Y-75673571D02*
X81928571Y-75673571D01*
X168642857Y-154245000D02*
X168500000Y-154173571D01*
X168500000Y-154173571D02*
X168285714Y-154173571D01*
X168285714Y-154173571D02*
X168071428Y-154245000D01*
X168071428Y-154245000D02*
X167928571Y-154387857D01*
X167928571Y-154387857D02*
X167857142Y-154530714D01*
X167857142Y-154530714D02*
X167785714Y-154816428D01*
X167785714Y-154816428D02*
X167785714Y-155030714D01*
X167785714Y-155030714D02*
X167857142Y-155316428D01*
X167857142Y-155316428D02*
X167928571Y-155459285D01*
X167928571Y-155459285D02*
X168071428Y-155602142D01*
X168071428Y-155602142D02*
X168285714Y-155673571D01*
X168285714Y-155673571D02*
X168428571Y-155673571D01*
X168428571Y-155673571D02*
X168642857Y-155602142D01*
X168642857Y-155602142D02*
X168714285Y-155530714D01*
X168714285Y-155530714D02*
X168714285Y-155030714D01*
X168714285Y-155030714D02*
X168428571Y-155030714D01*
X169357142Y-155673571D02*
X169357142Y-154173571D01*
X169357142Y-154173571D02*
X170214285Y-155673571D01*
X170214285Y-155673571D02*
X170214285Y-154173571D01*
X170928571Y-155673571D02*
X170928571Y-154173571D01*
X170928571Y-154173571D02*
X171285714Y-154173571D01*
X171285714Y-154173571D02*
X171500000Y-154245000D01*
X171500000Y-154245000D02*
X171642857Y-154387857D01*
X171642857Y-154387857D02*
X171714286Y-154530714D01*
X171714286Y-154530714D02*
X171785714Y-154816428D01*
X171785714Y-154816428D02*
X171785714Y-155030714D01*
X171785714Y-155030714D02*
X171714286Y-155316428D01*
X171714286Y-155316428D02*
X171642857Y-155459285D01*
X171642857Y-155459285D02*
X171500000Y-155602142D01*
X171500000Y-155602142D02*
X171285714Y-155673571D01*
X171285714Y-155673571D02*
X170928571Y-155673571D01*
X85642857Y-157745000D02*
X85500000Y-157673571D01*
X85500000Y-157673571D02*
X85285714Y-157673571D01*
X85285714Y-157673571D02*
X85071428Y-157745000D01*
X85071428Y-157745000D02*
X84928571Y-157887857D01*
X84928571Y-157887857D02*
X84857142Y-158030714D01*
X84857142Y-158030714D02*
X84785714Y-158316428D01*
X84785714Y-158316428D02*
X84785714Y-158530714D01*
X84785714Y-158530714D02*
X84857142Y-158816428D01*
X84857142Y-158816428D02*
X84928571Y-158959285D01*
X84928571Y-158959285D02*
X85071428Y-159102142D01*
X85071428Y-159102142D02*
X85285714Y-159173571D01*
X85285714Y-159173571D02*
X85428571Y-159173571D01*
X85428571Y-159173571D02*
X85642857Y-159102142D01*
X85642857Y-159102142D02*
X85714285Y-159030714D01*
X85714285Y-159030714D02*
X85714285Y-158530714D01*
X85714285Y-158530714D02*
X85428571Y-158530714D01*
X86357142Y-159173571D02*
X86357142Y-157673571D01*
X86357142Y-157673571D02*
X87214285Y-159173571D01*
X87214285Y-159173571D02*
X87214285Y-157673571D01*
X87928571Y-159173571D02*
X87928571Y-157673571D01*
X87928571Y-157673571D02*
X88285714Y-157673571D01*
X88285714Y-157673571D02*
X88500000Y-157745000D01*
X88500000Y-157745000D02*
X88642857Y-157887857D01*
X88642857Y-157887857D02*
X88714286Y-158030714D01*
X88714286Y-158030714D02*
X88785714Y-158316428D01*
X88785714Y-158316428D02*
X88785714Y-158530714D01*
X88785714Y-158530714D02*
X88714286Y-158816428D01*
X88714286Y-158816428D02*
X88642857Y-158959285D01*
X88642857Y-158959285D02*
X88500000Y-159102142D01*
X88500000Y-159102142D02*
X88285714Y-159173571D01*
X88285714Y-159173571D02*
X87928571Y-159173571D01*
X136142857Y-139245000D02*
X136000000Y-139173571D01*
X136000000Y-139173571D02*
X135785714Y-139173571D01*
X135785714Y-139173571D02*
X135571428Y-139245000D01*
X135571428Y-139245000D02*
X135428571Y-139387857D01*
X135428571Y-139387857D02*
X135357142Y-139530714D01*
X135357142Y-139530714D02*
X135285714Y-139816428D01*
X135285714Y-139816428D02*
X135285714Y-140030714D01*
X135285714Y-140030714D02*
X135357142Y-140316428D01*
X135357142Y-140316428D02*
X135428571Y-140459285D01*
X135428571Y-140459285D02*
X135571428Y-140602142D01*
X135571428Y-140602142D02*
X135785714Y-140673571D01*
X135785714Y-140673571D02*
X135928571Y-140673571D01*
X135928571Y-140673571D02*
X136142857Y-140602142D01*
X136142857Y-140602142D02*
X136214285Y-140530714D01*
X136214285Y-140530714D02*
X136214285Y-140030714D01*
X136214285Y-140030714D02*
X135928571Y-140030714D01*
X136857142Y-140673571D02*
X136857142Y-139173571D01*
X136857142Y-139173571D02*
X137714285Y-140673571D01*
X137714285Y-140673571D02*
X137714285Y-139173571D01*
X138428571Y-140673571D02*
X138428571Y-139173571D01*
X138428571Y-139173571D02*
X138785714Y-139173571D01*
X138785714Y-139173571D02*
X139000000Y-139245000D01*
X139000000Y-139245000D02*
X139142857Y-139387857D01*
X139142857Y-139387857D02*
X139214286Y-139530714D01*
X139214286Y-139530714D02*
X139285714Y-139816428D01*
X139285714Y-139816428D02*
X139285714Y-140030714D01*
X139285714Y-140030714D02*
X139214286Y-140316428D01*
X139214286Y-140316428D02*
X139142857Y-140459285D01*
X139142857Y-140459285D02*
X139000000Y-140602142D01*
X139000000Y-140602142D02*
X138785714Y-140673571D01*
X138785714Y-140673571D02*
X138428571Y-140673571D01*
X118102142Y-101142857D02*
X118102142Y-100000000D01*
X117816428Y-99071428D02*
X117745000Y-99214285D01*
X117745000Y-99214285D02*
X117673571Y-99285714D01*
X117673571Y-99285714D02*
X117530714Y-99357142D01*
X117530714Y-99357142D02*
X117459285Y-99357142D01*
X117459285Y-99357142D02*
X117316428Y-99285714D01*
X117316428Y-99285714D02*
X117245000Y-99214285D01*
X117245000Y-99214285D02*
X117173571Y-99071428D01*
X117173571Y-99071428D02*
X117173571Y-98785714D01*
X117173571Y-98785714D02*
X117245000Y-98642857D01*
X117245000Y-98642857D02*
X117316428Y-98571428D01*
X117316428Y-98571428D02*
X117459285Y-98499999D01*
X117459285Y-98499999D02*
X117530714Y-98499999D01*
X117530714Y-98499999D02*
X117673571Y-98571428D01*
X117673571Y-98571428D02*
X117745000Y-98642857D01*
X117745000Y-98642857D02*
X117816428Y-98785714D01*
X117816428Y-98785714D02*
X117816428Y-99071428D01*
X117816428Y-99071428D02*
X117887857Y-99214285D01*
X117887857Y-99214285D02*
X117959285Y-99285714D01*
X117959285Y-99285714D02*
X118102142Y-99357142D01*
X118102142Y-99357142D02*
X118387857Y-99357142D01*
X118387857Y-99357142D02*
X118530714Y-99285714D01*
X118530714Y-99285714D02*
X118602142Y-99214285D01*
X118602142Y-99214285D02*
X118673571Y-99071428D01*
X118673571Y-99071428D02*
X118673571Y-98785714D01*
X118673571Y-98785714D02*
X118602142Y-98642857D01*
X118602142Y-98642857D02*
X118530714Y-98571428D01*
X118530714Y-98571428D02*
X118387857Y-98499999D01*
X118387857Y-98499999D02*
X118102142Y-98499999D01*
X118102142Y-98499999D02*
X117959285Y-98571428D01*
X117959285Y-98571428D02*
X117887857Y-98642857D01*
X117887857Y-98642857D02*
X117816428Y-98785714D01*
X117173571Y-97571428D02*
X117173571Y-97428571D01*
X117173571Y-97428571D02*
X117245000Y-97285714D01*
X117245000Y-97285714D02*
X117316428Y-97214286D01*
X117316428Y-97214286D02*
X117459285Y-97142857D01*
X117459285Y-97142857D02*
X117745000Y-97071428D01*
X117745000Y-97071428D02*
X118102142Y-97071428D01*
X118102142Y-97071428D02*
X118387857Y-97142857D01*
X118387857Y-97142857D02*
X118530714Y-97214286D01*
X118530714Y-97214286D02*
X118602142Y-97285714D01*
X118602142Y-97285714D02*
X118673571Y-97428571D01*
X118673571Y-97428571D02*
X118673571Y-97571428D01*
X118673571Y-97571428D02*
X118602142Y-97714286D01*
X118602142Y-97714286D02*
X118530714Y-97785714D01*
X118530714Y-97785714D02*
X118387857Y-97857143D01*
X118387857Y-97857143D02*
X118102142Y-97928571D01*
X118102142Y-97928571D02*
X117745000Y-97928571D01*
X117745000Y-97928571D02*
X117459285Y-97857143D01*
X117459285Y-97857143D02*
X117316428Y-97785714D01*
X117316428Y-97785714D02*
X117245000Y-97714286D01*
X117245000Y-97714286D02*
X117173571Y-97571428D01*
X118673571Y-95785715D02*
X117173571Y-95785715D01*
X118602142Y-95785715D02*
X118673571Y-95928572D01*
X118673571Y-95928572D02*
X118673571Y-96214286D01*
X118673571Y-96214286D02*
X118602142Y-96357143D01*
X118602142Y-96357143D02*
X118530714Y-96428572D01*
X118530714Y-96428572D02*
X118387857Y-96500000D01*
X118387857Y-96500000D02*
X117959285Y-96500000D01*
X117959285Y-96500000D02*
X117816428Y-96428572D01*
X117816428Y-96428572D02*
X117745000Y-96357143D01*
X117745000Y-96357143D02*
X117673571Y-96214286D01*
X117673571Y-96214286D02*
X117673571Y-95928572D01*
X117673571Y-95928572D02*
X117745000Y-95785715D01*
X117887857Y-94571429D02*
X117959285Y-94357143D01*
X117959285Y-94357143D02*
X118030714Y-94285714D01*
X118030714Y-94285714D02*
X118173571Y-94214286D01*
X118173571Y-94214286D02*
X118387857Y-94214286D01*
X118387857Y-94214286D02*
X118530714Y-94285714D01*
X118530714Y-94285714D02*
X118602142Y-94357143D01*
X118602142Y-94357143D02*
X118673571Y-94500000D01*
X118673571Y-94500000D02*
X118673571Y-95071429D01*
X118673571Y-95071429D02*
X117173571Y-95071429D01*
X117173571Y-95071429D02*
X117173571Y-94571429D01*
X117173571Y-94571429D02*
X117245000Y-94428572D01*
X117245000Y-94428572D02*
X117316428Y-94357143D01*
X117316428Y-94357143D02*
X117459285Y-94285714D01*
X117459285Y-94285714D02*
X117602142Y-94285714D01*
X117602142Y-94285714D02*
X117745000Y-94357143D01*
X117745000Y-94357143D02*
X117816428Y-94428572D01*
X117816428Y-94428572D02*
X117887857Y-94571429D01*
X117887857Y-94571429D02*
X117887857Y-95071429D01*
X117173571Y-93785714D02*
X118673571Y-93285714D01*
X118673571Y-93285714D02*
X117173571Y-92785714D01*
X113602142Y-101142857D02*
X113602142Y-100000000D01*
X113173571Y-98642857D02*
X114173571Y-98642857D01*
X112602142Y-98999999D02*
X113673571Y-99357142D01*
X113673571Y-99357142D02*
X113673571Y-98428571D01*
X112673571Y-97571428D02*
X112673571Y-97428571D01*
X112673571Y-97428571D02*
X112745000Y-97285714D01*
X112745000Y-97285714D02*
X112816428Y-97214286D01*
X112816428Y-97214286D02*
X112959285Y-97142857D01*
X112959285Y-97142857D02*
X113245000Y-97071428D01*
X113245000Y-97071428D02*
X113602142Y-97071428D01*
X113602142Y-97071428D02*
X113887857Y-97142857D01*
X113887857Y-97142857D02*
X114030714Y-97214286D01*
X114030714Y-97214286D02*
X114102142Y-97285714D01*
X114102142Y-97285714D02*
X114173571Y-97428571D01*
X114173571Y-97428571D02*
X114173571Y-97571428D01*
X114173571Y-97571428D02*
X114102142Y-97714286D01*
X114102142Y-97714286D02*
X114030714Y-97785714D01*
X114030714Y-97785714D02*
X113887857Y-97857143D01*
X113887857Y-97857143D02*
X113602142Y-97928571D01*
X113602142Y-97928571D02*
X113245000Y-97928571D01*
X113245000Y-97928571D02*
X112959285Y-97857143D01*
X112959285Y-97857143D02*
X112816428Y-97785714D01*
X112816428Y-97785714D02*
X112745000Y-97714286D01*
X112745000Y-97714286D02*
X112673571Y-97571428D01*
X114173571Y-95785715D02*
X112673571Y-95785715D01*
X114102142Y-95785715D02*
X114173571Y-95928572D01*
X114173571Y-95928572D02*
X114173571Y-96214286D01*
X114173571Y-96214286D02*
X114102142Y-96357143D01*
X114102142Y-96357143D02*
X114030714Y-96428572D01*
X114030714Y-96428572D02*
X113887857Y-96500000D01*
X113887857Y-96500000D02*
X113459285Y-96500000D01*
X113459285Y-96500000D02*
X113316428Y-96428572D01*
X113316428Y-96428572D02*
X113245000Y-96357143D01*
X113245000Y-96357143D02*
X113173571Y-96214286D01*
X113173571Y-96214286D02*
X113173571Y-95928572D01*
X113173571Y-95928572D02*
X113245000Y-95785715D01*
X113387857Y-94571429D02*
X113459285Y-94357143D01*
X113459285Y-94357143D02*
X113530714Y-94285714D01*
X113530714Y-94285714D02*
X113673571Y-94214286D01*
X113673571Y-94214286D02*
X113887857Y-94214286D01*
X113887857Y-94214286D02*
X114030714Y-94285714D01*
X114030714Y-94285714D02*
X114102142Y-94357143D01*
X114102142Y-94357143D02*
X114173571Y-94500000D01*
X114173571Y-94500000D02*
X114173571Y-95071429D01*
X114173571Y-95071429D02*
X112673571Y-95071429D01*
X112673571Y-95071429D02*
X112673571Y-94571429D01*
X112673571Y-94571429D02*
X112745000Y-94428572D01*
X112745000Y-94428572D02*
X112816428Y-94357143D01*
X112816428Y-94357143D02*
X112959285Y-94285714D01*
X112959285Y-94285714D02*
X113102142Y-94285714D01*
X113102142Y-94285714D02*
X113245000Y-94357143D01*
X113245000Y-94357143D02*
X113316428Y-94428572D01*
X113316428Y-94428572D02*
X113387857Y-94571429D01*
X113387857Y-94571429D02*
X113387857Y-95071429D01*
X112673571Y-93785714D02*
X114173571Y-93285714D01*
X114173571Y-93285714D02*
X112673571Y-92785714D01*
X108602142Y-101142857D02*
X108602142Y-100000000D01*
X107673571Y-98999999D02*
X107673571Y-98857142D01*
X107673571Y-98857142D02*
X107745000Y-98714285D01*
X107745000Y-98714285D02*
X107816428Y-98642857D01*
X107816428Y-98642857D02*
X107959285Y-98571428D01*
X107959285Y-98571428D02*
X108245000Y-98499999D01*
X108245000Y-98499999D02*
X108602142Y-98499999D01*
X108602142Y-98499999D02*
X108887857Y-98571428D01*
X108887857Y-98571428D02*
X109030714Y-98642857D01*
X109030714Y-98642857D02*
X109102142Y-98714285D01*
X109102142Y-98714285D02*
X109173571Y-98857142D01*
X109173571Y-98857142D02*
X109173571Y-98999999D01*
X109173571Y-98999999D02*
X109102142Y-99142857D01*
X109102142Y-99142857D02*
X109030714Y-99214285D01*
X109030714Y-99214285D02*
X108887857Y-99285714D01*
X108887857Y-99285714D02*
X108602142Y-99357142D01*
X108602142Y-99357142D02*
X108245000Y-99357142D01*
X108245000Y-99357142D02*
X107959285Y-99285714D01*
X107959285Y-99285714D02*
X107816428Y-99214285D01*
X107816428Y-99214285D02*
X107745000Y-99142857D01*
X107745000Y-99142857D02*
X107673571Y-98999999D01*
X109173571Y-97214286D02*
X107673571Y-97214286D01*
X109102142Y-97214286D02*
X109173571Y-97357143D01*
X109173571Y-97357143D02*
X109173571Y-97642857D01*
X109173571Y-97642857D02*
X109102142Y-97785714D01*
X109102142Y-97785714D02*
X109030714Y-97857143D01*
X109030714Y-97857143D02*
X108887857Y-97928571D01*
X108887857Y-97928571D02*
X108459285Y-97928571D01*
X108459285Y-97928571D02*
X108316428Y-97857143D01*
X108316428Y-97857143D02*
X108245000Y-97785714D01*
X108245000Y-97785714D02*
X108173571Y-97642857D01*
X108173571Y-97642857D02*
X108173571Y-97357143D01*
X108173571Y-97357143D02*
X108245000Y-97214286D01*
X108387857Y-96000000D02*
X108459285Y-95785714D01*
X108459285Y-95785714D02*
X108530714Y-95714285D01*
X108530714Y-95714285D02*
X108673571Y-95642857D01*
X108673571Y-95642857D02*
X108887857Y-95642857D01*
X108887857Y-95642857D02*
X109030714Y-95714285D01*
X109030714Y-95714285D02*
X109102142Y-95785714D01*
X109102142Y-95785714D02*
X109173571Y-95928571D01*
X109173571Y-95928571D02*
X109173571Y-96500000D01*
X109173571Y-96500000D02*
X107673571Y-96500000D01*
X107673571Y-96500000D02*
X107673571Y-96000000D01*
X107673571Y-96000000D02*
X107745000Y-95857143D01*
X107745000Y-95857143D02*
X107816428Y-95785714D01*
X107816428Y-95785714D02*
X107959285Y-95714285D01*
X107959285Y-95714285D02*
X108102142Y-95714285D01*
X108102142Y-95714285D02*
X108245000Y-95785714D01*
X108245000Y-95785714D02*
X108316428Y-95857143D01*
X108316428Y-95857143D02*
X108387857Y-96000000D01*
X108387857Y-96000000D02*
X108387857Y-96500000D01*
X107673571Y-95214285D02*
X109173571Y-94714285D01*
X109173571Y-94714285D02*
X107673571Y-94214285D01*
X151714285Y-95673571D02*
X151214285Y-94959285D01*
X150857142Y-95673571D02*
X150857142Y-94173571D01*
X150857142Y-94173571D02*
X151428571Y-94173571D01*
X151428571Y-94173571D02*
X151571428Y-94245000D01*
X151571428Y-94245000D02*
X151642857Y-94316428D01*
X151642857Y-94316428D02*
X151714285Y-94459285D01*
X151714285Y-94459285D02*
X151714285Y-94673571D01*
X151714285Y-94673571D02*
X151642857Y-94816428D01*
X151642857Y-94816428D02*
X151571428Y-94887857D01*
X151571428Y-94887857D02*
X151428571Y-94959285D01*
X151428571Y-94959285D02*
X150857142Y-94959285D01*
X152357142Y-94887857D02*
X152857142Y-94887857D01*
X153071428Y-95673571D02*
X152357142Y-95673571D01*
X152357142Y-95673571D02*
X152357142Y-94173571D01*
X152357142Y-94173571D02*
X153071428Y-94173571D01*
X154214285Y-94887857D02*
X153714285Y-94887857D01*
X153714285Y-95673571D02*
X153714285Y-94173571D01*
X153714285Y-94173571D02*
X154428571Y-94173571D01*
X151142857Y-90745000D02*
X151000000Y-90673571D01*
X151000000Y-90673571D02*
X150785714Y-90673571D01*
X150785714Y-90673571D02*
X150571428Y-90745000D01*
X150571428Y-90745000D02*
X150428571Y-90887857D01*
X150428571Y-90887857D02*
X150357142Y-91030714D01*
X150357142Y-91030714D02*
X150285714Y-91316428D01*
X150285714Y-91316428D02*
X150285714Y-91530714D01*
X150285714Y-91530714D02*
X150357142Y-91816428D01*
X150357142Y-91816428D02*
X150428571Y-91959285D01*
X150428571Y-91959285D02*
X150571428Y-92102142D01*
X150571428Y-92102142D02*
X150785714Y-92173571D01*
X150785714Y-92173571D02*
X150928571Y-92173571D01*
X150928571Y-92173571D02*
X151142857Y-92102142D01*
X151142857Y-92102142D02*
X151214285Y-92030714D01*
X151214285Y-92030714D02*
X151214285Y-91530714D01*
X151214285Y-91530714D02*
X150928571Y-91530714D01*
X151857142Y-92173571D02*
X151857142Y-90673571D01*
X151857142Y-90673571D02*
X152714285Y-92173571D01*
X152714285Y-92173571D02*
X152714285Y-90673571D01*
X153428571Y-92173571D02*
X153428571Y-90673571D01*
X153428571Y-90673571D02*
X153785714Y-90673571D01*
X153785714Y-90673571D02*
X154000000Y-90745000D01*
X154000000Y-90745000D02*
X154142857Y-90887857D01*
X154142857Y-90887857D02*
X154214286Y-91030714D01*
X154214286Y-91030714D02*
X154285714Y-91316428D01*
X154285714Y-91316428D02*
X154285714Y-91530714D01*
X154285714Y-91530714D02*
X154214286Y-91816428D01*
X154214286Y-91816428D02*
X154142857Y-91959285D01*
X154142857Y-91959285D02*
X154000000Y-92102142D01*
X154000000Y-92102142D02*
X153785714Y-92173571D01*
X153785714Y-92173571D02*
X153428571Y-92173571D01*
X133142857Y-88745000D02*
X133000000Y-88673571D01*
X133000000Y-88673571D02*
X132785714Y-88673571D01*
X132785714Y-88673571D02*
X132571428Y-88745000D01*
X132571428Y-88745000D02*
X132428571Y-88887857D01*
X132428571Y-88887857D02*
X132357142Y-89030714D01*
X132357142Y-89030714D02*
X132285714Y-89316428D01*
X132285714Y-89316428D02*
X132285714Y-89530714D01*
X132285714Y-89530714D02*
X132357142Y-89816428D01*
X132357142Y-89816428D02*
X132428571Y-89959285D01*
X132428571Y-89959285D02*
X132571428Y-90102142D01*
X132571428Y-90102142D02*
X132785714Y-90173571D01*
X132785714Y-90173571D02*
X132928571Y-90173571D01*
X132928571Y-90173571D02*
X133142857Y-90102142D01*
X133142857Y-90102142D02*
X133214285Y-90030714D01*
X133214285Y-90030714D02*
X133214285Y-89530714D01*
X133214285Y-89530714D02*
X132928571Y-89530714D01*
X133857142Y-90173571D02*
X133857142Y-88673571D01*
X133857142Y-88673571D02*
X134714285Y-90173571D01*
X134714285Y-90173571D02*
X134714285Y-88673571D01*
X135428571Y-90173571D02*
X135428571Y-88673571D01*
X135428571Y-88673571D02*
X135785714Y-88673571D01*
X135785714Y-88673571D02*
X136000000Y-88745000D01*
X136000000Y-88745000D02*
X136142857Y-88887857D01*
X136142857Y-88887857D02*
X136214286Y-89030714D01*
X136214286Y-89030714D02*
X136285714Y-89316428D01*
X136285714Y-89316428D02*
X136285714Y-89530714D01*
X136285714Y-89530714D02*
X136214286Y-89816428D01*
X136214286Y-89816428D02*
X136142857Y-89959285D01*
X136142857Y-89959285D02*
X136000000Y-90102142D01*
X136000000Y-90102142D02*
X135785714Y-90173571D01*
X135785714Y-90173571D02*
X135428571Y-90173571D01*
X105942857Y-86845000D02*
X105800000Y-86773571D01*
X105800000Y-86773571D02*
X105585714Y-86773571D01*
X105585714Y-86773571D02*
X105371428Y-86845000D01*
X105371428Y-86845000D02*
X105228571Y-86987857D01*
X105228571Y-86987857D02*
X105157142Y-87130714D01*
X105157142Y-87130714D02*
X105085714Y-87416428D01*
X105085714Y-87416428D02*
X105085714Y-87630714D01*
X105085714Y-87630714D02*
X105157142Y-87916428D01*
X105157142Y-87916428D02*
X105228571Y-88059285D01*
X105228571Y-88059285D02*
X105371428Y-88202142D01*
X105371428Y-88202142D02*
X105585714Y-88273571D01*
X105585714Y-88273571D02*
X105728571Y-88273571D01*
X105728571Y-88273571D02*
X105942857Y-88202142D01*
X105942857Y-88202142D02*
X106014285Y-88130714D01*
X106014285Y-88130714D02*
X106014285Y-87630714D01*
X106014285Y-87630714D02*
X105728571Y-87630714D01*
X106657142Y-88273571D02*
X106657142Y-86773571D01*
X106657142Y-86773571D02*
X107514285Y-88273571D01*
X107514285Y-88273571D02*
X107514285Y-86773571D01*
X108228571Y-88273571D02*
X108228571Y-86773571D01*
X108228571Y-86773571D02*
X108585714Y-86773571D01*
X108585714Y-86773571D02*
X108800000Y-86845000D01*
X108800000Y-86845000D02*
X108942857Y-86987857D01*
X108942857Y-86987857D02*
X109014286Y-87130714D01*
X109014286Y-87130714D02*
X109085714Y-87416428D01*
X109085714Y-87416428D02*
X109085714Y-87630714D01*
X109085714Y-87630714D02*
X109014286Y-87916428D01*
X109014286Y-87916428D02*
X108942857Y-88059285D01*
X108942857Y-88059285D02*
X108800000Y-88202142D01*
X108800000Y-88202142D02*
X108585714Y-88273571D01*
X108585714Y-88273571D02*
X108228571Y-88273571D01*
D12*
X159000000Y-110000000D02*
G75*
G03*
X159000000Y-110000000I-10000000J0D01*
G01*
%TO.C,U5*%
X127738095Y-123167380D02*
X127738095Y-123976904D01*
X127738095Y-123976904D02*
X127785714Y-124072142D01*
X127785714Y-124072142D02*
X127833333Y-124119761D01*
X127833333Y-124119761D02*
X127928571Y-124167380D01*
X127928571Y-124167380D02*
X128119047Y-124167380D01*
X128119047Y-124167380D02*
X128214285Y-124119761D01*
X128214285Y-124119761D02*
X128261904Y-124072142D01*
X128261904Y-124072142D02*
X128309523Y-123976904D01*
X128309523Y-123976904D02*
X128309523Y-123167380D01*
X129261904Y-123167380D02*
X128785714Y-123167380D01*
X128785714Y-123167380D02*
X128738095Y-123643571D01*
X128738095Y-123643571D02*
X128785714Y-123595952D01*
X128785714Y-123595952D02*
X128880952Y-123548333D01*
X128880952Y-123548333D02*
X129119047Y-123548333D01*
X129119047Y-123548333D02*
X129214285Y-123595952D01*
X129214285Y-123595952D02*
X129261904Y-123643571D01*
X129261904Y-123643571D02*
X129309523Y-123738809D01*
X129309523Y-123738809D02*
X129309523Y-123976904D01*
X129309523Y-123976904D02*
X129261904Y-124072142D01*
X129261904Y-124072142D02*
X129214285Y-124119761D01*
X129214285Y-124119761D02*
X129119047Y-124167380D01*
X129119047Y-124167380D02*
X128880952Y-124167380D01*
X128880952Y-124167380D02*
X128785714Y-124119761D01*
X128785714Y-124119761D02*
X128738095Y-124072142D01*
%TO.C,U4*%
X127738095Y-107067380D02*
X127738095Y-107876904D01*
X127738095Y-107876904D02*
X127785714Y-107972142D01*
X127785714Y-107972142D02*
X127833333Y-108019761D01*
X127833333Y-108019761D02*
X127928571Y-108067380D01*
X127928571Y-108067380D02*
X128119047Y-108067380D01*
X128119047Y-108067380D02*
X128214285Y-108019761D01*
X128214285Y-108019761D02*
X128261904Y-107972142D01*
X128261904Y-107972142D02*
X128309523Y-107876904D01*
X128309523Y-107876904D02*
X128309523Y-107067380D01*
X129214285Y-107400714D02*
X129214285Y-108067380D01*
X128976190Y-107019761D02*
X128738095Y-107734047D01*
X128738095Y-107734047D02*
X129357142Y-107734047D01*
%TO.C,U3*%
X127738095Y-115167380D02*
X127738095Y-115976904D01*
X127738095Y-115976904D02*
X127785714Y-116072142D01*
X127785714Y-116072142D02*
X127833333Y-116119761D01*
X127833333Y-116119761D02*
X127928571Y-116167380D01*
X127928571Y-116167380D02*
X128119047Y-116167380D01*
X128119047Y-116167380D02*
X128214285Y-116119761D01*
X128214285Y-116119761D02*
X128261904Y-116072142D01*
X128261904Y-116072142D02*
X128309523Y-115976904D01*
X128309523Y-115976904D02*
X128309523Y-115167380D01*
X128690476Y-115167380D02*
X129309523Y-115167380D01*
X129309523Y-115167380D02*
X128976190Y-115548333D01*
X128976190Y-115548333D02*
X129119047Y-115548333D01*
X129119047Y-115548333D02*
X129214285Y-115595952D01*
X129214285Y-115595952D02*
X129261904Y-115643571D01*
X129261904Y-115643571D02*
X129309523Y-115738809D01*
X129309523Y-115738809D02*
X129309523Y-115976904D01*
X129309523Y-115976904D02*
X129261904Y-116072142D01*
X129261904Y-116072142D02*
X129214285Y-116119761D01*
X129214285Y-116119761D02*
X129119047Y-116167380D01*
X129119047Y-116167380D02*
X128833333Y-116167380D01*
X128833333Y-116167380D02*
X128738095Y-116119761D01*
X128738095Y-116119761D02*
X128690476Y-116072142D01*
%TO.C,U2*%
X127738095Y-99267380D02*
X127738095Y-100076904D01*
X127738095Y-100076904D02*
X127785714Y-100172142D01*
X127785714Y-100172142D02*
X127833333Y-100219761D01*
X127833333Y-100219761D02*
X127928571Y-100267380D01*
X127928571Y-100267380D02*
X128119047Y-100267380D01*
X128119047Y-100267380D02*
X128214285Y-100219761D01*
X128214285Y-100219761D02*
X128261904Y-100172142D01*
X128261904Y-100172142D02*
X128309523Y-100076904D01*
X128309523Y-100076904D02*
X128309523Y-99267380D01*
X128738095Y-99362619D02*
X128785714Y-99315000D01*
X128785714Y-99315000D02*
X128880952Y-99267380D01*
X128880952Y-99267380D02*
X129119047Y-99267380D01*
X129119047Y-99267380D02*
X129214285Y-99315000D01*
X129214285Y-99315000D02*
X129261904Y-99362619D01*
X129261904Y-99362619D02*
X129309523Y-99457857D01*
X129309523Y-99457857D02*
X129309523Y-99553095D01*
X129309523Y-99553095D02*
X129261904Y-99695952D01*
X129261904Y-99695952D02*
X128690476Y-100267380D01*
X128690476Y-100267380D02*
X129309523Y-100267380D01*
%TO.C,U1*%
X117238095Y-111867380D02*
X117238095Y-112676904D01*
X117238095Y-112676904D02*
X117285714Y-112772142D01*
X117285714Y-112772142D02*
X117333333Y-112819761D01*
X117333333Y-112819761D02*
X117428571Y-112867380D01*
X117428571Y-112867380D02*
X117619047Y-112867380D01*
X117619047Y-112867380D02*
X117714285Y-112819761D01*
X117714285Y-112819761D02*
X117761904Y-112772142D01*
X117761904Y-112772142D02*
X117809523Y-112676904D01*
X117809523Y-112676904D02*
X117809523Y-111867380D01*
X118809523Y-112867380D02*
X118238095Y-112867380D01*
X118523809Y-112867380D02*
X118523809Y-111867380D01*
X118523809Y-111867380D02*
X118428571Y-112010238D01*
X118428571Y-112010238D02*
X118333333Y-112105476D01*
X118333333Y-112105476D02*
X118238095Y-112153095D01*
%TO.C,TP9*%
X107338095Y-102367380D02*
X107909523Y-102367380D01*
X107623809Y-103367380D02*
X107623809Y-102367380D01*
X108242857Y-103367380D02*
X108242857Y-102367380D01*
X108242857Y-102367380D02*
X108623809Y-102367380D01*
X108623809Y-102367380D02*
X108719047Y-102415000D01*
X108719047Y-102415000D02*
X108766666Y-102462619D01*
X108766666Y-102462619D02*
X108814285Y-102557857D01*
X108814285Y-102557857D02*
X108814285Y-102700714D01*
X108814285Y-102700714D02*
X108766666Y-102795952D01*
X108766666Y-102795952D02*
X108719047Y-102843571D01*
X108719047Y-102843571D02*
X108623809Y-102891190D01*
X108623809Y-102891190D02*
X108242857Y-102891190D01*
X109290476Y-103367380D02*
X109480952Y-103367380D01*
X109480952Y-103367380D02*
X109576190Y-103319761D01*
X109576190Y-103319761D02*
X109623809Y-103272142D01*
X109623809Y-103272142D02*
X109719047Y-103129285D01*
X109719047Y-103129285D02*
X109766666Y-102938809D01*
X109766666Y-102938809D02*
X109766666Y-102557857D01*
X109766666Y-102557857D02*
X109719047Y-102462619D01*
X109719047Y-102462619D02*
X109671428Y-102415000D01*
X109671428Y-102415000D02*
X109576190Y-102367380D01*
X109576190Y-102367380D02*
X109385714Y-102367380D01*
X109385714Y-102367380D02*
X109290476Y-102415000D01*
X109290476Y-102415000D02*
X109242857Y-102462619D01*
X109242857Y-102462619D02*
X109195238Y-102557857D01*
X109195238Y-102557857D02*
X109195238Y-102795952D01*
X109195238Y-102795952D02*
X109242857Y-102891190D01*
X109242857Y-102891190D02*
X109290476Y-102938809D01*
X109290476Y-102938809D02*
X109385714Y-102986428D01*
X109385714Y-102986428D02*
X109576190Y-102986428D01*
X109576190Y-102986428D02*
X109671428Y-102938809D01*
X109671428Y-102938809D02*
X109719047Y-102891190D01*
X109719047Y-102891190D02*
X109766666Y-102795952D01*
%TO.C,TP8*%
X116738095Y-102367380D02*
X117309523Y-102367380D01*
X117023809Y-103367380D02*
X117023809Y-102367380D01*
X117642857Y-103367380D02*
X117642857Y-102367380D01*
X117642857Y-102367380D02*
X118023809Y-102367380D01*
X118023809Y-102367380D02*
X118119047Y-102415000D01*
X118119047Y-102415000D02*
X118166666Y-102462619D01*
X118166666Y-102462619D02*
X118214285Y-102557857D01*
X118214285Y-102557857D02*
X118214285Y-102700714D01*
X118214285Y-102700714D02*
X118166666Y-102795952D01*
X118166666Y-102795952D02*
X118119047Y-102843571D01*
X118119047Y-102843571D02*
X118023809Y-102891190D01*
X118023809Y-102891190D02*
X117642857Y-102891190D01*
X118785714Y-102795952D02*
X118690476Y-102748333D01*
X118690476Y-102748333D02*
X118642857Y-102700714D01*
X118642857Y-102700714D02*
X118595238Y-102605476D01*
X118595238Y-102605476D02*
X118595238Y-102557857D01*
X118595238Y-102557857D02*
X118642857Y-102462619D01*
X118642857Y-102462619D02*
X118690476Y-102415000D01*
X118690476Y-102415000D02*
X118785714Y-102367380D01*
X118785714Y-102367380D02*
X118976190Y-102367380D01*
X118976190Y-102367380D02*
X119071428Y-102415000D01*
X119071428Y-102415000D02*
X119119047Y-102462619D01*
X119119047Y-102462619D02*
X119166666Y-102557857D01*
X119166666Y-102557857D02*
X119166666Y-102605476D01*
X119166666Y-102605476D02*
X119119047Y-102700714D01*
X119119047Y-102700714D02*
X119071428Y-102748333D01*
X119071428Y-102748333D02*
X118976190Y-102795952D01*
X118976190Y-102795952D02*
X118785714Y-102795952D01*
X118785714Y-102795952D02*
X118690476Y-102843571D01*
X118690476Y-102843571D02*
X118642857Y-102891190D01*
X118642857Y-102891190D02*
X118595238Y-102986428D01*
X118595238Y-102986428D02*
X118595238Y-103176904D01*
X118595238Y-103176904D02*
X118642857Y-103272142D01*
X118642857Y-103272142D02*
X118690476Y-103319761D01*
X118690476Y-103319761D02*
X118785714Y-103367380D01*
X118785714Y-103367380D02*
X118976190Y-103367380D01*
X118976190Y-103367380D02*
X119071428Y-103319761D01*
X119071428Y-103319761D02*
X119119047Y-103272142D01*
X119119047Y-103272142D02*
X119166666Y-103176904D01*
X119166666Y-103176904D02*
X119166666Y-102986428D01*
X119166666Y-102986428D02*
X119119047Y-102891190D01*
X119119047Y-102891190D02*
X119071428Y-102843571D01*
X119071428Y-102843571D02*
X118976190Y-102795952D01*
%TO.C,TP7*%
X100738095Y-84469380D02*
X101309523Y-84469380D01*
X101023809Y-85469380D02*
X101023809Y-84469380D01*
X101642857Y-85469380D02*
X101642857Y-84469380D01*
X101642857Y-84469380D02*
X102023809Y-84469380D01*
X102023809Y-84469380D02*
X102119047Y-84517000D01*
X102119047Y-84517000D02*
X102166666Y-84564619D01*
X102166666Y-84564619D02*
X102214285Y-84659857D01*
X102214285Y-84659857D02*
X102214285Y-84802714D01*
X102214285Y-84802714D02*
X102166666Y-84897952D01*
X102166666Y-84897952D02*
X102119047Y-84945571D01*
X102119047Y-84945571D02*
X102023809Y-84993190D01*
X102023809Y-84993190D02*
X101642857Y-84993190D01*
X102547619Y-84469380D02*
X103214285Y-84469380D01*
X103214285Y-84469380D02*
X102785714Y-85469380D01*
%TO.C,TP6*%
X127838095Y-86869380D02*
X128409523Y-86869380D01*
X128123809Y-87869380D02*
X128123809Y-86869380D01*
X128742857Y-87869380D02*
X128742857Y-86869380D01*
X128742857Y-86869380D02*
X129123809Y-86869380D01*
X129123809Y-86869380D02*
X129219047Y-86917000D01*
X129219047Y-86917000D02*
X129266666Y-86964619D01*
X129266666Y-86964619D02*
X129314285Y-87059857D01*
X129314285Y-87059857D02*
X129314285Y-87202714D01*
X129314285Y-87202714D02*
X129266666Y-87297952D01*
X129266666Y-87297952D02*
X129219047Y-87345571D01*
X129219047Y-87345571D02*
X129123809Y-87393190D01*
X129123809Y-87393190D02*
X128742857Y-87393190D01*
X130171428Y-86869380D02*
X129980952Y-86869380D01*
X129980952Y-86869380D02*
X129885714Y-86917000D01*
X129885714Y-86917000D02*
X129838095Y-86964619D01*
X129838095Y-86964619D02*
X129742857Y-87107476D01*
X129742857Y-87107476D02*
X129695238Y-87297952D01*
X129695238Y-87297952D02*
X129695238Y-87678904D01*
X129695238Y-87678904D02*
X129742857Y-87774142D01*
X129742857Y-87774142D02*
X129790476Y-87821761D01*
X129790476Y-87821761D02*
X129885714Y-87869380D01*
X129885714Y-87869380D02*
X130076190Y-87869380D01*
X130076190Y-87869380D02*
X130171428Y-87821761D01*
X130171428Y-87821761D02*
X130219047Y-87774142D01*
X130219047Y-87774142D02*
X130266666Y-87678904D01*
X130266666Y-87678904D02*
X130266666Y-87440809D01*
X130266666Y-87440809D02*
X130219047Y-87345571D01*
X130219047Y-87345571D02*
X130171428Y-87297952D01*
X130171428Y-87297952D02*
X130076190Y-87250333D01*
X130076190Y-87250333D02*
X129885714Y-87250333D01*
X129885714Y-87250333D02*
X129790476Y-87297952D01*
X129790476Y-87297952D02*
X129742857Y-87345571D01*
X129742857Y-87345571D02*
X129695238Y-87440809D01*
%TO.C,TP5*%
X130538095Y-136469380D02*
X131109523Y-136469380D01*
X130823809Y-137469380D02*
X130823809Y-136469380D01*
X131442857Y-137469380D02*
X131442857Y-136469380D01*
X131442857Y-136469380D02*
X131823809Y-136469380D01*
X131823809Y-136469380D02*
X131919047Y-136517000D01*
X131919047Y-136517000D02*
X131966666Y-136564619D01*
X131966666Y-136564619D02*
X132014285Y-136659857D01*
X132014285Y-136659857D02*
X132014285Y-136802714D01*
X132014285Y-136802714D02*
X131966666Y-136897952D01*
X131966666Y-136897952D02*
X131919047Y-136945571D01*
X131919047Y-136945571D02*
X131823809Y-136993190D01*
X131823809Y-136993190D02*
X131442857Y-136993190D01*
X132919047Y-136469380D02*
X132442857Y-136469380D01*
X132442857Y-136469380D02*
X132395238Y-136945571D01*
X132395238Y-136945571D02*
X132442857Y-136897952D01*
X132442857Y-136897952D02*
X132538095Y-136850333D01*
X132538095Y-136850333D02*
X132776190Y-136850333D01*
X132776190Y-136850333D02*
X132871428Y-136897952D01*
X132871428Y-136897952D02*
X132919047Y-136945571D01*
X132919047Y-136945571D02*
X132966666Y-137040809D01*
X132966666Y-137040809D02*
X132966666Y-137278904D01*
X132966666Y-137278904D02*
X132919047Y-137374142D01*
X132919047Y-137374142D02*
X132871428Y-137421761D01*
X132871428Y-137421761D02*
X132776190Y-137469380D01*
X132776190Y-137469380D02*
X132538095Y-137469380D01*
X132538095Y-137469380D02*
X132442857Y-137421761D01*
X132442857Y-137421761D02*
X132395238Y-137374142D01*
%TO.C,TP4*%
X112038095Y-102367380D02*
X112609523Y-102367380D01*
X112323809Y-103367380D02*
X112323809Y-102367380D01*
X112942857Y-103367380D02*
X112942857Y-102367380D01*
X112942857Y-102367380D02*
X113323809Y-102367380D01*
X113323809Y-102367380D02*
X113419047Y-102415000D01*
X113419047Y-102415000D02*
X113466666Y-102462619D01*
X113466666Y-102462619D02*
X113514285Y-102557857D01*
X113514285Y-102557857D02*
X113514285Y-102700714D01*
X113514285Y-102700714D02*
X113466666Y-102795952D01*
X113466666Y-102795952D02*
X113419047Y-102843571D01*
X113419047Y-102843571D02*
X113323809Y-102891190D01*
X113323809Y-102891190D02*
X112942857Y-102891190D01*
X114371428Y-102700714D02*
X114371428Y-103367380D01*
X114133333Y-102319761D02*
X113895238Y-103034047D01*
X113895238Y-103034047D02*
X114514285Y-103034047D01*
%TO.C,R9*%
X132833333Y-129867380D02*
X132500000Y-129391190D01*
X132261905Y-129867380D02*
X132261905Y-128867380D01*
X132261905Y-128867380D02*
X132642857Y-128867380D01*
X132642857Y-128867380D02*
X132738095Y-128915000D01*
X132738095Y-128915000D02*
X132785714Y-128962619D01*
X132785714Y-128962619D02*
X132833333Y-129057857D01*
X132833333Y-129057857D02*
X132833333Y-129200714D01*
X132833333Y-129200714D02*
X132785714Y-129295952D01*
X132785714Y-129295952D02*
X132738095Y-129343571D01*
X132738095Y-129343571D02*
X132642857Y-129391190D01*
X132642857Y-129391190D02*
X132261905Y-129391190D01*
X133309524Y-129867380D02*
X133500000Y-129867380D01*
X133500000Y-129867380D02*
X133595238Y-129819761D01*
X133595238Y-129819761D02*
X133642857Y-129772142D01*
X133642857Y-129772142D02*
X133738095Y-129629285D01*
X133738095Y-129629285D02*
X133785714Y-129438809D01*
X133785714Y-129438809D02*
X133785714Y-129057857D01*
X133785714Y-129057857D02*
X133738095Y-128962619D01*
X133738095Y-128962619D02*
X133690476Y-128915000D01*
X133690476Y-128915000D02*
X133595238Y-128867380D01*
X133595238Y-128867380D02*
X133404762Y-128867380D01*
X133404762Y-128867380D02*
X133309524Y-128915000D01*
X133309524Y-128915000D02*
X133261905Y-128962619D01*
X133261905Y-128962619D02*
X133214286Y-129057857D01*
X133214286Y-129057857D02*
X133214286Y-129295952D01*
X133214286Y-129295952D02*
X133261905Y-129391190D01*
X133261905Y-129391190D02*
X133309524Y-129438809D01*
X133309524Y-129438809D02*
X133404762Y-129486428D01*
X133404762Y-129486428D02*
X133595238Y-129486428D01*
X133595238Y-129486428D02*
X133690476Y-129438809D01*
X133690476Y-129438809D02*
X133738095Y-129391190D01*
X133738095Y-129391190D02*
X133785714Y-129295952D01*
%TO.C,R8*%
X132833333Y-113367380D02*
X132500000Y-112891190D01*
X132261905Y-113367380D02*
X132261905Y-112367380D01*
X132261905Y-112367380D02*
X132642857Y-112367380D01*
X132642857Y-112367380D02*
X132738095Y-112415000D01*
X132738095Y-112415000D02*
X132785714Y-112462619D01*
X132785714Y-112462619D02*
X132833333Y-112557857D01*
X132833333Y-112557857D02*
X132833333Y-112700714D01*
X132833333Y-112700714D02*
X132785714Y-112795952D01*
X132785714Y-112795952D02*
X132738095Y-112843571D01*
X132738095Y-112843571D02*
X132642857Y-112891190D01*
X132642857Y-112891190D02*
X132261905Y-112891190D01*
X133404762Y-112795952D02*
X133309524Y-112748333D01*
X133309524Y-112748333D02*
X133261905Y-112700714D01*
X133261905Y-112700714D02*
X133214286Y-112605476D01*
X133214286Y-112605476D02*
X133214286Y-112557857D01*
X133214286Y-112557857D02*
X133261905Y-112462619D01*
X133261905Y-112462619D02*
X133309524Y-112415000D01*
X133309524Y-112415000D02*
X133404762Y-112367380D01*
X133404762Y-112367380D02*
X133595238Y-112367380D01*
X133595238Y-112367380D02*
X133690476Y-112415000D01*
X133690476Y-112415000D02*
X133738095Y-112462619D01*
X133738095Y-112462619D02*
X133785714Y-112557857D01*
X133785714Y-112557857D02*
X133785714Y-112605476D01*
X133785714Y-112605476D02*
X133738095Y-112700714D01*
X133738095Y-112700714D02*
X133690476Y-112748333D01*
X133690476Y-112748333D02*
X133595238Y-112795952D01*
X133595238Y-112795952D02*
X133404762Y-112795952D01*
X133404762Y-112795952D02*
X133309524Y-112843571D01*
X133309524Y-112843571D02*
X133261905Y-112891190D01*
X133261905Y-112891190D02*
X133214286Y-112986428D01*
X133214286Y-112986428D02*
X133214286Y-113176904D01*
X133214286Y-113176904D02*
X133261905Y-113272142D01*
X133261905Y-113272142D02*
X133309524Y-113319761D01*
X133309524Y-113319761D02*
X133404762Y-113367380D01*
X133404762Y-113367380D02*
X133595238Y-113367380D01*
X133595238Y-113367380D02*
X133690476Y-113319761D01*
X133690476Y-113319761D02*
X133738095Y-113272142D01*
X133738095Y-113272142D02*
X133785714Y-113176904D01*
X133785714Y-113176904D02*
X133785714Y-112986428D01*
X133785714Y-112986428D02*
X133738095Y-112891190D01*
X133738095Y-112891190D02*
X133690476Y-112843571D01*
X133690476Y-112843571D02*
X133595238Y-112795952D01*
%TO.C,R7*%
X132733333Y-121857380D02*
X132400000Y-121381190D01*
X132161905Y-121857380D02*
X132161905Y-120857380D01*
X132161905Y-120857380D02*
X132542857Y-120857380D01*
X132542857Y-120857380D02*
X132638095Y-120905000D01*
X132638095Y-120905000D02*
X132685714Y-120952619D01*
X132685714Y-120952619D02*
X132733333Y-121047857D01*
X132733333Y-121047857D02*
X132733333Y-121190714D01*
X132733333Y-121190714D02*
X132685714Y-121285952D01*
X132685714Y-121285952D02*
X132638095Y-121333571D01*
X132638095Y-121333571D02*
X132542857Y-121381190D01*
X132542857Y-121381190D02*
X132161905Y-121381190D01*
X133066667Y-120857380D02*
X133733333Y-120857380D01*
X133733333Y-120857380D02*
X133304762Y-121857380D01*
%TO.C,R6*%
X132533333Y-105867380D02*
X132200000Y-105391190D01*
X131961905Y-105867380D02*
X131961905Y-104867380D01*
X131961905Y-104867380D02*
X132342857Y-104867380D01*
X132342857Y-104867380D02*
X132438095Y-104915000D01*
X132438095Y-104915000D02*
X132485714Y-104962619D01*
X132485714Y-104962619D02*
X132533333Y-105057857D01*
X132533333Y-105057857D02*
X132533333Y-105200714D01*
X132533333Y-105200714D02*
X132485714Y-105295952D01*
X132485714Y-105295952D02*
X132438095Y-105343571D01*
X132438095Y-105343571D02*
X132342857Y-105391190D01*
X132342857Y-105391190D02*
X131961905Y-105391190D01*
X133390476Y-104867380D02*
X133200000Y-104867380D01*
X133200000Y-104867380D02*
X133104762Y-104915000D01*
X133104762Y-104915000D02*
X133057143Y-104962619D01*
X133057143Y-104962619D02*
X132961905Y-105105476D01*
X132961905Y-105105476D02*
X132914286Y-105295952D01*
X132914286Y-105295952D02*
X132914286Y-105676904D01*
X132914286Y-105676904D02*
X132961905Y-105772142D01*
X132961905Y-105772142D02*
X133009524Y-105819761D01*
X133009524Y-105819761D02*
X133104762Y-105867380D01*
X133104762Y-105867380D02*
X133295238Y-105867380D01*
X133295238Y-105867380D02*
X133390476Y-105819761D01*
X133390476Y-105819761D02*
X133438095Y-105772142D01*
X133438095Y-105772142D02*
X133485714Y-105676904D01*
X133485714Y-105676904D02*
X133485714Y-105438809D01*
X133485714Y-105438809D02*
X133438095Y-105343571D01*
X133438095Y-105343571D02*
X133390476Y-105295952D01*
X133390476Y-105295952D02*
X133295238Y-105248333D01*
X133295238Y-105248333D02*
X133104762Y-105248333D01*
X133104762Y-105248333D02*
X133009524Y-105295952D01*
X133009524Y-105295952D02*
X132961905Y-105343571D01*
X132961905Y-105343571D02*
X132914286Y-105438809D01*
%TO.C,R5*%
X112017380Y-112666666D02*
X111541190Y-112999999D01*
X112017380Y-113238094D02*
X111017380Y-113238094D01*
X111017380Y-113238094D02*
X111017380Y-112857142D01*
X111017380Y-112857142D02*
X111065000Y-112761904D01*
X111065000Y-112761904D02*
X111112619Y-112714285D01*
X111112619Y-112714285D02*
X111207857Y-112666666D01*
X111207857Y-112666666D02*
X111350714Y-112666666D01*
X111350714Y-112666666D02*
X111445952Y-112714285D01*
X111445952Y-112714285D02*
X111493571Y-112761904D01*
X111493571Y-112761904D02*
X111541190Y-112857142D01*
X111541190Y-112857142D02*
X111541190Y-113238094D01*
X111017380Y-111761904D02*
X111017380Y-112238094D01*
X111017380Y-112238094D02*
X111493571Y-112285713D01*
X111493571Y-112285713D02*
X111445952Y-112238094D01*
X111445952Y-112238094D02*
X111398333Y-112142856D01*
X111398333Y-112142856D02*
X111398333Y-111904761D01*
X111398333Y-111904761D02*
X111445952Y-111809523D01*
X111445952Y-111809523D02*
X111493571Y-111761904D01*
X111493571Y-111761904D02*
X111588809Y-111714285D01*
X111588809Y-111714285D02*
X111826904Y-111714285D01*
X111826904Y-111714285D02*
X111922142Y-111761904D01*
X111922142Y-111761904D02*
X111969761Y-111809523D01*
X111969761Y-111809523D02*
X112017380Y-111904761D01*
X112017380Y-111904761D02*
X112017380Y-112142856D01*
X112017380Y-112142856D02*
X111969761Y-112238094D01*
X111969761Y-112238094D02*
X111922142Y-112285713D01*
%TO.C,R4*%
X115117380Y-112666666D02*
X114641190Y-112999999D01*
X115117380Y-113238094D02*
X114117380Y-113238094D01*
X114117380Y-113238094D02*
X114117380Y-112857142D01*
X114117380Y-112857142D02*
X114165000Y-112761904D01*
X114165000Y-112761904D02*
X114212619Y-112714285D01*
X114212619Y-112714285D02*
X114307857Y-112666666D01*
X114307857Y-112666666D02*
X114450714Y-112666666D01*
X114450714Y-112666666D02*
X114545952Y-112714285D01*
X114545952Y-112714285D02*
X114593571Y-112761904D01*
X114593571Y-112761904D02*
X114641190Y-112857142D01*
X114641190Y-112857142D02*
X114641190Y-113238094D01*
X114450714Y-111809523D02*
X115117380Y-111809523D01*
X114069761Y-112047618D02*
X114784047Y-112285713D01*
X114784047Y-112285713D02*
X114784047Y-111666666D01*
%TO.C,R3*%
X98833333Y-108717380D02*
X98500000Y-108241190D01*
X98261905Y-108717380D02*
X98261905Y-107717380D01*
X98261905Y-107717380D02*
X98642857Y-107717380D01*
X98642857Y-107717380D02*
X98738095Y-107765000D01*
X98738095Y-107765000D02*
X98785714Y-107812619D01*
X98785714Y-107812619D02*
X98833333Y-107907857D01*
X98833333Y-107907857D02*
X98833333Y-108050714D01*
X98833333Y-108050714D02*
X98785714Y-108145952D01*
X98785714Y-108145952D02*
X98738095Y-108193571D01*
X98738095Y-108193571D02*
X98642857Y-108241190D01*
X98642857Y-108241190D02*
X98261905Y-108241190D01*
X99166667Y-107717380D02*
X99785714Y-107717380D01*
X99785714Y-107717380D02*
X99452381Y-108098333D01*
X99452381Y-108098333D02*
X99595238Y-108098333D01*
X99595238Y-108098333D02*
X99690476Y-108145952D01*
X99690476Y-108145952D02*
X99738095Y-108193571D01*
X99738095Y-108193571D02*
X99785714Y-108288809D01*
X99785714Y-108288809D02*
X99785714Y-108526904D01*
X99785714Y-108526904D02*
X99738095Y-108622142D01*
X99738095Y-108622142D02*
X99690476Y-108669761D01*
X99690476Y-108669761D02*
X99595238Y-108717380D01*
X99595238Y-108717380D02*
X99309524Y-108717380D01*
X99309524Y-108717380D02*
X99214286Y-108669761D01*
X99214286Y-108669761D02*
X99166667Y-108622142D01*
%TO.C,R2*%
X109343333Y-109197380D02*
X109010000Y-108721190D01*
X108771905Y-109197380D02*
X108771905Y-108197380D01*
X108771905Y-108197380D02*
X109152857Y-108197380D01*
X109152857Y-108197380D02*
X109248095Y-108245000D01*
X109248095Y-108245000D02*
X109295714Y-108292619D01*
X109295714Y-108292619D02*
X109343333Y-108387857D01*
X109343333Y-108387857D02*
X109343333Y-108530714D01*
X109343333Y-108530714D02*
X109295714Y-108625952D01*
X109295714Y-108625952D02*
X109248095Y-108673571D01*
X109248095Y-108673571D02*
X109152857Y-108721190D01*
X109152857Y-108721190D02*
X108771905Y-108721190D01*
X109724286Y-108292619D02*
X109771905Y-108245000D01*
X109771905Y-108245000D02*
X109867143Y-108197380D01*
X109867143Y-108197380D02*
X110105238Y-108197380D01*
X110105238Y-108197380D02*
X110200476Y-108245000D01*
X110200476Y-108245000D02*
X110248095Y-108292619D01*
X110248095Y-108292619D02*
X110295714Y-108387857D01*
X110295714Y-108387857D02*
X110295714Y-108483095D01*
X110295714Y-108483095D02*
X110248095Y-108625952D01*
X110248095Y-108625952D02*
X109676667Y-109197380D01*
X109676667Y-109197380D02*
X110295714Y-109197380D01*
%TO.C,R1*%
X112343333Y-109197380D02*
X112010000Y-108721190D01*
X111771905Y-109197380D02*
X111771905Y-108197380D01*
X111771905Y-108197380D02*
X112152857Y-108197380D01*
X112152857Y-108197380D02*
X112248095Y-108245000D01*
X112248095Y-108245000D02*
X112295714Y-108292619D01*
X112295714Y-108292619D02*
X112343333Y-108387857D01*
X112343333Y-108387857D02*
X112343333Y-108530714D01*
X112343333Y-108530714D02*
X112295714Y-108625952D01*
X112295714Y-108625952D02*
X112248095Y-108673571D01*
X112248095Y-108673571D02*
X112152857Y-108721190D01*
X112152857Y-108721190D02*
X111771905Y-108721190D01*
X113295714Y-109197380D02*
X112724286Y-109197380D01*
X113010000Y-109197380D02*
X113010000Y-108197380D01*
X113010000Y-108197380D02*
X112914762Y-108340238D01*
X112914762Y-108340238D02*
X112819524Y-108435476D01*
X112819524Y-108435476D02*
X112724286Y-108483095D01*
%TO.C,JP1*%
X146966666Y-89562380D02*
X146966666Y-90276666D01*
X146966666Y-90276666D02*
X146919047Y-90419523D01*
X146919047Y-90419523D02*
X146823809Y-90514761D01*
X146823809Y-90514761D02*
X146680952Y-90562380D01*
X146680952Y-90562380D02*
X146585714Y-90562380D01*
X147442857Y-90562380D02*
X147442857Y-89562380D01*
X147442857Y-89562380D02*
X147823809Y-89562380D01*
X147823809Y-89562380D02*
X147919047Y-89610000D01*
X147919047Y-89610000D02*
X147966666Y-89657619D01*
X147966666Y-89657619D02*
X148014285Y-89752857D01*
X148014285Y-89752857D02*
X148014285Y-89895714D01*
X148014285Y-89895714D02*
X147966666Y-89990952D01*
X147966666Y-89990952D02*
X147919047Y-90038571D01*
X147919047Y-90038571D02*
X147823809Y-90086190D01*
X147823809Y-90086190D02*
X147442857Y-90086190D01*
X148966666Y-90562380D02*
X148395238Y-90562380D01*
X148680952Y-90562380D02*
X148680952Y-89562380D01*
X148680952Y-89562380D02*
X148585714Y-89705238D01*
X148585714Y-89705238D02*
X148490476Y-89800476D01*
X148490476Y-89800476D02*
X148395238Y-89848095D01*
%TO.C,J3*%
X85936666Y-121877380D02*
X85936666Y-122591666D01*
X85936666Y-122591666D02*
X85889047Y-122734523D01*
X85889047Y-122734523D02*
X85793809Y-122829761D01*
X85793809Y-122829761D02*
X85650952Y-122877380D01*
X85650952Y-122877380D02*
X85555714Y-122877380D01*
X86317619Y-121877380D02*
X86936666Y-121877380D01*
X86936666Y-121877380D02*
X86603333Y-122258333D01*
X86603333Y-122258333D02*
X86746190Y-122258333D01*
X86746190Y-122258333D02*
X86841428Y-122305952D01*
X86841428Y-122305952D02*
X86889047Y-122353571D01*
X86889047Y-122353571D02*
X86936666Y-122448809D01*
X86936666Y-122448809D02*
X86936666Y-122686904D01*
X86936666Y-122686904D02*
X86889047Y-122782142D01*
X86889047Y-122782142D02*
X86841428Y-122829761D01*
X86841428Y-122829761D02*
X86746190Y-122877380D01*
X86746190Y-122877380D02*
X86460476Y-122877380D01*
X86460476Y-122877380D02*
X86365238Y-122829761D01*
X86365238Y-122829761D02*
X86317619Y-122782142D01*
%TO.C,J2*%
X144367380Y-110333333D02*
X145081666Y-110333333D01*
X145081666Y-110333333D02*
X145224523Y-110380952D01*
X145224523Y-110380952D02*
X145319761Y-110476190D01*
X145319761Y-110476190D02*
X145367380Y-110619047D01*
X145367380Y-110619047D02*
X145367380Y-110714285D01*
X144462619Y-109904761D02*
X144415000Y-109857142D01*
X144415000Y-109857142D02*
X144367380Y-109761904D01*
X144367380Y-109761904D02*
X144367380Y-109523809D01*
X144367380Y-109523809D02*
X144415000Y-109428571D01*
X144415000Y-109428571D02*
X144462619Y-109380952D01*
X144462619Y-109380952D02*
X144557857Y-109333333D01*
X144557857Y-109333333D02*
X144653095Y-109333333D01*
X144653095Y-109333333D02*
X144795952Y-109380952D01*
X144795952Y-109380952D02*
X145367380Y-109952380D01*
X145367380Y-109952380D02*
X145367380Y-109333333D01*
%TO.C,J1*%
X93917380Y-110413333D02*
X94631666Y-110413333D01*
X94631666Y-110413333D02*
X94774523Y-110460952D01*
X94774523Y-110460952D02*
X94869761Y-110556190D01*
X94869761Y-110556190D02*
X94917380Y-110699047D01*
X94917380Y-110699047D02*
X94917380Y-110794285D01*
X94917380Y-109413333D02*
X94917380Y-109984761D01*
X94917380Y-109699047D02*
X93917380Y-109699047D01*
X93917380Y-109699047D02*
X94060238Y-109794285D01*
X94060238Y-109794285D02*
X94155476Y-109889523D01*
X94155476Y-109889523D02*
X94203095Y-109984761D01*
%TO.C,D1*%
X104261905Y-112767380D02*
X104261905Y-111767380D01*
X104261905Y-111767380D02*
X104500000Y-111767380D01*
X104500000Y-111767380D02*
X104642857Y-111815000D01*
X104642857Y-111815000D02*
X104738095Y-111910238D01*
X104738095Y-111910238D02*
X104785714Y-112005476D01*
X104785714Y-112005476D02*
X104833333Y-112195952D01*
X104833333Y-112195952D02*
X104833333Y-112338809D01*
X104833333Y-112338809D02*
X104785714Y-112529285D01*
X104785714Y-112529285D02*
X104738095Y-112624523D01*
X104738095Y-112624523D02*
X104642857Y-112719761D01*
X104642857Y-112719761D02*
X104500000Y-112767380D01*
X104500000Y-112767380D02*
X104261905Y-112767380D01*
X105785714Y-112767380D02*
X105214286Y-112767380D01*
X105500000Y-112767380D02*
X105500000Y-111767380D01*
X105500000Y-111767380D02*
X105404762Y-111910238D01*
X105404762Y-111910238D02*
X105309524Y-112005476D01*
X105309524Y-112005476D02*
X105214286Y-112053095D01*
%TO.C,C9*%
X130613333Y-129782142D02*
X130565714Y-129829761D01*
X130565714Y-129829761D02*
X130422857Y-129877380D01*
X130422857Y-129877380D02*
X130327619Y-129877380D01*
X130327619Y-129877380D02*
X130184762Y-129829761D01*
X130184762Y-129829761D02*
X130089524Y-129734523D01*
X130089524Y-129734523D02*
X130041905Y-129639285D01*
X130041905Y-129639285D02*
X129994286Y-129448809D01*
X129994286Y-129448809D02*
X129994286Y-129305952D01*
X129994286Y-129305952D02*
X130041905Y-129115476D01*
X130041905Y-129115476D02*
X130089524Y-129020238D01*
X130089524Y-129020238D02*
X130184762Y-128925000D01*
X130184762Y-128925000D02*
X130327619Y-128877380D01*
X130327619Y-128877380D02*
X130422857Y-128877380D01*
X130422857Y-128877380D02*
X130565714Y-128925000D01*
X130565714Y-128925000D02*
X130613333Y-128972619D01*
X131089524Y-129877380D02*
X131280000Y-129877380D01*
X131280000Y-129877380D02*
X131375238Y-129829761D01*
X131375238Y-129829761D02*
X131422857Y-129782142D01*
X131422857Y-129782142D02*
X131518095Y-129639285D01*
X131518095Y-129639285D02*
X131565714Y-129448809D01*
X131565714Y-129448809D02*
X131565714Y-129067857D01*
X131565714Y-129067857D02*
X131518095Y-128972619D01*
X131518095Y-128972619D02*
X131470476Y-128925000D01*
X131470476Y-128925000D02*
X131375238Y-128877380D01*
X131375238Y-128877380D02*
X131184762Y-128877380D01*
X131184762Y-128877380D02*
X131089524Y-128925000D01*
X131089524Y-128925000D02*
X131041905Y-128972619D01*
X131041905Y-128972619D02*
X130994286Y-129067857D01*
X130994286Y-129067857D02*
X130994286Y-129305952D01*
X130994286Y-129305952D02*
X131041905Y-129401190D01*
X131041905Y-129401190D02*
X131089524Y-129448809D01*
X131089524Y-129448809D02*
X131184762Y-129496428D01*
X131184762Y-129496428D02*
X131375238Y-129496428D01*
X131375238Y-129496428D02*
X131470476Y-129448809D01*
X131470476Y-129448809D02*
X131518095Y-129401190D01*
X131518095Y-129401190D02*
X131565714Y-129305952D01*
%TO.C,C8*%
X130333333Y-113272142D02*
X130285714Y-113319761D01*
X130285714Y-113319761D02*
X130142857Y-113367380D01*
X130142857Y-113367380D02*
X130047619Y-113367380D01*
X130047619Y-113367380D02*
X129904762Y-113319761D01*
X129904762Y-113319761D02*
X129809524Y-113224523D01*
X129809524Y-113224523D02*
X129761905Y-113129285D01*
X129761905Y-113129285D02*
X129714286Y-112938809D01*
X129714286Y-112938809D02*
X129714286Y-112795952D01*
X129714286Y-112795952D02*
X129761905Y-112605476D01*
X129761905Y-112605476D02*
X129809524Y-112510238D01*
X129809524Y-112510238D02*
X129904762Y-112415000D01*
X129904762Y-112415000D02*
X130047619Y-112367380D01*
X130047619Y-112367380D02*
X130142857Y-112367380D01*
X130142857Y-112367380D02*
X130285714Y-112415000D01*
X130285714Y-112415000D02*
X130333333Y-112462619D01*
X130904762Y-112795952D02*
X130809524Y-112748333D01*
X130809524Y-112748333D02*
X130761905Y-112700714D01*
X130761905Y-112700714D02*
X130714286Y-112605476D01*
X130714286Y-112605476D02*
X130714286Y-112557857D01*
X130714286Y-112557857D02*
X130761905Y-112462619D01*
X130761905Y-112462619D02*
X130809524Y-112415000D01*
X130809524Y-112415000D02*
X130904762Y-112367380D01*
X130904762Y-112367380D02*
X131095238Y-112367380D01*
X131095238Y-112367380D02*
X131190476Y-112415000D01*
X131190476Y-112415000D02*
X131238095Y-112462619D01*
X131238095Y-112462619D02*
X131285714Y-112557857D01*
X131285714Y-112557857D02*
X131285714Y-112605476D01*
X131285714Y-112605476D02*
X131238095Y-112700714D01*
X131238095Y-112700714D02*
X131190476Y-112748333D01*
X131190476Y-112748333D02*
X131095238Y-112795952D01*
X131095238Y-112795952D02*
X130904762Y-112795952D01*
X130904762Y-112795952D02*
X130809524Y-112843571D01*
X130809524Y-112843571D02*
X130761905Y-112891190D01*
X130761905Y-112891190D02*
X130714286Y-112986428D01*
X130714286Y-112986428D02*
X130714286Y-113176904D01*
X130714286Y-113176904D02*
X130761905Y-113272142D01*
X130761905Y-113272142D02*
X130809524Y-113319761D01*
X130809524Y-113319761D02*
X130904762Y-113367380D01*
X130904762Y-113367380D02*
X131095238Y-113367380D01*
X131095238Y-113367380D02*
X131190476Y-113319761D01*
X131190476Y-113319761D02*
X131238095Y-113272142D01*
X131238095Y-113272142D02*
X131285714Y-113176904D01*
X131285714Y-113176904D02*
X131285714Y-112986428D01*
X131285714Y-112986428D02*
X131238095Y-112891190D01*
X131238095Y-112891190D02*
X131190476Y-112843571D01*
X131190476Y-112843571D02*
X131095238Y-112795952D01*
%TO.C,C7*%
X133833333Y-126272142D02*
X133785714Y-126319761D01*
X133785714Y-126319761D02*
X133642857Y-126367380D01*
X133642857Y-126367380D02*
X133547619Y-126367380D01*
X133547619Y-126367380D02*
X133404762Y-126319761D01*
X133404762Y-126319761D02*
X133309524Y-126224523D01*
X133309524Y-126224523D02*
X133261905Y-126129285D01*
X133261905Y-126129285D02*
X133214286Y-125938809D01*
X133214286Y-125938809D02*
X133214286Y-125795952D01*
X133214286Y-125795952D02*
X133261905Y-125605476D01*
X133261905Y-125605476D02*
X133309524Y-125510238D01*
X133309524Y-125510238D02*
X133404762Y-125415000D01*
X133404762Y-125415000D02*
X133547619Y-125367380D01*
X133547619Y-125367380D02*
X133642857Y-125367380D01*
X133642857Y-125367380D02*
X133785714Y-125415000D01*
X133785714Y-125415000D02*
X133833333Y-125462619D01*
X134166667Y-125367380D02*
X134833333Y-125367380D01*
X134833333Y-125367380D02*
X134404762Y-126367380D01*
%TO.C,C6*%
X133833333Y-109772142D02*
X133785714Y-109819761D01*
X133785714Y-109819761D02*
X133642857Y-109867380D01*
X133642857Y-109867380D02*
X133547619Y-109867380D01*
X133547619Y-109867380D02*
X133404762Y-109819761D01*
X133404762Y-109819761D02*
X133309524Y-109724523D01*
X133309524Y-109724523D02*
X133261905Y-109629285D01*
X133261905Y-109629285D02*
X133214286Y-109438809D01*
X133214286Y-109438809D02*
X133214286Y-109295952D01*
X133214286Y-109295952D02*
X133261905Y-109105476D01*
X133261905Y-109105476D02*
X133309524Y-109010238D01*
X133309524Y-109010238D02*
X133404762Y-108915000D01*
X133404762Y-108915000D02*
X133547619Y-108867380D01*
X133547619Y-108867380D02*
X133642857Y-108867380D01*
X133642857Y-108867380D02*
X133785714Y-108915000D01*
X133785714Y-108915000D02*
X133833333Y-108962619D01*
X134690476Y-108867380D02*
X134500000Y-108867380D01*
X134500000Y-108867380D02*
X134404762Y-108915000D01*
X134404762Y-108915000D02*
X134357143Y-108962619D01*
X134357143Y-108962619D02*
X134261905Y-109105476D01*
X134261905Y-109105476D02*
X134214286Y-109295952D01*
X134214286Y-109295952D02*
X134214286Y-109676904D01*
X134214286Y-109676904D02*
X134261905Y-109772142D01*
X134261905Y-109772142D02*
X134309524Y-109819761D01*
X134309524Y-109819761D02*
X134404762Y-109867380D01*
X134404762Y-109867380D02*
X134595238Y-109867380D01*
X134595238Y-109867380D02*
X134690476Y-109819761D01*
X134690476Y-109819761D02*
X134738095Y-109772142D01*
X134738095Y-109772142D02*
X134785714Y-109676904D01*
X134785714Y-109676904D02*
X134785714Y-109438809D01*
X134785714Y-109438809D02*
X134738095Y-109343571D01*
X134738095Y-109343571D02*
X134690476Y-109295952D01*
X134690476Y-109295952D02*
X134595238Y-109248333D01*
X134595238Y-109248333D02*
X134404762Y-109248333D01*
X134404762Y-109248333D02*
X134309524Y-109295952D01*
X134309524Y-109295952D02*
X134261905Y-109343571D01*
X134261905Y-109343571D02*
X134214286Y-109438809D01*
%TO.C,C5*%
X130433333Y-121772142D02*
X130385714Y-121819761D01*
X130385714Y-121819761D02*
X130242857Y-121867380D01*
X130242857Y-121867380D02*
X130147619Y-121867380D01*
X130147619Y-121867380D02*
X130004762Y-121819761D01*
X130004762Y-121819761D02*
X129909524Y-121724523D01*
X129909524Y-121724523D02*
X129861905Y-121629285D01*
X129861905Y-121629285D02*
X129814286Y-121438809D01*
X129814286Y-121438809D02*
X129814286Y-121295952D01*
X129814286Y-121295952D02*
X129861905Y-121105476D01*
X129861905Y-121105476D02*
X129909524Y-121010238D01*
X129909524Y-121010238D02*
X130004762Y-120915000D01*
X130004762Y-120915000D02*
X130147619Y-120867380D01*
X130147619Y-120867380D02*
X130242857Y-120867380D01*
X130242857Y-120867380D02*
X130385714Y-120915000D01*
X130385714Y-120915000D02*
X130433333Y-120962619D01*
X131338095Y-120867380D02*
X130861905Y-120867380D01*
X130861905Y-120867380D02*
X130814286Y-121343571D01*
X130814286Y-121343571D02*
X130861905Y-121295952D01*
X130861905Y-121295952D02*
X130957143Y-121248333D01*
X130957143Y-121248333D02*
X131195238Y-121248333D01*
X131195238Y-121248333D02*
X131290476Y-121295952D01*
X131290476Y-121295952D02*
X131338095Y-121343571D01*
X131338095Y-121343571D02*
X131385714Y-121438809D01*
X131385714Y-121438809D02*
X131385714Y-121676904D01*
X131385714Y-121676904D02*
X131338095Y-121772142D01*
X131338095Y-121772142D02*
X131290476Y-121819761D01*
X131290476Y-121819761D02*
X131195238Y-121867380D01*
X131195238Y-121867380D02*
X130957143Y-121867380D01*
X130957143Y-121867380D02*
X130861905Y-121819761D01*
X130861905Y-121819761D02*
X130814286Y-121772142D01*
%TO.C,C4*%
X130333333Y-105782142D02*
X130285714Y-105829761D01*
X130285714Y-105829761D02*
X130142857Y-105877380D01*
X130142857Y-105877380D02*
X130047619Y-105877380D01*
X130047619Y-105877380D02*
X129904762Y-105829761D01*
X129904762Y-105829761D02*
X129809524Y-105734523D01*
X129809524Y-105734523D02*
X129761905Y-105639285D01*
X129761905Y-105639285D02*
X129714286Y-105448809D01*
X129714286Y-105448809D02*
X129714286Y-105305952D01*
X129714286Y-105305952D02*
X129761905Y-105115476D01*
X129761905Y-105115476D02*
X129809524Y-105020238D01*
X129809524Y-105020238D02*
X129904762Y-104925000D01*
X129904762Y-104925000D02*
X130047619Y-104877380D01*
X130047619Y-104877380D02*
X130142857Y-104877380D01*
X130142857Y-104877380D02*
X130285714Y-104925000D01*
X130285714Y-104925000D02*
X130333333Y-104972619D01*
X131190476Y-105210714D02*
X131190476Y-105877380D01*
X130952381Y-104829761D02*
X130714286Y-105544047D01*
X130714286Y-105544047D02*
X131333333Y-105544047D01*
%TO.C,C3*%
X133833333Y-118272142D02*
X133785714Y-118319761D01*
X133785714Y-118319761D02*
X133642857Y-118367380D01*
X133642857Y-118367380D02*
X133547619Y-118367380D01*
X133547619Y-118367380D02*
X133404762Y-118319761D01*
X133404762Y-118319761D02*
X133309524Y-118224523D01*
X133309524Y-118224523D02*
X133261905Y-118129285D01*
X133261905Y-118129285D02*
X133214286Y-117938809D01*
X133214286Y-117938809D02*
X133214286Y-117795952D01*
X133214286Y-117795952D02*
X133261905Y-117605476D01*
X133261905Y-117605476D02*
X133309524Y-117510238D01*
X133309524Y-117510238D02*
X133404762Y-117415000D01*
X133404762Y-117415000D02*
X133547619Y-117367380D01*
X133547619Y-117367380D02*
X133642857Y-117367380D01*
X133642857Y-117367380D02*
X133785714Y-117415000D01*
X133785714Y-117415000D02*
X133833333Y-117462619D01*
X134166667Y-117367380D02*
X134785714Y-117367380D01*
X134785714Y-117367380D02*
X134452381Y-117748333D01*
X134452381Y-117748333D02*
X134595238Y-117748333D01*
X134595238Y-117748333D02*
X134690476Y-117795952D01*
X134690476Y-117795952D02*
X134738095Y-117843571D01*
X134738095Y-117843571D02*
X134785714Y-117938809D01*
X134785714Y-117938809D02*
X134785714Y-118176904D01*
X134785714Y-118176904D02*
X134738095Y-118272142D01*
X134738095Y-118272142D02*
X134690476Y-118319761D01*
X134690476Y-118319761D02*
X134595238Y-118367380D01*
X134595238Y-118367380D02*
X134309524Y-118367380D01*
X134309524Y-118367380D02*
X134214286Y-118319761D01*
X134214286Y-118319761D02*
X134166667Y-118272142D01*
%TO.C,C2*%
X133833333Y-102272142D02*
X133785714Y-102319761D01*
X133785714Y-102319761D02*
X133642857Y-102367380D01*
X133642857Y-102367380D02*
X133547619Y-102367380D01*
X133547619Y-102367380D02*
X133404762Y-102319761D01*
X133404762Y-102319761D02*
X133309524Y-102224523D01*
X133309524Y-102224523D02*
X133261905Y-102129285D01*
X133261905Y-102129285D02*
X133214286Y-101938809D01*
X133214286Y-101938809D02*
X133214286Y-101795952D01*
X133214286Y-101795952D02*
X133261905Y-101605476D01*
X133261905Y-101605476D02*
X133309524Y-101510238D01*
X133309524Y-101510238D02*
X133404762Y-101415000D01*
X133404762Y-101415000D02*
X133547619Y-101367380D01*
X133547619Y-101367380D02*
X133642857Y-101367380D01*
X133642857Y-101367380D02*
X133785714Y-101415000D01*
X133785714Y-101415000D02*
X133833333Y-101462619D01*
X134214286Y-101462619D02*
X134261905Y-101415000D01*
X134261905Y-101415000D02*
X134357143Y-101367380D01*
X134357143Y-101367380D02*
X134595238Y-101367380D01*
X134595238Y-101367380D02*
X134690476Y-101415000D01*
X134690476Y-101415000D02*
X134738095Y-101462619D01*
X134738095Y-101462619D02*
X134785714Y-101557857D01*
X134785714Y-101557857D02*
X134785714Y-101653095D01*
X134785714Y-101653095D02*
X134738095Y-101795952D01*
X134738095Y-101795952D02*
X134166667Y-102367380D01*
X134166667Y-102367380D02*
X134785714Y-102367380D01*
%TO.C,C1*%
X120833333Y-111772142D02*
X120785714Y-111819761D01*
X120785714Y-111819761D02*
X120642857Y-111867380D01*
X120642857Y-111867380D02*
X120547619Y-111867380D01*
X120547619Y-111867380D02*
X120404762Y-111819761D01*
X120404762Y-111819761D02*
X120309524Y-111724523D01*
X120309524Y-111724523D02*
X120261905Y-111629285D01*
X120261905Y-111629285D02*
X120214286Y-111438809D01*
X120214286Y-111438809D02*
X120214286Y-111295952D01*
X120214286Y-111295952D02*
X120261905Y-111105476D01*
X120261905Y-111105476D02*
X120309524Y-111010238D01*
X120309524Y-111010238D02*
X120404762Y-110915000D01*
X120404762Y-110915000D02*
X120547619Y-110867380D01*
X120547619Y-110867380D02*
X120642857Y-110867380D01*
X120642857Y-110867380D02*
X120785714Y-110915000D01*
X120785714Y-110915000D02*
X120833333Y-110962619D01*
X121785714Y-111867380D02*
X121214286Y-111867380D01*
X121500000Y-111867380D02*
X121500000Y-110867380D01*
X121500000Y-110867380D02*
X121404762Y-111010238D01*
X121404762Y-111010238D02*
X121309524Y-111105476D01*
X121309524Y-111105476D02*
X121214286Y-111153095D01*
D13*
%TO.C,U5*%
X128400000Y-126960000D02*
X129800000Y-126960000D01*
X129800000Y-124640000D02*
X127900000Y-124640000D01*
%TO.C,U4*%
X128400000Y-110860000D02*
X129800000Y-110860000D01*
X129800000Y-108540000D02*
X127900000Y-108540000D01*
%TO.C,U3*%
X128400000Y-118960000D02*
X129800000Y-118960000D01*
X129800000Y-116640000D02*
X127900000Y-116640000D01*
%TO.C,U2*%
X128250000Y-103060000D02*
X129650000Y-103060000D01*
X129650000Y-100740000D02*
X127750000Y-100740000D01*
%TO.C,U1*%
X117300000Y-111160000D02*
X118700000Y-111160000D01*
X118700000Y-108840000D02*
X116800000Y-108840000D01*
%TO.C,TP9*%
X106900000Y-107500000D02*
X106900000Y-104100000D01*
X110300000Y-104100000D02*
X110300000Y-107500000D01*
X106900000Y-104100000D02*
X110300000Y-104100000D01*
X110300000Y-107500000D02*
X106900000Y-107500000D01*
%TO.C,TP8*%
X116300000Y-107500000D02*
X116300000Y-104100000D01*
X119700000Y-104100000D02*
X119700000Y-107500000D01*
X116300000Y-104100000D02*
X119700000Y-104100000D01*
X119700000Y-107500000D02*
X116300000Y-107500000D01*
%TO.C,TP7*%
X100300000Y-89200000D02*
X100300000Y-85800000D01*
X103700000Y-85800000D02*
X103700000Y-89200000D01*
X100300000Y-85800000D02*
X103700000Y-85800000D01*
X103700000Y-89200000D02*
X100300000Y-89200000D01*
%TO.C,TP6*%
X127400000Y-91600000D02*
X127400000Y-88200000D01*
X130800000Y-88200000D02*
X130800000Y-91600000D01*
X127400000Y-88200000D02*
X130800000Y-88200000D01*
X130800000Y-91600000D02*
X127400000Y-91600000D01*
%TO.C,TP5*%
X130100000Y-141200000D02*
X130100000Y-137800000D01*
X133500000Y-137800000D02*
X133500000Y-141200000D01*
X130100000Y-137800000D02*
X133500000Y-137800000D01*
X133500000Y-141200000D02*
X130100000Y-141200000D01*
%TO.C,TP4*%
X111600000Y-107500000D02*
X111600000Y-104100000D01*
X115000000Y-104100000D02*
X115000000Y-107500000D01*
X111600000Y-104100000D02*
X115000000Y-104100000D01*
X115000000Y-107500000D02*
X111600000Y-107500000D01*
%TO.C,R9*%
X132746359Y-127520000D02*
X133053641Y-127520000D01*
X132746359Y-128280000D02*
X133053641Y-128280000D01*
%TO.C,R8*%
X132646359Y-112080000D02*
X132953641Y-112080000D01*
X132646359Y-111320000D02*
X132953641Y-111320000D01*
%TO.C,R7*%
X132746359Y-119520000D02*
X133053641Y-119520000D01*
X132746359Y-120280000D02*
X133053641Y-120280000D01*
%TO.C,R6*%
X132546359Y-103620000D02*
X132853641Y-103620000D01*
X132546359Y-104380000D02*
X132853641Y-104380000D01*
%TO.C,R5*%
X109265000Y-112272936D02*
X109265000Y-112727064D01*
X110735000Y-112272936D02*
X110735000Y-112727064D01*
%TO.C,R4*%
X113835000Y-112272936D02*
X113835000Y-112727064D01*
X112365000Y-112272936D02*
X112365000Y-112727064D01*
%TO.C,R3*%
X98772936Y-109265000D02*
X99227064Y-109265000D01*
X98772936Y-110735000D02*
X99227064Y-110735000D01*
%TO.C,R2*%
X109356359Y-109620000D02*
X109663641Y-109620000D01*
X109356359Y-110380000D02*
X109663641Y-110380000D01*
%TO.C,R1*%
X112356359Y-109620000D02*
X112663641Y-109620000D01*
X112356359Y-110380000D02*
X112663641Y-110380000D01*
%TO.C,JP1*%
X146470000Y-92525000D02*
X146470000Y-91195000D01*
X146470000Y-96395000D02*
X149130000Y-96395000D01*
X146470000Y-93795000D02*
X146470000Y-96395000D01*
X146470000Y-93795000D02*
X149130000Y-93795000D01*
X146470000Y-91195000D02*
X147800000Y-91195000D01*
X149130000Y-93795000D02*
X149130000Y-96395000D01*
%TO.C,J3*%
X88870000Y-123510000D02*
X88870000Y-149030000D01*
X83670000Y-126110000D02*
X86270000Y-126110000D01*
X83670000Y-124840000D02*
X83670000Y-123510000D01*
X86270000Y-123510000D02*
X88870000Y-123510000D01*
X83670000Y-149030000D02*
X88870000Y-149030000D01*
X83670000Y-123510000D02*
X85000000Y-123510000D01*
X83670000Y-126110000D02*
X83670000Y-149030000D01*
X86270000Y-126110000D02*
X86270000Y-123510000D01*
%TO.C,J1*%
X77850000Y-102580000D02*
X92850000Y-102580000D01*
X77850000Y-117580000D02*
X77850000Y-102580000D01*
X78050000Y-110080000D02*
X79050000Y-111080000D01*
X92850000Y-117580000D02*
X77850000Y-117580000D01*
X92850000Y-102580000D02*
X92850000Y-117580000D01*
X78050000Y-110080000D02*
X79050000Y-109080000D01*
%TO.C,D1*%
X105000000Y-111560000D02*
X106800000Y-111560000D01*
X105000000Y-111560000D02*
X104200000Y-111560000D01*
X105000000Y-108440000D02*
X105800000Y-108440000D01*
X105000000Y-108440000D02*
X104200000Y-108440000D01*
%TO.C,C9*%
X130572164Y-128260000D02*
X130787836Y-128260000D01*
X130572164Y-127540000D02*
X130787836Y-127540000D01*
%TO.C,C8*%
X130492164Y-112060000D02*
X130707836Y-112060000D01*
X130492164Y-111340000D02*
X130707836Y-111340000D01*
%TO.C,C7*%
X131792164Y-126160000D02*
X132007836Y-126160000D01*
X131792164Y-125440000D02*
X132007836Y-125440000D01*
%TO.C,C6*%
X131692164Y-109340000D02*
X131907836Y-109340000D01*
X131692164Y-110060000D02*
X131907836Y-110060000D01*
%TO.C,C5*%
X130492164Y-120260000D02*
X130707836Y-120260000D01*
X130492164Y-119540000D02*
X130707836Y-119540000D01*
%TO.C,C4*%
X130392164Y-104360000D02*
X130607836Y-104360000D01*
X130392164Y-103640000D02*
X130607836Y-103640000D01*
%TO.C,C3*%
X131692164Y-118160000D02*
X131907836Y-118160000D01*
X131692164Y-117440000D02*
X131907836Y-117440000D01*
%TO.C,C2*%
X131592164Y-102260000D02*
X131807836Y-102260000D01*
X131592164Y-101540000D02*
X131807836Y-101540000D01*
%TO.C,C1*%
X120592164Y-110360000D02*
X120807836Y-110360000D01*
X120592164Y-109640000D02*
X120807836Y-109640000D01*
%TD*%
M02*
